<?xml version="1.0" encoding="utf-8" standalone="no"?>
<!DOCTYPE svg PUBLIC "-//W3C//DTD SVG 1.1//EN"
  "http://www.w3.org/Graphics/SVG/1.1/DTD/svg11.dtd">
<svg xmlns:xlink="http://www.w3.org/1999/xlink" width="864pt" height="360pt" viewBox="0 0 864 360" xmlns="http://www.w3.org/2000/svg" version="1.1">
 <metadata>
  <rdf:RDF xmlns:dc="http://purl.org/dc/elements/1.1/" xmlns:cc="http://creativecommons.org/ns#" xmlns:rdf="http://www.w3.org/1999/02/22-rdf-syntax-ns#">
   <cc:Work>
    <dc:type rdf:resource="http://purl.org/dc/dcmitype/StillImage"/>
    <dc:date>2023-11-27T21:04:46.796878</dc:date>
    <dc:format>image/svg+xml</dc:format>
    <dc:creator>
     <cc:Agent>
      <dc:title>Matplotlib v3.7.4, https://matplotlib.org/</dc:title>
     </cc:Agent>
    </dc:creator>
   </cc:Work>
  </rdf:RDF>
 </metadata>
 <defs>
  <style type="text/css">*{stroke-linejoin: round; stroke-linecap: butt}</style>
 </defs>
 <g id="figure_1">
  <g id="patch_1">
   <path d="M 0 360 
L 864 360 
L 864 0 
L 0 0 
z
" style="fill: #ffffff"/>
  </g>
  <g id="axes_1">
   <g id="patch_2">
    <path d="M 108 320.4 
L 777.6 320.4 
L 777.6 43.2 
L 108 43.2 
z
" style="fill: #ffffff"/>
   </g>
   <g id="matplotlib.axis_1">
    <g id="xtick_1">
     <g id="line2d_1">
      <defs>
       <path id="m092a419c37" d="M 0 0 
L 0 3.5 
" style="stroke: #000000; stroke-width: 0.8"/>
      </defs>
      <g>
       <use xlink:href="#m092a419c37" x="138.436364" y="320.4" style="stroke: #000000; stroke-width: 0.8"/>
      </g>
     </g>
     <g id="text_1">
      <!-- 2022-01-01 -->
      <g transform="translate(103.566989 336.518125) scale(0.12 -0.12)">
       <defs>
        <path id="DejaVuSans-32" d="M 1228 531 
L 3431 531 
L 3431 0 
L 469 0 
L 469 531 
Q 828 903 1448 1529 
Q 2069 2156 2228 2338 
Q 2531 2678 2651 2914 
Q 2772 3150 2772 3378 
Q 2772 3750 2511 3984 
Q 2250 4219 1831 4219 
Q 1534 4219 1204 4116 
Q 875 4013 500 3803 
L 500 4441 
Q 881 4594 1212 4672 
Q 1544 4750 1819 4750 
Q 2544 4750 2975 4387 
Q 3406 4025 3406 3419 
Q 3406 3131 3298 2873 
Q 3191 2616 2906 2266 
Q 2828 2175 2409 1742 
Q 1991 1309 1228 531 
z
" transform="scale(0.015625)"/>
        <path id="DejaVuSans-30" d="M 2034 4250 
Q 1547 4250 1301 3770 
Q 1056 3291 1056 2328 
Q 1056 1369 1301 889 
Q 1547 409 2034 409 
Q 2525 409 2770 889 
Q 3016 1369 3016 2328 
Q 3016 3291 2770 3770 
Q 2525 4250 2034 4250 
z
M 2034 4750 
Q 2819 4750 3233 4129 
Q 3647 3509 3647 2328 
Q 3647 1150 3233 529 
Q 2819 -91 2034 -91 
Q 1250 -91 836 529 
Q 422 1150 422 2328 
Q 422 3509 836 4129 
Q 1250 4750 2034 4750 
z
" transform="scale(0.015625)"/>
        <path id="DejaVuSans-2d" d="M 313 2009 
L 1997 2009 
L 1997 1497 
L 313 1497 
L 313 2009 
z
" transform="scale(0.015625)"/>
        <path id="DejaVuSans-31" d="M 794 531 
L 1825 531 
L 1825 4091 
L 703 3866 
L 703 4441 
L 1819 4666 
L 2450 4666 
L 2450 531 
L 3481 531 
L 3481 0 
L 794 0 
L 794 531 
z
" transform="scale(0.015625)"/>
       </defs>
       <use xlink:href="#DejaVuSans-32"/>
       <use xlink:href="#DejaVuSans-30" x="63.623047"/>
       <use xlink:href="#DejaVuSans-32" x="127.246094"/>
       <use xlink:href="#DejaVuSans-32" x="190.869141"/>
       <use xlink:href="#DejaVuSans-2d" x="254.492188"/>
       <use xlink:href="#DejaVuSans-30" x="290.576172"/>
       <use xlink:href="#DejaVuSans-31" x="354.199219"/>
       <use xlink:href="#DejaVuSans-2d" x="417.822266"/>
       <use xlink:href="#DejaVuSans-30" x="453.90625"/>
       <use xlink:href="#DejaVuSans-31" x="517.529297"/>
      </g>
     </g>
    </g>
    <g id="xtick_2">
     <g id="line2d_2">
      <g>
       <use xlink:href="#m092a419c37" x="214.626479" y="320.4" style="stroke: #000000; stroke-width: 0.8"/>
      </g>
     </g>
     <g id="text_2">
      <!-- 2022-01-03 -->
      <g transform="translate(179.757104 336.518125) scale(0.12 -0.12)">
       <defs>
        <path id="DejaVuSans-33" d="M 2597 2516 
Q 3050 2419 3304 2112 
Q 3559 1806 3559 1356 
Q 3559 666 3084 287 
Q 2609 -91 1734 -91 
Q 1441 -91 1130 -33 
Q 819 25 488 141 
L 488 750 
Q 750 597 1062 519 
Q 1375 441 1716 441 
Q 2309 441 2620 675 
Q 2931 909 2931 1356 
Q 2931 1769 2642 2001 
Q 2353 2234 1838 2234 
L 1294 2234 
L 1294 2753 
L 1863 2753 
Q 2328 2753 2575 2939 
Q 2822 3125 2822 3475 
Q 2822 3834 2567 4026 
Q 2313 4219 1838 4219 
Q 1578 4219 1281 4162 
Q 984 4106 628 3988 
L 628 4550 
Q 988 4650 1302 4700 
Q 1616 4750 1894 4750 
Q 2613 4750 3031 4423 
Q 3450 4097 3450 3541 
Q 3450 3153 3228 2886 
Q 3006 2619 2597 2516 
z
" transform="scale(0.015625)"/>
       </defs>
       <use xlink:href="#DejaVuSans-32"/>
       <use xlink:href="#DejaVuSans-30" x="63.623047"/>
       <use xlink:href="#DejaVuSans-32" x="127.246094"/>
       <use xlink:href="#DejaVuSans-32" x="190.869141"/>
       <use xlink:href="#DejaVuSans-2d" x="254.492188"/>
       <use xlink:href="#DejaVuSans-30" x="290.576172"/>
       <use xlink:href="#DejaVuSans-31" x="354.199219"/>
       <use xlink:href="#DejaVuSans-2d" x="417.822266"/>
       <use xlink:href="#DejaVuSans-30" x="453.90625"/>
       <use xlink:href="#DejaVuSans-33" x="517.529297"/>
      </g>
     </g>
    </g>
    <g id="xtick_3">
     <g id="line2d_3">
      <g>
       <use xlink:href="#m092a419c37" x="290.816594" y="320.4" style="stroke: #000000; stroke-width: 0.8"/>
      </g>
     </g>
     <g id="text_3">
      <!-- 2022-01-05 -->
      <g transform="translate(255.947219 336.518125) scale(0.12 -0.12)">
       <defs>
        <path id="DejaVuSans-35" d="M 691 4666 
L 3169 4666 
L 3169 4134 
L 1269 4134 
L 1269 2991 
Q 1406 3038 1543 3061 
Q 1681 3084 1819 3084 
Q 2600 3084 3056 2656 
Q 3513 2228 3513 1497 
Q 3513 744 3044 326 
Q 2575 -91 1722 -91 
Q 1428 -91 1123 -41 
Q 819 9 494 109 
L 494 744 
Q 775 591 1075 516 
Q 1375 441 1709 441 
Q 2250 441 2565 725 
Q 2881 1009 2881 1497 
Q 2881 1984 2565 2268 
Q 2250 2553 1709 2553 
Q 1456 2553 1204 2497 
Q 953 2441 691 2322 
L 691 4666 
z
" transform="scale(0.015625)"/>
       </defs>
       <use xlink:href="#DejaVuSans-32"/>
       <use xlink:href="#DejaVuSans-30" x="63.623047"/>
       <use xlink:href="#DejaVuSans-32" x="127.246094"/>
       <use xlink:href="#DejaVuSans-32" x="190.869141"/>
       <use xlink:href="#DejaVuSans-2d" x="254.492188"/>
       <use xlink:href="#DejaVuSans-30" x="290.576172"/>
       <use xlink:href="#DejaVuSans-31" x="354.199219"/>
       <use xlink:href="#DejaVuSans-2d" x="417.822266"/>
       <use xlink:href="#DejaVuSans-30" x="453.90625"/>
       <use xlink:href="#DejaVuSans-35" x="517.529297"/>
      </g>
     </g>
    </g>
    <g id="xtick_4">
     <g id="line2d_4">
      <g>
       <use xlink:href="#m092a419c37" x="367.006709" y="320.4" style="stroke: #000000; stroke-width: 0.8"/>
      </g>
     </g>
     <g id="text_4">
      <!-- 2022-01-07 -->
      <g transform="translate(332.137334 336.518125) scale(0.12 -0.12)">
       <defs>
        <path id="DejaVuSans-37" d="M 525 4666 
L 3525 4666 
L 3525 4397 
L 1831 0 
L 1172 0 
L 2766 4134 
L 525 4134 
L 525 4666 
z
" transform="scale(0.015625)"/>
       </defs>
       <use xlink:href="#DejaVuSans-32"/>
       <use xlink:href="#DejaVuSans-30" x="63.623047"/>
       <use xlink:href="#DejaVuSans-32" x="127.246094"/>
       <use xlink:href="#DejaVuSans-32" x="190.869141"/>
       <use xlink:href="#DejaVuSans-2d" x="254.492188"/>
       <use xlink:href="#DejaVuSans-30" x="290.576172"/>
       <use xlink:href="#DejaVuSans-31" x="354.199219"/>
       <use xlink:href="#DejaVuSans-2d" x="417.822266"/>
       <use xlink:href="#DejaVuSans-30" x="453.90625"/>
       <use xlink:href="#DejaVuSans-37" x="517.529297"/>
      </g>
     </g>
    </g>
    <g id="xtick_5">
     <g id="line2d_5">
      <g>
       <use xlink:href="#m092a419c37" x="443.196824" y="320.4" style="stroke: #000000; stroke-width: 0.8"/>
      </g>
     </g>
     <g id="text_5">
      <!-- 2022-01-09 -->
      <g transform="translate(408.327449 336.518125) scale(0.12 -0.12)">
       <defs>
        <path id="DejaVuSans-39" d="M 703 97 
L 703 672 
Q 941 559 1184 500 
Q 1428 441 1663 441 
Q 2288 441 2617 861 
Q 2947 1281 2994 2138 
Q 2813 1869 2534 1725 
Q 2256 1581 1919 1581 
Q 1219 1581 811 2004 
Q 403 2428 403 3163 
Q 403 3881 828 4315 
Q 1253 4750 1959 4750 
Q 2769 4750 3195 4129 
Q 3622 3509 3622 2328 
Q 3622 1225 3098 567 
Q 2575 -91 1691 -91 
Q 1453 -91 1209 -44 
Q 966 3 703 97 
z
M 1959 2075 
Q 2384 2075 2632 2365 
Q 2881 2656 2881 3163 
Q 2881 3666 2632 3958 
Q 2384 4250 1959 4250 
Q 1534 4250 1286 3958 
Q 1038 3666 1038 3163 
Q 1038 2656 1286 2365 
Q 1534 2075 1959 2075 
z
" transform="scale(0.015625)"/>
       </defs>
       <use xlink:href="#DejaVuSans-32"/>
       <use xlink:href="#DejaVuSans-30" x="63.623047"/>
       <use xlink:href="#DejaVuSans-32" x="127.246094"/>
       <use xlink:href="#DejaVuSans-32" x="190.869141"/>
       <use xlink:href="#DejaVuSans-2d" x="254.492188"/>
       <use xlink:href="#DejaVuSans-30" x="290.576172"/>
       <use xlink:href="#DejaVuSans-31" x="354.199219"/>
       <use xlink:href="#DejaVuSans-2d" x="417.822266"/>
       <use xlink:href="#DejaVuSans-30" x="453.90625"/>
       <use xlink:href="#DejaVuSans-39" x="517.529297"/>
      </g>
     </g>
    </g>
    <g id="xtick_6">
     <g id="line2d_6">
      <g>
       <use xlink:href="#m092a419c37" x="519.386938" y="320.4" style="stroke: #000000; stroke-width: 0.8"/>
      </g>
     </g>
     <g id="text_6">
      <!-- 2022-01-11 -->
      <g transform="translate(484.517563 336.518125) scale(0.12 -0.12)">
       <use xlink:href="#DejaVuSans-32"/>
       <use xlink:href="#DejaVuSans-30" x="63.623047"/>
       <use xlink:href="#DejaVuSans-32" x="127.246094"/>
       <use xlink:href="#DejaVuSans-32" x="190.869141"/>
       <use xlink:href="#DejaVuSans-2d" x="254.492188"/>
       <use xlink:href="#DejaVuSans-30" x="290.576172"/>
       <use xlink:href="#DejaVuSans-31" x="354.199219"/>
       <use xlink:href="#DejaVuSans-2d" x="417.822266"/>
       <use xlink:href="#DejaVuSans-31" x="453.90625"/>
       <use xlink:href="#DejaVuSans-31" x="517.529297"/>
      </g>
     </g>
    </g>
    <g id="xtick_7">
     <g id="line2d_7">
      <g>
       <use xlink:href="#m092a419c37" x="595.577053" y="320.4" style="stroke: #000000; stroke-width: 0.8"/>
      </g>
     </g>
     <g id="text_7">
      <!-- 2022-01-13 -->
      <g transform="translate(560.707678 336.518125) scale(0.12 -0.12)">
       <use xlink:href="#DejaVuSans-32"/>
       <use xlink:href="#DejaVuSans-30" x="63.623047"/>
       <use xlink:href="#DejaVuSans-32" x="127.246094"/>
       <use xlink:href="#DejaVuSans-32" x="190.869141"/>
       <use xlink:href="#DejaVuSans-2d" x="254.492188"/>
       <use xlink:href="#DejaVuSans-30" x="290.576172"/>
       <use xlink:href="#DejaVuSans-31" x="354.199219"/>
       <use xlink:href="#DejaVuSans-2d" x="417.822266"/>
       <use xlink:href="#DejaVuSans-31" x="453.90625"/>
       <use xlink:href="#DejaVuSans-33" x="517.529297"/>
      </g>
     </g>
    </g>
    <g id="xtick_8">
     <g id="line2d_8">
      <g>
       <use xlink:href="#m092a419c37" x="671.767168" y="320.4" style="stroke: #000000; stroke-width: 0.8"/>
      </g>
     </g>
     <g id="text_8">
      <!-- 2022-01-15 -->
      <g transform="translate(636.897793 336.518125) scale(0.12 -0.12)">
       <use xlink:href="#DejaVuSans-32"/>
       <use xlink:href="#DejaVuSans-30" x="63.623047"/>
       <use xlink:href="#DejaVuSans-32" x="127.246094"/>
       <use xlink:href="#DejaVuSans-32" x="190.869141"/>
       <use xlink:href="#DejaVuSans-2d" x="254.492188"/>
       <use xlink:href="#DejaVuSans-30" x="290.576172"/>
       <use xlink:href="#DejaVuSans-31" x="354.199219"/>
       <use xlink:href="#DejaVuSans-2d" x="417.822266"/>
       <use xlink:href="#DejaVuSans-31" x="453.90625"/>
       <use xlink:href="#DejaVuSans-35" x="517.529297"/>
      </g>
     </g>
    </g>
    <g id="xtick_9">
     <g id="line2d_9">
      <g>
       <use xlink:href="#m092a419c37" x="747.957283" y="320.4" style="stroke: #000000; stroke-width: 0.8"/>
      </g>
     </g>
     <g id="text_9">
      <!-- 2022-01-17 -->
      <g transform="translate(713.087908 336.518125) scale(0.12 -0.12)">
       <use xlink:href="#DejaVuSans-32"/>
       <use xlink:href="#DejaVuSans-30" x="63.623047"/>
       <use xlink:href="#DejaVuSans-32" x="127.246094"/>
       <use xlink:href="#DejaVuSans-32" x="190.869141"/>
       <use xlink:href="#DejaVuSans-2d" x="254.492188"/>
       <use xlink:href="#DejaVuSans-30" x="290.576172"/>
       <use xlink:href="#DejaVuSans-31" x="354.199219"/>
       <use xlink:href="#DejaVuSans-2d" x="417.822266"/>
       <use xlink:href="#DejaVuSans-31" x="453.90625"/>
       <use xlink:href="#DejaVuSans-37" x="517.529297"/>
      </g>
     </g>
    </g>
    <g id="text_10">
     <!-- TIME (DAYS) -->
     <g transform="translate(393.97375 355.17125) scale(0.16 -0.16)">
      <defs>
       <path id="DejaVuSans-54" d="M -19 4666 
L 3928 4666 
L 3928 4134 
L 2272 4134 
L 2272 0 
L 1638 0 
L 1638 4134 
L -19 4134 
L -19 4666 
z
" transform="scale(0.015625)"/>
       <path id="DejaVuSans-49" d="M 628 4666 
L 1259 4666 
L 1259 0 
L 628 0 
L 628 4666 
z
" transform="scale(0.015625)"/>
       <path id="DejaVuSans-4d" d="M 628 4666 
L 1569 4666 
L 2759 1491 
L 3956 4666 
L 4897 4666 
L 4897 0 
L 4281 0 
L 4281 4097 
L 3078 897 
L 2444 897 
L 1241 4097 
L 1241 0 
L 628 0 
L 628 4666 
z
" transform="scale(0.015625)"/>
       <path id="DejaVuSans-45" d="M 628 4666 
L 3578 4666 
L 3578 4134 
L 1259 4134 
L 1259 2753 
L 3481 2753 
L 3481 2222 
L 1259 2222 
L 1259 531 
L 3634 531 
L 3634 0 
L 628 0 
L 628 4666 
z
" transform="scale(0.015625)"/>
       <path id="DejaVuSans-20" transform="scale(0.015625)"/>
       <path id="DejaVuSans-28" d="M 1984 4856 
Q 1566 4138 1362 3434 
Q 1159 2731 1159 2009 
Q 1159 1288 1364 580 
Q 1569 -128 1984 -844 
L 1484 -844 
Q 1016 -109 783 600 
Q 550 1309 550 2009 
Q 550 2706 781 3412 
Q 1013 4119 1484 4856 
L 1984 4856 
z
" transform="scale(0.015625)"/>
       <path id="DejaVuSans-44" d="M 1259 4147 
L 1259 519 
L 2022 519 
Q 2988 519 3436 956 
Q 3884 1394 3884 2338 
Q 3884 3275 3436 3711 
Q 2988 4147 2022 4147 
L 1259 4147 
z
M 628 4666 
L 1925 4666 
Q 3281 4666 3915 4102 
Q 4550 3538 4550 2338 
Q 4550 1131 3912 565 
Q 3275 0 1925 0 
L 628 0 
L 628 4666 
z
" transform="scale(0.015625)"/>
       <path id="DejaVuSans-41" d="M 2188 4044 
L 1331 1722 
L 3047 1722 
L 2188 4044 
z
M 1831 4666 
L 2547 4666 
L 4325 0 
L 3669 0 
L 3244 1197 
L 1141 1197 
L 716 0 
L 50 0 
L 1831 4666 
z
" transform="scale(0.015625)"/>
       <path id="DejaVuSans-59" d="M -13 4666 
L 666 4666 
L 1959 2747 
L 3244 4666 
L 3922 4666 
L 2272 2222 
L 2272 0 
L 1638 0 
L 1638 2222 
L -13 4666 
z
" transform="scale(0.015625)"/>
       <path id="DejaVuSans-53" d="M 3425 4513 
L 3425 3897 
Q 3066 4069 2747 4153 
Q 2428 4238 2131 4238 
Q 1616 4238 1336 4038 
Q 1056 3838 1056 3469 
Q 1056 3159 1242 3001 
Q 1428 2844 1947 2747 
L 2328 2669 
Q 3034 2534 3370 2195 
Q 3706 1856 3706 1288 
Q 3706 609 3251 259 
Q 2797 -91 1919 -91 
Q 1588 -91 1214 -16 
Q 841 59 441 206 
L 441 856 
Q 825 641 1194 531 
Q 1563 422 1919 422 
Q 2459 422 2753 634 
Q 3047 847 3047 1241 
Q 3047 1584 2836 1778 
Q 2625 1972 2144 2069 
L 1759 2144 
Q 1053 2284 737 2584 
Q 422 2884 422 3419 
Q 422 4038 858 4394 
Q 1294 4750 2059 4750 
Q 2388 4750 2728 4690 
Q 3069 4631 3425 4513 
z
" transform="scale(0.015625)"/>
       <path id="DejaVuSans-29" d="M 513 4856 
L 1013 4856 
Q 1481 4119 1714 3412 
Q 1947 2706 1947 2009 
Q 1947 1309 1714 600 
Q 1481 -109 1013 -844 
L 513 -844 
Q 928 -128 1133 580 
Q 1338 1288 1338 2009 
Q 1338 2731 1133 3434 
Q 928 4138 513 4856 
z
" transform="scale(0.015625)"/>
      </defs>
      <use xlink:href="#DejaVuSans-54"/>
      <use xlink:href="#DejaVuSans-49" x="61.083984"/>
      <use xlink:href="#DejaVuSans-4d" x="90.576172"/>
      <use xlink:href="#DejaVuSans-45" x="176.855469"/>
      <use xlink:href="#DejaVuSans-20" x="240.039062"/>
      <use xlink:href="#DejaVuSans-28" x="271.826172"/>
      <use xlink:href="#DejaVuSans-44" x="310.839844"/>
      <use xlink:href="#DejaVuSans-41" x="386.091797"/>
      <use xlink:href="#DejaVuSans-59" x="446.75"/>
      <use xlink:href="#DejaVuSans-53" x="507.833984"/>
      <use xlink:href="#DejaVuSans-29" x="571.310547"/>
     </g>
    </g>
   </g>
   <g id="matplotlib.axis_2">
    <g id="ytick_1">
     <g id="line2d_10">
      <defs>
       <path id="mde5bd8b81b" d="M 0 0 
L -3.5 0 
" style="stroke: #000000; stroke-width: 0.8"/>
      </defs>
      <g>
       <use xlink:href="#mde5bd8b81b" x="108" y="307.8" style="stroke: #000000; stroke-width: 0.8"/>
      </g>
     </g>
     <g id="text_11">
      <!-- 0 -->
      <g transform="translate(93.365 312.359062) scale(0.12 -0.12)">
       <use xlink:href="#DejaVuSans-30"/>
      </g>
     </g>
    </g>
    <g id="ytick_2">
     <g id="line2d_11">
      <g>
       <use xlink:href="#mde5bd8b81b" x="108" y="262.147826" style="stroke: #000000; stroke-width: 0.8"/>
      </g>
     </g>
     <g id="text_12">
      <!-- 50 -->
      <g transform="translate(85.73 266.706889) scale(0.12 -0.12)">
       <use xlink:href="#DejaVuSans-35"/>
       <use xlink:href="#DejaVuSans-30" x="63.623047"/>
      </g>
     </g>
    </g>
    <g id="ytick_3">
     <g id="line2d_12">
      <g>
       <use xlink:href="#mde5bd8b81b" x="108" y="216.495652" style="stroke: #000000; stroke-width: 0.8"/>
      </g>
     </g>
     <g id="text_13">
      <!-- 100 -->
      <g transform="translate(78.095 221.054715) scale(0.12 -0.12)">
       <use xlink:href="#DejaVuSans-31"/>
       <use xlink:href="#DejaVuSans-30" x="63.623047"/>
       <use xlink:href="#DejaVuSans-30" x="127.246094"/>
      </g>
     </g>
    </g>
    <g id="ytick_4">
     <g id="line2d_13">
      <g>
       <use xlink:href="#mde5bd8b81b" x="108" y="170.843478" style="stroke: #000000; stroke-width: 0.8"/>
      </g>
     </g>
     <g id="text_14">
      <!-- 150 -->
      <g transform="translate(78.095 175.402541) scale(0.12 -0.12)">
       <use xlink:href="#DejaVuSans-31"/>
       <use xlink:href="#DejaVuSans-35" x="63.623047"/>
       <use xlink:href="#DejaVuSans-30" x="127.246094"/>
      </g>
     </g>
    </g>
    <g id="ytick_5">
     <g id="line2d_14">
      <g>
       <use xlink:href="#mde5bd8b81b" x="108" y="125.191304" style="stroke: #000000; stroke-width: 0.8"/>
      </g>
     </g>
     <g id="text_15">
      <!-- 200 -->
      <g transform="translate(78.095 129.750367) scale(0.12 -0.12)">
       <use xlink:href="#DejaVuSans-32"/>
       <use xlink:href="#DejaVuSans-30" x="63.623047"/>
       <use xlink:href="#DejaVuSans-30" x="127.246094"/>
      </g>
     </g>
    </g>
    <g id="ytick_6">
     <g id="line2d_15">
      <g>
       <use xlink:href="#mde5bd8b81b" x="108" y="79.53913" style="stroke: #000000; stroke-width: 0.8"/>
      </g>
     </g>
     <g id="text_16">
      <!-- 250 -->
      <g transform="translate(78.095 84.098193) scale(0.12 -0.12)">
       <use xlink:href="#DejaVuSans-32"/>
       <use xlink:href="#DejaVuSans-35" x="63.623047"/>
       <use xlink:href="#DejaVuSans-30" x="127.246094"/>
      </g>
     </g>
    </g>
    <g id="text_17">
     <!-- SIMULATED -->
     <g transform="translate(52.851 227.5875) rotate(-90) scale(0.16 -0.16)">
      <defs>
       <path id="DejaVuSans-55" d="M 556 4666 
L 1191 4666 
L 1191 1831 
Q 1191 1081 1462 751 
Q 1734 422 2344 422 
Q 2950 422 3222 751 
Q 3494 1081 3494 1831 
L 3494 4666 
L 4128 4666 
L 4128 1753 
Q 4128 841 3676 375 
Q 3225 -91 2344 -91 
Q 1459 -91 1007 375 
Q 556 841 556 1753 
L 556 4666 
z
" transform="scale(0.015625)"/>
       <path id="DejaVuSans-4c" d="M 628 4666 
L 1259 4666 
L 1259 531 
L 3531 531 
L 3531 0 
L 628 0 
L 628 4666 
z
" transform="scale(0.015625)"/>
      </defs>
      <use xlink:href="#DejaVuSans-53"/>
      <use xlink:href="#DejaVuSans-49" x="63.476562"/>
      <use xlink:href="#DejaVuSans-4d" x="92.96875"/>
      <use xlink:href="#DejaVuSans-55" x="179.248047"/>
      <use xlink:href="#DejaVuSans-4c" x="252.441406"/>
      <use xlink:href="#DejaVuSans-41" x="310.404297"/>
      <use xlink:href="#DejaVuSans-54" x="371.0625"/>
      <use xlink:href="#DejaVuSans-45" x="432.146484"/>
      <use xlink:href="#DejaVuSans-44" x="495.330078"/>
     </g>
     <!-- AMPLITUDE -->
     <g transform="translate(70.7675 227.7725) rotate(-90) scale(0.16 -0.16)">
      <defs>
       <path id="DejaVuSans-50" d="M 1259 4147 
L 1259 2394 
L 2053 2394 
Q 2494 2394 2734 2622 
Q 2975 2850 2975 3272 
Q 2975 3691 2734 3919 
Q 2494 4147 2053 4147 
L 1259 4147 
z
M 628 4666 
L 2053 4666 
Q 2838 4666 3239 4311 
Q 3641 3956 3641 3272 
Q 3641 2581 3239 2228 
Q 2838 1875 2053 1875 
L 1259 1875 
L 1259 0 
L 628 0 
L 628 4666 
z
" transform="scale(0.015625)"/>
      </defs>
      <use xlink:href="#DejaVuSans-41"/>
      <use xlink:href="#DejaVuSans-4d" x="68.408203"/>
      <use xlink:href="#DejaVuSans-50" x="154.6875"/>
      <use xlink:href="#DejaVuSans-4c" x="214.990234"/>
      <use xlink:href="#DejaVuSans-49" x="270.703125"/>
      <use xlink:href="#DejaVuSans-54" x="300.195312"/>
      <use xlink:href="#DejaVuSans-55" x="361.279297"/>
      <use xlink:href="#DejaVuSans-44" x="434.472656"/>
      <use xlink:href="#DejaVuSans-45" x="511.474609"/>
     </g>
    </g>
   </g>
   <g id="line2d_16">
    <path d="M 138.436364 253.930435 
L 139.230011 307.8 
L 140.023658 280.408696 
L 140.817305 294.104348 
L 141.610952 250.278261 
L 142.404599 219.234783 
L 143.198246 247.53913 
L 143.991893 303.234783 
L 144.78554 307.8 
L 145.579187 293.191304 
L 146.372834 307.8 
L 147.166481 139.8 
L 147.960128 307.8 
L 151.928363 307.8 
L 152.72201 233.843478 
L 153.515657 297.756522 
L 154.309304 268.53913 
L 155.102951 307.8 
L 155.896598 240.234783 
L 156.690245 208.278261 
L 157.483892 200.973913 
L 158.277539 201.886957 
L 159.071186 87.756522 
L 159.864833 256.669565 
L 160.658481 208.278261 
L 161.452128 253.017391 
L 162.245775 237.495652 
L 163.039422 210.104348 
L 163.833069 147.104348 
L 164.626716 183.626087 
L 165.420363 155.321739 
L 166.21401 226.53913 
L 167.007657 157.147826 
L 167.801304 272.191304 
L 168.594951 139.8 
L 169.388598 126.104348 
L 170.182245 162.626087 
L 170.975892 123.365217 
L 171.769539 203.713043 
L 172.563186 232.017391 
L 173.356833 233.843478 
L 174.15048 188.191304 
L 174.944127 295.017391 
L 175.737774 108.756522 
L 176.531421 307.8 
L 177.325068 268.53913 
L 178.118715 284.973913 
L 178.912362 307.8 
L 181.293303 307.8 
L 182.08695 277.669565 
L 182.880597 279.495652 
L 183.674244 254.843478 
L 184.467891 307.8 
L 185.261538 307.8 
L 186.055185 232.017391 
L 186.848833 214.669565 
L 187.64248 286.8 
L 188.436127 244.8 
L 189.229774 192.756522 
L 190.023421 276.756522 
L 190.817068 255.756522 
L 191.610715 307.8 
L 192.404362 307.8 
L 193.198009 196.408696 
L 193.991656 307.8 
L 194.785303 307.8 
L 195.57895 264.886957 
L 196.372597 178.147826 
L 197.166244 307.8 
L 197.959891 184.53913 
L 198.753538 249.365217 
L 199.547185 191.843478 
L 200.340832 282.234783 
L 201.134479 250.278261 
L 201.928126 176.321739 
L 202.721773 189.104348 
L 203.51542 307.8 
L 204.309067 222.886957 
L 205.102714 252.104348 
L 205.896361 94.147826 
L 206.690008 278.582609 
L 207.483655 242.06087 
L 208.277302 307.8 
L 209.070949 231.104348 
L 209.864596 260.321739 
L 210.658243 284.973913 
L 211.45189 137.06087 
L 212.245538 222.886957 
L 213.039185 216.495652 
L 213.832832 157.147826 
L 214.626479 232.017391 
L 215.420126 257.582609 
L 216.213773 217.408696 
L 217.00742 307.8 
L 217.801067 250.278261 
L 218.594714 307.8 
L 219.388361 269.452174 
L 220.182008 307.8 
L 220.975655 307.8 
L 221.769302 180.886957 
L 222.562949 161.713043 
L 223.356596 307.8 
L 224.94389 307.8 
L 225.737537 243.886957 
L 226.531184 101.452174 
L 227.324831 219.234783 
L 228.118478 187.278261 
L 228.912125 307.8 
L 229.705772 307.8 
L 230.499419 287.713043 
L 231.293066 233.843478 
L 232.086713 274.930435 
L 232.88036 284.973913 
L 233.674007 246.626087 
L 234.467654 284.973913 
L 235.261301 165.365217 
L 236.054948 160.8 
L 236.848595 250.278261 
L 237.642243 307.8 
L 238.43589 235.669565 
L 239.229537 266.713043 
L 240.023184 145.278261 
L 240.816831 271.278261 
L 241.610478 149.843478 
L 243.197772 274.017391 
L 243.991419 280.408696 
L 244.785066 260.321739 
L 245.578713 229.278261 
L 246.37236 162.626087 
L 247.166007 202.8 
L 247.959654 209.191304 
L 248.753301 166.278261 
L 249.546948 116.973913 
L 250.340595 158.06087 
L 251.134242 147.104348 
L 251.927889 238.408696 
L 252.721536 154.408696 
L 253.515183 219.234783 
L 254.30883 220.147826 
L 255.102477 250.278261 
L 255.896124 254.843478 
L 256.689771 265.8 
L 257.483418 193.669565 
L 258.277065 256.669565 
L 259.070712 290.452174 
L 259.864359 307.8 
L 260.658006 103.278261 
L 261.451653 298.669565 
L 262.2453 295.017391 
L 263.038947 307.8 
L 264.626242 307.8 
L 265.419889 272.191304 
L 267.007183 239.321739 
L 267.80083 293.191304 
L 268.594477 229.278261 
L 269.388124 234.756522 
L 270.181771 266.713043 
L 270.975418 307.8 
L 271.769065 181.8 
L 272.562712 307.8 
L 273.356359 307.8 
L 274.150006 234.756522 
L 274.943653 307.8 
L 275.7373 138.886957 
L 276.530947 243.886957 
L 278.118241 276.756522 
L 278.911888 250.278261 
L 279.705535 291.365217 
L 280.499182 147.104348 
L 281.292829 255.756522 
L 282.086476 240.234783 
L 282.880123 270.365217 
L 283.67377 307.8 
L 284.467417 102.365217 
L 285.261064 190.930435 
L 286.054711 250.278261 
L 286.848358 205.53913 
L 287.642005 200.973913 
L 288.435652 232.017391 
L 289.2293 186.365217 
L 290.022947 179.06087 
L 290.816594 201.886957 
L 291.610241 259.408696 
L 292.403888 221.973913 
L 293.197535 307.8 
L 296.372123 307.8 
L 297.16577 235.669565 
L 297.959417 201.886957 
L 298.753064 231.104348 
L 299.546711 307.8 
L 300.340358 185.452174 
L 301.134005 267.626087 
L 301.927652 305.973913 
L 302.721299 289.53913 
L 303.514946 284.06087 
L 304.308593 263.06087 
L 305.10224 307.8 
L 305.895887 275.843478 
L 306.689534 274.930435 
L 307.483181 286.8 
L 308.276828 285.886957 
L 309.070475 307.8 
L 309.864122 292.278261 
L 310.657769 307.8 
L 311.451416 307.8 
L 312.245063 178.147826 
L 313.03871 287.713043 
L 313.832357 283.147826 
L 314.626005 174.495652 
L 315.419652 247.53913 
L 316.213299 268.53913 
L 317.006946 90.495652 
L 317.800593 190.930435 
L 318.59424 307.8 
L 319.387887 90.495652 
L 320.181534 165.365217 
L 320.975181 193.669565 
L 322.562475 307.8 
L 323.356122 305.973913 
L 324.149769 188.191304 
L 324.943416 203.713043 
L 325.737063 293.191304 
L 326.53071 217.408696 
L 327.324357 251.191304 
L 328.118004 221.973913 
L 328.911651 155.321739 
L 329.705298 217.408696 
L 330.498945 213.756522 
L 331.292592 164.452174 
L 332.086239 196.408696 
L 332.879886 293.191304 
L 333.673533 263.06087 
L 334.46718 307.8 
L 335.260827 290.452174 
L 336.054474 286.8 
L 336.848121 307.8 
L 337.641768 307.8 
L 338.435415 110.582609 
L 339.229062 307.8 
L 340.816357 307.8 
L 341.610004 230.191304 
L 342.403651 306.886957 
L 343.197298 307.8 
L 343.990945 164.452174 
L 344.784592 307.8 
L 345.578239 251.191304 
L 346.371886 245.713043 
L 347.165533 292.278261 
L 347.95918 205.53913 
L 348.752827 264.886957 
L 349.546474 307.8 
L 350.340121 265.8 
L 351.133768 165.365217 
L 351.927415 152.582609 
L 352.721062 188.191304 
L 353.514709 307.8 
L 354.308356 197.321739 
L 355.102003 180.886957 
L 355.89565 276.756522 
L 356.689297 121.53913 
L 357.482944 241.147826 
L 358.276591 213.756522 
L 359.070238 266.713043 
L 359.863885 180.886957 
L 360.657532 268.53913 
L 361.451179 209.191304 
L 362.244826 197.321739 
L 363.038473 233.843478 
L 363.83212 307.8 
L 364.625767 213.756522 
L 365.419414 211.017391 
L 366.213062 180.886957 
L 367.006709 263.06087 
L 368.594003 162.626087 
L 369.38765 209.191304 
L 370.181297 295.930435 
L 370.974944 250.278261 
L 371.768591 307.8 
L 372.562238 245.713043 
L 373.355885 307.8 
L 374.149532 307.8 
L 374.943179 275.843478 
L 375.736826 307.8 
L 376.530473 254.843478 
L 377.32412 240.234783 
L 378.117767 307.8 
L 378.911414 283.147826 
L 379.705061 307.8 
L 380.498708 157.147826 
L 381.292355 307.8 
L 382.086002 199.147826 
L 382.879649 307.8 
L 383.673296 291.365217 
L 384.466943 230.191304 
L 385.26059 273.104348 
L 386.054237 284.06087 
L 386.847884 307.8 
L 387.641531 227.452174 
L 388.435178 280.408696 
L 389.228825 307.8 
L 390.022472 266.713043 
L 390.816119 307.8 
L 391.609767 190.930435 
L 392.403414 127.930435 
L 393.197061 215.582609 
L 393.990708 253.930435 
L 394.784355 273.104348 
L 395.578002 242.973913 
L 396.371649 162.626087 
L 397.165296 168.104348 
L 397.958943 263.06087 
L 398.75259 158.06087 
L 399.546237 182.713043 
L 400.339884 179.06087 
L 401.133531 210.104348 
L 401.927178 145.278261 
L 402.720825 182.713043 
L 403.514472 277.669565 
L 404.308119 220.147826 
L 405.101766 205.53913 
L 405.895413 175.408696 
L 406.68906 263.06087 
L 407.482707 236.582609 
L 408.276354 244.8 
L 409.070001 307.8 
L 409.863648 302.321739 
L 410.657295 307.8 
L 411.450942 307.8 
L 412.244589 277.669565 
L 413.038236 290.452174 
L 413.831883 307.8 
L 414.62553 294.104348 
L 416.212824 211.930435 
L 417.006471 307.8 
L 419.387413 307.8 
L 420.18106 290.452174 
L 420.974707 307.8 
L 421.768354 273.104348 
L 422.562001 307.8 
L 423.355648 289.53913 
L 424.149295 307.8 
L 425.736589 307.8 
L 426.530236 293.191304 
L 427.323883 304.147826 
L 428.11753 188.191304 
L 428.911177 166.278261 
L 429.704824 184.53913 
L 430.498471 234.756522 
L 431.292118 200.973913 
L 432.085765 239.321739 
L 432.879412 209.191304 
L 433.673059 307.8 
L 434.466706 307.8 
L 435.260353 210.104348 
L 436.054 259.408696 
L 436.847647 147.104348 
L 437.641294 268.53913 
L 438.434941 200.06087 
L 439.228588 213.756522 
L 440.022235 265.8 
L 440.815882 296.843478 
L 442.403176 270.365217 
L 443.196824 205.53913 
L 443.990471 217.408696 
L 444.784118 173.582609 
L 445.577765 190.017391 
L 446.371412 190.017391 
L 447.165059 195.495652 
L 447.958706 295.930435 
L 448.752353 227.452174 
L 449.546 307.8 
L 450.339647 307.8 
L 451.133294 297.756522 
L 451.926941 307.8 
L 452.720588 259.408696 
L 453.514235 307.8 
L 454.307882 307.8 
L 455.101529 284.06087 
L 455.895176 269.452174 
L 456.688823 307.8 
L 458.276117 307.8 
L 459.069764 237.495652 
L 459.863411 242.06087 
L 460.657058 307.8 
L 461.450705 231.104348 
L 462.244352 234.756522 
L 463.037999 296.843478 
L 464.625293 307.8 
L 466.212587 307.8 
L 467.006234 245.713043 
L 467.799881 245.713043 
L 468.593529 224.713043 
L 469.387176 236.582609 
L 470.180823 120.626087 
L 470.97447 307.8 
L 471.768117 222.886957 
L 472.561764 235.669565 
L 473.355411 180.886957 
L 474.149058 260.321739 
L 474.942705 73.147826 
L 476.529999 179.973913 
L 477.323646 215.582609 
L 478.117293 298.669565 
L 478.91094 106.017391 
L 479.704587 307.8 
L 480.498234 146.191304 
L 481.291881 299.582609 
L 482.085528 159.886957 
L 482.879175 273.104348 
L 483.672822 102.365217 
L 484.466469 300.495652 
L 485.260116 224.713043 
L 486.053763 297.756522 
L 486.84741 184.53913 
L 487.641057 307.8 
L 488.434704 307.8 
L 489.228351 300.495652 
L 490.021998 307.8 
L 490.815645 307.8 
L 491.609292 180.886957 
L 492.402939 292.278261 
L 493.196586 291.365217 
L 493.990233 304.147826 
L 494.783881 307.8 
L 496.371175 307.8 
L 497.164822 268.53913 
L 497.958469 304.147826 
L 498.752116 286.8 
L 499.545763 280.408696 
L 500.33941 303.234783 
L 501.133057 307.8 
L 505.101292 307.8 
L 505.894939 199.147826 
L 506.688586 253.930435 
L 507.482233 164.452174 
L 508.27588 115.147826 
L 509.069527 273.104348 
L 509.863174 187.278261 
L 511.450468 231.104348 
L 512.244115 305.973913 
L 513.037762 207.365217 
L 513.831409 282.234783 
L 515.418703 197.321739 
L 516.21235 176.321739 
L 517.005997 253.017391 
L 517.799644 255.756522 
L 518.593291 113.321739 
L 519.386938 161.713043 
L 520.180586 283.147826 
L 520.974233 81.365217 
L 521.76788 260.321739 
L 522.561527 143.452174 
L 523.355174 294.104348 
L 524.148821 183.626087 
L 524.942468 100.53913 
L 525.736115 165.365217 
L 526.529762 307.8 
L 527.323409 303.234783 
L 528.117056 181.8 
L 528.910703 307.8 
L 529.70435 229.278261 
L 530.497997 307.8 
L 531.291644 269.452174 
L 532.085291 307.8 
L 532.878938 307.8 
L 533.672585 298.669565 
L 534.466232 230.191304 
L 535.259879 307.8 
L 536.053526 253.017391 
L 536.847173 279.495652 
L 537.64082 227.452174 
L 538.434467 224.713043 
L 539.228114 269.452174 
L 540.021761 307.8 
L 541.609055 307.8 
L 542.402702 274.017391 
L 543.196349 300.495652 
L 543.989996 307.8 
L 546.370938 307.8 
L 547.164585 112.408696 
L 547.958232 247.53913 
L 548.751879 254.843478 
L 549.545526 252.104348 
L 550.339173 307.8 
L 551.13282 167.191304 
L 551.926467 85.930435 
L 552.720114 212.843478 
L 553.513761 247.53913 
L 554.307408 189.104348 
L 555.101055 283.147826 
L 555.894702 267.626087 
L 556.688349 147.104348 
L 557.481996 139.8 
L 558.275643 127.017391 
L 559.06929 181.8 
L 559.862937 132.495652 
L 560.656584 250.278261 
L 561.450231 208.278261 
L 562.243878 205.53913 
L 563.037525 307.8 
L 563.831172 279.495652 
L 564.624819 153.495652 
L 565.418466 235.669565 
L 567.00576 304.147826 
L 567.799407 307.8 
L 568.593054 270.365217 
L 569.386701 307.8 
L 571.767643 307.8 
L 572.56129 267.626087 
L 573.354937 253.017391 
L 574.148584 307.8 
L 574.942231 307.8 
L 575.735878 293.191304 
L 576.529525 307.8 
L 580.49776 307.8 
L 581.291407 195.495652 
L 582.085054 307.8 
L 582.878701 266.713043 
L 583.672348 279.495652 
L 584.465995 138.886957 
L 585.259642 275.843478 
L 586.053289 307.8 
L 586.846936 229.278261 
L 587.640583 214.669565 
L 588.43423 284.973913 
L 589.227877 277.669565 
L 590.021524 166.278261 
L 590.815171 291.365217 
L 591.608818 174.495652 
L 592.402465 285.886957 
L 593.196112 190.930435 
L 593.989759 167.191304 
L 594.783406 189.104348 
L 595.577053 243.886957 
L 596.3707 201.886957 
L 597.164348 176.321739 
L 597.957995 93.234783 
L 598.751642 243.886957 
L 599.545289 256.669565 
L 600.338936 134.321739 
L 601.132583 307.8 
L 601.92623 307.8 
L 603.513524 250.278261 
L 604.307171 232.017391 
L 605.100818 283.147826 
L 605.894465 191.843478 
L 606.688112 283.147826 
L 607.481759 307.8 
L 608.275406 307.8 
L 609.069053 280.408696 
L 609.8627 307.8 
L 612.243641 307.8 
L 613.037288 190.017391 
L 613.830935 203.713043 
L 614.624582 307.8 
L 615.418229 276.756522 
L 616.211876 301.408696 
L 617.005523 265.8 
L 617.79917 283.147826 
L 618.592817 287.713043 
L 619.386464 307.8 
L 621.767405 307.8 
L 622.561053 201.886957 
L 623.3547 307.8 
L 624.148347 161.713043 
L 624.941994 281.321739 
L 625.735641 307.8 
L 626.529288 255.756522 
L 627.322935 183.626087 
L 628.116582 297.756522 
L 628.910229 240.234783 
L 629.703876 264.886957 
L 630.497523 275.843478 
L 631.29117 249.365217 
L 632.084817 170.843478 
L 632.878464 267.626087 
L 633.672111 237.495652 
L 634.465758 288.626087 
L 635.259405 284.06087 
L 636.053052 77.713043 
L 636.846699 274.930435 
L 637.640346 102.365217 
L 638.433993 276.756522 
L 639.22764 240.234783 
L 640.021287 179.973913 
L 640.814934 172.669565 
L 641.608581 277.669565 
L 643.195875 192.756522 
L 643.989522 240.234783 
L 644.783169 208.278261 
L 645.576816 201.886957 
L 646.370463 284.973913 
L 647.16411 161.713043 
L 647.957757 234.756522 
L 648.751405 285.886957 
L 649.545052 307.8 
L 650.338699 307.8 
L 651.132346 304.147826 
L 651.925993 307.8 
L 652.71964 307.8 
L 653.513287 275.843478 
L 654.306934 307.8 
L 655.100581 295.017391 
L 655.894228 307.8 
L 656.687875 255.756522 
L 657.481522 307.8 
L 658.275169 307.8 
L 659.068816 258.495652 
L 659.862463 307.8 
L 661.449757 307.8 
L 662.243404 304.147826 
L 663.037051 280.408696 
L 663.830698 307.8 
L 664.624345 307.8 
L 665.417992 161.713043 
L 667.005286 307.8 
L 668.59258 104.191304 
L 669.386227 127.017391 
L 670.179874 198.234783 
L 670.973521 127.930435 
L 671.767168 150.756522 
L 672.560815 266.713043 
L 673.354462 217.408696 
L 674.14811 307.8 
L 674.941757 241.147826 
L 675.735404 194.582609 
L 676.529051 225.626087 
L 677.322698 230.191304 
L 678.116345 221.06087 
L 678.909992 237.495652 
L 679.703639 117.886957 
L 680.497286 221.06087 
L 681.290933 177.234783 
L 682.878227 257.582609 
L 683.671874 64.017391 
L 684.465521 222.886957 
L 685.259168 221.06087 
L 686.052815 271.278261 
L 686.846462 55.8 
L 687.640109 283.147826 
L 688.433756 305.06087 
L 689.227403 307.8 
L 690.02105 267.626087 
L 690.814697 302.321739 
L 691.608344 259.408696 
L 692.401991 266.713043 
L 693.195638 234.756522 
L 693.989285 273.104348 
L 694.782932 289.53913 
L 695.576579 274.930435 
L 696.370226 307.8 
L 699.544815 307.8 
L 700.338462 229.278261 
L 701.132109 290.452174 
L 701.925756 258.495652 
L 702.719403 261.234783 
L 703.51305 300.495652 
L 704.306697 307.8 
L 705.893991 307.8 
L 706.687638 178.147826 
L 707.481285 145.278261 
L 708.274932 148.930435 
L 709.068579 307.8 
L 709.862226 253.017391 
L 710.655873 262.147826 
L 711.44952 234.756522 
L 712.243167 200.973913 
L 713.036814 220.147826 
L 713.830461 205.53913 
L 714.624108 169.017391 
L 715.417755 245.713043 
L 716.211402 194.582609 
L 717.005049 206.452174 
L 717.798696 252.104348 
L 718.592343 150.756522 
L 719.38599 87.756522 
L 720.179637 307.8 
L 720.973284 307.8 
L 721.766931 166.278261 
L 722.560578 253.017391 
L 723.354225 137.06087 
L 724.147872 290.452174 
L 724.941519 85.930435 
L 725.735167 230.191304 
L 726.528814 121.53913 
L 728.116108 307.8 
L 728.909755 297.756522 
L 729.703402 228.365217 
L 730.497049 305.973913 
L 731.290696 307.8 
L 732.084343 285.886957 
L 732.87799 307.8 
L 733.671637 220.147826 
L 734.465284 307.8 
L 739.227166 307.8 
L 740.020813 254.843478 
L 740.81446 236.582609 
L 741.608107 307.8 
L 742.401754 269.452174 
L 743.195401 307.8 
L 747.163636 307.8 
L 747.163636 307.8 
" clip-path="url(#p799fc2e4b8)" style="fill: none; stroke: #191970; stroke-width: 2; stroke-linecap: square"/>
   </g>
   <g id="patch_3">
    <path d="M 108 320.4 
L 108 43.2 
" style="fill: none; stroke: #000000; stroke-width: 0.8; stroke-linejoin: miter; stroke-linecap: square"/>
   </g>
   <g id="patch_4">
    <path d="M 777.6 320.4 
L 777.6 43.2 
" style="fill: none; stroke: #000000; stroke-width: 0.8; stroke-linejoin: miter; stroke-linecap: square"/>
   </g>
   <g id="patch_5">
    <path d="M 108 320.4 
L 777.6 320.4 
" style="fill: none; stroke: #000000; stroke-width: 0.8; stroke-linejoin: miter; stroke-linecap: square"/>
   </g>
   <g id="patch_6">
    <path d="M 108 43.2 
L 777.6 43.2 
" style="fill: none; stroke: #000000; stroke-width: 0.8; stroke-linejoin: miter; stroke-linecap: square"/>
   </g>
   <g id="text_18">
    <!-- TIME SERIES -->
    <g transform="translate(386.625938 37.2) scale(0.18 -0.18)">
     <defs>
      <path id="DejaVuSans-52" d="M 2841 2188 
Q 3044 2119 3236 1894 
Q 3428 1669 3622 1275 
L 4263 0 
L 3584 0 
L 2988 1197 
Q 2756 1666 2539 1819 
Q 2322 1972 1947 1972 
L 1259 1972 
L 1259 0 
L 628 0 
L 628 4666 
L 2053 4666 
Q 2853 4666 3247 4331 
Q 3641 3997 3641 3322 
Q 3641 2881 3436 2590 
Q 3231 2300 2841 2188 
z
M 1259 4147 
L 1259 2491 
L 2053 2491 
Q 2509 2491 2742 2702 
Q 2975 2913 2975 3322 
Q 2975 3731 2742 3939 
Q 2509 4147 2053 4147 
L 1259 4147 
z
" transform="scale(0.015625)"/>
     </defs>
     <use xlink:href="#DejaVuSans-54"/>
     <use xlink:href="#DejaVuSans-49" x="61.083984"/>
     <use xlink:href="#DejaVuSans-4d" x="90.576172"/>
     <use xlink:href="#DejaVuSans-45" x="176.855469"/>
     <use xlink:href="#DejaVuSans-20" x="240.039062"/>
     <use xlink:href="#DejaVuSans-53" x="271.826172"/>
     <use xlink:href="#DejaVuSans-45" x="335.302734"/>
     <use xlink:href="#DejaVuSans-52" x="398.486328"/>
     <use xlink:href="#DejaVuSans-49" x="467.96875"/>
     <use xlink:href="#DejaVuSans-45" x="497.460938"/>
     <use xlink:href="#DejaVuSans-53" x="560.644531"/>
    </g>
   </g>
  </g>
 </g>
 <defs>
  <clipPath id="p799fc2e4b8">
   <rect x="108" y="43.2" width="669.6" height="277.2"/>
  </clipPath>
 </defs>
</svg>
