<?xml version="1.0" encoding="utf-8" standalone="no"?>
<!DOCTYPE svg PUBLIC "-//W3C//DTD SVG 1.1//EN"
  "http://www.w3.org/Graphics/SVG/1.1/DTD/svg11.dtd">
<svg xmlns:xlink="http://www.w3.org/1999/xlink" width="864pt" height="360pt" viewBox="0 0 864 360" xmlns="http://www.w3.org/2000/svg" version="1.1">
 <metadata>
  <rdf:RDF xmlns:dc="http://purl.org/dc/elements/1.1/" xmlns:cc="http://creativecommons.org/ns#" xmlns:rdf="http://www.w3.org/1999/02/22-rdf-syntax-ns#">
   <cc:Work>
    <dc:type rdf:resource="http://purl.org/dc/dcmitype/StillImage"/>
    <dc:date>2023-11-07T10:58:35.101011</dc:date>
    <dc:format>image/svg+xml</dc:format>
    <dc:creator>
     <cc:Agent>
      <dc:title>Matplotlib v3.7.1, https://matplotlib.org/</dc:title>
     </cc:Agent>
    </dc:creator>
   </cc:Work>
  </rdf:RDF>
 </metadata>
 <defs>
  <style type="text/css">*{stroke-linejoin: round; stroke-linecap: butt}</style>
 </defs>
 <g id="figure_1">
  <g id="patch_1">
   <path d="M 0 360 
L 864 360 
L 864 0 
L 0 0 
z
" style="fill: #ffffff"/>
  </g>
  <g id="axes_1">
   <g id="patch_2">
    <path d="M 108 320.4 
L 777.6 320.4 
L 777.6 43.2 
L 108 43.2 
z
" style="fill: #ffffff"/>
   </g>
   <g id="matplotlib.axis_1">
    <g id="xtick_1">
     <g id="line2d_1">
      <defs>
       <path id="m5bd1258c2f" d="M 0 0 
L 0 3.5 
" style="stroke: #000000; stroke-width: 0.8"/>
      </defs>
      <g>
       <use xlink:href="#m5bd1258c2f" x="138.436364" y="320.4" style="stroke: #000000; stroke-width: 0.8"/>
      </g>
     </g>
     <g id="text_1">
      <!-- 2022-01-01 -->
      <g transform="translate(109.378551 334.998438) scale(0.1 -0.1)">
       <defs>
        <path id="DejaVuSans-32" d="M 1228 531 
L 3431 531 
L 3431 0 
L 469 0 
L 469 531 
Q 828 903 1448 1529 
Q 2069 2156 2228 2338 
Q 2531 2678 2651 2914 
Q 2772 3150 2772 3378 
Q 2772 3750 2511 3984 
Q 2250 4219 1831 4219 
Q 1534 4219 1204 4116 
Q 875 4013 500 3803 
L 500 4441 
Q 881 4594 1212 4672 
Q 1544 4750 1819 4750 
Q 2544 4750 2975 4387 
Q 3406 4025 3406 3419 
Q 3406 3131 3298 2873 
Q 3191 2616 2906 2266 
Q 2828 2175 2409 1742 
Q 1991 1309 1228 531 
z
" transform="scale(0.015625)"/>
        <path id="DejaVuSans-30" d="M 2034 4250 
Q 1547 4250 1301 3770 
Q 1056 3291 1056 2328 
Q 1056 1369 1301 889 
Q 1547 409 2034 409 
Q 2525 409 2770 889 
Q 3016 1369 3016 2328 
Q 3016 3291 2770 3770 
Q 2525 4250 2034 4250 
z
M 2034 4750 
Q 2819 4750 3233 4129 
Q 3647 3509 3647 2328 
Q 3647 1150 3233 529 
Q 2819 -91 2034 -91 
Q 1250 -91 836 529 
Q 422 1150 422 2328 
Q 422 3509 836 4129 
Q 1250 4750 2034 4750 
z
" transform="scale(0.015625)"/>
        <path id="DejaVuSans-2d" d="M 313 2009 
L 1997 2009 
L 1997 1497 
L 313 1497 
L 313 2009 
z
" transform="scale(0.015625)"/>
        <path id="DejaVuSans-31" d="M 794 531 
L 1825 531 
L 1825 4091 
L 703 3866 
L 703 4441 
L 1819 4666 
L 2450 4666 
L 2450 531 
L 3481 531 
L 3481 0 
L 794 0 
L 794 531 
z
" transform="scale(0.015625)"/>
       </defs>
       <use xlink:href="#DejaVuSans-32"/>
       <use xlink:href="#DejaVuSans-30" x="63.623047"/>
       <use xlink:href="#DejaVuSans-32" x="127.246094"/>
       <use xlink:href="#DejaVuSans-32" x="190.869141"/>
       <use xlink:href="#DejaVuSans-2d" x="254.492188"/>
       <use xlink:href="#DejaVuSans-30" x="290.576172"/>
       <use xlink:href="#DejaVuSans-31" x="354.199219"/>
       <use xlink:href="#DejaVuSans-2d" x="417.822266"/>
       <use xlink:href="#DejaVuSans-30" x="453.90625"/>
       <use xlink:href="#DejaVuSans-31" x="517.529297"/>
      </g>
     </g>
    </g>
    <g id="xtick_2">
     <g id="line2d_2">
      <g>
       <use xlink:href="#m5bd1258c2f" x="210.139208" y="320.4" style="stroke: #000000; stroke-width: 0.8"/>
      </g>
     </g>
     <g id="text_2">
      <!-- 2022-01-03 -->
      <g transform="translate(181.081396 334.998438) scale(0.1 -0.1)">
       <defs>
        <path id="DejaVuSans-33" d="M 2597 2516 
Q 3050 2419 3304 2112 
Q 3559 1806 3559 1356 
Q 3559 666 3084 287 
Q 2609 -91 1734 -91 
Q 1441 -91 1130 -33 
Q 819 25 488 141 
L 488 750 
Q 750 597 1062 519 
Q 1375 441 1716 441 
Q 2309 441 2620 675 
Q 2931 909 2931 1356 
Q 2931 1769 2642 2001 
Q 2353 2234 1838 2234 
L 1294 2234 
L 1294 2753 
L 1863 2753 
Q 2328 2753 2575 2939 
Q 2822 3125 2822 3475 
Q 2822 3834 2567 4026 
Q 2313 4219 1838 4219 
Q 1578 4219 1281 4162 
Q 984 4106 628 3988 
L 628 4550 
Q 988 4650 1302 4700 
Q 1616 4750 1894 4750 
Q 2613 4750 3031 4423 
Q 3450 4097 3450 3541 
Q 3450 3153 3228 2886 
Q 3006 2619 2597 2516 
z
" transform="scale(0.015625)"/>
       </defs>
       <use xlink:href="#DejaVuSans-32"/>
       <use xlink:href="#DejaVuSans-30" x="63.623047"/>
       <use xlink:href="#DejaVuSans-32" x="127.246094"/>
       <use xlink:href="#DejaVuSans-32" x="190.869141"/>
       <use xlink:href="#DejaVuSans-2d" x="254.492188"/>
       <use xlink:href="#DejaVuSans-30" x="290.576172"/>
       <use xlink:href="#DejaVuSans-31" x="354.199219"/>
       <use xlink:href="#DejaVuSans-2d" x="417.822266"/>
       <use xlink:href="#DejaVuSans-30" x="453.90625"/>
       <use xlink:href="#DejaVuSans-33" x="517.529297"/>
      </g>
     </g>
    </g>
    <g id="xtick_3">
     <g id="line2d_3">
      <g>
       <use xlink:href="#m5bd1258c2f" x="281.842052" y="320.4" style="stroke: #000000; stroke-width: 0.8"/>
      </g>
     </g>
     <g id="text_3">
      <!-- 2022-01-05 -->
      <g transform="translate(252.78424 334.998438) scale(0.1 -0.1)">
       <defs>
        <path id="DejaVuSans-35" d="M 691 4666 
L 3169 4666 
L 3169 4134 
L 1269 4134 
L 1269 2991 
Q 1406 3038 1543 3061 
Q 1681 3084 1819 3084 
Q 2600 3084 3056 2656 
Q 3513 2228 3513 1497 
Q 3513 744 3044 326 
Q 2575 -91 1722 -91 
Q 1428 -91 1123 -41 
Q 819 9 494 109 
L 494 744 
Q 775 591 1075 516 
Q 1375 441 1709 441 
Q 2250 441 2565 725 
Q 2881 1009 2881 1497 
Q 2881 1984 2565 2268 
Q 2250 2553 1709 2553 
Q 1456 2553 1204 2497 
Q 953 2441 691 2322 
L 691 4666 
z
" transform="scale(0.015625)"/>
       </defs>
       <use xlink:href="#DejaVuSans-32"/>
       <use xlink:href="#DejaVuSans-30" x="63.623047"/>
       <use xlink:href="#DejaVuSans-32" x="127.246094"/>
       <use xlink:href="#DejaVuSans-32" x="190.869141"/>
       <use xlink:href="#DejaVuSans-2d" x="254.492188"/>
       <use xlink:href="#DejaVuSans-30" x="290.576172"/>
       <use xlink:href="#DejaVuSans-31" x="354.199219"/>
       <use xlink:href="#DejaVuSans-2d" x="417.822266"/>
       <use xlink:href="#DejaVuSans-30" x="453.90625"/>
       <use xlink:href="#DejaVuSans-35" x="517.529297"/>
      </g>
     </g>
    </g>
    <g id="xtick_4">
     <g id="line2d_4">
      <g>
       <use xlink:href="#m5bd1258c2f" x="353.544897" y="320.4" style="stroke: #000000; stroke-width: 0.8"/>
      </g>
     </g>
     <g id="text_4">
      <!-- 2022-01-07 -->
      <g transform="translate(324.487084 334.998438) scale(0.1 -0.1)">
       <defs>
        <path id="DejaVuSans-37" d="M 525 4666 
L 3525 4666 
L 3525 4397 
L 1831 0 
L 1172 0 
L 2766 4134 
L 525 4134 
L 525 4666 
z
" transform="scale(0.015625)"/>
       </defs>
       <use xlink:href="#DejaVuSans-32"/>
       <use xlink:href="#DejaVuSans-30" x="63.623047"/>
       <use xlink:href="#DejaVuSans-32" x="127.246094"/>
       <use xlink:href="#DejaVuSans-32" x="190.869141"/>
       <use xlink:href="#DejaVuSans-2d" x="254.492188"/>
       <use xlink:href="#DejaVuSans-30" x="290.576172"/>
       <use xlink:href="#DejaVuSans-31" x="354.199219"/>
       <use xlink:href="#DejaVuSans-2d" x="417.822266"/>
       <use xlink:href="#DejaVuSans-30" x="453.90625"/>
       <use xlink:href="#DejaVuSans-37" x="517.529297"/>
      </g>
     </g>
    </g>
    <g id="xtick_5">
     <g id="line2d_5">
      <g>
       <use xlink:href="#m5bd1258c2f" x="425.247741" y="320.4" style="stroke: #000000; stroke-width: 0.8"/>
      </g>
     </g>
     <g id="text_5">
      <!-- 2022-01-09 -->
      <g transform="translate(396.189929 334.998438) scale(0.1 -0.1)">
       <defs>
        <path id="DejaVuSans-39" d="M 703 97 
L 703 672 
Q 941 559 1184 500 
Q 1428 441 1663 441 
Q 2288 441 2617 861 
Q 2947 1281 2994 2138 
Q 2813 1869 2534 1725 
Q 2256 1581 1919 1581 
Q 1219 1581 811 2004 
Q 403 2428 403 3163 
Q 403 3881 828 4315 
Q 1253 4750 1959 4750 
Q 2769 4750 3195 4129 
Q 3622 3509 3622 2328 
Q 3622 1225 3098 567 
Q 2575 -91 1691 -91 
Q 1453 -91 1209 -44 
Q 966 3 703 97 
z
M 1959 2075 
Q 2384 2075 2632 2365 
Q 2881 2656 2881 3163 
Q 2881 3666 2632 3958 
Q 2384 4250 1959 4250 
Q 1534 4250 1286 3958 
Q 1038 3666 1038 3163 
Q 1038 2656 1286 2365 
Q 1534 2075 1959 2075 
z
" transform="scale(0.015625)"/>
       </defs>
       <use xlink:href="#DejaVuSans-32"/>
       <use xlink:href="#DejaVuSans-30" x="63.623047"/>
       <use xlink:href="#DejaVuSans-32" x="127.246094"/>
       <use xlink:href="#DejaVuSans-32" x="190.869141"/>
       <use xlink:href="#DejaVuSans-2d" x="254.492188"/>
       <use xlink:href="#DejaVuSans-30" x="290.576172"/>
       <use xlink:href="#DejaVuSans-31" x="354.199219"/>
       <use xlink:href="#DejaVuSans-2d" x="417.822266"/>
       <use xlink:href="#DejaVuSans-30" x="453.90625"/>
       <use xlink:href="#DejaVuSans-39" x="517.529297"/>
      </g>
     </g>
    </g>
    <g id="xtick_6">
     <g id="line2d_6">
      <g>
       <use xlink:href="#m5bd1258c2f" x="496.950586" y="320.4" style="stroke: #000000; stroke-width: 0.8"/>
      </g>
     </g>
     <g id="text_6">
      <!-- 2022-01-11 -->
      <g transform="translate(467.892773 334.998438) scale(0.1 -0.1)">
       <use xlink:href="#DejaVuSans-32"/>
       <use xlink:href="#DejaVuSans-30" x="63.623047"/>
       <use xlink:href="#DejaVuSans-32" x="127.246094"/>
       <use xlink:href="#DejaVuSans-32" x="190.869141"/>
       <use xlink:href="#DejaVuSans-2d" x="254.492188"/>
       <use xlink:href="#DejaVuSans-30" x="290.576172"/>
       <use xlink:href="#DejaVuSans-31" x="354.199219"/>
       <use xlink:href="#DejaVuSans-2d" x="417.822266"/>
       <use xlink:href="#DejaVuSans-31" x="453.90625"/>
       <use xlink:href="#DejaVuSans-31" x="517.529297"/>
      </g>
     </g>
    </g>
    <g id="xtick_7">
     <g id="line2d_7">
      <g>
       <use xlink:href="#m5bd1258c2f" x="568.65343" y="320.4" style="stroke: #000000; stroke-width: 0.8"/>
      </g>
     </g>
     <g id="text_7">
      <!-- 2022-01-13 -->
      <g transform="translate(539.595618 334.998438) scale(0.1 -0.1)">
       <use xlink:href="#DejaVuSans-32"/>
       <use xlink:href="#DejaVuSans-30" x="63.623047"/>
       <use xlink:href="#DejaVuSans-32" x="127.246094"/>
       <use xlink:href="#DejaVuSans-32" x="190.869141"/>
       <use xlink:href="#DejaVuSans-2d" x="254.492188"/>
       <use xlink:href="#DejaVuSans-30" x="290.576172"/>
       <use xlink:href="#DejaVuSans-31" x="354.199219"/>
       <use xlink:href="#DejaVuSans-2d" x="417.822266"/>
       <use xlink:href="#DejaVuSans-31" x="453.90625"/>
       <use xlink:href="#DejaVuSans-33" x="517.529297"/>
      </g>
     </g>
    </g>
    <g id="xtick_8">
     <g id="line2d_8">
      <g>
       <use xlink:href="#m5bd1258c2f" x="640.356274" y="320.4" style="stroke: #000000; stroke-width: 0.8"/>
      </g>
     </g>
     <g id="text_8">
      <!-- 2022-01-15 -->
      <g transform="translate(611.298462 334.998438) scale(0.1 -0.1)">
       <use xlink:href="#DejaVuSans-32"/>
       <use xlink:href="#DejaVuSans-30" x="63.623047"/>
       <use xlink:href="#DejaVuSans-32" x="127.246094"/>
       <use xlink:href="#DejaVuSans-32" x="190.869141"/>
       <use xlink:href="#DejaVuSans-2d" x="254.492188"/>
       <use xlink:href="#DejaVuSans-30" x="290.576172"/>
       <use xlink:href="#DejaVuSans-31" x="354.199219"/>
       <use xlink:href="#DejaVuSans-2d" x="417.822266"/>
       <use xlink:href="#DejaVuSans-31" x="453.90625"/>
       <use xlink:href="#DejaVuSans-35" x="517.529297"/>
      </g>
     </g>
    </g>
    <g id="xtick_9">
     <g id="line2d_9">
      <g>
       <use xlink:href="#m5bd1258c2f" x="712.059119" y="320.4" style="stroke: #000000; stroke-width: 0.8"/>
      </g>
     </g>
     <g id="text_9">
      <!-- 2022-01-17 -->
      <g transform="translate(683.001306 334.998438) scale(0.1 -0.1)">
       <use xlink:href="#DejaVuSans-32"/>
       <use xlink:href="#DejaVuSans-30" x="63.623047"/>
       <use xlink:href="#DejaVuSans-32" x="127.246094"/>
       <use xlink:href="#DejaVuSans-32" x="190.869141"/>
       <use xlink:href="#DejaVuSans-2d" x="254.492188"/>
       <use xlink:href="#DejaVuSans-30" x="290.576172"/>
       <use xlink:href="#DejaVuSans-31" x="354.199219"/>
       <use xlink:href="#DejaVuSans-2d" x="417.822266"/>
       <use xlink:href="#DejaVuSans-31" x="453.90625"/>
       <use xlink:href="#DejaVuSans-37" x="517.529297"/>
      </g>
     </g>
    </g>
    <g id="text_10">
     <!-- TIME (DAYS) -->
     <g transform="translate(412.283594 348.676562) scale(0.1 -0.1)">
      <defs>
       <path id="DejaVuSans-54" d="M -19 4666 
L 3928 4666 
L 3928 4134 
L 2272 4134 
L 2272 0 
L 1638 0 
L 1638 4134 
L -19 4134 
L -19 4666 
z
" transform="scale(0.015625)"/>
       <path id="DejaVuSans-49" d="M 628 4666 
L 1259 4666 
L 1259 0 
L 628 0 
L 628 4666 
z
" transform="scale(0.015625)"/>
       <path id="DejaVuSans-4d" d="M 628 4666 
L 1569 4666 
L 2759 1491 
L 3956 4666 
L 4897 4666 
L 4897 0 
L 4281 0 
L 4281 4097 
L 3078 897 
L 2444 897 
L 1241 4097 
L 1241 0 
L 628 0 
L 628 4666 
z
" transform="scale(0.015625)"/>
       <path id="DejaVuSans-45" d="M 628 4666 
L 3578 4666 
L 3578 4134 
L 1259 4134 
L 1259 2753 
L 3481 2753 
L 3481 2222 
L 1259 2222 
L 1259 531 
L 3634 531 
L 3634 0 
L 628 0 
L 628 4666 
z
" transform="scale(0.015625)"/>
       <path id="DejaVuSans-20" transform="scale(0.015625)"/>
       <path id="DejaVuSans-28" d="M 1984 4856 
Q 1566 4138 1362 3434 
Q 1159 2731 1159 2009 
Q 1159 1288 1364 580 
Q 1569 -128 1984 -844 
L 1484 -844 
Q 1016 -109 783 600 
Q 550 1309 550 2009 
Q 550 2706 781 3412 
Q 1013 4119 1484 4856 
L 1984 4856 
z
" transform="scale(0.015625)"/>
       <path id="DejaVuSans-44" d="M 1259 4147 
L 1259 519 
L 2022 519 
Q 2988 519 3436 956 
Q 3884 1394 3884 2338 
Q 3884 3275 3436 3711 
Q 2988 4147 2022 4147 
L 1259 4147 
z
M 628 4666 
L 1925 4666 
Q 3281 4666 3915 4102 
Q 4550 3538 4550 2338 
Q 4550 1131 3912 565 
Q 3275 0 1925 0 
L 628 0 
L 628 4666 
z
" transform="scale(0.015625)"/>
       <path id="DejaVuSans-41" d="M 2188 4044 
L 1331 1722 
L 3047 1722 
L 2188 4044 
z
M 1831 4666 
L 2547 4666 
L 4325 0 
L 3669 0 
L 3244 1197 
L 1141 1197 
L 716 0 
L 50 0 
L 1831 4666 
z
" transform="scale(0.015625)"/>
       <path id="DejaVuSans-59" d="M -13 4666 
L 666 4666 
L 1959 2747 
L 3244 4666 
L 3922 4666 
L 2272 2222 
L 2272 0 
L 1638 0 
L 1638 2222 
L -13 4666 
z
" transform="scale(0.015625)"/>
       <path id="DejaVuSans-53" d="M 3425 4513 
L 3425 3897 
Q 3066 4069 2747 4153 
Q 2428 4238 2131 4238 
Q 1616 4238 1336 4038 
Q 1056 3838 1056 3469 
Q 1056 3159 1242 3001 
Q 1428 2844 1947 2747 
L 2328 2669 
Q 3034 2534 3370 2195 
Q 3706 1856 3706 1288 
Q 3706 609 3251 259 
Q 2797 -91 1919 -91 
Q 1588 -91 1214 -16 
Q 841 59 441 206 
L 441 856 
Q 825 641 1194 531 
Q 1563 422 1919 422 
Q 2459 422 2753 634 
Q 3047 847 3047 1241 
Q 3047 1584 2836 1778 
Q 2625 1972 2144 2069 
L 1759 2144 
Q 1053 2284 737 2584 
Q 422 2884 422 3419 
Q 422 4038 858 4394 
Q 1294 4750 2059 4750 
Q 2388 4750 2728 4690 
Q 3069 4631 3425 4513 
z
" transform="scale(0.015625)"/>
       <path id="DejaVuSans-29" d="M 513 4856 
L 1013 4856 
Q 1481 4119 1714 3412 
Q 1947 2706 1947 2009 
Q 1947 1309 1714 600 
Q 1481 -109 1013 -844 
L 513 -844 
Q 928 -128 1133 580 
Q 1338 1288 1338 2009 
Q 1338 2731 1133 3434 
Q 928 4138 513 4856 
z
" transform="scale(0.015625)"/>
      </defs>
      <use xlink:href="#DejaVuSans-54"/>
      <use xlink:href="#DejaVuSans-49" x="61.083984"/>
      <use xlink:href="#DejaVuSans-4d" x="90.576172"/>
      <use xlink:href="#DejaVuSans-45" x="176.855469"/>
      <use xlink:href="#DejaVuSans-20" x="240.039062"/>
      <use xlink:href="#DejaVuSans-28" x="271.826172"/>
      <use xlink:href="#DejaVuSans-44" x="310.839844"/>
      <use xlink:href="#DejaVuSans-41" x="386.091797"/>
      <use xlink:href="#DejaVuSans-59" x="446.75"/>
      <use xlink:href="#DejaVuSans-53" x="507.833984"/>
      <use xlink:href="#DejaVuSans-29" x="571.310547"/>
     </g>
    </g>
   </g>
   <g id="matplotlib.axis_2">
    <g id="ytick_1">
     <g id="line2d_10">
      <defs>
       <path id="m907d9c5dcd" d="M 0 0 
L -3.5 0 
" style="stroke: #000000; stroke-width: 0.8"/>
      </defs>
      <g>
       <use xlink:href="#m907d9c5dcd" x="108" y="307.8" style="stroke: #000000; stroke-width: 0.8"/>
      </g>
     </g>
     <g id="text_11">
      <!-- 0 -->
      <g transform="translate(94.6375 311.599219) scale(0.1 -0.1)">
       <use xlink:href="#DejaVuSans-30"/>
      </g>
     </g>
    </g>
    <g id="ytick_2">
     <g id="line2d_11">
      <g>
       <use xlink:href="#m907d9c5dcd" x="108" y="261.476471" style="stroke: #000000; stroke-width: 0.8"/>
      </g>
     </g>
     <g id="text_12">
      <!-- 50 -->
      <g transform="translate(88.275 265.275689) scale(0.1 -0.1)">
       <use xlink:href="#DejaVuSans-35"/>
       <use xlink:href="#DejaVuSans-30" x="63.623047"/>
      </g>
     </g>
    </g>
    <g id="ytick_3">
     <g id="line2d_12">
      <g>
       <use xlink:href="#m907d9c5dcd" x="108" y="215.152941" style="stroke: #000000; stroke-width: 0.8"/>
      </g>
     </g>
     <g id="text_13">
      <!-- 100 -->
      <g transform="translate(81.9125 218.95216) scale(0.1 -0.1)">
       <use xlink:href="#DejaVuSans-31"/>
       <use xlink:href="#DejaVuSans-30" x="63.623047"/>
       <use xlink:href="#DejaVuSans-30" x="127.246094"/>
      </g>
     </g>
    </g>
    <g id="ytick_4">
     <g id="line2d_13">
      <g>
       <use xlink:href="#m907d9c5dcd" x="108" y="168.829412" style="stroke: #000000; stroke-width: 0.8"/>
      </g>
     </g>
     <g id="text_14">
      <!-- 150 -->
      <g transform="translate(81.9125 172.628631) scale(0.1 -0.1)">
       <use xlink:href="#DejaVuSans-31"/>
       <use xlink:href="#DejaVuSans-35" x="63.623047"/>
       <use xlink:href="#DejaVuSans-30" x="127.246094"/>
      </g>
     </g>
    </g>
    <g id="ytick_5">
     <g id="line2d_14">
      <g>
       <use xlink:href="#m907d9c5dcd" x="108" y="122.505882" style="stroke: #000000; stroke-width: 0.8"/>
      </g>
     </g>
     <g id="text_15">
      <!-- 200 -->
      <g transform="translate(81.9125 126.305101) scale(0.1 -0.1)">
       <use xlink:href="#DejaVuSans-32"/>
       <use xlink:href="#DejaVuSans-30" x="63.623047"/>
       <use xlink:href="#DejaVuSans-30" x="127.246094"/>
      </g>
     </g>
    </g>
    <g id="ytick_6">
     <g id="line2d_15">
      <g>
       <use xlink:href="#m907d9c5dcd" x="108" y="76.182353" style="stroke: #000000; stroke-width: 0.8"/>
      </g>
     </g>
     <g id="text_16">
      <!-- 250 -->
      <g transform="translate(81.9125 79.981572) scale(0.1 -0.1)">
       <use xlink:href="#DejaVuSans-32"/>
       <use xlink:href="#DejaVuSans-35" x="63.623047"/>
       <use xlink:href="#DejaVuSans-30" x="127.246094"/>
      </g>
     </g>
    </g>
    <g id="text_17">
     <!-- AMPLITUDE -->
     <g transform="translate(75.832812 210.532812) rotate(-90) scale(0.1 -0.1)">
      <defs>
       <path id="DejaVuSans-50" d="M 1259 4147 
L 1259 2394 
L 2053 2394 
Q 2494 2394 2734 2622 
Q 2975 2850 2975 3272 
Q 2975 3691 2734 3919 
Q 2494 4147 2053 4147 
L 1259 4147 
z
M 628 4666 
L 2053 4666 
Q 2838 4666 3239 4311 
Q 3641 3956 3641 3272 
Q 3641 2581 3239 2228 
Q 2838 1875 2053 1875 
L 1259 1875 
L 1259 0 
L 628 0 
L 628 4666 
z
" transform="scale(0.015625)"/>
       <path id="DejaVuSans-4c" d="M 628 4666 
L 1259 4666 
L 1259 531 
L 3531 531 
L 3531 0 
L 628 0 
L 628 4666 
z
" transform="scale(0.015625)"/>
       <path id="DejaVuSans-55" d="M 556 4666 
L 1191 4666 
L 1191 1831 
Q 1191 1081 1462 751 
Q 1734 422 2344 422 
Q 2950 422 3222 751 
Q 3494 1081 3494 1831 
L 3494 4666 
L 4128 4666 
L 4128 1753 
Q 4128 841 3676 375 
Q 3225 -91 2344 -91 
Q 1459 -91 1007 375 
Q 556 841 556 1753 
L 556 4666 
z
" transform="scale(0.015625)"/>
      </defs>
      <use xlink:href="#DejaVuSans-41"/>
      <use xlink:href="#DejaVuSans-4d" x="68.408203"/>
      <use xlink:href="#DejaVuSans-50" x="154.6875"/>
      <use xlink:href="#DejaVuSans-4c" x="214.990234"/>
      <use xlink:href="#DejaVuSans-49" x="270.703125"/>
      <use xlink:href="#DejaVuSans-54" x="300.195312"/>
      <use xlink:href="#DejaVuSans-55" x="361.279297"/>
      <use xlink:href="#DejaVuSans-44" x="434.472656"/>
      <use xlink:href="#DejaVuSans-45" x="511.474609"/>
     </g>
    </g>
   </g>
   <g id="line2d_16">
    <path d="M 138.436364 204.035294 
L 139.183268 250.358824 
L 139.930173 270.741176 
L 140.677078 272.594118 
L 141.423982 214.226471 
L 142.170887 242.020588 
L 142.917791 292.976471 
L 143.664696 307.8 
L 148.146124 307.8 
L 148.893028 295.755882 
L 149.639933 217.932353 
L 150.386838 220.711765 
L 151.133742 294.829412 
L 151.880647 307.8 
L 152.627552 303.167647 
L 153.374456 307.8 
L 154.121361 307.8 
L 154.868265 138.255882 
L 155.61517 244.8 
L 156.362075 207.741176 
L 157.108979 218.858824 
L 157.855884 247.579412 
L 158.602789 229.976471 
L 159.349693 231.829412 
L 160.096598 247.579412 
L 160.843503 307.8 
L 161.590407 217.005882 
L 162.337312 215.152941 
L 163.084216 141.035294 
L 163.831121 178.094118 
L 164.578026 307.8 
L 165.32493 189.211765 
L 166.071835 180.873529 
L 166.81874 272.594118 
L 167.565644 176.241176 
L 168.312549 230.902941 
L 169.059453 217.932353 
L 169.806358 292.05 
L 170.553263 222.564706 
L 171.300167 274.447059 
L 172.047072 238.314706 
L 172.793977 270.741176 
L 173.540881 255.917647 
L 174.287786 307.8 
L 175.03469 220.711765 
L 175.781595 295.755882 
L 176.5285 294.829412 
L 177.275404 307.8 
L 179.516118 307.8 
L 180.263023 281.858824 
L 181.009927 251.285294 
L 181.756832 307.8 
L 182.503737 223.491176 
L 183.250641 307.8 
L 183.997546 250.358824 
L 184.744451 262.402941 
L 185.491355 307.8 
L 186.23826 258.697059 
L 186.985165 307.8 
L 187.732069 265.182353 
L 188.478974 307.8 
L 189.225878 302.241176 
L 189.972783 307.8 
L 190.719688 307.8 
L 191.466592 219.785294 
L 192.213497 254.991176 
L 192.960402 306.873529 
L 193.707306 138.255882 
L 194.454211 254.991176 
L 195.201115 172.535294 
L 195.94802 266.108824 
L 196.694925 307.8 
L 197.441829 188.285294 
L 198.188734 215.152941 
L 198.935639 201.255882 
L 200.429448 280.005882 
L 201.176352 262.402941 
L 201.923257 307.8 
L 202.670162 198.476471 
L 203.417066 275.373529 
L 204.163971 250.358824 
L 204.910876 205.888235 
L 205.65778 223.491176 
L 206.404685 154.932353 
L 207.15159 297.608824 
L 207.898494 206.814706 
L 208.645399 280.005882 
L 209.392303 208.667647 
L 210.139208 305.947059 
L 210.886113 259.623529 
L 211.633017 289.270588 
L 212.379922 208.667647 
L 213.126827 251.285294 
L 213.873731 307.8 
L 214.620636 251.285294 
L 215.36754 253.138235 
L 216.114445 304.094118 
L 216.86135 307.8 
L 217.608254 307.8 
L 218.355159 267.961765 
L 219.102064 307.8 
L 219.848968 257.770588 
L 220.595873 240.167647 
L 221.342777 287.417647 
L 222.089682 226.270588 
L 222.836587 269.814706 
L 223.583491 260.55 
L 224.330396 276.3 
L 225.077301 276.3 
L 225.824205 255.917647 
L 226.57111 270.741176 
L 227.318015 307.8 
L 228.064919 237.388235 
L 228.811824 242.947059 
L 229.558728 244.8 
L 230.305633 254.064706 
L 231.052538 158.638235 
L 231.799442 212.373529 
L 232.546347 170.682353 
L 233.293252 161.417647 
L 234.040156 273.520588 
L 234.787061 294.829412 
L 235.533965 243.873529 
L 236.28087 217.005882 
L 237.027775 255.917647 
L 237.774679 220.711765 
L 238.521584 217.932353 
L 239.268489 242.020588 
L 240.015393 213.3 
L 240.762298 307.8 
L 241.509202 300.388235 
L 242.256107 153.079412 
L 243.003012 263.329412 
L 243.749916 261.476471 
L 244.496821 307.8 
L 245.243726 307.8 
L 245.99063 190.138235 
L 246.737535 269.814706 
L 247.484439 280.932353 
L 248.231344 307.8 
L 251.218963 307.8 
L 251.965867 194.770588 
L 252.712772 168.829412 
L 253.459677 307.8 
L 254.953486 307.8 
L 255.70039 259.623529 
L 256.447295 307.8 
L 257.1942 229.05 
L 257.941104 252.211765 
L 258.688009 254.064706 
L 259.434914 260.55 
L 260.181818 251.285294 
L 260.928723 231.829412 
L 261.675627 207.741176 
L 262.422532 248.505882 
L 263.169437 160.491176 
L 263.916341 276.3 
L 264.663246 149.373529 
L 265.410151 253.138235 
L 266.157055 239.241176 
L 266.90396 280.005882 
L 267.650864 306.873529 
L 268.397769 271.667647 
L 269.144674 173.461765 
L 269.891578 307.8 
L 270.638483 298.535294 
L 271.385388 251.285294 
L 272.132292 290.197059 
L 272.879197 125.285294 
L 273.626102 192.917647 
L 274.373006 225.344118 
L 275.119911 228.123529 
L 275.866815 205.888235 
L 276.61372 264.255882 
L 277.360625 193.844118 
L 278.107529 307.8 
L 278.854434 215.152941 
L 279.601339 226.270588 
L 280.348243 216.079412 
L 281.095148 251.285294 
L 281.842052 307.8 
L 282.588957 219.785294 
L 283.335862 307.8 
L 284.082766 168.829412 
L 284.829671 282.785294 
L 285.576576 202.182353 
L 286.32348 307.8 
L 287.070385 241.094118 
L 287.817289 267.035294 
L 288.564194 307.8 
L 292.298717 307.8 
L 293.045622 261.476471 
L 293.792526 199.402941 
L 294.539431 246.652941 
L 295.286336 233.682353 
L 296.780145 307.8 
L 297.52705 307.8 
L 298.273954 213.3 
L 299.020859 248.505882 
L 299.767764 244.8 
L 300.514668 301.314706 
L 302.008477 259.623529 
L 302.755382 237.388235 
L 303.502287 158.638235 
L 304.249191 236.461765 
L 304.996096 242.020588 
L 305.743001 219.785294 
L 306.489905 159.564706 
L 307.23681 253.138235 
L 307.983714 212.373529 
L 308.730619 229.05 
L 309.477524 235.535294 
L 310.224428 172.535294 
L 310.971333 307.8 
L 311.718238 307.8 
L 312.465142 305.947059 
L 313.212047 226.270588 
L 313.958951 204.961765 
L 314.705856 307.8 
L 315.452761 300.388235 
L 316.199665 266.108824 
L 316.94657 258.697059 
L 318.440379 307.8 
L 319.187284 288.344118 
L 319.934189 282.785294 
L 320.681093 307.8 
L 322.174902 307.8 
L 322.921807 242.947059 
L 323.668712 289.270588 
L 324.415616 148.447059 
L 325.162521 278.152941 
L 325.909426 307.8 
L 328.150139 307.8 
L 328.897044 282.785294 
L 329.643949 201.255882 
L 331.137758 291.123529 
L 331.884663 172.535294 
L 332.631567 187.358824 
L 333.378472 216.079412 
L 334.125376 276.3 
L 334.872281 127.138235 
L 335.619186 259.623529 
L 336.36609 181.8 
L 337.112995 236.461765 
L 337.8599 154.005882 
L 339.353709 270.741176 
L 340.100613 122.505882 
L 340.847518 154.932353 
L 341.594423 162.344118 
L 342.341327 292.05 
L 343.088232 304.094118 
L 343.835137 307.8 
L 344.582041 212.373529 
L 345.328946 283.711765 
L 346.075851 271.667647 
L 346.822755 276.3 
L 347.56966 188.285294 
L 348.316564 271.667647 
L 349.063469 247.579412 
L 349.810374 196.623529 
L 350.557278 307.8 
L 351.304183 298.535294 
L 352.797992 307.8 
L 353.544897 280.932353 
L 354.291801 260.55 
L 355.038706 307.8 
L 357.27942 307.8 
L 358.026325 258.697059 
L 358.773229 307.8 
L 359.520134 307.8 
L 360.267038 252.211765 
L 361.013943 283.711765 
L 361.760848 290.197059 
L 362.507752 307.8 
L 363.254657 233.682353 
L 364.001562 307.8 
L 364.748466 272.594118 
L 365.495371 307.8 
L 366.242276 221.638235 
L 366.98918 292.05 
L 367.736085 270.741176 
L 368.482989 231.829412 
L 369.229894 282.785294 
L 369.976799 298.535294 
L 370.723703 186.432353 
L 371.470608 176.241176 
L 372.217513 267.961765 
L 372.964417 153.079412 
L 373.711322 217.932353 
L 374.458226 154.932353 
L 375.205131 243.873529 
L 375.952036 296.682353 
L 376.69894 225.344118 
L 377.445845 165.123529 
L 378.19275 225.344118 
L 378.939654 205.888235 
L 379.686559 133.623529 
L 380.433463 297.608824 
L 381.180368 236.461765 
L 382.674177 202.182353 
L 383.421082 266.108824 
L 384.167987 307.8 
L 385.661796 307.8 
L 386.408701 293.902941 
L 387.155605 307.8 
L 387.90251 236.461765 
L 388.649414 292.976471 
L 389.396319 307.8 
L 390.143224 304.094118 
L 390.890128 307.8 
L 391.637033 307.8 
L 392.383938 217.932353 
L 393.130842 307.8 
L 393.877747 307.8 
L 394.624651 284.638235 
L 395.371556 307.8 
L 396.118461 239.241176 
L 396.865365 307.8 
L 397.61227 268.888235 
L 398.359175 295.755882 
L 399.106079 214.226471 
L 399.852984 160.491176 
L 400.599888 307.8 
L 401.346793 267.035294 
L 402.093698 243.873529 
L 402.840602 307.8 
L 403.587507 218.858824 
L 404.334412 197.55 
L 405.828221 307.8 
L 406.575125 211.447059 
L 407.32203 254.064706 
L 408.068935 257.770588 
L 408.815839 132.697059 
L 409.562744 192.917647 
L 410.309649 194.770588 
L 411.056553 307.8 
L 411.803458 239.241176 
L 412.550363 254.064706 
L 413.297267 210.520588 
L 414.044172 262.402941 
L 414.791076 290.197059 
L 415.537981 307.8 
L 416.284886 168.829412 
L 417.03179 263.329412 
L 417.778695 242.947059 
L 418.5256 171.608824 
L 419.272504 307.8 
L 420.019409 219.785294 
L 420.766313 307.8 
L 421.513218 244.8 
L 422.260123 306.873529 
L 423.007027 223.491176 
L 423.753932 307.8 
L 424.500837 291.123529 
L 425.247741 253.138235 
L 425.994646 272.594118 
L 426.74155 307.8 
L 427.488455 307.8 
L 428.23536 269.814706 
L 428.982264 307.8 
L 429.729169 307.8 
L 430.476074 284.638235 
L 431.222978 286.491176 
L 431.969883 244.8 
L 432.716788 187.358824 
L 433.463692 307.8 
L 434.210597 307.8 
L 434.957501 251.285294 
L 435.704406 252.211765 
L 436.451311 209.594118 
L 437.198215 294.829412 
L 437.94512 177.167647 
L 438.692025 185.505882 
L 439.438929 202.182353 
L 440.185834 187.358824 
L 440.932738 234.608824 
L 441.679643 114.167647 
L 442.426548 250.358824 
L 443.173452 292.05 
L 443.920357 166.05 
L 444.667262 239.241176 
L 445.414166 201.255882 
L 446.161071 154.005882 
L 446.907975 193.844118 
L 447.65488 169.755882 
L 448.401785 209.594118 
L 449.148689 259.623529 
L 449.895594 208.667647 
L 450.642499 273.520588 
L 451.389403 227.197059 
L 452.136308 188.285294 
L 452.883212 307.8 
L 453.630117 291.123529 
L 454.377022 241.094118 
L 455.123926 305.020588 
L 455.870831 307.8 
L 457.36464 307.8 
L 458.111545 248.505882 
L 459.605354 307.8 
L 460.352259 298.535294 
L 461.099163 307.8 
L 461.846068 282.785294 
L 462.592973 307.8 
L 463.339877 290.197059 
L 464.086782 307.8 
L 464.833687 218.858824 
L 466.327496 307.8 
L 467.0744 307.8 
L 467.821305 176.241176 
L 468.56821 249.432353 
L 469.315114 155.858824 
L 470.062019 281.858824 
L 470.808924 284.638235 
L 471.555828 307.8 
L 472.302733 158.638235 
L 473.049637 275.373529 
L 473.796542 227.197059 
L 474.543447 307.8 
L 475.290351 292.05 
L 476.037256 259.623529 
L 476.784161 306.873529 
L 477.531065 189.211765 
L 478.27797 127.138235 
L 479.024875 264.255882 
L 479.771779 229.05 
L 480.518684 271.667647 
L 482.012493 164.197059 
L 482.759398 257.770588 
L 483.506302 307.8 
L 484.253207 158.638235 
L 485.000112 261.476471 
L 485.747016 254.991176 
L 486.493921 233.682353 
L 487.240825 282.785294 
L 487.98773 229.976471 
L 488.734635 304.094118 
L 489.481539 229.976471 
L 490.228444 195.697059 
L 490.975349 270.741176 
L 491.722253 209.594118 
L 492.469158 307.8 
L 493.216062 232.755882 
L 493.962967 307.8 
L 497.69749 307.8 
L 498.444395 297.608824 
L 499.191299 270.741176 
L 499.938204 307.8 
L 500.685109 307.8 
L 501.432013 305.020588 
L 502.178918 251.285294 
L 502.925823 280.932353 
L 503.672727 285.564706 
L 504.419632 307.8 
L 505.166537 264.255882 
L 505.913441 307.8 
L 506.660346 222.564706 
L 507.40725 245.726471 
L 508.154155 236.461765 
L 508.90106 266.108824 
L 509.647964 205.888235 
L 510.394869 190.138235 
L 511.141774 250.358824 
L 511.888678 70.623529 
L 512.635583 162.344118 
L 513.382487 270.741176 
L 514.129392 217.932353 
L 514.876297 204.961765 
L 516.370106 287.417647 
L 517.117011 228.123529 
L 517.863915 307.8 
L 518.61082 249.432353 
L 519.357724 166.976471 
L 520.104629 158.638235 
L 520.851534 307.8 
L 521.598438 262.402941 
L 522.345343 225.344118 
L 523.092248 182.726471 
L 523.839152 271.667647 
L 524.586057 277.226471 
L 525.332962 231.829412 
L 526.079866 307.8 
L 526.826771 282.785294 
L 527.573675 307.8 
L 528.32058 292.976471 
L 529.067485 307.8 
L 529.814389 264.255882 
L 530.561294 307.8 
L 531.308199 236.461765 
L 532.055103 307.8 
L 532.802008 273.520588 
L 533.548912 307.8 
L 534.295817 265.182353 
L 535.042722 305.947059 
L 535.789626 307.8 
L 536.536531 240.167647 
L 537.283436 267.961765 
L 538.03034 263.329412 
L 538.777245 286.491176 
L 539.524149 227.197059 
L 540.271054 280.932353 
L 541.017959 307.8 
L 541.764863 267.961765 
L 542.511768 287.417647 
L 543.258673 110.461765 
L 544.005577 266.108824 
L 544.752482 262.402941 
L 545.499387 201.255882 
L 546.246291 270.741176 
L 546.993196 209.594118 
L 547.7401 201.255882 
L 548.487005 234.608824 
L 549.23391 154.005882 
L 549.980814 198.476471 
L 550.727719 294.829412 
L 551.474624 175.314706 
L 552.221528 296.682353 
L 552.968433 201.255882 
L 553.715337 264.255882 
L 554.462242 251.285294 
L 555.209147 220.711765 
L 555.956051 270.741176 
L 556.702956 270.741176 
L 557.449861 202.182353 
L 558.196765 307.8 
L 558.94367 307.8 
L 559.690574 237.388235 
L 560.437479 307.8 
L 561.184384 258.697059 
L 561.931288 307.8 
L 562.678193 298.535294 
L 563.425098 307.8 
L 564.172002 307.8 
L 564.918907 303.167647 
L 565.665811 292.976471 
L 566.412716 307.8 
L 567.906525 307.8 
L 568.65343 267.035294 
L 569.400335 307.8 
L 571.641049 307.8 
L 572.387953 252.211765 
L 573.134858 307.8 
L 573.881762 210.520588 
L 574.628667 223.491176 
L 575.375572 270.741176 
L 576.122476 126.211765 
L 576.869381 183.652941 
L 577.616286 204.035294 
L 578.36319 250.358824 
L 579.110095 169.755882 
L 579.856999 277.226471 
L 580.603904 218.858824 
L 581.350809 271.667647 
L 582.097713 203.108824 
L 582.844618 204.961765 
L 583.591523 307.8 
L 584.338427 195.697059 
L 585.085332 156.785294 
L 585.832236 217.932353 
L 586.579141 254.064706 
L 587.326046 307.8 
L 588.07295 231.829412 
L 588.819855 301.314706 
L 589.56676 154.005882 
L 590.313664 192.917647 
L 591.060569 271.667647 
L 591.807474 225.344118 
L 592.554378 225.344118 
L 593.301283 302.241176 
L 594.048187 215.152941 
L 594.795092 307.8 
L 595.541997 307.8 
L 596.288901 229.05 
L 597.035806 285.564706 
L 597.782711 281.858824 
L 598.529615 307.8 
L 600.023424 307.8 
L 600.770329 280.932353 
L 601.517234 307.8 
L 602.264138 307.8 
L 603.011043 302.241176 
L 603.757948 232.755882 
L 604.504852 224.417647 
L 605.251757 307.8 
L 605.998661 286.491176 
L 606.745566 170.682353 
L 607.492471 288.344118 
L 608.239375 243.873529 
L 608.98628 307.8 
L 609.733185 307.8 
L 610.480089 159.564706 
L 611.226994 246.652941 
L 611.973898 266.108824 
L 612.720803 245.726471 
L 613.467708 187.358824 
L 614.214612 279.079412 
L 614.961517 297.608824 
L 615.708422 180.873529 
L 616.455326 290.197059 
L 617.202231 241.094118 
L 617.949136 283.711765 
L 619.442945 211.447059 
L 620.936754 307.8 
L 621.683659 258.697059 
L 622.430563 55.8 
L 623.177468 259.623529 
L 623.924373 259.623529 
L 624.671277 307.8 
L 625.418182 228.123529 
L 626.165086 210.520588 
L 626.911991 238.314706 
L 627.658896 298.535294 
L 628.4058 209.594118 
L 629.152705 307.8 
L 630.646514 307.8 
L 631.393419 229.976471 
L 632.140323 307.8 
L 632.887228 279.079412 
L 633.634133 297.608824 
L 634.381037 307.8 
L 637.368656 307.8 
L 638.115561 288.344118 
L 638.862465 307.8 
L 639.60937 194.770588 
L 640.356274 307.8 
L 641.103179 294.829412 
L 641.850084 272.594118 
L 642.596988 307.8 
L 643.343893 155.858824 
L 644.090798 244.8 
L 644.837702 295.755882 
L 645.584607 307.8 
L 646.331511 295.755882 
L 647.078416 214.226471 
L 647.825321 244.8 
L 648.572225 211.447059 
L 649.31913 201.255882 
L 650.066035 188.285294 
L 650.812939 275.373529 
L 651.559844 307.8 
L 653.053653 179.947059 
L 653.800558 307.8 
L 656.041272 307.8 
L 656.788176 260.55 
L 657.535081 282.785294 
L 658.281985 182.726471 
L 659.02889 244.8 
L 659.775795 261.476471 
L 660.522699 307.8 
L 662.016509 307.8 
L 663.510318 269.814706 
L 664.257223 307.8 
L 665.004127 307.8 
L 665.751032 287.417647 
L 666.497936 217.932353 
L 667.244841 292.05 
L 667.991746 290.197059 
L 668.73865 175.314706 
L 669.485555 264.255882 
L 670.23246 307.8 
L 673.220078 307.8 
L 673.966983 230.902941 
L 674.713887 307.8 
L 675.460792 297.608824 
L 676.954601 116.020588 
L 677.701506 276.3 
L 678.44841 189.211765 
L 679.195315 220.711765 
L 679.94222 126.211765 
L 680.689124 226.270588 
L 681.436029 208.667647 
L 682.929838 254.991176 
L 683.676743 190.138235 
L 684.423648 267.961765 
L 685.170552 229.05 
L 685.917457 160.491176 
L 686.664361 121.579412 
L 687.411266 264.255882 
L 688.158171 266.108824 
L 688.905075 201.255882 
L 689.65198 154.005882 
L 690.398885 267.035294 
L 691.145789 299.461765 
L 691.892694 307.8 
L 692.639598 227.197059 
L 693.386503 286.491176 
L 694.133408 277.226471 
L 694.880312 307.8 
L 695.627217 307.8 
L 696.374122 305.947059 
L 697.121026 268.888235 
L 697.867931 307.8 
L 699.36174 307.8 
L 700.108645 289.270588 
L 700.855549 307.8 
L 701.602454 307.8 
L 702.349359 270.741176 
L 703.096263 307.8 
L 704.590073 307.8 
L 705.336977 305.947059 
L 706.083882 238.314706 
L 706.830786 213.3 
L 707.577691 307.8 
L 708.324596 187.358824 
L 709.0715 213.3 
L 710.56531 299.461765 
L 711.312214 263.329412 
L 712.059119 254.991176 
L 712.806023 296.682353 
L 713.552928 192.917647 
L 714.299833 197.55 
L 715.046737 211.447059 
L 715.793642 166.976471 
L 717.287451 208.667647 
L 718.034356 168.829412 
L 718.78126 226.270588 
L 719.528165 213.3 
L 720.27507 222.564706 
L 721.021974 243.873529 
L 721.768879 283.711765 
L 722.515784 307.8 
L 723.262688 229.05 
L 724.009593 126.211765 
L 724.756497 187.358824 
L 725.503402 182.726471 
L 726.250307 268.888235 
L 726.997211 183.652941 
L 727.744116 307.8 
L 728.491021 181.8 
L 729.237925 242.020588 
L 729.98483 267.035294 
L 730.731735 307.8 
L 731.478639 307.8 
L 732.225544 303.167647 
L 732.972448 256.844118 
L 733.719353 238.314706 
L 734.466258 155.858824 
L 735.213162 253.138235 
L 735.960067 307.8 
L 736.706972 307.8 
L 737.453876 279.079412 
L 738.200781 307.8 
L 738.947685 257.770588 
L 739.69459 267.961765 
L 740.441495 288.344118 
L 741.188399 270.741176 
L 741.935304 307.8 
L 742.682209 286.491176 
L 743.429113 214.226471 
L 744.176018 202.182353 
L 744.922922 307.8 
L 745.669827 201.255882 
L 746.416732 193.844118 
L 747.163636 163.270588 
L 747.163636 163.270588 
" clip-path="url(#p8643980081)" style="fill: none; stroke: #191970; stroke-width: 2; stroke-linecap: square"/>
   </g>
   <g id="patch_3">
    <path d="M 108 320.4 
L 108 43.2 
" style="fill: none; stroke: #000000; stroke-width: 0.8; stroke-linejoin: miter; stroke-linecap: square"/>
   </g>
   <g id="patch_4">
    <path d="M 777.6 320.4 
L 777.6 43.2 
" style="fill: none; stroke: #000000; stroke-width: 0.8; stroke-linejoin: miter; stroke-linecap: square"/>
   </g>
   <g id="patch_5">
    <path d="M 108 320.4 
L 777.6 320.4 
" style="fill: none; stroke: #000000; stroke-width: 0.8; stroke-linejoin: miter; stroke-linecap: square"/>
   </g>
   <g id="patch_6">
    <path d="M 108 43.2 
L 777.6 43.2 
" style="fill: none; stroke: #000000; stroke-width: 0.8; stroke-linejoin: miter; stroke-linecap: square"/>
   </g>
   <g id="text_18">
    <!-- TIME SERIES -->
    <g transform="translate(405.350625 37.2) scale(0.12 -0.12)">
     <defs>
      <path id="DejaVuSans-52" d="M 2841 2188 
Q 3044 2119 3236 1894 
Q 3428 1669 3622 1275 
L 4263 0 
L 3584 0 
L 2988 1197 
Q 2756 1666 2539 1819 
Q 2322 1972 1947 1972 
L 1259 1972 
L 1259 0 
L 628 0 
L 628 4666 
L 2053 4666 
Q 2853 4666 3247 4331 
Q 3641 3997 3641 3322 
Q 3641 2881 3436 2590 
Q 3231 2300 2841 2188 
z
M 1259 4147 
L 1259 2491 
L 2053 2491 
Q 2509 2491 2742 2702 
Q 2975 2913 2975 3322 
Q 2975 3731 2742 3939 
Q 2509 4147 2053 4147 
L 1259 4147 
z
" transform="scale(0.015625)"/>
     </defs>
     <use xlink:href="#DejaVuSans-54"/>
     <use xlink:href="#DejaVuSans-49" x="61.083984"/>
     <use xlink:href="#DejaVuSans-4d" x="90.576172"/>
     <use xlink:href="#DejaVuSans-45" x="176.855469"/>
     <use xlink:href="#DejaVuSans-20" x="240.039062"/>
     <use xlink:href="#DejaVuSans-53" x="271.826172"/>
     <use xlink:href="#DejaVuSans-45" x="335.302734"/>
     <use xlink:href="#DejaVuSans-52" x="398.486328"/>
     <use xlink:href="#DejaVuSans-49" x="467.96875"/>
     <use xlink:href="#DejaVuSans-45" x="497.460938"/>
     <use xlink:href="#DejaVuSans-53" x="560.644531"/>
    </g>
   </g>
  </g>
 </g>
 <defs>
  <clipPath id="p8643980081">
   <rect x="108" y="43.2" width="669.6" height="277.2"/>
  </clipPath>
 </defs>
</svg>
