<?xml version="1.0" encoding="utf-8" standalone="no"?>
<!DOCTYPE svg PUBLIC "-//W3C//DTD SVG 1.1//EN"
  "http://www.w3.org/Graphics/SVG/1.1/DTD/svg11.dtd">
<svg xmlns:xlink="http://www.w3.org/1999/xlink" width="864pt" height="360pt" viewBox="0 0 864 360" xmlns="http://www.w3.org/2000/svg" version="1.1">
 <metadata>
  <rdf:RDF xmlns:dc="http://purl.org/dc/elements/1.1/" xmlns:cc="http://creativecommons.org/ns#" xmlns:rdf="http://www.w3.org/1999/02/22-rdf-syntax-ns#">
   <cc:Work>
    <dc:type rdf:resource="http://purl.org/dc/dcmitype/StillImage"/>
    <dc:date>2023-11-27T20:42:42.691187</dc:date>
    <dc:format>image/svg+xml</dc:format>
    <dc:creator>
     <cc:Agent>
      <dc:title>Matplotlib v3.7.4, https://matplotlib.org/</dc:title>
     </cc:Agent>
    </dc:creator>
   </cc:Work>
  </rdf:RDF>
 </metadata>
 <defs>
  <style type="text/css">*{stroke-linejoin: round; stroke-linecap: butt}</style>
 </defs>
 <g id="figure_1">
  <g id="patch_1">
   <path d="M 0 360 
L 864 360 
L 864 0 
L 0 0 
z
" style="fill: #ffffff"/>
  </g>
  <g id="axes_1">
   <g id="patch_2">
    <path d="M 108 320.4 
L 777.6 320.4 
L 777.6 43.2 
L 108 43.2 
z
" style="fill: #ffffff"/>
   </g>
   <g id="matplotlib.axis_1">
    <g id="xtick_1">
     <g id="line2d_1">
      <defs>
       <path id="mfe91ae5ffc" d="M 0 0 
L 0 3.5 
" style="stroke: #000000; stroke-width: 0.8"/>
      </defs>
      <g>
       <use xlink:href="#mfe91ae5ffc" x="138.436364" y="320.4" style="stroke: #000000; stroke-width: 0.8"/>
      </g>
     </g>
     <g id="text_1">
      <!-- 2022-01-01 -->
      <g transform="translate(103.566989 336.518125) scale(0.12 -0.12)">
       <defs>
        <path id="DejaVuSans-32" d="M 1228 531 
L 3431 531 
L 3431 0 
L 469 0 
L 469 531 
Q 828 903 1448 1529 
Q 2069 2156 2228 2338 
Q 2531 2678 2651 2914 
Q 2772 3150 2772 3378 
Q 2772 3750 2511 3984 
Q 2250 4219 1831 4219 
Q 1534 4219 1204 4116 
Q 875 4013 500 3803 
L 500 4441 
Q 881 4594 1212 4672 
Q 1544 4750 1819 4750 
Q 2544 4750 2975 4387 
Q 3406 4025 3406 3419 
Q 3406 3131 3298 2873 
Q 3191 2616 2906 2266 
Q 2828 2175 2409 1742 
Q 1991 1309 1228 531 
z
" transform="scale(0.015625)"/>
        <path id="DejaVuSans-30" d="M 2034 4250 
Q 1547 4250 1301 3770 
Q 1056 3291 1056 2328 
Q 1056 1369 1301 889 
Q 1547 409 2034 409 
Q 2525 409 2770 889 
Q 3016 1369 3016 2328 
Q 3016 3291 2770 3770 
Q 2525 4250 2034 4250 
z
M 2034 4750 
Q 2819 4750 3233 4129 
Q 3647 3509 3647 2328 
Q 3647 1150 3233 529 
Q 2819 -91 2034 -91 
Q 1250 -91 836 529 
Q 422 1150 422 2328 
Q 422 3509 836 4129 
Q 1250 4750 2034 4750 
z
" transform="scale(0.015625)"/>
        <path id="DejaVuSans-2d" d="M 313 2009 
L 1997 2009 
L 1997 1497 
L 313 1497 
L 313 2009 
z
" transform="scale(0.015625)"/>
        <path id="DejaVuSans-31" d="M 794 531 
L 1825 531 
L 1825 4091 
L 703 3866 
L 703 4441 
L 1819 4666 
L 2450 4666 
L 2450 531 
L 3481 531 
L 3481 0 
L 794 0 
L 794 531 
z
" transform="scale(0.015625)"/>
       </defs>
       <use xlink:href="#DejaVuSans-32"/>
       <use xlink:href="#DejaVuSans-30" x="63.623047"/>
       <use xlink:href="#DejaVuSans-32" x="127.246094"/>
       <use xlink:href="#DejaVuSans-32" x="190.869141"/>
       <use xlink:href="#DejaVuSans-2d" x="254.492188"/>
       <use xlink:href="#DejaVuSans-30" x="290.576172"/>
       <use xlink:href="#DejaVuSans-31" x="354.199219"/>
       <use xlink:href="#DejaVuSans-2d" x="417.822266"/>
       <use xlink:href="#DejaVuSans-30" x="453.90625"/>
       <use xlink:href="#DejaVuSans-31" x="517.529297"/>
      </g>
     </g>
    </g>
    <g id="xtick_2">
     <g id="line2d_2">
      <g>
       <use xlink:href="#mfe91ae5ffc" x="240.067352" y="320.4" style="stroke: #000000; stroke-width: 0.8"/>
      </g>
     </g>
     <g id="text_2">
      <!-- 2022-01-03 -->
      <g transform="translate(205.197977 336.518125) scale(0.12 -0.12)">
       <defs>
        <path id="DejaVuSans-33" d="M 2597 2516 
Q 3050 2419 3304 2112 
Q 3559 1806 3559 1356 
Q 3559 666 3084 287 
Q 2609 -91 1734 -91 
Q 1441 -91 1130 -33 
Q 819 25 488 141 
L 488 750 
Q 750 597 1062 519 
Q 1375 441 1716 441 
Q 2309 441 2620 675 
Q 2931 909 2931 1356 
Q 2931 1769 2642 2001 
Q 2353 2234 1838 2234 
L 1294 2234 
L 1294 2753 
L 1863 2753 
Q 2328 2753 2575 2939 
Q 2822 3125 2822 3475 
Q 2822 3834 2567 4026 
Q 2313 4219 1838 4219 
Q 1578 4219 1281 4162 
Q 984 4106 628 3988 
L 628 4550 
Q 988 4650 1302 4700 
Q 1616 4750 1894 4750 
Q 2613 4750 3031 4423 
Q 3450 4097 3450 3541 
Q 3450 3153 3228 2886 
Q 3006 2619 2597 2516 
z
" transform="scale(0.015625)"/>
       </defs>
       <use xlink:href="#DejaVuSans-32"/>
       <use xlink:href="#DejaVuSans-30" x="63.623047"/>
       <use xlink:href="#DejaVuSans-32" x="127.246094"/>
       <use xlink:href="#DejaVuSans-32" x="190.869141"/>
       <use xlink:href="#DejaVuSans-2d" x="254.492188"/>
       <use xlink:href="#DejaVuSans-30" x="290.576172"/>
       <use xlink:href="#DejaVuSans-31" x="354.199219"/>
       <use xlink:href="#DejaVuSans-2d" x="417.822266"/>
       <use xlink:href="#DejaVuSans-30" x="453.90625"/>
       <use xlink:href="#DejaVuSans-33" x="517.529297"/>
      </g>
     </g>
    </g>
    <g id="xtick_3">
     <g id="line2d_3">
      <g>
       <use xlink:href="#mfe91ae5ffc" x="341.69834" y="320.4" style="stroke: #000000; stroke-width: 0.8"/>
      </g>
     </g>
     <g id="text_3">
      <!-- 2022-01-05 -->
      <g transform="translate(306.828965 336.518125) scale(0.12 -0.12)">
       <defs>
        <path id="DejaVuSans-35" d="M 691 4666 
L 3169 4666 
L 3169 4134 
L 1269 4134 
L 1269 2991 
Q 1406 3038 1543 3061 
Q 1681 3084 1819 3084 
Q 2600 3084 3056 2656 
Q 3513 2228 3513 1497 
Q 3513 744 3044 326 
Q 2575 -91 1722 -91 
Q 1428 -91 1123 -41 
Q 819 9 494 109 
L 494 744 
Q 775 591 1075 516 
Q 1375 441 1709 441 
Q 2250 441 2565 725 
Q 2881 1009 2881 1497 
Q 2881 1984 2565 2268 
Q 2250 2553 1709 2553 
Q 1456 2553 1204 2497 
Q 953 2441 691 2322 
L 691 4666 
z
" transform="scale(0.015625)"/>
       </defs>
       <use xlink:href="#DejaVuSans-32"/>
       <use xlink:href="#DejaVuSans-30" x="63.623047"/>
       <use xlink:href="#DejaVuSans-32" x="127.246094"/>
       <use xlink:href="#DejaVuSans-32" x="190.869141"/>
       <use xlink:href="#DejaVuSans-2d" x="254.492188"/>
       <use xlink:href="#DejaVuSans-30" x="290.576172"/>
       <use xlink:href="#DejaVuSans-31" x="354.199219"/>
       <use xlink:href="#DejaVuSans-2d" x="417.822266"/>
       <use xlink:href="#DejaVuSans-30" x="453.90625"/>
       <use xlink:href="#DejaVuSans-35" x="517.529297"/>
      </g>
     </g>
    </g>
    <g id="xtick_4">
     <g id="line2d_4">
      <g>
       <use xlink:href="#mfe91ae5ffc" x="443.329328" y="320.4" style="stroke: #000000; stroke-width: 0.8"/>
      </g>
     </g>
     <g id="text_4">
      <!-- 2022-01-07 -->
      <g transform="translate(408.459953 336.518125) scale(0.12 -0.12)">
       <defs>
        <path id="DejaVuSans-37" d="M 525 4666 
L 3525 4666 
L 3525 4397 
L 1831 0 
L 1172 0 
L 2766 4134 
L 525 4134 
L 525 4666 
z
" transform="scale(0.015625)"/>
       </defs>
       <use xlink:href="#DejaVuSans-32"/>
       <use xlink:href="#DejaVuSans-30" x="63.623047"/>
       <use xlink:href="#DejaVuSans-32" x="127.246094"/>
       <use xlink:href="#DejaVuSans-32" x="190.869141"/>
       <use xlink:href="#DejaVuSans-2d" x="254.492188"/>
       <use xlink:href="#DejaVuSans-30" x="290.576172"/>
       <use xlink:href="#DejaVuSans-31" x="354.199219"/>
       <use xlink:href="#DejaVuSans-2d" x="417.822266"/>
       <use xlink:href="#DejaVuSans-30" x="453.90625"/>
       <use xlink:href="#DejaVuSans-37" x="517.529297"/>
      </g>
     </g>
    </g>
    <g id="xtick_5">
     <g id="line2d_5">
      <g>
       <use xlink:href="#mfe91ae5ffc" x="544.960316" y="320.4" style="stroke: #000000; stroke-width: 0.8"/>
      </g>
     </g>
     <g id="text_5">
      <!-- 2022-01-09 -->
      <g transform="translate(510.090941 336.518125) scale(0.12 -0.12)">
       <defs>
        <path id="DejaVuSans-39" d="M 703 97 
L 703 672 
Q 941 559 1184 500 
Q 1428 441 1663 441 
Q 2288 441 2617 861 
Q 2947 1281 2994 2138 
Q 2813 1869 2534 1725 
Q 2256 1581 1919 1581 
Q 1219 1581 811 2004 
Q 403 2428 403 3163 
Q 403 3881 828 4315 
Q 1253 4750 1959 4750 
Q 2769 4750 3195 4129 
Q 3622 3509 3622 2328 
Q 3622 1225 3098 567 
Q 2575 -91 1691 -91 
Q 1453 -91 1209 -44 
Q 966 3 703 97 
z
M 1959 2075 
Q 2384 2075 2632 2365 
Q 2881 2656 2881 3163 
Q 2881 3666 2632 3958 
Q 2384 4250 1959 4250 
Q 1534 4250 1286 3958 
Q 1038 3666 1038 3163 
Q 1038 2656 1286 2365 
Q 1534 2075 1959 2075 
z
" transform="scale(0.015625)"/>
       </defs>
       <use xlink:href="#DejaVuSans-32"/>
       <use xlink:href="#DejaVuSans-30" x="63.623047"/>
       <use xlink:href="#DejaVuSans-32" x="127.246094"/>
       <use xlink:href="#DejaVuSans-32" x="190.869141"/>
       <use xlink:href="#DejaVuSans-2d" x="254.492188"/>
       <use xlink:href="#DejaVuSans-30" x="290.576172"/>
       <use xlink:href="#DejaVuSans-31" x="354.199219"/>
       <use xlink:href="#DejaVuSans-2d" x="417.822266"/>
       <use xlink:href="#DejaVuSans-30" x="453.90625"/>
       <use xlink:href="#DejaVuSans-39" x="517.529297"/>
      </g>
     </g>
    </g>
    <g id="xtick_6">
     <g id="line2d_6">
      <g>
       <use xlink:href="#mfe91ae5ffc" x="646.591304" y="320.4" style="stroke: #000000; stroke-width: 0.8"/>
      </g>
     </g>
     <g id="text_6">
      <!-- 2022-01-11 -->
      <g transform="translate(611.721929 336.518125) scale(0.12 -0.12)">
       <use xlink:href="#DejaVuSans-32"/>
       <use xlink:href="#DejaVuSans-30" x="63.623047"/>
       <use xlink:href="#DejaVuSans-32" x="127.246094"/>
       <use xlink:href="#DejaVuSans-32" x="190.869141"/>
       <use xlink:href="#DejaVuSans-2d" x="254.492188"/>
       <use xlink:href="#DejaVuSans-30" x="290.576172"/>
       <use xlink:href="#DejaVuSans-31" x="354.199219"/>
       <use xlink:href="#DejaVuSans-2d" x="417.822266"/>
       <use xlink:href="#DejaVuSans-31" x="453.90625"/>
       <use xlink:href="#DejaVuSans-31" x="517.529297"/>
      </g>
     </g>
    </g>
    <g id="xtick_7">
     <g id="line2d_7">
      <g>
       <use xlink:href="#mfe91ae5ffc" x="748.222292" y="320.4" style="stroke: #000000; stroke-width: 0.8"/>
      </g>
     </g>
     <g id="text_7">
      <!-- 2022-01-13 -->
      <g transform="translate(713.352917 336.518125) scale(0.12 -0.12)">
       <use xlink:href="#DejaVuSans-32"/>
       <use xlink:href="#DejaVuSans-30" x="63.623047"/>
       <use xlink:href="#DejaVuSans-32" x="127.246094"/>
       <use xlink:href="#DejaVuSans-32" x="190.869141"/>
       <use xlink:href="#DejaVuSans-2d" x="254.492188"/>
       <use xlink:href="#DejaVuSans-30" x="290.576172"/>
       <use xlink:href="#DejaVuSans-31" x="354.199219"/>
       <use xlink:href="#DejaVuSans-2d" x="417.822266"/>
       <use xlink:href="#DejaVuSans-31" x="453.90625"/>
       <use xlink:href="#DejaVuSans-33" x="517.529297"/>
      </g>
     </g>
    </g>
    <g id="text_8">
     <!-- TIME (DAYS) -->
     <g transform="translate(393.97375 355.17125) scale(0.16 -0.16)">
      <defs>
       <path id="DejaVuSans-54" d="M -19 4666 
L 3928 4666 
L 3928 4134 
L 2272 4134 
L 2272 0 
L 1638 0 
L 1638 4134 
L -19 4134 
L -19 4666 
z
" transform="scale(0.015625)"/>
       <path id="DejaVuSans-49" d="M 628 4666 
L 1259 4666 
L 1259 0 
L 628 0 
L 628 4666 
z
" transform="scale(0.015625)"/>
       <path id="DejaVuSans-4d" d="M 628 4666 
L 1569 4666 
L 2759 1491 
L 3956 4666 
L 4897 4666 
L 4897 0 
L 4281 0 
L 4281 4097 
L 3078 897 
L 2444 897 
L 1241 4097 
L 1241 0 
L 628 0 
L 628 4666 
z
" transform="scale(0.015625)"/>
       <path id="DejaVuSans-45" d="M 628 4666 
L 3578 4666 
L 3578 4134 
L 1259 4134 
L 1259 2753 
L 3481 2753 
L 3481 2222 
L 1259 2222 
L 1259 531 
L 3634 531 
L 3634 0 
L 628 0 
L 628 4666 
z
" transform="scale(0.015625)"/>
       <path id="DejaVuSans-20" transform="scale(0.015625)"/>
       <path id="DejaVuSans-28" d="M 1984 4856 
Q 1566 4138 1362 3434 
Q 1159 2731 1159 2009 
Q 1159 1288 1364 580 
Q 1569 -128 1984 -844 
L 1484 -844 
Q 1016 -109 783 600 
Q 550 1309 550 2009 
Q 550 2706 781 3412 
Q 1013 4119 1484 4856 
L 1984 4856 
z
" transform="scale(0.015625)"/>
       <path id="DejaVuSans-44" d="M 1259 4147 
L 1259 519 
L 2022 519 
Q 2988 519 3436 956 
Q 3884 1394 3884 2338 
Q 3884 3275 3436 3711 
Q 2988 4147 2022 4147 
L 1259 4147 
z
M 628 4666 
L 1925 4666 
Q 3281 4666 3915 4102 
Q 4550 3538 4550 2338 
Q 4550 1131 3912 565 
Q 3275 0 1925 0 
L 628 0 
L 628 4666 
z
" transform="scale(0.015625)"/>
       <path id="DejaVuSans-41" d="M 2188 4044 
L 1331 1722 
L 3047 1722 
L 2188 4044 
z
M 1831 4666 
L 2547 4666 
L 4325 0 
L 3669 0 
L 3244 1197 
L 1141 1197 
L 716 0 
L 50 0 
L 1831 4666 
z
" transform="scale(0.015625)"/>
       <path id="DejaVuSans-59" d="M -13 4666 
L 666 4666 
L 1959 2747 
L 3244 4666 
L 3922 4666 
L 2272 2222 
L 2272 0 
L 1638 0 
L 1638 2222 
L -13 4666 
z
" transform="scale(0.015625)"/>
       <path id="DejaVuSans-53" d="M 3425 4513 
L 3425 3897 
Q 3066 4069 2747 4153 
Q 2428 4238 2131 4238 
Q 1616 4238 1336 4038 
Q 1056 3838 1056 3469 
Q 1056 3159 1242 3001 
Q 1428 2844 1947 2747 
L 2328 2669 
Q 3034 2534 3370 2195 
Q 3706 1856 3706 1288 
Q 3706 609 3251 259 
Q 2797 -91 1919 -91 
Q 1588 -91 1214 -16 
Q 841 59 441 206 
L 441 856 
Q 825 641 1194 531 
Q 1563 422 1919 422 
Q 2459 422 2753 634 
Q 3047 847 3047 1241 
Q 3047 1584 2836 1778 
Q 2625 1972 2144 2069 
L 1759 2144 
Q 1053 2284 737 2584 
Q 422 2884 422 3419 
Q 422 4038 858 4394 
Q 1294 4750 2059 4750 
Q 2388 4750 2728 4690 
Q 3069 4631 3425 4513 
z
" transform="scale(0.015625)"/>
       <path id="DejaVuSans-29" d="M 513 4856 
L 1013 4856 
Q 1481 4119 1714 3412 
Q 1947 2706 1947 2009 
Q 1947 1309 1714 600 
Q 1481 -109 1013 -844 
L 513 -844 
Q 928 -128 1133 580 
Q 1338 1288 1338 2009 
Q 1338 2731 1133 3434 
Q 928 4138 513 4856 
z
" transform="scale(0.015625)"/>
      </defs>
      <use xlink:href="#DejaVuSans-54"/>
      <use xlink:href="#DejaVuSans-49" x="61.083984"/>
      <use xlink:href="#DejaVuSans-4d" x="90.576172"/>
      <use xlink:href="#DejaVuSans-45" x="176.855469"/>
      <use xlink:href="#DejaVuSans-20" x="240.039062"/>
      <use xlink:href="#DejaVuSans-28" x="271.826172"/>
      <use xlink:href="#DejaVuSans-44" x="310.839844"/>
      <use xlink:href="#DejaVuSans-41" x="386.091797"/>
      <use xlink:href="#DejaVuSans-59" x="446.75"/>
      <use xlink:href="#DejaVuSans-53" x="507.833984"/>
      <use xlink:href="#DejaVuSans-29" x="571.310547"/>
     </g>
    </g>
   </g>
   <g id="matplotlib.axis_2">
    <g id="ytick_1">
     <g id="line2d_8">
      <defs>
       <path id="mda8c5ee448" d="M 0 0 
L -3.5 0 
" style="stroke: #000000; stroke-width: 0.8"/>
      </defs>
      <g>
       <use xlink:href="#mda8c5ee448" x="108" y="307.8" style="stroke: #000000; stroke-width: 0.8"/>
      </g>
     </g>
     <g id="text_9">
      <!-- 0 -->
      <g transform="translate(93.365 312.359062) scale(0.12 -0.12)">
       <use xlink:href="#DejaVuSans-30"/>
      </g>
     </g>
    </g>
    <g id="ytick_2">
     <g id="line2d_9">
      <g>
       <use xlink:href="#mda8c5ee448" x="108" y="261.981818" style="stroke: #000000; stroke-width: 0.8"/>
      </g>
     </g>
     <g id="text_10">
      <!-- 50 -->
      <g transform="translate(85.73 266.540881) scale(0.12 -0.12)">
       <use xlink:href="#DejaVuSans-35"/>
       <use xlink:href="#DejaVuSans-30" x="63.623047"/>
      </g>
     </g>
    </g>
    <g id="ytick_3">
     <g id="line2d_10">
      <g>
       <use xlink:href="#mda8c5ee448" x="108" y="216.163636" style="stroke: #000000; stroke-width: 0.8"/>
      </g>
     </g>
     <g id="text_11">
      <!-- 100 -->
      <g transform="translate(78.095 220.722699) scale(0.12 -0.12)">
       <use xlink:href="#DejaVuSans-31"/>
       <use xlink:href="#DejaVuSans-30" x="63.623047"/>
       <use xlink:href="#DejaVuSans-30" x="127.246094"/>
      </g>
     </g>
    </g>
    <g id="ytick_4">
     <g id="line2d_11">
      <g>
       <use xlink:href="#mda8c5ee448" x="108" y="170.345455" style="stroke: #000000; stroke-width: 0.8"/>
      </g>
     </g>
     <g id="text_12">
      <!-- 150 -->
      <g transform="translate(78.095 174.904517) scale(0.12 -0.12)">
       <use xlink:href="#DejaVuSans-31"/>
       <use xlink:href="#DejaVuSans-35" x="63.623047"/>
       <use xlink:href="#DejaVuSans-30" x="127.246094"/>
      </g>
     </g>
    </g>
    <g id="ytick_5">
     <g id="line2d_12">
      <g>
       <use xlink:href="#mda8c5ee448" x="108" y="124.527273" style="stroke: #000000; stroke-width: 0.8"/>
      </g>
     </g>
     <g id="text_13">
      <!-- 200 -->
      <g transform="translate(78.095 129.086335) scale(0.12 -0.12)">
       <use xlink:href="#DejaVuSans-32"/>
       <use xlink:href="#DejaVuSans-30" x="63.623047"/>
       <use xlink:href="#DejaVuSans-30" x="127.246094"/>
      </g>
     </g>
    </g>
    <g id="ytick_6">
     <g id="line2d_13">
      <g>
       <use xlink:href="#mda8c5ee448" x="108" y="78.709091" style="stroke: #000000; stroke-width: 0.8"/>
      </g>
     </g>
     <g id="text_14">
      <!-- 250 -->
      <g transform="translate(78.095 83.268153) scale(0.12 -0.12)">
       <use xlink:href="#DejaVuSans-32"/>
       <use xlink:href="#DejaVuSans-35" x="63.623047"/>
       <use xlink:href="#DejaVuSans-30" x="127.246094"/>
      </g>
     </g>
    </g>
    <g id="text_15">
     <!-- SIMULATED -->
     <g transform="translate(52.851 227.5875) rotate(-90) scale(0.16 -0.16)">
      <defs>
       <path id="DejaVuSans-55" d="M 556 4666 
L 1191 4666 
L 1191 1831 
Q 1191 1081 1462 751 
Q 1734 422 2344 422 
Q 2950 422 3222 751 
Q 3494 1081 3494 1831 
L 3494 4666 
L 4128 4666 
L 4128 1753 
Q 4128 841 3676 375 
Q 3225 -91 2344 -91 
Q 1459 -91 1007 375 
Q 556 841 556 1753 
L 556 4666 
z
" transform="scale(0.015625)"/>
       <path id="DejaVuSans-4c" d="M 628 4666 
L 1259 4666 
L 1259 531 
L 3531 531 
L 3531 0 
L 628 0 
L 628 4666 
z
" transform="scale(0.015625)"/>
      </defs>
      <use xlink:href="#DejaVuSans-53"/>
      <use xlink:href="#DejaVuSans-49" x="63.476562"/>
      <use xlink:href="#DejaVuSans-4d" x="92.96875"/>
      <use xlink:href="#DejaVuSans-55" x="179.248047"/>
      <use xlink:href="#DejaVuSans-4c" x="252.441406"/>
      <use xlink:href="#DejaVuSans-41" x="310.404297"/>
      <use xlink:href="#DejaVuSans-54" x="371.0625"/>
      <use xlink:href="#DejaVuSans-45" x="432.146484"/>
      <use xlink:href="#DejaVuSans-44" x="495.330078"/>
     </g>
     <!-- AMPLITUDE -->
     <g transform="translate(70.7675 227.7725) rotate(-90) scale(0.16 -0.16)">
      <defs>
       <path id="DejaVuSans-50" d="M 1259 4147 
L 1259 2394 
L 2053 2394 
Q 2494 2394 2734 2622 
Q 2975 2850 2975 3272 
Q 2975 3691 2734 3919 
Q 2494 4147 2053 4147 
L 1259 4147 
z
M 628 4666 
L 2053 4666 
Q 2838 4666 3239 4311 
Q 3641 3956 3641 3272 
Q 3641 2581 3239 2228 
Q 2838 1875 2053 1875 
L 1259 1875 
L 1259 0 
L 628 0 
L 628 4666 
z
" transform="scale(0.015625)"/>
      </defs>
      <use xlink:href="#DejaVuSans-41"/>
      <use xlink:href="#DejaVuSans-4d" x="68.408203"/>
      <use xlink:href="#DejaVuSans-50" x="154.6875"/>
      <use xlink:href="#DejaVuSans-4c" x="214.990234"/>
      <use xlink:href="#DejaVuSans-49" x="270.703125"/>
      <use xlink:href="#DejaVuSans-54" x="300.195312"/>
      <use xlink:href="#DejaVuSans-55" x="361.279297"/>
      <use xlink:href="#DejaVuSans-44" x="434.472656"/>
      <use xlink:href="#DejaVuSans-45" x="511.474609"/>
     </g>
    </g>
   </g>
   <g id="line2d_14">
    <path d="M 138.436364 307.8 
L 139.49502 258.316364 
L 140.553676 307.8 
L 141.612332 267.48 
L 142.670988 156.6 
L 143.729644 155.683636 
L 144.7883 282.141818 
L 145.846957 259.232727 
L 147.964269 307.8 
L 149.022925 214.330909 
L 150.081581 307.8 
L 151.140237 163.930909 
L 152.198893 239.989091 
L 153.257549 307.8 
L 155.374862 307.8 
L 156.433518 215.247273 
L 157.492174 307.8 
L 158.55083 266.563636 
L 159.609486 283.058182 
L 160.668142 229.909091 
L 161.726798 279.392727 
L 162.785455 119.945455 
L 163.844111 262.898182 
L 164.902767 232.658182 
L 165.961423 256.483636 
L 167.020079 277.56 
L 168.078735 269.312727 
L 169.137391 207 
L 170.196047 186.84 
L 171.254704 232.658182 
L 172.31336 209.749091 
L 173.372016 195.087273 
L 174.430672 131.858182 
L 175.489328 153.850909 
L 176.547984 260.149091 
L 177.60664 261.981818 
L 178.665296 304.134545 
L 179.723953 297.72 
L 180.782609 165.763636 
L 181.841265 247.32 
L 182.899921 239.072727 
L 183.958577 239.989091 
L 185.017233 192.338182 
L 186.075889 230.825455 
L 187.134545 223.494545 
L 188.193202 299.552727 
L 189.251858 212.498182 
L 190.310514 233.574545 
L 191.36917 307.8 
L 192.427826 307.8 
L 193.486482 256.483636 
L 194.545138 298.636364 
L 195.603794 245.487273 
L 196.662451 307.8 
L 197.721107 307.8 
L 198.779763 253.734545 
L 199.838419 296.803636 
L 200.897075 293.138182 
L 201.955731 307.8 
L 204.073043 307.8 
L 205.1317 246.403636 
L 206.190356 307.8 
L 207.249012 249.152727 
L 208.307668 307.8 
L 209.366324 289.472727 
L 210.42498 259.232727 
L 211.483636 217.996364 
L 212.542292 228.992727 
L 213.600949 191.421818 
L 214.659605 207.916364 
L 215.718261 228.076364 
L 216.776917 254.650909 
L 217.835573 181.341818 
L 218.894229 307.8 
L 221.011542 126.36 
L 222.070198 217.996364 
L 223.128854 255.567273 
L 224.18751 191.421818 
L 225.246166 262.898182 
L 226.304822 152.934545 
L 227.363478 130.941818 
L 228.422134 194.170909 
L 229.480791 266.563636 
L 230.539447 307.8 
L 231.598103 300.469091 
L 232.656759 270.229091 
L 233.715415 189.589091 
L 234.774071 240.905455 
L 235.832727 261.065455 
L 236.891383 307.8 
L 237.95004 256.483636 
L 239.008696 231.741818 
L 240.067352 302.301818 
L 241.126008 280.309091 
L 242.184664 212.498182 
L 243.24332 298.636364 
L 244.301976 307.8 
L 246.419289 307.8 
L 247.477945 285.807273 
L 248.536601 255.567273 
L 249.595257 307.8 
L 250.653913 283.058182 
L 251.712569 261.065455 
L 252.771225 250.985455 
L 253.829881 307.8 
L 254.888538 241.821818 
L 255.947194 307.8 
L 257.00585 274.810909 
L 258.064506 279.392727 
L 259.123162 236.323636 
L 260.181818 182.258182 
L 261.240474 263.814545 
L 262.29913 304.134545 
L 263.357787 207.916364 
L 264.416443 227.16 
L 265.475099 196.92 
L 266.533755 282.141818 
L 267.592411 207 
L 268.651067 234.490909 
L 269.709723 275.727273 
L 270.768379 225.327273 
L 271.827036 225.327273 
L 272.885692 210.665455 
L 273.944348 228.992727 
L 275.003004 230.825455 
L 276.06166 184.090909 
L 277.120316 190.505455 
L 278.178972 307.8 
L 279.237628 238.156364 
L 280.296285 213.414545 
L 281.354941 223.494545 
L 282.413597 164.847273 
L 283.472253 307.8 
L 284.530909 243.654545 
L 285.589565 307.8 
L 286.648221 307.8 
L 287.706877 278.476364 
L 288.765534 283.974545 
L 289.82419 244.570909 
L 290.882846 307.8 
L 291.941502 272.061818 
L 293.000158 307.8 
L 296.176126 307.8 
L 297.234783 249.152727 
L 298.293439 251.901818 
L 299.352095 307.8 
L 300.410751 293.138182 
L 301.469407 255.567273 
L 302.528063 233.574545 
L 303.586719 217.996364 
L 304.645375 272.061818 
L 305.704032 253.734545 
L 306.762688 239.072727 
L 307.821344 233.574545 
L 308.88 282.141818 
L 309.938656 253.734545 
L 310.997312 247.32 
L 312.055968 262.898182 
L 313.114625 226.243636 
L 314.173281 130.941818 
L 315.231937 219.829091 
L 316.290593 220.745455 
L 317.349249 188.672727 
L 318.407905 170.345455 
L 319.466561 253.734545 
L 320.525217 207.916364 
L 321.583874 208.832727 
L 322.64253 197.836364 
L 323.701186 200.585455 
L 324.759842 240.905455 
L 325.818498 186.84 
L 326.877154 164.847273 
L 327.93581 270.229091 
L 328.994466 275.727273 
L 330.053123 239.989091 
L 331.111779 264.730909 
L 332.170435 163.014545 
L 333.229091 307.8 
L 334.287747 304.134545 
L 335.346403 304.134545 
L 337.463715 307.8 
L 339.581028 307.8 
L 340.639684 271.145455 
L 341.69834 307.8 
L 343.815652 307.8 
L 344.874308 285.807273 
L 345.932964 307.8 
L 346.991621 307.8 
L 348.050277 305.967273 
L 349.108933 307.8 
L 351.226245 307.8 
L 352.284901 271.145455 
L 353.343557 279.392727 
L 354.402213 275.727273 
L 355.46087 261.981818 
L 356.519526 272.061818 
L 357.578182 307.8 
L 358.636838 190.505455 
L 359.695494 185.007273 
L 360.75415 261.981818 
L 361.812806 128.192727 
L 362.871462 125.443636 
L 363.930119 141.021818 
L 364.988775 225.327273 
L 366.047431 178.592727 
L 367.106087 169.429091 
L 368.164743 135.523636 
L 369.223399 236.323636 
L 370.282055 94.287273 
L 371.340711 189.589091 
L 372.399368 225.327273 
L 373.458024 300.469091 
L 374.51668 144.687273 
L 375.575336 186.84 
L 376.633992 144.687273 
L 377.692648 228.076364 
L 378.751304 231.741818 
L 379.80996 301.385455 
L 380.868617 259.232727 
L 381.927273 232.658182 
L 382.985929 305.967273 
L 384.044585 192.338182 
L 385.103241 307.8 
L 388.279209 307.8 
L 389.337866 295.887273 
L 390.396522 300.469091 
L 391.455178 131.858182 
L 392.513834 307.8 
L 393.57249 274.810909 
L 394.631146 231.741818 
L 395.689802 307.8 
L 396.748458 307.8 
L 397.807115 223.494545 
L 398.865771 307.8 
L 402.041739 307.8 
L 403.100395 288.556364 
L 404.159051 244.570909 
L 405.217708 206.083636 
L 406.276364 178.592727 
L 407.33502 270.229091 
L 408.393676 178.592727 
L 409.452332 196.003636 
L 410.510988 238.156364 
L 411.569644 228.992727 
L 412.6283 172.178182 
L 413.686957 148.352727 
L 414.745613 148.352727 
L 415.804269 182.258182 
L 416.862925 261.981818 
L 417.921581 186.84 
L 418.980237 196.92 
L 420.038893 129.109091 
L 421.097549 203.334545 
L 422.156206 244.570909 
L 423.214862 307.8 
L 424.273518 133.690909 
L 425.332174 185.923636 
L 426.39083 307.8 
L 427.449486 202.418182 
L 428.508142 238.156364 
L 429.566798 249.152727 
L 430.625455 262.898182 
L 431.684111 307.8 
L 432.742767 294.970909 
L 433.801423 307.8 
L 434.860079 274.810909 
L 435.918735 307.8 
L 436.977391 289.472727 
L 438.036047 307.8 
L 439.094704 283.974545 
L 440.15336 307.8 
L 441.212016 307.8 
L 442.270672 293.138182 
L 443.329328 307.8 
L 444.387984 307.8 
L 445.44664 214.330909 
L 446.505296 285.807273 
L 447.563953 307.8 
L 448.622609 307.8 
L 449.681265 302.301818 
L 450.739921 307.8 
L 452.857233 253.734545 
L 453.915889 307.8 
L 456.033202 203.334545 
L 458.150514 274.810909 
L 459.20917 162.098182 
L 460.267826 288.556364 
L 461.326482 307.8 
L 462.385138 282.141818 
L 463.443794 246.403636 
L 464.502451 166.68 
L 465.561107 164.847273 
L 466.619763 222.578182 
L 467.678419 173.094545 
L 468.737075 135.523636 
L 469.795731 174.927273 
L 470.854387 278.476364 
L 471.913043 307.8 
L 472.9717 234.490909 
L 474.030356 307.8 
L 475.089012 204.250909 
L 476.147668 176.76 
L 477.206324 217.08 
L 478.26498 272.061818 
L 479.323636 112.614545 
L 480.382292 307.8 
L 481.440949 232.658182 
L 482.499605 254.650909 
L 483.558261 256.483636 
L 484.616917 252.818182 
L 485.675573 243.654545 
L 486.734229 280.309091 
L 487.792885 307.8 
L 488.851542 307.8 
L 489.910198 174.927273 
L 490.968854 307.8 
L 492.02751 292.221818 
L 493.086166 307.8 
L 494.144822 262.898182 
L 495.203478 243.654545 
L 496.262134 307.8 
L 497.320791 252.818182 
L 498.379447 307.8 
L 499.438103 307.8 
L 500.496759 260.149091 
L 501.555415 260.149091 
L 502.614071 270.229091 
L 503.672727 227.16 
L 504.731383 265.647273 
L 505.79004 235.407273 
L 506.848696 229.909091 
L 507.907352 282.141818 
L 508.966008 229.909091 
L 510.024664 250.985455 
L 511.08332 208.832727 
L 512.141976 185.007273 
L 513.200632 207 
L 514.259289 279.392727 
L 515.317945 236.323636 
L 516.376601 244.570909 
L 517.435257 275.727273 
L 518.493913 302.301818 
L 519.552569 132.774545 
L 520.611225 175.843636 
L 521.669881 55.8 
L 522.728538 216.163636 
L 523.787194 288.556364 
L 524.84585 161.181818 
L 525.904506 212.498182 
L 526.963162 152.018182 
L 528.021818 294.054545 
L 529.080474 177.676364 
L 530.13913 245.487273 
L 531.197787 188.672727 
L 532.256443 210.665455 
L 533.315099 307.8 
L 534.373755 300.469091 
L 535.432411 138.272727 
L 536.491067 307.8 
L 537.549723 196.92 
L 538.608379 250.069091 
L 539.667036 210.665455 
L 540.725692 307.8 
L 541.784348 269.312727 
L 542.843004 236.323636 
L 543.90166 297.72 
L 544.960316 307.8 
L 546.018972 307.8 
L 547.077628 255.567273 
L 548.136285 246.403636 
L 549.194941 307.8 
L 550.253597 255.567273 
L 551.312253 230.825455 
L 552.370909 307.8 
L 553.429565 263.814545 
L 554.488221 307.8 
L 555.546877 271.145455 
L 556.605534 307.8 
L 557.66419 307.8 
L 558.722846 205.167273 
L 559.781502 238.156364 
L 560.840158 200.585455 
L 561.898814 238.156364 
L 562.95747 237.24 
L 564.016126 217.996364 
L 565.074783 251.901818 
L 566.133439 202.418182 
L 567.192095 163.930909 
L 568.250751 286.723636 
L 569.309407 214.330909 
L 570.368063 199.669091 
L 571.426719 209.749091 
L 572.485375 304.134545 
L 573.544032 268.396364 
L 574.602688 79.625455 
L 575.661344 190.505455 
L 576.72 229.909091 
L 577.778656 255.567273 
L 578.837312 217.996364 
L 579.895968 271.145455 
L 580.954625 239.989091 
L 582.013281 261.981818 
L 583.071937 138.272727 
L 584.130593 175.843636 
L 585.189249 239.989091 
L 586.247905 248.236364 
L 587.306561 204.250909 
L 588.365217 250.069091 
L 589.423874 261.065455 
L 590.48253 307.8 
L 591.541186 270.229091 
L 592.599842 276.643636 
L 593.658498 289.472727 
L 594.717154 307.8 
L 597.893123 307.8 
L 598.951779 304.134545 
L 600.010435 268.396364 
L 601.069091 307.8 
L 602.127747 272.978182 
L 603.186403 307.8 
L 604.245059 307.8 
L 605.303715 243.654545 
L 606.362372 307.8 
L 607.421028 307.8 
L 608.479684 173.094545 
L 609.53834 264.730909 
L 610.596996 307.8 
L 611.655652 297.72 
L 613.772964 241.821818 
L 614.831621 234.490909 
L 615.890277 199.669091 
L 616.948933 233.574545 
L 618.007589 307.8 
L 619.066245 270.229091 
L 620.124901 278.476364 
L 621.183557 307.8 
L 622.242213 284.890909 
L 623.30087 258.316364 
L 624.359526 239.989091 
L 625.418182 193.254545 
L 626.476838 302.301818 
L 627.535494 193.254545 
L 628.59415 300.469091 
L 629.652806 283.058182 
L 630.711462 130.025455 
L 631.770119 119.945455 
L 632.828775 104.367273 
L 633.887431 141.021818 
L 634.946087 145.603636 
L 636.004743 170.345455 
L 637.063399 223.494545 
L 638.122055 224.410909 
L 639.180711 307.8 
L 640.239368 168.512727 
L 641.298024 170.345455 
L 642.35668 265.647273 
L 643.415336 252.818182 
L 644.473992 307.8 
L 645.532648 229.909091 
L 646.591304 239.989091 
L 647.64996 245.487273 
L 648.708617 307.8 
L 649.767273 290.389091 
L 650.825929 244.570909 
L 651.884585 211.581818 
L 652.943241 307.8 
L 655.060553 307.8 
L 656.119209 292.221818 
L 657.177866 307.8 
L 658.236522 303.218182 
L 659.295178 291.305455 
L 660.353834 199.669091 
L 661.41249 246.403636 
L 662.471146 307.8 
L 666.705771 307.8 
L 667.764427 271.145455 
L 668.823083 283.058182 
L 669.881739 264.730909 
L 670.940395 217.08 
L 671.999051 307.8 
L 673.057708 236.323636 
L 674.116364 219.829091 
L 675.17502 188.672727 
L 676.233676 195.087273 
L 677.292332 200.585455 
L 678.350988 181.341818 
L 679.409644 198.752727 
L 680.4683 123.610909 
L 681.526957 238.156364 
L 682.585613 120.861818 
L 683.644269 200.585455 
L 684.702925 141.021818 
L 685.761581 216.163636 
L 686.820237 145.603636 
L 687.878893 211.581818 
L 688.937549 174.010909 
L 689.996206 307.8 
L 691.054862 227.16 
L 692.113518 285.807273 
L 693.172174 195.087273 
L 694.23083 262.898182 
L 695.289486 200.585455 
L 696.348142 268.396364 
L 697.406798 307.8 
L 698.465455 231.741818 
L 699.524111 193.254545 
L 700.582767 307.8 
L 701.641423 205.167273 
L 702.700079 290.389091 
L 703.758735 300.469091 
L 704.817391 307.8 
L 705.876047 307.8 
L 706.934704 213.414545 
L 707.99336 303.218182 
L 709.052016 307.8 
L 711.169328 307.8 
L 712.227984 305.050909 
L 713.28664 289.472727 
L 714.345296 279.392727 
L 715.403953 283.058182 
L 716.462609 266.563636 
L 717.521265 307.8 
L 718.579921 307.8 
L 719.638577 283.974545 
L 720.697233 307.8 
L 721.755889 261.065455 
L 722.814545 306.883636 
L 723.873202 226.243636 
L 724.931858 307.8 
L 725.990514 213.414545 
L 727.04917 276.643636 
L 728.107826 206.083636 
L 729.166482 266.563636 
L 730.225138 251.901818 
L 731.283794 261.981818 
L 732.342451 220.745455 
L 733.401107 251.901818 
L 734.459763 275.727273 
L 735.518419 305.050909 
L 736.577075 163.014545 
L 737.635731 239.072727 
L 738.694387 189.589091 
L 739.753043 202.418182 
L 740.8117 250.985455 
L 741.870356 91.538182 
L 742.929012 304.134545 
L 743.987668 156.6 
L 745.046324 307.8 
L 746.10498 177.676364 
L 747.163636 286.723636 
L 747.163636 286.723636 
" clip-path="url(#pf9a16071ee)" style="fill: none; stroke: #191970; stroke-width: 2; stroke-linecap: square"/>
   </g>
   <g id="patch_3">
    <path d="M 108 320.4 
L 108 43.2 
" style="fill: none; stroke: #000000; stroke-width: 0.8; stroke-linejoin: miter; stroke-linecap: square"/>
   </g>
   <g id="patch_4">
    <path d="M 777.6 320.4 
L 777.6 43.2 
" style="fill: none; stroke: #000000; stroke-width: 0.8; stroke-linejoin: miter; stroke-linecap: square"/>
   </g>
   <g id="patch_5">
    <path d="M 108 320.4 
L 777.6 320.4 
" style="fill: none; stroke: #000000; stroke-width: 0.8; stroke-linejoin: miter; stroke-linecap: square"/>
   </g>
   <g id="patch_6">
    <path d="M 108 43.2 
L 777.6 43.2 
" style="fill: none; stroke: #000000; stroke-width: 0.8; stroke-linejoin: miter; stroke-linecap: square"/>
   </g>
   <g id="text_16">
    <!-- TIME SERIES -->
    <g transform="translate(386.625938 37.2) scale(0.18 -0.18)">
     <defs>
      <path id="DejaVuSans-52" d="M 2841 2188 
Q 3044 2119 3236 1894 
Q 3428 1669 3622 1275 
L 4263 0 
L 3584 0 
L 2988 1197 
Q 2756 1666 2539 1819 
Q 2322 1972 1947 1972 
L 1259 1972 
L 1259 0 
L 628 0 
L 628 4666 
L 2053 4666 
Q 2853 4666 3247 4331 
Q 3641 3997 3641 3322 
Q 3641 2881 3436 2590 
Q 3231 2300 2841 2188 
z
M 1259 4147 
L 1259 2491 
L 2053 2491 
Q 2509 2491 2742 2702 
Q 2975 2913 2975 3322 
Q 2975 3731 2742 3939 
Q 2509 4147 2053 4147 
L 1259 4147 
z
" transform="scale(0.015625)"/>
     </defs>
     <use xlink:href="#DejaVuSans-54"/>
     <use xlink:href="#DejaVuSans-49" x="61.083984"/>
     <use xlink:href="#DejaVuSans-4d" x="90.576172"/>
     <use xlink:href="#DejaVuSans-45" x="176.855469"/>
     <use xlink:href="#DejaVuSans-20" x="240.039062"/>
     <use xlink:href="#DejaVuSans-53" x="271.826172"/>
     <use xlink:href="#DejaVuSans-45" x="335.302734"/>
     <use xlink:href="#DejaVuSans-52" x="398.486328"/>
     <use xlink:href="#DejaVuSans-49" x="467.96875"/>
     <use xlink:href="#DejaVuSans-45" x="497.460938"/>
     <use xlink:href="#DejaVuSans-53" x="560.644531"/>
    </g>
   </g>
  </g>
 </g>
 <defs>
  <clipPath id="pf9a16071ee">
   <rect x="108" y="43.2" width="669.6" height="277.2"/>
  </clipPath>
 </defs>
</svg>
