<?xml version="1.0" encoding="utf-8" standalone="no"?>
<!DOCTYPE svg PUBLIC "-//W3C//DTD SVG 1.1//EN"
  "http://www.w3.org/Graphics/SVG/1.1/DTD/svg11.dtd">
<svg xmlns:xlink="http://www.w3.org/1999/xlink" width="504pt" height="504pt" viewBox="0 0 504 504" xmlns="http://www.w3.org/2000/svg" version="1.1">
 <metadata>
  <rdf:RDF xmlns:dc="http://purl.org/dc/elements/1.1/" xmlns:cc="http://creativecommons.org/ns#" xmlns:rdf="http://www.w3.org/1999/02/22-rdf-syntax-ns#">
   <cc:Work>
    <dc:type rdf:resource="http://purl.org/dc/dcmitype/StillImage"/>
    <dc:date>2023-11-28T18:44:29.349397</dc:date>
    <dc:format>image/svg+xml</dc:format>
    <dc:creator>
     <cc:Agent>
      <dc:title>Matplotlib v3.7.4, https://matplotlib.org/</dc:title>
     </cc:Agent>
    </dc:creator>
   </cc:Work>
  </rdf:RDF>
 </metadata>
 <defs>
  <style type="text/css">*{stroke-linejoin: round; stroke-linecap: butt}</style>
 </defs>
 <g id="figure_1">
  <g id="patch_1">
   <path d="M 0 504 
L 504 504 
L 504 0 
L 0 0 
z
" style="fill: #ffffff"/>
  </g>
  <g id="axes_1">
   <g id="patch_2">
    <path d="M 59.254 162.613333 
L 269.077 162.613333 
L 269.077 79.56 
L 59.254 79.56 
z
" style="fill: #ffffff"/>
   </g>
   <g id="matplotlib.axis_1">
    <g id="xtick_1">
     <g id="line2d_1">
      <defs>
       <path id="ma1d239e76e" d="M 0 0 
L 0 3.5 
" style="stroke: #000000; stroke-width: 0.8"/>
      </defs>
      <g>
       <use xlink:href="#ma1d239e76e" x="60.49801" y="162.613333" style="stroke: #000000; stroke-width: 0.8"/>
      </g>
     </g>
    </g>
    <g id="xtick_2">
     <g id="line2d_2">
      <g>
       <use xlink:href="#ma1d239e76e" x="143.432002" y="162.613333" style="stroke: #000000; stroke-width: 0.8"/>
      </g>
     </g>
    </g>
    <g id="xtick_3">
     <g id="line2d_3">
      <g>
       <use xlink:href="#ma1d239e76e" x="226.365994" y="162.613333" style="stroke: #000000; stroke-width: 0.8"/>
      </g>
     </g>
    </g>
   </g>
   <g id="matplotlib.axis_2">
    <g id="ytick_1">
     <g id="line2d_4">
      <defs>
       <path id="m19c406ceee" d="M 0 0 
L -3.5 0 
" style="stroke: #000000; stroke-width: 0.8"/>
      </defs>
      <g>
       <use xlink:href="#m19c406ceee" x="59.254" y="158.838216" style="stroke: #000000; stroke-width: 0.8"/>
      </g>
     </g>
     <g id="text_1">
      <!-- 0 -->
      <g transform="translate(43.3465 164.157122) scale(0.14 -0.14)">
       <defs>
        <path id="DejaVuSans-30" d="M 2034 4250 
Q 1547 4250 1301 3770 
Q 1056 3291 1056 2328 
Q 1056 1369 1301 889 
Q 1547 409 2034 409 
Q 2525 409 2770 889 
Q 3016 1369 3016 2328 
Q 3016 3291 2770 3770 
Q 2525 4250 2034 4250 
z
M 2034 4750 
Q 2819 4750 3233 4129 
Q 3647 3509 3647 2328 
Q 3647 1150 3233 529 
Q 2819 -91 2034 -91 
Q 1250 -91 836 529 
Q 422 1150 422 2328 
Q 422 3509 836 4129 
Q 1250 4750 2034 4750 
z
" transform="scale(0.015625)"/>
       </defs>
       <use xlink:href="#DejaVuSans-30"/>
      </g>
     </g>
    </g>
    <g id="ytick_2">
     <g id="line2d_5">
      <g>
       <use xlink:href="#m19c406ceee" x="59.254" y="82.220827" style="stroke: #000000; stroke-width: 0.8"/>
      </g>
     </g>
     <g id="text_2">
      <!-- 2 -->
      <g transform="translate(43.3465 87.539733) scale(0.14 -0.14)">
       <defs>
        <path id="DejaVuSans-32" d="M 1228 531 
L 3431 531 
L 3431 0 
L 469 0 
L 469 531 
Q 828 903 1448 1529 
Q 2069 2156 2228 2338 
Q 2531 2678 2651 2914 
Q 2772 3150 2772 3378 
Q 2772 3750 2511 3984 
Q 2250 4219 1831 4219 
Q 1534 4219 1204 4116 
Q 875 4013 500 3803 
L 500 4441 
Q 881 4594 1212 4672 
Q 1544 4750 1819 4750 
Q 2544 4750 2975 4387 
Q 3406 4025 3406 3419 
Q 3406 3131 3298 2873 
Q 3191 2616 2906 2266 
Q 2828 2175 2409 1742 
Q 1991 1309 1228 531 
z
" transform="scale(0.015625)"/>
       </defs>
       <use xlink:href="#DejaVuSans-32"/>
      </g>
     </g>
    </g>
    <g id="text_3">
     <!-- 1e1 -->
     <g transform="translate(59.254 76.56) scale(0.1 -0.1)">
      <defs>
       <path id="DejaVuSans-31" d="M 794 531 
L 1825 531 
L 1825 4091 
L 703 3866 
L 703 4441 
L 1819 4666 
L 2450 4666 
L 2450 531 
L 3481 531 
L 3481 0 
L 794 0 
L 794 531 
z
" transform="scale(0.015625)"/>
       <path id="DejaVuSans-65" d="M 3597 1894 
L 3597 1613 
L 953 1613 
Q 991 1019 1311 708 
Q 1631 397 2203 397 
Q 2534 397 2845 478 
Q 3156 559 3463 722 
L 3463 178 
Q 3153 47 2828 -22 
Q 2503 -91 2169 -91 
Q 1331 -91 842 396 
Q 353 884 353 1716 
Q 353 2575 817 3079 
Q 1281 3584 2069 3584 
Q 2775 3584 3186 3129 
Q 3597 2675 3597 1894 
z
M 3022 2063 
Q 3016 2534 2758 2815 
Q 2500 3097 2075 3097 
Q 1594 3097 1305 2825 
Q 1016 2553 972 2059 
L 3022 2063 
z
" transform="scale(0.015625)"/>
      </defs>
      <use xlink:href="#DejaVuSans-31"/>
      <use xlink:href="#DejaVuSans-65" x="63.623047"/>
      <use xlink:href="#DejaVuSans-31" x="125.146484"/>
     </g>
    </g>
   </g>
   <g id="line2d_6">
    <path d="M 68.791409 156.283986 
L 226.365994 156.283986 
" clip-path="url(#p606082b6cd)" style="fill: none; stroke-dasharray: 7.4,3.2; stroke-dashoffset: 0; stroke: #696969; stroke-width: 2"/>
   </g>
   <g id="line2d_7">
    <path d="M 226.365994 158.726421 
L 184.898998 158.203525 
L 160.0188 148.332087 
L 143.432002 157.51606 
L 131.584289 158.635154 
L 122.698504 158.13146 
L 115.787338 158.30394 
L 110.258405 150.451165 
L 105.734733 158.627348 
L 101.965006 158.548512 
L 98.775237 158.576432 
L 96.041149 157.912216 
L 93.671607 150.602811 
L 91.598257 157.71054 
L 89.768831 158.487578 
L 88.142674 158.349968 
L 86.687692 158.371767 
L 85.378208 158.030093 
L 84.193436 158.773459 
L 83.116371 158.50241 
L 82.132964 158.669072 
L 81.231508 158.676467 
L 80.402168 158.136688 
L 79.636623 158.76077 
L 78.927786 158.809621 
L 78.26958 158.783294 
L 77.656767 158.570142 
L 77.084808 158.813395 
L 76.54975 158.732882 
L 76.048133 158.756316 
L 75.576918 158.807837 
L 75.13342 158.820882 
L 74.715266 158.702354 
L 74.320342 158.796522 
L 73.946765 158.836136 
L 73.592851 158.833459 
L 73.257086 158.832297 
L 72.938109 158.837494 
L 72.634692 158.831774 
L 72.345723 158.830753 
L 72.070195 158.804269 
L 71.807191 158.816085 
L 71.555875 158.818073 
L 71.315487 158.829915 
L 71.085328 158.797062 
L 70.864759 158.744353 
L 70.653193 158.823847 
L 70.450089 158.8259 
L 70.25495 158.82753 
L 70.067317 158.68869 
L 69.886764 158.814788 
L 69.712898 158.575138 
L 69.545354 158.817591 
L 69.383795 158.7641 
L 69.227904 158.619321 
L 69.077388 158.831135 
L 68.931975 158.738427 
L 68.791409 158.8231 
" clip-path="url(#p606082b6cd)" style="fill: none; stroke: #191970; stroke-width: 2; stroke-linecap: square"/>
   </g>
   <g id="patch_3">
    <path d="M 59.254 162.613333 
L 59.254 79.56 
" style="fill: none; stroke: #000000; stroke-width: 0.8; stroke-linejoin: miter; stroke-linecap: square"/>
   </g>
   <g id="patch_4">
    <path d="M 59.254 162.613333 
L 269.077 162.613333 
" style="fill: none; stroke: #000000; stroke-width: 0.8; stroke-linejoin: miter; stroke-linecap: square"/>
   </g>
   <g id="text_4">
    <!-- 1 CONTROL DL -->
    <g transform="translate(111.786906 47.284625) scale(0.14 -0.14)">
     <defs>
      <path id="DejaVuSans-20" transform="scale(0.015625)"/>
      <path id="DejaVuSans-43" d="M 4122 4306 
L 4122 3641 
Q 3803 3938 3442 4084 
Q 3081 4231 2675 4231 
Q 1875 4231 1450 3742 
Q 1025 3253 1025 2328 
Q 1025 1406 1450 917 
Q 1875 428 2675 428 
Q 3081 428 3442 575 
Q 3803 722 4122 1019 
L 4122 359 
Q 3791 134 3420 21 
Q 3050 -91 2638 -91 
Q 1578 -91 968 557 
Q 359 1206 359 2328 
Q 359 3453 968 4101 
Q 1578 4750 2638 4750 
Q 3056 4750 3426 4639 
Q 3797 4528 4122 4306 
z
" transform="scale(0.015625)"/>
      <path id="DejaVuSans-4f" d="M 2522 4238 
Q 1834 4238 1429 3725 
Q 1025 3213 1025 2328 
Q 1025 1447 1429 934 
Q 1834 422 2522 422 
Q 3209 422 3611 934 
Q 4013 1447 4013 2328 
Q 4013 3213 3611 3725 
Q 3209 4238 2522 4238 
z
M 2522 4750 
Q 3503 4750 4090 4092 
Q 4678 3434 4678 2328 
Q 4678 1225 4090 567 
Q 3503 -91 2522 -91 
Q 1538 -91 948 565 
Q 359 1222 359 2328 
Q 359 3434 948 4092 
Q 1538 4750 2522 4750 
z
" transform="scale(0.015625)"/>
      <path id="DejaVuSans-4e" d="M 628 4666 
L 1478 4666 
L 3547 763 
L 3547 4666 
L 4159 4666 
L 4159 0 
L 3309 0 
L 1241 3903 
L 1241 0 
L 628 0 
L 628 4666 
z
" transform="scale(0.015625)"/>
      <path id="DejaVuSans-54" d="M -19 4666 
L 3928 4666 
L 3928 4134 
L 2272 4134 
L 2272 0 
L 1638 0 
L 1638 4134 
L -19 4134 
L -19 4666 
z
" transform="scale(0.015625)"/>
      <path id="DejaVuSans-52" d="M 2841 2188 
Q 3044 2119 3236 1894 
Q 3428 1669 3622 1275 
L 4263 0 
L 3584 0 
L 2988 1197 
Q 2756 1666 2539 1819 
Q 2322 1972 1947 1972 
L 1259 1972 
L 1259 0 
L 628 0 
L 628 4666 
L 2053 4666 
Q 2853 4666 3247 4331 
Q 3641 3997 3641 3322 
Q 3641 2881 3436 2590 
Q 3231 2300 2841 2188 
z
M 1259 4147 
L 1259 2491 
L 2053 2491 
Q 2509 2491 2742 2702 
Q 2975 2913 2975 3322 
Q 2975 3731 2742 3939 
Q 2509 4147 2053 4147 
L 1259 4147 
z
" transform="scale(0.015625)"/>
      <path id="DejaVuSans-4c" d="M 628 4666 
L 1259 4666 
L 1259 531 
L 3531 531 
L 3531 0 
L 628 0 
L 628 4666 
z
" transform="scale(0.015625)"/>
      <path id="DejaVuSans-44" d="M 1259 4147 
L 1259 519 
L 2022 519 
Q 2988 519 3436 956 
Q 3884 1394 3884 2338 
Q 3884 3275 3436 3711 
Q 2988 4147 2022 4147 
L 1259 4147 
z
M 628 4666 
L 1925 4666 
Q 3281 4666 3915 4102 
Q 4550 3538 4550 2338 
Q 4550 1131 3912 565 
Q 3275 0 1925 0 
L 628 0 
L 628 4666 
z
" transform="scale(0.015625)"/>
     </defs>
     <use xlink:href="#DejaVuSans-31"/>
     <use xlink:href="#DejaVuSans-20" x="63.623047"/>
     <use xlink:href="#DejaVuSans-43" x="95.410156"/>
     <use xlink:href="#DejaVuSans-4f" x="165.234375"/>
     <use xlink:href="#DejaVuSans-4e" x="243.945312"/>
     <use xlink:href="#DejaVuSans-54" x="318.75"/>
     <use xlink:href="#DejaVuSans-52" x="379.833984"/>
     <use xlink:href="#DejaVuSans-4f" x="449.316406"/>
     <use xlink:href="#DejaVuSans-4c" x="528.027344"/>
     <use xlink:href="#DejaVuSans-20" x="583.740234"/>
     <use xlink:href="#DejaVuSans-44" x="615.527344"/>
     <use xlink:href="#DejaVuSans-4c" x="692.529297"/>
    </g>
    <!-- (PEAK ON 24.00 HOURS) -->
    <g transform="translate(78.014094 62.961563) scale(0.14 -0.14)">
     <defs>
      <path id="DejaVuSans-28" d="M 1984 4856 
Q 1566 4138 1362 3434 
Q 1159 2731 1159 2009 
Q 1159 1288 1364 580 
Q 1569 -128 1984 -844 
L 1484 -844 
Q 1016 -109 783 600 
Q 550 1309 550 2009 
Q 550 2706 781 3412 
Q 1013 4119 1484 4856 
L 1984 4856 
z
" transform="scale(0.015625)"/>
      <path id="DejaVuSans-50" d="M 1259 4147 
L 1259 2394 
L 2053 2394 
Q 2494 2394 2734 2622 
Q 2975 2850 2975 3272 
Q 2975 3691 2734 3919 
Q 2494 4147 2053 4147 
L 1259 4147 
z
M 628 4666 
L 2053 4666 
Q 2838 4666 3239 4311 
Q 3641 3956 3641 3272 
Q 3641 2581 3239 2228 
Q 2838 1875 2053 1875 
L 1259 1875 
L 1259 0 
L 628 0 
L 628 4666 
z
" transform="scale(0.015625)"/>
      <path id="DejaVuSans-45" d="M 628 4666 
L 3578 4666 
L 3578 4134 
L 1259 4134 
L 1259 2753 
L 3481 2753 
L 3481 2222 
L 1259 2222 
L 1259 531 
L 3634 531 
L 3634 0 
L 628 0 
L 628 4666 
z
" transform="scale(0.015625)"/>
      <path id="DejaVuSans-41" d="M 2188 4044 
L 1331 1722 
L 3047 1722 
L 2188 4044 
z
M 1831 4666 
L 2547 4666 
L 4325 0 
L 3669 0 
L 3244 1197 
L 1141 1197 
L 716 0 
L 50 0 
L 1831 4666 
z
" transform="scale(0.015625)"/>
      <path id="DejaVuSans-4b" d="M 628 4666 
L 1259 4666 
L 1259 2694 
L 3353 4666 
L 4166 4666 
L 1850 2491 
L 4331 0 
L 3500 0 
L 1259 2247 
L 1259 0 
L 628 0 
L 628 4666 
z
" transform="scale(0.015625)"/>
      <path id="DejaVuSans-34" d="M 2419 4116 
L 825 1625 
L 2419 1625 
L 2419 4116 
z
M 2253 4666 
L 3047 4666 
L 3047 1625 
L 3713 1625 
L 3713 1100 
L 3047 1100 
L 3047 0 
L 2419 0 
L 2419 1100 
L 313 1100 
L 313 1709 
L 2253 4666 
z
" transform="scale(0.015625)"/>
      <path id="DejaVuSans-2e" d="M 684 794 
L 1344 794 
L 1344 0 
L 684 0 
L 684 794 
z
" transform="scale(0.015625)"/>
      <path id="DejaVuSans-48" d="M 628 4666 
L 1259 4666 
L 1259 2753 
L 3553 2753 
L 3553 4666 
L 4184 4666 
L 4184 0 
L 3553 0 
L 3553 2222 
L 1259 2222 
L 1259 0 
L 628 0 
L 628 4666 
z
" transform="scale(0.015625)"/>
      <path id="DejaVuSans-55" d="M 556 4666 
L 1191 4666 
L 1191 1831 
Q 1191 1081 1462 751 
Q 1734 422 2344 422 
Q 2950 422 3222 751 
Q 3494 1081 3494 1831 
L 3494 4666 
L 4128 4666 
L 4128 1753 
Q 4128 841 3676 375 
Q 3225 -91 2344 -91 
Q 1459 -91 1007 375 
Q 556 841 556 1753 
L 556 4666 
z
" transform="scale(0.015625)"/>
      <path id="DejaVuSans-53" d="M 3425 4513 
L 3425 3897 
Q 3066 4069 2747 4153 
Q 2428 4238 2131 4238 
Q 1616 4238 1336 4038 
Q 1056 3838 1056 3469 
Q 1056 3159 1242 3001 
Q 1428 2844 1947 2747 
L 2328 2669 
Q 3034 2534 3370 2195 
Q 3706 1856 3706 1288 
Q 3706 609 3251 259 
Q 2797 -91 1919 -91 
Q 1588 -91 1214 -16 
Q 841 59 441 206 
L 441 856 
Q 825 641 1194 531 
Q 1563 422 1919 422 
Q 2459 422 2753 634 
Q 3047 847 3047 1241 
Q 3047 1584 2836 1778 
Q 2625 1972 2144 2069 
L 1759 2144 
Q 1053 2284 737 2584 
Q 422 2884 422 3419 
Q 422 4038 858 4394 
Q 1294 4750 2059 4750 
Q 2388 4750 2728 4690 
Q 3069 4631 3425 4513 
z
" transform="scale(0.015625)"/>
      <path id="DejaVuSans-29" d="M 513 4856 
L 1013 4856 
Q 1481 4119 1714 3412 
Q 1947 2706 1947 2009 
Q 1947 1309 1714 600 
Q 1481 -109 1013 -844 
L 513 -844 
Q 928 -128 1133 580 
Q 1338 1288 1338 2009 
Q 1338 2731 1133 3434 
Q 928 4138 513 4856 
z
" transform="scale(0.015625)"/>
     </defs>
     <use xlink:href="#DejaVuSans-28"/>
     <use xlink:href="#DejaVuSans-50" x="39.013672"/>
     <use xlink:href="#DejaVuSans-45" x="99.316406"/>
     <use xlink:href="#DejaVuSans-41" x="162.5"/>
     <use xlink:href="#DejaVuSans-4b" x="230.908203"/>
     <use xlink:href="#DejaVuSans-20" x="296.484375"/>
     <use xlink:href="#DejaVuSans-4f" x="328.271484"/>
     <use xlink:href="#DejaVuSans-4e" x="406.982422"/>
     <use xlink:href="#DejaVuSans-20" x="481.787109"/>
     <use xlink:href="#DejaVuSans-32" x="513.574219"/>
     <use xlink:href="#DejaVuSans-34" x="577.197266"/>
     <use xlink:href="#DejaVuSans-2e" x="640.820312"/>
     <use xlink:href="#DejaVuSans-30" x="672.607422"/>
     <use xlink:href="#DejaVuSans-30" x="736.230469"/>
     <use xlink:href="#DejaVuSans-20" x="799.853516"/>
     <use xlink:href="#DejaVuSans-48" x="831.640625"/>
     <use xlink:href="#DejaVuSans-4f" x="906.835938"/>
     <use xlink:href="#DejaVuSans-55" x="985.546875"/>
     <use xlink:href="#DejaVuSans-52" x="1058.740234"/>
     <use xlink:href="#DejaVuSans-53" x="1128.222656"/>
     <use xlink:href="#DejaVuSans-29" x="1191.699219"/>
    </g>
   </g>
  </g>
  <g id="axes_2">
   <g id="patch_5">
    <path d="M 283.377 162.613333 
L 493.2 162.613333 
L 493.2 79.56 
L 283.377 79.56 
z
" style="fill: #ffffff"/>
   </g>
   <g id="matplotlib.axis_3">
    <g id="xtick_4">
     <g id="line2d_8">
      <g>
       <use xlink:href="#ma1d239e76e" x="284.62101" y="162.613333" style="stroke: #000000; stroke-width: 0.8"/>
      </g>
     </g>
    </g>
    <g id="xtick_5">
     <g id="line2d_9">
      <g>
       <use xlink:href="#ma1d239e76e" x="367.555002" y="162.613333" style="stroke: #000000; stroke-width: 0.8"/>
      </g>
     </g>
    </g>
    <g id="xtick_6">
     <g id="line2d_10">
      <g>
       <use xlink:href="#ma1d239e76e" x="450.488994" y="162.613333" style="stroke: #000000; stroke-width: 0.8"/>
      </g>
     </g>
    </g>
   </g>
   <g id="matplotlib.axis_4">
    <g id="ytick_3">
     <g id="line2d_11">
      <g>
       <use xlink:href="#m19c406ceee" x="283.377" y="158.838216" style="stroke: #000000; stroke-width: 0.8"/>
      </g>
     </g>
    </g>
    <g id="ytick_4">
     <g id="line2d_12">
      <g>
       <use xlink:href="#m19c406ceee" x="283.377" y="82.220827" style="stroke: #000000; stroke-width: 0.8"/>
      </g>
     </g>
    </g>
   </g>
   <g id="line2d_13">
    <path d="M 292.914409 155.810086 
L 471.222492 155.810086 
" clip-path="url(#p7f70b85c6a)" style="fill: none; stroke-dasharray: 7.4,3.2; stroke-dashoffset: 0; stroke: #696969; stroke-width: 2"/>
   </g>
   <g id="line2d_14">
    <path d="M 471.222492 158.72762 
L 450.488994 155.217152 
L 433.902196 158.246242 
L 420.331179 158.643933 
L 409.021998 158.490989 
L 399.452691 157.557228 
L 391.250428 152.85073 
L 384.1418 127.288871 
L 377.921751 157.913904 
L 372.433472 158.134994 
L 363.190055 157.564418 
L 355.707289 158.670963 
L 352.476094 157.888645 
L 349.525873 158.668845 
L 346.821504 157.512758 
L 344.333484 158.564841 
L 342.036851 158.129473 
L 339.910338 157.312143 
L 337.935719 158.58871 
L 336.097281 157.300418 
L 334.381405 153.638081 
L 332.776231 157.727035 
L 331.27138 158.306271 
L 329.857733 153.866158 
L 328.527241 156.045851 
L 324.967276 158.732514 
L 323.905532 158.747932 
L 322.898237 157.641689 
L 321.941306 158.479677 
L 321.031055 158.208838 
L 320.164149 158.38139 
L 319.337565 158.77693 
L 318.548552 157.675568 
L 317.794607 145.082692 
L 317.073442 158.642631 
L 316.382964 158.476268 
L 315.721257 158.714433 
L 315.086558 158.196781 
L 314.477247 157.482712 
L 313.891831 158.241269 
L 313.32893 158.374811 
L 312.787271 158.325895 
L 312.265674 158.812363 
L 311.763044 158.735377 
L 311.278364 158.811174 
L 310.359145 158.166576 
L 309.922906 158.50547 
L 309.501208 155.685878 
L 308.69862 158.22348 
L 308.316436 158.57702 
L 307.946195 158.611124 
L 307.587346 157.609717 
L 307.239371 158.796504 
L 306.901784 158.477393 
L 305.946894 158.767716 
L 305.646529 158.315913 
L 305.070487 158.83011 
L 304.794143 158.821077 
L 304.525168 157.256142 
L 304.263271 158.070298 
L 304.008177 158.417142 
L 303.759623 158.407027 
L 303.517363 158.587451 
L 303.050786 158.297106 
L 302.826033 158.819741 
L 302.606695 158.703716 
L 302.39258 158.822125 
L 301.584781 158.65941 
L 301.394177 158.748793 
L 301.207808 158.483955 
L 300.847226 158.771576 
L 300.67275 158.657122 
L 300.334819 158.802812 
L 300.171133 158.697565 
L 300.010823 158.820696 
L 299.549128 158.786187 
L 298.97497 158.801361 
L 298.704141 158.787716 
L 294.37795 158.671427 
L 294.314593 158.504516 
L 294.190317 158.785032 
L 294.129366 158.713529 
L 294.069186 158.800242 
L 293.951084 158.828581 
L 293.893133 158.639377 
L 293.835898 158.766242 
L 293.779365 158.804504 
L 293.613852 158.627157 
L 293.560003 158.805392 
L 293.506795 158.704644 
L 293.454216 158.684631 
L 293.300149 158.766095 
L 293.200388 158.735886 
L 293.151363 158.674541 
L 293.102895 158.796268 
L 293.007593 158.753348 
L 292.914409 158.832621 
L 292.914409 158.832621 
" clip-path="url(#p7f70b85c6a)" style="fill: none; stroke: #191970; stroke-width: 2; stroke-linecap: square"/>
   </g>
   <g id="patch_6">
    <path d="M 283.377 162.613333 
L 283.377 79.56 
" style="fill: none; stroke: #000000; stroke-width: 0.8; stroke-linejoin: miter; stroke-linecap: square"/>
   </g>
   <g id="patch_7">
    <path d="M 283.377 162.613333 
L 493.2 162.613333 
" style="fill: none; stroke: #000000; stroke-width: 0.8; stroke-linejoin: miter; stroke-linecap: square"/>
   </g>
   <g id="text_5">
    <!-- 2 CONTROL DD -->
    <g transform="translate(334.420219 57.883063) scale(0.14 -0.14)">
     <use xlink:href="#DejaVuSans-32"/>
     <use xlink:href="#DejaVuSans-20" x="63.623047"/>
     <use xlink:href="#DejaVuSans-43" x="95.410156"/>
     <use xlink:href="#DejaVuSans-4f" x="165.234375"/>
     <use xlink:href="#DejaVuSans-4e" x="243.945312"/>
     <use xlink:href="#DejaVuSans-54" x="318.75"/>
     <use xlink:href="#DejaVuSans-52" x="379.833984"/>
     <use xlink:href="#DejaVuSans-4f" x="449.316406"/>
     <use xlink:href="#DejaVuSans-4c" x="528.027344"/>
     <use xlink:href="#DejaVuSans-20" x="583.740234"/>
     <use xlink:href="#DejaVuSans-44" x="615.527344"/>
     <use xlink:href="#DejaVuSans-44" x="692.529297"/>
    </g>
    <!-- (PEAK ON 24.00 HOURS) -->
    <g transform="translate(302.137094 73.56) scale(0.14 -0.14)">
     <use xlink:href="#DejaVuSans-28"/>
     <use xlink:href="#DejaVuSans-50" x="39.013672"/>
     <use xlink:href="#DejaVuSans-45" x="99.316406"/>
     <use xlink:href="#DejaVuSans-41" x="162.5"/>
     <use xlink:href="#DejaVuSans-4b" x="230.908203"/>
     <use xlink:href="#DejaVuSans-20" x="296.484375"/>
     <use xlink:href="#DejaVuSans-4f" x="328.271484"/>
     <use xlink:href="#DejaVuSans-4e" x="406.982422"/>
     <use xlink:href="#DejaVuSans-20" x="481.787109"/>
     <use xlink:href="#DejaVuSans-32" x="513.574219"/>
     <use xlink:href="#DejaVuSans-34" x="577.197266"/>
     <use xlink:href="#DejaVuSans-2e" x="640.820312"/>
     <use xlink:href="#DejaVuSans-30" x="672.607422"/>
     <use xlink:href="#DejaVuSans-30" x="736.230469"/>
     <use xlink:href="#DejaVuSans-20" x="799.853516"/>
     <use xlink:href="#DejaVuSans-48" x="831.640625"/>
     <use xlink:href="#DejaVuSans-4f" x="906.835938"/>
     <use xlink:href="#DejaVuSans-55" x="985.546875"/>
     <use xlink:href="#DejaVuSans-52" x="1058.740234"/>
     <use xlink:href="#DejaVuSans-53" x="1128.222656"/>
     <use xlink:href="#DejaVuSans-29" x="1191.699219"/>
    </g>
   </g>
  </g>
  <g id="axes_3">
   <g id="patch_8">
    <path d="M 59.254 303.526667 
L 269.077 303.526667 
L 269.077 220.473333 
L 59.254 220.473333 
z
" style="fill: #ffffff"/>
   </g>
   <g id="matplotlib.axis_5">
    <g id="xtick_7">
     <g id="line2d_15">
      <g>
       <use xlink:href="#ma1d239e76e" x="60.49801" y="303.526667" style="stroke: #000000; stroke-width: 0.8"/>
      </g>
     </g>
    </g>
    <g id="xtick_8">
     <g id="line2d_16">
      <g>
       <use xlink:href="#ma1d239e76e" x="143.432002" y="303.526667" style="stroke: #000000; stroke-width: 0.8"/>
      </g>
     </g>
    </g>
    <g id="xtick_9">
     <g id="line2d_17">
      <g>
       <use xlink:href="#ma1d239e76e" x="226.365994" y="303.526667" style="stroke: #000000; stroke-width: 0.8"/>
      </g>
     </g>
    </g>
   </g>
   <g id="matplotlib.axis_6">
    <g id="ytick_5">
     <g id="line2d_18">
      <g>
       <use xlink:href="#m19c406ceee" x="59.254" y="299.751549" style="stroke: #000000; stroke-width: 0.8"/>
      </g>
     </g>
     <g id="text_6">
      <!-- 0 -->
      <g transform="translate(43.3465 305.070455) scale(0.14 -0.14)">
       <use xlink:href="#DejaVuSans-30"/>
      </g>
     </g>
    </g>
    <g id="ytick_6">
     <g id="line2d_19">
      <g>
       <use xlink:href="#m19c406ceee" x="59.254" y="223.13416" style="stroke: #000000; stroke-width: 0.8"/>
      </g>
     </g>
     <g id="text_7">
      <!-- 2 -->
      <g transform="translate(43.3465 228.453066) scale(0.14 -0.14)">
       <use xlink:href="#DejaVuSans-32"/>
      </g>
     </g>
    </g>
    <g id="text_8">
     <!-- 1e1 -->
     <g transform="translate(59.254 217.473333) scale(0.1 -0.1)">
      <use xlink:href="#DejaVuSans-31"/>
      <use xlink:href="#DejaVuSans-65" x="63.623047"/>
      <use xlink:href="#DejaVuSans-31" x="125.146484"/>
     </g>
    </g>
   </g>
   <g id="line2d_20">
    <path d="M 68.791409 296.26205 
L 251.246192 296.26205 
" clip-path="url(#p9b55b135ee)" style="fill: none; stroke-dasharray: 7.4,3.2; stroke-dashoffset: 0; stroke: #696969; stroke-width: 2"/>
   </g>
   <g id="line2d_21">
    <path d="M 251.246192 298.265488 
L 236.573255 299.367775 
L 223.996451 295.706072 
L 213.096555 299.61167 
L 203.559146 298.496891 
L 195.143785 297.346434 
L 187.663464 299.62716 
L 180.970546 299.35951 
L 174.946919 298.948723 
L 169.496971 299.348292 
L 164.542473 293.024262 
L 160.0188 224.248485 
L 155.872101 297.024368 
L 152.057137 296.493366 
L 148.535632 299.466845 
L 145.27498 297.964706 
L 142.247231 299.327505 
L 139.428292 298.221256 
L 136.797283 298.566189 
L 134.336016 299.423986 
L 132.028578 298.853188 
L 127.820898 299.598233 
L 125.897387 299.333982 
L 124.080737 298.729285 
L 122.362285 297.010922 
L 120.734278 299.467857 
L 119.189758 299.677936 
L 117.722464 299.440624 
L 116.326746 298.923977 
L 114.99749 299.166214 
L 113.730061 299.277156 
L 112.520241 299.250019 
L 111.364192 299.536009 
L 110.258405 292.069579 
L 109.199673 293.130273 
L 108.185055 299.192495 
L 107.21185 299.746036 
L 105.379935 299.589421 
L 104.516821 299.542718 
L 103.686277 298.584914 
L 102.886495 298.614264 
L 102.115795 299.118599 
L 101.37262 297.884466 
L 100.655522 299.287546 
L 99.963151 299.602976 
L 99.29425 297.643918 
L 98.647646 298.799776 
L 98.022242 298.714189 
L 97.417013 299.22718 
L 96.830997 299.386109 
L 96.263294 298.769728 
L 95.713059 298.421432 
L 95.179497 299.259046 
L 94.661863 298.144856 
L 94.159454 298.330449 
L 93.671607 294.791575 
L 93.197698 287.9082 
L 92.737139 299.516296 
L 92.289374 299.627588 
L 91.853875 298.907827 
L 91.430147 299.747309 
L 91.017719 299.563568 
L 90.616144 299.691069 
L 90.224999 299.508766 
L 89.843884 299.687089 
L 89.472417 297.347806 
L 89.110237 299.495741 
L 88.757 299.720807 
L 88.07606 299.415105 
L 87.114035 299.484702 
L 86.808104 299.720105 
L 86.509126 299.263018 
L 86.216866 299.710207 
L 85.931101 299.721389 
L 85.651616 299.308187 
L 85.378208 299.549177 
L 85.110679 294.312378 
L 84.848842 299.592985 
L 84.341533 299.519072 
L 84.095723 298.569935 
L 83.619002 299.676573 
L 83.16116 299.545001 
L 82.938972 299.641321 
L 82.507415 299.262126 
L 82.297802 299.513043 
L 81.890329 299.455432 
L 81.692252 299.70262 
L 81.49781 299.667574 
L 81.306902 299.165925 
L 81.119435 299.696022 
L 80.754454 299.727066 
L 80.576766 299.042708 
L 80.402168 299.393358 
L 80.23058 294.857832 
L 80.061926 299.58186 
L 79.733121 299.715663 
L 79.572828 299.205951 
L 79.415185 299.725826 
L 78.957511 299.665445 
L 78.809835 299.257251 
L 78.664503 299.73121 
L 78.52146 299.54069 
L 78.242027 299.681501 
L 78.105534 299.596337 
L 77.838754 299.733837 
L 77.708372 299.603553 
L 77.579937 299.729756 
L 77.453404 299.588014 
L 77.20588 299.735495 
L 76.965479 299.699408 
L 76.731898 299.456681 
L 76.617575 299.723572 
L 76.50485 299.489802 
L 76.175943 299.719492 
L 75.757864 299.713515 
L 75.458652 299.689236 
L 75.077489 299.726181 
L 74.985214 299.539659 
L 74.804124 299.745576 
L 74.540821 299.707036 
L 73.883847 299.749625 
L 73.503568 299.744562 
L 71.502713 299.727481 
L 71.450059 299.674982 
L 71.397906 299.742315 
L 70.808722 299.696248 
L 70.716662 299.745337 
L 70.671246 299.617921 
L 70.626232 299.705449 
L 70.493548 299.744453 
L 70.407006 299.621684 
L 70.364295 299.701225 
L 70.156146 299.729482 
L 69.802799 299.726427 
L 69.617445 299.704232 
L 69.439331 299.703571 
L 69.301772 299.698985 
L 69.201349 299.648382 
L 69.168382 299.69168 
L 69.070962 299.751448 
L 69.038973 299.715708 
L 68.944424 299.726242 
L 68.913371 299.674196 
L 68.791409 299.749562 
L 68.791409 299.749562 
" clip-path="url(#p9b55b135ee)" style="fill: none; stroke: #191970; stroke-width: 2; stroke-linecap: square"/>
   </g>
   <g id="patch_9">
    <path d="M 59.254 303.526667 
L 59.254 220.473333 
" style="fill: none; stroke: #000000; stroke-width: 0.8; stroke-linejoin: miter; stroke-linecap: square"/>
   </g>
   <g id="patch_10">
    <path d="M 59.254 303.526667 
L 269.077 303.526667 
" style="fill: none; stroke: #000000; stroke-width: 0.8; stroke-linejoin: miter; stroke-linecap: square"/>
   </g>
   <g id="text_9">
    <!-- 3 INDUCTION DD -->
    <g transform="translate(104.69175 188.197958) scale(0.14 -0.14)">
     <defs>
      <path id="DejaVuSans-33" d="M 2597 2516 
Q 3050 2419 3304 2112 
Q 3559 1806 3559 1356 
Q 3559 666 3084 287 
Q 2609 -91 1734 -91 
Q 1441 -91 1130 -33 
Q 819 25 488 141 
L 488 750 
Q 750 597 1062 519 
Q 1375 441 1716 441 
Q 2309 441 2620 675 
Q 2931 909 2931 1356 
Q 2931 1769 2642 2001 
Q 2353 2234 1838 2234 
L 1294 2234 
L 1294 2753 
L 1863 2753 
Q 2328 2753 2575 2939 
Q 2822 3125 2822 3475 
Q 2822 3834 2567 4026 
Q 2313 4219 1838 4219 
Q 1578 4219 1281 4162 
Q 984 4106 628 3988 
L 628 4550 
Q 988 4650 1302 4700 
Q 1616 4750 1894 4750 
Q 2613 4750 3031 4423 
Q 3450 4097 3450 3541 
Q 3450 3153 3228 2886 
Q 3006 2619 2597 2516 
z
" transform="scale(0.015625)"/>
      <path id="DejaVuSans-49" d="M 628 4666 
L 1259 4666 
L 1259 0 
L 628 0 
L 628 4666 
z
" transform="scale(0.015625)"/>
     </defs>
     <use xlink:href="#DejaVuSans-33"/>
     <use xlink:href="#DejaVuSans-20" x="63.623047"/>
     <use xlink:href="#DejaVuSans-49" x="95.410156"/>
     <use xlink:href="#DejaVuSans-4e" x="124.902344"/>
     <use xlink:href="#DejaVuSans-44" x="199.707031"/>
     <use xlink:href="#DejaVuSans-55" x="276.708984"/>
     <use xlink:href="#DejaVuSans-43" x="349.902344"/>
     <use xlink:href="#DejaVuSans-54" x="419.726562"/>
     <use xlink:href="#DejaVuSans-49" x="480.810547"/>
     <use xlink:href="#DejaVuSans-4f" x="510.302734"/>
     <use xlink:href="#DejaVuSans-4e" x="589.013672"/>
     <use xlink:href="#DejaVuSans-20" x="663.818359"/>
     <use xlink:href="#DejaVuSans-44" x="695.605469"/>
     <use xlink:href="#DejaVuSans-44" x="772.607422"/>
    </g>
    <!-- (PEAK ON 24.00 HOURS) -->
    <g transform="translate(78.014094 203.874896) scale(0.14 -0.14)">
     <use xlink:href="#DejaVuSans-28"/>
     <use xlink:href="#DejaVuSans-50" x="39.013672"/>
     <use xlink:href="#DejaVuSans-45" x="99.316406"/>
     <use xlink:href="#DejaVuSans-41" x="162.5"/>
     <use xlink:href="#DejaVuSans-4b" x="230.908203"/>
     <use xlink:href="#DejaVuSans-20" x="296.484375"/>
     <use xlink:href="#DejaVuSans-4f" x="328.271484"/>
     <use xlink:href="#DejaVuSans-4e" x="406.982422"/>
     <use xlink:href="#DejaVuSans-20" x="481.787109"/>
     <use xlink:href="#DejaVuSans-32" x="513.574219"/>
     <use xlink:href="#DejaVuSans-34" x="577.197266"/>
     <use xlink:href="#DejaVuSans-2e" x="640.820312"/>
     <use xlink:href="#DejaVuSans-30" x="672.607422"/>
     <use xlink:href="#DejaVuSans-30" x="736.230469"/>
     <use xlink:href="#DejaVuSans-20" x="799.853516"/>
     <use xlink:href="#DejaVuSans-48" x="831.640625"/>
     <use xlink:href="#DejaVuSans-4f" x="906.835938"/>
     <use xlink:href="#DejaVuSans-55" x="985.546875"/>
     <use xlink:href="#DejaVuSans-52" x="1058.740234"/>
     <use xlink:href="#DejaVuSans-53" x="1128.222656"/>
     <use xlink:href="#DejaVuSans-29" x="1191.699219"/>
    </g>
   </g>
  </g>
  <g id="axes_4">
   <g id="patch_11">
    <path d="M 283.377 303.526667 
L 493.2 303.526667 
L 493.2 220.473333 
L 283.377 220.473333 
z
" style="fill: #ffffff"/>
   </g>
   <g id="matplotlib.axis_7">
    <g id="xtick_10">
     <g id="line2d_22">
      <g>
       <use xlink:href="#ma1d239e76e" x="284.62101" y="303.526667" style="stroke: #000000; stroke-width: 0.8"/>
      </g>
     </g>
    </g>
    <g id="xtick_11">
     <g id="line2d_23">
      <g>
       <use xlink:href="#ma1d239e76e" x="367.555002" y="303.526667" style="stroke: #000000; stroke-width: 0.8"/>
      </g>
     </g>
    </g>
    <g id="xtick_12">
     <g id="line2d_24">
      <g>
       <use xlink:href="#ma1d239e76e" x="450.488994" y="303.526667" style="stroke: #000000; stroke-width: 0.8"/>
      </g>
     </g>
    </g>
   </g>
   <g id="matplotlib.axis_8">
    <g id="ytick_7">
     <g id="line2d_25">
      <g>
       <use xlink:href="#m19c406ceee" x="283.377" y="299.751549" style="stroke: #000000; stroke-width: 0.8"/>
      </g>
     </g>
    </g>
    <g id="ytick_8">
     <g id="line2d_26">
      <g>
       <use xlink:href="#m19c406ceee" x="283.377" y="223.13416" style="stroke: #000000; stroke-width: 0.8"/>
      </g>
     </g>
    </g>
   </g>
   <g id="line2d_27">
    <path d="M 292.914409 296.754819 
L 483.662591 296.754819 
" clip-path="url(#p0baa48bf42)" style="fill: none; stroke-dasharray: 7.4,3.2; stroke-dashoffset: 0; stroke: #696969; stroke-width: 2"/>
   </g>
   <g id="line2d_28">
    <path d="M 483.662591 298.918401 
L 465.567902 299.297175 
L 437.729918 299.329508 
L 426.793568 298.825195 
L 409.021998 298.841388 
L 401.704293 296.843349 
L 395.199666 299.512179 
L 389.379737 297.475741 
L 384.1418 270.74549 
L 379.402715 296.231346 
L 375.094456 299.402001 
L 371.160828 299.511917 
L 367.555002 299.355125 
L 364.237642 299.660526 
L 361.175464 299.324933 
L 358.340114 298.581543 
L 355.707289 299.287325 
L 353.256038 299.263554 
L 350.968204 299.639093 
L 348.827972 299.198841 
L 346.821504 299.741992 
L 344.93664 298.786795 
L 343.162651 299.576193 
L 341.490033 297.376672 
L 339.910338 299.378444 
L 338.416032 298.150292 
L 337.000373 297.7127 
L 335.657313 299.739396 
L 334.381405 272.05718 
L 333.167737 296.917736 
L 330.90975 299.742685 
L 329.857733 299.382242 
L 328.852472 299.325238 
L 327.890919 299.108144 
L 326.970282 299.37101 
L 325.241741 299.349738 
L 324.429326 299.59175 
L 321.480562 299.370936 
L 320.810388 299.331534 
L 320.164149 299.655037 
L 319.540586 298.172791 
L 318.938524 298.692549 
L 318.356871 298.664539 
L 317.794607 280.40926 
L 317.250777 299.473757 
L 316.724491 299.635929 
L 316.214912 299.034312 
L 315.721257 299.451007 
L 315.242792 299.652264 
L 314.328709 299.639227 
L 313.891831 299.511381 
L 313.467616 299.749485 
L 313.055521 299.519992 
L 312.655035 298.998573 
L 312.265674 299.679444 
L 311.88698 299.504143 
L 311.518521 299.068968 
L 311.159887 299.614302 
L 310.810692 299.289736 
L 310.470566 298.818199 
L 310.139161 299.740852 
L 309.816147 297.983522 
L 309.501208 290.171575 
L 309.194045 298.778239 
L 308.894373 299.242645 
L 308.601923 298.192934 
L 308.316436 299.42468 
L 307.76538 299.463174 
L 307.499353 299.670554 
L 307.239371 299.179779 
L 306.985232 299.023656 
L 306.736741 299.717452 
L 306.493711 299.693792 
L 306.255964 299.40404 
L 305.795646 299.655802 
L 305.572755 299.391779 
L 305.354508 299.524237 
L 304.931375 299.323028 
L 304.72622 299.751515 
L 304.525168 296.994274 
L 304.328097 299.335635 
L 304.13489 299.728407 
L 303.945435 299.634469 
L 303.759623 299.350111 
L 303.577351 299.598747 
L 303.398518 298.995267 
L 303.223027 299.687667 
L 303.050786 299.696552 
L 302.881705 299.562493 
L 302.715699 299.723992 
L 302.552684 299.700241 
L 302.39258 299.155834 
L 302.235309 299.692345 
L 302.080798 299.651135 
L 301.779767 299.341861 
L 301.633111 299.56817 
L 301.347193 299.533735 
L 301.070727 298.88575 
L 300.935894 299.724971 
L 300.803252 299.71562 
L 300.544336 299.390942 
L 300.293575 299.71159 
L 299.149592 299.748901 
L 298.737434 299.405611 
L 298.638023 299.732775 
L 298.540002 299.700996 
L 297.979505 299.739861 
L 296.983841 299.748444 
L 295.438487 299.742666 
L 295.380014 299.575384 
L 295.32217 299.6534 
L 295.15231 299.72865 
L 294.934045 299.743324 
L 294.523576 299.715031 
L 294.426014 299.74183 
L 294.37795 299.501029 
L 294.330355 299.71443 
L 294.283223 299.714105 
L 294.236545 299.353177 
L 294.190317 299.737553 
L 293.586847 299.72224 
L 293.546641 299.451026 
L 293.506795 299.727462 
L 293.274992 299.730538 
L 293.237529 299.591621 
L 293.163567 299.688545 
L 293.019389 299.692646 
L 292.984102 299.608409 
L 292.94911 299.742963 
L 292.914409 299.72036 
" clip-path="url(#p0baa48bf42)" style="fill: none; stroke: #191970; stroke-width: 2; stroke-linecap: square"/>
   </g>
   <g id="patch_12">
    <path d="M 283.377 303.526667 
L 283.377 220.473333 
" style="fill: none; stroke: #000000; stroke-width: 0.8; stroke-linejoin: miter; stroke-linecap: square"/>
   </g>
   <g id="patch_13">
    <path d="M 283.377 303.526667 
L 493.2 303.526667 
" style="fill: none; stroke: #000000; stroke-width: 0.8; stroke-linejoin: miter; stroke-linecap: square"/>
   </g>
   <g id="text_10">
    <!-- 4 HYPO DD -->
    <g transform="translate(349.334594 198.796396) scale(0.14 -0.14)">
     <defs>
      <path id="DejaVuSans-59" d="M -13 4666 
L 666 4666 
L 1959 2747 
L 3244 4666 
L 3922 4666 
L 2272 2222 
L 2272 0 
L 1638 0 
L 1638 2222 
L -13 4666 
z
" transform="scale(0.015625)"/>
     </defs>
     <use xlink:href="#DejaVuSans-34"/>
     <use xlink:href="#DejaVuSans-20" x="63.623047"/>
     <use xlink:href="#DejaVuSans-48" x="95.410156"/>
     <use xlink:href="#DejaVuSans-59" x="170.605469"/>
     <use xlink:href="#DejaVuSans-50" x="231.689453"/>
     <use xlink:href="#DejaVuSans-4f" x="291.992188"/>
     <use xlink:href="#DejaVuSans-20" x="370.703125"/>
     <use xlink:href="#DejaVuSans-44" x="402.490234"/>
     <use xlink:href="#DejaVuSans-44" x="479.492188"/>
    </g>
    <!-- (PEAK ON 24.00 HOURS) -->
    <g transform="translate(302.137094 214.473333) scale(0.14 -0.14)">
     <use xlink:href="#DejaVuSans-28"/>
     <use xlink:href="#DejaVuSans-50" x="39.013672"/>
     <use xlink:href="#DejaVuSans-45" x="99.316406"/>
     <use xlink:href="#DejaVuSans-41" x="162.5"/>
     <use xlink:href="#DejaVuSans-4b" x="230.908203"/>
     <use xlink:href="#DejaVuSans-20" x="296.484375"/>
     <use xlink:href="#DejaVuSans-4f" x="328.271484"/>
     <use xlink:href="#DejaVuSans-4e" x="406.982422"/>
     <use xlink:href="#DejaVuSans-20" x="481.787109"/>
     <use xlink:href="#DejaVuSans-32" x="513.574219"/>
     <use xlink:href="#DejaVuSans-34" x="577.197266"/>
     <use xlink:href="#DejaVuSans-2e" x="640.820312"/>
     <use xlink:href="#DejaVuSans-30" x="672.607422"/>
     <use xlink:href="#DejaVuSans-30" x="736.230469"/>
     <use xlink:href="#DejaVuSans-20" x="799.853516"/>
     <use xlink:href="#DejaVuSans-48" x="831.640625"/>
     <use xlink:href="#DejaVuSans-4f" x="906.835938"/>
     <use xlink:href="#DejaVuSans-55" x="985.546875"/>
     <use xlink:href="#DejaVuSans-52" x="1058.740234"/>
     <use xlink:href="#DejaVuSans-53" x="1128.222656"/>
     <use xlink:href="#DejaVuSans-29" x="1191.699219"/>
    </g>
   </g>
  </g>
  <g id="axes_5">
   <g id="patch_14">
    <path d="M 59.254 444.44 
L 269.077 444.44 
L 269.077 361.386667 
L 59.254 361.386667 
z
" style="fill: #ffffff"/>
   </g>
   <g id="matplotlib.axis_9">
    <g id="xtick_13">
     <g id="line2d_29">
      <g>
       <use xlink:href="#ma1d239e76e" x="60.49801" y="444.44" style="stroke: #000000; stroke-width: 0.8"/>
      </g>
     </g>
     <g id="text_11">
      <!-- 0 -->
      <g transform="translate(56.04426 462.077812) scale(0.14 -0.14)">
       <use xlink:href="#DejaVuSans-30"/>
      </g>
     </g>
    </g>
    <g id="xtick_14">
     <g id="line2d_30">
      <g>
       <use xlink:href="#ma1d239e76e" x="143.432002" y="444.44" style="stroke: #000000; stroke-width: 0.8"/>
      </g>
     </g>
     <g id="text_12">
      <!-- 20 -->
      <g transform="translate(134.524502 462.077812) scale(0.14 -0.14)">
       <use xlink:href="#DejaVuSans-32"/>
       <use xlink:href="#DejaVuSans-30" x="63.623047"/>
      </g>
     </g>
    </g>
    <g id="xtick_15">
     <g id="line2d_31">
      <g>
       <use xlink:href="#ma1d239e76e" x="226.365994" y="444.44" style="stroke: #000000; stroke-width: 0.8"/>
      </g>
     </g>
     <g id="text_13">
      <!-- 40 -->
      <g transform="translate(217.458494 462.077812) scale(0.14 -0.14)">
       <use xlink:href="#DejaVuSans-34"/>
       <use xlink:href="#DejaVuSans-30" x="63.623047"/>
      </g>
     </g>
    </g>
   </g>
   <g id="matplotlib.axis_10">
    <g id="ytick_9">
     <g id="line2d_32">
      <g>
       <use xlink:href="#m19c406ceee" x="59.254" y="440.664882" style="stroke: #000000; stroke-width: 0.8"/>
      </g>
     </g>
     <g id="text_14">
      <!-- 0 -->
      <g transform="translate(43.3465 445.983789) scale(0.14 -0.14)">
       <use xlink:href="#DejaVuSans-30"/>
      </g>
     </g>
    </g>
    <g id="ytick_10">
     <g id="line2d_33">
      <g>
       <use xlink:href="#m19c406ceee" x="59.254" y="364.047494" style="stroke: #000000; stroke-width: 0.8"/>
      </g>
     </g>
     <g id="text_15">
      <!-- 2 -->
      <g transform="translate(43.3465 369.3664) scale(0.14 -0.14)">
       <use xlink:href="#DejaVuSans-32"/>
      </g>
     </g>
    </g>
    <g id="text_16">
     <!-- 1e1 -->
     <g transform="translate(59.254 358.386667) scale(0.1 -0.1)">
      <use xlink:href="#DejaVuSans-31"/>
      <use xlink:href="#DejaVuSans-65" x="63.623047"/>
      <use xlink:href="#DejaVuSans-31" x="125.146484"/>
     </g>
    </g>
   </g>
   <g id="line2d_34">
    <path d="M 68.791409 437.597009 
L 259.539591 437.597009 
" clip-path="url(#p884cc58340)" style="fill: none; stroke-dasharray: 7.4,3.2; stroke-dashoffset: 0; stroke: #696969; stroke-width: 2"/>
   </g>
   <g id="line2d_35">
    <path d="M 259.539591 440.094166 
L 226.365994 440.232498 
L 202.670568 439.615865 
L 184.898998 438.846645 
L 171.076666 435.853853 
L 160.0188 417.921025 
L 150.971456 438.732512 
L 143.432002 438.033199 
L 137.052464 440.392035 
L 131.584289 438.906222 
L 126.845204 440.64996 
L 122.698504 440.590909 
L 119.039651 440.133388 
L 115.787338 440.054934 
L 112.877373 439.4544 
L 110.258405 433.961373 
L 107.888863 438.956571 
L 105.734733 440.643611 
L 103.767919 440.629517 
L 101.965006 439.144292 
L 100.306326 440.098655 
L 98.775237 440.364217 
L 97.357562 440.262257 
L 96.041149 439.647359 
L 94.815524 435.398762 
L 93.671607 428.611538 
L 92.601491 440.167538 
L 91.598257 440.263778 
L 90.655825 440.58843 
L 89.768831 440.24543 
L 88.932521 440.15165 
L 88.142674 440.207755 
L 87.395521 440.603238 
L 86.687692 440.563223 
L 86.016161 440.542252 
L 85.378208 440.46376 
L 84.771373 439.810548 
L 84.193436 440.03061 
L 83.64238 439.889506 
L 83.116371 440.613813 
L 82.613741 440.287362 
L 82.132964 440.197835 
L 81.672646 440.56771 
L 81.231508 440.635223 
L 80.808375 438.950328 
L 80.402168 439.949473 
L 80.01189 440.216803 
L 79.636623 440.101435 
L 79.275518 440.063063 
L 78.927786 440.508077 
L 78.592699 440.630801 
L 78.26958 440.267358 
L 77.957798 440.348785 
L 77.656767 440.640886 
L 77.36594 440.383228 
L 77.084808 440.368286 
L 76.812894 440.6375 
L 76.54975 440.513827 
L 76.294961 440.635554 
L 76.048133 440.605624 
L 75.808901 440.646127 
L 75.576918 440.645804 
L 75.351859 440.642136 
L 75.13342 440.640102 
L 74.921313 440.617272 
L 74.715266 440.565674 
L 74.515023 440.651416 
L 74.320342 440.654721 
L 74.130995 440.655658 
L 73.946765 440.654171 
L 73.767449 440.659717 
L 73.592851 440.662777 
L 73.422788 440.663405 
L 73.257086 440.650445 
L 73.095578 440.664096 
L 72.938109 440.664345 
L 72.784527 440.658874 
L 72.634692 440.654687 
L 72.488467 440.661654 
L 72.345723 440.662686 
L 72.206338 440.66215 
L 72.070195 440.663497 
L 71.937181 440.653028 
L 71.807191 440.637026 
L 71.680121 440.64713 
L 71.555875 440.601717 
L 71.43436 440.658801 
L 71.315487 440.617534 
L 71.19917 440.652256 
L 71.085328 440.645042 
L 70.973883 440.656951 
L 70.864759 440.640377 
L 70.757885 440.643941 
L 70.653193 440.622551 
L 70.550615 440.618854 
L 70.450089 440.607699 
L 70.351553 440.496289 
L 70.25495 440.589706 
L 70.160223 440.662584 
L 70.067317 440.656505 
L 69.97618 440.610021 
L 69.886764 440.595291 
L 69.799018 440.664309 
L 69.712898 440.636556 
L 69.628358 440.639427 
L 69.545354 440.589243 
L 69.463847 440.557507 
L 69.383795 440.654093 
L 69.305159 440.355625 
L 69.227904 440.616226 
L 69.151992 440.519077 
L 69.077388 440.518105 
L 69.00406 440.385191 
L 68.931975 440.454003 
L 68.861102 440.564085 
L 68.791409 440.661115 
" clip-path="url(#p884cc58340)" style="fill: none; stroke: #191970; stroke-width: 2; stroke-linecap: square"/>
   </g>
   <g id="patch_15">
    <path d="M 59.254 444.44 
L 59.254 361.386667 
" style="fill: none; stroke: #000000; stroke-width: 0.8; stroke-linejoin: miter; stroke-linecap: square"/>
   </g>
   <g id="patch_16">
    <path d="M 59.254 444.44 
L 269.077 444.44 
" style="fill: none; stroke: #000000; stroke-width: 0.8; stroke-linejoin: miter; stroke-linecap: square"/>
   </g>
   <g id="text_17">
    <!-- 5 HYPO DL -->
    <g transform="translate(126.701281 329.111292) scale(0.14 -0.14)">
     <defs>
      <path id="DejaVuSans-35" d="M 691 4666 
L 3169 4666 
L 3169 4134 
L 1269 4134 
L 1269 2991 
Q 1406 3038 1543 3061 
Q 1681 3084 1819 3084 
Q 2600 3084 3056 2656 
Q 3513 2228 3513 1497 
Q 3513 744 3044 326 
Q 2575 -91 1722 -91 
Q 1428 -91 1123 -41 
Q 819 9 494 109 
L 494 744 
Q 775 591 1075 516 
Q 1375 441 1709 441 
Q 2250 441 2565 725 
Q 2881 1009 2881 1497 
Q 2881 1984 2565 2268 
Q 2250 2553 1709 2553 
Q 1456 2553 1204 2497 
Q 953 2441 691 2322 
L 691 4666 
z
" transform="scale(0.015625)"/>
     </defs>
     <use xlink:href="#DejaVuSans-35"/>
     <use xlink:href="#DejaVuSans-20" x="63.623047"/>
     <use xlink:href="#DejaVuSans-48" x="95.410156"/>
     <use xlink:href="#DejaVuSans-59" x="170.605469"/>
     <use xlink:href="#DejaVuSans-50" x="231.689453"/>
     <use xlink:href="#DejaVuSans-4f" x="291.992188"/>
     <use xlink:href="#DejaVuSans-20" x="370.703125"/>
     <use xlink:href="#DejaVuSans-44" x="402.490234"/>
     <use xlink:href="#DejaVuSans-4c" x="479.492188"/>
    </g>
    <!-- (PEAK ON 24.00 HOURS) -->
    <g transform="translate(78.014094 344.788229) scale(0.14 -0.14)">
     <use xlink:href="#DejaVuSans-28"/>
     <use xlink:href="#DejaVuSans-50" x="39.013672"/>
     <use xlink:href="#DejaVuSans-45" x="99.316406"/>
     <use xlink:href="#DejaVuSans-41" x="162.5"/>
     <use xlink:href="#DejaVuSans-4b" x="230.908203"/>
     <use xlink:href="#DejaVuSans-20" x="296.484375"/>
     <use xlink:href="#DejaVuSans-4f" x="328.271484"/>
     <use xlink:href="#DejaVuSans-4e" x="406.982422"/>
     <use xlink:href="#DejaVuSans-20" x="481.787109"/>
     <use xlink:href="#DejaVuSans-32" x="513.574219"/>
     <use xlink:href="#DejaVuSans-34" x="577.197266"/>
     <use xlink:href="#DejaVuSans-2e" x="640.820312"/>
     <use xlink:href="#DejaVuSans-30" x="672.607422"/>
     <use xlink:href="#DejaVuSans-30" x="736.230469"/>
     <use xlink:href="#DejaVuSans-20" x="799.853516"/>
     <use xlink:href="#DejaVuSans-48" x="831.640625"/>
     <use xlink:href="#DejaVuSans-4f" x="906.835938"/>
     <use xlink:href="#DejaVuSans-55" x="985.546875"/>
     <use xlink:href="#DejaVuSans-52" x="1058.740234"/>
     <use xlink:href="#DejaVuSans-53" x="1128.222656"/>
     <use xlink:href="#DejaVuSans-29" x="1191.699219"/>
    </g>
   </g>
  </g>
  <g id="axes_6"/>
  <g id="text_18">
   <!-- PSD $(VISITS^{2}/HZ)$ -->
   <g transform="translate(25.236562 329.13) rotate(-90) scale(0.18 -0.18)">
    <defs>
     <path id="DejaVuSans-Oblique-56" d="M 1319 0 
L 500 4666 
L 1119 4666 
L 1797 653 
L 4063 4666 
L 4750 4666 
L 2053 0 
L 1319 0 
z
" transform="scale(0.015625)"/>
     <path id="DejaVuSans-Oblique-49" d="M 1081 4666 
L 1716 4666 
L 806 0 
L 172 0 
L 1081 4666 
z
" transform="scale(0.015625)"/>
     <path id="DejaVuSans-Oblique-53" d="M 3859 4513 
L 3738 3897 
Q 3422 4066 3111 4152 
Q 2800 4238 2509 4238 
Q 1944 4238 1609 3991 
Q 1275 3744 1275 3334 
Q 1275 3109 1398 2989 
Q 1522 2869 2034 2731 
L 2413 2638 
Q 3053 2472 3303 2217 
Q 3553 1963 3553 1503 
Q 3553 797 2998 353 
Q 2444 -91 1538 -91 
Q 1166 -91 791 -17 
Q 416 56 38 206 
L 166 856 
Q 513 641 861 531 
Q 1209 422 1556 422 
Q 2147 422 2503 684 
Q 2859 947 2859 1369 
Q 2859 1650 2717 1795 
Q 2575 1941 2106 2059 
L 1728 2156 
Q 1081 2325 845 2545 
Q 609 2766 609 3163 
Q 609 3859 1145 4304 
Q 1681 4750 2541 4750 
Q 2875 4750 3203 4690 
Q 3531 4631 3859 4513 
z
" transform="scale(0.015625)"/>
     <path id="DejaVuSans-Oblique-54" d="M 378 4666 
L 4325 4666 
L 4225 4134 
L 2559 4134 
L 1759 0 
L 1125 0 
L 1925 4134 
L 275 4134 
L 378 4666 
z
" transform="scale(0.015625)"/>
     <path id="DejaVuSans-2f" d="M 1625 4666 
L 2156 4666 
L 531 -594 
L 0 -594 
L 1625 4666 
z
" transform="scale(0.015625)"/>
     <path id="DejaVuSans-Oblique-48" d="M 1081 4666 
L 1716 4666 
L 1344 2753 
L 3634 2753 
L 4006 4666 
L 4641 4666 
L 3731 0 
L 3097 0 
L 3531 2222 
L 1241 2222 
L 806 0 
L 172 0 
L 1081 4666 
z
" transform="scale(0.015625)"/>
     <path id="DejaVuSans-Oblique-5a" d="M 838 4666 
L 4500 4666 
L 4409 4184 
L 794 531 
L 3769 531 
L 3669 0 
L -141 0 
L -50 481 
L 3566 4134 
L 738 4134 
L 838 4666 
z
" transform="scale(0.015625)"/>
    </defs>
    <use xlink:href="#DejaVuSans-50" transform="translate(0 0.765625)"/>
    <use xlink:href="#DejaVuSans-53" transform="translate(60.302734 0.765625)"/>
    <use xlink:href="#DejaVuSans-44" transform="translate(123.779297 0.765625)"/>
    <use xlink:href="#DejaVuSans-20" transform="translate(200.78125 0.765625)"/>
    <use xlink:href="#DejaVuSans-28" transform="translate(232.568359 0.765625)"/>
    <use xlink:href="#DejaVuSans-Oblique-56" transform="translate(271.582031 0.765625)"/>
    <use xlink:href="#DejaVuSans-Oblique-49" transform="translate(339.990234 0.765625)"/>
    <use xlink:href="#DejaVuSans-Oblique-53" transform="translate(369.482422 0.765625)"/>
    <use xlink:href="#DejaVuSans-Oblique-49" transform="translate(432.958984 0.765625)"/>
    <use xlink:href="#DejaVuSans-Oblique-54" transform="translate(462.451172 0.765625)"/>
    <use xlink:href="#DejaVuSans-Oblique-53" transform="translate(523.535156 0.765625)"/>
    <use xlink:href="#DejaVuSans-32" transform="translate(594.21224 39.046875) scale(0.7)"/>
    <use xlink:href="#DejaVuSans-2f" transform="translate(641.482747 0.765625)"/>
    <use xlink:href="#DejaVuSans-Oblique-48" transform="translate(673.424154 0.765625)"/>
    <use xlink:href="#DejaVuSans-Oblique-5a" transform="translate(748.619466 0.765625)"/>
    <use xlink:href="#DejaVuSans-29" transform="translate(817.125326 0.765625)"/>
   </g>
  </g>
  <g id="text_19">
   <!-- PERIOD (HOUR) -->
   <g transform="translate(181.386562 495.216563) scale(0.18 -0.18)">
    <use xlink:href="#DejaVuSans-50"/>
    <use xlink:href="#DejaVuSans-45" x="60.302734"/>
    <use xlink:href="#DejaVuSans-52" x="123.486328"/>
    <use xlink:href="#DejaVuSans-49" x="192.96875"/>
    <use xlink:href="#DejaVuSans-4f" x="222.460938"/>
    <use xlink:href="#DejaVuSans-44" x="301.171875"/>
    <use xlink:href="#DejaVuSans-20" x="378.173828"/>
    <use xlink:href="#DejaVuSans-28" x="409.960938"/>
    <use xlink:href="#DejaVuSans-48" x="448.974609"/>
    <use xlink:href="#DejaVuSans-4f" x="524.169922"/>
    <use xlink:href="#DejaVuSans-55" x="602.880859"/>
    <use xlink:href="#DejaVuSans-52" x="676.074219"/>
    <use xlink:href="#DejaVuSans-29" x="745.556641"/>
   </g>
  </g>
  <g id="text_20">
   <!-- PERIODOGRAM OF CONTINUOUS - ANIMAL 19 -->
   <g transform="translate(70.12125 22.2375) scale(0.16 -0.16)">
    <defs>
     <path id="DejaVuSans-47" d="M 3809 666 
L 3809 1919 
L 2778 1919 
L 2778 2438 
L 4434 2438 
L 4434 434 
Q 4069 175 3628 42 
Q 3188 -91 2688 -91 
Q 1594 -91 976 548 
Q 359 1188 359 2328 
Q 359 3472 976 4111 
Q 1594 4750 2688 4750 
Q 3144 4750 3555 4637 
Q 3966 4525 4313 4306 
L 4313 3634 
Q 3963 3931 3569 4081 
Q 3175 4231 2741 4231 
Q 1884 4231 1454 3753 
Q 1025 3275 1025 2328 
Q 1025 1384 1454 906 
Q 1884 428 2741 428 
Q 3075 428 3337 486 
Q 3600 544 3809 666 
z
" transform="scale(0.015625)"/>
     <path id="DejaVuSans-4d" d="M 628 4666 
L 1569 4666 
L 2759 1491 
L 3956 4666 
L 4897 4666 
L 4897 0 
L 4281 0 
L 4281 4097 
L 3078 897 
L 2444 897 
L 1241 4097 
L 1241 0 
L 628 0 
L 628 4666 
z
" transform="scale(0.015625)"/>
     <path id="DejaVuSans-46" d="M 628 4666 
L 3309 4666 
L 3309 4134 
L 1259 4134 
L 1259 2759 
L 3109 2759 
L 3109 2228 
L 1259 2228 
L 1259 0 
L 628 0 
L 628 4666 
z
" transform="scale(0.015625)"/>
     <path id="DejaVuSans-2d" d="M 313 2009 
L 1997 2009 
L 1997 1497 
L 313 1497 
L 313 2009 
z
" transform="scale(0.015625)"/>
     <path id="DejaVuSans-39" d="M 703 97 
L 703 672 
Q 941 559 1184 500 
Q 1428 441 1663 441 
Q 2288 441 2617 861 
Q 2947 1281 2994 2138 
Q 2813 1869 2534 1725 
Q 2256 1581 1919 1581 
Q 1219 1581 811 2004 
Q 403 2428 403 3163 
Q 403 3881 828 4315 
Q 1253 4750 1959 4750 
Q 2769 4750 3195 4129 
Q 3622 3509 3622 2328 
Q 3622 1225 3098 567 
Q 2575 -91 1691 -91 
Q 1453 -91 1209 -44 
Q 966 3 703 97 
z
M 1959 2075 
Q 2384 2075 2632 2365 
Q 2881 2656 2881 3163 
Q 2881 3666 2632 3958 
Q 2384 4250 1959 4250 
Q 1534 4250 1286 3958 
Q 1038 3666 1038 3163 
Q 1038 2656 1286 2365 
Q 1534 2075 1959 2075 
z
" transform="scale(0.015625)"/>
    </defs>
    <use xlink:href="#DejaVuSans-50"/>
    <use xlink:href="#DejaVuSans-45" x="60.302734"/>
    <use xlink:href="#DejaVuSans-52" x="123.486328"/>
    <use xlink:href="#DejaVuSans-49" x="192.96875"/>
    <use xlink:href="#DejaVuSans-4f" x="222.460938"/>
    <use xlink:href="#DejaVuSans-44" x="301.171875"/>
    <use xlink:href="#DejaVuSans-4f" x="378.173828"/>
    <use xlink:href="#DejaVuSans-47" x="456.884766"/>
    <use xlink:href="#DejaVuSans-52" x="534.375"/>
    <use xlink:href="#DejaVuSans-41" x="599.857422"/>
    <use xlink:href="#DejaVuSans-4d" x="668.265625"/>
    <use xlink:href="#DejaVuSans-20" x="754.544922"/>
    <use xlink:href="#DejaVuSans-4f" x="786.332031"/>
    <use xlink:href="#DejaVuSans-46" x="865.042969"/>
    <use xlink:href="#DejaVuSans-20" x="922.5625"/>
    <use xlink:href="#DejaVuSans-43" x="954.349609"/>
    <use xlink:href="#DejaVuSans-4f" x="1024.173828"/>
    <use xlink:href="#DejaVuSans-4e" x="1102.884766"/>
    <use xlink:href="#DejaVuSans-54" x="1177.689453"/>
    <use xlink:href="#DejaVuSans-49" x="1238.773438"/>
    <use xlink:href="#DejaVuSans-4e" x="1268.265625"/>
    <use xlink:href="#DejaVuSans-55" x="1343.070312"/>
    <use xlink:href="#DejaVuSans-4f" x="1416.263672"/>
    <use xlink:href="#DejaVuSans-55" x="1494.974609"/>
    <use xlink:href="#DejaVuSans-53" x="1568.167969"/>
    <use xlink:href="#DejaVuSans-20" x="1631.644531"/>
    <use xlink:href="#DejaVuSans-2d" x="1663.431641"/>
    <use xlink:href="#DejaVuSans-20" x="1699.515625"/>
    <use xlink:href="#DejaVuSans-41" x="1731.302734"/>
    <use xlink:href="#DejaVuSans-4e" x="1799.710938"/>
    <use xlink:href="#DejaVuSans-49" x="1874.515625"/>
    <use xlink:href="#DejaVuSans-4d" x="1904.007812"/>
    <use xlink:href="#DejaVuSans-41" x="1990.287109"/>
    <use xlink:href="#DejaVuSans-4c" x="2058.695312"/>
    <use xlink:href="#DejaVuSans-20" x="2114.408203"/>
    <use xlink:href="#DejaVuSans-31" x="2146.195312"/>
    <use xlink:href="#DejaVuSans-39" x="2209.818359"/>
   </g>
  </g>
 </g>
 <defs>
  <clipPath id="p606082b6cd">
   <rect x="59.254" y="79.56" width="209.823" height="83.053333"/>
  </clipPath>
  <clipPath id="p7f70b85c6a">
   <rect x="283.377" y="79.56" width="209.823" height="83.053333"/>
  </clipPath>
  <clipPath id="p9b55b135ee">
   <rect x="59.254" y="220.473333" width="209.823" height="83.053333"/>
  </clipPath>
  <clipPath id="p0baa48bf42">
   <rect x="283.377" y="220.473333" width="209.823" height="83.053333"/>
  </clipPath>
  <clipPath id="p884cc58340">
   <rect x="59.254" y="361.386667" width="209.823" height="83.053333"/>
  </clipPath>
 </defs>
</svg>
