<?xml version="1.0" encoding="utf-8" standalone="no"?>
<!DOCTYPE svg PUBLIC "-//W3C//DTD SVG 1.1//EN"
  "http://www.w3.org/Graphics/SVG/1.1/DTD/svg11.dtd">
<svg xmlns:xlink="http://www.w3.org/1999/xlink" width="850.32pt" height="141.12pt" viewBox="0 0 850.32 141.12" xmlns="http://www.w3.org/2000/svg" version="1.1">
 <metadata>
  <rdf:RDF xmlns:dc="http://purl.org/dc/elements/1.1/" xmlns:cc="http://creativecommons.org/ns#" xmlns:rdf="http://www.w3.org/1999/02/22-rdf-syntax-ns#">
   <cc:Work>
    <dc:type rdf:resource="http://purl.org/dc/dcmitype/StillImage"/>
    <dc:date>2023-11-27T21:09:13.004462</dc:date>
    <dc:format>image/svg+xml</dc:format>
    <dc:creator>
     <cc:Agent>
      <dc:title>Matplotlib v3.7.4, https://matplotlib.org/</dc:title>
     </cc:Agent>
    </dc:creator>
   </cc:Work>
  </rdf:RDF>
 </metadata>
 <defs>
  <style type="text/css">*{stroke-linejoin: round; stroke-linecap: butt}</style>
 </defs>
 <g id="figure_1">
  <g id="patch_1">
   <path d="M 0 141.12 
L 850.32 141.12 
L 850.32 0 
L 0 0 
z
" style="fill: #ffffff"/>
  </g>
  <g id="axes_1">
   <g id="patch_2">
    <path d="M 46.33 89.48 
L 435.775 89.48 
L 435.775 60.144 
L 46.33 60.144 
z
" style="fill: #ffffff"/>
   </g>
   <g id="patch_3">
    <path d="M 44.698817 87.035333 
L 47.961183 87.035333 
L 47.961183 75.220959 
L 44.698817 75.220959 
z
" clip-path="url(#p87f2093d25)" style="fill: #696969"/>
   </g>
   <g id="patch_4">
    <path d="M 46.737796 87.035333 
L 50.000162 87.035333 
L 50.000162 87.035333 
L 46.737796 87.035333 
z
" clip-path="url(#p87f2093d25)" style="fill: #696969"/>
   </g>
   <g id="patch_5">
    <path d="M 48.776775 87.035333 
L 52.039141 87.035333 
L 52.039141 85.035978 
L 48.776775 85.035978 
z
" clip-path="url(#p87f2093d25)" style="fill: #696969"/>
   </g>
   <g id="patch_6">
    <path d="M 50.815754 87.035333 
L 54.07812 87.035333 
L 54.07812 83.036622 
L 50.815754 83.036622 
z
" clip-path="url(#p87f2093d25)" style="fill: #696969"/>
   </g>
   <g id="patch_7">
    <path d="M 52.854733 87.035333 
L 56.117099 87.035333 
L 56.117099 87.035333 
L 52.854733 87.035333 
z
" clip-path="url(#p87f2093d25)" style="fill: #696969"/>
   </g>
   <g id="patch_8">
    <path d="M 54.893712 87.035333 
L 58.156079 87.035333 
L 58.156079 84.581579 
L 54.893712 84.581579 
z
" clip-path="url(#p87f2093d25)" style="fill: #696969"/>
   </g>
   <g id="patch_9">
    <path d="M 56.932691 87.035333 
L 60.195058 87.035333 
L 60.195058 81.673425 
L 56.932691 81.673425 
z
" clip-path="url(#p87f2093d25)" style="fill: #696969"/>
   </g>
   <g id="patch_10">
    <path d="M 58.97167 87.035333 
L 62.234037 87.035333 
L 62.234037 87.035333 
L 58.97167 87.035333 
z
" clip-path="url(#p87f2093d25)" style="fill: #696969"/>
   </g>
   <g id="patch_11">
    <path d="M 61.010649 87.035333 
L 64.273016 87.035333 
L 64.273016 87.035333 
L 61.010649 87.035333 
z
" clip-path="url(#p87f2093d25)" style="fill: #696969"/>
   </g>
   <g id="patch_12">
    <path d="M 63.049628 87.035333 
L 66.311995 87.035333 
L 66.311995 76.947675 
L 63.049628 76.947675 
z
" clip-path="url(#p87f2093d25)" style="fill: #696969"/>
   </g>
   <g id="patch_13">
    <path d="M 65.088607 87.035333 
L 68.350974 87.035333 
L 68.350974 87.035333 
L 65.088607 87.035333 
z
" clip-path="url(#p87f2093d25)" style="fill: #696969"/>
   </g>
   <g id="patch_14">
    <path d="M 67.127586 87.035333 
L 70.389953 87.035333 
L 70.389953 87.035333 
L 67.127586 87.035333 
z
" clip-path="url(#p87f2093d25)" style="fill: #696969"/>
   </g>
   <g id="patch_15">
    <path d="M 69.166565 87.035333 
L 72.428932 87.035333 
L 72.428932 80.491988 
L 69.166565 80.491988 
z
" clip-path="url(#p87f2093d25)" style="fill: #696969"/>
   </g>
   <g id="patch_16">
    <path d="M 71.205545 87.035333 
L 74.467911 87.035333 
L 74.467911 84.854218 
L 71.205545 84.854218 
z
" clip-path="url(#p87f2093d25)" style="fill: #696969"/>
   </g>
   <g id="patch_17">
    <path d="M 73.244524 87.035333 
L 76.50689 87.035333 
L 76.50689 85.217737 
L 73.244524 85.217737 
z
" clip-path="url(#p87f2093d25)" style="fill: #696969"/>
   </g>
   <g id="patch_18">
    <path d="M 75.283503 87.035333 
L 78.545869 87.035333 
L 78.545869 87.035333 
L 75.283503 87.035333 
z
" clip-path="url(#p87f2093d25)" style="fill: #696969"/>
   </g>
   <g id="patch_19">
    <path d="M 77.322482 87.035333 
L 80.584848 87.035333 
L 80.584848 87.035333 
L 77.322482 87.035333 
z
" clip-path="url(#p87f2093d25)" style="fill: #696969"/>
   </g>
   <g id="patch_20">
    <path d="M 79.361461 87.035333 
L 82.623827 87.035333 
L 82.623827 87.035333 
L 79.361461 87.035333 
z
" clip-path="url(#p87f2093d25)" style="fill: #696969"/>
   </g>
   <g id="patch_21">
    <path d="M 81.40044 87.035333 
L 84.662806 87.035333 
L 84.662806 87.035333 
L 81.40044 87.035333 
z
" clip-path="url(#p87f2093d25)" style="fill: #696969"/>
   </g>
   <g id="patch_22">
    <path d="M 83.439419 87.035333 
L 86.701785 87.035333 
L 86.701785 81.037266 
L 83.439419 81.037266 
z
" clip-path="url(#p87f2093d25)" style="fill: #696969"/>
   </g>
   <g id="patch_23">
    <path d="M 85.478398 87.035333 
L 88.740764 87.035333 
L 88.740764 87.035333 
L 85.478398 87.035333 
z
" clip-path="url(#p87f2093d25)" style="fill: #696969"/>
   </g>
   <g id="patch_24">
    <path d="M 87.517377 87.035333 
L 90.779743 87.035333 
L 90.779743 82.309584 
L 87.517377 82.309584 
z
" clip-path="url(#p87f2093d25)" style="fill: #696969"/>
   </g>
   <g id="patch_25">
    <path d="M 89.556356 87.035333 
L 92.818723 87.035333 
L 92.818723 87.035333 
L 89.556356 87.035333 
z
" clip-path="url(#p87f2093d25)" style="fill: #696969"/>
   </g>
   <g id="patch_26">
    <path d="M 91.595335 87.035333 
L 94.857702 87.035333 
L 94.857702 86.580934 
L 91.595335 86.580934 
z
" clip-path="url(#p87f2093d25)" style="fill: #696969"/>
   </g>
   <g id="patch_27">
    <path d="M 93.634314 87.035333 
L 96.896681 87.035333 
L 96.896681 87.035333 
L 93.634314 87.035333 
z
" clip-path="url(#p87f2093d25)" style="fill: #696969"/>
   </g>
   <g id="patch_28">
    <path d="M 95.673293 87.035333 
L 98.93566 87.035333 
L 98.93566 85.308617 
L 95.673293 85.308617 
z
" clip-path="url(#p87f2093d25)" style="fill: #696969"/>
   </g>
   <g id="patch_29">
    <path d="M 97.712272 87.035333 
L 100.974639 87.035333 
L 100.974639 79.946709 
L 97.712272 79.946709 
z
" clip-path="url(#p87f2093d25)" style="fill: #696969"/>
   </g>
   <g id="patch_30">
    <path d="M 99.751251 87.035333 
L 103.013618 87.035333 
L 103.013618 84.490699 
L 99.751251 84.490699 
z
" clip-path="url(#p87f2093d25)" style="fill: #696969"/>
   </g>
   <g id="patch_31">
    <path d="M 101.79023 87.035333 
L 105.052597 87.035333 
L 105.052597 68.132335 
L 101.79023 68.132335 
z
" clip-path="url(#p87f2093d25)" style="fill: #696969"/>
   </g>
   <g id="patch_32">
    <path d="M 103.829209 87.035333 
L 107.091576 87.035333 
L 107.091576 79.946709 
L 103.829209 79.946709 
z
" clip-path="url(#p87f2093d25)" style="fill: #696969"/>
   </g>
   <g id="patch_33">
    <path d="M 105.868188 87.035333 
L 109.130555 87.035333 
L 109.130555 74.67568 
L 105.868188 74.67568 
z
" clip-path="url(#p87f2093d25)" style="fill: #696969"/>
   </g>
   <g id="patch_34">
    <path d="M 107.907168 87.035333 
L 111.169534 87.035333 
L 111.169534 83.76366 
L 107.907168 83.76366 
z
" clip-path="url(#p87f2093d25)" style="fill: #696969"/>
   </g>
   <g id="patch_35">
    <path d="M 109.946147 87.035333 
L 113.208513 87.035333 
L 113.208513 75.947998 
L 109.946147 75.947998 
z
" clip-path="url(#p87f2093d25)" style="fill: #696969"/>
   </g>
   <g id="patch_36">
    <path d="M 111.985126 87.035333 
L 115.247492 87.035333 
L 115.247492 72.221926 
L 111.985126 72.221926 
z
" clip-path="url(#p87f2093d25)" style="fill: #696969"/>
   </g>
   <g id="patch_37">
    <path d="M 114.024105 87.035333 
L 117.286471 87.035333 
L 117.286471 81.219026 
L 114.024105 81.219026 
z
" clip-path="url(#p87f2093d25)" style="fill: #696969"/>
   </g>
   <g id="patch_38">
    <path d="M 116.063084 87.035333 
L 119.32545 87.035333 
L 119.32545 86.308295 
L 116.063084 86.308295 
z
" clip-path="url(#p87f2093d25)" style="fill: #696969"/>
   </g>
   <g id="patch_39">
    <path d="M 118.102063 87.035333 
L 121.364429 87.035333 
L 121.364429 75.311839 
L 118.102063 75.311839 
z
" clip-path="url(#p87f2093d25)" style="fill: #696969"/>
   </g>
   <g id="patch_40">
    <path d="M 120.141042 87.035333 
L 123.403408 87.035333 
L 123.403408 76.311517 
L 120.141042 76.311517 
z
" clip-path="url(#p87f2093d25)" style="fill: #696969"/>
   </g>
   <g id="patch_41">
    <path d="M 122.180021 87.035333 
L 125.442387 87.035333 
L 125.442387 87.035333 
L 122.180021 87.035333 
z
" clip-path="url(#p87f2093d25)" style="fill: #696969"/>
   </g>
   <g id="patch_42">
    <path d="M 124.219 87.035333 
L 127.481366 87.035333 
L 127.481366 72.312805 
L 124.219 72.312805 
z
" clip-path="url(#p87f2093d25)" style="fill: #696969"/>
   </g>
   <g id="patch_43">
    <path d="M 126.257979 87.035333 
L 129.520346 87.035333 
L 129.520346 75.0392 
L 126.257979 75.0392 
z
" clip-path="url(#p87f2093d25)" style="fill: #696969"/>
   </g>
   <g id="patch_44">
    <path d="M 128.296958 87.035333 
L 131.559325 87.035333 
L 131.559325 82.127824 
L 128.296958 82.127824 
z
" clip-path="url(#p87f2093d25)" style="fill: #696969"/>
   </g>
   <g id="patch_45">
    <path d="M 130.335937 87.035333 
L 133.598304 87.035333 
L 133.598304 75.493599 
L 130.335937 75.493599 
z
" clip-path="url(#p87f2093d25)" style="fill: #696969"/>
   </g>
   <g id="patch_46">
    <path d="M 132.374916 87.035333 
L 135.637283 87.035333 
L 135.637283 79.674069 
L 132.374916 79.674069 
z
" clip-path="url(#p87f2093d25)" style="fill: #696969"/>
   </g>
   <g id="patch_47">
    <path d="M 134.413895 87.035333 
L 137.676262 87.035333 
L 137.676262 76.675036 
L 134.413895 76.675036 
z
" clip-path="url(#p87f2093d25)" style="fill: #696969"/>
   </g>
   <g id="patch_48">
    <path d="M 136.452874 87.035333 
L 139.715241 87.035333 
L 139.715241 73.857762 
L 136.452874 73.857762 
z
" clip-path="url(#p87f2093d25)" style="fill: #696969"/>
   </g>
   <g id="patch_49">
    <path d="M 138.491853 87.035333 
L 141.75422 87.035333 
L 141.75422 79.764949 
L 138.491853 79.764949 
z
" clip-path="url(#p87f2093d25)" style="fill: #696969"/>
   </g>
   <g id="patch_50">
    <path d="M 140.530832 87.035333 
L 143.793199 87.035333 
L 143.793199 75.220959 
L 140.530832 75.220959 
z
" clip-path="url(#p87f2093d25)" style="fill: #696969"/>
   </g>
   <g id="patch_51">
    <path d="M 142.569812 87.035333 
L 145.832178 87.035333 
L 145.832178 86.580934 
L 142.569812 86.580934 
z
" clip-path="url(#p87f2093d25)" style="fill: #696969"/>
   </g>
   <g id="patch_52">
    <path d="M 144.608791 87.035333 
L 147.871157 87.035333 
L 147.871157 73.948642 
L 144.608791 73.948642 
z
" clip-path="url(#p87f2093d25)" style="fill: #696969"/>
   </g>
   <g id="patch_53">
    <path d="M 146.64777 87.035333 
L 149.910136 87.035333 
L 149.910136 81.219026 
L 146.64777 81.219026 
z
" clip-path="url(#p87f2093d25)" style="fill: #696969"/>
   </g>
   <g id="patch_54">
    <path d="M 148.686749 87.035333 
L 151.949115 87.035333 
L 151.949115 87.035333 
L 148.686749 87.035333 
z
" clip-path="url(#p87f2093d25)" style="fill: #696969"/>
   </g>
   <g id="patch_55">
    <path d="M 150.725728 87.035333 
L 153.988094 87.035333 
L 153.988094 75.402719 
L 150.725728 75.402719 
z
" clip-path="url(#p87f2093d25)" style="fill: #696969"/>
   </g>
   <g id="patch_56">
    <path d="M 152.764707 87.035333 
L 156.027073 87.035333 
L 156.027073 83.491021 
L 152.764707 83.491021 
z
" clip-path="url(#p87f2093d25)" style="fill: #696969"/>
   </g>
   <g id="patch_57">
    <path d="M 154.803686 87.035333 
L 158.066052 87.035333 
L 158.066052 85.308617 
L 154.803686 85.308617 
z
" clip-path="url(#p87f2093d25)" style="fill: #696969"/>
   </g>
   <g id="patch_58">
    <path d="M 156.842665 87.035333 
L 160.105031 87.035333 
L 160.105031 87.035333 
L 156.842665 87.035333 
z
" clip-path="url(#p87f2093d25)" style="fill: #696969"/>
   </g>
   <g id="patch_59">
    <path d="M 158.881644 87.035333 
L 162.14401 87.035333 
L 162.14401 87.035333 
L 158.881644 87.035333 
z
" clip-path="url(#p87f2093d25)" style="fill: #696969"/>
   </g>
   <g id="patch_60">
    <path d="M 160.920623 87.035333 
L 164.18299 87.035333 
L 164.18299 82.309584 
L 160.920623 82.309584 
z
" clip-path="url(#p87f2093d25)" style="fill: #696969"/>
   </g>
   <g id="patch_61">
    <path d="M 162.959602 87.035333 
L 166.221969 87.035333 
L 166.221969 86.671814 
L 162.959602 86.671814 
z
" clip-path="url(#p87f2093d25)" style="fill: #696969"/>
   </g>
   <g id="patch_62">
    <path d="M 164.998581 87.035333 
L 168.260948 87.035333 
L 168.260948 87.035333 
L 164.998581 87.035333 
z
" clip-path="url(#p87f2093d25)" style="fill: #696969"/>
   </g>
   <g id="patch_63">
    <path d="M 167.03756 87.035333 
L 170.299927 87.035333 
L 170.299927 87.035333 
L 167.03756 87.035333 
z
" clip-path="url(#p87f2093d25)" style="fill: #696969"/>
   </g>
   <g id="patch_64">
    <path d="M 169.076539 87.035333 
L 172.338906 87.035333 
L 172.338906 80.310228 
L 169.076539 80.310228 
z
" clip-path="url(#p87f2093d25)" style="fill: #696969"/>
   </g>
   <g id="patch_65">
    <path d="M 171.115518 87.035333 
L 174.377885 87.035333 
L 174.377885 87.035333 
L 171.115518 87.035333 
z
" clip-path="url(#p87f2093d25)" style="fill: #696969"/>
   </g>
   <g id="patch_66">
    <path d="M 173.154497 87.035333 
L 176.416864 87.035333 
L 176.416864 87.035333 
L 173.154497 87.035333 
z
" clip-path="url(#p87f2093d25)" style="fill: #696969"/>
   </g>
   <g id="patch_67">
    <path d="M 175.193476 87.035333 
L 178.455843 87.035333 
L 178.455843 87.035333 
L 175.193476 87.035333 
z
" clip-path="url(#p87f2093d25)" style="fill: #696969"/>
   </g>
   <g id="patch_68">
    <path d="M 177.232455 87.035333 
L 180.494822 87.035333 
L 180.494822 81.400786 
L 177.232455 81.400786 
z
" clip-path="url(#p87f2093d25)" style="fill: #696969"/>
   </g>
   <g id="patch_69">
    <path d="M 179.271435 87.035333 
L 182.533801 87.035333 
L 182.533801 87.035333 
L 179.271435 87.035333 
z
" clip-path="url(#p87f2093d25)" style="fill: #696969"/>
   </g>
   <g id="patch_70">
    <path d="M 181.310414 87.035333 
L 184.57278 87.035333 
L 184.57278 87.035333 
L 181.310414 87.035333 
z
" clip-path="url(#p87f2093d25)" style="fill: #696969"/>
   </g>
   <g id="patch_71">
    <path d="M 183.349393 87.035333 
L 186.611759 87.035333 
L 186.611759 81.673425 
L 183.349393 81.673425 
z
" clip-path="url(#p87f2093d25)" style="fill: #696969"/>
   </g>
   <g id="patch_72">
    <path d="M 185.388372 87.035333 
L 188.650738 87.035333 
L 188.650738 87.035333 
L 185.388372 87.035333 
z
" clip-path="url(#p87f2093d25)" style="fill: #696969"/>
   </g>
   <g id="patch_73">
    <path d="M 187.427351 87.035333 
L 190.689717 87.035333 
L 190.689717 87.035333 
L 187.427351 87.035333 
z
" clip-path="url(#p87f2093d25)" style="fill: #696969"/>
   </g>
   <g id="patch_74">
    <path d="M 189.46633 87.035333 
L 192.728696 87.035333 
L 192.728696 83.85454 
L 189.46633 83.85454 
z
" clip-path="url(#p87f2093d25)" style="fill: #696969"/>
   </g>
   <g id="patch_75">
    <path d="M 191.505309 87.035333 
L 194.767675 87.035333 
L 194.767675 87.035333 
L 191.505309 87.035333 
z
" clip-path="url(#p87f2093d25)" style="fill: #696969"/>
   </g>
   <g id="patch_76">
    <path d="M 193.544288 87.035333 
L 196.806654 87.035333 
L 196.806654 83.127502 
L 193.544288 83.127502 
z
" clip-path="url(#p87f2093d25)" style="fill: #696969"/>
   </g>
   <g id="patch_77">
    <path d="M 195.583267 87.035333 
L 198.845634 87.035333 
L 198.845634 87.035333 
L 195.583267 87.035333 
z
" clip-path="url(#p87f2093d25)" style="fill: #696969"/>
   </g>
   <g id="patch_78">
    <path d="M 197.622246 87.035333 
L 200.884613 87.035333 
L 200.884613 82.127824 
L 197.622246 82.127824 
z
" clip-path="url(#p87f2093d25)" style="fill: #696969"/>
   </g>
   <g id="patch_79">
    <path d="M 199.661225 87.035333 
L 202.923592 87.035333 
L 202.923592 87.035333 
L 199.661225 87.035333 
z
" clip-path="url(#p87f2093d25)" style="fill: #696969"/>
   </g>
   <g id="patch_80">
    <path d="M 201.700204 87.035333 
L 204.962571 87.035333 
L 204.962571 72.585445 
L 201.700204 72.585445 
z
" clip-path="url(#p87f2093d25)" style="fill: #696969"/>
   </g>
   <g id="patch_81">
    <path d="M 203.739183 87.035333 
L 207.00155 87.035333 
L 207.00155 82.673103 
L 203.739183 82.673103 
z
" clip-path="url(#p87f2093d25)" style="fill: #696969"/>
   </g>
   <g id="patch_82">
    <path d="M 205.778162 87.035333 
L 209.040529 87.035333 
L 209.040529 78.583512 
L 205.778162 78.583512 
z
" clip-path="url(#p87f2093d25)" style="fill: #696969"/>
   </g>
   <g id="patch_83">
    <path d="M 207.817141 87.035333 
L 211.079508 87.035333 
L 211.079508 70.13169 
L 207.817141 70.13169 
z
" clip-path="url(#p87f2093d25)" style="fill: #696969"/>
   </g>
   <g id="patch_84">
    <path d="M 209.85612 87.035333 
L 213.118487 87.035333 
L 213.118487 85.672136 
L 209.85612 85.672136 
z
" clip-path="url(#p87f2093d25)" style="fill: #696969"/>
   </g>
   <g id="patch_85">
    <path d="M 211.895099 87.035333 
L 215.157466 87.035333 
L 215.157466 70.04081 
L 211.895099 70.04081 
z
" clip-path="url(#p87f2093d25)" style="fill: #696969"/>
   </g>
   <g id="patch_86">
    <path d="M 213.934079 87.035333 
L 217.196445 87.035333 
L 217.196445 78.583512 
L 213.934079 78.583512 
z
" clip-path="url(#p87f2093d25)" style="fill: #696969"/>
   </g>
   <g id="patch_87">
    <path d="M 215.973058 87.035333 
L 219.235424 87.035333 
L 219.235424 78.674392 
L 215.973058 78.674392 
z
" clip-path="url(#p87f2093d25)" style="fill: #696969"/>
   </g>
   <g id="patch_88">
    <path d="M 218.012037 87.035333 
L 221.274403 87.035333 
L 221.274403 81.037266 
L 218.012037 81.037266 
z
" clip-path="url(#p87f2093d25)" style="fill: #696969"/>
   </g>
   <g id="patch_89">
    <path d="M 220.051016 87.035333 
L 223.313382 87.035333 
L 223.313382 86.126535 
L 220.051016 86.126535 
z
" clip-path="url(#p87f2093d25)" style="fill: #696969"/>
   </g>
   <g id="patch_90">
    <path d="M 222.089995 87.035333 
L 225.352361 87.035333 
L 225.352361 72.676325 
L 222.089995 72.676325 
z
" clip-path="url(#p87f2093d25)" style="fill: #696969"/>
   </g>
   <g id="patch_91">
    <path d="M 224.128974 87.035333 
L 227.39134 87.035333 
L 227.39134 87.035333 
L 224.128974 87.035333 
z
" clip-path="url(#p87f2093d25)" style="fill: #696969"/>
   </g>
   <g id="patch_92">
    <path d="M 226.167953 87.035333 
L 229.430319 87.035333 
L 229.430319 82.945742 
L 226.167953 82.945742 
z
" clip-path="url(#p87f2093d25)" style="fill: #696969"/>
   </g>
   <g id="patch_93">
    <path d="M 228.206932 87.035333 
L 231.469298 87.035333 
L 231.469298 80.673747 
L 228.206932 80.673747 
z
" clip-path="url(#p87f2093d25)" style="fill: #696969"/>
   </g>
   <g id="patch_94">
    <path d="M 230.245911 87.035333 
L 233.508277 87.035333 
L 233.508277 87.035333 
L 230.245911 87.035333 
z
" clip-path="url(#p87f2093d25)" style="fill: #696969"/>
   </g>
   <g id="patch_95">
    <path d="M 232.28489 87.035333 
L 235.547257 87.035333 
L 235.547257 74.130401 
L 232.28489 74.130401 
z
" clip-path="url(#p87f2093d25)" style="fill: #696969"/>
   </g>
   <g id="patch_96">
    <path d="M 234.323869 87.035333 
L 237.586236 87.035333 
L 237.586236 80.037589 
L 234.323869 80.037589 
z
" clip-path="url(#p87f2093d25)" style="fill: #696969"/>
   </g>
   <g id="patch_97">
    <path d="M 236.362848 87.035333 
L 239.625215 87.035333 
L 239.625215 70.22257 
L 236.362848 70.22257 
z
" clip-path="url(#p87f2093d25)" style="fill: #696969"/>
   </g>
   <g id="patch_98">
    <path d="M 238.401827 87.035333 
L 241.664194 87.035333 
L 241.664194 80.491988 
L 238.401827 80.491988 
z
" clip-path="url(#p87f2093d25)" style="fill: #696969"/>
   </g>
   <g id="patch_99">
    <path d="M 240.440806 87.035333 
L 243.703173 87.035333 
L 243.703173 80.037589 
L 240.440806 80.037589 
z
" clip-path="url(#p87f2093d25)" style="fill: #696969"/>
   </g>
   <g id="patch_100">
    <path d="M 242.479785 87.035333 
L 245.742152 87.035333 
L 245.742152 69.949931 
L 242.479785 69.949931 
z
" clip-path="url(#p87f2093d25)" style="fill: #696969"/>
   </g>
   <g id="patch_101">
    <path d="M 244.518764 87.035333 
L 247.781131 87.035333 
L 247.781131 65.86034 
L 244.518764 65.86034 
z
" clip-path="url(#p87f2093d25)" style="fill: #696969"/>
   </g>
   <g id="patch_102">
    <path d="M 246.557743 87.035333 
L 249.82011 87.035333 
L 249.82011 78.856151 
L 246.557743 78.856151 
z
" clip-path="url(#p87f2093d25)" style="fill: #696969"/>
   </g>
   <g id="patch_103">
    <path d="M 248.596723 87.035333 
L 251.859089 87.035333 
L 251.859089 72.312805 
L 248.596723 72.312805 
z
" clip-path="url(#p87f2093d25)" style="fill: #696969"/>
   </g>
   <g id="patch_104">
    <path d="M 250.635702 87.035333 
L 253.898068 87.035333 
L 253.898068 76.402397 
L 250.635702 76.402397 
z
" clip-path="url(#p87f2093d25)" style="fill: #696969"/>
   </g>
   <g id="patch_105">
    <path d="M 252.674681 87.035333 
L 255.937047 87.035333 
L 255.937047 83.85454 
L 252.674681 83.85454 
z
" clip-path="url(#p87f2093d25)" style="fill: #696969"/>
   </g>
   <g id="patch_106">
    <path d="M 254.71366 87.035333 
L 257.976026 87.035333 
L 257.976026 86.490055 
L 254.71366 86.490055 
z
" clip-path="url(#p87f2093d25)" style="fill: #696969"/>
   </g>
   <g id="patch_107">
    <path d="M 256.752639 87.035333 
L 260.015005 87.035333 
L 260.015005 87.035333 
L 256.752639 87.035333 
z
" clip-path="url(#p87f2093d25)" style="fill: #696969"/>
   </g>
   <g id="patch_108">
    <path d="M 258.791618 87.035333 
L 262.053984 87.035333 
L 262.053984 83.94542 
L 258.791618 83.94542 
z
" clip-path="url(#p87f2093d25)" style="fill: #696969"/>
   </g>
   <g id="patch_109">
    <path d="M 260.830597 87.035333 
L 264.092963 87.035333 
L 264.092963 85.581257 
L 260.830597 85.581257 
z
" clip-path="url(#p87f2093d25)" style="fill: #696969"/>
   </g>
   <g id="patch_110">
    <path d="M 262.869576 87.035333 
L 266.131942 87.035333 
L 266.131942 87.035333 
L 262.869576 87.035333 
z
" clip-path="url(#p87f2093d25)" style="fill: #696969"/>
   </g>
   <g id="patch_111">
    <path d="M 264.908555 87.035333 
L 268.170921 87.035333 
L 268.170921 87.035333 
L 264.908555 87.035333 
z
" clip-path="url(#p87f2093d25)" style="fill: #696969"/>
   </g>
   <g id="patch_112">
    <path d="M 266.947534 87.035333 
L 270.209901 87.035333 
L 270.209901 85.853896 
L 266.947534 85.853896 
z
" clip-path="url(#p87f2093d25)" style="fill: #696969"/>
   </g>
   <g id="patch_113">
    <path d="M 268.986513 87.035333 
L 272.24888 87.035333 
L 272.24888 84.672458 
L 268.986513 84.672458 
z
" clip-path="url(#p87f2093d25)" style="fill: #696969"/>
   </g>
   <g id="patch_114">
    <path d="M 271.025492 87.035333 
L 274.287859 87.035333 
L 274.287859 87.035333 
L 271.025492 87.035333 
z
" clip-path="url(#p87f2093d25)" style="fill: #696969"/>
   </g>
   <g id="patch_115">
    <path d="M 273.064471 87.035333 
L 276.326838 87.035333 
L 276.326838 87.035333 
L 273.064471 87.035333 
z
" clip-path="url(#p87f2093d25)" style="fill: #696969"/>
   </g>
   <g id="patch_116">
    <path d="M 275.10345 87.035333 
L 278.365817 87.035333 
L 278.365817 87.035333 
L 275.10345 87.035333 
z
" clip-path="url(#p87f2093d25)" style="fill: #696969"/>
   </g>
   <g id="patch_117">
    <path d="M 277.142429 87.035333 
L 280.404796 87.035333 
L 280.404796 82.763983 
L 277.142429 82.763983 
z
" clip-path="url(#p87f2093d25)" style="fill: #696969"/>
   </g>
   <g id="patch_118">
    <path d="M 279.181408 87.035333 
L 282.443775 87.035333 
L 282.443775 82.218704 
L 279.181408 82.218704 
z
" clip-path="url(#p87f2093d25)" style="fill: #696969"/>
   </g>
   <g id="patch_119">
    <path d="M 281.220387 87.035333 
L 284.482754 87.035333 
L 284.482754 81.400786 
L 281.220387 81.400786 
z
" clip-path="url(#p87f2093d25)" style="fill: #696969"/>
   </g>
   <g id="patch_120">
    <path d="M 283.259366 87.035333 
L 286.521733 87.035333 
L 286.521733 87.035333 
L 283.259366 87.035333 
z
" clip-path="url(#p87f2093d25)" style="fill: #696969"/>
   </g>
   <g id="patch_121">
    <path d="M 285.298346 87.035333 
L 288.560712 87.035333 
L 288.560712 81.855185 
L 285.298346 81.855185 
z
" clip-path="url(#p87f2093d25)" style="fill: #696969"/>
   </g>
   <g id="patch_122">
    <path d="M 287.337325 87.035333 
L 290.599691 87.035333 
L 290.599691 87.035333 
L 287.337325 87.035333 
z
" clip-path="url(#p87f2093d25)" style="fill: #696969"/>
   </g>
   <g id="patch_123">
    <path d="M 289.376304 87.035333 
L 292.63867 87.035333 
L 292.63867 86.853574 
L 289.376304 86.853574 
z
" clip-path="url(#p87f2093d25)" style="fill: #696969"/>
   </g>
   <g id="patch_124">
    <path d="M 291.415283 87.035333 
L 294.677649 87.035333 
L 294.677649 87.035333 
L 291.415283 87.035333 
z
" clip-path="url(#p87f2093d25)" style="fill: #696969"/>
   </g>
   <g id="patch_125">
    <path d="M 293.454262 87.035333 
L 296.716628 87.035333 
L 296.716628 81.309906 
L 293.454262 81.309906 
z
" clip-path="url(#p87f2093d25)" style="fill: #696969"/>
   </g>
   <g id="patch_126">
    <path d="M 295.493241 87.035333 
L 298.755607 87.035333 
L 298.755607 81.491665 
L 295.493241 81.491665 
z
" clip-path="url(#p87f2093d25)" style="fill: #696969"/>
   </g>
   <g id="patch_127">
    <path d="M 297.53222 87.035333 
L 300.794586 87.035333 
L 300.794586 81.309906 
L 297.53222 81.309906 
z
" clip-path="url(#p87f2093d25)" style="fill: #696969"/>
   </g>
   <g id="patch_128">
    <path d="M 299.571199 87.035333 
L 302.833565 87.035333 
L 302.833565 86.126535 
L 299.571199 86.126535 
z
" clip-path="url(#p87f2093d25)" style="fill: #696969"/>
   </g>
   <g id="patch_129">
    <path d="M 301.610178 87.035333 
L 304.872545 87.035333 
L 304.872545 87.035333 
L 301.610178 87.035333 
z
" clip-path="url(#p87f2093d25)" style="fill: #696969"/>
   </g>
   <g id="patch_130">
    <path d="M 303.649157 87.035333 
L 306.911524 87.035333 
L 306.911524 75.220959 
L 303.649157 75.220959 
z
" clip-path="url(#p87f2093d25)" style="fill: #696969"/>
   </g>
   <g id="patch_131">
    <path d="M 305.688136 87.035333 
L 308.950503 87.035333 
L 308.950503 79.674069 
L 305.688136 79.674069 
z
" clip-path="url(#p87f2093d25)" style="fill: #696969"/>
   </g>
   <g id="patch_132">
    <path d="M 307.727115 87.035333 
L 310.989482 87.035333 
L 310.989482 72.948964 
L 307.727115 72.948964 
z
" clip-path="url(#p87f2093d25)" style="fill: #696969"/>
   </g>
   <g id="patch_133">
    <path d="M 309.766094 87.035333 
L 313.028461 87.035333 
L 313.028461 85.672136 
L 309.766094 85.672136 
z
" clip-path="url(#p87f2093d25)" style="fill: #696969"/>
   </g>
   <g id="patch_134">
    <path d="M 311.805073 87.035333 
L 315.06744 87.035333 
L 315.06744 83.218382 
L 311.805073 83.218382 
z
" clip-path="url(#p87f2093d25)" style="fill: #696969"/>
   </g>
   <g id="patch_135">
    <path d="M 313.844052 87.035333 
L 317.106419 87.035333 
L 317.106419 76.765916 
L 313.844052 76.765916 
z
" clip-path="url(#p87f2093d25)" style="fill: #696969"/>
   </g>
   <g id="patch_136">
    <path d="M 315.883031 87.035333 
L 319.145398 87.035333 
L 319.145398 73.221603 
L 315.883031 73.221603 
z
" clip-path="url(#p87f2093d25)" style="fill: #696969"/>
   </g>
   <g id="patch_137">
    <path d="M 317.92201 87.035333 
L 321.184377 87.035333 
L 321.184377 72.403685 
L 317.92201 72.403685 
z
" clip-path="url(#p87f2093d25)" style="fill: #696969"/>
   </g>
   <g id="patch_138">
    <path d="M 319.96099 87.035333 
L 323.223356 87.035333 
L 323.223356 74.67568 
L 319.96099 74.67568 
z
" clip-path="url(#p87f2093d25)" style="fill: #696969"/>
   </g>
   <g id="patch_139">
    <path d="M 321.999969 87.035333 
L 325.262335 87.035333 
L 325.262335 83.309261 
L 321.999969 83.309261 
z
" clip-path="url(#p87f2093d25)" style="fill: #696969"/>
   </g>
   <g id="patch_140">
    <path d="M 324.038948 87.035333 
L 327.301314 87.035333 
L 327.301314 83.491021 
L 324.038948 83.491021 
z
" clip-path="url(#p87f2093d25)" style="fill: #696969"/>
   </g>
   <g id="patch_141">
    <path d="M 326.077927 87.035333 
L 329.340293 87.035333 
L 329.340293 74.130401 
L 326.077927 74.130401 
z
" clip-path="url(#p87f2093d25)" style="fill: #696969"/>
   </g>
   <g id="patch_142">
    <path d="M 328.116906 87.035333 
L 331.379272 87.035333 
L 331.379272 75.130079 
L 328.116906 75.130079 
z
" clip-path="url(#p87f2093d25)" style="fill: #696969"/>
   </g>
   <g id="patch_143">
    <path d="M 330.155885 87.035333 
L 333.418251 87.035333 
L 333.418251 70.31345 
L 330.155885 70.31345 
z
" clip-path="url(#p87f2093d25)" style="fill: #696969"/>
   </g>
   <g id="patch_144">
    <path d="M 332.194864 87.035333 
L 335.45723 87.035333 
L 335.45723 70.858729 
L 332.194864 70.858729 
z
" clip-path="url(#p87f2093d25)" style="fill: #696969"/>
   </g>
   <g id="patch_145">
    <path d="M 334.233843 87.035333 
L 337.496209 87.035333 
L 337.496209 72.767204 
L 334.233843 72.767204 
z
" clip-path="url(#p87f2093d25)" style="fill: #696969"/>
   </g>
   <g id="patch_146">
    <path d="M 336.272822 87.035333 
L 339.535188 87.035333 
L 339.535188 67.768815 
L 336.272822 67.768815 
z
" clip-path="url(#p87f2093d25)" style="fill: #696969"/>
   </g>
   <g id="patch_147">
    <path d="M 338.311801 87.035333 
L 341.574168 87.035333 
L 341.574168 79.946709 
L 338.311801 79.946709 
z
" clip-path="url(#p87f2093d25)" style="fill: #696969"/>
   </g>
   <g id="patch_148">
    <path d="M 340.35078 87.035333 
L 343.613147 87.035333 
L 343.613147 75.220959 
L 340.35078 75.220959 
z
" clip-path="url(#p87f2093d25)" style="fill: #696969"/>
   </g>
   <g id="patch_149">
    <path d="M 342.389759 87.035333 
L 345.652126 87.035333 
L 345.652126 70.767849 
L 342.389759 70.767849 
z
" clip-path="url(#p87f2093d25)" style="fill: #696969"/>
   </g>
   <g id="patch_150">
    <path d="M 344.428738 87.035333 
L 347.691105 87.035333 
L 347.691105 76.129757 
L 344.428738 76.129757 
z
" clip-path="url(#p87f2093d25)" style="fill: #696969"/>
   </g>
   <g id="patch_151">
    <path d="M 346.467717 87.035333 
L 349.730084 87.035333 
L 349.730084 76.856796 
L 346.467717 76.856796 
z
" clip-path="url(#p87f2093d25)" style="fill: #696969"/>
   </g>
   <g id="patch_152">
    <path d="M 348.506696 87.035333 
L 351.769063 87.035333 
L 351.769063 76.038877 
L 348.506696 76.038877 
z
" clip-path="url(#p87f2093d25)" style="fill: #696969"/>
   </g>
   <g id="patch_153">
    <path d="M 350.545675 87.035333 
L 353.808042 87.035333 
L 353.808042 77.402074 
L 350.545675 77.402074 
z
" clip-path="url(#p87f2093d25)" style="fill: #696969"/>
   </g>
   <g id="patch_154">
    <path d="M 352.584654 87.035333 
L 355.847021 87.035333 
L 355.847021 71.313128 
L 352.584654 71.313128 
z
" clip-path="url(#p87f2093d25)" style="fill: #696969"/>
   </g>
   <g id="patch_155">
    <path d="M 354.623634 87.035333 
L 357.886 87.035333 
L 357.886 80.037589 
L 354.623634 80.037589 
z
" clip-path="url(#p87f2093d25)" style="fill: #696969"/>
   </g>
   <g id="patch_156">
    <path d="M 356.662613 87.035333 
L 359.924979 87.035333 
L 359.924979 87.035333 
L 356.662613 87.035333 
z
" clip-path="url(#p87f2093d25)" style="fill: #696969"/>
   </g>
   <g id="patch_157">
    <path d="M 358.701592 87.035333 
L 361.963958 87.035333 
L 361.963958 87.035333 
L 358.701592 87.035333 
z
" clip-path="url(#p87f2093d25)" style="fill: #696969"/>
   </g>
   <g id="patch_158">
    <path d="M 360.740571 87.035333 
L 364.002937 87.035333 
L 364.002937 87.035333 
L 360.740571 87.035333 
z
" clip-path="url(#p87f2093d25)" style="fill: #696969"/>
   </g>
   <g id="patch_159">
    <path d="M 362.77955 87.035333 
L 366.041916 87.035333 
L 366.041916 80.401108 
L 362.77955 80.401108 
z
" clip-path="url(#p87f2093d25)" style="fill: #696969"/>
   </g>
   <g id="patch_160">
    <path d="M 364.818529 87.035333 
L 368.080895 87.035333 
L 368.080895 85.308617 
L 364.818529 85.308617 
z
" clip-path="url(#p87f2093d25)" style="fill: #696969"/>
   </g>
   <g id="patch_161">
    <path d="M 366.857508 87.035333 
L 370.119874 87.035333 
L 370.119874 87.035333 
L 366.857508 87.035333 
z
" clip-path="url(#p87f2093d25)" style="fill: #696969"/>
   </g>
   <g id="patch_162">
    <path d="M 368.896487 87.035333 
L 372.158853 87.035333 
L 372.158853 87.035333 
L 368.896487 87.035333 
z
" clip-path="url(#p87f2093d25)" style="fill: #696969"/>
   </g>
   <g id="patch_163">
    <path d="M 370.935466 87.035333 
L 374.197832 87.035333 
L 374.197832 87.035333 
L 370.935466 87.035333 
z
" clip-path="url(#p87f2093d25)" style="fill: #696969"/>
   </g>
   <g id="patch_164">
    <path d="M 372.974445 87.035333 
L 376.236812 87.035333 
L 376.236812 87.035333 
L 372.974445 87.035333 
z
" clip-path="url(#p87f2093d25)" style="fill: #696969"/>
   </g>
   <g id="patch_165">
    <path d="M 375.013424 87.035333 
L 378.275791 87.035333 
L 378.275791 85.944776 
L 375.013424 85.944776 
z
" clip-path="url(#p87f2093d25)" style="fill: #696969"/>
   </g>
   <g id="patch_166">
    <path d="M 377.052403 87.035333 
L 380.31477 87.035333 
L 380.31477 87.035333 
L 377.052403 87.035333 
z
" clip-path="url(#p87f2093d25)" style="fill: #696969"/>
   </g>
   <g id="patch_167">
    <path d="M 379.091382 87.035333 
L 382.353749 87.035333 
L 382.353749 87.035333 
L 379.091382 87.035333 
z
" clip-path="url(#p87f2093d25)" style="fill: #696969"/>
   </g>
   <g id="patch_168">
    <path d="M 381.130361 87.035333 
L 384.392728 87.035333 
L 384.392728 87.035333 
L 381.130361 87.035333 
z
" clip-path="url(#p87f2093d25)" style="fill: #696969"/>
   </g>
   <g id="patch_169">
    <path d="M 383.16934 87.035333 
L 386.431707 87.035333 
L 386.431707 87.035333 
L 383.16934 87.035333 
z
" clip-path="url(#p87f2093d25)" style="fill: #696969"/>
   </g>
   <g id="patch_170">
    <path d="M 385.208319 87.035333 
L 388.470686 87.035333 
L 388.470686 87.035333 
L 385.208319 87.035333 
z
" clip-path="url(#p87f2093d25)" style="fill: #696969"/>
   </g>
   <g id="patch_171">
    <path d="M 387.247298 87.035333 
L 390.509665 87.035333 
L 390.509665 87.035333 
L 387.247298 87.035333 
z
" clip-path="url(#p87f2093d25)" style="fill: #696969"/>
   </g>
   <g id="patch_172">
    <path d="M 389.286277 87.035333 
L 392.548644 87.035333 
L 392.548644 83.218382 
L 389.286277 83.218382 
z
" clip-path="url(#p87f2093d25)" style="fill: #696969"/>
   </g>
   <g id="patch_173">
    <path d="M 391.325257 87.035333 
L 394.587623 87.035333 
L 394.587623 87.035333 
L 391.325257 87.035333 
z
" clip-path="url(#p87f2093d25)" style="fill: #696969"/>
   </g>
   <g id="patch_174">
    <path d="M 393.364236 87.035333 
L 396.626602 87.035333 
L 396.626602 82.309584 
L 393.364236 82.309584 
z
" clip-path="url(#p87f2093d25)" style="fill: #696969"/>
   </g>
   <g id="patch_175">
    <path d="M 395.403215 87.035333 
L 398.665581 87.035333 
L 398.665581 87.035333 
L 395.403215 87.035333 
z
" clip-path="url(#p87f2093d25)" style="fill: #696969"/>
   </g>
   <g id="patch_176">
    <path d="M 397.442194 87.035333 
L 400.70456 87.035333 
L 400.70456 86.490055 
L 397.442194 86.490055 
z
" clip-path="url(#p87f2093d25)" style="fill: #696969"/>
   </g>
   <g id="patch_177">
    <path d="M 399.481173 87.035333 
L 402.743539 87.035333 
L 402.743539 87.035333 
L 399.481173 87.035333 
z
" clip-path="url(#p87f2093d25)" style="fill: #696969"/>
   </g>
   <g id="patch_178">
    <path d="M 401.520152 87.035333 
L 404.782518 87.035333 
L 404.782518 87.035333 
L 401.520152 87.035333 
z
" clip-path="url(#p87f2093d25)" style="fill: #696969"/>
   </g>
   <g id="patch_179">
    <path d="M 403.559131 87.035333 
L 406.821497 87.035333 
L 406.821497 81.400786 
L 403.559131 81.400786 
z
" clip-path="url(#p87f2093d25)" style="fill: #696969"/>
   </g>
   <g id="patch_180">
    <path d="M 405.59811 87.035333 
L 408.860476 87.035333 
L 408.860476 84.945098 
L 405.59811 84.945098 
z
" clip-path="url(#p87f2093d25)" style="fill: #696969"/>
   </g>
   <g id="patch_181">
    <path d="M 407.637089 87.035333 
L 410.899455 87.035333 
L 410.899455 65.5877 
L 407.637089 65.5877 
z
" clip-path="url(#p87f2093d25)" style="fill: #696969"/>
   </g>
   <g id="patch_182">
    <path d="M 409.676068 87.035333 
L 412.938435 87.035333 
L 412.938435 74.94832 
L 409.676068 74.94832 
z
" clip-path="url(#p87f2093d25)" style="fill: #696969"/>
   </g>
   <g id="patch_183">
    <path d="M 411.715047 87.035333 
L 414.977414 87.035333 
L 414.977414 85.035978 
L 411.715047 85.035978 
z
" clip-path="url(#p87f2093d25)" style="fill: #696969"/>
   </g>
   <g id="patch_184">
    <path d="M 413.754026 87.035333 
L 417.016393 87.035333 
L 417.016393 68.586734 
L 413.754026 68.586734 
z
" clip-path="url(#p87f2093d25)" style="fill: #696969"/>
   </g>
   <g id="patch_185">
    <path d="M 415.793005 87.035333 
L 419.055372 87.035333 
L 419.055372 74.76656 
L 415.793005 74.76656 
z
" clip-path="url(#p87f2093d25)" style="fill: #696969"/>
   </g>
   <g id="patch_186">
    <path d="M 417.831984 87.035333 
L 421.094351 87.035333 
L 421.094351 76.038877 
L 417.831984 76.038877 
z
" clip-path="url(#p87f2093d25)" style="fill: #696969"/>
   </g>
   <g id="patch_187">
    <path d="M 419.870963 87.035333 
L 423.13333 87.035333 
L 423.13333 87.035333 
L 419.870963 87.035333 
z
" clip-path="url(#p87f2093d25)" style="fill: #696969"/>
   </g>
   <g id="patch_188">
    <path d="M 421.909942 87.035333 
L 425.172309 87.035333 
L 425.172309 79.674069 
L 421.909942 79.674069 
z
" clip-path="url(#p87f2093d25)" style="fill: #696969"/>
   </g>
   <g id="patch_189">
    <path d="M 423.948921 87.035333 
L 427.211288 87.035333 
L 427.211288 84.308939 
L 423.948921 84.308939 
z
" clip-path="url(#p87f2093d25)" style="fill: #696969"/>
   </g>
   <g id="patch_190">
    <path d="M 425.987901 87.035333 
L 429.250267 87.035333 
L 429.250267 77.129435 
L 425.987901 77.129435 
z
" clip-path="url(#p87f2093d25)" style="fill: #696969"/>
   </g>
   <g id="patch_191">
    <path d="M 428.02688 87.035333 
L 431.289246 87.035333 
L 431.289246 62.588667 
L 428.02688 62.588667 
z
" clip-path="url(#p87f2093d25)" style="fill: #696969"/>
   </g>
   <g id="patch_192">
    <path d="M 430.065859 87.035333 
L 433.328225 87.035333 
L 433.328225 70.767849 
L 430.065859 70.767849 
z
" clip-path="url(#p87f2093d25)" style="fill: #696969"/>
   </g>
   <g id="patch_193">
    <path d="M 432.104838 87.035333 
L 435.367204 87.035333 
L 435.367204 80.491988 
L 432.104838 80.491988 
z
" clip-path="url(#p87f2093d25)" style="fill: #696969"/>
   </g>
   <g id="patch_194">
    <path d="M 434.143817 87.035333 
L 437.406183 87.035333 
L 437.406183 74.76656 
L 434.143817 74.76656 
z
" clip-path="url(#p87f2093d25)" style="fill: #696969"/>
   </g>
   <g id="matplotlib.axis_1">
    <g id="xtick_1">
     <g id="line2d_1">
      <defs>
       <path id="mffd9e6404e" d="M 0 0 
L 0 3.5 
" style="stroke: #000000; stroke-width: 0.8"/>
      </defs>
      <g>
       <use xlink:href="#mffd9e6404e" x="46.33" y="89.48" style="stroke: #000000; stroke-width: 0.8"/>
      </g>
     </g>
     <g id="text_1">
      <!-- 0 -->
      <g transform="translate(42.5125 105.598125) scale(0.12 -0.12)">
       <defs>
        <path id="DejaVuSans-30" d="M 2034 4250 
Q 1547 4250 1301 3770 
Q 1056 3291 1056 2328 
Q 1056 1369 1301 889 
Q 1547 409 2034 409 
Q 2525 409 2770 889 
Q 3016 1369 3016 2328 
Q 3016 3291 2770 3770 
Q 2525 4250 2034 4250 
z
M 2034 4750 
Q 2819 4750 3233 4129 
Q 3647 3509 3647 2328 
Q 3647 1150 3233 529 
Q 2819 -91 2034 -91 
Q 1250 -91 836 529 
Q 422 1150 422 2328 
Q 422 3509 836 4129 
Q 1250 4750 2034 4750 
z
" transform="scale(0.015625)"/>
       </defs>
       <use xlink:href="#DejaVuSans-30"/>
      </g>
     </g>
    </g>
    <g id="xtick_2">
     <g id="line2d_2">
      <g>
       <use xlink:href="#mffd9e6404e" x="127.889162" y="89.48" style="stroke: #000000; stroke-width: 0.8"/>
      </g>
     </g>
     <g id="text_2">
      <!-- 20 -->
      <g transform="translate(120.254162 105.598125) scale(0.12 -0.12)">
       <defs>
        <path id="DejaVuSans-32" d="M 1228 531 
L 3431 531 
L 3431 0 
L 469 0 
L 469 531 
Q 828 903 1448 1529 
Q 2069 2156 2228 2338 
Q 2531 2678 2651 2914 
Q 2772 3150 2772 3378 
Q 2772 3750 2511 3984 
Q 2250 4219 1831 4219 
Q 1534 4219 1204 4116 
Q 875 4013 500 3803 
L 500 4441 
Q 881 4594 1212 4672 
Q 1544 4750 1819 4750 
Q 2544 4750 2975 4387 
Q 3406 4025 3406 3419 
Q 3406 3131 3298 2873 
Q 3191 2616 2906 2266 
Q 2828 2175 2409 1742 
Q 1991 1309 1228 531 
z
" transform="scale(0.015625)"/>
       </defs>
       <use xlink:href="#DejaVuSans-32"/>
       <use xlink:href="#DejaVuSans-30" x="63.623047"/>
      </g>
     </g>
    </g>
    <g id="xtick_3">
     <g id="line2d_3">
      <g>
       <use xlink:href="#mffd9e6404e" x="209.448325" y="89.48" style="stroke: #000000; stroke-width: 0.8"/>
      </g>
     </g>
     <g id="text_3">
      <!-- 40 -->
      <g transform="translate(201.813325 105.598125) scale(0.12 -0.12)">
       <defs>
        <path id="DejaVuSans-34" d="M 2419 4116 
L 825 1625 
L 2419 1625 
L 2419 4116 
z
M 2253 4666 
L 3047 4666 
L 3047 1625 
L 3713 1625 
L 3713 1100 
L 3047 1100 
L 3047 0 
L 2419 0 
L 2419 1100 
L 313 1100 
L 313 1709 
L 2253 4666 
z
" transform="scale(0.015625)"/>
       </defs>
       <use xlink:href="#DejaVuSans-34"/>
       <use xlink:href="#DejaVuSans-30" x="63.623047"/>
      </g>
     </g>
    </g>
    <g id="xtick_4">
     <g id="line2d_4">
      <g>
       <use xlink:href="#mffd9e6404e" x="291.007487" y="89.48" style="stroke: #000000; stroke-width: 0.8"/>
      </g>
     </g>
     <g id="text_4">
      <!-- 60 -->
      <g transform="translate(283.372487 105.598125) scale(0.12 -0.12)">
       <defs>
        <path id="DejaVuSans-36" d="M 2113 2584 
Q 1688 2584 1439 2293 
Q 1191 2003 1191 1497 
Q 1191 994 1439 701 
Q 1688 409 2113 409 
Q 2538 409 2786 701 
Q 3034 994 3034 1497 
Q 3034 2003 2786 2293 
Q 2538 2584 2113 2584 
z
M 3366 4563 
L 3366 3988 
Q 3128 4100 2886 4159 
Q 2644 4219 2406 4219 
Q 1781 4219 1451 3797 
Q 1122 3375 1075 2522 
Q 1259 2794 1537 2939 
Q 1816 3084 2150 3084 
Q 2853 3084 3261 2657 
Q 3669 2231 3669 1497 
Q 3669 778 3244 343 
Q 2819 -91 2113 -91 
Q 1303 -91 875 529 
Q 447 1150 447 2328 
Q 447 3434 972 4092 
Q 1497 4750 2381 4750 
Q 2619 4750 2861 4703 
Q 3103 4656 3366 4563 
z
" transform="scale(0.015625)"/>
       </defs>
       <use xlink:href="#DejaVuSans-36"/>
       <use xlink:href="#DejaVuSans-30" x="63.623047"/>
      </g>
     </g>
    </g>
    <g id="xtick_5">
     <g id="line2d_5">
      <g>
       <use xlink:href="#mffd9e6404e" x="372.566649" y="89.48" style="stroke: #000000; stroke-width: 0.8"/>
      </g>
     </g>
     <g id="text_5">
      <!-- 80 -->
      <g transform="translate(364.931649 105.598125) scale(0.12 -0.12)">
       <defs>
        <path id="DejaVuSans-38" d="M 2034 2216 
Q 1584 2216 1326 1975 
Q 1069 1734 1069 1313 
Q 1069 891 1326 650 
Q 1584 409 2034 409 
Q 2484 409 2743 651 
Q 3003 894 3003 1313 
Q 3003 1734 2745 1975 
Q 2488 2216 2034 2216 
z
M 1403 2484 
Q 997 2584 770 2862 
Q 544 3141 544 3541 
Q 544 4100 942 4425 
Q 1341 4750 2034 4750 
Q 2731 4750 3128 4425 
Q 3525 4100 3525 3541 
Q 3525 3141 3298 2862 
Q 3072 2584 2669 2484 
Q 3125 2378 3379 2068 
Q 3634 1759 3634 1313 
Q 3634 634 3220 271 
Q 2806 -91 2034 -91 
Q 1263 -91 848 271 
Q 434 634 434 1313 
Q 434 1759 690 2068 
Q 947 2378 1403 2484 
z
M 1172 3481 
Q 1172 3119 1398 2916 
Q 1625 2713 2034 2713 
Q 2441 2713 2670 2916 
Q 2900 3119 2900 3481 
Q 2900 3844 2670 4047 
Q 2441 4250 2034 4250 
Q 1625 4250 1398 4047 
Q 1172 3844 1172 3481 
z
" transform="scale(0.015625)"/>
       </defs>
       <use xlink:href="#DejaVuSans-38"/>
       <use xlink:href="#DejaVuSans-30" x="63.623047"/>
      </g>
     </g>
    </g>
   </g>
   <g id="matplotlib.axis_2">
    <g id="ytick_1">
     <g id="line2d_6">
      <defs>
       <path id="ma544e26fb6" d="M 0 0 
L -3.5 0 
" style="stroke: #000000; stroke-width: 0.8"/>
      </defs>
      <g>
       <use xlink:href="#ma544e26fb6" x="46.33" y="87.035333" style="stroke: #000000; stroke-width: 0.8"/>
      </g>
     </g>
     <g id="text_6">
      <!-- 0.0 -->
      <g transform="translate(20.24625 91.594396) scale(0.12 -0.12)">
       <defs>
        <path id="DejaVuSans-2e" d="M 684 794 
L 1344 794 
L 1344 0 
L 684 0 
L 684 794 
z
" transform="scale(0.015625)"/>
       </defs>
       <use xlink:href="#DejaVuSans-30"/>
       <use xlink:href="#DejaVuSans-2e" x="63.623047"/>
       <use xlink:href="#DejaVuSans-30" x="95.410156"/>
      </g>
     </g>
    </g>
    <g id="ytick_2">
     <g id="line2d_7">
      <g>
       <use xlink:href="#ma544e26fb6" x="46.33" y="64.315383" style="stroke: #000000; stroke-width: 0.8"/>
      </g>
     </g>
     <g id="text_7">
      <!-- 2.5 -->
      <g transform="translate(20.24625 68.874445) scale(0.12 -0.12)">
       <defs>
        <path id="DejaVuSans-35" d="M 691 4666 
L 3169 4666 
L 3169 4134 
L 1269 4134 
L 1269 2991 
Q 1406 3038 1543 3061 
Q 1681 3084 1819 3084 
Q 2600 3084 3056 2656 
Q 3513 2228 3513 1497 
Q 3513 744 3044 326 
Q 2575 -91 1722 -91 
Q 1428 -91 1123 -41 
Q 819 9 494 109 
L 494 744 
Q 775 591 1075 516 
Q 1375 441 1709 441 
Q 2250 441 2565 725 
Q 2881 1009 2881 1497 
Q 2881 1984 2565 2268 
Q 2250 2553 1709 2553 
Q 1456 2553 1204 2497 
Q 953 2441 691 2322 
L 691 4666 
z
" transform="scale(0.015625)"/>
       </defs>
       <use xlink:href="#DejaVuSans-32"/>
       <use xlink:href="#DejaVuSans-2e" x="63.623047"/>
       <use xlink:href="#DejaVuSans-35" x="95.410156"/>
      </g>
     </g>
    </g>
    <g id="text_8">
     <!-- 1e2 -->
     <g transform="translate(46.33 57.144) scale(0.1 -0.1)">
      <defs>
       <path id="DejaVuSans-31" d="M 794 531 
L 1825 531 
L 1825 4091 
L 703 3866 
L 703 4441 
L 1819 4666 
L 2450 4666 
L 2450 531 
L 3481 531 
L 3481 0 
L 794 0 
L 794 531 
z
" transform="scale(0.015625)"/>
       <path id="DejaVuSans-65" d="M 3597 1894 
L 3597 1613 
L 953 1613 
Q 991 1019 1311 708 
Q 1631 397 2203 397 
Q 2534 397 2845 478 
Q 3156 559 3463 722 
L 3463 178 
Q 3153 47 2828 -22 
Q 2503 -91 2169 -91 
Q 1331 -91 842 396 
Q 353 884 353 1716 
Q 353 2575 817 3079 
Q 1281 3584 2069 3584 
Q 2775 3584 3186 3129 
Q 3597 2675 3597 1894 
z
M 3022 2063 
Q 3016 2534 2758 2815 
Q 2500 3097 2075 3097 
Q 1594 3097 1305 2825 
Q 1016 2553 972 2059 
L 3022 2063 
z
" transform="scale(0.015625)"/>
      </defs>
      <use xlink:href="#DejaVuSans-31"/>
      <use xlink:href="#DejaVuSans-65" x="63.623047"/>
      <use xlink:href="#DejaVuSans-32" x="125.146484"/>
     </g>
    </g>
   </g>
   <g id="line2d_8">
    <path d="M 46.33 80.417098 
L 56.524895 83.561255 
L 60.602853 84.631642 
L 64.680812 85.49077 
L 68.75877 86.085422 
L 72.836728 86.378762 
L 76.914686 86.352621 
L 80.992644 86.008618 
L 85.070602 85.368061 
L 89.14856 84.470629 
L 93.226518 83.371911 
L 101.382435 80.851103 
L 107.499372 78.985479 
L 111.57733 77.899166 
L 115.655288 77.018624 
L 119.733246 76.398398 
L 123.811204 76.076906 
L 127.889162 76.074063 
L 131.96712 76.390044 
L 136.045079 77.005277 
L 140.123037 77.881652 
L 144.200995 78.964883 
L 152.356911 81.474864 
L 158.473848 83.351098 
L 162.551806 84.45279 
L 166.629764 85.3543 
L 170.707723 85.999788 
L 174.785681 86.349269 
L 178.863639 86.381096 
L 182.941597 86.093296 
L 187.019555 85.503698 
L 191.097513 84.648822 
L 195.175471 83.581623 
L 201.292408 81.729925 
L 209.448325 79.197837 
L 213.526283 78.081323 
L 217.604241 77.159298 
L 221.682199 76.488874 
L 225.760157 76.11158 
L 229.838115 76.050786 
L 233.916073 76.310259 
L 237.994031 76.873926 
L 242.07199 77.706871 
L 246.149948 78.7575 
L 252.266885 80.596529 
L 262.46178 83.721468 
L 266.539738 84.766011 
L 270.617696 85.590972 
L 274.695654 86.14525 
L 278.773613 86.394511 
L 282.851571 86.323315 
L 286.929529 85.936071 
L 291.007487 85.256768 
L 295.085445 84.327484 
L 301.202382 82.594133 
L 315.475236 78.269814 
L 319.553194 77.308164 
L 323.631152 76.588895 
L 327.70911 76.15656 
L 331.787068 76.037939 
L 335.865026 76.24038 
L 339.942984 76.751344 
L 344.020942 77.539179 
L 348.098901 78.555085 
L 354.215838 80.366002 
L 364.410733 83.514946 
L 368.488691 84.592479 
L 372.566649 85.461178 
L 376.644607 86.067234 
L 380.722565 86.373105 
L 384.800524 86.359846 
L 388.878482 86.028276 
L 392.95644 85.398935 
L 397.034398 84.510807 
L 401.112356 83.418904 
L 409.268272 80.902751 
L 415.385209 79.032295 
L 419.463168 77.939079 
L 423.541126 77.049162 
L 427.619084 76.417669 
L 431.697042 76.083717 
L 435.775 76.067991 
L 435.775 76.067991 
" clip-path="url(#p87f2093d25)" style="fill: none; stroke: #191970; stroke-width: 3; stroke-linecap: square"/>
   </g>
   <g id="line2d_9">
    <path d="M 125.886187 89.48 
L 125.886187 60.144 
" clip-path="url(#p87f2093d25)" style="fill: none; stroke-dasharray: 7.4,3.2; stroke-dashoffset: 0; stroke: #000000; stroke-opacity: 0.8; stroke-width: 2"/>
   </g>
   <g id="patch_195">
    <path d="M 46.33 89.48 
L 46.33 60.144 
" style="fill: none; stroke: #000000; stroke-width: 0.8; stroke-linejoin: miter; stroke-linecap: square"/>
   </g>
   <g id="patch_196">
    <path d="M 46.33 89.48 
L 435.775 89.48 
" style="fill: none; stroke: #000000; stroke-width: 0.8; stroke-linejoin: miter; stroke-linecap: square"/>
   </g>
   <g id="text_9">
    <!-- 1 -->
    <g transform="translate(237.87125 42.946187) scale(0.1 -0.1)">
     <use xlink:href="#DejaVuSans-31"/>
    </g>
    <!-- (AC: 19.51, PR: 25.18) -->
    <g transform="translate(185.640781 54.144) scale(0.1 -0.1)">
     <defs>
      <path id="DejaVuSans-28" d="M 1984 4856 
Q 1566 4138 1362 3434 
Q 1159 2731 1159 2009 
Q 1159 1288 1364 580 
Q 1569 -128 1984 -844 
L 1484 -844 
Q 1016 -109 783 600 
Q 550 1309 550 2009 
Q 550 2706 781 3412 
Q 1013 4119 1484 4856 
L 1984 4856 
z
" transform="scale(0.015625)"/>
      <path id="DejaVuSans-41" d="M 2188 4044 
L 1331 1722 
L 3047 1722 
L 2188 4044 
z
M 1831 4666 
L 2547 4666 
L 4325 0 
L 3669 0 
L 3244 1197 
L 1141 1197 
L 716 0 
L 50 0 
L 1831 4666 
z
" transform="scale(0.015625)"/>
      <path id="DejaVuSans-43" d="M 4122 4306 
L 4122 3641 
Q 3803 3938 3442 4084 
Q 3081 4231 2675 4231 
Q 1875 4231 1450 3742 
Q 1025 3253 1025 2328 
Q 1025 1406 1450 917 
Q 1875 428 2675 428 
Q 3081 428 3442 575 
Q 3803 722 4122 1019 
L 4122 359 
Q 3791 134 3420 21 
Q 3050 -91 2638 -91 
Q 1578 -91 968 557 
Q 359 1206 359 2328 
Q 359 3453 968 4101 
Q 1578 4750 2638 4750 
Q 3056 4750 3426 4639 
Q 3797 4528 4122 4306 
z
" transform="scale(0.015625)"/>
      <path id="DejaVuSans-3a" d="M 750 794 
L 1409 794 
L 1409 0 
L 750 0 
L 750 794 
z
M 750 3309 
L 1409 3309 
L 1409 2516 
L 750 2516 
L 750 3309 
z
" transform="scale(0.015625)"/>
      <path id="DejaVuSans-20" transform="scale(0.015625)"/>
      <path id="DejaVuSans-39" d="M 703 97 
L 703 672 
Q 941 559 1184 500 
Q 1428 441 1663 441 
Q 2288 441 2617 861 
Q 2947 1281 2994 2138 
Q 2813 1869 2534 1725 
Q 2256 1581 1919 1581 
Q 1219 1581 811 2004 
Q 403 2428 403 3163 
Q 403 3881 828 4315 
Q 1253 4750 1959 4750 
Q 2769 4750 3195 4129 
Q 3622 3509 3622 2328 
Q 3622 1225 3098 567 
Q 2575 -91 1691 -91 
Q 1453 -91 1209 -44 
Q 966 3 703 97 
z
M 1959 2075 
Q 2384 2075 2632 2365 
Q 2881 2656 2881 3163 
Q 2881 3666 2632 3958 
Q 2384 4250 1959 4250 
Q 1534 4250 1286 3958 
Q 1038 3666 1038 3163 
Q 1038 2656 1286 2365 
Q 1534 2075 1959 2075 
z
" transform="scale(0.015625)"/>
      <path id="DejaVuSans-2c" d="M 750 794 
L 1409 794 
L 1409 256 
L 897 -744 
L 494 -744 
L 750 256 
L 750 794 
z
" transform="scale(0.015625)"/>
      <path id="DejaVuSans-50" d="M 1259 4147 
L 1259 2394 
L 2053 2394 
Q 2494 2394 2734 2622 
Q 2975 2850 2975 3272 
Q 2975 3691 2734 3919 
Q 2494 4147 2053 4147 
L 1259 4147 
z
M 628 4666 
L 2053 4666 
Q 2838 4666 3239 4311 
Q 3641 3956 3641 3272 
Q 3641 2581 3239 2228 
Q 2838 1875 2053 1875 
L 1259 1875 
L 1259 0 
L 628 0 
L 628 4666 
z
" transform="scale(0.015625)"/>
      <path id="DejaVuSans-52" d="M 2841 2188 
Q 3044 2119 3236 1894 
Q 3428 1669 3622 1275 
L 4263 0 
L 3584 0 
L 2988 1197 
Q 2756 1666 2539 1819 
Q 2322 1972 1947 1972 
L 1259 1972 
L 1259 0 
L 628 0 
L 628 4666 
L 2053 4666 
Q 2853 4666 3247 4331 
Q 3641 3997 3641 3322 
Q 3641 2881 3436 2590 
Q 3231 2300 2841 2188 
z
M 1259 4147 
L 1259 2491 
L 2053 2491 
Q 2509 2491 2742 2702 
Q 2975 2913 2975 3322 
Q 2975 3731 2742 3939 
Q 2509 4147 2053 4147 
L 1259 4147 
z
" transform="scale(0.015625)"/>
      <path id="DejaVuSans-29" d="M 513 4856 
L 1013 4856 
Q 1481 4119 1714 3412 
Q 1947 2706 1947 2009 
Q 1947 1309 1714 600 
Q 1481 -109 1013 -844 
L 513 -844 
Q 928 -128 1133 580 
Q 1338 1288 1338 2009 
Q 1338 2731 1133 3434 
Q 928 4138 513 4856 
z
" transform="scale(0.015625)"/>
     </defs>
     <use xlink:href="#DejaVuSans-28"/>
     <use xlink:href="#DejaVuSans-41" x="39.013672"/>
     <use xlink:href="#DejaVuSans-43" x="105.671875"/>
     <use xlink:href="#DejaVuSans-3a" x="175.496094"/>
     <use xlink:href="#DejaVuSans-20" x="209.1875"/>
     <use xlink:href="#DejaVuSans-31" x="240.974609"/>
     <use xlink:href="#DejaVuSans-39" x="304.597656"/>
     <use xlink:href="#DejaVuSans-2e" x="368.220703"/>
     <use xlink:href="#DejaVuSans-35" x="400.007812"/>
     <use xlink:href="#DejaVuSans-31" x="463.630859"/>
     <use xlink:href="#DejaVuSans-2c" x="527.253906"/>
     <use xlink:href="#DejaVuSans-20" x="559.041016"/>
     <use xlink:href="#DejaVuSans-50" x="590.828125"/>
     <use xlink:href="#DejaVuSans-52" x="651.130859"/>
     <use xlink:href="#DejaVuSans-3a" x="717.488281"/>
     <use xlink:href="#DejaVuSans-20" x="751.179688"/>
     <use xlink:href="#DejaVuSans-32" x="782.966797"/>
     <use xlink:href="#DejaVuSans-35" x="846.589844"/>
     <use xlink:href="#DejaVuSans-2e" x="910.212891"/>
     <use xlink:href="#DejaVuSans-31" x="942"/>
     <use xlink:href="#DejaVuSans-38" x="1005.623047"/>
     <use xlink:href="#DejaVuSans-29" x="1069.246094"/>
    </g>
   </g>
  </g>
  <g id="axes_2">
   <g id="patch_197">
    <path d="M 450.075 89.48 
L 839.52 89.48 
L 839.52 60.144 
L 450.075 60.144 
z
" style="fill: #ffffff"/>
   </g>
   <g id="patch_198">
    <path d="M 447.896287 87.035333 
L 452.253713 87.035333 
L 452.253713 81.219026 
L 447.896287 81.219026 
z
" clip-path="url(#p1ce02cdc28)" style="fill: #696969"/>
   </g>
   <g id="patch_199">
    <path d="M 450.619678 87.035333 
L 454.977105 87.035333 
L 454.977105 85.035978 
L 450.619678 85.035978 
z
" clip-path="url(#p1ce02cdc28)" style="fill: #696969"/>
   </g>
   <g id="patch_200">
    <path d="M 453.34307 87.035333 
L 457.700497 87.035333 
L 457.700497 78.947031 
L 453.34307 78.947031 
z
" clip-path="url(#p1ce02cdc28)" style="fill: #696969"/>
   </g>
   <g id="patch_201">
    <path d="M 456.066462 87.035333 
L 460.423888 87.035333 
L 460.423888 77.311195 
L 456.066462 77.311195 
z
" clip-path="url(#p1ce02cdc28)" style="fill: #696969"/>
   </g>
   <g id="patch_202">
    <path d="M 458.789853 87.035333 
L 463.14728 87.035333 
L 463.14728 78.583512 
L 458.789853 78.583512 
z
" clip-path="url(#p1ce02cdc28)" style="fill: #696969"/>
   </g>
   <g id="patch_203">
    <path d="M 461.513245 87.035333 
L 465.870671 87.035333 
L 465.870671 80.673747 
L 461.513245 80.673747 
z
" clip-path="url(#p1ce02cdc28)" style="fill: #696969"/>
   </g>
   <g id="patch_204">
    <path d="M 464.236636 87.035333 
L 468.594063 87.035333 
L 468.594063 76.402397 
L 464.236636 76.402397 
z
" clip-path="url(#p1ce02cdc28)" style="fill: #696969"/>
   </g>
   <g id="patch_205">
    <path d="M 466.960028 87.035333 
L 471.317455 87.035333 
L 471.317455 71.858406 
L 466.960028 71.858406 
z
" clip-path="url(#p1ce02cdc28)" style="fill: #696969"/>
   </g>
   <g id="patch_206">
    <path d="M 469.68342 87.035333 
L 474.040846 87.035333 
L 474.040846 86.035656 
L 469.68342 86.035656 
z
" clip-path="url(#p1ce02cdc28)" style="fill: #696969"/>
   </g>
   <g id="patch_207">
    <path d="M 472.406811 87.035333 
L 476.764238 87.035333 
L 476.764238 76.947675 
L 472.406811 76.947675 
z
" clip-path="url(#p1ce02cdc28)" style="fill: #696969"/>
   </g>
   <g id="patch_208">
    <path d="M 475.130203 87.035333 
L 479.487629 87.035333 
L 479.487629 75.311839 
L 475.130203 75.311839 
z
" clip-path="url(#p1ce02cdc28)" style="fill: #696969"/>
   </g>
   <g id="patch_209">
    <path d="M 477.853594 87.035333 
L 482.211021 87.035333 
L 482.211021 87.035333 
L 477.853594 87.035333 
z
" clip-path="url(#p1ce02cdc28)" style="fill: #696969"/>
   </g>
   <g id="patch_210">
    <path d="M 480.576986 87.035333 
L 484.934413 87.035333 
L 484.934413 78.129113 
L 480.576986 78.129113 
z
" clip-path="url(#p1ce02cdc28)" style="fill: #696969"/>
   </g>
   <g id="patch_211">
    <path d="M 483.300378 87.035333 
L 487.657804 87.035333 
L 487.657804 81.855185 
L 483.300378 81.855185 
z
" clip-path="url(#p1ce02cdc28)" style="fill: #696969"/>
   </g>
   <g id="patch_212">
    <path d="M 486.023769 87.035333 
L 490.381196 87.035333 
L 490.381196 81.946064 
L 486.023769 81.946064 
z
" clip-path="url(#p1ce02cdc28)" style="fill: #696969"/>
   </g>
   <g id="patch_213">
    <path d="M 488.747161 87.035333 
L 493.104587 87.035333 
L 493.104587 87.035333 
L 488.747161 87.035333 
z
" clip-path="url(#p1ce02cdc28)" style="fill: #696969"/>
   </g>
   <g id="patch_214">
    <path d="M 491.470552 87.035333 
L 495.827979 87.035333 
L 495.827979 87.035333 
L 491.470552 87.035333 
z
" clip-path="url(#p1ce02cdc28)" style="fill: #696969"/>
   </g>
   <g id="patch_215">
    <path d="M 494.193944 87.035333 
L 498.551371 87.035333 
L 498.551371 83.400141 
L 494.193944 83.400141 
z
" clip-path="url(#p1ce02cdc28)" style="fill: #696969"/>
   </g>
   <g id="patch_216">
    <path d="M 496.917336 87.035333 
L 501.274762 87.035333 
L 501.274762 86.671814 
L 496.917336 86.671814 
z
" clip-path="url(#p1ce02cdc28)" style="fill: #696969"/>
   </g>
   <g id="patch_217">
    <path d="M 499.640727 87.035333 
L 503.998154 87.035333 
L 503.998154 87.035333 
L 499.640727 87.035333 
z
" clip-path="url(#p1ce02cdc28)" style="fill: #696969"/>
   </g>
   <g id="patch_218">
    <path d="M 502.364119 87.035333 
L 506.721545 87.035333 
L 506.721545 87.035333 
L 502.364119 87.035333 
z
" clip-path="url(#p1ce02cdc28)" style="fill: #696969"/>
   </g>
   <g id="patch_219">
    <path d="M 505.08751 87.035333 
L 509.444937 87.035333 
L 509.444937 87.035333 
L 505.08751 87.035333 
z
" clip-path="url(#p1ce02cdc28)" style="fill: #696969"/>
   </g>
   <g id="patch_220">
    <path d="M 507.810902 87.035333 
L 512.168329 87.035333 
L 512.168329 87.035333 
L 507.810902 87.035333 
z
" clip-path="url(#p1ce02cdc28)" style="fill: #696969"/>
   </g>
   <g id="patch_221">
    <path d="M 510.534294 87.035333 
L 514.89172 87.035333 
L 514.89172 87.035333 
L 510.534294 87.035333 
z
" clip-path="url(#p1ce02cdc28)" style="fill: #696969"/>
   </g>
   <g id="patch_222">
    <path d="M 513.257685 87.035333 
L 517.615112 87.035333 
L 517.615112 87.035333 
L 513.257685 87.035333 
z
" clip-path="url(#p1ce02cdc28)" style="fill: #696969"/>
   </g>
   <g id="patch_223">
    <path d="M 515.981077 87.035333 
L 520.338503 87.035333 
L 520.338503 87.035333 
L 515.981077 87.035333 
z
" clip-path="url(#p1ce02cdc28)" style="fill: #696969"/>
   </g>
   <g id="patch_224">
    <path d="M 518.704469 87.035333 
L 523.061895 87.035333 
L 523.061895 80.855507 
L 518.704469 80.855507 
z
" clip-path="url(#p1ce02cdc28)" style="fill: #696969"/>
   </g>
   <g id="patch_225">
    <path d="M 521.42786 87.035333 
L 525.785287 87.035333 
L 525.785287 79.49231 
L 521.42786 79.49231 
z
" clip-path="url(#p1ce02cdc28)" style="fill: #696969"/>
   </g>
   <g id="patch_226">
    <path d="M 524.151252 87.035333 
L 528.508678 87.035333 
L 528.508678 87.035333 
L 524.151252 87.035333 
z
" clip-path="url(#p1ce02cdc28)" style="fill: #696969"/>
   </g>
   <g id="patch_227">
    <path d="M 526.874643 87.035333 
L 531.23207 87.035333 
L 531.23207 81.128146 
L 526.874643 81.128146 
z
" clip-path="url(#p1ce02cdc28)" style="fill: #696969"/>
   </g>
   <g id="patch_228">
    <path d="M 529.598035 87.035333 
L 533.955462 87.035333 
L 533.955462 83.218382 
L 529.598035 83.218382 
z
" clip-path="url(#p1ce02cdc28)" style="fill: #696969"/>
   </g>
   <g id="patch_229">
    <path d="M 532.321427 87.035333 
L 536.678853 87.035333 
L 536.678853 78.583512 
L 532.321427 78.583512 
z
" clip-path="url(#p1ce02cdc28)" style="fill: #696969"/>
   </g>
   <g id="patch_230">
    <path d="M 535.044818 87.035333 
L 539.402245 87.035333 
L 539.402245 87.035333 
L 535.044818 87.035333 
z
" clip-path="url(#p1ce02cdc28)" style="fill: #696969"/>
   </g>
   <g id="patch_231">
    <path d="M 537.76821 87.035333 
L 542.125636 87.035333 
L 542.125636 85.399497 
L 537.76821 85.399497 
z
" clip-path="url(#p1ce02cdc28)" style="fill: #696969"/>
   </g>
   <g id="patch_232">
    <path d="M 540.491601 87.035333 
L 544.849028 87.035333 
L 544.849028 87.035333 
L 540.491601 87.035333 
z
" clip-path="url(#p1ce02cdc28)" style="fill: #696969"/>
   </g>
   <g id="patch_233">
    <path d="M 543.214993 87.035333 
L 547.57242 87.035333 
L 547.57242 78.583512 
L 543.214993 78.583512 
z
" clip-path="url(#p1ce02cdc28)" style="fill: #696969"/>
   </g>
   <g id="patch_234">
    <path d="M 545.938385 87.035333 
L 550.295811 87.035333 
L 550.295811 79.21967 
L 545.938385 79.21967 
z
" clip-path="url(#p1ce02cdc28)" style="fill: #696969"/>
   </g>
   <g id="patch_235">
    <path d="M 548.661776 87.035333 
L 553.019203 87.035333 
L 553.019203 80.310228 
L 548.661776 80.310228 
z
" clip-path="url(#p1ce02cdc28)" style="fill: #696969"/>
   </g>
   <g id="patch_236">
    <path d="M 551.385168 87.035333 
L 555.742594 87.035333 
L 555.742594 81.400786 
L 551.385168 81.400786 
z
" clip-path="url(#p1ce02cdc28)" style="fill: #696969"/>
   </g>
   <g id="patch_237">
    <path d="M 554.108559 87.035333 
L 558.465986 87.035333 
L 558.465986 71.494887 
L 554.108559 71.494887 
z
" clip-path="url(#p1ce02cdc28)" style="fill: #696969"/>
   </g>
   <g id="patch_238">
    <path d="M 556.831951 87.035333 
L 561.189378 87.035333 
L 561.189378 76.765916 
L 556.831951 76.765916 
z
" clip-path="url(#p1ce02cdc28)" style="fill: #696969"/>
   </g>
   <g id="patch_239">
    <path d="M 559.555343 87.035333 
L 563.912769 87.035333 
L 563.912769 76.038877 
L 559.555343 76.038877 
z
" clip-path="url(#p1ce02cdc28)" style="fill: #696969"/>
   </g>
   <g id="patch_240">
    <path d="M 562.278734 87.035333 
L 566.636161 87.035333 
L 566.636161 81.491665 
L 562.278734 81.491665 
z
" clip-path="url(#p1ce02cdc28)" style="fill: #696969"/>
   </g>
   <g id="patch_241">
    <path d="M 565.002126 87.035333 
L 569.359552 87.035333 
L 569.359552 76.947675 
L 565.002126 76.947675 
z
" clip-path="url(#p1ce02cdc28)" style="fill: #696969"/>
   </g>
   <g id="patch_242">
    <path d="M 567.725517 87.035333 
L 572.082944 87.035333 
L 572.082944 69.677291 
L 567.725517 69.677291 
z
" clip-path="url(#p1ce02cdc28)" style="fill: #696969"/>
   </g>
   <g id="patch_243">
    <path d="M 570.448909 87.035333 
L 574.806336 87.035333 
L 574.806336 87.035333 
L 570.448909 87.035333 
z
" clip-path="url(#p1ce02cdc28)" style="fill: #696969"/>
   </g>
   <g id="patch_244">
    <path d="M 573.172301 87.035333 
L 577.529727 87.035333 
L 577.529727 84.672458 
L 573.172301 84.672458 
z
" clip-path="url(#p1ce02cdc28)" style="fill: #696969"/>
   </g>
   <g id="patch_245">
    <path d="M 575.895692 87.035333 
L 580.253119 87.035333 
L 580.253119 75.584478 
L 575.895692 75.584478 
z
" clip-path="url(#p1ce02cdc28)" style="fill: #696969"/>
   </g>
   <g id="patch_246">
    <path d="M 578.619084 87.035333 
L 582.97651 87.035333 
L 582.97651 76.038877 
L 578.619084 76.038877 
z
" clip-path="url(#p1ce02cdc28)" style="fill: #696969"/>
   </g>
   <g id="patch_247">
    <path d="M 581.342476 87.035333 
L 585.699902 87.035333 
L 585.699902 77.856473 
L 581.342476 77.856473 
z
" clip-path="url(#p1ce02cdc28)" style="fill: #696969"/>
   </g>
   <g id="patch_248">
    <path d="M 584.065867 87.035333 
L 588.423294 87.035333 
L 588.423294 73.676002 
L 584.065867 73.676002 
z
" clip-path="url(#p1ce02cdc28)" style="fill: #696969"/>
   </g>
   <g id="patch_249">
    <path d="M 586.789259 87.035333 
L 591.146685 87.035333 
L 591.146685 70.676969 
L 586.789259 70.676969 
z
" clip-path="url(#p1ce02cdc28)" style="fill: #696969"/>
   </g>
   <g id="patch_250">
    <path d="M 589.51265 87.035333 
L 593.870077 87.035333 
L 593.870077 73.766882 
L 589.51265 73.766882 
z
" clip-path="url(#p1ce02cdc28)" style="fill: #696969"/>
   </g>
   <g id="patch_251">
    <path d="M 592.236042 87.035333 
L 596.593469 87.035333 
L 596.593469 85.308617 
L 592.236042 85.308617 
z
" clip-path="url(#p1ce02cdc28)" style="fill: #696969"/>
   </g>
   <g id="patch_252">
    <path d="M 594.959434 87.035333 
L 599.31686 87.035333 
L 599.31686 69.222892 
L 594.959434 69.222892 
z
" clip-path="url(#p1ce02cdc28)" style="fill: #696969"/>
   </g>
   <g id="patch_253">
    <path d="M 597.682825 87.035333 
L 602.040252 87.035333 
L 602.040252 87.035333 
L 597.682825 87.035333 
z
" clip-path="url(#p1ce02cdc28)" style="fill: #696969"/>
   </g>
   <g id="patch_254">
    <path d="M 600.406217 87.035333 
L 604.763643 87.035333 
L 604.763643 77.856473 
L 600.406217 77.856473 
z
" clip-path="url(#p1ce02cdc28)" style="fill: #696969"/>
   </g>
   <g id="patch_255">
    <path d="M 603.129608 87.035333 
L 607.487035 87.035333 
L 607.487035 81.400786 
L 603.129608 81.400786 
z
" clip-path="url(#p1ce02cdc28)" style="fill: #696969"/>
   </g>
   <g id="patch_256">
    <path d="M 605.853 87.035333 
L 610.210427 87.035333 
L 610.210427 87.035333 
L 605.853 87.035333 
z
" clip-path="url(#p1ce02cdc28)" style="fill: #696969"/>
   </g>
   <g id="patch_257">
    <path d="M 608.576392 87.035333 
L 612.933818 87.035333 
L 612.933818 81.491665 
L 608.576392 81.491665 
z
" clip-path="url(#p1ce02cdc28)" style="fill: #696969"/>
   </g>
   <g id="patch_258">
    <path d="M 611.299783 87.035333 
L 615.65721 87.035333 
L 615.65721 87.035333 
L 611.299783 87.035333 
z
" clip-path="url(#p1ce02cdc28)" style="fill: #696969"/>
   </g>
   <g id="patch_259">
    <path d="M 614.023175 87.035333 
L 618.380601 87.035333 
L 618.380601 84.218059 
L 614.023175 84.218059 
z
" clip-path="url(#p1ce02cdc28)" style="fill: #696969"/>
   </g>
   <g id="patch_260">
    <path d="M 616.746566 87.035333 
L 621.103993 87.035333 
L 621.103993 82.127824 
L 616.746566 82.127824 
z
" clip-path="url(#p1ce02cdc28)" style="fill: #696969"/>
   </g>
   <g id="patch_261">
    <path d="M 619.469958 87.035333 
L 623.827385 87.035333 
L 623.827385 87.035333 
L 619.469958 87.035333 
z
" clip-path="url(#p1ce02cdc28)" style="fill: #696969"/>
   </g>
   <g id="patch_262">
    <path d="M 622.19335 87.035333 
L 626.550776 87.035333 
L 626.550776 87.035333 
L 622.19335 87.035333 
z
" clip-path="url(#p1ce02cdc28)" style="fill: #696969"/>
   </g>
   <g id="patch_263">
    <path d="M 624.916741 87.035333 
L 629.274168 87.035333 
L 629.274168 86.944454 
L 624.916741 86.944454 
z
" clip-path="url(#p1ce02cdc28)" style="fill: #696969"/>
   </g>
   <g id="patch_264">
    <path d="M 627.640133 87.035333 
L 631.997559 87.035333 
L 631.997559 87.035333 
L 627.640133 87.035333 
z
" clip-path="url(#p1ce02cdc28)" style="fill: #696969"/>
   </g>
   <g id="patch_265">
    <path d="M 630.363524 87.035333 
L 634.720951 87.035333 
L 634.720951 85.581257 
L 630.363524 85.581257 
z
" clip-path="url(#p1ce02cdc28)" style="fill: #696969"/>
   </g>
   <g id="patch_266">
    <path d="M 633.086916 87.035333 
L 637.444343 87.035333 
L 637.444343 87.035333 
L 633.086916 87.035333 
z
" clip-path="url(#p1ce02cdc28)" style="fill: #696969"/>
   </g>
   <g id="patch_267">
    <path d="M 635.810308 87.035333 
L 640.167734 87.035333 
L 640.167734 80.037589 
L 635.810308 80.037589 
z
" clip-path="url(#p1ce02cdc28)" style="fill: #696969"/>
   </g>
   <g id="patch_268">
    <path d="M 638.533699 87.035333 
L 642.891126 87.035333 
L 642.891126 87.035333 
L 638.533699 87.035333 
z
" clip-path="url(#p1ce02cdc28)" style="fill: #696969"/>
   </g>
   <g id="patch_269">
    <path d="M 641.257091 87.035333 
L 645.614517 87.035333 
L 645.614517 84.0363 
L 641.257091 84.0363 
z
" clip-path="url(#p1ce02cdc28)" style="fill: #696969"/>
   </g>
   <g id="patch_270">
    <path d="M 643.980483 87.035333 
L 648.337909 87.035333 
L 648.337909 87.035333 
L 643.980483 87.035333 
z
" clip-path="url(#p1ce02cdc28)" style="fill: #696969"/>
   </g>
   <g id="patch_271">
    <path d="M 646.703874 87.035333 
L 651.061301 87.035333 
L 651.061301 87.035333 
L 646.703874 87.035333 
z
" clip-path="url(#p1ce02cdc28)" style="fill: #696969"/>
   </g>
   <g id="patch_272">
    <path d="M 649.427266 87.035333 
L 653.784692 87.035333 
L 653.784692 81.673425 
L 649.427266 81.673425 
z
" clip-path="url(#p1ce02cdc28)" style="fill: #696969"/>
   </g>
   <g id="patch_273">
    <path d="M 652.150657 87.035333 
L 656.508084 87.035333 
L 656.508084 87.035333 
L 652.150657 87.035333 
z
" clip-path="url(#p1ce02cdc28)" style="fill: #696969"/>
   </g>
   <g id="patch_274">
    <path d="M 654.874049 87.035333 
L 659.231476 87.035333 
L 659.231476 84.218059 
L 654.874049 84.218059 
z
" clip-path="url(#p1ce02cdc28)" style="fill: #696969"/>
   </g>
   <g id="patch_275">
    <path d="M 657.597441 87.035333 
L 661.954867 87.035333 
L 661.954867 86.217415 
L 657.597441 86.217415 
z
" clip-path="url(#p1ce02cdc28)" style="fill: #696969"/>
   </g>
   <g id="patch_276">
    <path d="M 660.320832 87.035333 
L 664.678259 87.035333 
L 664.678259 69.768171 
L 660.320832 69.768171 
z
" clip-path="url(#p1ce02cdc28)" style="fill: #696969"/>
   </g>
   <g id="patch_277">
    <path d="M 663.044224 87.035333 
L 667.40165 87.035333 
L 667.40165 80.491988 
L 663.044224 80.491988 
z
" clip-path="url(#p1ce02cdc28)" style="fill: #696969"/>
   </g>
   <g id="patch_278">
    <path d="M 665.767615 87.035333 
L 670.125042 87.035333 
L 670.125042 87.035333 
L 665.767615 87.035333 
z
" clip-path="url(#p1ce02cdc28)" style="fill: #696969"/>
   </g>
   <g id="patch_279">
    <path d="M 668.491007 87.035333 
L 672.848434 87.035333 
L 672.848434 78.219993 
L 668.491007 78.219993 
z
" clip-path="url(#p1ce02cdc28)" style="fill: #696969"/>
   </g>
   <g id="patch_280">
    <path d="M 671.214399 87.035333 
L 675.571825 87.035333 
L 675.571825 76.220637 
L 671.214399 76.220637 
z
" clip-path="url(#p1ce02cdc28)" style="fill: #696969"/>
   </g>
   <g id="patch_281">
    <path d="M 673.93779 87.035333 
L 678.295217 87.035333 
L 678.295217 64.497143 
L 673.93779 64.497143 
z
" clip-path="url(#p1ce02cdc28)" style="fill: #696969"/>
   </g>
   <g id="patch_282">
    <path d="M 676.661182 87.035333 
L 681.018608 87.035333 
L 681.018608 87.035333 
L 676.661182 87.035333 
z
" clip-path="url(#p1ce02cdc28)" style="fill: #696969"/>
   </g>
   <g id="patch_283">
    <path d="M 679.384573 87.035333 
L 683.742 87.035333 
L 683.742 80.946387 
L 679.384573 80.946387 
z
" clip-path="url(#p1ce02cdc28)" style="fill: #696969"/>
   </g>
   <g id="patch_284">
    <path d="M 682.107965 87.035333 
L 686.465392 87.035333 
L 686.465392 77.038555 
L 682.107965 77.038555 
z
" clip-path="url(#p1ce02cdc28)" style="fill: #696969"/>
   </g>
   <g id="patch_285">
    <path d="M 684.831357 87.035333 
L 689.188783 87.035333 
L 689.188783 72.585445 
L 684.831357 72.585445 
z
" clip-path="url(#p1ce02cdc28)" style="fill: #696969"/>
   </g>
   <g id="patch_286">
    <path d="M 687.554748 87.035333 
L 691.912175 87.035333 
L 691.912175 74.94832 
L 687.554748 74.94832 
z
" clip-path="url(#p1ce02cdc28)" style="fill: #696969"/>
   </g>
   <g id="patch_287">
    <path d="M 690.27814 87.035333 
L 694.635566 87.035333 
L 694.635566 76.493276 
L 690.27814 76.493276 
z
" clip-path="url(#p1ce02cdc28)" style="fill: #696969"/>
   </g>
   <g id="patch_288">
    <path d="M 693.001531 87.035333 
L 697.358958 87.035333 
L 697.358958 80.219348 
L 693.001531 80.219348 
z
" clip-path="url(#p1ce02cdc28)" style="fill: #696969"/>
   </g>
   <g id="patch_289">
    <path d="M 695.724923 87.035333 
L 700.08235 87.035333 
L 700.08235 82.945742 
L 695.724923 82.945742 
z
" clip-path="url(#p1ce02cdc28)" style="fill: #696969"/>
   </g>
   <g id="patch_290">
    <path d="M 698.448315 87.035333 
L 702.805741 87.035333 
L 702.805741 68.950253 
L 698.448315 68.950253 
z
" clip-path="url(#p1ce02cdc28)" style="fill: #696969"/>
   </g>
   <g id="patch_291">
    <path d="M 701.171706 87.035333 
L 705.529133 87.035333 
L 705.529133 70.40433 
L 701.171706 70.40433 
z
" clip-path="url(#p1ce02cdc28)" style="fill: #696969"/>
   </g>
   <g id="patch_292">
    <path d="M 703.895098 87.035333 
L 708.252524 87.035333 
L 708.252524 71.949286 
L 703.895098 71.949286 
z
" clip-path="url(#p1ce02cdc28)" style="fill: #696969"/>
   </g>
   <g id="patch_293">
    <path d="M 706.61849 87.035333 
L 710.975916 87.035333 
L 710.975916 73.676002 
L 706.61849 73.676002 
z
" clip-path="url(#p1ce02cdc28)" style="fill: #696969"/>
   </g>
   <g id="patch_294">
    <path d="M 709.341881 87.035333 
L 713.699308 87.035333 
L 713.699308 63.679224 
L 709.341881 63.679224 
z
" clip-path="url(#p1ce02cdc28)" style="fill: #696969"/>
   </g>
   <g id="patch_295">
    <path d="M 712.065273 87.035333 
L 716.422699 87.035333 
L 716.422699 77.402074 
L 712.065273 77.402074 
z
" clip-path="url(#p1ce02cdc28)" style="fill: #696969"/>
   </g>
   <g id="patch_296">
    <path d="M 714.788664 87.035333 
L 719.146091 87.035333 
L 719.146091 80.491988 
L 714.788664 80.491988 
z
" clip-path="url(#p1ce02cdc28)" style="fill: #696969"/>
   </g>
   <g id="patch_297">
    <path d="M 717.512056 87.035333 
L 721.869483 87.035333 
L 721.869483 87.035333 
L 717.512056 87.035333 
z
" clip-path="url(#p1ce02cdc28)" style="fill: #696969"/>
   </g>
   <g id="patch_298">
    <path d="M 720.235448 87.035333 
L 724.592874 87.035333 
L 724.592874 72.312805 
L 720.235448 72.312805 
z
" clip-path="url(#p1ce02cdc28)" style="fill: #696969"/>
   </g>
   <g id="patch_299">
    <path d="M 722.958839 87.035333 
L 727.316266 87.035333 
L 727.316266 85.581257 
L 722.958839 85.581257 
z
" clip-path="url(#p1ce02cdc28)" style="fill: #696969"/>
   </g>
   <g id="patch_300">
    <path d="M 725.682231 87.035333 
L 730.039657 87.035333 
L 730.039657 80.764627 
L 725.682231 80.764627 
z
" clip-path="url(#p1ce02cdc28)" style="fill: #696969"/>
   </g>
   <g id="patch_301">
    <path d="M 728.405622 87.035333 
L 732.763049 87.035333 
L 732.763049 80.946387 
L 728.405622 80.946387 
z
" clip-path="url(#p1ce02cdc28)" style="fill: #696969"/>
   </g>
   <g id="patch_302">
    <path d="M 731.129014 87.035333 
L 735.486441 87.035333 
L 735.486441 83.491021 
L 731.129014 83.491021 
z
" clip-path="url(#p1ce02cdc28)" style="fill: #696969"/>
   </g>
   <g id="patch_303">
    <path d="M 733.852406 87.035333 
L 738.209832 87.035333 
L 738.209832 87.035333 
L 733.852406 87.035333 
z
" clip-path="url(#p1ce02cdc28)" style="fill: #696969"/>
   </g>
   <g id="patch_304">
    <path d="M 736.575797 87.035333 
L 740.933224 87.035333 
L 740.933224 87.035333 
L 736.575797 87.035333 
z
" clip-path="url(#p1ce02cdc28)" style="fill: #696969"/>
   </g>
   <g id="patch_305">
    <path d="M 739.299189 87.035333 
L 743.656615 87.035333 
L 743.656615 87.035333 
L 739.299189 87.035333 
z
" clip-path="url(#p1ce02cdc28)" style="fill: #696969"/>
   </g>
   <g id="patch_306">
    <path d="M 742.02258 87.035333 
L 746.380007 87.035333 
L 746.380007 87.035333 
L 742.02258 87.035333 
z
" clip-path="url(#p1ce02cdc28)" style="fill: #696969"/>
   </g>
   <g id="patch_307">
    <path d="M 744.745972 87.035333 
L 749.103399 87.035333 
L 749.103399 87.035333 
L 744.745972 87.035333 
z
" clip-path="url(#p1ce02cdc28)" style="fill: #696969"/>
   </g>
   <g id="patch_308">
    <path d="M 747.469364 87.035333 
L 751.82679 87.035333 
L 751.82679 87.035333 
L 747.469364 87.035333 
z
" clip-path="url(#p1ce02cdc28)" style="fill: #696969"/>
   </g>
   <g id="patch_309">
    <path d="M 750.192755 87.035333 
L 754.550182 87.035333 
L 754.550182 87.035333 
L 750.192755 87.035333 
z
" clip-path="url(#p1ce02cdc28)" style="fill: #696969"/>
   </g>
   <g id="patch_310">
    <path d="M 752.916147 87.035333 
L 757.273573 87.035333 
L 757.273573 84.581579 
L 752.916147 84.581579 
z
" clip-path="url(#p1ce02cdc28)" style="fill: #696969"/>
   </g>
   <g id="patch_311">
    <path d="M 755.639538 87.035333 
L 759.996965 87.035333 
L 759.996965 87.035333 
L 755.639538 87.035333 
z
" clip-path="url(#p1ce02cdc28)" style="fill: #696969"/>
   </g>
   <g id="patch_312">
    <path d="M 758.36293 87.035333 
L 762.720357 87.035333 
L 762.720357 87.035333 
L 758.36293 87.035333 
z
" clip-path="url(#p1ce02cdc28)" style="fill: #696969"/>
   </g>
   <g id="patch_313">
    <path d="M 761.086322 87.035333 
L 765.443748 87.035333 
L 765.443748 83.036622 
L 761.086322 83.036622 
z
" clip-path="url(#p1ce02cdc28)" style="fill: #696969"/>
   </g>
   <g id="patch_314">
    <path d="M 763.809713 87.035333 
L 768.16714 87.035333 
L 768.16714 87.035333 
L 763.809713 87.035333 
z
" clip-path="url(#p1ce02cdc28)" style="fill: #696969"/>
   </g>
   <g id="patch_315">
    <path d="M 766.533105 87.035333 
L 770.890531 87.035333 
L 770.890531 87.035333 
L 766.533105 87.035333 
z
" clip-path="url(#p1ce02cdc28)" style="fill: #696969"/>
   </g>
   <g id="patch_316">
    <path d="M 769.256497 87.035333 
L 773.613923 87.035333 
L 773.613923 87.035333 
L 769.256497 87.035333 
z
" clip-path="url(#p1ce02cdc28)" style="fill: #696969"/>
   </g>
   <g id="patch_317">
    <path d="M 771.979888 87.035333 
L 776.337315 87.035333 
L 776.337315 87.035333 
L 771.979888 87.035333 
z
" clip-path="url(#p1ce02cdc28)" style="fill: #696969"/>
   </g>
   <g id="patch_318">
    <path d="M 774.70328 87.035333 
L 779.060706 87.035333 
L 779.060706 81.582545 
L 774.70328 81.582545 
z
" clip-path="url(#p1ce02cdc28)" style="fill: #696969"/>
   </g>
   <g id="patch_319">
    <path d="M 777.426671 87.035333 
L 781.784098 87.035333 
L 781.784098 81.037266 
L 777.426671 81.037266 
z
" clip-path="url(#p1ce02cdc28)" style="fill: #696969"/>
   </g>
   <g id="patch_320">
    <path d="M 780.150063 87.035333 
L 784.50749 87.035333 
L 784.50749 79.037911 
L 780.150063 79.037911 
z
" clip-path="url(#p1ce02cdc28)" style="fill: #696969"/>
   </g>
   <g id="patch_321">
    <path d="M 782.873455 87.035333 
L 787.230881 87.035333 
L 787.230881 85.399497 
L 782.873455 85.399497 
z
" clip-path="url(#p1ce02cdc28)" style="fill: #696969"/>
   </g>
   <g id="patch_322">
    <path d="M 785.596846 87.035333 
L 789.954273 87.035333 
L 789.954273 87.035333 
L 785.596846 87.035333 
z
" clip-path="url(#p1ce02cdc28)" style="fill: #696969"/>
   </g>
   <g id="patch_323">
    <path d="M 788.320238 87.035333 
L 792.677664 87.035333 
L 792.677664 87.035333 
L 788.320238 87.035333 
z
" clip-path="url(#p1ce02cdc28)" style="fill: #696969"/>
   </g>
   <g id="patch_324">
    <path d="M 791.043629 87.035333 
L 795.401056 87.035333 
L 795.401056 87.035333 
L 791.043629 87.035333 
z
" clip-path="url(#p1ce02cdc28)" style="fill: #696969"/>
   </g>
   <g id="patch_325">
    <path d="M 793.767021 87.035333 
L 798.124448 87.035333 
L 798.124448 71.585767 
L 793.767021 71.585767 
z
" clip-path="url(#p1ce02cdc28)" style="fill: #696969"/>
   </g>
   <g id="patch_326">
    <path d="M 796.490413 87.035333 
L 800.847839 87.035333 
L 800.847839 87.035333 
L 796.490413 87.035333 
z
" clip-path="url(#p1ce02cdc28)" style="fill: #696969"/>
   </g>
   <g id="patch_327">
    <path d="M 799.213804 87.035333 
L 803.571231 87.035333 
L 803.571231 76.947675 
L 799.213804 76.947675 
z
" clip-path="url(#p1ce02cdc28)" style="fill: #696969"/>
   </g>
   <g id="patch_328">
    <path d="M 801.937196 87.035333 
L 806.294622 87.035333 
L 806.294622 77.765594 
L 801.937196 77.765594 
z
" clip-path="url(#p1ce02cdc28)" style="fill: #696969"/>
   </g>
   <g id="patch_329">
    <path d="M 804.660587 87.035333 
L 809.018014 87.035333 
L 809.018014 87.035333 
L 804.660587 87.035333 
z
" clip-path="url(#p1ce02cdc28)" style="fill: #696969"/>
   </g>
   <g id="patch_330">
    <path d="M 807.383979 87.035333 
L 811.741406 87.035333 
L 811.741406 79.58319 
L 807.383979 79.58319 
z
" clip-path="url(#p1ce02cdc28)" style="fill: #696969"/>
   </g>
   <g id="patch_331">
    <path d="M 810.107371 87.035333 
L 814.464797 87.035333 
L 814.464797 81.491665 
L 810.107371 81.491665 
z
" clip-path="url(#p1ce02cdc28)" style="fill: #696969"/>
   </g>
   <g id="patch_332">
    <path d="M 812.830762 87.035333 
L 817.188189 87.035333 
L 817.188189 83.76366 
L 812.830762 83.76366 
z
" clip-path="url(#p1ce02cdc28)" style="fill: #696969"/>
   </g>
   <g id="patch_333">
    <path d="M 815.554154 87.035333 
L 819.91158 87.035333 
L 819.91158 75.311839 
L 815.554154 75.311839 
z
" clip-path="url(#p1ce02cdc28)" style="fill: #696969"/>
   </g>
   <g id="patch_334">
    <path d="M 818.277545 87.035333 
L 822.634972 87.035333 
L 822.634972 77.402074 
L 818.277545 77.402074 
z
" clip-path="url(#p1ce02cdc28)" style="fill: #696969"/>
   </g>
   <g id="patch_335">
    <path d="M 821.000937 87.035333 
L 825.358364 87.035333 
L 825.358364 76.493276 
L 821.000937 76.493276 
z
" clip-path="url(#p1ce02cdc28)" style="fill: #696969"/>
   </g>
   <g id="patch_336">
    <path d="M 823.724329 87.035333 
L 828.081755 87.035333 
L 828.081755 74.039522 
L 823.724329 74.039522 
z
" clip-path="url(#p1ce02cdc28)" style="fill: #696969"/>
   </g>
   <g id="patch_337">
    <path d="M 826.44772 87.035333 
L 830.805147 87.035333 
L 830.805147 79.946709 
L 826.44772 79.946709 
z
" clip-path="url(#p1ce02cdc28)" style="fill: #696969"/>
   </g>
   <g id="patch_338">
    <path d="M 829.171112 87.035333 
L 833.528538 87.035333 
L 833.528538 79.946709 
L 829.171112 79.946709 
z
" clip-path="url(#p1ce02cdc28)" style="fill: #696969"/>
   </g>
   <g id="patch_339">
    <path d="M 831.894503 87.035333 
L 836.25193 87.035333 
L 836.25193 76.038877 
L 831.894503 76.038877 
z
" clip-path="url(#p1ce02cdc28)" style="fill: #696969"/>
   </g>
   <g id="patch_340">
    <path d="M 834.617895 87.035333 
L 838.975322 87.035333 
L 838.975322 79.58319 
L 834.617895 79.58319 
z
" clip-path="url(#p1ce02cdc28)" style="fill: #696969"/>
   </g>
   <g id="patch_341">
    <path d="M 837.341287 87.035333 
L 841.698713 87.035333 
L 841.698713 78.038233 
L 837.341287 78.038233 
z
" clip-path="url(#p1ce02cdc28)" style="fill: #696969"/>
   </g>
   <g id="matplotlib.axis_3">
    <g id="xtick_6">
     <g id="line2d_10">
      <g>
       <use xlink:href="#mffd9e6404e" x="471.862133" y="89.48" style="stroke: #000000; stroke-width: 0.8"/>
      </g>
     </g>
     <g id="text_10">
      <!-- 100 -->
      <g transform="translate(460.409633 105.598125) scale(0.12 -0.12)">
       <use xlink:href="#DejaVuSans-31"/>
       <use xlink:href="#DejaVuSans-30" x="63.623047"/>
       <use xlink:href="#DejaVuSans-30" x="127.246094"/>
      </g>
     </g>
    </g>
    <g id="xtick_7">
     <g id="line2d_11">
      <g>
       <use xlink:href="#mffd9e6404e" x="526.329965" y="89.48" style="stroke: #000000; stroke-width: 0.8"/>
      </g>
     </g>
     <g id="text_11">
      <!-- 110 -->
      <g transform="translate(514.877465 105.598125) scale(0.12 -0.12)">
       <use xlink:href="#DejaVuSans-31"/>
       <use xlink:href="#DejaVuSans-31" x="63.623047"/>
       <use xlink:href="#DejaVuSans-30" x="127.246094"/>
      </g>
     </g>
    </g>
    <g id="xtick_8">
     <g id="line2d_12">
      <g>
       <use xlink:href="#mffd9e6404e" x="580.797797" y="89.48" style="stroke: #000000; stroke-width: 0.8"/>
      </g>
     </g>
     <g id="text_12">
      <!-- 120 -->
      <g transform="translate(569.345297 105.598125) scale(0.12 -0.12)">
       <use xlink:href="#DejaVuSans-31"/>
       <use xlink:href="#DejaVuSans-32" x="63.623047"/>
       <use xlink:href="#DejaVuSans-30" x="127.246094"/>
      </g>
     </g>
    </g>
    <g id="xtick_9">
     <g id="line2d_13">
      <g>
       <use xlink:href="#mffd9e6404e" x="635.265629" y="89.48" style="stroke: #000000; stroke-width: 0.8"/>
      </g>
     </g>
     <g id="text_13">
      <!-- 130 -->
      <g transform="translate(623.813129 105.598125) scale(0.12 -0.12)">
       <defs>
        <path id="DejaVuSans-33" d="M 2597 2516 
Q 3050 2419 3304 2112 
Q 3559 1806 3559 1356 
Q 3559 666 3084 287 
Q 2609 -91 1734 -91 
Q 1441 -91 1130 -33 
Q 819 25 488 141 
L 488 750 
Q 750 597 1062 519 
Q 1375 441 1716 441 
Q 2309 441 2620 675 
Q 2931 909 2931 1356 
Q 2931 1769 2642 2001 
Q 2353 2234 1838 2234 
L 1294 2234 
L 1294 2753 
L 1863 2753 
Q 2328 2753 2575 2939 
Q 2822 3125 2822 3475 
Q 2822 3834 2567 4026 
Q 2313 4219 1838 4219 
Q 1578 4219 1281 4162 
Q 984 4106 628 3988 
L 628 4550 
Q 988 4650 1302 4700 
Q 1616 4750 1894 4750 
Q 2613 4750 3031 4423 
Q 3450 4097 3450 3541 
Q 3450 3153 3228 2886 
Q 3006 2619 2597 2516 
z
" transform="scale(0.015625)"/>
       </defs>
       <use xlink:href="#DejaVuSans-31"/>
       <use xlink:href="#DejaVuSans-33" x="63.623047"/>
       <use xlink:href="#DejaVuSans-30" x="127.246094"/>
      </g>
     </g>
    </g>
    <g id="xtick_10">
     <g id="line2d_14">
      <g>
       <use xlink:href="#mffd9e6404e" x="689.733462" y="89.48" style="stroke: #000000; stroke-width: 0.8"/>
      </g>
     </g>
     <g id="text_14">
      <!-- 140 -->
      <g transform="translate(678.280962 105.598125) scale(0.12 -0.12)">
       <use xlink:href="#DejaVuSans-31"/>
       <use xlink:href="#DejaVuSans-34" x="63.623047"/>
       <use xlink:href="#DejaVuSans-30" x="127.246094"/>
      </g>
     </g>
    </g>
    <g id="xtick_11">
     <g id="line2d_15">
      <g>
       <use xlink:href="#mffd9e6404e" x="744.201294" y="89.48" style="stroke: #000000; stroke-width: 0.8"/>
      </g>
     </g>
     <g id="text_15">
      <!-- 150 -->
      <g transform="translate(732.748794 105.598125) scale(0.12 -0.12)">
       <use xlink:href="#DejaVuSans-31"/>
       <use xlink:href="#DejaVuSans-35" x="63.623047"/>
       <use xlink:href="#DejaVuSans-30" x="127.246094"/>
      </g>
     </g>
    </g>
    <g id="xtick_12">
     <g id="line2d_16">
      <g>
       <use xlink:href="#mffd9e6404e" x="798.669126" y="89.48" style="stroke: #000000; stroke-width: 0.8"/>
      </g>
     </g>
     <g id="text_16">
      <!-- 160 -->
      <g transform="translate(787.216626 105.598125) scale(0.12 -0.12)">
       <use xlink:href="#DejaVuSans-31"/>
       <use xlink:href="#DejaVuSans-36" x="63.623047"/>
       <use xlink:href="#DejaVuSans-30" x="127.246094"/>
      </g>
     </g>
    </g>
   </g>
   <g id="matplotlib.axis_4">
    <g id="ytick_3">
     <g id="line2d_17">
      <g>
       <use xlink:href="#ma544e26fb6" x="450.075" y="87.035333" style="stroke: #000000; stroke-width: 0.8"/>
      </g>
     </g>
    </g>
    <g id="ytick_4">
     <g id="line2d_18">
      <g>
       <use xlink:href="#ma544e26fb6" x="450.075" y="64.315383" style="stroke: #000000; stroke-width: 0.8"/>
      </g>
     </g>
    </g>
   </g>
   <g id="line2d_19">
    <path d="M 450.075 76.717647 
L 455.521783 77.100705 
L 460.968566 77.808431 
L 466.41535 78.788697 
L 474.585524 80.607961 
L 488.202483 83.808823 
L 493.649266 84.872887 
L 499.096049 85.689156 
L 504.542832 86.197506 
L 509.989615 86.360496 
L 515.436399 86.16612 
L 520.883182 85.628695 
L 526.329965 84.787805 
L 531.776748 83.705387 
L 539.946923 81.806733 
L 550.84049 79.255097 
L 556.287273 78.182648 
L 561.734056 77.355175 
L 567.180839 76.833627 
L 572.627622 76.656417 
L 578.074406 76.836599 
L 583.521189 77.360901 
L 588.967972 78.190705 
L 594.414755 79.264893 
L 602.58493 81.157809 
L 613.478497 83.715238 
L 618.92528 84.795945 
L 624.372063 85.634523 
L 629.818846 86.169208 
L 635.265629 86.360616 
L 640.712413 86.19465 
L 646.159196 85.683533 
L 651.605979 84.864913 
L 657.052762 83.799084 
L 665.222937 81.912129 
L 676.116503 79.349211 
L 681.563287 78.260375 
L 687.01007 77.410789 
L 692.456853 76.863032 
L 697.903636 76.657447 
L 703.35042 76.809179 
L 708.797203 77.30705 
L 714.243986 78.11439 
L 719.690769 79.171734 
L 727.860944 81.052502 
L 738.75451 83.620606 
L 744.201294 84.717443 
L 749.648077 85.577934 
L 755.09486 86.1387 
L 760.541643 86.358436 
L 765.988427 86.220957 
L 771.43521 85.736391 
L 776.881993 84.940428 
L 782.328776 83.891694 
L 790.498951 82.017335 
L 801.392517 79.44435 
L 806.839301 78.339642 
L 812.286084 77.468347 
L 817.732867 76.89464 
L 823.17965 76.660779 
L 828.626434 76.783987 
L 834.073217 77.255191 
L 839.52 78.039684 
L 839.52 78.039684 
" clip-path="url(#p1ce02cdc28)" style="fill: none; stroke: #191970; stroke-width: 3; stroke-linecap: square"/>
   </g>
   <g id="line2d_20">
    <path clip-path="url(#p1ce02cdc28)" style="fill: none; stroke-dasharray: 7.4,3.2; stroke-dashoffset: 0; stroke: #000000; stroke-opacity: 0.8; stroke-width: 2"/>
   </g>
   <g id="patch_342">
    <path d="M 450.075 89.48 
L 450.075 60.144 
" style="fill: none; stroke: #000000; stroke-width: 0.8; stroke-linejoin: miter; stroke-linecap: square"/>
   </g>
   <g id="patch_343">
    <path d="M 450.075 89.48 
L 839.52 89.48 
" style="fill: none; stroke: #000000; stroke-width: 0.8; stroke-linejoin: miter; stroke-linecap: square"/>
   </g>
   <g id="text_17">
    <!-- 2 -->
    <g transform="translate(641.61625 42.946187) scale(0.1 -0.1)">
     <use xlink:href="#DejaVuSans-32"/>
    </g>
    <!-- (AC: 3.1, PR: 23.08) -->
    <g transform="translate(595.748281 54.144) scale(0.1 -0.1)">
     <use xlink:href="#DejaVuSans-28"/>
     <use xlink:href="#DejaVuSans-41" x="39.013672"/>
     <use xlink:href="#DejaVuSans-43" x="105.671875"/>
     <use xlink:href="#DejaVuSans-3a" x="175.496094"/>
     <use xlink:href="#DejaVuSans-20" x="209.1875"/>
     <use xlink:href="#DejaVuSans-33" x="240.974609"/>
     <use xlink:href="#DejaVuSans-2e" x="304.597656"/>
     <use xlink:href="#DejaVuSans-31" x="336.384766"/>
     <use xlink:href="#DejaVuSans-2c" x="400.007812"/>
     <use xlink:href="#DejaVuSans-20" x="431.794922"/>
     <use xlink:href="#DejaVuSans-50" x="463.582031"/>
     <use xlink:href="#DejaVuSans-52" x="523.884766"/>
     <use xlink:href="#DejaVuSans-3a" x="590.242188"/>
     <use xlink:href="#DejaVuSans-20" x="623.933594"/>
     <use xlink:href="#DejaVuSans-32" x="655.720703"/>
     <use xlink:href="#DejaVuSans-33" x="719.34375"/>
     <use xlink:href="#DejaVuSans-2e" x="782.966797"/>
     <use xlink:href="#DejaVuSans-30" x="814.753906"/>
     <use xlink:href="#DejaVuSans-38" x="878.376953"/>
     <use xlink:href="#DejaVuSans-29" x="942"/>
    </g>
   </g>
  </g>
  <g id="text_18">
   <!-- COSINOR MODEL - 3 SQUARE 01 -->
   <g transform="translate(327.493125 11.940525) scale(0.12 -0.12)">
    <defs>
     <path id="DejaVuSans-4f" d="M 2522 4238 
Q 1834 4238 1429 3725 
Q 1025 3213 1025 2328 
Q 1025 1447 1429 934 
Q 1834 422 2522 422 
Q 3209 422 3611 934 
Q 4013 1447 4013 2328 
Q 4013 3213 3611 3725 
Q 3209 4238 2522 4238 
z
M 2522 4750 
Q 3503 4750 4090 4092 
Q 4678 3434 4678 2328 
Q 4678 1225 4090 567 
Q 3503 -91 2522 -91 
Q 1538 -91 948 565 
Q 359 1222 359 2328 
Q 359 3434 948 4092 
Q 1538 4750 2522 4750 
z
" transform="scale(0.015625)"/>
     <path id="DejaVuSans-53" d="M 3425 4513 
L 3425 3897 
Q 3066 4069 2747 4153 
Q 2428 4238 2131 4238 
Q 1616 4238 1336 4038 
Q 1056 3838 1056 3469 
Q 1056 3159 1242 3001 
Q 1428 2844 1947 2747 
L 2328 2669 
Q 3034 2534 3370 2195 
Q 3706 1856 3706 1288 
Q 3706 609 3251 259 
Q 2797 -91 1919 -91 
Q 1588 -91 1214 -16 
Q 841 59 441 206 
L 441 856 
Q 825 641 1194 531 
Q 1563 422 1919 422 
Q 2459 422 2753 634 
Q 3047 847 3047 1241 
Q 3047 1584 2836 1778 
Q 2625 1972 2144 2069 
L 1759 2144 
Q 1053 2284 737 2584 
Q 422 2884 422 3419 
Q 422 4038 858 4394 
Q 1294 4750 2059 4750 
Q 2388 4750 2728 4690 
Q 3069 4631 3425 4513 
z
" transform="scale(0.015625)"/>
     <path id="DejaVuSans-49" d="M 628 4666 
L 1259 4666 
L 1259 0 
L 628 0 
L 628 4666 
z
" transform="scale(0.015625)"/>
     <path id="DejaVuSans-4e" d="M 628 4666 
L 1478 4666 
L 3547 763 
L 3547 4666 
L 4159 4666 
L 4159 0 
L 3309 0 
L 1241 3903 
L 1241 0 
L 628 0 
L 628 4666 
z
" transform="scale(0.015625)"/>
     <path id="DejaVuSans-4d" d="M 628 4666 
L 1569 4666 
L 2759 1491 
L 3956 4666 
L 4897 4666 
L 4897 0 
L 4281 0 
L 4281 4097 
L 3078 897 
L 2444 897 
L 1241 4097 
L 1241 0 
L 628 0 
L 628 4666 
z
" transform="scale(0.015625)"/>
     <path id="DejaVuSans-44" d="M 1259 4147 
L 1259 519 
L 2022 519 
Q 2988 519 3436 956 
Q 3884 1394 3884 2338 
Q 3884 3275 3436 3711 
Q 2988 4147 2022 4147 
L 1259 4147 
z
M 628 4666 
L 1925 4666 
Q 3281 4666 3915 4102 
Q 4550 3538 4550 2338 
Q 4550 1131 3912 565 
Q 3275 0 1925 0 
L 628 0 
L 628 4666 
z
" transform="scale(0.015625)"/>
     <path id="DejaVuSans-45" d="M 628 4666 
L 3578 4666 
L 3578 4134 
L 1259 4134 
L 1259 2753 
L 3481 2753 
L 3481 2222 
L 1259 2222 
L 1259 531 
L 3634 531 
L 3634 0 
L 628 0 
L 628 4666 
z
" transform="scale(0.015625)"/>
     <path id="DejaVuSans-4c" d="M 628 4666 
L 1259 4666 
L 1259 531 
L 3531 531 
L 3531 0 
L 628 0 
L 628 4666 
z
" transform="scale(0.015625)"/>
     <path id="DejaVuSans-2d" d="M 313 2009 
L 1997 2009 
L 1997 1497 
L 313 1497 
L 313 2009 
z
" transform="scale(0.015625)"/>
     <path id="DejaVuSans-51" d="M 2522 4238 
Q 1834 4238 1429 3725 
Q 1025 3213 1025 2328 
Q 1025 1447 1429 934 
Q 1834 422 2522 422 
Q 3209 422 3611 934 
Q 4013 1447 4013 2328 
Q 4013 3213 3611 3725 
Q 3209 4238 2522 4238 
z
M 3406 84 
L 4238 -825 
L 3475 -825 
L 2784 -78 
Q 2681 -84 2626 -87 
Q 2572 -91 2522 -91 
Q 1538 -91 948 567 
Q 359 1225 359 2328 
Q 359 3434 948 4092 
Q 1538 4750 2522 4750 
Q 3503 4750 4090 4092 
Q 4678 3434 4678 2328 
Q 4678 1516 4351 937 
Q 4025 359 3406 84 
z
" transform="scale(0.015625)"/>
     <path id="DejaVuSans-55" d="M 556 4666 
L 1191 4666 
L 1191 1831 
Q 1191 1081 1462 751 
Q 1734 422 2344 422 
Q 2950 422 3222 751 
Q 3494 1081 3494 1831 
L 3494 4666 
L 4128 4666 
L 4128 1753 
Q 4128 841 3676 375 
Q 3225 -91 2344 -91 
Q 1459 -91 1007 375 
Q 556 841 556 1753 
L 556 4666 
z
" transform="scale(0.015625)"/>
    </defs>
    <use xlink:href="#DejaVuSans-43"/>
    <use xlink:href="#DejaVuSans-4f" x="69.824219"/>
    <use xlink:href="#DejaVuSans-53" x="148.535156"/>
    <use xlink:href="#DejaVuSans-49" x="212.011719"/>
    <use xlink:href="#DejaVuSans-4e" x="241.503906"/>
    <use xlink:href="#DejaVuSans-4f" x="316.308594"/>
    <use xlink:href="#DejaVuSans-52" x="395.019531"/>
    <use xlink:href="#DejaVuSans-20" x="464.501953"/>
    <use xlink:href="#DejaVuSans-4d" x="496.289062"/>
    <use xlink:href="#DejaVuSans-4f" x="582.568359"/>
    <use xlink:href="#DejaVuSans-44" x="661.279297"/>
    <use xlink:href="#DejaVuSans-45" x="738.28125"/>
    <use xlink:href="#DejaVuSans-4c" x="801.464844"/>
    <use xlink:href="#DejaVuSans-20" x="857.177734"/>
    <use xlink:href="#DejaVuSans-2d" x="888.964844"/>
    <use xlink:href="#DejaVuSans-20" x="925.048828"/>
    <use xlink:href="#DejaVuSans-33" x="956.835938"/>
    <use xlink:href="#DejaVuSans-20" x="1020.458984"/>
    <use xlink:href="#DejaVuSans-53" x="1052.246094"/>
    <use xlink:href="#DejaVuSans-51" x="1115.722656"/>
    <use xlink:href="#DejaVuSans-55" x="1194.433594"/>
    <use xlink:href="#DejaVuSans-41" x="1267.626953"/>
    <use xlink:href="#DejaVuSans-52" x="1336.035156"/>
    <use xlink:href="#DejaVuSans-45" x="1405.517578"/>
    <use xlink:href="#DejaVuSans-20" x="1468.701172"/>
    <use xlink:href="#DejaVuSans-30" x="1500.488281"/>
    <use xlink:href="#DejaVuSans-31" x="1564.111328"/>
   </g>
  </g>
  <g id="text_19">
   <!-- TIME (HOURS FROM START OF PROTOCOL) -->
   <g transform="translate(318.840469 137.629112) scale(0.1 -0.1)">
    <defs>
     <path id="DejaVuSans-54" d="M -19 4666 
L 3928 4666 
L 3928 4134 
L 2272 4134 
L 2272 0 
L 1638 0 
L 1638 4134 
L -19 4134 
L -19 4666 
z
" transform="scale(0.015625)"/>
     <path id="DejaVuSans-48" d="M 628 4666 
L 1259 4666 
L 1259 2753 
L 3553 2753 
L 3553 4666 
L 4184 4666 
L 4184 0 
L 3553 0 
L 3553 2222 
L 1259 2222 
L 1259 0 
L 628 0 
L 628 4666 
z
" transform="scale(0.015625)"/>
     <path id="DejaVuSans-46" d="M 628 4666 
L 3309 4666 
L 3309 4134 
L 1259 4134 
L 1259 2759 
L 3109 2759 
L 3109 2228 
L 1259 2228 
L 1259 0 
L 628 0 
L 628 4666 
z
" transform="scale(0.015625)"/>
    </defs>
    <use xlink:href="#DejaVuSans-54"/>
    <use xlink:href="#DejaVuSans-49" x="61.083984"/>
    <use xlink:href="#DejaVuSans-4d" x="90.576172"/>
    <use xlink:href="#DejaVuSans-45" x="176.855469"/>
    <use xlink:href="#DejaVuSans-20" x="240.039062"/>
    <use xlink:href="#DejaVuSans-28" x="271.826172"/>
    <use xlink:href="#DejaVuSans-48" x="310.839844"/>
    <use xlink:href="#DejaVuSans-4f" x="386.035156"/>
    <use xlink:href="#DejaVuSans-55" x="464.746094"/>
    <use xlink:href="#DejaVuSans-52" x="537.939453"/>
    <use xlink:href="#DejaVuSans-53" x="607.421875"/>
    <use xlink:href="#DejaVuSans-20" x="670.898438"/>
    <use xlink:href="#DejaVuSans-46" x="702.685547"/>
    <use xlink:href="#DejaVuSans-52" x="760.205078"/>
    <use xlink:href="#DejaVuSans-4f" x="829.6875"/>
    <use xlink:href="#DejaVuSans-4d" x="908.398438"/>
    <use xlink:href="#DejaVuSans-20" x="994.677734"/>
    <use xlink:href="#DejaVuSans-53" x="1026.464844"/>
    <use xlink:href="#DejaVuSans-54" x="1089.941406"/>
    <use xlink:href="#DejaVuSans-41" x="1143.275391"/>
    <use xlink:href="#DejaVuSans-52" x="1211.683594"/>
    <use xlink:href="#DejaVuSans-54" x="1273.916016"/>
    <use xlink:href="#DejaVuSans-20" x="1335"/>
    <use xlink:href="#DejaVuSans-4f" x="1366.787109"/>
    <use xlink:href="#DejaVuSans-46" x="1445.498047"/>
    <use xlink:href="#DejaVuSans-20" x="1503.017578"/>
    <use xlink:href="#DejaVuSans-50" x="1534.804688"/>
    <use xlink:href="#DejaVuSans-52" x="1595.107422"/>
    <use xlink:href="#DejaVuSans-4f" x="1664.589844"/>
    <use xlink:href="#DejaVuSans-54" x="1743.300781"/>
    <use xlink:href="#DejaVuSans-4f" x="1804.384766"/>
    <use xlink:href="#DejaVuSans-43" x="1883.095703"/>
    <use xlink:href="#DejaVuSans-4f" x="1952.919922"/>
    <use xlink:href="#DejaVuSans-4c" x="2031.630859"/>
    <use xlink:href="#DejaVuSans-29" x="2087.34375"/>
   </g>
  </g>
  <g id="text_20">
   <!-- AMPLITUDE -->
   <g transform="translate(24.604838 99.292812) rotate(-90) scale(0.1 -0.1)">
    <use xlink:href="#DejaVuSans-41"/>
    <use xlink:href="#DejaVuSans-4d" x="68.408203"/>
    <use xlink:href="#DejaVuSans-50" x="154.6875"/>
    <use xlink:href="#DejaVuSans-4c" x="214.990234"/>
    <use xlink:href="#DejaVuSans-49" x="270.703125"/>
    <use xlink:href="#DejaVuSans-54" x="300.195312"/>
    <use xlink:href="#DejaVuSans-55" x="361.279297"/>
    <use xlink:href="#DejaVuSans-44" x="434.472656"/>
    <use xlink:href="#DejaVuSans-45" x="511.474609"/>
   </g>
  </g>
 </g>
 <defs>
  <clipPath id="p87f2093d25">
   <rect x="46.33" y="60.144" width="389.445" height="29.336"/>
  </clipPath>
  <clipPath id="p1ce02cdc28">
   <rect x="450.075" y="60.144" width="389.445" height="29.336"/>
  </clipPath>
 </defs>
</svg>
