<?xml version="1.0" encoding="utf-8" standalone="no"?>
<!DOCTYPE svg PUBLIC "-//W3C//DTD SVG 1.1//EN"
  "http://www.w3.org/Graphics/SVG/1.1/DTD/svg11.dtd">
<svg xmlns:xlink="http://www.w3.org/1999/xlink" width="864pt" height="360pt" viewBox="0 0 864 360" xmlns="http://www.w3.org/2000/svg" version="1.1">
 <metadata>
  <rdf:RDF xmlns:dc="http://purl.org/dc/elements/1.1/" xmlns:cc="http://creativecommons.org/ns#" xmlns:rdf="http://www.w3.org/1999/02/22-rdf-syntax-ns#">
   <cc:Work>
    <dc:type rdf:resource="http://purl.org/dc/dcmitype/StillImage"/>
    <dc:date>2023-11-27T21:09:46.996784</dc:date>
    <dc:format>image/svg+xml</dc:format>
    <dc:creator>
     <cc:Agent>
      <dc:title>Matplotlib v3.7.4, https://matplotlib.org/</dc:title>
     </cc:Agent>
    </dc:creator>
   </cc:Work>
  </rdf:RDF>
 </metadata>
 <defs>
  <style type="text/css">*{stroke-linejoin: round; stroke-linecap: butt}</style>
 </defs>
 <g id="figure_1">
  <g id="patch_1">
   <path d="M 0 360 
L 864 360 
L 864 0 
L 0 0 
z
" style="fill: #ffffff"/>
  </g>
  <g id="axes_1">
   <g id="patch_2">
    <path d="M 108 320.4 
L 777.6 320.4 
L 777.6 43.2 
L 108 43.2 
z
" style="fill: #ffffff"/>
   </g>
   <g id="matplotlib.axis_1">
    <g id="xtick_1">
     <g id="line2d_1">
      <defs>
       <path id="mcd3fc7f10c" d="M 0 0 
L 0 3.5 
" style="stroke: #000000; stroke-width: 0.8"/>
      </defs>
      <g>
       <use xlink:href="#mcd3fc7f10c" x="138.436364" y="320.4" style="stroke: #000000; stroke-width: 0.8"/>
      </g>
     </g>
     <g id="text_1">
      <!-- 2022-01-01 -->
      <g transform="translate(103.566989 336.518125) scale(0.12 -0.12)">
       <defs>
        <path id="DejaVuSans-32" d="M 1228 531 
L 3431 531 
L 3431 0 
L 469 0 
L 469 531 
Q 828 903 1448 1529 
Q 2069 2156 2228 2338 
Q 2531 2678 2651 2914 
Q 2772 3150 2772 3378 
Q 2772 3750 2511 3984 
Q 2250 4219 1831 4219 
Q 1534 4219 1204 4116 
Q 875 4013 500 3803 
L 500 4441 
Q 881 4594 1212 4672 
Q 1544 4750 1819 4750 
Q 2544 4750 2975 4387 
Q 3406 4025 3406 3419 
Q 3406 3131 3298 2873 
Q 3191 2616 2906 2266 
Q 2828 2175 2409 1742 
Q 1991 1309 1228 531 
z
" transform="scale(0.015625)"/>
        <path id="DejaVuSans-30" d="M 2034 4250 
Q 1547 4250 1301 3770 
Q 1056 3291 1056 2328 
Q 1056 1369 1301 889 
Q 1547 409 2034 409 
Q 2525 409 2770 889 
Q 3016 1369 3016 2328 
Q 3016 3291 2770 3770 
Q 2525 4250 2034 4250 
z
M 2034 4750 
Q 2819 4750 3233 4129 
Q 3647 3509 3647 2328 
Q 3647 1150 3233 529 
Q 2819 -91 2034 -91 
Q 1250 -91 836 529 
Q 422 1150 422 2328 
Q 422 3509 836 4129 
Q 1250 4750 2034 4750 
z
" transform="scale(0.015625)"/>
        <path id="DejaVuSans-2d" d="M 313 2009 
L 1997 2009 
L 1997 1497 
L 313 1497 
L 313 2009 
z
" transform="scale(0.015625)"/>
        <path id="DejaVuSans-31" d="M 794 531 
L 1825 531 
L 1825 4091 
L 703 3866 
L 703 4441 
L 1819 4666 
L 2450 4666 
L 2450 531 
L 3481 531 
L 3481 0 
L 794 0 
L 794 531 
z
" transform="scale(0.015625)"/>
       </defs>
       <use xlink:href="#DejaVuSans-32"/>
       <use xlink:href="#DejaVuSans-30" x="63.623047"/>
       <use xlink:href="#DejaVuSans-32" x="127.246094"/>
       <use xlink:href="#DejaVuSans-32" x="190.869141"/>
       <use xlink:href="#DejaVuSans-2d" x="254.492188"/>
       <use xlink:href="#DejaVuSans-30" x="290.576172"/>
       <use xlink:href="#DejaVuSans-31" x="354.199219"/>
       <use xlink:href="#DejaVuSans-2d" x="417.822266"/>
       <use xlink:href="#DejaVuSans-30" x="453.90625"/>
       <use xlink:href="#DejaVuSans-31" x="517.529297"/>
      </g>
     </g>
    </g>
    <g id="xtick_2">
     <g id="line2d_2">
      <g>
       <use xlink:href="#mcd3fc7f10c" x="214.626479" y="320.4" style="stroke: #000000; stroke-width: 0.8"/>
      </g>
     </g>
     <g id="text_2">
      <!-- 2022-01-03 -->
      <g transform="translate(179.757104 336.518125) scale(0.12 -0.12)">
       <defs>
        <path id="DejaVuSans-33" d="M 2597 2516 
Q 3050 2419 3304 2112 
Q 3559 1806 3559 1356 
Q 3559 666 3084 287 
Q 2609 -91 1734 -91 
Q 1441 -91 1130 -33 
Q 819 25 488 141 
L 488 750 
Q 750 597 1062 519 
Q 1375 441 1716 441 
Q 2309 441 2620 675 
Q 2931 909 2931 1356 
Q 2931 1769 2642 2001 
Q 2353 2234 1838 2234 
L 1294 2234 
L 1294 2753 
L 1863 2753 
Q 2328 2753 2575 2939 
Q 2822 3125 2822 3475 
Q 2822 3834 2567 4026 
Q 2313 4219 1838 4219 
Q 1578 4219 1281 4162 
Q 984 4106 628 3988 
L 628 4550 
Q 988 4650 1302 4700 
Q 1616 4750 1894 4750 
Q 2613 4750 3031 4423 
Q 3450 4097 3450 3541 
Q 3450 3153 3228 2886 
Q 3006 2619 2597 2516 
z
" transform="scale(0.015625)"/>
       </defs>
       <use xlink:href="#DejaVuSans-32"/>
       <use xlink:href="#DejaVuSans-30" x="63.623047"/>
       <use xlink:href="#DejaVuSans-32" x="127.246094"/>
       <use xlink:href="#DejaVuSans-32" x="190.869141"/>
       <use xlink:href="#DejaVuSans-2d" x="254.492188"/>
       <use xlink:href="#DejaVuSans-30" x="290.576172"/>
       <use xlink:href="#DejaVuSans-31" x="354.199219"/>
       <use xlink:href="#DejaVuSans-2d" x="417.822266"/>
       <use xlink:href="#DejaVuSans-30" x="453.90625"/>
       <use xlink:href="#DejaVuSans-33" x="517.529297"/>
      </g>
     </g>
    </g>
    <g id="xtick_3">
     <g id="line2d_3">
      <g>
       <use xlink:href="#mcd3fc7f10c" x="290.816594" y="320.4" style="stroke: #000000; stroke-width: 0.8"/>
      </g>
     </g>
     <g id="text_3">
      <!-- 2022-01-05 -->
      <g transform="translate(255.947219 336.518125) scale(0.12 -0.12)">
       <defs>
        <path id="DejaVuSans-35" d="M 691 4666 
L 3169 4666 
L 3169 4134 
L 1269 4134 
L 1269 2991 
Q 1406 3038 1543 3061 
Q 1681 3084 1819 3084 
Q 2600 3084 3056 2656 
Q 3513 2228 3513 1497 
Q 3513 744 3044 326 
Q 2575 -91 1722 -91 
Q 1428 -91 1123 -41 
Q 819 9 494 109 
L 494 744 
Q 775 591 1075 516 
Q 1375 441 1709 441 
Q 2250 441 2565 725 
Q 2881 1009 2881 1497 
Q 2881 1984 2565 2268 
Q 2250 2553 1709 2553 
Q 1456 2553 1204 2497 
Q 953 2441 691 2322 
L 691 4666 
z
" transform="scale(0.015625)"/>
       </defs>
       <use xlink:href="#DejaVuSans-32"/>
       <use xlink:href="#DejaVuSans-30" x="63.623047"/>
       <use xlink:href="#DejaVuSans-32" x="127.246094"/>
       <use xlink:href="#DejaVuSans-32" x="190.869141"/>
       <use xlink:href="#DejaVuSans-2d" x="254.492188"/>
       <use xlink:href="#DejaVuSans-30" x="290.576172"/>
       <use xlink:href="#DejaVuSans-31" x="354.199219"/>
       <use xlink:href="#DejaVuSans-2d" x="417.822266"/>
       <use xlink:href="#DejaVuSans-30" x="453.90625"/>
       <use xlink:href="#DejaVuSans-35" x="517.529297"/>
      </g>
     </g>
    </g>
    <g id="xtick_4">
     <g id="line2d_4">
      <g>
       <use xlink:href="#mcd3fc7f10c" x="367.006709" y="320.4" style="stroke: #000000; stroke-width: 0.8"/>
      </g>
     </g>
     <g id="text_4">
      <!-- 2022-01-07 -->
      <g transform="translate(332.137334 336.518125) scale(0.12 -0.12)">
       <defs>
        <path id="DejaVuSans-37" d="M 525 4666 
L 3525 4666 
L 3525 4397 
L 1831 0 
L 1172 0 
L 2766 4134 
L 525 4134 
L 525 4666 
z
" transform="scale(0.015625)"/>
       </defs>
       <use xlink:href="#DejaVuSans-32"/>
       <use xlink:href="#DejaVuSans-30" x="63.623047"/>
       <use xlink:href="#DejaVuSans-32" x="127.246094"/>
       <use xlink:href="#DejaVuSans-32" x="190.869141"/>
       <use xlink:href="#DejaVuSans-2d" x="254.492188"/>
       <use xlink:href="#DejaVuSans-30" x="290.576172"/>
       <use xlink:href="#DejaVuSans-31" x="354.199219"/>
       <use xlink:href="#DejaVuSans-2d" x="417.822266"/>
       <use xlink:href="#DejaVuSans-30" x="453.90625"/>
       <use xlink:href="#DejaVuSans-37" x="517.529297"/>
      </g>
     </g>
    </g>
    <g id="xtick_5">
     <g id="line2d_5">
      <g>
       <use xlink:href="#mcd3fc7f10c" x="443.196824" y="320.4" style="stroke: #000000; stroke-width: 0.8"/>
      </g>
     </g>
     <g id="text_5">
      <!-- 2022-01-09 -->
      <g transform="translate(408.327449 336.518125) scale(0.12 -0.12)">
       <defs>
        <path id="DejaVuSans-39" d="M 703 97 
L 703 672 
Q 941 559 1184 500 
Q 1428 441 1663 441 
Q 2288 441 2617 861 
Q 2947 1281 2994 2138 
Q 2813 1869 2534 1725 
Q 2256 1581 1919 1581 
Q 1219 1581 811 2004 
Q 403 2428 403 3163 
Q 403 3881 828 4315 
Q 1253 4750 1959 4750 
Q 2769 4750 3195 4129 
Q 3622 3509 3622 2328 
Q 3622 1225 3098 567 
Q 2575 -91 1691 -91 
Q 1453 -91 1209 -44 
Q 966 3 703 97 
z
M 1959 2075 
Q 2384 2075 2632 2365 
Q 2881 2656 2881 3163 
Q 2881 3666 2632 3958 
Q 2384 4250 1959 4250 
Q 1534 4250 1286 3958 
Q 1038 3666 1038 3163 
Q 1038 2656 1286 2365 
Q 1534 2075 1959 2075 
z
" transform="scale(0.015625)"/>
       </defs>
       <use xlink:href="#DejaVuSans-32"/>
       <use xlink:href="#DejaVuSans-30" x="63.623047"/>
       <use xlink:href="#DejaVuSans-32" x="127.246094"/>
       <use xlink:href="#DejaVuSans-32" x="190.869141"/>
       <use xlink:href="#DejaVuSans-2d" x="254.492188"/>
       <use xlink:href="#DejaVuSans-30" x="290.576172"/>
       <use xlink:href="#DejaVuSans-31" x="354.199219"/>
       <use xlink:href="#DejaVuSans-2d" x="417.822266"/>
       <use xlink:href="#DejaVuSans-30" x="453.90625"/>
       <use xlink:href="#DejaVuSans-39" x="517.529297"/>
      </g>
     </g>
    </g>
    <g id="xtick_6">
     <g id="line2d_6">
      <g>
       <use xlink:href="#mcd3fc7f10c" x="519.386938" y="320.4" style="stroke: #000000; stroke-width: 0.8"/>
      </g>
     </g>
     <g id="text_6">
      <!-- 2022-01-11 -->
      <g transform="translate(484.517563 336.518125) scale(0.12 -0.12)">
       <use xlink:href="#DejaVuSans-32"/>
       <use xlink:href="#DejaVuSans-30" x="63.623047"/>
       <use xlink:href="#DejaVuSans-32" x="127.246094"/>
       <use xlink:href="#DejaVuSans-32" x="190.869141"/>
       <use xlink:href="#DejaVuSans-2d" x="254.492188"/>
       <use xlink:href="#DejaVuSans-30" x="290.576172"/>
       <use xlink:href="#DejaVuSans-31" x="354.199219"/>
       <use xlink:href="#DejaVuSans-2d" x="417.822266"/>
       <use xlink:href="#DejaVuSans-31" x="453.90625"/>
       <use xlink:href="#DejaVuSans-31" x="517.529297"/>
      </g>
     </g>
    </g>
    <g id="xtick_7">
     <g id="line2d_7">
      <g>
       <use xlink:href="#mcd3fc7f10c" x="595.577053" y="320.4" style="stroke: #000000; stroke-width: 0.8"/>
      </g>
     </g>
     <g id="text_7">
      <!-- 2022-01-13 -->
      <g transform="translate(560.707678 336.518125) scale(0.12 -0.12)">
       <use xlink:href="#DejaVuSans-32"/>
       <use xlink:href="#DejaVuSans-30" x="63.623047"/>
       <use xlink:href="#DejaVuSans-32" x="127.246094"/>
       <use xlink:href="#DejaVuSans-32" x="190.869141"/>
       <use xlink:href="#DejaVuSans-2d" x="254.492188"/>
       <use xlink:href="#DejaVuSans-30" x="290.576172"/>
       <use xlink:href="#DejaVuSans-31" x="354.199219"/>
       <use xlink:href="#DejaVuSans-2d" x="417.822266"/>
       <use xlink:href="#DejaVuSans-31" x="453.90625"/>
       <use xlink:href="#DejaVuSans-33" x="517.529297"/>
      </g>
     </g>
    </g>
    <g id="xtick_8">
     <g id="line2d_8">
      <g>
       <use xlink:href="#mcd3fc7f10c" x="671.767168" y="320.4" style="stroke: #000000; stroke-width: 0.8"/>
      </g>
     </g>
     <g id="text_8">
      <!-- 2022-01-15 -->
      <g transform="translate(636.897793 336.518125) scale(0.12 -0.12)">
       <use xlink:href="#DejaVuSans-32"/>
       <use xlink:href="#DejaVuSans-30" x="63.623047"/>
       <use xlink:href="#DejaVuSans-32" x="127.246094"/>
       <use xlink:href="#DejaVuSans-32" x="190.869141"/>
       <use xlink:href="#DejaVuSans-2d" x="254.492188"/>
       <use xlink:href="#DejaVuSans-30" x="290.576172"/>
       <use xlink:href="#DejaVuSans-31" x="354.199219"/>
       <use xlink:href="#DejaVuSans-2d" x="417.822266"/>
       <use xlink:href="#DejaVuSans-31" x="453.90625"/>
       <use xlink:href="#DejaVuSans-35" x="517.529297"/>
      </g>
     </g>
    </g>
    <g id="xtick_9">
     <g id="line2d_9">
      <g>
       <use xlink:href="#mcd3fc7f10c" x="747.957283" y="320.4" style="stroke: #000000; stroke-width: 0.8"/>
      </g>
     </g>
     <g id="text_9">
      <!-- 2022-01-17 -->
      <g transform="translate(713.087908 336.518125) scale(0.12 -0.12)">
       <use xlink:href="#DejaVuSans-32"/>
       <use xlink:href="#DejaVuSans-30" x="63.623047"/>
       <use xlink:href="#DejaVuSans-32" x="127.246094"/>
       <use xlink:href="#DejaVuSans-32" x="190.869141"/>
       <use xlink:href="#DejaVuSans-2d" x="254.492188"/>
       <use xlink:href="#DejaVuSans-30" x="290.576172"/>
       <use xlink:href="#DejaVuSans-31" x="354.199219"/>
       <use xlink:href="#DejaVuSans-2d" x="417.822266"/>
       <use xlink:href="#DejaVuSans-31" x="453.90625"/>
       <use xlink:href="#DejaVuSans-37" x="517.529297"/>
      </g>
     </g>
    </g>
    <g id="text_10">
     <!-- TIME (DAYS) -->
     <g transform="translate(393.97375 355.17125) scale(0.16 -0.16)">
      <defs>
       <path id="DejaVuSans-54" d="M -19 4666 
L 3928 4666 
L 3928 4134 
L 2272 4134 
L 2272 0 
L 1638 0 
L 1638 4134 
L -19 4134 
L -19 4666 
z
" transform="scale(0.015625)"/>
       <path id="DejaVuSans-49" d="M 628 4666 
L 1259 4666 
L 1259 0 
L 628 0 
L 628 4666 
z
" transform="scale(0.015625)"/>
       <path id="DejaVuSans-4d" d="M 628 4666 
L 1569 4666 
L 2759 1491 
L 3956 4666 
L 4897 4666 
L 4897 0 
L 4281 0 
L 4281 4097 
L 3078 897 
L 2444 897 
L 1241 4097 
L 1241 0 
L 628 0 
L 628 4666 
z
" transform="scale(0.015625)"/>
       <path id="DejaVuSans-45" d="M 628 4666 
L 3578 4666 
L 3578 4134 
L 1259 4134 
L 1259 2753 
L 3481 2753 
L 3481 2222 
L 1259 2222 
L 1259 531 
L 3634 531 
L 3634 0 
L 628 0 
L 628 4666 
z
" transform="scale(0.015625)"/>
       <path id="DejaVuSans-20" transform="scale(0.015625)"/>
       <path id="DejaVuSans-28" d="M 1984 4856 
Q 1566 4138 1362 3434 
Q 1159 2731 1159 2009 
Q 1159 1288 1364 580 
Q 1569 -128 1984 -844 
L 1484 -844 
Q 1016 -109 783 600 
Q 550 1309 550 2009 
Q 550 2706 781 3412 
Q 1013 4119 1484 4856 
L 1984 4856 
z
" transform="scale(0.015625)"/>
       <path id="DejaVuSans-44" d="M 1259 4147 
L 1259 519 
L 2022 519 
Q 2988 519 3436 956 
Q 3884 1394 3884 2338 
Q 3884 3275 3436 3711 
Q 2988 4147 2022 4147 
L 1259 4147 
z
M 628 4666 
L 1925 4666 
Q 3281 4666 3915 4102 
Q 4550 3538 4550 2338 
Q 4550 1131 3912 565 
Q 3275 0 1925 0 
L 628 0 
L 628 4666 
z
" transform="scale(0.015625)"/>
       <path id="DejaVuSans-41" d="M 2188 4044 
L 1331 1722 
L 3047 1722 
L 2188 4044 
z
M 1831 4666 
L 2547 4666 
L 4325 0 
L 3669 0 
L 3244 1197 
L 1141 1197 
L 716 0 
L 50 0 
L 1831 4666 
z
" transform="scale(0.015625)"/>
       <path id="DejaVuSans-59" d="M -13 4666 
L 666 4666 
L 1959 2747 
L 3244 4666 
L 3922 4666 
L 2272 2222 
L 2272 0 
L 1638 0 
L 1638 2222 
L -13 4666 
z
" transform="scale(0.015625)"/>
       <path id="DejaVuSans-53" d="M 3425 4513 
L 3425 3897 
Q 3066 4069 2747 4153 
Q 2428 4238 2131 4238 
Q 1616 4238 1336 4038 
Q 1056 3838 1056 3469 
Q 1056 3159 1242 3001 
Q 1428 2844 1947 2747 
L 2328 2669 
Q 3034 2534 3370 2195 
Q 3706 1856 3706 1288 
Q 3706 609 3251 259 
Q 2797 -91 1919 -91 
Q 1588 -91 1214 -16 
Q 841 59 441 206 
L 441 856 
Q 825 641 1194 531 
Q 1563 422 1919 422 
Q 2459 422 2753 634 
Q 3047 847 3047 1241 
Q 3047 1584 2836 1778 
Q 2625 1972 2144 2069 
L 1759 2144 
Q 1053 2284 737 2584 
Q 422 2884 422 3419 
Q 422 4038 858 4394 
Q 1294 4750 2059 4750 
Q 2388 4750 2728 4690 
Q 3069 4631 3425 4513 
z
" transform="scale(0.015625)"/>
       <path id="DejaVuSans-29" d="M 513 4856 
L 1013 4856 
Q 1481 4119 1714 3412 
Q 1947 2706 1947 2009 
Q 1947 1309 1714 600 
Q 1481 -109 1013 -844 
L 513 -844 
Q 928 -128 1133 580 
Q 1338 1288 1338 2009 
Q 1338 2731 1133 3434 
Q 928 4138 513 4856 
z
" transform="scale(0.015625)"/>
      </defs>
      <use xlink:href="#DejaVuSans-54"/>
      <use xlink:href="#DejaVuSans-49" x="61.083984"/>
      <use xlink:href="#DejaVuSans-4d" x="90.576172"/>
      <use xlink:href="#DejaVuSans-45" x="176.855469"/>
      <use xlink:href="#DejaVuSans-20" x="240.039062"/>
      <use xlink:href="#DejaVuSans-28" x="271.826172"/>
      <use xlink:href="#DejaVuSans-44" x="310.839844"/>
      <use xlink:href="#DejaVuSans-41" x="386.091797"/>
      <use xlink:href="#DejaVuSans-59" x="446.75"/>
      <use xlink:href="#DejaVuSans-53" x="507.833984"/>
      <use xlink:href="#DejaVuSans-29" x="571.310547"/>
     </g>
    </g>
   </g>
   <g id="matplotlib.axis_2">
    <g id="ytick_1">
     <g id="line2d_10">
      <defs>
       <path id="meb303e774e" d="M 0 0 
L -3.5 0 
" style="stroke: #000000; stroke-width: 0.8"/>
      </defs>
      <g>
       <use xlink:href="#meb303e774e" x="108" y="307.8" style="stroke: #000000; stroke-width: 0.8"/>
      </g>
     </g>
     <g id="text_11">
      <!-- 0 -->
      <g transform="translate(93.365 312.359062) scale(0.12 -0.12)">
       <use xlink:href="#DejaVuSans-30"/>
      </g>
     </g>
    </g>
    <g id="ytick_2">
     <g id="line2d_11">
      <g>
       <use xlink:href="#meb303e774e" x="108" y="259.708397" style="stroke: #000000; stroke-width: 0.8"/>
      </g>
     </g>
     <g id="text_12">
      <!-- 50 -->
      <g transform="translate(85.73 264.267459) scale(0.12 -0.12)">
       <use xlink:href="#DejaVuSans-35"/>
       <use xlink:href="#DejaVuSans-30" x="63.623047"/>
      </g>
     </g>
    </g>
    <g id="ytick_3">
     <g id="line2d_12">
      <g>
       <use xlink:href="#meb303e774e" x="108" y="211.616794" style="stroke: #000000; stroke-width: 0.8"/>
      </g>
     </g>
     <g id="text_13">
      <!-- 100 -->
      <g transform="translate(78.095 216.175856) scale(0.12 -0.12)">
       <use xlink:href="#DejaVuSans-31"/>
       <use xlink:href="#DejaVuSans-30" x="63.623047"/>
       <use xlink:href="#DejaVuSans-30" x="127.246094"/>
      </g>
     </g>
    </g>
    <g id="ytick_4">
     <g id="line2d_13">
      <g>
       <use xlink:href="#meb303e774e" x="108" y="163.525191" style="stroke: #000000; stroke-width: 0.8"/>
      </g>
     </g>
     <g id="text_14">
      <!-- 150 -->
      <g transform="translate(78.095 168.084253) scale(0.12 -0.12)">
       <use xlink:href="#DejaVuSans-31"/>
       <use xlink:href="#DejaVuSans-35" x="63.623047"/>
       <use xlink:href="#DejaVuSans-30" x="127.246094"/>
      </g>
     </g>
    </g>
    <g id="ytick_5">
     <g id="line2d_14">
      <g>
       <use xlink:href="#meb303e774e" x="108" y="115.433588" style="stroke: #000000; stroke-width: 0.8"/>
      </g>
     </g>
     <g id="text_15">
      <!-- 200 -->
      <g transform="translate(78.095 119.99265) scale(0.12 -0.12)">
       <use xlink:href="#DejaVuSans-32"/>
       <use xlink:href="#DejaVuSans-30" x="63.623047"/>
       <use xlink:href="#DejaVuSans-30" x="127.246094"/>
      </g>
     </g>
    </g>
    <g id="ytick_6">
     <g id="line2d_15">
      <g>
       <use xlink:href="#meb303e774e" x="108" y="67.341985" style="stroke: #000000; stroke-width: 0.8"/>
      </g>
     </g>
     <g id="text_16">
      <!-- 250 -->
      <g transform="translate(78.095 71.901047) scale(0.12 -0.12)">
       <use xlink:href="#DejaVuSans-32"/>
       <use xlink:href="#DejaVuSans-35" x="63.623047"/>
       <use xlink:href="#DejaVuSans-30" x="127.246094"/>
      </g>
     </g>
    </g>
    <g id="text_17">
     <!-- SIMULATED -->
     <g transform="translate(52.851 227.5875) rotate(-90) scale(0.16 -0.16)">
      <defs>
       <path id="DejaVuSans-55" d="M 556 4666 
L 1191 4666 
L 1191 1831 
Q 1191 1081 1462 751 
Q 1734 422 2344 422 
Q 2950 422 3222 751 
Q 3494 1081 3494 1831 
L 3494 4666 
L 4128 4666 
L 4128 1753 
Q 4128 841 3676 375 
Q 3225 -91 2344 -91 
Q 1459 -91 1007 375 
Q 556 841 556 1753 
L 556 4666 
z
" transform="scale(0.015625)"/>
       <path id="DejaVuSans-4c" d="M 628 4666 
L 1259 4666 
L 1259 531 
L 3531 531 
L 3531 0 
L 628 0 
L 628 4666 
z
" transform="scale(0.015625)"/>
      </defs>
      <use xlink:href="#DejaVuSans-53"/>
      <use xlink:href="#DejaVuSans-49" x="63.476562"/>
      <use xlink:href="#DejaVuSans-4d" x="92.96875"/>
      <use xlink:href="#DejaVuSans-55" x="179.248047"/>
      <use xlink:href="#DejaVuSans-4c" x="252.441406"/>
      <use xlink:href="#DejaVuSans-41" x="310.404297"/>
      <use xlink:href="#DejaVuSans-54" x="371.0625"/>
      <use xlink:href="#DejaVuSans-45" x="432.146484"/>
      <use xlink:href="#DejaVuSans-44" x="495.330078"/>
     </g>
     <!-- AMPLITUDE -->
     <g transform="translate(70.7675 227.7725) rotate(-90) scale(0.16 -0.16)">
      <defs>
       <path id="DejaVuSans-50" d="M 1259 4147 
L 1259 2394 
L 2053 2394 
Q 2494 2394 2734 2622 
Q 2975 2850 2975 3272 
Q 2975 3691 2734 3919 
Q 2494 4147 2053 4147 
L 1259 4147 
z
M 628 4666 
L 2053 4666 
Q 2838 4666 3239 4311 
Q 3641 3956 3641 3272 
Q 3641 2581 3239 2228 
Q 2838 1875 2053 1875 
L 1259 1875 
L 1259 0 
L 628 0 
L 628 4666 
z
" transform="scale(0.015625)"/>
      </defs>
      <use xlink:href="#DejaVuSans-41"/>
      <use xlink:href="#DejaVuSans-4d" x="68.408203"/>
      <use xlink:href="#DejaVuSans-50" x="154.6875"/>
      <use xlink:href="#DejaVuSans-4c" x="214.990234"/>
      <use xlink:href="#DejaVuSans-49" x="270.703125"/>
      <use xlink:href="#DejaVuSans-54" x="300.195312"/>
      <use xlink:href="#DejaVuSans-55" x="361.279297"/>
      <use xlink:href="#DejaVuSans-44" x="434.472656"/>
      <use xlink:href="#DejaVuSans-45" x="511.474609"/>
     </g>
    </g>
   </g>
   <g id="line2d_16">
    <path d="M 138.436364 307.8 
L 139.230011 233.738931 
L 140.023658 255.861069 
L 140.817305 307.8 
L 141.610952 253.937405 
L 142.404599 307.8 
L 143.991893 307.8 
L 144.78554 237.58626 
L 145.579187 307.8 
L 146.372834 307.8 
L 147.166481 267.403053 
L 147.960128 307.8 
L 151.928363 307.8 
L 152.72201 248.166412 
L 153.515657 244.319084 
L 154.309304 307.8 
L 155.102951 233.738931 
L 155.896598 264.517557 
L 156.690245 276.059542 
L 157.483892 235.662595 
L 158.277539 247.20458 
L 159.071186 233.738931 
L 159.864833 299.143511 
L 160.658481 269.326718 
L 161.452128 265.479389 
L 162.245775 307.8 
L 163.039422 158.716031 
L 163.833069 108.700763 
L 165.420363 217.387786 
L 166.21401 236.624427 
L 167.007657 181.8 
L 167.801304 203.922137 
L 168.594951 302.99084 
L 169.388598 177.952672 
L 170.182245 209.69313 
L 170.975892 149.09771 
L 171.769539 251.051908 
L 172.563186 284.716031 
L 173.356833 307.8 
L 174.15048 138.517557 
L 174.944127 176.99084 
L 175.737774 104.853435 
L 176.531421 209.69313 
L 177.325068 253.937405 
L 178.118715 244.319084 
L 178.912362 307.8 
L 179.706009 194.303817 
L 180.499656 206.807634 
L 181.293303 270.28855 
L 182.08695 280.868702 
L 182.880597 307.8 
L 183.674244 296.258015 
L 184.467891 276.059542 
L 186.055185 307.8 
L 186.848833 306.838168 
L 187.64248 293.372519 
L 188.436127 307.8 
L 189.229774 259.708397 
L 190.023421 224.120611 
L 190.817068 295.296183 
L 191.610715 253.937405 
L 192.404362 307.8 
L 193.198009 277.983206 
L 193.991656 307.8 
L 195.57895 307.8 
L 196.372597 137.555725 
L 197.166244 248.166412 
L 197.959891 300.105344 
L 198.753538 232.777099 
L 199.547185 142.364885 
L 200.340832 123.128244 
L 201.134479 172.181679 
L 201.928126 193.341985 
L 202.721773 164.487023 
L 204.309067 278.945038 
L 205.102714 202.960305 
L 205.896361 244.319084 
L 206.690008 187.570992 
L 207.483655 276.059542 
L 208.277302 252.01374 
L 209.070949 237.58626 
L 209.864596 123.128244 
L 210.658243 162.563359 
L 211.45189 300.105344 
L 212.245538 171.219847 
L 213.039185 307.8 
L 213.832832 225.082443 
L 214.626479 267.403053 
L 215.420126 215.464122 
L 216.213773 255.861069 
L 217.00742 307.8 
L 217.801067 300.105344 
L 218.594714 307.8 
L 221.769302 307.8 
L 222.562949 225.082443 
L 223.356596 307.8 
L 224.150243 307.8 
L 224.94389 239.509924 
L 225.737537 307.8 
L 226.531184 307.8 
L 227.324831 264.517557 
L 228.118478 307.8 
L 229.705772 307.8 
L 230.499419 283.754198 
L 231.293066 273.174046 
L 232.086713 307.8 
L 232.88036 296.258015 
L 233.674007 307.8 
L 234.467654 295.296183 
L 235.261301 239.509924 
L 236.054948 307.8 
L 236.848595 179.876336 
L 237.642243 270.28855 
L 238.43589 190.456489 
L 239.229537 186.60916 
L 240.023184 174.105344 
L 240.816831 61.570992 
L 241.610478 249.128244 
L 242.404125 226.044275 
L 243.197772 173.143511 
L 243.991419 307.8 
L 244.785066 179.876336 
L 245.578713 206.807634 
L 246.37236 185.647328 
L 247.166007 263.555725 
L 247.959654 205.845802 
L 248.753301 225.082443 
L 249.546948 212.578626 
L 250.340595 224.120611 
L 251.134242 251.051908 
L 251.927889 220.273282 
L 252.721536 156.792366 
L 253.515183 195.265649 
L 254.30883 307.8 
L 255.102477 307.8 
L 255.896124 155.830534 
L 257.483418 267.403053 
L 258.277065 307.8 
L 259.070712 307.8 
L 259.864359 239.509924 
L 260.658006 257.784733 
L 261.451653 307.8 
L 262.2453 293.372519 
L 263.038947 283.754198 
L 263.832595 307.8 
L 264.626242 307.8 
L 265.419889 281.830534 
L 266.213536 307.8 
L 267.007183 307.8 
L 267.80083 246.242748 
L 268.594477 307.8 
L 269.388124 218.349618 
L 270.181771 307.8 
L 270.975418 307.8 
L 271.769065 228.929771 
L 272.562712 290.487023 
L 273.356359 307.8 
L 274.150006 210.654962 
L 274.943653 245.280916 
L 275.7373 251.051908 
L 276.530947 166.410687 
L 277.324594 282.792366 
L 278.118241 214.50229 
L 278.911888 184.685496 
L 279.705535 285.677863 
L 280.499182 258.746565 
L 281.292829 259.708397 
L 282.086476 149.09771 
L 282.880123 249.128244 
L 283.67377 291.448855 
L 284.467417 307.8 
L 285.261064 213.540458 
L 286.054711 283.754198 
L 286.848358 111.58626 
L 287.642005 266.441221 
L 288.435652 281.830534 
L 289.2293 121.20458 
L 290.022947 203.922137 
L 290.816594 226.044275 
L 291.610241 307.8 
L 292.403888 191.418321 
L 293.197535 277.983206 
L 293.991182 307.8 
L 294.784829 307.8 
L 295.578476 302.029008 
L 296.372123 307.8 
L 297.16577 286.639695 
L 297.959417 296.258015 
L 298.753064 273.174046 
L 299.546711 208.731298 
L 300.340358 293.372519 
L 301.134005 285.677863 
L 301.927652 304.914504 
L 302.721299 307.8 
L 303.514946 274.135878 
L 304.308593 307.8 
L 305.10224 227.006107 
L 305.895887 307.8 
L 306.689534 307.8 
L 307.483181 273.174046 
L 308.276828 307.8 
L 309.070475 182.761832 
L 309.864122 301.067176 
L 310.657769 299.143511 
L 311.451416 307.8 
L 312.245063 167.372519 
L 313.03871 185.647328 
L 314.626005 307.8 
L 315.419652 307.8 
L 316.213299 274.135878 
L 317.006946 235.662595 
L 317.800593 217.387786 
L 318.59424 238.548092 
L 319.387887 242.39542 
L 320.181534 217.387786 
L 320.975181 159.677863 
L 321.768828 202.960305 
L 322.562475 141.403053 
L 323.356122 101.006107 
L 324.149769 122.166412 
L 324.943416 186.60916 
L 325.737063 307.8 
L 326.53071 141.403053 
L 327.324357 262.593893 
L 328.118004 270.28855 
L 328.911651 150.059542 
L 329.705298 171.219847 
L 330.498945 151.021374 
L 331.292592 105.815267 
L 332.086239 277.021374 
L 332.879886 304.914504 
L 333.673533 307.8 
L 334.46718 240.471756 
L 335.260827 185.647328 
L 336.054474 307.8 
L 336.848121 307.8 
L 337.641768 262.593893 
L 338.435415 307.8 
L 340.816357 307.8 
L 341.610004 302.99084 
L 342.403651 307.8 
L 343.197298 307.8 
L 343.990945 234.700763 
L 344.784592 307.8 
L 345.578239 293.372519 
L 346.371886 289.525191 
L 347.165533 284.716031 
L 348.752827 307.8 
L 350.340121 307.8 
L 351.133768 132.746565 
L 351.927415 193.341985 
L 352.721062 150.059542 
L 353.514709 277.021374 
L 354.308356 307.8 
L 355.102003 168.334351 
L 355.89565 229.891603 
L 356.689297 245.280916 
L 357.482944 113.509924 
L 358.276591 228.929771 
L 359.070238 132.746565 
L 359.863885 246.242748 
L 360.657532 261.632061 
L 361.451179 222.196947 
L 362.244826 163.525191 
L 363.038473 141.403053 
L 363.83212 304.914504 
L 364.625767 97.158779 
L 365.419414 175.067176 
L 366.213062 193.341985 
L 367.006709 159.677863 
L 367.800356 280.868702 
L 368.594003 229.891603 
L 369.38765 230.853435 
L 370.181297 307.8 
L 370.974944 307.8 
L 371.768591 294.334351 
L 372.562238 307.8 
L 373.355885 277.983206 
L 374.943179 307.8 
L 376.530473 307.8 
L 377.32412 275.09771 
L 378.117767 274.135878 
L 378.911414 307.8 
L 379.705061 307.8 
L 380.498708 277.983206 
L 381.292355 237.58626 
L 382.086002 235.662595 
L 382.879649 307.8 
L 383.673296 294.334351 
L 384.466943 307.8 
L 385.26059 250.090076 
L 386.054237 307.8 
L 387.641531 307.8 
L 388.435178 220.273282 
L 389.228825 301.067176 
L 390.022472 174.105344 
L 390.816119 179.876336 
L 391.609767 152.945038 
L 392.403414 237.58626 
L 393.197061 227.006107 
L 393.990708 210.654962 
L 394.784355 156.792366 
L 395.578002 202.960305 
L 396.371649 307.8 
L 397.165296 253.937405 
L 397.958943 190.456489 
L 398.75259 173.143511 
L 399.546237 254.899237 
L 400.339884 176.029008 
L 401.133531 197.189313 
L 401.927178 242.39542 
L 402.720825 223.158779 
L 403.514472 95.235115 
L 404.308119 106.777099 
L 405.101766 307.8 
L 405.895413 189.494656 
L 406.68906 307.8 
L 407.482707 247.20458 
L 408.276354 209.69313 
L 409.070001 250.090076 
L 409.863648 296.258015 
L 410.657295 307.8 
L 413.038236 307.8 
L 413.831883 283.754198 
L 414.62553 307.8 
L 415.419177 256.822901 
L 416.212824 307.8 
L 417.006471 307.8 
L 417.800119 237.58626 
L 418.593766 307.8 
L 419.387413 307.8 
L 420.18106 220.273282 
L 420.974707 307.8 
L 423.355648 307.8 
L 424.149295 283.754198 
L 424.942942 307.8 
L 425.736589 269.326718 
L 426.530236 307.8 
L 427.323883 307.8 
L 428.11753 203.922137 
L 428.911177 201.036641 
L 429.704824 234.700763 
L 430.498471 205.845802 
L 431.292118 245.280916 
L 432.085765 293.372519 
L 432.879412 185.647328 
L 433.673059 135.632061 
L 434.466706 234.700763 
L 435.260353 137.555725 
L 436.054 200.074809 
L 436.847647 232.777099 
L 437.641294 193.341985 
L 438.434941 176.99084 
L 439.228588 263.555725 
L 440.022235 195.265649 
L 440.815882 198.151145 
L 441.609529 230.853435 
L 442.403176 307.8 
L 443.196824 242.39542 
L 443.990471 256.822901 
L 444.784118 189.494656 
L 445.577765 219.31145 
L 446.371412 307.8 
L 447.165059 116.39542 
L 447.958706 222.196947 
L 448.752353 307.8 
L 449.546 301.067176 
L 450.339647 307.8 
L 451.133294 307.8 
L 451.926941 232.777099 
L 452.720588 195.265649 
L 453.514235 307.8 
L 456.688823 307.8 
L 457.48247 233.738931 
L 458.276117 219.31145 
L 459.069764 307.8 
L 459.863411 280.868702 
L 460.657058 275.09771 
L 461.450705 203.922137 
L 462.244352 262.593893 
L 463.037999 235.662595 
L 463.831646 190.456489 
L 464.625293 307.8 
L 465.41894 287.601527 
L 466.212587 286.639695 
L 467.006234 151.983206 
L 467.799881 187.570992 
L 468.593529 201.998473 
L 469.387176 243.357252 
L 470.180823 268.364885 
L 470.97447 185.647328 
L 471.768117 307.8 
L 472.561764 280.868702 
L 473.355411 182.761832 
L 474.149058 298.181679 
L 474.942705 166.410687 
L 475.736352 307.8 
L 476.529999 175.067176 
L 477.323646 150.059542 
L 478.117293 307.8 
L 478.91094 164.487023 
L 479.704587 68.303817 
L 480.498234 273.174046 
L 481.291881 184.685496 
L 482.085528 240.471756 
L 482.879175 197.189313 
L 483.672822 242.39542 
L 484.466469 88.50229 
L 485.260116 125.051908 
L 486.053763 174.105344 
L 486.84741 152.945038 
L 487.641057 249.128244 
L 488.434704 307.8 
L 489.228351 229.891603 
L 490.021998 258.746565 
L 490.815645 307.8 
L 491.609292 256.822901 
L 492.402939 267.403053 
L 493.196586 296.258015 
L 493.990233 307.8 
L 494.783881 242.39542 
L 495.577528 307.8 
L 496.371175 204.883969 
L 497.164822 307.8 
L 497.958469 205.845802 
L 498.752116 307.8 
L 499.545763 303.952672 
L 500.33941 307.8 
L 501.133057 249.128244 
L 501.926704 307.8 
L 503.513998 307.8 
L 504.307645 276.059542 
L 505.101292 278.945038 
L 505.894939 307.8 
L 506.688586 307.8 
L 507.482233 257.784733 
L 508.27588 93.31145 
L 509.069527 177.952672 
L 509.863174 238.548092 
L 510.656821 256.822901 
L 511.450468 170.258015 
L 512.244115 218.349618 
L 513.037762 154.868702 
L 513.831409 225.082443 
L 514.625056 164.487023 
L 515.418703 179.876336 
L 516.21235 105.815267 
L 517.005997 238.548092 
L 517.799644 254.899237 
L 518.593291 275.09771 
L 519.386938 230.853435 
L 520.180586 212.578626 
L 520.974233 219.31145 
L 521.76788 307.8 
L 522.561527 225.082443 
L 523.355174 186.60916 
L 524.148821 72.151145 
L 524.942468 216.425954 
L 525.736115 274.135878 
L 526.529762 212.578626 
L 527.323409 231.815267 
L 528.117056 307.8 
L 528.910703 232.777099 
L 529.70435 299.143511 
L 530.497997 307.8 
L 531.291644 294.334351 
L 532.085291 257.784733 
L 532.878938 307.8 
L 533.672585 290.487023 
L 534.466232 307.8 
L 535.259879 175.067176 
L 536.053526 285.677863 
L 536.847173 307.8 
L 537.64082 225.082443 
L 538.434467 302.99084 
L 539.228114 228.929771 
L 540.021761 223.158779 
L 540.815408 307.8 
L 541.609055 289.525191 
L 542.402702 307.8 
L 543.989996 307.8 
L 544.783643 205.845802 
L 545.577291 286.639695 
L 546.370938 278.945038 
L 547.164585 277.021374 
L 547.958232 300.105344 
L 548.751879 256.822901 
L 549.545526 164.487023 
L 550.339173 248.166412 
L 551.13282 280.868702 
L 551.926467 116.39542 
L 552.720114 262.593893 
L 553.513761 216.425954 
L 554.307408 199.112977 
L 555.101055 258.746565 
L 555.894702 271.250382 
L 556.688349 229.891603 
L 557.481996 147.174046 
L 558.275643 227.006107 
L 559.06929 205.845802 
L 559.862937 227.006107 
L 560.656584 154.868702 
L 561.450231 219.31145 
L 562.243878 198.151145 
L 563.037525 211.616794 
L 563.831172 252.975573 
L 564.624819 239.509924 
L 565.418466 268.364885 
L 566.212113 182.761832 
L 567.00576 214.50229 
L 567.799407 307.8 
L 568.593054 155.830534 
L 570.180348 196.227481 
L 570.973995 245.280916 
L 571.767643 307.8 
L 572.56129 307.8 
L 573.354937 266.441221 
L 574.148584 307.8 
L 574.942231 273.174046 
L 575.735878 307.8 
L 576.529525 307.8 
L 577.323172 276.059542 
L 578.116819 307.8 
L 578.910466 281.830534 
L 579.704113 219.31145 
L 580.49776 285.677863 
L 581.291407 266.441221 
L 582.085054 302.99084 
L 582.878701 307.8 
L 583.672348 235.662595 
L 584.465995 307.8 
L 585.259642 307.8 
L 586.053289 302.99084 
L 586.846936 307.8 
L 587.640583 203.922137 
L 588.43423 203.922137 
L 589.227877 150.059542 
L 590.021524 307.8 
L 590.815171 160.639695 
L 591.608818 267.403053 
L 592.402465 122.166412 
L 593.196112 100.044275 
L 595.577053 274.135878 
L 596.3707 236.624427 
L 597.164348 180.838168 
L 597.957995 259.708397 
L 598.751642 236.624427 
L 599.545289 55.8 
L 600.338936 227.006107 
L 601.132583 130.822901 
L 601.92623 233.738931 
L 602.719877 162.563359 
L 603.513524 209.69313 
L 604.307171 188.532824 
L 605.100818 201.036641 
L 605.894465 101.967939 
L 607.481759 307.8 
L 608.275406 282.792366 
L 609.069053 307.8 
L 609.8627 203.922137 
L 610.656347 269.326718 
L 611.449994 307.8 
L 612.243641 307.8 
L 613.037288 287.601527 
L 613.830935 258.746565 
L 614.624582 307.8 
L 619.386464 307.8 
L 620.180111 278.945038 
L 620.973758 285.677863 
L 621.767405 307.8 
L 622.561053 307.8 
L 623.3547 267.403053 
L 624.148347 307.8 
L 624.941994 255.861069 
L 625.735641 277.021374 
L 626.529288 232.777099 
L 627.322935 181.8 
L 628.116582 274.135878 
L 628.910229 198.151145 
L 629.703876 92.349618 
L 630.497523 187.570992 
L 631.29117 201.998473 
L 632.084817 89.464122 
L 632.878464 211.616794 
L 633.672111 307.8 
L 634.465758 105.815267 
L 635.259405 218.349618 
L 636.053052 156.792366 
L 636.846699 307.8 
L 637.640346 210.654962 
L 638.433993 144.28855 
L 639.22764 143.326718 
L 640.021287 108.700763 
L 640.814934 242.39542 
L 642.402228 129.861069 
L 643.195875 263.555725 
L 643.989522 307.8 
L 644.783169 184.685496 
L 645.576816 166.410687 
L 646.370463 270.28855 
L 647.16411 231.815267 
L 647.957757 307.8 
L 648.751405 307.8 
L 649.545052 238.548092 
L 650.338699 268.364885 
L 651.132346 307.8 
L 651.925993 278.945038 
L 652.71964 295.296183 
L 653.513287 230.853435 
L 654.306934 307.8 
L 656.687875 307.8 
L 657.481522 243.357252 
L 658.275169 307.8 
L 659.068816 218.349618 
L 659.862463 307.8 
L 660.65611 190.456489 
L 661.449757 307.8 
L 662.243404 307.8 
L 663.037051 282.792366 
L 663.830698 266.441221 
L 664.624345 307.8 
L 665.417992 307.8 
L 666.211639 306.838168 
L 667.005286 307.8 
L 667.798933 185.647328 
L 668.59258 155.830534 
L 669.386227 196.227481 
L 670.179874 126.01374 
L 670.973521 146.212214 
L 671.767168 163.525191 
L 672.560815 192.380153 
L 673.354462 235.662595 
L 674.14811 195.265649 
L 674.941757 234.700763 
L 675.735404 232.777099 
L 676.529051 150.059542 
L 677.322698 130.822901 
L 678.116345 307.8 
L 678.909992 196.227481 
L 679.703639 241.433588 
L 680.497286 252.01374 
L 681.290933 163.525191 
L 682.08458 224.120611 
L 682.878227 193.341985 
L 683.671874 167.372519 
L 684.465521 176.99084 
L 685.259168 290.487023 
L 686.052815 247.20458 
L 686.846462 148.135878 
L 687.640109 268.364885 
L 688.433756 236.624427 
L 689.227403 247.20458 
L 690.02105 307.8 
L 694.782932 307.8 
L 695.576579 228.929771 
L 696.370226 293.372519 
L 697.163873 307.8 
L 697.95752 279.90687 
L 698.751167 212.578626 
L 699.544815 307.8 
L 700.338462 196.227481 
L 701.132109 262.593893 
L 701.925756 226.044275 
L 702.719403 303.952672 
L 703.51305 276.059542 
L 704.306697 307.8 
L 705.100344 284.716031 
L 705.893991 307.8 
L 706.687638 273.174046 
L 707.481285 92.349618 
L 708.274932 183.723664 
L 709.068579 234.700763 
L 709.862226 219.31145 
L 710.655873 252.975573 
L 711.44952 187.570992 
L 712.243167 295.296183 
L 713.036814 201.036641 
L 713.830461 307.8 
L 714.624108 217.387786 
L 715.417755 238.548092 
L 716.211402 212.578626 
L 717.005049 210.654962 
L 717.798696 218.349618 
L 718.592343 169.296183 
L 719.38599 307.8 
L 720.179637 180.838168 
L 720.973284 259.708397 
L 721.766931 255.861069 
L 722.560578 245.280916 
L 723.354225 189.494656 
L 724.147872 172.181679 
L 724.941519 258.746565 
L 725.735167 117.357252 
L 726.528814 307.8 
L 727.322461 200.074809 
L 728.116108 307.8 
L 728.909755 302.99084 
L 729.703402 307.8 
L 730.497049 271.250382 
L 731.290696 264.517557 
L 732.084343 303.952672 
L 732.87799 307.8 
L 734.465284 307.8 
L 735.258931 305.876336 
L 736.052578 307.8 
L 736.846225 150.059542 
L 738.433519 307.8 
L 739.227166 108.700763 
L 740.020813 307.8 
L 740.81446 294.334351 
L 741.608107 302.029008 
L 742.401754 266.441221 
L 743.195401 264.517557 
L 743.989048 307.8 
L 744.782695 269.326718 
L 745.576342 236.624427 
L 746.369989 307.8 
L 747.163636 307.8 
L 747.163636 307.8 
" clip-path="url(#p6a79cbade4)" style="fill: none; stroke: #191970; stroke-width: 2; stroke-linecap: square"/>
   </g>
   <g id="patch_3">
    <path d="M 108 320.4 
L 108 43.2 
" style="fill: none; stroke: #000000; stroke-width: 0.8; stroke-linejoin: miter; stroke-linecap: square"/>
   </g>
   <g id="patch_4">
    <path d="M 777.6 320.4 
L 777.6 43.2 
" style="fill: none; stroke: #000000; stroke-width: 0.8; stroke-linejoin: miter; stroke-linecap: square"/>
   </g>
   <g id="patch_5">
    <path d="M 108 320.4 
L 777.6 320.4 
" style="fill: none; stroke: #000000; stroke-width: 0.8; stroke-linejoin: miter; stroke-linecap: square"/>
   </g>
   <g id="patch_6">
    <path d="M 108 43.2 
L 777.6 43.2 
" style="fill: none; stroke: #000000; stroke-width: 0.8; stroke-linejoin: miter; stroke-linecap: square"/>
   </g>
   <g id="text_18">
    <!-- TIME SERIES -->
    <g transform="translate(386.625938 37.2) scale(0.18 -0.18)">
     <defs>
      <path id="DejaVuSans-52" d="M 2841 2188 
Q 3044 2119 3236 1894 
Q 3428 1669 3622 1275 
L 4263 0 
L 3584 0 
L 2988 1197 
Q 2756 1666 2539 1819 
Q 2322 1972 1947 1972 
L 1259 1972 
L 1259 0 
L 628 0 
L 628 4666 
L 2053 4666 
Q 2853 4666 3247 4331 
Q 3641 3997 3641 3322 
Q 3641 2881 3436 2590 
Q 3231 2300 2841 2188 
z
M 1259 4147 
L 1259 2491 
L 2053 2491 
Q 2509 2491 2742 2702 
Q 2975 2913 2975 3322 
Q 2975 3731 2742 3939 
Q 2509 4147 2053 4147 
L 1259 4147 
z
" transform="scale(0.015625)"/>
     </defs>
     <use xlink:href="#DejaVuSans-54"/>
     <use xlink:href="#DejaVuSans-49" x="61.083984"/>
     <use xlink:href="#DejaVuSans-4d" x="90.576172"/>
     <use xlink:href="#DejaVuSans-45" x="176.855469"/>
     <use xlink:href="#DejaVuSans-20" x="240.039062"/>
     <use xlink:href="#DejaVuSans-53" x="271.826172"/>
     <use xlink:href="#DejaVuSans-45" x="335.302734"/>
     <use xlink:href="#DejaVuSans-52" x="398.486328"/>
     <use xlink:href="#DejaVuSans-49" x="467.96875"/>
     <use xlink:href="#DejaVuSans-45" x="497.460938"/>
     <use xlink:href="#DejaVuSans-53" x="560.644531"/>
    </g>
   </g>
  </g>
 </g>
 <defs>
  <clipPath id="p6a79cbade4">
   <rect x="108" y="43.2" width="669.6" height="277.2"/>
  </clipPath>
 </defs>
</svg>
