<?xml version="1.0" encoding="utf-8" standalone="no"?>
<!DOCTYPE svg PUBLIC "-//W3C//DTD SVG 1.1//EN"
  "http://www.w3.org/Graphics/SVG/1.1/DTD/svg11.dtd">
<svg xmlns:xlink="http://www.w3.org/1999/xlink" width="864pt" height="360pt" viewBox="0 0 864 360" xmlns="http://www.w3.org/2000/svg" version="1.1">
 <metadata>
  <rdf:RDF xmlns:dc="http://purl.org/dc/elements/1.1/" xmlns:cc="http://creativecommons.org/ns#" xmlns:rdf="http://www.w3.org/1999/02/22-rdf-syntax-ns#">
   <cc:Work>
    <dc:type rdf:resource="http://purl.org/dc/dcmitype/StillImage"/>
    <dc:date>2023-11-27T21:10:02.953485</dc:date>
    <dc:format>image/svg+xml</dc:format>
    <dc:creator>
     <cc:Agent>
      <dc:title>Matplotlib v3.7.4, https://matplotlib.org/</dc:title>
     </cc:Agent>
    </dc:creator>
   </cc:Work>
  </rdf:RDF>
 </metadata>
 <defs>
  <style type="text/css">*{stroke-linejoin: round; stroke-linecap: butt}</style>
 </defs>
 <g id="figure_1">
  <g id="patch_1">
   <path d="M 0 360 
L 864 360 
L 864 0 
L 0 0 
z
" style="fill: #ffffff"/>
  </g>
  <g id="axes_1">
   <g id="patch_2">
    <path d="M 108 320.4 
L 777.6 320.4 
L 777.6 43.2 
L 108 43.2 
z
" style="fill: #ffffff"/>
   </g>
   <g id="matplotlib.axis_1">
    <g id="xtick_1">
     <g id="line2d_1">
      <defs>
       <path id="m745ee4e9a9" d="M 0 0 
L 0 3.5 
" style="stroke: #000000; stroke-width: 0.8"/>
      </defs>
      <g>
       <use xlink:href="#m745ee4e9a9" x="138.436364" y="320.4" style="stroke: #000000; stroke-width: 0.8"/>
      </g>
     </g>
     <g id="text_1">
      <!-- 2022-01-01 -->
      <g transform="translate(103.566989 336.518125) scale(0.12 -0.12)">
       <defs>
        <path id="DejaVuSans-32" d="M 1228 531 
L 3431 531 
L 3431 0 
L 469 0 
L 469 531 
Q 828 903 1448 1529 
Q 2069 2156 2228 2338 
Q 2531 2678 2651 2914 
Q 2772 3150 2772 3378 
Q 2772 3750 2511 3984 
Q 2250 4219 1831 4219 
Q 1534 4219 1204 4116 
Q 875 4013 500 3803 
L 500 4441 
Q 881 4594 1212 4672 
Q 1544 4750 1819 4750 
Q 2544 4750 2975 4387 
Q 3406 4025 3406 3419 
Q 3406 3131 3298 2873 
Q 3191 2616 2906 2266 
Q 2828 2175 2409 1742 
Q 1991 1309 1228 531 
z
" transform="scale(0.015625)"/>
        <path id="DejaVuSans-30" d="M 2034 4250 
Q 1547 4250 1301 3770 
Q 1056 3291 1056 2328 
Q 1056 1369 1301 889 
Q 1547 409 2034 409 
Q 2525 409 2770 889 
Q 3016 1369 3016 2328 
Q 3016 3291 2770 3770 
Q 2525 4250 2034 4250 
z
M 2034 4750 
Q 2819 4750 3233 4129 
Q 3647 3509 3647 2328 
Q 3647 1150 3233 529 
Q 2819 -91 2034 -91 
Q 1250 -91 836 529 
Q 422 1150 422 2328 
Q 422 3509 836 4129 
Q 1250 4750 2034 4750 
z
" transform="scale(0.015625)"/>
        <path id="DejaVuSans-2d" d="M 313 2009 
L 1997 2009 
L 1997 1497 
L 313 1497 
L 313 2009 
z
" transform="scale(0.015625)"/>
        <path id="DejaVuSans-31" d="M 794 531 
L 1825 531 
L 1825 4091 
L 703 3866 
L 703 4441 
L 1819 4666 
L 2450 4666 
L 2450 531 
L 3481 531 
L 3481 0 
L 794 0 
L 794 531 
z
" transform="scale(0.015625)"/>
       </defs>
       <use xlink:href="#DejaVuSans-32"/>
       <use xlink:href="#DejaVuSans-30" x="63.623047"/>
       <use xlink:href="#DejaVuSans-32" x="127.246094"/>
       <use xlink:href="#DejaVuSans-32" x="190.869141"/>
       <use xlink:href="#DejaVuSans-2d" x="254.492188"/>
       <use xlink:href="#DejaVuSans-30" x="290.576172"/>
       <use xlink:href="#DejaVuSans-31" x="354.199219"/>
       <use xlink:href="#DejaVuSans-2d" x="417.822266"/>
       <use xlink:href="#DejaVuSans-30" x="453.90625"/>
       <use xlink:href="#DejaVuSans-31" x="517.529297"/>
      </g>
     </g>
    </g>
    <g id="xtick_2">
     <g id="line2d_2">
      <g>
       <use xlink:href="#m745ee4e9a9" x="232.237035" y="320.4" style="stroke: #000000; stroke-width: 0.8"/>
      </g>
     </g>
     <g id="text_2">
      <!-- 2022-01-03 -->
      <g transform="translate(197.36766 336.518125) scale(0.12 -0.12)">
       <defs>
        <path id="DejaVuSans-33" d="M 2597 2516 
Q 3050 2419 3304 2112 
Q 3559 1806 3559 1356 
Q 3559 666 3084 287 
Q 2609 -91 1734 -91 
Q 1441 -91 1130 -33 
Q 819 25 488 141 
L 488 750 
Q 750 597 1062 519 
Q 1375 441 1716 441 
Q 2309 441 2620 675 
Q 2931 909 2931 1356 
Q 2931 1769 2642 2001 
Q 2353 2234 1838 2234 
L 1294 2234 
L 1294 2753 
L 1863 2753 
Q 2328 2753 2575 2939 
Q 2822 3125 2822 3475 
Q 2822 3834 2567 4026 
Q 2313 4219 1838 4219 
Q 1578 4219 1281 4162 
Q 984 4106 628 3988 
L 628 4550 
Q 988 4650 1302 4700 
Q 1616 4750 1894 4750 
Q 2613 4750 3031 4423 
Q 3450 4097 3450 3541 
Q 3450 3153 3228 2886 
Q 3006 2619 2597 2516 
z
" transform="scale(0.015625)"/>
       </defs>
       <use xlink:href="#DejaVuSans-32"/>
       <use xlink:href="#DejaVuSans-30" x="63.623047"/>
       <use xlink:href="#DejaVuSans-32" x="127.246094"/>
       <use xlink:href="#DejaVuSans-32" x="190.869141"/>
       <use xlink:href="#DejaVuSans-2d" x="254.492188"/>
       <use xlink:href="#DejaVuSans-30" x="290.576172"/>
       <use xlink:href="#DejaVuSans-31" x="354.199219"/>
       <use xlink:href="#DejaVuSans-2d" x="417.822266"/>
       <use xlink:href="#DejaVuSans-30" x="453.90625"/>
       <use xlink:href="#DejaVuSans-33" x="517.529297"/>
      </g>
     </g>
    </g>
    <g id="xtick_3">
     <g id="line2d_3">
      <g>
       <use xlink:href="#m745ee4e9a9" x="326.037706" y="320.4" style="stroke: #000000; stroke-width: 0.8"/>
      </g>
     </g>
     <g id="text_3">
      <!-- 2022-01-05 -->
      <g transform="translate(291.168331 336.518125) scale(0.12 -0.12)">
       <defs>
        <path id="DejaVuSans-35" d="M 691 4666 
L 3169 4666 
L 3169 4134 
L 1269 4134 
L 1269 2991 
Q 1406 3038 1543 3061 
Q 1681 3084 1819 3084 
Q 2600 3084 3056 2656 
Q 3513 2228 3513 1497 
Q 3513 744 3044 326 
Q 2575 -91 1722 -91 
Q 1428 -91 1123 -41 
Q 819 9 494 109 
L 494 744 
Q 775 591 1075 516 
Q 1375 441 1709 441 
Q 2250 441 2565 725 
Q 2881 1009 2881 1497 
Q 2881 1984 2565 2268 
Q 2250 2553 1709 2553 
Q 1456 2553 1204 2497 
Q 953 2441 691 2322 
L 691 4666 
z
" transform="scale(0.015625)"/>
       </defs>
       <use xlink:href="#DejaVuSans-32"/>
       <use xlink:href="#DejaVuSans-30" x="63.623047"/>
       <use xlink:href="#DejaVuSans-32" x="127.246094"/>
       <use xlink:href="#DejaVuSans-32" x="190.869141"/>
       <use xlink:href="#DejaVuSans-2d" x="254.492188"/>
       <use xlink:href="#DejaVuSans-30" x="290.576172"/>
       <use xlink:href="#DejaVuSans-31" x="354.199219"/>
       <use xlink:href="#DejaVuSans-2d" x="417.822266"/>
       <use xlink:href="#DejaVuSans-30" x="453.90625"/>
       <use xlink:href="#DejaVuSans-35" x="517.529297"/>
      </g>
     </g>
    </g>
    <g id="xtick_4">
     <g id="line2d_4">
      <g>
       <use xlink:href="#m745ee4e9a9" x="419.838377" y="320.4" style="stroke: #000000; stroke-width: 0.8"/>
      </g>
     </g>
     <g id="text_4">
      <!-- 2022-01-07 -->
      <g transform="translate(384.969002 336.518125) scale(0.12 -0.12)">
       <defs>
        <path id="DejaVuSans-37" d="M 525 4666 
L 3525 4666 
L 3525 4397 
L 1831 0 
L 1172 0 
L 2766 4134 
L 525 4134 
L 525 4666 
z
" transform="scale(0.015625)"/>
       </defs>
       <use xlink:href="#DejaVuSans-32"/>
       <use xlink:href="#DejaVuSans-30" x="63.623047"/>
       <use xlink:href="#DejaVuSans-32" x="127.246094"/>
       <use xlink:href="#DejaVuSans-32" x="190.869141"/>
       <use xlink:href="#DejaVuSans-2d" x="254.492188"/>
       <use xlink:href="#DejaVuSans-30" x="290.576172"/>
       <use xlink:href="#DejaVuSans-31" x="354.199219"/>
       <use xlink:href="#DejaVuSans-2d" x="417.822266"/>
       <use xlink:href="#DejaVuSans-30" x="453.90625"/>
       <use xlink:href="#DejaVuSans-37" x="517.529297"/>
      </g>
     </g>
    </g>
    <g id="xtick_5">
     <g id="line2d_5">
      <g>
       <use xlink:href="#m745ee4e9a9" x="513.639049" y="320.4" style="stroke: #000000; stroke-width: 0.8"/>
      </g>
     </g>
     <g id="text_5">
      <!-- 2022-01-09 -->
      <g transform="translate(478.769674 336.518125) scale(0.12 -0.12)">
       <defs>
        <path id="DejaVuSans-39" d="M 703 97 
L 703 672 
Q 941 559 1184 500 
Q 1428 441 1663 441 
Q 2288 441 2617 861 
Q 2947 1281 2994 2138 
Q 2813 1869 2534 1725 
Q 2256 1581 1919 1581 
Q 1219 1581 811 2004 
Q 403 2428 403 3163 
Q 403 3881 828 4315 
Q 1253 4750 1959 4750 
Q 2769 4750 3195 4129 
Q 3622 3509 3622 2328 
Q 3622 1225 3098 567 
Q 2575 -91 1691 -91 
Q 1453 -91 1209 -44 
Q 966 3 703 97 
z
M 1959 2075 
Q 2384 2075 2632 2365 
Q 2881 2656 2881 3163 
Q 2881 3666 2632 3958 
Q 2384 4250 1959 4250 
Q 1534 4250 1286 3958 
Q 1038 3666 1038 3163 
Q 1038 2656 1286 2365 
Q 1534 2075 1959 2075 
z
" transform="scale(0.015625)"/>
       </defs>
       <use xlink:href="#DejaVuSans-32"/>
       <use xlink:href="#DejaVuSans-30" x="63.623047"/>
       <use xlink:href="#DejaVuSans-32" x="127.246094"/>
       <use xlink:href="#DejaVuSans-32" x="190.869141"/>
       <use xlink:href="#DejaVuSans-2d" x="254.492188"/>
       <use xlink:href="#DejaVuSans-30" x="290.576172"/>
       <use xlink:href="#DejaVuSans-31" x="354.199219"/>
       <use xlink:href="#DejaVuSans-2d" x="417.822266"/>
       <use xlink:href="#DejaVuSans-30" x="453.90625"/>
       <use xlink:href="#DejaVuSans-39" x="517.529297"/>
      </g>
     </g>
    </g>
    <g id="xtick_6">
     <g id="line2d_6">
      <g>
       <use xlink:href="#m745ee4e9a9" x="607.43972" y="320.4" style="stroke: #000000; stroke-width: 0.8"/>
      </g>
     </g>
     <g id="text_6">
      <!-- 2022-01-11 -->
      <g transform="translate(572.570345 336.518125) scale(0.12 -0.12)">
       <use xlink:href="#DejaVuSans-32"/>
       <use xlink:href="#DejaVuSans-30" x="63.623047"/>
       <use xlink:href="#DejaVuSans-32" x="127.246094"/>
       <use xlink:href="#DejaVuSans-32" x="190.869141"/>
       <use xlink:href="#DejaVuSans-2d" x="254.492188"/>
       <use xlink:href="#DejaVuSans-30" x="290.576172"/>
       <use xlink:href="#DejaVuSans-31" x="354.199219"/>
       <use xlink:href="#DejaVuSans-2d" x="417.822266"/>
       <use xlink:href="#DejaVuSans-31" x="453.90625"/>
       <use xlink:href="#DejaVuSans-31" x="517.529297"/>
      </g>
     </g>
    </g>
    <g id="xtick_7">
     <g id="line2d_7">
      <g>
       <use xlink:href="#m745ee4e9a9" x="701.240391" y="320.4" style="stroke: #000000; stroke-width: 0.8"/>
      </g>
     </g>
     <g id="text_7">
      <!-- 2022-01-13 -->
      <g transform="translate(666.371016 336.518125) scale(0.12 -0.12)">
       <use xlink:href="#DejaVuSans-32"/>
       <use xlink:href="#DejaVuSans-30" x="63.623047"/>
       <use xlink:href="#DejaVuSans-32" x="127.246094"/>
       <use xlink:href="#DejaVuSans-32" x="190.869141"/>
       <use xlink:href="#DejaVuSans-2d" x="254.492188"/>
       <use xlink:href="#DejaVuSans-30" x="290.576172"/>
       <use xlink:href="#DejaVuSans-31" x="354.199219"/>
       <use xlink:href="#DejaVuSans-2d" x="417.822266"/>
       <use xlink:href="#DejaVuSans-31" x="453.90625"/>
       <use xlink:href="#DejaVuSans-33" x="517.529297"/>
      </g>
     </g>
    </g>
    <g id="text_8">
     <!-- TIME (DAYS) -->
     <g transform="translate(393.97375 355.17125) scale(0.16 -0.16)">
      <defs>
       <path id="DejaVuSans-54" d="M -19 4666 
L 3928 4666 
L 3928 4134 
L 2272 4134 
L 2272 0 
L 1638 0 
L 1638 4134 
L -19 4134 
L -19 4666 
z
" transform="scale(0.015625)"/>
       <path id="DejaVuSans-49" d="M 628 4666 
L 1259 4666 
L 1259 0 
L 628 0 
L 628 4666 
z
" transform="scale(0.015625)"/>
       <path id="DejaVuSans-4d" d="M 628 4666 
L 1569 4666 
L 2759 1491 
L 3956 4666 
L 4897 4666 
L 4897 0 
L 4281 0 
L 4281 4097 
L 3078 897 
L 2444 897 
L 1241 4097 
L 1241 0 
L 628 0 
L 628 4666 
z
" transform="scale(0.015625)"/>
       <path id="DejaVuSans-45" d="M 628 4666 
L 3578 4666 
L 3578 4134 
L 1259 4134 
L 1259 2753 
L 3481 2753 
L 3481 2222 
L 1259 2222 
L 1259 531 
L 3634 531 
L 3634 0 
L 628 0 
L 628 4666 
z
" transform="scale(0.015625)"/>
       <path id="DejaVuSans-20" transform="scale(0.015625)"/>
       <path id="DejaVuSans-28" d="M 1984 4856 
Q 1566 4138 1362 3434 
Q 1159 2731 1159 2009 
Q 1159 1288 1364 580 
Q 1569 -128 1984 -844 
L 1484 -844 
Q 1016 -109 783 600 
Q 550 1309 550 2009 
Q 550 2706 781 3412 
Q 1013 4119 1484 4856 
L 1984 4856 
z
" transform="scale(0.015625)"/>
       <path id="DejaVuSans-44" d="M 1259 4147 
L 1259 519 
L 2022 519 
Q 2988 519 3436 956 
Q 3884 1394 3884 2338 
Q 3884 3275 3436 3711 
Q 2988 4147 2022 4147 
L 1259 4147 
z
M 628 4666 
L 1925 4666 
Q 3281 4666 3915 4102 
Q 4550 3538 4550 2338 
Q 4550 1131 3912 565 
Q 3275 0 1925 0 
L 628 0 
L 628 4666 
z
" transform="scale(0.015625)"/>
       <path id="DejaVuSans-41" d="M 2188 4044 
L 1331 1722 
L 3047 1722 
L 2188 4044 
z
M 1831 4666 
L 2547 4666 
L 4325 0 
L 3669 0 
L 3244 1197 
L 1141 1197 
L 716 0 
L 50 0 
L 1831 4666 
z
" transform="scale(0.015625)"/>
       <path id="DejaVuSans-59" d="M -13 4666 
L 666 4666 
L 1959 2747 
L 3244 4666 
L 3922 4666 
L 2272 2222 
L 2272 0 
L 1638 0 
L 1638 2222 
L -13 4666 
z
" transform="scale(0.015625)"/>
       <path id="DejaVuSans-53" d="M 3425 4513 
L 3425 3897 
Q 3066 4069 2747 4153 
Q 2428 4238 2131 4238 
Q 1616 4238 1336 4038 
Q 1056 3838 1056 3469 
Q 1056 3159 1242 3001 
Q 1428 2844 1947 2747 
L 2328 2669 
Q 3034 2534 3370 2195 
Q 3706 1856 3706 1288 
Q 3706 609 3251 259 
Q 2797 -91 1919 -91 
Q 1588 -91 1214 -16 
Q 841 59 441 206 
L 441 856 
Q 825 641 1194 531 
Q 1563 422 1919 422 
Q 2459 422 2753 634 
Q 3047 847 3047 1241 
Q 3047 1584 2836 1778 
Q 2625 1972 2144 2069 
L 1759 2144 
Q 1053 2284 737 2584 
Q 422 2884 422 3419 
Q 422 4038 858 4394 
Q 1294 4750 2059 4750 
Q 2388 4750 2728 4690 
Q 3069 4631 3425 4513 
z
" transform="scale(0.015625)"/>
       <path id="DejaVuSans-29" d="M 513 4856 
L 1013 4856 
Q 1481 4119 1714 3412 
Q 1947 2706 1947 2009 
Q 1947 1309 1714 600 
Q 1481 -109 1013 -844 
L 513 -844 
Q 928 -128 1133 580 
Q 1338 1288 1338 2009 
Q 1338 2731 1133 3434 
Q 928 4138 513 4856 
z
" transform="scale(0.015625)"/>
      </defs>
      <use xlink:href="#DejaVuSans-54"/>
      <use xlink:href="#DejaVuSans-49" x="61.083984"/>
      <use xlink:href="#DejaVuSans-4d" x="90.576172"/>
      <use xlink:href="#DejaVuSans-45" x="176.855469"/>
      <use xlink:href="#DejaVuSans-20" x="240.039062"/>
      <use xlink:href="#DejaVuSans-28" x="271.826172"/>
      <use xlink:href="#DejaVuSans-44" x="310.839844"/>
      <use xlink:href="#DejaVuSans-41" x="386.091797"/>
      <use xlink:href="#DejaVuSans-59" x="446.75"/>
      <use xlink:href="#DejaVuSans-53" x="507.833984"/>
      <use xlink:href="#DejaVuSans-29" x="571.310547"/>
     </g>
    </g>
   </g>
   <g id="matplotlib.axis_2">
    <g id="ytick_1">
     <g id="line2d_8">
      <defs>
       <path id="m1e47945ba8" d="M 0 0 
L -3.5 0 
" style="stroke: #000000; stroke-width: 0.8"/>
      </defs>
      <g>
       <use xlink:href="#m1e47945ba8" x="108" y="307.8" style="stroke: #000000; stroke-width: 0.8"/>
      </g>
     </g>
     <g id="text_9">
      <!-- 0 -->
      <g transform="translate(93.365 312.359062) scale(0.12 -0.12)">
       <use xlink:href="#DejaVuSans-30"/>
      </g>
     </g>
    </g>
    <g id="ytick_2">
     <g id="line2d_9">
      <g>
       <use xlink:href="#m1e47945ba8" x="108" y="264.201384" style="stroke: #000000; stroke-width: 0.8"/>
      </g>
     </g>
     <g id="text_10">
      <!-- 50 -->
      <g transform="translate(85.73 268.760447) scale(0.12 -0.12)">
       <use xlink:href="#DejaVuSans-35"/>
       <use xlink:href="#DejaVuSans-30" x="63.623047"/>
      </g>
     </g>
    </g>
    <g id="ytick_3">
     <g id="line2d_10">
      <g>
       <use xlink:href="#m1e47945ba8" x="108" y="220.602768" style="stroke: #000000; stroke-width: 0.8"/>
      </g>
     </g>
     <g id="text_11">
      <!-- 100 -->
      <g transform="translate(78.095 225.161831) scale(0.12 -0.12)">
       <use xlink:href="#DejaVuSans-31"/>
       <use xlink:href="#DejaVuSans-30" x="63.623047"/>
       <use xlink:href="#DejaVuSans-30" x="127.246094"/>
      </g>
     </g>
    </g>
    <g id="ytick_4">
     <g id="line2d_11">
      <g>
       <use xlink:href="#m1e47945ba8" x="108" y="177.004152" style="stroke: #000000; stroke-width: 0.8"/>
      </g>
     </g>
     <g id="text_12">
      <!-- 150 -->
      <g transform="translate(78.095 181.563215) scale(0.12 -0.12)">
       <use xlink:href="#DejaVuSans-31"/>
       <use xlink:href="#DejaVuSans-35" x="63.623047"/>
       <use xlink:href="#DejaVuSans-30" x="127.246094"/>
      </g>
     </g>
    </g>
    <g id="ytick_5">
     <g id="line2d_12">
      <g>
       <use xlink:href="#m1e47945ba8" x="108" y="133.405536" style="stroke: #000000; stroke-width: 0.8"/>
      </g>
     </g>
     <g id="text_13">
      <!-- 200 -->
      <g transform="translate(78.095 137.964599) scale(0.12 -0.12)">
       <use xlink:href="#DejaVuSans-32"/>
       <use xlink:href="#DejaVuSans-30" x="63.623047"/>
       <use xlink:href="#DejaVuSans-30" x="127.246094"/>
      </g>
     </g>
    </g>
    <g id="ytick_6">
     <g id="line2d_13">
      <g>
       <use xlink:href="#m1e47945ba8" x="108" y="89.80692" style="stroke: #000000; stroke-width: 0.8"/>
      </g>
     </g>
     <g id="text_14">
      <!-- 250 -->
      <g transform="translate(78.095 94.365983) scale(0.12 -0.12)">
       <use xlink:href="#DejaVuSans-32"/>
       <use xlink:href="#DejaVuSans-35" x="63.623047"/>
       <use xlink:href="#DejaVuSans-30" x="127.246094"/>
      </g>
     </g>
    </g>
    <g id="ytick_7">
     <g id="line2d_14">
      <g>
       <use xlink:href="#m1e47945ba8" x="108" y="46.208304" style="stroke: #000000; stroke-width: 0.8"/>
      </g>
     </g>
     <g id="text_15">
      <!-- 300 -->
      <g transform="translate(78.095 50.767367) scale(0.12 -0.12)">
       <use xlink:href="#DejaVuSans-33"/>
       <use xlink:href="#DejaVuSans-30" x="63.623047"/>
       <use xlink:href="#DejaVuSans-30" x="127.246094"/>
      </g>
     </g>
    </g>
    <g id="text_16">
     <!-- SIMULATED -->
     <g transform="translate(52.851 227.5875) rotate(-90) scale(0.16 -0.16)">
      <defs>
       <path id="DejaVuSans-55" d="M 556 4666 
L 1191 4666 
L 1191 1831 
Q 1191 1081 1462 751 
Q 1734 422 2344 422 
Q 2950 422 3222 751 
Q 3494 1081 3494 1831 
L 3494 4666 
L 4128 4666 
L 4128 1753 
Q 4128 841 3676 375 
Q 3225 -91 2344 -91 
Q 1459 -91 1007 375 
Q 556 841 556 1753 
L 556 4666 
z
" transform="scale(0.015625)"/>
       <path id="DejaVuSans-4c" d="M 628 4666 
L 1259 4666 
L 1259 531 
L 3531 531 
L 3531 0 
L 628 0 
L 628 4666 
z
" transform="scale(0.015625)"/>
      </defs>
      <use xlink:href="#DejaVuSans-53"/>
      <use xlink:href="#DejaVuSans-49" x="63.476562"/>
      <use xlink:href="#DejaVuSans-4d" x="92.96875"/>
      <use xlink:href="#DejaVuSans-55" x="179.248047"/>
      <use xlink:href="#DejaVuSans-4c" x="252.441406"/>
      <use xlink:href="#DejaVuSans-41" x="310.404297"/>
      <use xlink:href="#DejaVuSans-54" x="371.0625"/>
      <use xlink:href="#DejaVuSans-45" x="432.146484"/>
      <use xlink:href="#DejaVuSans-44" x="495.330078"/>
     </g>
     <!-- AMPLITUDE -->
     <g transform="translate(70.7675 227.7725) rotate(-90) scale(0.16 -0.16)">
      <defs>
       <path id="DejaVuSans-50" d="M 1259 4147 
L 1259 2394 
L 2053 2394 
Q 2494 2394 2734 2622 
Q 2975 2850 2975 3272 
Q 2975 3691 2734 3919 
Q 2494 4147 2053 4147 
L 1259 4147 
z
M 628 4666 
L 2053 4666 
Q 2838 4666 3239 4311 
Q 3641 3956 3641 3272 
Q 3641 2581 3239 2228 
Q 2838 1875 2053 1875 
L 1259 1875 
L 1259 0 
L 628 0 
L 628 4666 
z
" transform="scale(0.015625)"/>
      </defs>
      <use xlink:href="#DejaVuSans-41"/>
      <use xlink:href="#DejaVuSans-4d" x="68.408203"/>
      <use xlink:href="#DejaVuSans-50" x="154.6875"/>
      <use xlink:href="#DejaVuSans-4c" x="214.990234"/>
      <use xlink:href="#DejaVuSans-49" x="270.703125"/>
      <use xlink:href="#DejaVuSans-54" x="300.195312"/>
      <use xlink:href="#DejaVuSans-55" x="361.279297"/>
      <use xlink:href="#DejaVuSans-44" x="434.472656"/>
      <use xlink:href="#DejaVuSans-45" x="511.474609"/>
     </g>
    </g>
   </g>
   <g id="line2d_15">
    <path d="M 138.436364 217.114879 
L 139.413454 307.8 
L 140.390544 250.249827 
L 141.367635 266.817301 
L 142.344725 307.8 
L 143.321815 307.8 
L 144.298906 231.066436 
L 145.275996 307.8 
L 146.253086 307.8 
L 147.230177 237.170242 
L 148.207267 303.440138 
L 149.184357 274.665052 
L 150.161448 307.8 
L 151.138538 303.440138 
L 152.115628 291.232526 
L 153.092719 301.696194 
L 154.069809 268.561246 
L 155.046899 267.689273 
L 156.023989 307.8 
L 157.00108 298.208304 
L 157.97817 292.104498 
L 158.95526 307.8 
L 159.932351 302.568166 
L 160.909441 269.433218 
L 161.886531 156.948789 
L 162.863622 236.29827 
L 163.840712 286.000692 
L 164.817802 238.042215 
L 165.794893 207.523183 
L 166.771983 245.017993 
L 167.749073 195.315571 
L 168.726164 307.8 
L 169.703254 292.976471 
L 170.680344 244.146021 
L 171.657435 255.481661 
L 172.634525 289.488581 
L 173.611615 156.948789 
L 174.588706 176.13218 
L 175.565796 159.564706 
L 176.542886 208.395156 
L 177.519977 224.090657 
L 178.497067 132.533564 
L 179.474157 229.322491 
L 180.451248 82.831142 
L 181.428338 196.187543 
L 182.405428 190.955709 
L 183.382519 237.170242 
L 184.359609 239.786159 
L 185.336699 276.408997 
L 186.31379 272.049135 
L 187.29088 299.952249 
L 188.26797 307.8 
L 189.245061 280.768858 
L 190.222151 307.8 
L 191.199241 253.737716 
L 192.176332 307.8 
L 193.153422 280.768858 
L 194.130512 272.921107 
L 195.107603 232.810381 
L 196.084693 261.585467 
L 197.061783 307.8 
L 199.015964 307.8 
L 199.993054 306.928028 
L 200.970144 307.8 
L 201.947235 279.024913 
L 202.924325 287.744637 
L 203.901415 307.8 
L 205.855596 307.8 
L 206.832686 258.097578 
L 207.809777 225.834602 
L 208.786867 182.235986 
L 209.763957 161.308651 
L 210.741048 192.699654 
L 211.718138 252.865744 
L 212.695228 202.291349 
L 213.672319 163.924567 
L 214.649409 149.97301 
L 215.626499 189.211765 
L 216.60359 165.668512 
L 217.58068 296.46436 
L 218.55777 210.1391 
L 219.534861 205.779239 
L 220.511951 273.79308 
L 221.489041 190.955709 
L 222.466132 238.914187 
L 223.443222 307.8 
L 224.420312 168.284429 
L 225.397403 247.63391 
L 226.374493 204.035294 
L 227.351583 292.976471 
L 228.328674 306.056055 
L 229.305764 294.720415 
L 230.282854 257.225606 
L 231.259945 197.931488 
L 232.237035 307.8 
L 233.214125 307.8 
L 234.191216 270.30519 
L 235.168306 307.8 
L 236.145396 161.308651 
L 237.122487 307.8 
L 239.076667 307.8 
L 240.053757 275.537024 
L 241.030848 280.768858 
L 242.007938 297.336332 
L 242.985028 304.312111 
L 243.962119 307.8 
L 244.939209 195.315571 
L 245.916299 301.696194 
L 246.89339 229.322491 
L 247.87048 307.8 
L 248.84757 307.8 
L 249.824661 294.720415 
L 250.801751 307.8 
L 252.755932 307.8 
L 253.733022 264.201384 
L 254.710112 307.8 
L 255.687203 307.8 
L 256.664293 286.872664 
L 257.641383 187.46782 
L 258.618474 272.921107 
L 259.595564 173.516263 
L 260.572654 199.675433 
L 261.549745 196.187543 
L 262.526835 159.564706 
L 263.503925 197.059516 
L 264.481016 80.215225 
L 265.458106 119.453979 
L 266.435196 237.170242 
L 267.412287 231.066436 
L 268.389377 307.8 
L 269.366467 55.8 
L 270.343558 265.073356 
L 271.320648 98.526644 
L 272.297738 287.744637 
L 273.274829 235.426298 
L 274.251919 214.498962 
L 275.229009 264.201384 
L 276.2061 171.772318 
L 277.18319 257.225606 
L 278.16028 204.907266 
L 280.114461 307.8 
L 281.091551 292.104498 
L 282.068641 196.187543 
L 283.045732 246.761938 
L 284.022822 307.8 
L 284.999912 248.505882 
L 285.977003 242.402076 
L 286.954093 307.8 
L 287.931183 300.824221 
L 288.908274 255.481661 
L 289.885364 307.8 
L 290.862454 307.8 
L 291.839545 265.945329 
L 292.816635 277.280969 
L 293.793725 307.8 
L 294.770816 256.353633 
L 295.747906 307.8 
L 296.724996 266.817301 
L 297.702087 307.8 
L 299.656267 307.8 
L 300.633358 306.928028 
L 301.610448 307.8 
L 302.587538 211.883045 
L 303.564629 154.332872 
L 304.541719 253.737716 
L 305.518809 273.79308 
L 306.4959 253.737716 
L 307.47299 251.121799 
L 308.45008 206.651211 
L 309.427171 285.12872 
L 310.404261 176.13218 
L 311.381351 190.083737 
L 312.358442 220.602768 
L 313.335532 234.554325 
L 314.312622 170.900346 
L 315.289713 122.941869 
L 316.266803 307.8 
L 317.243893 264.201384 
L 318.220984 307.8 
L 319.198074 241.530104 
L 320.175164 198.80346 
L 321.152254 217.986851 
L 322.129345 251.121799 
L 323.106435 163.924567 
L 324.083525 146.485121 
L 325.060616 285.12872 
L 326.037706 307.8 
L 327.014796 307.8 
L 327.991887 258.96955 
L 328.968977 173.516263 
L 329.946067 307.8 
L 330.923158 298.208304 
L 331.900248 307.8 
L 332.877338 250.249827 
L 333.854429 307.8 
L 334.831519 280.768858 
L 335.808609 307.8 
L 336.7857 271.177163 
L 337.76279 307.8 
L 338.73988 307.8 
L 339.716971 286.000692 
L 340.694061 292.976471 
L 341.671151 307.8 
L 342.648242 243.274048 
L 343.625332 246.761938 
L 344.602422 307.8 
L 345.579513 299.952249 
L 346.556603 307.8 
L 347.533693 231.938408 
L 348.510784 307.8 
L 349.487874 204.035294 
L 350.464964 155.204844 
L 351.442055 211.011073 
L 352.419145 294.720415 
L 353.396235 260.713495 
L 354.373326 276.408997 
L 355.350416 218.858824 
L 356.327506 169.156401 
L 357.304597 191.827682 
L 358.281687 293.848443 
L 359.258777 220.602768 
L 360.235868 222.346713 
L 361.212958 221.47474 
L 362.190048 213.62699 
L 363.167138 230.194464 
L 364.144229 202.291349 
L 365.121319 307.8 
L 366.098409 292.104498 
L 367.0755 211.883045 
L 368.05259 256.353633 
L 369.02968 258.96955 
L 370.006771 198.80346 
L 370.983861 307.8 
L 373.915132 307.8 
L 374.892222 259.841522 
L 375.869313 307.8 
L 376.846403 215.370934 
L 377.823493 307.8 
L 378.800584 307.8 
L 379.777674 226.706574 
L 380.754764 307.8 
L 381.731855 307.8 
L 382.708945 188.339792 
L 384.663126 296.46436 
L 385.640216 307.8 
L 386.617306 307.8 
L 387.594397 303.440138 
L 388.571487 307.8 
L 389.548577 235.426298 
L 390.525668 239.786159 
L 391.502758 307.8 
L 392.479848 284.256747 
L 393.456939 300.824221 
L 394.434029 279.896886 
L 395.411119 225.834602 
L 396.38821 208.395156 
L 397.3653 307.8 
L 398.34239 283.384775 
L 399.319481 198.80346 
L 400.296571 307.8 
L 401.273661 286.872664 
L 402.250751 292.104498 
L 403.227842 274.665052 
L 404.204932 265.073356 
L 405.182022 175.260208 
L 406.159113 185.723875 
L 407.136203 177.004152 
L 408.113293 100.270588 
L 409.090384 244.146021 
L 410.067474 177.876125 
L 411.044564 233.682353 
L 412.021655 237.170242 
L 412.998745 141.253287 
L 413.975835 170.028374 
L 414.952926 272.049135 
L 415.930016 233.682353 
L 416.907106 241.530104 
L 417.884197 205.779239 
L 418.861287 307.8 
L 420.815468 307.8 
L 421.792558 224.090657 
L 423.746739 307.8 
L 424.723829 252.865744 
L 425.700919 307.8 
L 429.609281 307.8 
L 430.586371 231.938408 
L 431.563461 307.8 
L 433.517642 307.8 
L 434.494732 256.353633 
L 435.471823 298.208304 
L 436.448913 284.256747 
L 437.426003 307.8 
L 438.403094 292.104498 
L 439.380184 307.8 
L 441.334365 307.8 
L 442.311455 296.46436 
L 443.288545 279.896886 
L 444.265635 272.921107 
L 445.242726 286.000692 
L 446.219816 295.592388 
L 447.196906 145.613149 
L 448.173997 228.450519 
L 449.151087 296.46436 
L 450.128177 289.488581 
L 451.105268 241.530104 
L 452.082358 238.914187 
L 453.059448 181.364014 
L 454.036539 155.204844 
L 455.013629 171.772318 
L 455.990719 122.941869 
L 456.96781 224.090657 
L 457.9449 219.730796 
L 458.92199 218.858824 
L 459.899081 218.858824 
L 460.876171 245.017993 
L 461.853261 275.537024 
L 462.830352 225.834602 
L 463.807442 212.755017 
L 464.784532 219.730796 
L 465.761623 307.8 
L 466.738713 244.146021 
L 467.715803 243.274048 
L 468.692894 299.080277 
L 469.669984 294.720415 
L 470.647074 307.8 
L 473.578345 307.8 
L 474.555436 245.889965 
L 475.532526 307.8 
L 476.509616 256.353633 
L 477.486707 307.8 
L 479.440887 307.8 
L 480.417978 235.426298 
L 481.395068 307.8 
L 482.372158 307.8 
L 483.349249 258.96955 
L 484.326339 307.8 
L 485.303429 307.8 
L 486.280519 287.744637 
L 487.25761 295.592388 
L 488.2347 307.8 
L 489.21179 250.249827 
L 490.188881 161.308651 
L 491.165971 261.585467 
L 492.143061 279.024913 
L 493.120152 241.530104 
L 494.097242 214.498962 
L 495.074332 230.194464 
L 496.051423 204.035294 
L 497.028513 238.914187 
L 498.005603 211.883045 
L 498.982694 283.384775 
L 499.959784 161.308651 
L 500.936874 299.952249 
L 501.913965 266.817301 
L 502.891055 240.658131 
L 503.868145 217.986851 
L 504.845236 117.710035 
L 505.822326 183.979931 
L 506.799416 186.595848 
L 507.776507 211.883045 
L 508.753597 177.004152 
L 509.730687 186.595848 
L 510.707778 247.63391 
L 511.684868 259.841522 
L 512.661958 232.810381 
L 513.639049 294.720415 
L 514.616139 307.8 
L 515.593229 280.768858 
L 516.57032 217.986851 
L 517.54741 307.8 
L 518.5245 307.8 
L 519.501591 300.824221 
L 520.478681 251.993772 
L 521.455771 260.713495 
L 522.432862 307.8 
L 526.341223 307.8 
L 527.318313 302.568166 
L 528.295403 307.8 
L 533.180855 307.8 
L 534.157945 282.512803 
L 535.135036 307.8 
L 536.112126 307.8 
L 537.089216 297.336332 
L 538.066307 203.163322 
L 539.043397 93.29481 
L 540.020487 245.017993 
L 540.997578 299.080277 
L 541.974668 208.395156 
L 542.951758 262.457439 
L 543.928849 193.571626 
L 544.905939 186.595848 
L 545.883029 175.260208 
L 546.86012 235.426298 
L 547.83721 226.706574 
L 548.8143 135.149481 
L 549.791391 243.274048 
L 550.768481 162.180623 
L 551.745571 168.284429 
L 552.722662 274.665052 
L 553.699752 177.876125 
L 554.676842 288.616609 
L 555.653933 241.530104 
L 556.631023 225.834602 
L 557.608113 174.388235 
L 558.585204 200.547405 
L 559.562294 272.921107 
L 560.539384 307.8 
L 561.516475 208.395156 
L 562.493565 307.8 
L 563.470655 307.8 
L 564.447746 303.440138 
L 565.424836 304.312111 
L 566.401926 307.8 
L 567.379016 307.8 
L 568.356107 260.713495 
L 569.333197 307.8 
L 571.287378 307.8 
L 572.264468 279.896886 
L 573.241558 302.568166 
L 574.218649 274.665052 
L 575.195739 251.993772 
L 576.172829 304.312111 
L 577.14992 189.211765 
L 579.1041 307.8 
L 580.081191 292.104498 
L 581.058281 225.834602 
L 582.035371 255.481661 
L 583.012462 224.96263 
L 583.989552 251.121799 
L 584.966642 171.772318 
L 585.943733 263.329412 
L 586.920823 172.644291 
L 587.897913 270.30519 
L 588.875004 204.907266 
L 589.852094 307.8 
L 590.829184 230.194464 
L 591.806275 245.017993 
L 592.783365 231.066436 
L 593.760455 206.651211 
L 594.737546 283.384775 
L 595.714636 186.595848 
L 596.691726 190.955709 
L 597.668817 165.668512 
L 598.645907 172.644291 
L 599.622997 302.568166 
L 600.600088 292.976471 
L 601.577178 184.851903 
L 602.554268 216.242907 
L 603.531359 242.402076 
L 604.508449 150.844983 
L 605.485539 286.000692 
L 606.46263 307.8 
L 607.43972 307.8 
L 608.41681 281.64083 
L 609.3939 196.187543 
L 610.370991 307.8 
L 611.348081 287.744637 
L 612.325171 290.360554 
L 613.302262 299.080277 
L 614.279352 208.395156 
L 615.256442 283.384775 
L 616.233533 204.907266 
L 617.210623 307.8 
L 618.187713 307.8 
L 619.164804 272.921107 
L 620.141894 159.564706 
L 621.118984 307.8 
L 623.073165 307.8 
L 624.050255 201.419377 
L 625.027346 307.8 
L 627.958617 307.8 
L 628.935707 265.945329 
L 629.912797 136.021453 
L 630.889888 205.779239 
L 632.844068 170.900346 
L 633.821159 250.249827 
L 634.798249 197.059516 
L 635.775339 223.218685 
L 636.75243 204.907266 
L 637.72952 71.495502 
L 638.70661 205.779239 
L 639.683701 270.30519 
L 640.660791 170.028374 
L 641.637881 184.851903 
L 642.614972 170.900346 
L 643.592062 197.931488 
L 644.569152 238.914187 
L 645.546243 228.450519 
L 646.523333 140.381315 
L 647.500423 222.346713 
L 648.477513 216.242907 
L 649.454604 204.907266 
L 650.431694 270.30519 
L 651.408784 252.865744 
L 652.385875 244.146021 
L 653.362965 223.218685 
L 654.340055 248.505882 
L 656.294236 307.8 
L 660.202597 307.8 
L 661.179688 289.488581 
L 662.156778 307.8 
L 663.133868 307.8 
L 664.110959 299.080277 
L 665.088049 307.8 
L 666.065139 304.312111 
L 667.04223 307.8 
L 668.01932 277.280969 
L 668.99641 260.713495 
L 669.973501 205.779239 
L 670.950591 292.976471 
L 671.927681 237.170242 
L 672.904772 307.8 
L 673.881862 260.713495 
L 674.858952 292.104498 
L 675.836043 240.658131 
L 676.813133 199.675433 
L 677.790223 269.433218 
L 678.767314 183.107958 
L 679.744404 222.346713 
L 680.721494 307.8 
L 681.698585 163.924567 
L 682.675675 287.744637 
L 683.652765 251.121799 
L 684.629856 206.651211 
L 685.606946 233.682353 
L 686.584036 158.692734 
L 687.561127 139.509343 
L 688.538217 223.218685 
L 689.515307 180.492042 
L 690.492397 204.035294 
L 691.469488 246.761938 
L 692.446578 167.412457 
L 693.423668 194.443599 
L 694.400759 272.049135 
L 695.377849 186.595848 
L 696.354939 190.083737 
L 697.33203 177.004152 
L 698.30912 289.488581 
L 699.28621 306.056055 
L 700.263301 307.8 
L 701.240391 242.402076 
L 702.217481 222.346713 
L 703.194572 307.8 
L 704.171662 272.921107 
L 705.148752 294.720415 
L 706.125843 307.8 
L 707.102933 307.8 
L 708.080023 216.242907 
L 709.057114 307.8 
L 710.034204 216.242907 
L 711.011294 304.312111 
L 711.988385 307.8 
L 712.965475 307.8 
L 713.942565 244.146021 
L 714.919656 297.336332 
L 715.896746 273.79308 
L 716.873836 307.8 
L 717.850927 290.360554 
L 718.828017 248.505882 
L 719.805107 307.8 
L 720.782198 307.8 
L 721.759288 199.675433 
L 722.736378 187.46782 
L 723.713469 183.107958 
L 724.690559 149.97301 
L 725.667649 251.121799 
L 726.64474 305.184083 
L 727.62183 156.948789 
L 728.59892 273.79308 
L 729.576011 197.931488 
L 730.553101 227.578547 
L 731.530191 247.63391 
L 732.507281 190.955709 
L 733.484372 240.658131 
L 734.461462 240.658131 
L 735.438552 166.540484 
L 736.415643 170.028374 
L 737.392733 262.457439 
L 738.369823 272.921107 
L 739.346914 307.8 
L 741.301094 307.8 
L 742.278185 265.945329 
L 743.255275 284.256747 
L 744.232365 237.170242 
L 745.209456 224.090657 
L 746.186546 307.8 
L 747.163636 307.8 
L 747.163636 307.8 
" clip-path="url(#p832c30c944)" style="fill: none; stroke: #191970; stroke-width: 2; stroke-linecap: square"/>
   </g>
   <g id="patch_3">
    <path d="M 108 320.4 
L 108 43.2 
" style="fill: none; stroke: #000000; stroke-width: 0.8; stroke-linejoin: miter; stroke-linecap: square"/>
   </g>
   <g id="patch_4">
    <path d="M 777.6 320.4 
L 777.6 43.2 
" style="fill: none; stroke: #000000; stroke-width: 0.8; stroke-linejoin: miter; stroke-linecap: square"/>
   </g>
   <g id="patch_5">
    <path d="M 108 320.4 
L 777.6 320.4 
" style="fill: none; stroke: #000000; stroke-width: 0.8; stroke-linejoin: miter; stroke-linecap: square"/>
   </g>
   <g id="patch_6">
    <path d="M 108 43.2 
L 777.6 43.2 
" style="fill: none; stroke: #000000; stroke-width: 0.8; stroke-linejoin: miter; stroke-linecap: square"/>
   </g>
   <g id="text_17">
    <!-- TIME SERIES -->
    <g transform="translate(386.625938 37.2) scale(0.18 -0.18)">
     <defs>
      <path id="DejaVuSans-52" d="M 2841 2188 
Q 3044 2119 3236 1894 
Q 3428 1669 3622 1275 
L 4263 0 
L 3584 0 
L 2988 1197 
Q 2756 1666 2539 1819 
Q 2322 1972 1947 1972 
L 1259 1972 
L 1259 0 
L 628 0 
L 628 4666 
L 2053 4666 
Q 2853 4666 3247 4331 
Q 3641 3997 3641 3322 
Q 3641 2881 3436 2590 
Q 3231 2300 2841 2188 
z
M 1259 4147 
L 1259 2491 
L 2053 2491 
Q 2509 2491 2742 2702 
Q 2975 2913 2975 3322 
Q 2975 3731 2742 3939 
Q 2509 4147 2053 4147 
L 1259 4147 
z
" transform="scale(0.015625)"/>
     </defs>
     <use xlink:href="#DejaVuSans-54"/>
     <use xlink:href="#DejaVuSans-49" x="61.083984"/>
     <use xlink:href="#DejaVuSans-4d" x="90.576172"/>
     <use xlink:href="#DejaVuSans-45" x="176.855469"/>
     <use xlink:href="#DejaVuSans-20" x="240.039062"/>
     <use xlink:href="#DejaVuSans-53" x="271.826172"/>
     <use xlink:href="#DejaVuSans-45" x="335.302734"/>
     <use xlink:href="#DejaVuSans-52" x="398.486328"/>
     <use xlink:href="#DejaVuSans-49" x="467.96875"/>
     <use xlink:href="#DejaVuSans-45" x="497.460938"/>
     <use xlink:href="#DejaVuSans-53" x="560.644531"/>
    </g>
   </g>
  </g>
 </g>
 <defs>
  <clipPath id="p832c30c944">
   <rect x="108" y="43.2" width="669.6" height="277.2"/>
  </clipPath>
 </defs>
</svg>
