<?xml version="1.0" encoding="utf-8" standalone="no"?>
<!DOCTYPE svg PUBLIC "-//W3C//DTD SVG 1.1//EN"
  "http://www.w3.org/Graphics/SVG/1.1/DTD/svg11.dtd">
<svg xmlns:xlink="http://www.w3.org/1999/xlink" width="864pt" height="360pt" viewBox="0 0 864 360" xmlns="http://www.w3.org/2000/svg" version="1.1">
 <metadata>
  <rdf:RDF xmlns:dc="http://purl.org/dc/elements/1.1/" xmlns:cc="http://creativecommons.org/ns#" xmlns:rdf="http://www.w3.org/1999/02/22-rdf-syntax-ns#">
   <cc:Work>
    <dc:type rdf:resource="http://purl.org/dc/dcmitype/StillImage"/>
    <dc:date>2023-11-27T21:10:18.299601</dc:date>
    <dc:format>image/svg+xml</dc:format>
    <dc:creator>
     <cc:Agent>
      <dc:title>Matplotlib v3.7.4, https://matplotlib.org/</dc:title>
     </cc:Agent>
    </dc:creator>
   </cc:Work>
  </rdf:RDF>
 </metadata>
 <defs>
  <style type="text/css">*{stroke-linejoin: round; stroke-linecap: butt}</style>
 </defs>
 <g id="figure_1">
  <g id="patch_1">
   <path d="M 0 360 
L 864 360 
L 864 0 
L 0 0 
z
" style="fill: #ffffff"/>
  </g>
  <g id="axes_1">
   <g id="patch_2">
    <path d="M 108 320.4 
L 777.6 320.4 
L 777.6 43.2 
L 108 43.2 
z
" style="fill: #ffffff"/>
   </g>
   <g id="matplotlib.axis_1">
    <g id="xtick_1">
     <g id="line2d_1">
      <defs>
       <path id="m5e61437d47" d="M 0 0 
L 0 3.5 
" style="stroke: #000000; stroke-width: 0.8"/>
      </defs>
      <g>
       <use xlink:href="#m5e61437d47" x="138.436364" y="320.4" style="stroke: #000000; stroke-width: 0.8"/>
      </g>
     </g>
     <g id="text_1">
      <!-- 2022-01-01 -->
      <g transform="translate(103.566989 336.518125) scale(0.12 -0.12)">
       <defs>
        <path id="DejaVuSans-32" d="M 1228 531 
L 3431 531 
L 3431 0 
L 469 0 
L 469 531 
Q 828 903 1448 1529 
Q 2069 2156 2228 2338 
Q 2531 2678 2651 2914 
Q 2772 3150 2772 3378 
Q 2772 3750 2511 3984 
Q 2250 4219 1831 4219 
Q 1534 4219 1204 4116 
Q 875 4013 500 3803 
L 500 4441 
Q 881 4594 1212 4672 
Q 1544 4750 1819 4750 
Q 2544 4750 2975 4387 
Q 3406 4025 3406 3419 
Q 3406 3131 3298 2873 
Q 3191 2616 2906 2266 
Q 2828 2175 2409 1742 
Q 1991 1309 1228 531 
z
" transform="scale(0.015625)"/>
        <path id="DejaVuSans-30" d="M 2034 4250 
Q 1547 4250 1301 3770 
Q 1056 3291 1056 2328 
Q 1056 1369 1301 889 
Q 1547 409 2034 409 
Q 2525 409 2770 889 
Q 3016 1369 3016 2328 
Q 3016 3291 2770 3770 
Q 2525 4250 2034 4250 
z
M 2034 4750 
Q 2819 4750 3233 4129 
Q 3647 3509 3647 2328 
Q 3647 1150 3233 529 
Q 2819 -91 2034 -91 
Q 1250 -91 836 529 
Q 422 1150 422 2328 
Q 422 3509 836 4129 
Q 1250 4750 2034 4750 
z
" transform="scale(0.015625)"/>
        <path id="DejaVuSans-2d" d="M 313 2009 
L 1997 2009 
L 1997 1497 
L 313 1497 
L 313 2009 
z
" transform="scale(0.015625)"/>
        <path id="DejaVuSans-31" d="M 794 531 
L 1825 531 
L 1825 4091 
L 703 3866 
L 703 4441 
L 1819 4666 
L 2450 4666 
L 2450 531 
L 3481 531 
L 3481 0 
L 794 0 
L 794 531 
z
" transform="scale(0.015625)"/>
       </defs>
       <use xlink:href="#DejaVuSans-32"/>
       <use xlink:href="#DejaVuSans-30" x="63.623047"/>
       <use xlink:href="#DejaVuSans-32" x="127.246094"/>
       <use xlink:href="#DejaVuSans-32" x="190.869141"/>
       <use xlink:href="#DejaVuSans-2d" x="254.492188"/>
       <use xlink:href="#DejaVuSans-30" x="290.576172"/>
       <use xlink:href="#DejaVuSans-31" x="354.199219"/>
       <use xlink:href="#DejaVuSans-2d" x="417.822266"/>
       <use xlink:href="#DejaVuSans-30" x="453.90625"/>
       <use xlink:href="#DejaVuSans-31" x="517.529297"/>
      </g>
     </g>
    </g>
    <g id="xtick_2">
     <g id="line2d_2">
      <g>
       <use xlink:href="#m5e61437d47" x="232.237035" y="320.4" style="stroke: #000000; stroke-width: 0.8"/>
      </g>
     </g>
     <g id="text_2">
      <!-- 2022-01-03 -->
      <g transform="translate(197.36766 336.518125) scale(0.12 -0.12)">
       <defs>
        <path id="DejaVuSans-33" d="M 2597 2516 
Q 3050 2419 3304 2112 
Q 3559 1806 3559 1356 
Q 3559 666 3084 287 
Q 2609 -91 1734 -91 
Q 1441 -91 1130 -33 
Q 819 25 488 141 
L 488 750 
Q 750 597 1062 519 
Q 1375 441 1716 441 
Q 2309 441 2620 675 
Q 2931 909 2931 1356 
Q 2931 1769 2642 2001 
Q 2353 2234 1838 2234 
L 1294 2234 
L 1294 2753 
L 1863 2753 
Q 2328 2753 2575 2939 
Q 2822 3125 2822 3475 
Q 2822 3834 2567 4026 
Q 2313 4219 1838 4219 
Q 1578 4219 1281 4162 
Q 984 4106 628 3988 
L 628 4550 
Q 988 4650 1302 4700 
Q 1616 4750 1894 4750 
Q 2613 4750 3031 4423 
Q 3450 4097 3450 3541 
Q 3450 3153 3228 2886 
Q 3006 2619 2597 2516 
z
" transform="scale(0.015625)"/>
       </defs>
       <use xlink:href="#DejaVuSans-32"/>
       <use xlink:href="#DejaVuSans-30" x="63.623047"/>
       <use xlink:href="#DejaVuSans-32" x="127.246094"/>
       <use xlink:href="#DejaVuSans-32" x="190.869141"/>
       <use xlink:href="#DejaVuSans-2d" x="254.492188"/>
       <use xlink:href="#DejaVuSans-30" x="290.576172"/>
       <use xlink:href="#DejaVuSans-31" x="354.199219"/>
       <use xlink:href="#DejaVuSans-2d" x="417.822266"/>
       <use xlink:href="#DejaVuSans-30" x="453.90625"/>
       <use xlink:href="#DejaVuSans-33" x="517.529297"/>
      </g>
     </g>
    </g>
    <g id="xtick_3">
     <g id="line2d_3">
      <g>
       <use xlink:href="#m5e61437d47" x="326.037706" y="320.4" style="stroke: #000000; stroke-width: 0.8"/>
      </g>
     </g>
     <g id="text_3">
      <!-- 2022-01-05 -->
      <g transform="translate(291.168331 336.518125) scale(0.12 -0.12)">
       <defs>
        <path id="DejaVuSans-35" d="M 691 4666 
L 3169 4666 
L 3169 4134 
L 1269 4134 
L 1269 2991 
Q 1406 3038 1543 3061 
Q 1681 3084 1819 3084 
Q 2600 3084 3056 2656 
Q 3513 2228 3513 1497 
Q 3513 744 3044 326 
Q 2575 -91 1722 -91 
Q 1428 -91 1123 -41 
Q 819 9 494 109 
L 494 744 
Q 775 591 1075 516 
Q 1375 441 1709 441 
Q 2250 441 2565 725 
Q 2881 1009 2881 1497 
Q 2881 1984 2565 2268 
Q 2250 2553 1709 2553 
Q 1456 2553 1204 2497 
Q 953 2441 691 2322 
L 691 4666 
z
" transform="scale(0.015625)"/>
       </defs>
       <use xlink:href="#DejaVuSans-32"/>
       <use xlink:href="#DejaVuSans-30" x="63.623047"/>
       <use xlink:href="#DejaVuSans-32" x="127.246094"/>
       <use xlink:href="#DejaVuSans-32" x="190.869141"/>
       <use xlink:href="#DejaVuSans-2d" x="254.492188"/>
       <use xlink:href="#DejaVuSans-30" x="290.576172"/>
       <use xlink:href="#DejaVuSans-31" x="354.199219"/>
       <use xlink:href="#DejaVuSans-2d" x="417.822266"/>
       <use xlink:href="#DejaVuSans-30" x="453.90625"/>
       <use xlink:href="#DejaVuSans-35" x="517.529297"/>
      </g>
     </g>
    </g>
    <g id="xtick_4">
     <g id="line2d_4">
      <g>
       <use xlink:href="#m5e61437d47" x="419.838377" y="320.4" style="stroke: #000000; stroke-width: 0.8"/>
      </g>
     </g>
     <g id="text_4">
      <!-- 2022-01-07 -->
      <g transform="translate(384.969002 336.518125) scale(0.12 -0.12)">
       <defs>
        <path id="DejaVuSans-37" d="M 525 4666 
L 3525 4666 
L 3525 4397 
L 1831 0 
L 1172 0 
L 2766 4134 
L 525 4134 
L 525 4666 
z
" transform="scale(0.015625)"/>
       </defs>
       <use xlink:href="#DejaVuSans-32"/>
       <use xlink:href="#DejaVuSans-30" x="63.623047"/>
       <use xlink:href="#DejaVuSans-32" x="127.246094"/>
       <use xlink:href="#DejaVuSans-32" x="190.869141"/>
       <use xlink:href="#DejaVuSans-2d" x="254.492188"/>
       <use xlink:href="#DejaVuSans-30" x="290.576172"/>
       <use xlink:href="#DejaVuSans-31" x="354.199219"/>
       <use xlink:href="#DejaVuSans-2d" x="417.822266"/>
       <use xlink:href="#DejaVuSans-30" x="453.90625"/>
       <use xlink:href="#DejaVuSans-37" x="517.529297"/>
      </g>
     </g>
    </g>
    <g id="xtick_5">
     <g id="line2d_5">
      <g>
       <use xlink:href="#m5e61437d47" x="513.639049" y="320.4" style="stroke: #000000; stroke-width: 0.8"/>
      </g>
     </g>
     <g id="text_5">
      <!-- 2022-01-09 -->
      <g transform="translate(478.769674 336.518125) scale(0.12 -0.12)">
       <defs>
        <path id="DejaVuSans-39" d="M 703 97 
L 703 672 
Q 941 559 1184 500 
Q 1428 441 1663 441 
Q 2288 441 2617 861 
Q 2947 1281 2994 2138 
Q 2813 1869 2534 1725 
Q 2256 1581 1919 1581 
Q 1219 1581 811 2004 
Q 403 2428 403 3163 
Q 403 3881 828 4315 
Q 1253 4750 1959 4750 
Q 2769 4750 3195 4129 
Q 3622 3509 3622 2328 
Q 3622 1225 3098 567 
Q 2575 -91 1691 -91 
Q 1453 -91 1209 -44 
Q 966 3 703 97 
z
M 1959 2075 
Q 2384 2075 2632 2365 
Q 2881 2656 2881 3163 
Q 2881 3666 2632 3958 
Q 2384 4250 1959 4250 
Q 1534 4250 1286 3958 
Q 1038 3666 1038 3163 
Q 1038 2656 1286 2365 
Q 1534 2075 1959 2075 
z
" transform="scale(0.015625)"/>
       </defs>
       <use xlink:href="#DejaVuSans-32"/>
       <use xlink:href="#DejaVuSans-30" x="63.623047"/>
       <use xlink:href="#DejaVuSans-32" x="127.246094"/>
       <use xlink:href="#DejaVuSans-32" x="190.869141"/>
       <use xlink:href="#DejaVuSans-2d" x="254.492188"/>
       <use xlink:href="#DejaVuSans-30" x="290.576172"/>
       <use xlink:href="#DejaVuSans-31" x="354.199219"/>
       <use xlink:href="#DejaVuSans-2d" x="417.822266"/>
       <use xlink:href="#DejaVuSans-30" x="453.90625"/>
       <use xlink:href="#DejaVuSans-39" x="517.529297"/>
      </g>
     </g>
    </g>
    <g id="xtick_6">
     <g id="line2d_6">
      <g>
       <use xlink:href="#m5e61437d47" x="607.43972" y="320.4" style="stroke: #000000; stroke-width: 0.8"/>
      </g>
     </g>
     <g id="text_6">
      <!-- 2022-01-11 -->
      <g transform="translate(572.570345 336.518125) scale(0.12 -0.12)">
       <use xlink:href="#DejaVuSans-32"/>
       <use xlink:href="#DejaVuSans-30" x="63.623047"/>
       <use xlink:href="#DejaVuSans-32" x="127.246094"/>
       <use xlink:href="#DejaVuSans-32" x="190.869141"/>
       <use xlink:href="#DejaVuSans-2d" x="254.492188"/>
       <use xlink:href="#DejaVuSans-30" x="290.576172"/>
       <use xlink:href="#DejaVuSans-31" x="354.199219"/>
       <use xlink:href="#DejaVuSans-2d" x="417.822266"/>
       <use xlink:href="#DejaVuSans-31" x="453.90625"/>
       <use xlink:href="#DejaVuSans-31" x="517.529297"/>
      </g>
     </g>
    </g>
    <g id="xtick_7">
     <g id="line2d_7">
      <g>
       <use xlink:href="#m5e61437d47" x="701.240391" y="320.4" style="stroke: #000000; stroke-width: 0.8"/>
      </g>
     </g>
     <g id="text_7">
      <!-- 2022-01-13 -->
      <g transform="translate(666.371016 336.518125) scale(0.12 -0.12)">
       <use xlink:href="#DejaVuSans-32"/>
       <use xlink:href="#DejaVuSans-30" x="63.623047"/>
       <use xlink:href="#DejaVuSans-32" x="127.246094"/>
       <use xlink:href="#DejaVuSans-32" x="190.869141"/>
       <use xlink:href="#DejaVuSans-2d" x="254.492188"/>
       <use xlink:href="#DejaVuSans-30" x="290.576172"/>
       <use xlink:href="#DejaVuSans-31" x="354.199219"/>
       <use xlink:href="#DejaVuSans-2d" x="417.822266"/>
       <use xlink:href="#DejaVuSans-31" x="453.90625"/>
       <use xlink:href="#DejaVuSans-33" x="517.529297"/>
      </g>
     </g>
    </g>
    <g id="text_8">
     <!-- TIME (DAYS) -->
     <g transform="translate(393.97375 355.17125) scale(0.16 -0.16)">
      <defs>
       <path id="DejaVuSans-54" d="M -19 4666 
L 3928 4666 
L 3928 4134 
L 2272 4134 
L 2272 0 
L 1638 0 
L 1638 4134 
L -19 4134 
L -19 4666 
z
" transform="scale(0.015625)"/>
       <path id="DejaVuSans-49" d="M 628 4666 
L 1259 4666 
L 1259 0 
L 628 0 
L 628 4666 
z
" transform="scale(0.015625)"/>
       <path id="DejaVuSans-4d" d="M 628 4666 
L 1569 4666 
L 2759 1491 
L 3956 4666 
L 4897 4666 
L 4897 0 
L 4281 0 
L 4281 4097 
L 3078 897 
L 2444 897 
L 1241 4097 
L 1241 0 
L 628 0 
L 628 4666 
z
" transform="scale(0.015625)"/>
       <path id="DejaVuSans-45" d="M 628 4666 
L 3578 4666 
L 3578 4134 
L 1259 4134 
L 1259 2753 
L 3481 2753 
L 3481 2222 
L 1259 2222 
L 1259 531 
L 3634 531 
L 3634 0 
L 628 0 
L 628 4666 
z
" transform="scale(0.015625)"/>
       <path id="DejaVuSans-20" transform="scale(0.015625)"/>
       <path id="DejaVuSans-28" d="M 1984 4856 
Q 1566 4138 1362 3434 
Q 1159 2731 1159 2009 
Q 1159 1288 1364 580 
Q 1569 -128 1984 -844 
L 1484 -844 
Q 1016 -109 783 600 
Q 550 1309 550 2009 
Q 550 2706 781 3412 
Q 1013 4119 1484 4856 
L 1984 4856 
z
" transform="scale(0.015625)"/>
       <path id="DejaVuSans-44" d="M 1259 4147 
L 1259 519 
L 2022 519 
Q 2988 519 3436 956 
Q 3884 1394 3884 2338 
Q 3884 3275 3436 3711 
Q 2988 4147 2022 4147 
L 1259 4147 
z
M 628 4666 
L 1925 4666 
Q 3281 4666 3915 4102 
Q 4550 3538 4550 2338 
Q 4550 1131 3912 565 
Q 3275 0 1925 0 
L 628 0 
L 628 4666 
z
" transform="scale(0.015625)"/>
       <path id="DejaVuSans-41" d="M 2188 4044 
L 1331 1722 
L 3047 1722 
L 2188 4044 
z
M 1831 4666 
L 2547 4666 
L 4325 0 
L 3669 0 
L 3244 1197 
L 1141 1197 
L 716 0 
L 50 0 
L 1831 4666 
z
" transform="scale(0.015625)"/>
       <path id="DejaVuSans-59" d="M -13 4666 
L 666 4666 
L 1959 2747 
L 3244 4666 
L 3922 4666 
L 2272 2222 
L 2272 0 
L 1638 0 
L 1638 2222 
L -13 4666 
z
" transform="scale(0.015625)"/>
       <path id="DejaVuSans-53" d="M 3425 4513 
L 3425 3897 
Q 3066 4069 2747 4153 
Q 2428 4238 2131 4238 
Q 1616 4238 1336 4038 
Q 1056 3838 1056 3469 
Q 1056 3159 1242 3001 
Q 1428 2844 1947 2747 
L 2328 2669 
Q 3034 2534 3370 2195 
Q 3706 1856 3706 1288 
Q 3706 609 3251 259 
Q 2797 -91 1919 -91 
Q 1588 -91 1214 -16 
Q 841 59 441 206 
L 441 856 
Q 825 641 1194 531 
Q 1563 422 1919 422 
Q 2459 422 2753 634 
Q 3047 847 3047 1241 
Q 3047 1584 2836 1778 
Q 2625 1972 2144 2069 
L 1759 2144 
Q 1053 2284 737 2584 
Q 422 2884 422 3419 
Q 422 4038 858 4394 
Q 1294 4750 2059 4750 
Q 2388 4750 2728 4690 
Q 3069 4631 3425 4513 
z
" transform="scale(0.015625)"/>
       <path id="DejaVuSans-29" d="M 513 4856 
L 1013 4856 
Q 1481 4119 1714 3412 
Q 1947 2706 1947 2009 
Q 1947 1309 1714 600 
Q 1481 -109 1013 -844 
L 513 -844 
Q 928 -128 1133 580 
Q 1338 1288 1338 2009 
Q 1338 2731 1133 3434 
Q 928 4138 513 4856 
z
" transform="scale(0.015625)"/>
      </defs>
      <use xlink:href="#DejaVuSans-54"/>
      <use xlink:href="#DejaVuSans-49" x="61.083984"/>
      <use xlink:href="#DejaVuSans-4d" x="90.576172"/>
      <use xlink:href="#DejaVuSans-45" x="176.855469"/>
      <use xlink:href="#DejaVuSans-20" x="240.039062"/>
      <use xlink:href="#DejaVuSans-28" x="271.826172"/>
      <use xlink:href="#DejaVuSans-44" x="310.839844"/>
      <use xlink:href="#DejaVuSans-41" x="386.091797"/>
      <use xlink:href="#DejaVuSans-59" x="446.75"/>
      <use xlink:href="#DejaVuSans-53" x="507.833984"/>
      <use xlink:href="#DejaVuSans-29" x="571.310547"/>
     </g>
    </g>
   </g>
   <g id="matplotlib.axis_2">
    <g id="ytick_1">
     <g id="line2d_8">
      <defs>
       <path id="mefd5d6d8b6" d="M 0 0 
L -3.5 0 
" style="stroke: #000000; stroke-width: 0.8"/>
      </defs>
      <g>
       <use xlink:href="#mefd5d6d8b6" x="108" y="307.8" style="stroke: #000000; stroke-width: 0.8"/>
      </g>
     </g>
     <g id="text_9">
      <!-- 0 -->
      <g transform="translate(93.365 312.359062) scale(0.12 -0.12)">
       <use xlink:href="#DejaVuSans-30"/>
      </g>
     </g>
    </g>
    <g id="ytick_2">
     <g id="line2d_9">
      <g>
       <use xlink:href="#mefd5d6d8b6" x="108" y="258.772763" style="stroke: #000000; stroke-width: 0.8"/>
      </g>
     </g>
     <g id="text_10">
      <!-- 50 -->
      <g transform="translate(85.73 263.331825) scale(0.12 -0.12)">
       <use xlink:href="#DejaVuSans-35"/>
       <use xlink:href="#DejaVuSans-30" x="63.623047"/>
      </g>
     </g>
    </g>
    <g id="ytick_3">
     <g id="line2d_10">
      <g>
       <use xlink:href="#mefd5d6d8b6" x="108" y="209.745525" style="stroke: #000000; stroke-width: 0.8"/>
      </g>
     </g>
     <g id="text_11">
      <!-- 100 -->
      <g transform="translate(78.095 214.304588) scale(0.12 -0.12)">
       <use xlink:href="#DejaVuSans-31"/>
       <use xlink:href="#DejaVuSans-30" x="63.623047"/>
       <use xlink:href="#DejaVuSans-30" x="127.246094"/>
      </g>
     </g>
    </g>
    <g id="ytick_4">
     <g id="line2d_11">
      <g>
       <use xlink:href="#mefd5d6d8b6" x="108" y="160.718288" style="stroke: #000000; stroke-width: 0.8"/>
      </g>
     </g>
     <g id="text_12">
      <!-- 150 -->
      <g transform="translate(78.095 165.27735) scale(0.12 -0.12)">
       <use xlink:href="#DejaVuSans-31"/>
       <use xlink:href="#DejaVuSans-35" x="63.623047"/>
       <use xlink:href="#DejaVuSans-30" x="127.246094"/>
      </g>
     </g>
    </g>
    <g id="ytick_5">
     <g id="line2d_12">
      <g>
       <use xlink:href="#mefd5d6d8b6" x="108" y="111.691051" style="stroke: #000000; stroke-width: 0.8"/>
      </g>
     </g>
     <g id="text_13">
      <!-- 200 -->
      <g transform="translate(78.095 116.250113) scale(0.12 -0.12)">
       <use xlink:href="#DejaVuSans-32"/>
       <use xlink:href="#DejaVuSans-30" x="63.623047"/>
       <use xlink:href="#DejaVuSans-30" x="127.246094"/>
      </g>
     </g>
    </g>
    <g id="ytick_6">
     <g id="line2d_13">
      <g>
       <use xlink:href="#mefd5d6d8b6" x="108" y="62.663813" style="stroke: #000000; stroke-width: 0.8"/>
      </g>
     </g>
     <g id="text_14">
      <!-- 250 -->
      <g transform="translate(78.095 67.222876) scale(0.12 -0.12)">
       <use xlink:href="#DejaVuSans-32"/>
       <use xlink:href="#DejaVuSans-35" x="63.623047"/>
       <use xlink:href="#DejaVuSans-30" x="127.246094"/>
      </g>
     </g>
    </g>
    <g id="text_15">
     <!-- SIMULATED -->
     <g transform="translate(52.851 227.5875) rotate(-90) scale(0.16 -0.16)">
      <defs>
       <path id="DejaVuSans-55" d="M 556 4666 
L 1191 4666 
L 1191 1831 
Q 1191 1081 1462 751 
Q 1734 422 2344 422 
Q 2950 422 3222 751 
Q 3494 1081 3494 1831 
L 3494 4666 
L 4128 4666 
L 4128 1753 
Q 4128 841 3676 375 
Q 3225 -91 2344 -91 
Q 1459 -91 1007 375 
Q 556 841 556 1753 
L 556 4666 
z
" transform="scale(0.015625)"/>
       <path id="DejaVuSans-4c" d="M 628 4666 
L 1259 4666 
L 1259 531 
L 3531 531 
L 3531 0 
L 628 0 
L 628 4666 
z
" transform="scale(0.015625)"/>
      </defs>
      <use xlink:href="#DejaVuSans-53"/>
      <use xlink:href="#DejaVuSans-49" x="63.476562"/>
      <use xlink:href="#DejaVuSans-4d" x="92.96875"/>
      <use xlink:href="#DejaVuSans-55" x="179.248047"/>
      <use xlink:href="#DejaVuSans-4c" x="252.441406"/>
      <use xlink:href="#DejaVuSans-41" x="310.404297"/>
      <use xlink:href="#DejaVuSans-54" x="371.0625"/>
      <use xlink:href="#DejaVuSans-45" x="432.146484"/>
      <use xlink:href="#DejaVuSans-44" x="495.330078"/>
     </g>
     <!-- AMPLITUDE -->
     <g transform="translate(70.7675 227.7725) rotate(-90) scale(0.16 -0.16)">
      <defs>
       <path id="DejaVuSans-50" d="M 1259 4147 
L 1259 2394 
L 2053 2394 
Q 2494 2394 2734 2622 
Q 2975 2850 2975 3272 
Q 2975 3691 2734 3919 
Q 2494 4147 2053 4147 
L 1259 4147 
z
M 628 4666 
L 2053 4666 
Q 2838 4666 3239 4311 
Q 3641 3956 3641 3272 
Q 3641 2581 3239 2228 
Q 2838 1875 2053 1875 
L 1259 1875 
L 1259 0 
L 628 0 
L 628 4666 
z
" transform="scale(0.015625)"/>
      </defs>
      <use xlink:href="#DejaVuSans-41"/>
      <use xlink:href="#DejaVuSans-4d" x="68.408203"/>
      <use xlink:href="#DejaVuSans-50" x="154.6875"/>
      <use xlink:href="#DejaVuSans-4c" x="214.990234"/>
      <use xlink:href="#DejaVuSans-49" x="270.703125"/>
      <use xlink:href="#DejaVuSans-54" x="300.195312"/>
      <use xlink:href="#DejaVuSans-55" x="361.279297"/>
      <use xlink:href="#DejaVuSans-44" x="434.472656"/>
      <use xlink:href="#DejaVuSans-45" x="511.474609"/>
     </g>
    </g>
   </g>
   <g id="line2d_14">
    <path d="M 138.436364 231.31751 
L 139.413454 307.8 
L 141.367635 307.8 
L 142.344725 306.819455 
L 143.321815 307.8 
L 144.298906 270.5393 
L 145.275996 307.8 
L 147.230177 307.8 
L 148.207267 305.838911 
L 149.184357 305.838911 
L 150.161448 289.16965 
L 151.138538 307.8 
L 155.046899 307.8 
L 156.023989 156.796109 
L 157.00108 307.8 
L 158.95526 307.8 
L 159.932351 253.870039 
L 160.909441 307.8 
L 161.886531 307.8 
L 162.863622 208.764981 
L 163.840712 264.656031 
L 164.817802 265.636576 
L 165.794893 254.850584 
L 166.771983 163.659922 
L 167.749073 153.854475 
L 168.726164 189.154086 
L 169.703254 232.298054 
L 170.680344 202.881712 
L 171.657435 128.360311 
L 172.634525 236.220233 
L 173.611615 152.87393 
L 174.588706 207.784436 
L 175.565796 248.967315 
L 176.542886 307.8 
L 177.519977 191.115175 
L 178.497067 241.122957 
L 179.474157 182.290272 
L 180.451248 214.648249 
L 181.428338 129.340856 
L 182.405428 145.029572 
L 183.382519 179.348638 
L 184.359609 139.146304 
L 185.336699 242.103502 
L 186.31379 197.978988 
L 187.29088 206.803891 
L 188.26797 231.31751 
L 189.245061 285.247471 
L 190.222151 167.582101 
L 191.199241 285.247471 
L 192.176332 302.897276 
L 193.153422 307.8 
L 194.130512 288.189105 
L 195.107603 260.733852 
L 196.084693 305.838911 
L 197.061783 243.084047 
L 198.038873 307.8 
L 199.015964 262.694942 
L 199.993054 307.8 
L 200.970144 307.8 
L 201.947235 250.928405 
L 202.924325 307.8 
L 204.878506 307.8 
L 205.855596 282.305837 
L 206.832686 287.20856 
L 207.809777 261.714397 
L 208.786867 131.301946 
L 209.763957 307.8 
L 212.695228 307.8 
L 213.672319 121.496498 
L 214.649409 186.212451 
L 215.626499 181.309728 
L 216.60359 300.936187 
L 217.58068 223.473152 
L 218.55777 274.461479 
L 219.534861 139.146304 
L 220.511951 212.68716 
L 221.489041 137.185214 
L 222.466132 230.336965 
L 223.443222 273.480934 
L 224.420312 283.286381 
L 225.397403 143.068482 
L 226.374493 176.407004 
L 227.351583 84.235798 
L 228.328674 247.98677 
L 229.305764 154.835019 
L 230.282854 255.831128 
L 231.259945 264.656031 
L 232.237035 260.733852 
L 233.214125 165.621012 
L 234.191216 244.064591 
L 235.168306 146.010117 
L 236.145396 234.259144 
L 237.122487 307.8 
L 238.099577 133.263035 
L 239.076667 307.8 
L 242.985028 307.8 
L 243.962119 284.266926 
L 244.939209 307.8 
L 245.916299 239.161868 
L 246.89339 279.364202 
L 247.87048 265.636576 
L 248.84757 231.31751 
L 249.824661 216.609339 
L 250.801751 307.8 
L 251.778841 286.228016 
L 252.755932 305.838911 
L 253.733022 307.8 
L 255.687203 307.8 
L 256.664293 275.442023 
L 257.641383 307.8 
L 258.618474 265.636576 
L 259.595564 256.811673 
L 260.572654 307.8 
L 263.503925 307.8 
L 264.481016 187.192996 
L 265.458106 275.442023 
L 266.435196 271.519844 
L 267.412287 157.776654 
L 268.389377 93.0607 
L 269.366467 300.936187 
L 270.343558 97.963424 
L 271.320648 136.204669 
L 272.297738 286.228016 
L 273.274829 233.278599 
L 274.251919 222.492607 
L 275.229009 202.881712 
L 276.2061 192.09572 
L 277.18319 266.617121 
L 278.16028 183.270817 
L 279.13737 210.72607 
L 280.114461 222.492607 
L 281.091551 243.084047 
L 282.068641 212.68716 
L 283.045732 199.940078 
L 284.022822 142.087938 
L 284.999912 196.998444 
L 285.977003 207.784436 
L 286.954093 236.220233 
L 287.931183 169.543191 
L 288.908274 303.877821 
L 289.885364 281.325292 
L 290.862454 307.8 
L 291.839545 278.383658 
L 292.816635 307.8 
L 293.793725 193.076265 
L 294.770816 307.8 
L 295.747906 304.858366 
L 296.724996 251.908949 
L 297.702087 307.8 
L 298.679177 293.091829 
L 299.656267 307.8 
L 300.633358 220.531518 
L 301.610448 289.16965 
L 302.587538 307.8 
L 303.564629 301.916732 
L 304.541719 277.403113 
L 305.518809 278.383658 
L 306.4959 273.480934 
L 307.47299 251.908949 
L 308.45008 307.8 
L 309.427171 288.189105 
L 310.404261 253.870039 
L 311.381351 307.8 
L 312.358442 235.239689 
L 313.335532 307.8 
L 314.312622 130.321401 
L 315.289713 247.98677 
L 316.266803 244.064591 
L 317.243893 138.165759 
L 318.220984 214.648249 
L 319.198074 94.041245 
L 320.175164 272.500389 
L 321.152254 255.831128 
L 322.129345 162.679377 
L 323.106435 156.796109 
L 324.083525 196.998444 
L 325.060616 217.589883 
L 326.037706 170.523735 
L 327.014796 243.084047 
L 327.991887 171.50428 
L 328.968977 252.889494 
L 329.946067 203.862257 
L 330.923158 126.399222 
L 331.900248 138.165759 
L 332.877338 207.784436 
L 333.854429 218.570428 
L 334.831519 233.278599 
L 335.808609 224.453696 
L 336.7857 205.823346 
L 337.76279 203.862257 
L 338.73988 274.461479 
L 339.716971 307.8 
L 340.694061 283.286381 
L 341.671151 307.8 
L 342.648242 219.550973 
L 343.625332 307.8 
L 344.602422 269.558755 
L 345.579513 283.286381 
L 346.556603 307.8 
L 347.533693 299.955642 
L 348.510784 287.20856 
L 349.487874 299.955642 
L 350.464964 289.16965 
L 351.442055 307.8 
L 352.419145 243.084047 
L 353.396235 210.72607 
L 354.373326 204.842802 
L 355.350416 307.8 
L 356.327506 285.247471 
L 357.304597 297.994553 
L 358.281687 286.228016 
L 359.258777 307.8 
L 360.235868 307.8 
L 361.212958 248.967315 
L 362.190048 307.8 
L 363.167138 307.8 
L 364.144229 141.107393 
L 365.121319 146.010117 
L 366.098409 169.543191 
L 367.0755 148.951751 
L 368.05259 307.8 
L 369.02968 221.512062 
L 370.006771 217.589883 
L 370.983861 125.418677 
L 371.960951 194.056809 
L 372.938042 196.998444 
L 373.915132 120.515953 
L 374.892222 213.667704 
L 375.869313 289.16965 
L 376.846403 192.09572 
L 377.823493 112.671595 
L 378.800584 146.010117 
L 380.754764 228.375875 
L 381.731855 231.31751 
L 382.708945 210.72607 
L 383.686035 247.006226 
L 384.663126 228.375875 
L 385.640216 55.8 
L 386.617306 183.270817 
L 387.594397 214.648249 
L 388.571487 307.8 
L 390.525668 307.8 
L 391.502758 263.675486 
L 392.479848 307.8 
L 393.456939 295.052918 
L 394.434029 298.975097 
L 395.411119 269.558755 
L 396.38821 307.8 
L 397.3653 307.8 
L 398.34239 199.940078 
L 399.319481 291.130739 
L 400.296571 307.8 
L 401.273661 258.772763 
L 402.250751 271.519844 
L 403.227842 231.31751 
L 404.204932 307.8 
L 405.182022 307.8 
L 406.159113 216.609339 
L 407.136203 307.8 
L 408.113293 297.994553 
L 409.090384 307.8 
L 412.021655 307.8 
L 412.998745 237.200778 
L 413.975835 121.496498 
L 414.952926 233.278599 
L 415.930016 274.461479 
L 416.907106 307.8 
L 417.884197 117.574319 
L 418.861287 307.8 
L 419.838377 134.24358 
L 420.815468 94.041245 
L 421.792558 157.776654 
L 422.769648 241.122957 
L 423.746739 254.850584 
L 424.723829 111.691051 
L 425.700919 258.772763 
L 426.67801 247.98677 
L 427.6551 203.862257 
L 428.63219 266.617121 
L 429.609281 185.231907 
L 430.586371 236.220233 
L 431.563461 258.772763 
L 432.540552 217.589883 
L 433.517642 153.854475 
L 434.494732 81.294163 
L 435.471823 224.453696 
L 436.448913 307.8 
L 437.426003 296.033463 
L 438.403094 307.8 
L 439.380184 166.601556 
L 440.357274 218.570428 
L 441.334365 307.8 
L 442.311455 295.052918 
L 443.288545 307.8 
L 444.265635 240.142412 
L 445.242726 233.278599 
L 446.219816 307.8 
L 447.196906 303.877821 
L 448.173997 256.811673 
L 449.151087 265.636576 
L 450.128177 281.325292 
L 451.105268 295.052918 
L 452.082358 271.519844 
L 453.059448 307.8 
L 454.036539 224.453696 
L 455.013629 160.718288 
L 455.990719 307.8 
L 456.96781 279.364202 
L 457.9449 307.8 
L 458.92199 307.8 
L 459.899081 237.200778 
L 460.876171 307.8 
L 461.853261 237.200778 
L 462.830352 307.8 
L 463.807442 269.558755 
L 464.784532 118.554864 
L 465.761623 198.959533 
L 466.738713 83.255253 
L 467.715803 73.449805 
L 468.692894 110.710506 
L 469.669984 222.492607 
L 470.647074 307.8 
L 471.624165 239.161868 
L 472.601255 289.16965 
L 473.578345 307.8 
L 474.555436 96.002335 
L 475.532526 307.8 
L 476.509616 129.340856 
L 477.486707 227.395331 
L 478.463797 135.224125 
L 479.440887 126.399222 
L 480.417978 157.776654 
L 481.395068 292.111284 
L 482.372158 258.772763 
L 483.349249 247.006226 
L 484.326339 224.453696 
L 485.303429 220.531518 
L 486.280519 271.519844 
L 487.25761 196.017899 
L 488.2347 185.231907 
L 489.21179 297.014008 
L 490.188881 239.161868 
L 491.165971 307.8 
L 492.143061 263.675486 
L 493.120152 307.8 
L 494.097242 247.98677 
L 495.074332 268.57821 
L 496.051423 307.8 
L 497.028513 292.111284 
L 498.005603 307.8 
L 498.982694 212.68716 
L 499.959784 307.8 
L 500.936874 271.519844 
L 501.913965 209.745525 
L 502.891055 287.20856 
L 503.868145 307.8 
L 504.845236 307.8 
L 505.822326 254.850584 
L 506.799416 307.8 
L 508.753597 307.8 
L 509.730687 210.72607 
L 510.707778 307.8 
L 514.616139 307.8 
L 515.593229 254.850584 
L 516.57032 155.815564 
L 517.54741 217.589883 
L 518.5245 175.426459 
L 519.501591 191.115175 
L 520.478681 241.122957 
L 521.455771 168.562646 
L 522.432862 140.126848 
L 523.409952 268.57821 
L 524.387042 149.932296 
L 525.364132 307.8 
L 526.341223 155.815564 
L 527.318313 186.212451 
L 528.295403 307.8 
L 529.272494 164.640467 
L 530.249584 195.037354 
L 531.226674 136.204669 
L 532.203765 146.990661 
L 533.180855 271.519844 
L 534.157945 219.550973 
L 535.135036 307.8 
L 536.112126 192.09572 
L 537.089216 279.364202 
L 538.066307 289.16965 
L 539.043397 265.636576 
L 540.020487 307.8 
L 540.997578 307.8 
L 541.974668 244.064591 
L 542.951758 307.8 
L 545.883029 307.8 
L 546.86012 298.975097 
L 547.83721 272.500389 
L 548.8143 307.8 
L 550.768481 307.8 
L 551.745571 258.772763 
L 552.722662 307.8 
L 556.631023 307.8 
L 557.608113 289.16965 
L 558.585204 263.675486 
L 559.562294 307.8 
L 560.539384 289.16965 
L 561.516475 307.8 
L 563.470655 307.8 
L 564.447746 275.442023 
L 565.424836 233.278599 
L 566.401926 169.543191 
L 567.379016 261.714397 
L 568.356107 181.309728 
L 569.333197 215.628794 
L 570.310287 223.473152 
L 571.287378 307.8 
L 572.264468 233.278599 
L 573.241558 167.582101 
L 574.218649 236.220233 
L 575.195739 291.130739 
L 576.172829 223.473152 
L 577.14992 307.8 
L 578.12701 247.98677 
L 579.1041 157.776654 
L 580.081191 200.920623 
L 581.058281 219.550973 
L 582.035371 267.597665 
L 583.012462 270.5393 
L 583.989552 249.94786 
L 584.966642 243.084047 
L 585.943733 207.784436 
L 586.920823 307.8 
L 587.897913 223.473152 
L 588.875004 307.8 
L 589.852094 238.181323 
L 590.829184 307.8 
L 591.806275 270.5393 
L 592.783365 221.512062 
L 593.760455 280.344747 
L 594.737546 307.8 
L 595.714636 307.8 
L 596.691726 297.994553 
L 597.668817 307.8 
L 598.645907 286.228016 
L 599.622997 259.753307 
L 600.600088 270.5393 
L 601.577178 218.570428 
L 602.554268 258.772763 
L 603.531359 307.8 
L 604.508449 234.259144 
L 605.485539 189.154086 
L 606.46263 307.8 
L 607.43972 307.8 
L 608.41681 250.928405 
L 609.3939 234.259144 
L 610.370991 224.453696 
L 612.325171 296.033463 
L 613.302262 307.8 
L 614.279352 307.8 
L 615.256442 248.967315 
L 616.233533 307.8 
L 617.210623 159.737743 
L 618.187713 148.951751 
L 619.164804 206.803891 
L 620.141894 157.776654 
L 621.118984 198.959533 
L 622.096075 184.251362 
L 623.073165 247.006226 
L 624.050255 268.57821 
L 625.027346 253.870039 
L 626.004436 298.975097 
L 626.981526 135.224125 
L 627.958617 89.138521 
L 628.935707 307.8 
L 629.912797 197.978988 
L 630.889888 231.31751 
L 631.866978 202.881712 
L 632.844068 196.017899 
L 633.821159 110.710506 
L 634.798249 250.928405 
L 635.775339 226.414786 
L 636.75243 122.477043 
L 637.72952 266.617121 
L 638.70661 304.858366 
L 639.683701 307.8 
L 640.660791 307.8 
L 641.637881 260.733852 
L 642.614972 307.8 
L 643.592062 261.714397 
L 644.569152 246.025681 
L 645.546243 244.064591 
L 646.523333 307.8 
L 649.454604 307.8 
L 650.431694 292.111284 
L 651.408784 307.8 
L 652.385875 253.870039 
L 653.362965 271.519844 
L 654.340055 307.8 
L 655.317146 210.72607 
L 656.294236 175.426459 
L 657.271326 303.877821 
L 658.248417 307.8 
L 659.225507 307.8 
L 660.202597 285.247471 
L 661.179688 307.8 
L 662.156778 307.8 
L 663.133868 264.656031 
L 664.110959 275.442023 
L 665.088049 120.515953 
L 666.065139 214.648249 
L 667.04223 186.212451 
L 668.01932 304.858366 
L 668.99641 150.91284 
L 669.973501 123.457588 
L 670.950591 190.13463 
L 671.927681 204.842802 
L 672.904772 158.757198 
L 673.881862 198.959533 
L 674.858952 184.251362 
L 675.836043 144.049027 
L 676.813133 289.16965 
L 678.767314 215.628794 
L 679.744404 258.772763 
L 680.721494 211.706615 
L 681.698585 210.72607 
L 682.675675 233.278599 
L 683.652765 217.589883 
L 684.629856 130.321401 
L 685.606946 159.737743 
L 686.584036 157.776654 
L 687.561127 273.480934 
L 688.538217 307.8 
L 689.515307 291.130739 
L 690.492397 220.531518 
L 691.469488 198.959533 
L 692.446578 307.8 
L 693.423668 307.8 
L 694.400759 277.403113 
L 695.377849 209.745525 
L 696.354939 304.858366 
L 697.33203 222.492607 
L 698.30912 283.286381 
L 699.28621 269.558755 
L 700.263301 287.20856 
L 701.240391 307.8 
L 702.217481 307.8 
L 703.194572 224.453696 
L 704.171662 307.8 
L 705.148752 275.442023 
L 706.125843 219.550973 
L 707.102933 301.916732 
L 708.080023 307.8 
L 710.034204 307.8 
L 711.011294 257.792218 
L 711.988385 307.8 
L 712.965475 157.776654 
L 713.942565 307.8 
L 714.919656 168.562646 
L 715.896746 296.033463 
L 716.873836 268.57821 
L 717.850927 235.239689 
L 718.828017 190.13463 
L 719.805107 227.395331 
L 720.782198 184.251362 
L 721.759288 215.628794 
L 722.736378 239.161868 
L 723.713469 256.811673 
L 724.690559 196.017899 
L 725.667649 106.788327 
L 726.64474 227.395331 
L 727.62183 240.142412 
L 728.59892 192.09572 
L 729.576011 305.838911 
L 730.553101 236.220233 
L 731.530191 212.68716 
L 732.507281 174.445914 
L 733.484372 261.714397 
L 734.461462 146.010117 
L 735.438552 307.8 
L 736.415643 138.165759 
L 737.392733 140.126848 
L 738.369823 307.8 
L 739.346914 192.09572 
L 740.324004 283.286381 
L 741.301094 284.266926 
L 742.278185 238.181323 
L 743.255275 307.8 
L 744.232365 307.8 
L 745.209456 256.811673 
L 746.186546 299.955642 
L 747.163636 270.5393 
L 747.163636 270.5393 
" clip-path="url(#p923d8cf0e7)" style="fill: none; stroke: #191970; stroke-width: 2; stroke-linecap: square"/>
   </g>
   <g id="patch_3">
    <path d="M 108 320.4 
L 108 43.2 
" style="fill: none; stroke: #000000; stroke-width: 0.8; stroke-linejoin: miter; stroke-linecap: square"/>
   </g>
   <g id="patch_4">
    <path d="M 777.6 320.4 
L 777.6 43.2 
" style="fill: none; stroke: #000000; stroke-width: 0.8; stroke-linejoin: miter; stroke-linecap: square"/>
   </g>
   <g id="patch_5">
    <path d="M 108 320.4 
L 777.6 320.4 
" style="fill: none; stroke: #000000; stroke-width: 0.8; stroke-linejoin: miter; stroke-linecap: square"/>
   </g>
   <g id="patch_6">
    <path d="M 108 43.2 
L 777.6 43.2 
" style="fill: none; stroke: #000000; stroke-width: 0.8; stroke-linejoin: miter; stroke-linecap: square"/>
   </g>
   <g id="text_16">
    <!-- TIME SERIES -->
    <g transform="translate(386.625938 37.2) scale(0.18 -0.18)">
     <defs>
      <path id="DejaVuSans-52" d="M 2841 2188 
Q 3044 2119 3236 1894 
Q 3428 1669 3622 1275 
L 4263 0 
L 3584 0 
L 2988 1197 
Q 2756 1666 2539 1819 
Q 2322 1972 1947 1972 
L 1259 1972 
L 1259 0 
L 628 0 
L 628 4666 
L 2053 4666 
Q 2853 4666 3247 4331 
Q 3641 3997 3641 3322 
Q 3641 2881 3436 2590 
Q 3231 2300 2841 2188 
z
M 1259 4147 
L 1259 2491 
L 2053 2491 
Q 2509 2491 2742 2702 
Q 2975 2913 2975 3322 
Q 2975 3731 2742 3939 
Q 2509 4147 2053 4147 
L 1259 4147 
z
" transform="scale(0.015625)"/>
     </defs>
     <use xlink:href="#DejaVuSans-54"/>
     <use xlink:href="#DejaVuSans-49" x="61.083984"/>
     <use xlink:href="#DejaVuSans-4d" x="90.576172"/>
     <use xlink:href="#DejaVuSans-45" x="176.855469"/>
     <use xlink:href="#DejaVuSans-20" x="240.039062"/>
     <use xlink:href="#DejaVuSans-53" x="271.826172"/>
     <use xlink:href="#DejaVuSans-45" x="335.302734"/>
     <use xlink:href="#DejaVuSans-52" x="398.486328"/>
     <use xlink:href="#DejaVuSans-49" x="467.96875"/>
     <use xlink:href="#DejaVuSans-45" x="497.460938"/>
     <use xlink:href="#DejaVuSans-53" x="560.644531"/>
    </g>
   </g>
  </g>
 </g>
 <defs>
  <clipPath id="p923d8cf0e7">
   <rect x="108" y="43.2" width="669.6" height="277.2"/>
  </clipPath>
 </defs>
</svg>
