<?xml version="1.0" encoding="utf-8" standalone="no"?>
<!DOCTYPE svg PUBLIC "-//W3C//DTD SVG 1.1//EN"
  "http://www.w3.org/Graphics/SVG/1.1/DTD/svg11.dtd">
<svg xmlns:xlink="http://www.w3.org/1999/xlink" width="864pt" height="360pt" viewBox="0 0 864 360" xmlns="http://www.w3.org/2000/svg" version="1.1">
 <metadata>
  <rdf:RDF xmlns:dc="http://purl.org/dc/elements/1.1/" xmlns:cc="http://creativecommons.org/ns#" xmlns:rdf="http://www.w3.org/1999/02/22-rdf-syntax-ns#">
   <cc:Work>
    <dc:type rdf:resource="http://purl.org/dc/dcmitype/StillImage"/>
    <dc:date>2023-11-27T20:30:11.735049</dc:date>
    <dc:format>image/svg+xml</dc:format>
    <dc:creator>
     <cc:Agent>
      <dc:title>Matplotlib v3.7.4, https://matplotlib.org/</dc:title>
     </cc:Agent>
    </dc:creator>
   </cc:Work>
  </rdf:RDF>
 </metadata>
 <defs>
  <style type="text/css">*{stroke-linejoin: round; stroke-linecap: butt}</style>
 </defs>
 <g id="figure_1">
  <g id="patch_1">
   <path d="M 0 360 
L 864 360 
L 864 0 
L 0 0 
z
" style="fill: #ffffff"/>
  </g>
  <g id="axes_1">
   <g id="patch_2">
    <path d="M 108 320.4 
L 777.6 320.4 
L 777.6 43.2 
L 108 43.2 
z
" style="fill: #ffffff"/>
   </g>
   <g id="matplotlib.axis_1">
    <g id="xtick_1">
     <g id="line2d_1">
      <defs>
       <path id="mf03af8c1dd" d="M 0 0 
L 0 3.5 
" style="stroke: #000000; stroke-width: 0.8"/>
      </defs>
      <g>
       <use xlink:href="#mf03af8c1dd" x="138.436364" y="320.4" style="stroke: #000000; stroke-width: 0.8"/>
      </g>
     </g>
     <g id="text_1">
      <!-- 2022-01-01 -->
      <g transform="translate(103.566989 336.518125) scale(0.12 -0.12)">
       <defs>
        <path id="DejaVuSans-32" d="M 1228 531 
L 3431 531 
L 3431 0 
L 469 0 
L 469 531 
Q 828 903 1448 1529 
Q 2069 2156 2228 2338 
Q 2531 2678 2651 2914 
Q 2772 3150 2772 3378 
Q 2772 3750 2511 3984 
Q 2250 4219 1831 4219 
Q 1534 4219 1204 4116 
Q 875 4013 500 3803 
L 500 4441 
Q 881 4594 1212 4672 
Q 1544 4750 1819 4750 
Q 2544 4750 2975 4387 
Q 3406 4025 3406 3419 
Q 3406 3131 3298 2873 
Q 3191 2616 2906 2266 
Q 2828 2175 2409 1742 
Q 1991 1309 1228 531 
z
" transform="scale(0.015625)"/>
        <path id="DejaVuSans-30" d="M 2034 4250 
Q 1547 4250 1301 3770 
Q 1056 3291 1056 2328 
Q 1056 1369 1301 889 
Q 1547 409 2034 409 
Q 2525 409 2770 889 
Q 3016 1369 3016 2328 
Q 3016 3291 2770 3770 
Q 2525 4250 2034 4250 
z
M 2034 4750 
Q 2819 4750 3233 4129 
Q 3647 3509 3647 2328 
Q 3647 1150 3233 529 
Q 2819 -91 2034 -91 
Q 1250 -91 836 529 
Q 422 1150 422 2328 
Q 422 3509 836 4129 
Q 1250 4750 2034 4750 
z
" transform="scale(0.015625)"/>
        <path id="DejaVuSans-2d" d="M 313 2009 
L 1997 2009 
L 1997 1497 
L 313 1497 
L 313 2009 
z
" transform="scale(0.015625)"/>
        <path id="DejaVuSans-31" d="M 794 531 
L 1825 531 
L 1825 4091 
L 703 3866 
L 703 4441 
L 1819 4666 
L 2450 4666 
L 2450 531 
L 3481 531 
L 3481 0 
L 794 0 
L 794 531 
z
" transform="scale(0.015625)"/>
       </defs>
       <use xlink:href="#DejaVuSans-32"/>
       <use xlink:href="#DejaVuSans-30" x="63.623047"/>
       <use xlink:href="#DejaVuSans-32" x="127.246094"/>
       <use xlink:href="#DejaVuSans-32" x="190.869141"/>
       <use xlink:href="#DejaVuSans-2d" x="254.492188"/>
       <use xlink:href="#DejaVuSans-30" x="290.576172"/>
       <use xlink:href="#DejaVuSans-31" x="354.199219"/>
       <use xlink:href="#DejaVuSans-2d" x="417.822266"/>
       <use xlink:href="#DejaVuSans-30" x="453.90625"/>
       <use xlink:href="#DejaVuSans-31" x="517.529297"/>
      </g>
     </g>
    </g>
    <g id="xtick_2">
     <g id="line2d_2">
      <g>
       <use xlink:href="#mf03af8c1dd" x="202.583255" y="320.4" style="stroke: #000000; stroke-width: 0.8"/>
      </g>
     </g>
     <g id="text_2">
      <!-- 2022-01-03 -->
      <g transform="translate(167.71388 336.518125) scale(0.12 -0.12)">
       <defs>
        <path id="DejaVuSans-33" d="M 2597 2516 
Q 3050 2419 3304 2112 
Q 3559 1806 3559 1356 
Q 3559 666 3084 287 
Q 2609 -91 1734 -91 
Q 1441 -91 1130 -33 
Q 819 25 488 141 
L 488 750 
Q 750 597 1062 519 
Q 1375 441 1716 441 
Q 2309 441 2620 675 
Q 2931 909 2931 1356 
Q 2931 1769 2642 2001 
Q 2353 2234 1838 2234 
L 1294 2234 
L 1294 2753 
L 1863 2753 
Q 2328 2753 2575 2939 
Q 2822 3125 2822 3475 
Q 2822 3834 2567 4026 
Q 2313 4219 1838 4219 
Q 1578 4219 1281 4162 
Q 984 4106 628 3988 
L 628 4550 
Q 988 4650 1302 4700 
Q 1616 4750 1894 4750 
Q 2613 4750 3031 4423 
Q 3450 4097 3450 3541 
Q 3450 3153 3228 2886 
Q 3006 2619 2597 2516 
z
" transform="scale(0.015625)"/>
       </defs>
       <use xlink:href="#DejaVuSans-32"/>
       <use xlink:href="#DejaVuSans-30" x="63.623047"/>
       <use xlink:href="#DejaVuSans-32" x="127.246094"/>
       <use xlink:href="#DejaVuSans-32" x="190.869141"/>
       <use xlink:href="#DejaVuSans-2d" x="254.492188"/>
       <use xlink:href="#DejaVuSans-30" x="290.576172"/>
       <use xlink:href="#DejaVuSans-31" x="354.199219"/>
       <use xlink:href="#DejaVuSans-2d" x="417.822266"/>
       <use xlink:href="#DejaVuSans-30" x="453.90625"/>
       <use xlink:href="#DejaVuSans-33" x="517.529297"/>
      </g>
     </g>
    </g>
    <g id="xtick_3">
     <g id="line2d_3">
      <g>
       <use xlink:href="#mf03af8c1dd" x="266.730147" y="320.4" style="stroke: #000000; stroke-width: 0.8"/>
      </g>
     </g>
     <g id="text_3">
      <!-- 2022-01-05 -->
      <g transform="translate(231.860772 336.518125) scale(0.12 -0.12)">
       <defs>
        <path id="DejaVuSans-35" d="M 691 4666 
L 3169 4666 
L 3169 4134 
L 1269 4134 
L 1269 2991 
Q 1406 3038 1543 3061 
Q 1681 3084 1819 3084 
Q 2600 3084 3056 2656 
Q 3513 2228 3513 1497 
Q 3513 744 3044 326 
Q 2575 -91 1722 -91 
Q 1428 -91 1123 -41 
Q 819 9 494 109 
L 494 744 
Q 775 591 1075 516 
Q 1375 441 1709 441 
Q 2250 441 2565 725 
Q 2881 1009 2881 1497 
Q 2881 1984 2565 2268 
Q 2250 2553 1709 2553 
Q 1456 2553 1204 2497 
Q 953 2441 691 2322 
L 691 4666 
z
" transform="scale(0.015625)"/>
       </defs>
       <use xlink:href="#DejaVuSans-32"/>
       <use xlink:href="#DejaVuSans-30" x="63.623047"/>
       <use xlink:href="#DejaVuSans-32" x="127.246094"/>
       <use xlink:href="#DejaVuSans-32" x="190.869141"/>
       <use xlink:href="#DejaVuSans-2d" x="254.492188"/>
       <use xlink:href="#DejaVuSans-30" x="290.576172"/>
       <use xlink:href="#DejaVuSans-31" x="354.199219"/>
       <use xlink:href="#DejaVuSans-2d" x="417.822266"/>
       <use xlink:href="#DejaVuSans-30" x="453.90625"/>
       <use xlink:href="#DejaVuSans-35" x="517.529297"/>
      </g>
     </g>
    </g>
    <g id="xtick_4">
     <g id="line2d_4">
      <g>
       <use xlink:href="#mf03af8c1dd" x="330.877038" y="320.4" style="stroke: #000000; stroke-width: 0.8"/>
      </g>
     </g>
     <g id="text_4">
      <!-- 2022-01-07 -->
      <g transform="translate(296.007663 336.518125) scale(0.12 -0.12)">
       <defs>
        <path id="DejaVuSans-37" d="M 525 4666 
L 3525 4666 
L 3525 4397 
L 1831 0 
L 1172 0 
L 2766 4134 
L 525 4134 
L 525 4666 
z
" transform="scale(0.015625)"/>
       </defs>
       <use xlink:href="#DejaVuSans-32"/>
       <use xlink:href="#DejaVuSans-30" x="63.623047"/>
       <use xlink:href="#DejaVuSans-32" x="127.246094"/>
       <use xlink:href="#DejaVuSans-32" x="190.869141"/>
       <use xlink:href="#DejaVuSans-2d" x="254.492188"/>
       <use xlink:href="#DejaVuSans-30" x="290.576172"/>
       <use xlink:href="#DejaVuSans-31" x="354.199219"/>
       <use xlink:href="#DejaVuSans-2d" x="417.822266"/>
       <use xlink:href="#DejaVuSans-30" x="453.90625"/>
       <use xlink:href="#DejaVuSans-37" x="517.529297"/>
      </g>
     </g>
    </g>
    <g id="xtick_5">
     <g id="line2d_5">
      <g>
       <use xlink:href="#mf03af8c1dd" x="395.02393" y="320.4" style="stroke: #000000; stroke-width: 0.8"/>
      </g>
     </g>
     <g id="text_5">
      <!-- 2022-01-09 -->
      <g transform="translate(360.154555 336.518125) scale(0.12 -0.12)">
       <defs>
        <path id="DejaVuSans-39" d="M 703 97 
L 703 672 
Q 941 559 1184 500 
Q 1428 441 1663 441 
Q 2288 441 2617 861 
Q 2947 1281 2994 2138 
Q 2813 1869 2534 1725 
Q 2256 1581 1919 1581 
Q 1219 1581 811 2004 
Q 403 2428 403 3163 
Q 403 3881 828 4315 
Q 1253 4750 1959 4750 
Q 2769 4750 3195 4129 
Q 3622 3509 3622 2328 
Q 3622 1225 3098 567 
Q 2575 -91 1691 -91 
Q 1453 -91 1209 -44 
Q 966 3 703 97 
z
M 1959 2075 
Q 2384 2075 2632 2365 
Q 2881 2656 2881 3163 
Q 2881 3666 2632 3958 
Q 2384 4250 1959 4250 
Q 1534 4250 1286 3958 
Q 1038 3666 1038 3163 
Q 1038 2656 1286 2365 
Q 1534 2075 1959 2075 
z
" transform="scale(0.015625)"/>
       </defs>
       <use xlink:href="#DejaVuSans-32"/>
       <use xlink:href="#DejaVuSans-30" x="63.623047"/>
       <use xlink:href="#DejaVuSans-32" x="127.246094"/>
       <use xlink:href="#DejaVuSans-32" x="190.869141"/>
       <use xlink:href="#DejaVuSans-2d" x="254.492188"/>
       <use xlink:href="#DejaVuSans-30" x="290.576172"/>
       <use xlink:href="#DejaVuSans-31" x="354.199219"/>
       <use xlink:href="#DejaVuSans-2d" x="417.822266"/>
       <use xlink:href="#DejaVuSans-30" x="453.90625"/>
       <use xlink:href="#DejaVuSans-39" x="517.529297"/>
      </g>
     </g>
    </g>
    <g id="xtick_6">
     <g id="line2d_6">
      <g>
       <use xlink:href="#mf03af8c1dd" x="459.170821" y="320.4" style="stroke: #000000; stroke-width: 0.8"/>
      </g>
     </g>
     <g id="text_6">
      <!-- 2022-01-11 -->
      <g transform="translate(424.301446 336.518125) scale(0.12 -0.12)">
       <use xlink:href="#DejaVuSans-32"/>
       <use xlink:href="#DejaVuSans-30" x="63.623047"/>
       <use xlink:href="#DejaVuSans-32" x="127.246094"/>
       <use xlink:href="#DejaVuSans-32" x="190.869141"/>
       <use xlink:href="#DejaVuSans-2d" x="254.492188"/>
       <use xlink:href="#DejaVuSans-30" x="290.576172"/>
       <use xlink:href="#DejaVuSans-31" x="354.199219"/>
       <use xlink:href="#DejaVuSans-2d" x="417.822266"/>
       <use xlink:href="#DejaVuSans-31" x="453.90625"/>
       <use xlink:href="#DejaVuSans-31" x="517.529297"/>
      </g>
     </g>
    </g>
    <g id="xtick_7">
     <g id="line2d_7">
      <g>
       <use xlink:href="#mf03af8c1dd" x="523.317713" y="320.4" style="stroke: #000000; stroke-width: 0.8"/>
      </g>
     </g>
     <g id="text_7">
      <!-- 2022-01-13 -->
      <g transform="translate(488.448338 336.518125) scale(0.12 -0.12)">
       <use xlink:href="#DejaVuSans-32"/>
       <use xlink:href="#DejaVuSans-30" x="63.623047"/>
       <use xlink:href="#DejaVuSans-32" x="127.246094"/>
       <use xlink:href="#DejaVuSans-32" x="190.869141"/>
       <use xlink:href="#DejaVuSans-2d" x="254.492188"/>
       <use xlink:href="#DejaVuSans-30" x="290.576172"/>
       <use xlink:href="#DejaVuSans-31" x="354.199219"/>
       <use xlink:href="#DejaVuSans-2d" x="417.822266"/>
       <use xlink:href="#DejaVuSans-31" x="453.90625"/>
       <use xlink:href="#DejaVuSans-33" x="517.529297"/>
      </g>
     </g>
    </g>
    <g id="xtick_8">
     <g id="line2d_8">
      <g>
       <use xlink:href="#mf03af8c1dd" x="587.464604" y="320.4" style="stroke: #000000; stroke-width: 0.8"/>
      </g>
     </g>
     <g id="text_8">
      <!-- 2022-01-15 -->
      <g transform="translate(552.595229 336.518125) scale(0.12 -0.12)">
       <use xlink:href="#DejaVuSans-32"/>
       <use xlink:href="#DejaVuSans-30" x="63.623047"/>
       <use xlink:href="#DejaVuSans-32" x="127.246094"/>
       <use xlink:href="#DejaVuSans-32" x="190.869141"/>
       <use xlink:href="#DejaVuSans-2d" x="254.492188"/>
       <use xlink:href="#DejaVuSans-30" x="290.576172"/>
       <use xlink:href="#DejaVuSans-31" x="354.199219"/>
       <use xlink:href="#DejaVuSans-2d" x="417.822266"/>
       <use xlink:href="#DejaVuSans-31" x="453.90625"/>
       <use xlink:href="#DejaVuSans-35" x="517.529297"/>
      </g>
     </g>
    </g>
    <g id="xtick_9">
     <g id="line2d_9">
      <g>
       <use xlink:href="#mf03af8c1dd" x="651.611496" y="320.4" style="stroke: #000000; stroke-width: 0.8"/>
      </g>
     </g>
     <g id="text_9">
      <!-- 2022-01-17 -->
      <g transform="translate(616.742121 336.518125) scale(0.12 -0.12)">
       <use xlink:href="#DejaVuSans-32"/>
       <use xlink:href="#DejaVuSans-30" x="63.623047"/>
       <use xlink:href="#DejaVuSans-32" x="127.246094"/>
       <use xlink:href="#DejaVuSans-32" x="190.869141"/>
       <use xlink:href="#DejaVuSans-2d" x="254.492188"/>
       <use xlink:href="#DejaVuSans-30" x="290.576172"/>
       <use xlink:href="#DejaVuSans-31" x="354.199219"/>
       <use xlink:href="#DejaVuSans-2d" x="417.822266"/>
       <use xlink:href="#DejaVuSans-31" x="453.90625"/>
       <use xlink:href="#DejaVuSans-37" x="517.529297"/>
      </g>
     </g>
    </g>
    <g id="xtick_10">
     <g id="line2d_10">
      <g>
       <use xlink:href="#mf03af8c1dd" x="715.758387" y="320.4" style="stroke: #000000; stroke-width: 0.8"/>
      </g>
     </g>
     <g id="text_10">
      <!-- 2022-01-19 -->
      <g transform="translate(680.889012 336.518125) scale(0.12 -0.12)">
       <use xlink:href="#DejaVuSans-32"/>
       <use xlink:href="#DejaVuSans-30" x="63.623047"/>
       <use xlink:href="#DejaVuSans-32" x="127.246094"/>
       <use xlink:href="#DejaVuSans-32" x="190.869141"/>
       <use xlink:href="#DejaVuSans-2d" x="254.492188"/>
       <use xlink:href="#DejaVuSans-30" x="290.576172"/>
       <use xlink:href="#DejaVuSans-31" x="354.199219"/>
       <use xlink:href="#DejaVuSans-2d" x="417.822266"/>
       <use xlink:href="#DejaVuSans-31" x="453.90625"/>
       <use xlink:href="#DejaVuSans-39" x="517.529297"/>
      </g>
     </g>
    </g>
    <g id="text_11">
     <!-- TIME (DAYS) -->
     <g transform="translate(393.97375 355.17125) scale(0.16 -0.16)">
      <defs>
       <path id="DejaVuSans-54" d="M -19 4666 
L 3928 4666 
L 3928 4134 
L 2272 4134 
L 2272 0 
L 1638 0 
L 1638 4134 
L -19 4134 
L -19 4666 
z
" transform="scale(0.015625)"/>
       <path id="DejaVuSans-49" d="M 628 4666 
L 1259 4666 
L 1259 0 
L 628 0 
L 628 4666 
z
" transform="scale(0.015625)"/>
       <path id="DejaVuSans-4d" d="M 628 4666 
L 1569 4666 
L 2759 1491 
L 3956 4666 
L 4897 4666 
L 4897 0 
L 4281 0 
L 4281 4097 
L 3078 897 
L 2444 897 
L 1241 4097 
L 1241 0 
L 628 0 
L 628 4666 
z
" transform="scale(0.015625)"/>
       <path id="DejaVuSans-45" d="M 628 4666 
L 3578 4666 
L 3578 4134 
L 1259 4134 
L 1259 2753 
L 3481 2753 
L 3481 2222 
L 1259 2222 
L 1259 531 
L 3634 531 
L 3634 0 
L 628 0 
L 628 4666 
z
" transform="scale(0.015625)"/>
       <path id="DejaVuSans-20" transform="scale(0.015625)"/>
       <path id="DejaVuSans-28" d="M 1984 4856 
Q 1566 4138 1362 3434 
Q 1159 2731 1159 2009 
Q 1159 1288 1364 580 
Q 1569 -128 1984 -844 
L 1484 -844 
Q 1016 -109 783 600 
Q 550 1309 550 2009 
Q 550 2706 781 3412 
Q 1013 4119 1484 4856 
L 1984 4856 
z
" transform="scale(0.015625)"/>
       <path id="DejaVuSans-44" d="M 1259 4147 
L 1259 519 
L 2022 519 
Q 2988 519 3436 956 
Q 3884 1394 3884 2338 
Q 3884 3275 3436 3711 
Q 2988 4147 2022 4147 
L 1259 4147 
z
M 628 4666 
L 1925 4666 
Q 3281 4666 3915 4102 
Q 4550 3538 4550 2338 
Q 4550 1131 3912 565 
Q 3275 0 1925 0 
L 628 0 
L 628 4666 
z
" transform="scale(0.015625)"/>
       <path id="DejaVuSans-41" d="M 2188 4044 
L 1331 1722 
L 3047 1722 
L 2188 4044 
z
M 1831 4666 
L 2547 4666 
L 4325 0 
L 3669 0 
L 3244 1197 
L 1141 1197 
L 716 0 
L 50 0 
L 1831 4666 
z
" transform="scale(0.015625)"/>
       <path id="DejaVuSans-59" d="M -13 4666 
L 666 4666 
L 1959 2747 
L 3244 4666 
L 3922 4666 
L 2272 2222 
L 2272 0 
L 1638 0 
L 1638 2222 
L -13 4666 
z
" transform="scale(0.015625)"/>
       <path id="DejaVuSans-53" d="M 3425 4513 
L 3425 3897 
Q 3066 4069 2747 4153 
Q 2428 4238 2131 4238 
Q 1616 4238 1336 4038 
Q 1056 3838 1056 3469 
Q 1056 3159 1242 3001 
Q 1428 2844 1947 2747 
L 2328 2669 
Q 3034 2534 3370 2195 
Q 3706 1856 3706 1288 
Q 3706 609 3251 259 
Q 2797 -91 1919 -91 
Q 1588 -91 1214 -16 
Q 841 59 441 206 
L 441 856 
Q 825 641 1194 531 
Q 1563 422 1919 422 
Q 2459 422 2753 634 
Q 3047 847 3047 1241 
Q 3047 1584 2836 1778 
Q 2625 1972 2144 2069 
L 1759 2144 
Q 1053 2284 737 2584 
Q 422 2884 422 3419 
Q 422 4038 858 4394 
Q 1294 4750 2059 4750 
Q 2388 4750 2728 4690 
Q 3069 4631 3425 4513 
z
" transform="scale(0.015625)"/>
       <path id="DejaVuSans-29" d="M 513 4856 
L 1013 4856 
Q 1481 4119 1714 3412 
Q 1947 2706 1947 2009 
Q 1947 1309 1714 600 
Q 1481 -109 1013 -844 
L 513 -844 
Q 928 -128 1133 580 
Q 1338 1288 1338 2009 
Q 1338 2731 1133 3434 
Q 928 4138 513 4856 
z
" transform="scale(0.015625)"/>
      </defs>
      <use xlink:href="#DejaVuSans-54"/>
      <use xlink:href="#DejaVuSans-49" x="61.083984"/>
      <use xlink:href="#DejaVuSans-4d" x="90.576172"/>
      <use xlink:href="#DejaVuSans-45" x="176.855469"/>
      <use xlink:href="#DejaVuSans-20" x="240.039062"/>
      <use xlink:href="#DejaVuSans-28" x="271.826172"/>
      <use xlink:href="#DejaVuSans-44" x="310.839844"/>
      <use xlink:href="#DejaVuSans-41" x="386.091797"/>
      <use xlink:href="#DejaVuSans-59" x="446.75"/>
      <use xlink:href="#DejaVuSans-53" x="507.833984"/>
      <use xlink:href="#DejaVuSans-29" x="571.310547"/>
     </g>
    </g>
   </g>
   <g id="matplotlib.axis_2">
    <g id="ytick_1">
     <g id="line2d_11">
      <defs>
       <path id="m4babb8623b" d="M 0 0 
L -3.5 0 
" style="stroke: #000000; stroke-width: 0.8"/>
      </defs>
      <g>
       <use xlink:href="#m4babb8623b" x="108" y="307.8" style="stroke: #000000; stroke-width: 0.8"/>
      </g>
     </g>
     <g id="text_12">
      <!-- 0 -->
      <g transform="translate(93.365 312.359062) scale(0.12 -0.12)">
       <use xlink:href="#DejaVuSans-30"/>
      </g>
     </g>
    </g>
    <g id="ytick_2">
     <g id="line2d_12">
      <g>
       <use xlink:href="#m4babb8623b" x="108" y="251.170787" style="stroke: #000000; stroke-width: 0.8"/>
      </g>
     </g>
     <g id="text_13">
      <!-- 20 -->
      <g transform="translate(85.73 255.729849) scale(0.12 -0.12)">
       <use xlink:href="#DejaVuSans-32"/>
       <use xlink:href="#DejaVuSans-30" x="63.623047"/>
      </g>
     </g>
    </g>
    <g id="ytick_3">
     <g id="line2d_13">
      <g>
       <use xlink:href="#m4babb8623b" x="108" y="194.541573" style="stroke: #000000; stroke-width: 0.8"/>
      </g>
     </g>
     <g id="text_14">
      <!-- 40 -->
      <g transform="translate(85.73 199.100636) scale(0.12 -0.12)">
       <defs>
        <path id="DejaVuSans-34" d="M 2419 4116 
L 825 1625 
L 2419 1625 
L 2419 4116 
z
M 2253 4666 
L 3047 4666 
L 3047 1625 
L 3713 1625 
L 3713 1100 
L 3047 1100 
L 3047 0 
L 2419 0 
L 2419 1100 
L 313 1100 
L 313 1709 
L 2253 4666 
z
" transform="scale(0.015625)"/>
       </defs>
       <use xlink:href="#DejaVuSans-34"/>
       <use xlink:href="#DejaVuSans-30" x="63.623047"/>
      </g>
     </g>
    </g>
    <g id="ytick_4">
     <g id="line2d_14">
      <g>
       <use xlink:href="#m4babb8623b" x="108" y="137.91236" style="stroke: #000000; stroke-width: 0.8"/>
      </g>
     </g>
     <g id="text_15">
      <!-- 60 -->
      <g transform="translate(85.73 142.471422) scale(0.12 -0.12)">
       <defs>
        <path id="DejaVuSans-36" d="M 2113 2584 
Q 1688 2584 1439 2293 
Q 1191 2003 1191 1497 
Q 1191 994 1439 701 
Q 1688 409 2113 409 
Q 2538 409 2786 701 
Q 3034 994 3034 1497 
Q 3034 2003 2786 2293 
Q 2538 2584 2113 2584 
z
M 3366 4563 
L 3366 3988 
Q 3128 4100 2886 4159 
Q 2644 4219 2406 4219 
Q 1781 4219 1451 3797 
Q 1122 3375 1075 2522 
Q 1259 2794 1537 2939 
Q 1816 3084 2150 3084 
Q 2853 3084 3261 2657 
Q 3669 2231 3669 1497 
Q 3669 778 3244 343 
Q 2819 -91 2113 -91 
Q 1303 -91 875 529 
Q 447 1150 447 2328 
Q 447 3434 972 4092 
Q 1497 4750 2381 4750 
Q 2619 4750 2861 4703 
Q 3103 4656 3366 4563 
z
" transform="scale(0.015625)"/>
       </defs>
       <use xlink:href="#DejaVuSans-36"/>
       <use xlink:href="#DejaVuSans-30" x="63.623047"/>
      </g>
     </g>
    </g>
    <g id="ytick_5">
     <g id="line2d_15">
      <g>
       <use xlink:href="#m4babb8623b" x="108" y="81.283146" style="stroke: #000000; stroke-width: 0.8"/>
      </g>
     </g>
     <g id="text_16">
      <!-- 80 -->
      <g transform="translate(85.73 85.842209) scale(0.12 -0.12)">
       <defs>
        <path id="DejaVuSans-38" d="M 2034 2216 
Q 1584 2216 1326 1975 
Q 1069 1734 1069 1313 
Q 1069 891 1326 650 
Q 1584 409 2034 409 
Q 2484 409 2743 651 
Q 3003 894 3003 1313 
Q 3003 1734 2745 1975 
Q 2488 2216 2034 2216 
z
M 1403 2484 
Q 997 2584 770 2862 
Q 544 3141 544 3541 
Q 544 4100 942 4425 
Q 1341 4750 2034 4750 
Q 2731 4750 3128 4425 
Q 3525 4100 3525 3541 
Q 3525 3141 3298 2862 
Q 3072 2584 2669 2484 
Q 3125 2378 3379 2068 
Q 3634 1759 3634 1313 
Q 3634 634 3220 271 
Q 2806 -91 2034 -91 
Q 1263 -91 848 271 
Q 434 634 434 1313 
Q 434 1759 690 2068 
Q 947 2378 1403 2484 
z
M 1172 3481 
Q 1172 3119 1398 2916 
Q 1625 2713 2034 2713 
Q 2441 2713 2670 2916 
Q 2900 3119 2900 3481 
Q 2900 3844 2670 4047 
Q 2441 4250 2034 4250 
Q 1625 4250 1398 4047 
Q 1172 3844 1172 3481 
z
" transform="scale(0.015625)"/>
       </defs>
       <use xlink:href="#DejaVuSans-38"/>
       <use xlink:href="#DejaVuSans-30" x="63.623047"/>
      </g>
     </g>
    </g>
    <g id="text_17">
     <!-- SIMULATED -->
     <g transform="translate(60.486 227.5875) rotate(-90) scale(0.16 -0.16)">
      <defs>
       <path id="DejaVuSans-55" d="M 556 4666 
L 1191 4666 
L 1191 1831 
Q 1191 1081 1462 751 
Q 1734 422 2344 422 
Q 2950 422 3222 751 
Q 3494 1081 3494 1831 
L 3494 4666 
L 4128 4666 
L 4128 1753 
Q 4128 841 3676 375 
Q 3225 -91 2344 -91 
Q 1459 -91 1007 375 
Q 556 841 556 1753 
L 556 4666 
z
" transform="scale(0.015625)"/>
       <path id="DejaVuSans-4c" d="M 628 4666 
L 1259 4666 
L 1259 531 
L 3531 531 
L 3531 0 
L 628 0 
L 628 4666 
z
" transform="scale(0.015625)"/>
      </defs>
      <use xlink:href="#DejaVuSans-53"/>
      <use xlink:href="#DejaVuSans-49" x="63.476562"/>
      <use xlink:href="#DejaVuSans-4d" x="92.96875"/>
      <use xlink:href="#DejaVuSans-55" x="179.248047"/>
      <use xlink:href="#DejaVuSans-4c" x="252.441406"/>
      <use xlink:href="#DejaVuSans-41" x="310.404297"/>
      <use xlink:href="#DejaVuSans-54" x="371.0625"/>
      <use xlink:href="#DejaVuSans-45" x="432.146484"/>
      <use xlink:href="#DejaVuSans-44" x="495.330078"/>
     </g>
     <!-- AMPLITUDE -->
     <g transform="translate(78.4025 227.7725) rotate(-90) scale(0.16 -0.16)">
      <defs>
       <path id="DejaVuSans-50" d="M 1259 4147 
L 1259 2394 
L 2053 2394 
Q 2494 2394 2734 2622 
Q 2975 2850 2975 3272 
Q 2975 3691 2734 3919 
Q 2494 4147 2053 4147 
L 1259 4147 
z
M 628 4666 
L 2053 4666 
Q 2838 4666 3239 4311 
Q 3641 3956 3641 3272 
Q 3641 2581 3239 2228 
Q 2838 1875 2053 1875 
L 1259 1875 
L 1259 0 
L 628 0 
L 628 4666 
z
" transform="scale(0.015625)"/>
      </defs>
      <use xlink:href="#DejaVuSans-41"/>
      <use xlink:href="#DejaVuSans-4d" x="68.408203"/>
      <use xlink:href="#DejaVuSans-50" x="154.6875"/>
      <use xlink:href="#DejaVuSans-4c" x="214.990234"/>
      <use xlink:href="#DejaVuSans-49" x="270.703125"/>
      <use xlink:href="#DejaVuSans-54" x="300.195312"/>
      <use xlink:href="#DejaVuSans-55" x="361.279297"/>
      <use xlink:href="#DejaVuSans-44" x="434.472656"/>
      <use xlink:href="#DejaVuSans-45" x="511.474609"/>
     </g>
    </g>
   </g>
   <g id="line2d_16">
    <path d="M 138.436364 307.8 
L 139.10456 220.024719 
L 139.772757 163.395506 
L 140.440954 251.170787 
L 141.109151 169.058427 
L 141.777348 231.350562 
L 142.445544 307.8 
L 143.113741 256.833708 
L 143.781938 307.8 
L 144.450135 304.968539 
L 145.118332 307.8 
L 145.786528 225.68764 
L 146.454725 307.8 
L 147.122922 299.305618 
L 147.791119 307.8 
L 148.459315 302.137079 
L 149.127512 242.676404 
L 149.795709 268.159551 
L 150.463906 231.350562 
L 151.132103 211.530337 
L 151.800299 217.193258 
L 152.468496 214.361798 
L 153.136693 245.507865 
L 153.80489 191.710112 
L 154.473087 307.8 
L 155.141283 188.878652 
L 155.80948 307.8 
L 156.477677 307.8 
L 157.145874 239.844944 
L 157.81407 282.316854 
L 158.482267 228.519101 
L 159.150464 276.653933 
L 159.818661 307.8 
L 160.486858 299.305618 
L 161.155054 307.8 
L 161.823251 307.8 
L 162.491448 220.024719 
L 163.159645 307.8 
L 163.827842 307.8 
L 164.496038 251.170787 
L 165.164235 307.8 
L 165.832432 307.8 
L 166.500629 237.013483 
L 167.168825 307.8 
L 167.837022 248.339326 
L 168.505219 307.8 
L 169.173416 106.766292 
L 169.841613 174.721348 
L 171.178006 217.193258 
L 171.846203 279.485393 
L 172.5144 248.339326 
L 173.182597 307.8 
L 173.850793 307.8 
L 174.51899 220.024719 
L 175.187187 296.474157 
L 175.855384 228.519101 
L 176.52358 293.642697 
L 177.191777 307.8 
L 178.528171 307.8 
L 179.196368 285.148315 
L 179.864564 254.002247 
L 180.532761 214.361798 
L 181.200958 237.013483 
L 181.869155 217.193258 
L 182.537352 239.844944 
L 183.205548 242.676404 
L 183.873745 126.586517 
L 184.541942 307.8 
L 185.210139 282.316854 
L 185.878335 307.8 
L 186.546532 307.8 
L 187.214729 290.811236 
L 187.882926 307.8 
L 188.551123 259.665169 
L 189.219319 307.8 
L 190.555713 248.339326 
L 191.22391 254.002247 
L 191.892107 234.182022 
L 192.560303 287.979775 
L 193.2285 307.8 
L 193.896697 299.305618 
L 194.564894 234.182022 
L 195.233091 307.8 
L 195.901287 203.035955 
L 196.569484 307.8 
L 197.237681 307.8 
L 197.905878 256.833708 
L 198.574074 307.8 
L 199.242271 166.226966 
L 199.910468 217.193258 
L 200.578665 186.047191 
L 201.246862 217.193258 
L 201.915058 112.429213 
L 202.583255 200.204494 
L 203.251452 307.8 
L 203.919649 208.698876 
L 204.587846 231.350562 
L 205.256042 279.485393 
L 205.924239 279.485393 
L 206.592436 307.8 
L 207.260633 276.653933 
L 207.928829 307.8 
L 208.597026 276.653933 
L 209.265223 307.8 
L 209.93342 188.878652 
L 210.601617 276.653933 
L 211.269813 231.350562 
L 211.93801 251.170787 
L 212.606207 299.305618 
L 213.274404 171.889888 
L 213.942601 160.564045 
L 215.278994 307.8 
L 215.947191 225.68764 
L 216.615388 304.968539 
L 217.283584 270.991011 
L 217.951781 299.305618 
L 218.619978 302.137079 
L 219.288175 307.8 
L 223.965552 307.8 
L 224.633749 293.642697 
L 225.301946 287.979775 
L 225.970143 307.8 
L 226.638339 225.68764 
L 227.306536 287.979775 
L 227.974733 282.316854 
L 228.64293 307.8 
L 229.311127 307.8 
L 229.979323 171.889888 
L 230.64752 208.698876 
L 231.315717 228.519101 
L 231.983914 222.85618 
L 232.652111 200.204494 
L 233.320307 282.316854 
L 233.988504 282.316854 
L 234.656701 307.8 
L 238.665882 307.8 
L 239.334078 299.305618 
L 240.002275 307.8 
L 240.670472 293.642697 
L 241.338669 304.968539 
L 242.006866 188.878652 
L 242.675062 242.676404 
L 243.343259 268.159551 
L 244.011456 160.564045 
L 244.679653 174.721348 
L 245.34785 256.833708 
L 246.016046 293.642697 
L 246.684243 282.316854 
L 247.35244 307.8 
L 248.020637 307.8 
L 248.688833 302.137079 
L 249.35703 265.32809 
L 250.025227 293.642697 
L 250.693424 299.305618 
L 251.361621 307.8 
L 254.034408 307.8 
L 255.370801 259.665169 
L 256.038998 307.8 
L 256.707195 279.485393 
L 257.375392 307.8 
L 258.043588 270.991011 
L 258.711785 307.8 
L 259.379982 307.8 
L 260.048179 132.249438 
L 260.716376 208.698876 
L 261.384572 137.91236 
L 262.052769 220.024719 
L 262.720966 282.316854 
L 263.389163 251.170787 
L 264.05736 290.811236 
L 264.725556 307.8 
L 265.393753 304.968539 
L 266.06195 290.811236 
L 266.730147 307.8 
L 267.398343 220.024719 
L 268.06654 307.8 
L 268.734737 265.32809 
L 269.402934 307.8 
L 270.071131 242.676404 
L 270.739327 307.8 
L 271.407524 268.159551 
L 272.075721 307.8 
L 272.743918 220.024719 
L 273.412115 237.013483 
L 274.080311 220.024719 
L 274.748508 183.21573 
L 275.416705 307.8 
L 276.084902 304.968539 
L 276.753098 287.979775 
L 277.421295 307.8 
L 278.757689 307.8 
L 279.425886 287.979775 
L 280.094082 307.8 
L 280.762279 259.665169 
L 281.430476 307.8 
L 284.103263 307.8 
L 284.77146 287.979775 
L 285.439657 307.8 
L 288.112444 307.8 
L 288.780641 290.811236 
L 289.448837 307.8 
L 290.117034 270.991011 
L 290.785231 143.575281 
L 291.453428 166.226966 
L 292.121625 143.575281 
L 292.789821 276.653933 
L 293.458018 180.38427 
L 294.126215 231.350562 
L 294.794412 259.665169 
L 295.462609 307.8 
L 296.130805 287.979775 
L 296.799002 296.474157 
L 297.467199 307.8 
L 298.803592 307.8 
L 299.471789 191.710112 
L 300.139986 307.8 
L 300.808183 307.8 
L 301.47638 296.474157 
L 302.144576 307.8 
L 302.812773 242.676404 
L 303.48097 259.665169 
L 304.149167 154.901124 
L 304.817364 186.047191 
L 305.48556 180.38427 
L 306.153757 307.8 
L 306.821954 211.530337 
L 307.490151 307.8 
L 308.158347 307.8 
L 308.826544 242.676404 
L 309.494741 307.8 
L 310.162938 299.305618 
L 310.831135 307.8 
L 311.499331 273.822472 
L 312.167528 307.8 
L 312.835725 307.8 
L 314.172119 296.474157 
L 314.840315 256.833708 
L 315.508512 307.8 
L 316.176709 208.698876 
L 316.844906 203.035955 
L 318.181299 307.8 
L 319.517693 307.8 
L 320.18589 259.665169 
L 320.854086 61.462921 
L 321.522283 200.204494 
L 322.19048 166.226966 
L 322.858677 220.024719 
L 323.526874 256.833708 
L 324.19507 302.137079 
L 324.863267 137.91236 
L 325.531464 307.8 
L 326.199661 234.182022 
L 326.867857 307.8 
L 328.204251 307.8 
L 328.872448 220.024719 
L 330.208841 307.8 
L 330.877038 285.148315 
L 331.545235 205.867416 
L 332.213432 302.137079 
L 332.881629 302.137079 
L 333.549825 208.698876 
L 334.218022 200.204494 
L 334.886219 163.395506 
L 335.554416 154.901124 
L 336.222613 307.8 
L 336.890809 307.8 
L 337.559006 270.991011 
L 338.227203 270.991011 
L 338.8954 307.8 
L 339.563596 262.496629 
L 340.231793 242.676404 
L 340.89999 307.8 
L 344.240974 307.8 
L 344.909171 279.485393 
L 345.577368 307.8 
L 346.245564 239.844944 
L 346.913761 307.8 
L 347.581958 282.316854 
L 348.250155 307.8 
L 348.918351 273.822472 
L 349.586548 307.8 
L 350.254745 270.991011 
L 350.922942 268.159551 
L 351.591139 183.21573 
L 352.259335 225.68764 
L 352.927532 126.586517 
L 353.595729 126.586517 
L 354.263926 270.991011 
L 354.932123 217.193258 
L 355.600319 273.822472 
L 356.268516 307.8 
L 356.936713 254.002247 
L 357.60491 307.8 
L 358.941303 307.8 
L 359.6095 276.653933 
L 360.277697 234.182022 
L 360.945894 307.8 
L 361.61409 220.024719 
L 362.282287 211.530337 
L 362.950484 307.8 
L 363.618681 188.878652 
L 364.286878 183.21573 
L 364.955074 163.395506 
L 365.623271 103.934831 
L 366.291468 307.8 
L 366.959665 239.844944 
L 367.627861 307.8 
L 368.964255 307.8 
L 369.632452 296.474157 
L 370.300649 307.8 
L 371.637042 307.8 
L 372.305239 273.822472 
L 372.973436 231.350562 
L 373.641633 307.8 
L 374.309829 225.68764 
L 374.978026 307.8 
L 375.646223 307.8 
L 376.31442 299.305618 
L 376.982617 307.8 
L 378.31901 307.8 
L 378.987207 302.137079 
L 379.655404 307.8 
L 380.3236 282.316854 
L 380.991797 307.8 
L 381.659994 191.710112 
L 382.328191 188.878652 
L 382.996388 208.698876 
L 383.664584 248.339326 
L 384.332781 242.676404 
L 385.000978 228.519101 
L 385.669175 228.519101 
L 386.337372 307.8 
L 387.005568 273.822472 
L 387.673765 293.642697 
L 389.010159 217.193258 
L 389.678355 307.8 
L 391.682946 307.8 
L 392.351143 276.653933 
L 393.019339 237.013483 
L 393.687536 245.507865 
L 394.355733 299.305618 
L 395.02393 197.373034 
L 395.692127 194.541573 
L 396.360323 188.878652 
L 397.02852 307.8 
L 397.696717 307.8 
L 398.364914 248.339326 
L 399.03311 265.32809 
L 399.701307 307.8 
L 400.369504 254.002247 
L 401.037701 307.8 
L 401.705898 268.159551 
L 402.374094 239.844944 
L 403.042291 307.8 
L 403.710488 208.698876 
L 404.378685 307.8 
L 405.046882 273.822472 
L 405.715078 265.32809 
L 406.383275 304.968539 
L 407.051472 307.8 
L 407.719669 231.350562 
L 408.387865 307.8 
L 409.056062 307.8 
L 409.724259 296.474157 
L 410.392456 296.474157 
L 411.060653 259.665169 
L 411.728849 270.991011 
L 412.397046 152.069663 
L 413.065243 251.170787 
L 413.73344 304.968539 
L 414.401637 242.676404 
L 415.069833 273.822472 
L 415.73803 296.474157 
L 416.406227 234.182022 
L 417.074424 307.8 
L 417.74262 307.8 
L 418.410817 285.148315 
L 419.747211 307.8 
L 420.415408 276.653933 
L 421.083604 307.8 
L 421.751801 307.8 
L 422.419998 296.474157 
L 423.088195 307.8 
L 423.756392 149.238202 
L 424.424588 256.833708 
L 425.092785 234.182022 
L 425.760982 203.035955 
L 426.429179 225.68764 
L 427.097376 118.092135 
L 427.765572 304.968539 
L 428.433769 307.8 
L 429.101966 276.653933 
L 429.770163 307.8 
L 432.44295 307.8 
L 433.111147 282.316854 
L 433.779343 299.305618 
L 434.44754 307.8 
L 435.115737 307.8 
L 435.783934 279.485393 
L 436.452131 307.8 
L 437.120327 268.159551 
L 437.788524 307.8 
L 439.793114 307.8 
L 440.461311 304.968539 
L 441.129508 231.350562 
L 441.797705 307.8 
L 442.465902 307.8 
L 443.134098 299.305618 
L 443.802295 183.21573 
L 444.470492 120.923596 
L 445.138689 270.991011 
L 445.806886 265.32809 
L 446.475082 287.979775 
L 447.143279 217.193258 
L 447.811476 222.85618 
L 448.479673 307.8 
L 449.147869 237.013483 
L 449.816066 307.8 
L 450.484263 302.137079 
L 451.15246 307.8 
L 453.15705 307.8 
L 453.825247 290.811236 
L 454.493444 307.8 
L 455.161641 273.822472 
L 455.829837 287.979775 
L 456.498034 231.350562 
L 457.166231 251.170787 
L 457.834428 279.485393 
L 458.502624 188.878652 
L 459.170821 259.665169 
L 459.839018 282.316854 
L 460.507215 268.159551 
L 461.175412 270.991011 
L 461.843608 248.339326 
L 463.180002 290.811236 
L 463.848199 307.8 
L 464.516396 307.8 
L 465.184592 251.170787 
L 465.852789 307.8 
L 466.520986 262.496629 
L 467.189183 307.8 
L 467.85738 276.653933 
L 468.525576 304.968539 
L 469.193773 287.979775 
L 469.86197 307.8 
L 470.530167 307.8 
L 471.198363 282.316854 
L 471.86656 234.182022 
L 472.534757 307.8 
L 473.202954 276.653933 
L 473.871151 307.8 
L 474.539347 183.21573 
L 475.207544 256.833708 
L 475.875741 220.024719 
L 476.543938 208.698876 
L 477.212135 290.811236 
L 477.880331 293.642697 
L 478.548528 214.361798 
L 479.216725 237.013483 
L 479.884922 279.485393 
L 480.553118 307.8 
L 481.221315 273.822472 
L 481.889512 262.496629 
L 482.557709 296.474157 
L 483.225906 307.8 
L 483.894102 307.8 
L 484.562299 285.148315 
L 485.230496 239.844944 
L 485.898693 307.8 
L 486.56689 282.316854 
L 487.235086 293.642697 
L 487.903283 211.530337 
L 488.57148 276.653933 
L 489.239677 154.901124 
L 489.907873 67.125843 
L 490.57607 307.8 
L 491.244267 307.8 
L 491.912464 293.642697 
L 492.580661 262.496629 
L 493.248857 307.8 
L 494.585251 307.8 
L 495.253448 304.968539 
L 495.921645 304.968539 
L 496.589841 287.979775 
L 497.258038 307.8 
L 497.926235 307.8 
L 498.594432 276.653933 
L 499.262628 307.8 
L 499.930825 307.8 
L 500.599022 276.653933 
L 501.267219 279.485393 
L 501.935416 307.8 
L 502.603612 279.485393 
L 503.271809 282.316854 
L 503.940006 307.8 
L 504.608203 307.8 
L 505.944596 239.844944 
L 506.612793 166.226966 
L 507.28099 135.080899 
L 507.949187 180.38427 
L 508.617383 262.496629 
L 509.28558 251.170787 
L 509.953777 287.979775 
L 510.621974 242.676404 
L 511.290171 307.8 
L 513.294761 307.8 
L 513.962958 290.811236 
L 514.631155 251.170787 
L 515.299351 231.350562 
L 515.967548 307.8 
L 516.635745 290.811236 
L 517.303942 282.316854 
L 517.972139 234.182022 
L 518.640335 299.305618 
L 519.308532 188.878652 
L 519.976729 194.541573 
L 520.644926 171.889888 
L 521.313122 307.8 
L 521.981319 282.316854 
L 522.649516 307.8 
L 524.654106 307.8 
L 525.322303 254.002247 
L 525.9905 270.991011 
L 526.658697 307.8 
L 527.99509 307.8 
L 528.663287 248.339326 
L 529.999681 307.8 
L 530.667877 296.474157 
L 531.336074 290.811236 
L 532.004271 307.8 
L 534.008861 307.8 
L 534.677058 211.530337 
L 535.345255 293.642697 
L 536.013452 307.8 
L 536.681649 282.316854 
L 537.349845 55.8 
L 538.018042 245.507865 
L 538.686239 234.182022 
L 539.354436 268.159551 
L 540.022632 217.193258 
L 540.690829 279.485393 
L 541.359026 307.8 
L 542.027223 251.170787 
L 542.69542 220.024719 
L 543.363616 307.8 
L 544.031813 299.305618 
L 544.70001 307.8 
L 545.368207 307.8 
L 546.036404 248.339326 
L 546.7046 307.8 
L 547.372797 307.8 
L 548.040994 217.193258 
L 548.709191 160.564045 
L 549.377387 273.822472 
L 550.045584 299.305618 
L 550.713781 217.193258 
L 551.381978 89.777528 
L 552.050175 203.035955 
L 552.718371 245.507865 
L 553.386568 307.8 
L 555.391159 307.8 
L 556.059355 285.148315 
L 556.727552 307.8 
L 557.395749 307.8 
L 558.063946 211.530337 
L 558.732143 307.8 
L 559.400339 270.991011 
L 560.068536 307.8 
L 560.736733 254.002247 
L 561.40493 276.653933 
L 562.073126 239.844944 
L 562.741323 237.013483 
L 563.40952 307.8 
L 564.077717 282.316854 
L 564.745914 307.8 
L 566.082307 242.676404 
L 566.750504 279.485393 
L 567.418701 307.8 
L 568.086898 225.68764 
L 568.755094 183.21573 
L 569.423291 180.38427 
L 570.091488 174.721348 
L 570.759685 205.867416 
L 571.427881 256.833708 
L 572.096078 276.653933 
L 572.764275 248.339326 
L 573.432472 285.148315 
L 574.100669 307.8 
L 574.768865 307.8 
L 575.437062 259.665169 
L 576.105259 307.8 
L 578.778046 307.8 
L 579.446243 234.182022 
L 580.11444 307.8 
L 580.782636 287.979775 
L 582.11903 103.934831 
L 582.787227 194.541573 
L 583.455424 135.080899 
L 584.12362 256.833708 
L 584.791817 256.833708 
L 585.460014 307.8 
L 586.796408 307.8 
L 587.464604 293.642697 
L 588.132801 268.159551 
L 588.800998 307.8 
L 589.469195 276.653933 
L 590.137391 302.137079 
L 590.805588 307.8 
L 591.473785 307.8 
L 592.141982 293.642697 
L 592.810179 307.8 
L 594.814769 307.8 
L 595.482966 265.32809 
L 596.151163 307.8 
L 596.819359 307.8 
L 597.487556 279.485393 
L 598.155753 302.137079 
L 598.82395 270.991011 
L 599.492146 106.766292 
L 600.160343 208.698876 
L 600.82854 276.653933 
L 601.496737 251.170787 
L 602.164934 211.530337 
L 602.83313 273.822472 
L 603.501327 228.519101 
L 604.169524 270.991011 
L 604.837721 290.811236 
L 605.505918 254.002247 
L 606.174114 307.8 
L 606.842311 265.32809 
L 607.510508 307.8 
L 609.515098 307.8 
L 610.183295 146.406742 
L 610.851492 304.968539 
L 611.519689 259.665169 
L 612.187885 293.642697 
L 612.856082 222.85618 
L 613.524279 231.350562 
L 614.192476 225.68764 
L 614.860673 106.766292 
L 615.528869 276.653933 
L 616.197066 307.8 
L 616.865263 304.968539 
L 617.53346 299.305618 
L 618.201657 279.485393 
L 618.869853 220.024719 
L 619.53805 293.642697 
L 620.206247 222.85618 
L 620.874444 299.305618 
L 621.54264 282.316854 
L 622.210837 307.8 
L 624.215428 307.8 
L 624.883624 239.844944 
L 625.551821 307.8 
L 626.220018 307.8 
L 626.888215 268.159551 
L 627.556412 307.8 
L 628.224608 222.85618 
L 628.892805 285.148315 
L 629.561002 307.8 
L 630.229199 287.979775 
L 630.897395 180.38427 
L 631.565592 205.867416 
L 632.233789 217.193258 
L 632.901986 242.676404 
L 633.570183 203.035955 
L 634.238379 282.316854 
L 634.906576 307.8 
L 635.574773 287.979775 
L 636.24297 307.8 
L 637.579363 307.8 
L 638.24756 265.32809 
L 638.915757 302.137079 
L 639.583954 307.8 
L 640.25215 285.148315 
L 640.920347 307.8 
L 641.588544 290.811236 
L 642.256741 251.170787 
L 642.924938 237.013483 
L 643.593134 276.653933 
L 644.261331 191.710112 
L 644.929528 234.182022 
L 645.597725 228.519101 
L 646.265922 254.002247 
L 646.934118 237.013483 
L 647.602315 299.305618 
L 648.270512 262.496629 
L 648.938709 262.496629 
L 649.606905 290.811236 
L 650.275102 307.8 
L 650.943299 234.182022 
L 651.611496 307.8 
L 652.279693 307.8 
L 653.616086 237.013483 
L 654.284283 307.8 
L 654.95248 307.8 
L 655.620677 293.642697 
L 656.288873 248.339326 
L 656.95707 296.474157 
L 657.625267 268.159551 
L 658.293464 307.8 
L 658.961661 268.159551 
L 659.629857 307.8 
L 660.298054 285.148315 
L 660.966251 307.8 
L 661.634448 268.159551 
L 662.302644 140.74382 
L 662.970841 191.710112 
L 663.639038 268.159551 
L 664.307235 287.979775 
L 664.975432 254.002247 
L 665.643628 228.519101 
L 666.980022 304.968539 
L 667.648219 296.474157 
L 668.316416 307.8 
L 668.984612 307.8 
L 669.652809 268.159551 
L 670.321006 270.991011 
L 670.989203 282.316854 
L 671.657399 290.811236 
L 672.325596 256.833708 
L 672.993793 251.170787 
L 673.66199 200.204494 
L 674.330187 273.822472 
L 674.998383 140.74382 
L 675.66658 197.373034 
L 676.334777 140.74382 
L 677.671171 276.653933 
L 678.339367 307.8 
L 679.007564 307.8 
L 679.675761 290.811236 
L 680.343958 307.8 
L 683.684942 307.8 
L 684.353138 237.013483 
L 685.021335 287.979775 
L 685.689532 307.8 
L 686.357729 256.833708 
L 687.025926 296.474157 
L 687.694122 307.8 
L 688.362319 307.8 
L 689.030516 302.137079 
L 689.698713 290.811236 
L 690.366909 254.002247 
L 691.035106 307.8 
L 691.703303 307.8 
L 692.3715 166.226966 
L 693.039697 92.608989 
L 693.707893 225.68764 
L 694.37609 180.38427 
L 695.044287 177.552809 
L 695.712484 177.552809 
L 696.380681 262.496629 
L 697.048877 307.8 
L 698.385271 307.8 
L 699.053468 282.316854 
L 699.721665 307.8 
L 701.726255 307.8 
L 702.394452 302.137079 
L 703.062648 307.8 
L 703.730845 307.8 
L 704.399042 304.968539 
L 705.067239 307.8 
L 705.735436 239.844944 
L 706.403632 245.507865 
L 707.071829 234.182022 
L 707.740026 200.204494 
L 708.408223 225.68764 
L 709.07642 307.8 
L 709.744616 285.148315 
L 710.412813 307.8 
L 712.417403 307.8 
L 713.0856 296.474157 
L 713.753797 270.991011 
L 714.421994 307.8 
L 715.758387 242.676404 
L 716.426584 307.8 
L 717.094781 307.8 
L 717.762978 279.485393 
L 718.431175 307.8 
L 719.099371 254.002247 
L 719.767568 307.8 
L 721.772158 307.8 
L 722.440355 276.653933 
L 723.108552 307.8 
L 723.776749 290.811236 
L 724.444946 126.586517 
L 725.113142 171.889888 
L 725.781339 245.507865 
L 726.449536 234.182022 
L 727.117733 296.474157 
L 727.78593 293.642697 
L 728.454126 273.822472 
L 729.122323 285.148315 
L 729.79052 265.32809 
L 730.458717 307.8 
L 731.126913 307.8 
L 731.79511 256.833708 
L 732.463307 307.8 
L 733.131504 307.8 
L 733.799701 251.170787 
L 734.467897 290.811236 
L 735.136094 307.8 
L 735.804291 254.002247 
L 736.472488 242.676404 
L 737.140685 307.8 
L 737.808881 177.552809 
L 738.477078 245.507865 
L 739.145275 171.889888 
L 739.813472 296.474157 
L 740.481668 296.474157 
L 741.818062 307.8 
L 742.486259 265.32809 
L 743.154456 251.170787 
L 743.822652 307.8 
L 745.159046 307.8 
L 745.827243 259.665169 
L 746.49544 307.8 
L 747.163636 307.8 
L 747.163636 307.8 
" clip-path="url(#p53162b9117)" style="fill: none; stroke: #191970; stroke-width: 2; stroke-linecap: square"/>
   </g>
   <g id="patch_3">
    <path d="M 108 320.4 
L 108 43.2 
" style="fill: none; stroke: #000000; stroke-width: 0.8; stroke-linejoin: miter; stroke-linecap: square"/>
   </g>
   <g id="patch_4">
    <path d="M 777.6 320.4 
L 777.6 43.2 
" style="fill: none; stroke: #000000; stroke-width: 0.8; stroke-linejoin: miter; stroke-linecap: square"/>
   </g>
   <g id="patch_5">
    <path d="M 108 320.4 
L 777.6 320.4 
" style="fill: none; stroke: #000000; stroke-width: 0.8; stroke-linejoin: miter; stroke-linecap: square"/>
   </g>
   <g id="patch_6">
    <path d="M 108 43.2 
L 777.6 43.2 
" style="fill: none; stroke: #000000; stroke-width: 0.8; stroke-linejoin: miter; stroke-linecap: square"/>
   </g>
   <g id="text_18">
    <!-- TIME SERIES -->
    <g transform="translate(386.625938 37.2) scale(0.18 -0.18)">
     <defs>
      <path id="DejaVuSans-52" d="M 2841 2188 
Q 3044 2119 3236 1894 
Q 3428 1669 3622 1275 
L 4263 0 
L 3584 0 
L 2988 1197 
Q 2756 1666 2539 1819 
Q 2322 1972 1947 1972 
L 1259 1972 
L 1259 0 
L 628 0 
L 628 4666 
L 2053 4666 
Q 2853 4666 3247 4331 
Q 3641 3997 3641 3322 
Q 3641 2881 3436 2590 
Q 3231 2300 2841 2188 
z
M 1259 4147 
L 1259 2491 
L 2053 2491 
Q 2509 2491 2742 2702 
Q 2975 2913 2975 3322 
Q 2975 3731 2742 3939 
Q 2509 4147 2053 4147 
L 1259 4147 
z
" transform="scale(0.015625)"/>
     </defs>
     <use xlink:href="#DejaVuSans-54"/>
     <use xlink:href="#DejaVuSans-49" x="61.083984"/>
     <use xlink:href="#DejaVuSans-4d" x="90.576172"/>
     <use xlink:href="#DejaVuSans-45" x="176.855469"/>
     <use xlink:href="#DejaVuSans-20" x="240.039062"/>
     <use xlink:href="#DejaVuSans-53" x="271.826172"/>
     <use xlink:href="#DejaVuSans-45" x="335.302734"/>
     <use xlink:href="#DejaVuSans-52" x="398.486328"/>
     <use xlink:href="#DejaVuSans-49" x="467.96875"/>
     <use xlink:href="#DejaVuSans-45" x="497.460938"/>
     <use xlink:href="#DejaVuSans-53" x="560.644531"/>
    </g>
   </g>
  </g>
 </g>
 <defs>
  <clipPath id="p53162b9117">
   <rect x="108" y="43.2" width="669.6" height="277.2"/>
  </clipPath>
 </defs>
</svg>
