<?xml version="1.0" encoding="utf-8" standalone="no"?>
<!DOCTYPE svg PUBLIC "-//W3C//DTD SVG 1.1//EN"
  "http://www.w3.org/Graphics/SVG/1.1/DTD/svg11.dtd">
<svg xmlns:xlink="http://www.w3.org/1999/xlink" width="504pt" height="504pt" viewBox="0 0 504 504" xmlns="http://www.w3.org/2000/svg" version="1.1">
 <metadata>
  <rdf:RDF xmlns:dc="http://purl.org/dc/elements/1.1/" xmlns:cc="http://creativecommons.org/ns#" xmlns:rdf="http://www.w3.org/1999/02/22-rdf-syntax-ns#">
   <cc:Work>
    <dc:type rdf:resource="http://purl.org/dc/dcmitype/StillImage"/>
    <dc:date>2023-11-28T17:29:49.677861</dc:date>
    <dc:format>image/svg+xml</dc:format>
    <dc:creator>
     <cc:Agent>
      <dc:title>Matplotlib v3.7.4, https://matplotlib.org/</dc:title>
     </cc:Agent>
    </dc:creator>
   </cc:Work>
  </rdf:RDF>
 </metadata>
 <defs>
  <style type="text/css">*{stroke-linejoin: round; stroke-linecap: butt}</style>
 </defs>
 <g id="figure_1">
  <g id="patch_1">
   <path d="M 0 504 
L 504 504 
L 504 0 
L 0 0 
z
" style="fill: #ffffff"/>
  </g>
  <g id="axes_1">
   <g id="patch_2">
    <path d="M 72.754 233.07 
L 275.827 233.07 
L 275.827 79.56 
L 72.754 79.56 
z
" style="fill: #ffffff"/>
   </g>
   <g id="matplotlib.axis_1">
    <g id="xtick_1">
     <g id="line2d_1">
      <defs>
       <path id="mbf42547367" d="M 0 0 
L 0 3.5 
" style="stroke: #000000; stroke-width: 0.8"/>
      </defs>
      <g>
       <use xlink:href="#mbf42547367" x="73.95799" y="233.07" style="stroke: #000000; stroke-width: 0.8"/>
      </g>
     </g>
    </g>
    <g id="xtick_2">
     <g id="line2d_2">
      <g>
       <use xlink:href="#mbf42547367" x="154.223998" y="233.07" style="stroke: #000000; stroke-width: 0.8"/>
      </g>
     </g>
    </g>
    <g id="xtick_3">
     <g id="line2d_3">
      <g>
       <use xlink:href="#mbf42547367" x="234.490006" y="233.07" style="stroke: #000000; stroke-width: 0.8"/>
      </g>
     </g>
    </g>
   </g>
   <g id="matplotlib.axis_2">
    <g id="ytick_1">
     <g id="line2d_4">
      <defs>
       <path id="mcb64b8edd6" d="M 0 0 
L -3.5 0 
" style="stroke: #000000; stroke-width: 0.8"/>
      </defs>
      <g>
       <use xlink:href="#mcb64b8edd6" x="72.754" y="226.092284" style="stroke: #000000; stroke-width: 0.8"/>
      </g>
     </g>
     <g id="text_1">
      <!-- 0 -->
      <g transform="translate(56.8465 231.411191) scale(0.14 -0.14)">
       <defs>
        <path id="DejaVuSans-30" d="M 2034 4250 
Q 1547 4250 1301 3770 
Q 1056 3291 1056 2328 
Q 1056 1369 1301 889 
Q 1547 409 2034 409 
Q 2525 409 2770 889 
Q 3016 1369 3016 2328 
Q 3016 3291 2770 3770 
Q 2525 4250 2034 4250 
z
M 2034 4750 
Q 2819 4750 3233 4129 
Q 3647 3509 3647 2328 
Q 3647 1150 3233 529 
Q 2819 -91 2034 -91 
Q 1250 -91 836 529 
Q 422 1150 422 2328 
Q 422 3509 836 4129 
Q 1250 4750 2034 4750 
z
" transform="scale(0.015625)"/>
       </defs>
       <use xlink:href="#DejaVuSans-30"/>
      </g>
     </g>
    </g>
    <g id="ytick_2">
     <g id="line2d_5">
      <g>
       <use xlink:href="#mcb64b8edd6" x="72.754" y="168.67017" style="stroke: #000000; stroke-width: 0.8"/>
      </g>
     </g>
     <g id="text_2">
      <!-- 1 -->
      <g transform="translate(56.8465 173.989076) scale(0.14 -0.14)">
       <defs>
        <path id="DejaVuSans-31" d="M 794 531 
L 1825 531 
L 1825 4091 
L 703 3866 
L 703 4441 
L 1819 4666 
L 2450 4666 
L 2450 531 
L 3481 531 
L 3481 0 
L 794 0 
L 794 531 
z
" transform="scale(0.015625)"/>
       </defs>
       <use xlink:href="#DejaVuSans-31"/>
      </g>
     </g>
    </g>
    <g id="ytick_3">
     <g id="line2d_6">
      <g>
       <use xlink:href="#mcb64b8edd6" x="72.754" y="111.248056" style="stroke: #000000; stroke-width: 0.8"/>
      </g>
     </g>
     <g id="text_3">
      <!-- 2 -->
      <g transform="translate(56.8465 116.566962) scale(0.14 -0.14)">
       <defs>
        <path id="DejaVuSans-32" d="M 1228 531 
L 3431 531 
L 3431 0 
L 469 0 
L 469 531 
Q 828 903 1448 1529 
Q 2069 2156 2228 2338 
Q 2531 2678 2651 2914 
Q 2772 3150 2772 3378 
Q 2772 3750 2511 3984 
Q 2250 4219 1831 4219 
Q 1534 4219 1204 4116 
Q 875 4013 500 3803 
L 500 4441 
Q 881 4594 1212 4672 
Q 1544 4750 1819 4750 
Q 2544 4750 2975 4387 
Q 3406 4025 3406 3419 
Q 3406 3131 3298 2873 
Q 3191 2616 2906 2266 
Q 2828 2175 2409 1742 
Q 1991 1309 1228 531 
z
" transform="scale(0.015625)"/>
       </defs>
       <use xlink:href="#DejaVuSans-32"/>
      </g>
     </g>
    </g>
    <g id="text_4">
     <!-- 1e7 -->
     <g transform="translate(72.754 76.56) scale(0.1 -0.1)">
      <defs>
       <path id="DejaVuSans-65" d="M 3597 1894 
L 3597 1613 
L 953 1613 
Q 991 1019 1311 708 
Q 1631 397 2203 397 
Q 2534 397 2845 478 
Q 3156 559 3463 722 
L 3463 178 
Q 3153 47 2828 -22 
Q 2503 -91 2169 -91 
Q 1331 -91 842 396 
Q 353 884 353 1716 
Q 353 2575 817 3079 
Q 1281 3584 2069 3584 
Q 2775 3584 3186 3129 
Q 3597 2675 3597 1894 
z
M 3022 2063 
Q 3016 2534 2758 2815 
Q 2500 3097 2075 3097 
Q 1594 3097 1305 2825 
Q 1016 2553 972 2059 
L 3022 2063 
z
" transform="scale(0.015625)"/>
       <path id="DejaVuSans-37" d="M 525 4666 
L 3525 4666 
L 3525 4397 
L 1831 0 
L 1172 0 
L 2766 4134 
L 525 4134 
L 525 4666 
z
" transform="scale(0.015625)"/>
      </defs>
      <use xlink:href="#DejaVuSans-31"/>
      <use xlink:href="#DejaVuSans-65" x="63.623047"/>
      <use xlink:href="#DejaVuSans-37" x="125.146484"/>
     </g>
    </g>
   </g>
   <g id="line2d_7">
    <path d="M 81.984591 210.995872 
L 234.490006 210.995872 
" clip-path="url(#p573b525638)" style="fill: none; stroke-dasharray: 7.4,3.2; stroke-dashoffset: 0; stroke: #696969; stroke-width: 2"/>
   </g>
   <g id="line2d_8">
    <path d="M 234.490006 218.935209 
L 194.357002 220.739958 
L 170.2772 127.538016 
L 154.223998 225.99909 
L 142.757425 223.30371 
L 134.157496 224.098656 
L 127.468662 224.611993 
L 122.117595 177.873484 
L 117.739449 225.832928 
L 114.090994 225.45805 
L 111.00384 224.815053 
L 108.357708 225.401724 
L 106.064393 183.937661 
L 104.057743 225.971719 
L 102.287169 226.044215 
L 100.713326 225.881551 
L 99.305151 225.485796 
L 98.037792 224.32825 
L 96.891135 226.084052 
L 95.84872 225.955269 
L 94.896949 224.672671 
L 94.024492 224.983807 
L 93.221832 219.9957 
L 92.480915 225.81684 
L 91.794881 225.084005 
L 91.157849 225.275985 
L 90.56475 225.97551 
L 90.011192 225.831271 
L 89.493346 225.786378 
L 89.007867 226.02871 
L 88.55181 225.636437 
L 88.12258 226.075593 
L 87.717877 225.803517 
L 87.335658 225.975659 
L 86.9741 226.055724 
L 86.63157 226.049951 
L 86.306607 226.049959 
L 85.997891 226.043512 
L 85.704235 226.039393 
L 85.424563 226.048625 
L 85.157898 226.036852 
L 84.903355 226.048571 
L 84.660125 226.031945 
L 84.427469 226.03309 
L 84.204715 226.026614 
L 83.991241 225.990388 
L 83.786481 226.078243 
L 83.589911 225.895796 
L 83.40105 226.048713 
L 83.219453 225.876901 
L 83.044708 226.089663 
L 82.876435 225.913317 
L 82.714282 226.023138 
L 82.55792 225.90283 
L 82.407044 225.904536 
L 82.26137 226.077913 
L 82.120635 225.999698 
L 81.984591 225.889104 
" clip-path="url(#p573b525638)" style="fill: none; stroke: #191970; stroke-width: 2; stroke-linecap: square"/>
   </g>
   <g id="patch_3">
    <path d="M 72.754 233.07 
L 72.754 79.56 
" style="fill: none; stroke: #000000; stroke-width: 0.8; stroke-linejoin: miter; stroke-linecap: square"/>
   </g>
   <g id="patch_4">
    <path d="M 72.754 233.07 
L 275.827 233.07 
" style="fill: none; stroke: #000000; stroke-width: 0.8; stroke-linejoin: miter; stroke-linecap: square"/>
   </g>
   <g id="text_5">
    <!-- 1 CONTROL DL -->
    <g transform="translate(121.911906 47.284625) scale(0.14 -0.14)">
     <defs>
      <path id="DejaVuSans-20" transform="scale(0.015625)"/>
      <path id="DejaVuSans-43" d="M 4122 4306 
L 4122 3641 
Q 3803 3938 3442 4084 
Q 3081 4231 2675 4231 
Q 1875 4231 1450 3742 
Q 1025 3253 1025 2328 
Q 1025 1406 1450 917 
Q 1875 428 2675 428 
Q 3081 428 3442 575 
Q 3803 722 4122 1019 
L 4122 359 
Q 3791 134 3420 21 
Q 3050 -91 2638 -91 
Q 1578 -91 968 557 
Q 359 1206 359 2328 
Q 359 3453 968 4101 
Q 1578 4750 2638 4750 
Q 3056 4750 3426 4639 
Q 3797 4528 4122 4306 
z
" transform="scale(0.015625)"/>
      <path id="DejaVuSans-4f" d="M 2522 4238 
Q 1834 4238 1429 3725 
Q 1025 3213 1025 2328 
Q 1025 1447 1429 934 
Q 1834 422 2522 422 
Q 3209 422 3611 934 
Q 4013 1447 4013 2328 
Q 4013 3213 3611 3725 
Q 3209 4238 2522 4238 
z
M 2522 4750 
Q 3503 4750 4090 4092 
Q 4678 3434 4678 2328 
Q 4678 1225 4090 567 
Q 3503 -91 2522 -91 
Q 1538 -91 948 565 
Q 359 1222 359 2328 
Q 359 3434 948 4092 
Q 1538 4750 2522 4750 
z
" transform="scale(0.015625)"/>
      <path id="DejaVuSans-4e" d="M 628 4666 
L 1478 4666 
L 3547 763 
L 3547 4666 
L 4159 4666 
L 4159 0 
L 3309 0 
L 1241 3903 
L 1241 0 
L 628 0 
L 628 4666 
z
" transform="scale(0.015625)"/>
      <path id="DejaVuSans-54" d="M -19 4666 
L 3928 4666 
L 3928 4134 
L 2272 4134 
L 2272 0 
L 1638 0 
L 1638 4134 
L -19 4134 
L -19 4666 
z
" transform="scale(0.015625)"/>
      <path id="DejaVuSans-52" d="M 2841 2188 
Q 3044 2119 3236 1894 
Q 3428 1669 3622 1275 
L 4263 0 
L 3584 0 
L 2988 1197 
Q 2756 1666 2539 1819 
Q 2322 1972 1947 1972 
L 1259 1972 
L 1259 0 
L 628 0 
L 628 4666 
L 2053 4666 
Q 2853 4666 3247 4331 
Q 3641 3997 3641 3322 
Q 3641 2881 3436 2590 
Q 3231 2300 2841 2188 
z
M 1259 4147 
L 1259 2491 
L 2053 2491 
Q 2509 2491 2742 2702 
Q 2975 2913 2975 3322 
Q 2975 3731 2742 3939 
Q 2509 4147 2053 4147 
L 1259 4147 
z
" transform="scale(0.015625)"/>
      <path id="DejaVuSans-4c" d="M 628 4666 
L 1259 4666 
L 1259 531 
L 3531 531 
L 3531 0 
L 628 0 
L 628 4666 
z
" transform="scale(0.015625)"/>
      <path id="DejaVuSans-44" d="M 1259 4147 
L 1259 519 
L 2022 519 
Q 2988 519 3436 956 
Q 3884 1394 3884 2338 
Q 3884 3275 3436 3711 
Q 2988 4147 2022 4147 
L 1259 4147 
z
M 628 4666 
L 1925 4666 
Q 3281 4666 3915 4102 
Q 4550 3538 4550 2338 
Q 4550 1131 3912 565 
Q 3275 0 1925 0 
L 628 0 
L 628 4666 
z
" transform="scale(0.015625)"/>
     </defs>
     <use xlink:href="#DejaVuSans-31"/>
     <use xlink:href="#DejaVuSans-20" x="63.623047"/>
     <use xlink:href="#DejaVuSans-43" x="95.410156"/>
     <use xlink:href="#DejaVuSans-4f" x="165.234375"/>
     <use xlink:href="#DejaVuSans-4e" x="243.945312"/>
     <use xlink:href="#DejaVuSans-54" x="318.75"/>
     <use xlink:href="#DejaVuSans-52" x="379.833984"/>
     <use xlink:href="#DejaVuSans-4f" x="449.316406"/>
     <use xlink:href="#DejaVuSans-4c" x="528.027344"/>
     <use xlink:href="#DejaVuSans-20" x="583.740234"/>
     <use xlink:href="#DejaVuSans-44" x="615.527344"/>
     <use xlink:href="#DejaVuSans-4c" x="692.529297"/>
    </g>
    <!-- (PEAK ON 24.00 HOURS) -->
    <g transform="translate(88.139094 62.961563) scale(0.14 -0.14)">
     <defs>
      <path id="DejaVuSans-28" d="M 1984 4856 
Q 1566 4138 1362 3434 
Q 1159 2731 1159 2009 
Q 1159 1288 1364 580 
Q 1569 -128 1984 -844 
L 1484 -844 
Q 1016 -109 783 600 
Q 550 1309 550 2009 
Q 550 2706 781 3412 
Q 1013 4119 1484 4856 
L 1984 4856 
z
" transform="scale(0.015625)"/>
      <path id="DejaVuSans-50" d="M 1259 4147 
L 1259 2394 
L 2053 2394 
Q 2494 2394 2734 2622 
Q 2975 2850 2975 3272 
Q 2975 3691 2734 3919 
Q 2494 4147 2053 4147 
L 1259 4147 
z
M 628 4666 
L 2053 4666 
Q 2838 4666 3239 4311 
Q 3641 3956 3641 3272 
Q 3641 2581 3239 2228 
Q 2838 1875 2053 1875 
L 1259 1875 
L 1259 0 
L 628 0 
L 628 4666 
z
" transform="scale(0.015625)"/>
      <path id="DejaVuSans-45" d="M 628 4666 
L 3578 4666 
L 3578 4134 
L 1259 4134 
L 1259 2753 
L 3481 2753 
L 3481 2222 
L 1259 2222 
L 1259 531 
L 3634 531 
L 3634 0 
L 628 0 
L 628 4666 
z
" transform="scale(0.015625)"/>
      <path id="DejaVuSans-41" d="M 2188 4044 
L 1331 1722 
L 3047 1722 
L 2188 4044 
z
M 1831 4666 
L 2547 4666 
L 4325 0 
L 3669 0 
L 3244 1197 
L 1141 1197 
L 716 0 
L 50 0 
L 1831 4666 
z
" transform="scale(0.015625)"/>
      <path id="DejaVuSans-4b" d="M 628 4666 
L 1259 4666 
L 1259 2694 
L 3353 4666 
L 4166 4666 
L 1850 2491 
L 4331 0 
L 3500 0 
L 1259 2247 
L 1259 0 
L 628 0 
L 628 4666 
z
" transform="scale(0.015625)"/>
      <path id="DejaVuSans-34" d="M 2419 4116 
L 825 1625 
L 2419 1625 
L 2419 4116 
z
M 2253 4666 
L 3047 4666 
L 3047 1625 
L 3713 1625 
L 3713 1100 
L 3047 1100 
L 3047 0 
L 2419 0 
L 2419 1100 
L 313 1100 
L 313 1709 
L 2253 4666 
z
" transform="scale(0.015625)"/>
      <path id="DejaVuSans-2e" d="M 684 794 
L 1344 794 
L 1344 0 
L 684 0 
L 684 794 
z
" transform="scale(0.015625)"/>
      <path id="DejaVuSans-48" d="M 628 4666 
L 1259 4666 
L 1259 2753 
L 3553 2753 
L 3553 4666 
L 4184 4666 
L 4184 0 
L 3553 0 
L 3553 2222 
L 1259 2222 
L 1259 0 
L 628 0 
L 628 4666 
z
" transform="scale(0.015625)"/>
      <path id="DejaVuSans-55" d="M 556 4666 
L 1191 4666 
L 1191 1831 
Q 1191 1081 1462 751 
Q 1734 422 2344 422 
Q 2950 422 3222 751 
Q 3494 1081 3494 1831 
L 3494 4666 
L 4128 4666 
L 4128 1753 
Q 4128 841 3676 375 
Q 3225 -91 2344 -91 
Q 1459 -91 1007 375 
Q 556 841 556 1753 
L 556 4666 
z
" transform="scale(0.015625)"/>
      <path id="DejaVuSans-53" d="M 3425 4513 
L 3425 3897 
Q 3066 4069 2747 4153 
Q 2428 4238 2131 4238 
Q 1616 4238 1336 4038 
Q 1056 3838 1056 3469 
Q 1056 3159 1242 3001 
Q 1428 2844 1947 2747 
L 2328 2669 
Q 3034 2534 3370 2195 
Q 3706 1856 3706 1288 
Q 3706 609 3251 259 
Q 2797 -91 1919 -91 
Q 1588 -91 1214 -16 
Q 841 59 441 206 
L 441 856 
Q 825 641 1194 531 
Q 1563 422 1919 422 
Q 2459 422 2753 634 
Q 3047 847 3047 1241 
Q 3047 1584 2836 1778 
Q 2625 1972 2144 2069 
L 1759 2144 
Q 1053 2284 737 2584 
Q 422 2884 422 3419 
Q 422 4038 858 4394 
Q 1294 4750 2059 4750 
Q 2388 4750 2728 4690 
Q 3069 4631 3425 4513 
z
" transform="scale(0.015625)"/>
      <path id="DejaVuSans-29" d="M 513 4856 
L 1013 4856 
Q 1481 4119 1714 3412 
Q 1947 2706 1947 2009 
Q 1947 1309 1714 600 
Q 1481 -109 1013 -844 
L 513 -844 
Q 928 -128 1133 580 
Q 1338 1288 1338 2009 
Q 1338 2731 1133 3434 
Q 928 4138 513 4856 
z
" transform="scale(0.015625)"/>
     </defs>
     <use xlink:href="#DejaVuSans-28"/>
     <use xlink:href="#DejaVuSans-50" x="39.013672"/>
     <use xlink:href="#DejaVuSans-45" x="99.316406"/>
     <use xlink:href="#DejaVuSans-41" x="162.5"/>
     <use xlink:href="#DejaVuSans-4b" x="230.908203"/>
     <use xlink:href="#DejaVuSans-20" x="296.484375"/>
     <use xlink:href="#DejaVuSans-4f" x="328.271484"/>
     <use xlink:href="#DejaVuSans-4e" x="406.982422"/>
     <use xlink:href="#DejaVuSans-20" x="481.787109"/>
     <use xlink:href="#DejaVuSans-32" x="513.574219"/>
     <use xlink:href="#DejaVuSans-34" x="577.197266"/>
     <use xlink:href="#DejaVuSans-2e" x="640.820312"/>
     <use xlink:href="#DejaVuSans-30" x="672.607422"/>
     <use xlink:href="#DejaVuSans-30" x="736.230469"/>
     <use xlink:href="#DejaVuSans-20" x="799.853516"/>
     <use xlink:href="#DejaVuSans-48" x="831.640625"/>
     <use xlink:href="#DejaVuSans-4f" x="906.835938"/>
     <use xlink:href="#DejaVuSans-55" x="985.546875"/>
     <use xlink:href="#DejaVuSans-52" x="1058.740234"/>
     <use xlink:href="#DejaVuSans-53" x="1128.222656"/>
     <use xlink:href="#DejaVuSans-29" x="1191.699219"/>
    </g>
   </g>
  </g>
  <g id="axes_2">
   <g id="patch_5">
    <path d="M 290.127 233.07 
L 493.2 233.07 
L 493.2 79.56 
L 290.127 79.56 
z
" style="fill: #ffffff"/>
   </g>
   <g id="matplotlib.axis_3">
    <g id="xtick_4">
     <g id="line2d_9">
      <g>
       <use xlink:href="#mbf42547367" x="291.33099" y="233.07" style="stroke: #000000; stroke-width: 0.8"/>
      </g>
     </g>
    </g>
    <g id="xtick_5">
     <g id="line2d_10">
      <g>
       <use xlink:href="#mbf42547367" x="371.596998" y="233.07" style="stroke: #000000; stroke-width: 0.8"/>
      </g>
     </g>
    </g>
    <g id="xtick_6">
     <g id="line2d_11">
      <g>
       <use xlink:href="#mbf42547367" x="451.863006" y="233.07" style="stroke: #000000; stroke-width: 0.8"/>
      </g>
     </g>
    </g>
   </g>
   <g id="matplotlib.axis_4">
    <g id="ytick_4">
     <g id="line2d_12">
      <g>
       <use xlink:href="#mcb64b8edd6" x="290.127" y="226.092284" style="stroke: #000000; stroke-width: 0.8"/>
      </g>
     </g>
    </g>
    <g id="ytick_5">
     <g id="line2d_13">
      <g>
       <use xlink:href="#mcb64b8edd6" x="290.127" y="168.67017" style="stroke: #000000; stroke-width: 0.8"/>
      </g>
     </g>
    </g>
    <g id="ytick_6">
     <g id="line2d_14">
      <g>
       <use xlink:href="#mcb64b8edd6" x="290.127" y="111.248056" style="stroke: #000000; stroke-width: 0.8"/>
      </g>
     </g>
    </g>
   </g>
   <g id="line2d_15">
    <path d="M 299.357591 219.202969 
L 483.969409 219.202969 
" clip-path="url(#pc6721eb8a8)" style="fill: none; stroke-dasharray: 7.4,3.2; stroke-dashoffset: 0; stroke: #696969; stroke-width: 2"/>
   </g>
   <g id="line2d_16">
    <path d="M 483.969409 222.843324 
L 469.151069 225.882985 
L 456.449635 225.593861 
L 445.441725 225.929895 
L 435.809804 223.00089 
L 427.311051 224.971314 
L 419.756603 222.635823 
L 412.99736 224.099103 
L 406.914042 224.060945 
L 401.410087 224.896209 
L 396.406491 224.617814 
L 391.837991 218.721086 
L 387.6502 130.115732 
L 383.797431 223.994044 
L 380.24103 219.319296 
L 376.948065 224.967124 
L 373.890313 225.814844 
L 371.043439 225.670691 
L 368.386358 223.534784 
L 365.900701 225.420353 
L 363.570397 225.4514 
L 361.381324 225.109646 
L 359.32102 224.407659 
L 357.378448 225.810045 
L 353.808315 224.309883 
L 352.164175 224.430386 
L 350.60435 225.354322 
L 349.122516 224.534546 
L 347.712966 225.161812 
L 346.370538 223.621301 
L 345.090549 224.298305 
L 343.868741 224.590528 
L 342.701235 221.99914 
L 341.584491 224.802781 
L 340.515267 215.16649 
L 339.490595 169.170933 
L 337.564211 221.839914 
L 336.657677 223.983432 
L 335.78601 223.296119 
L 334.947236 223.094986 
L 334.139528 225.736614 
L 333.361191 223.961938 
L 332.610651 223.879597 
L 331.886447 225.911594 
L 331.187215 223.641334 
L 330.511686 224.047843 
L 329.858674 225.971718 
L 329.227073 225.840744 
L 328.615845 224.498616 
L 328.024022 225.969842 
L 327.450694 225.966816 
L 326.356157 222.772767 
L 325.833394 224.818301 
L 325.326005 225.740597 
L 324.833324 223.604191 
L 324.354719 226.004816 
L 323.889596 222.816605 
L 323.437393 193.594836 
L 322.569653 222.934321 
L 322.153137 225.364565 
L 321.747583 225.283669 
L 321.352562 225.388992 
L 320.96767 224.51226 
L 320.592522 224.096898 
L 319.870015 225.56839 
L 319.521978 226.043586 
L 318.527002 226.015615 
L 318.21077 225.880257 
L 317.901807 224.237233 
L 317.599865 224.224168 
L 317.30471 225.462677 
L 317.016113 226.056689 
L 316.733859 225.885554 
L 316.18756 222.011262 
L 315.923129 225.9539 
L 315.664264 224.926467 
L 315.410792 221.27303 
L 315.162547 210.04449 
L 314.919368 223.94481 
L 314.4476 225.752364 
L 314.218723 225.60112 
L 313.994334 226.058365 
L 313.774301 226.086311 
L 313.5585 225.660579 
L 313.346809 223.93449 
L 313.139113 225.668911 
L 312.935299 225.554253 
L 312.735259 226.014429 
L 312.538889 225.863035 
L 311.970821 225.983204 
L 311.788167 225.811768 
L 311.608718 225.854304 
L 311.43239 226.046824 
L 311.259102 225.822425 
L 311.088777 226.030571 
L 310.921338 225.839782 
L 310.756713 225.421513 
L 310.594832 225.425392 
L 310.124982 225.997264 
L 309.973418 225.700201 
L 309.250843 226.027455 
L 309.112998 225.976614 
L 308.977258 225.159268 
L 308.7119 225.975453 
L 308.454405 226.081445 
L 308.328498 225.719922 
L 308.204428 226.086632 
L 307.842855 225.866488 
L 307.610293 226.041757 
L 307.496452 225.850309 
L 307.384192 226.05061 
L 307.27348 223.718886 
L 307.164285 226.013085 
L 307.056575 226.003201 
L 306.950321 226.034848 
L 306.742064 225.900642 
L 306.539286 226.050219 
L 306.244932 226.074726 
L 305.869739 226.067373 
L 305.689133 226.019898 
L 305.426484 226.086756 
L 304.77088 226.090532 
L 300.256322 226.08458 
L 300.221994 225.919669 
L 300.154124 226.064053 
L 300.021445 226.013535 
L 299.988897 225.811793 
L 299.924526 226.073804 
L 299.798613 226.026534 
L 299.73703 226.067229 
L 299.616514 225.884782 
L 299.470642 226.08575 
L 299.357591 226.07744 
L 299.357591 226.07744 
" clip-path="url(#pc6721eb8a8)" style="fill: none; stroke: #191970; stroke-width: 2; stroke-linecap: square"/>
   </g>
   <g id="patch_6">
    <path d="M 290.127 233.07 
L 290.127 79.56 
" style="fill: none; stroke: #000000; stroke-width: 0.8; stroke-linejoin: miter; stroke-linecap: square"/>
   </g>
   <g id="patch_7">
    <path d="M 290.127 233.07 
L 493.2 233.07 
" style="fill: none; stroke: #000000; stroke-width: 0.8; stroke-linejoin: miter; stroke-linecap: square"/>
   </g>
   <g id="text_6">
    <!-- 2 INDUCTION DD -->
    <g transform="translate(332.18975 57.883063) scale(0.14 -0.14)">
     <defs>
      <path id="DejaVuSans-49" d="M 628 4666 
L 1259 4666 
L 1259 0 
L 628 0 
L 628 4666 
z
" transform="scale(0.015625)"/>
     </defs>
     <use xlink:href="#DejaVuSans-32"/>
     <use xlink:href="#DejaVuSans-20" x="63.623047"/>
     <use xlink:href="#DejaVuSans-49" x="95.410156"/>
     <use xlink:href="#DejaVuSans-4e" x="124.902344"/>
     <use xlink:href="#DejaVuSans-44" x="199.707031"/>
     <use xlink:href="#DejaVuSans-55" x="276.708984"/>
     <use xlink:href="#DejaVuSans-43" x="349.902344"/>
     <use xlink:href="#DejaVuSans-54" x="419.726562"/>
     <use xlink:href="#DejaVuSans-49" x="480.810547"/>
     <use xlink:href="#DejaVuSans-4f" x="510.302734"/>
     <use xlink:href="#DejaVuSans-4e" x="589.013672"/>
     <use xlink:href="#DejaVuSans-20" x="663.818359"/>
     <use xlink:href="#DejaVuSans-44" x="695.605469"/>
     <use xlink:href="#DejaVuSans-44" x="772.607422"/>
    </g>
    <!-- (PEAK ON 24.00 HOURS) -->
    <g transform="translate(305.512094 73.56) scale(0.14 -0.14)">
     <use xlink:href="#DejaVuSans-28"/>
     <use xlink:href="#DejaVuSans-50" x="39.013672"/>
     <use xlink:href="#DejaVuSans-45" x="99.316406"/>
     <use xlink:href="#DejaVuSans-41" x="162.5"/>
     <use xlink:href="#DejaVuSans-4b" x="230.908203"/>
     <use xlink:href="#DejaVuSans-20" x="296.484375"/>
     <use xlink:href="#DejaVuSans-4f" x="328.271484"/>
     <use xlink:href="#DejaVuSans-4e" x="406.982422"/>
     <use xlink:href="#DejaVuSans-20" x="481.787109"/>
     <use xlink:href="#DejaVuSans-32" x="513.574219"/>
     <use xlink:href="#DejaVuSans-34" x="577.197266"/>
     <use xlink:href="#DejaVuSans-2e" x="640.820312"/>
     <use xlink:href="#DejaVuSans-30" x="672.607422"/>
     <use xlink:href="#DejaVuSans-30" x="736.230469"/>
     <use xlink:href="#DejaVuSans-20" x="799.853516"/>
     <use xlink:href="#DejaVuSans-48" x="831.640625"/>
     <use xlink:href="#DejaVuSans-4f" x="906.835938"/>
     <use xlink:href="#DejaVuSans-55" x="985.546875"/>
     <use xlink:href="#DejaVuSans-52" x="1058.740234"/>
     <use xlink:href="#DejaVuSans-53" x="1128.222656"/>
     <use xlink:href="#DejaVuSans-29" x="1191.699219"/>
    </g>
   </g>
  </g>
  <g id="axes_3">
   <g id="patch_8">
    <path d="M 72.754 444.44 
L 275.827 444.44 
L 275.827 290.93 
L 72.754 290.93 
z
" style="fill: #ffffff"/>
   </g>
   <g id="matplotlib.axis_5">
    <g id="xtick_7">
     <g id="line2d_17">
      <g>
       <use xlink:href="#mbf42547367" x="73.95799" y="444.44" style="stroke: #000000; stroke-width: 0.8"/>
      </g>
     </g>
     <g id="text_7">
      <!-- 0 -->
      <g transform="translate(69.50424 462.077812) scale(0.14 -0.14)">
       <use xlink:href="#DejaVuSans-30"/>
      </g>
     </g>
    </g>
    <g id="xtick_8">
     <g id="line2d_18">
      <g>
       <use xlink:href="#mbf42547367" x="154.223998" y="444.44" style="stroke: #000000; stroke-width: 0.8"/>
      </g>
     </g>
     <g id="text_8">
      <!-- 20 -->
      <g transform="translate(145.316498 462.077812) scale(0.14 -0.14)">
       <use xlink:href="#DejaVuSans-32"/>
       <use xlink:href="#DejaVuSans-30" x="63.623047"/>
      </g>
     </g>
    </g>
    <g id="xtick_9">
     <g id="line2d_19">
      <g>
       <use xlink:href="#mbf42547367" x="234.490006" y="444.44" style="stroke: #000000; stroke-width: 0.8"/>
      </g>
     </g>
     <g id="text_9">
      <!-- 40 -->
      <g transform="translate(225.582506 462.077812) scale(0.14 -0.14)">
       <use xlink:href="#DejaVuSans-34"/>
       <use xlink:href="#DejaVuSans-30" x="63.623047"/>
      </g>
     </g>
    </g>
   </g>
   <g id="matplotlib.axis_6">
    <g id="ytick_7">
     <g id="line2d_20">
      <g>
       <use xlink:href="#mcb64b8edd6" x="72.754" y="437.462284" style="stroke: #000000; stroke-width: 0.8"/>
      </g>
     </g>
     <g id="text_10">
      <!-- 0 -->
      <g transform="translate(56.8465 442.781191) scale(0.14 -0.14)">
       <use xlink:href="#DejaVuSans-30"/>
      </g>
     </g>
    </g>
    <g id="ytick_8">
     <g id="line2d_21">
      <g>
       <use xlink:href="#mcb64b8edd6" x="72.754" y="380.04017" style="stroke: #000000; stroke-width: 0.8"/>
      </g>
     </g>
     <g id="text_11">
      <!-- 1 -->
      <g transform="translate(56.8465 385.359076) scale(0.14 -0.14)">
       <use xlink:href="#DejaVuSans-31"/>
      </g>
     </g>
    </g>
    <g id="ytick_9">
     <g id="line2d_22">
      <g>
       <use xlink:href="#mcb64b8edd6" x="72.754" y="322.618056" style="stroke: #000000; stroke-width: 0.8"/>
      </g>
     </g>
     <g id="text_12">
      <!-- 2 -->
      <g transform="translate(56.8465 327.936962) scale(0.14 -0.14)">
       <use xlink:href="#DejaVuSans-32"/>
      </g>
     </g>
    </g>
    <g id="text_13">
     <!-- 1e7 -->
     <g transform="translate(72.754 287.93) scale(0.1 -0.1)">
      <use xlink:href="#DejaVuSans-31"/>
      <use xlink:href="#DejaVuSans-65" x="63.623047"/>
      <use xlink:href="#DejaVuSans-37" x="125.146484"/>
     </g>
    </g>
   </g>
   <g id="line2d_23">
    <path d="M 81.984591 430.944982 
L 266.596409 430.944982 
" clip-path="url(#pf45d114835)" style="fill: none; stroke-dasharray: 7.4,3.2; stroke-dashoffset: 0; stroke: #696969; stroke-width: 2"/>
   </g>
   <g id="line2d_24">
    <path d="M 266.596409 437.162468 
L 249.083826 435.554745 
L 234.490006 436.550446 
L 222.141389 435.65036 
L 211.556861 436.52046 
L 202.383603 435.448292 
L 194.357002 437.35676 
L 187.274707 437.071397 
L 180.979334 435.381396 
L 175.346632 434.192217 
L 170.2772 419.037428 
L 165.690571 433.725728 
L 161.520908 437.250608 
L 157.713824 436.199357 
L 154.223998 436.152167 
L 151.013358 436.96292 
L 148.04969 435.831795 
L 145.305553 435.255205 
L 142.757425 436.475969 
L 140.385031 436.519409 
L 138.170796 436.075966 
L 136.099416 437.191148 
L 134.157496 437.319823 
L 132.333269 436.712987 
L 130.616349 437.222129 
L 128.997538 435.793415 
L 127.468662 436.460701 
L 126.022428 435.629197 
L 124.652311 429.342338 
L 123.352457 429.638329 
L 122.117595 307.093326 
L 120.94297 404.254729 
L 119.82428 433.713768 
L 118.757622 433.174704 
L 117.739449 436.740995 
L 116.766528 434.145685 
L 114.944888 437.10311 
L 114.090994 435.14682 
L 113.271953 436.333831 
L 112.485674 437.192181 
L 111.730229 437.420515 
L 111.00384 434.199725 
L 110.304862 437.081158 
L 109.631771 435.882934 
L 108.983157 437.258135 
L 108.357708 436.154552 
L 107.754204 436.707536 
L 107.171511 436.846876 
L 106.60857 435.617359 
L 106.064393 415.444295 
L 105.538059 419.941639 
L 105.028703 436.404351 
L 104.535517 436.832624 
L 104.057743 435.567238 
L 103.59467 437.007098 
L 103.145629 437.241441 
L 102.709993 436.680581 
L 102.287169 437.160562 
L 101.876602 437.332919 
L 101.477764 437.289071 
L 101.090162 437.459155 
L 100.713326 437.164548 
L 100.346815 435.828172 
L 99.990209 437.215431 
L 99.643113 436.695706 
L 98.975967 437.38903 
L 98.655223 436.889195 
L 98.3426 437.346696 
L 97.740511 429.199281 
L 97.45048 435.482392 
L 97.167438 437.179689 
L 96.891135 437.04869 
L 96.621334 437.430228 
L 96.357806 437.257311 
L 96.100337 437.230118 
L 95.602756 436.35117 
L 95.127047 437.41773 
L 94.671799 436.950302 
L 94.451439 437.336858 
L 94.235718 437.364485 
L 94.024492 437.018209 
L 93.817621 437.401289 
L 93.614972 436.966697 
L 93.416416 437.377139 
L 93.221832 437.054678 
L 93.031101 434.18793 
L 92.84411 436.975746 
L 92.660749 437.32985 
L 92.480915 437.308193 
L 92.304506 437.114086 
L 92.131426 437.412963 
L 91.961581 437.178863 
L 91.794881 437.456638 
L 91.470574 437.404539 
L 91.157849 437.357594 
L 91.005638 437.120577 
L 90.856097 437.394887 
L 90.422812 437.446732 
L 90.28328 437.278193 
L 90.011192 437.434909 
L 89.878521 435.993188 
L 89.748024 437.400501 
L 89.61965 437.108592 
L 89.369064 437.42377 
L 87.917296 437.447264 
L 84.903355 437.456664 
L 83.887806 437.436178 
L 83.638313 437.428672 
L 83.589911 437.35898 
L 83.541991 437.454385 
L 82.794615 437.412668 
L 82.754265 437.366639 
L 82.714282 437.449438 
L 82.635396 437.431231 
L 82.519698 437.246387 
L 82.370148 437.422042 
L 82.225733 437.446298 
L 82.190401 437.35152 
L 82.120635 437.407922 
L 81.984591 437.458758 
L 81.984591 437.458758 
" clip-path="url(#pf45d114835)" style="fill: none; stroke: #191970; stroke-width: 2; stroke-linecap: square"/>
   </g>
   <g id="patch_9">
    <path d="M 72.754 444.44 
L 72.754 290.93 
" style="fill: none; stroke: #000000; stroke-width: 0.8; stroke-linejoin: miter; stroke-linecap: square"/>
   </g>
   <g id="patch_10">
    <path d="M 72.754 444.44 
L 275.827 444.44 
" style="fill: none; stroke: #000000; stroke-width: 0.8; stroke-linejoin: miter; stroke-linecap: square"/>
   </g>
   <g id="text_14">
    <!-- 3 HYPO DD -->
    <g transform="translate(135.336594 258.654625) scale(0.14 -0.14)">
     <defs>
      <path id="DejaVuSans-33" d="M 2597 2516 
Q 3050 2419 3304 2112 
Q 3559 1806 3559 1356 
Q 3559 666 3084 287 
Q 2609 -91 1734 -91 
Q 1441 -91 1130 -33 
Q 819 25 488 141 
L 488 750 
Q 750 597 1062 519 
Q 1375 441 1716 441 
Q 2309 441 2620 675 
Q 2931 909 2931 1356 
Q 2931 1769 2642 2001 
Q 2353 2234 1838 2234 
L 1294 2234 
L 1294 2753 
L 1863 2753 
Q 2328 2753 2575 2939 
Q 2822 3125 2822 3475 
Q 2822 3834 2567 4026 
Q 2313 4219 1838 4219 
Q 1578 4219 1281 4162 
Q 984 4106 628 3988 
L 628 4550 
Q 988 4650 1302 4700 
Q 1616 4750 1894 4750 
Q 2613 4750 3031 4423 
Q 3450 4097 3450 3541 
Q 3450 3153 3228 2886 
Q 3006 2619 2597 2516 
z
" transform="scale(0.015625)"/>
      <path id="DejaVuSans-59" d="M -13 4666 
L 666 4666 
L 1959 2747 
L 3244 4666 
L 3922 4666 
L 2272 2222 
L 2272 0 
L 1638 0 
L 1638 2222 
L -13 4666 
z
" transform="scale(0.015625)"/>
     </defs>
     <use xlink:href="#DejaVuSans-33"/>
     <use xlink:href="#DejaVuSans-20" x="63.623047"/>
     <use xlink:href="#DejaVuSans-48" x="95.410156"/>
     <use xlink:href="#DejaVuSans-59" x="170.605469"/>
     <use xlink:href="#DejaVuSans-50" x="231.689453"/>
     <use xlink:href="#DejaVuSans-4f" x="291.992188"/>
     <use xlink:href="#DejaVuSans-20" x="370.703125"/>
     <use xlink:href="#DejaVuSans-44" x="402.490234"/>
     <use xlink:href="#DejaVuSans-44" x="479.492188"/>
    </g>
    <!-- (PEAK ON 12.00 HOURS) -->
    <g transform="translate(88.139094 274.331563) scale(0.14 -0.14)">
     <use xlink:href="#DejaVuSans-28"/>
     <use xlink:href="#DejaVuSans-50" x="39.013672"/>
     <use xlink:href="#DejaVuSans-45" x="99.316406"/>
     <use xlink:href="#DejaVuSans-41" x="162.5"/>
     <use xlink:href="#DejaVuSans-4b" x="230.908203"/>
     <use xlink:href="#DejaVuSans-20" x="296.484375"/>
     <use xlink:href="#DejaVuSans-4f" x="328.271484"/>
     <use xlink:href="#DejaVuSans-4e" x="406.982422"/>
     <use xlink:href="#DejaVuSans-20" x="481.787109"/>
     <use xlink:href="#DejaVuSans-31" x="513.574219"/>
     <use xlink:href="#DejaVuSans-32" x="577.197266"/>
     <use xlink:href="#DejaVuSans-2e" x="640.820312"/>
     <use xlink:href="#DejaVuSans-30" x="672.607422"/>
     <use xlink:href="#DejaVuSans-30" x="736.230469"/>
     <use xlink:href="#DejaVuSans-20" x="799.853516"/>
     <use xlink:href="#DejaVuSans-48" x="831.640625"/>
     <use xlink:href="#DejaVuSans-4f" x="906.835938"/>
     <use xlink:href="#DejaVuSans-55" x="985.546875"/>
     <use xlink:href="#DejaVuSans-52" x="1058.740234"/>
     <use xlink:href="#DejaVuSans-53" x="1128.222656"/>
     <use xlink:href="#DejaVuSans-29" x="1191.699219"/>
    </g>
   </g>
  </g>
  <g id="axes_4">
   <g id="patch_11">
    <path d="M 290.127 444.44 
L 493.2 444.44 
L 493.2 290.93 
L 290.127 290.93 
z
" style="fill: #ffffff"/>
   </g>
   <g id="matplotlib.axis_7">
    <g id="xtick_10">
     <g id="line2d_25">
      <g>
       <use xlink:href="#mbf42547367" x="291.33099" y="444.44" style="stroke: #000000; stroke-width: 0.8"/>
      </g>
     </g>
     <g id="text_15">
      <!-- 0 -->
      <g transform="translate(286.87724 462.077812) scale(0.14 -0.14)">
       <use xlink:href="#DejaVuSans-30"/>
      </g>
     </g>
    </g>
    <g id="xtick_11">
     <g id="line2d_26">
      <g>
       <use xlink:href="#mbf42547367" x="371.596998" y="444.44" style="stroke: #000000; stroke-width: 0.8"/>
      </g>
     </g>
     <g id="text_16">
      <!-- 20 -->
      <g transform="translate(362.689498 462.077812) scale(0.14 -0.14)">
       <use xlink:href="#DejaVuSans-32"/>
       <use xlink:href="#DejaVuSans-30" x="63.623047"/>
      </g>
     </g>
    </g>
    <g id="xtick_12">
     <g id="line2d_27">
      <g>
       <use xlink:href="#mbf42547367" x="451.863006" y="444.44" style="stroke: #000000; stroke-width: 0.8"/>
      </g>
     </g>
     <g id="text_17">
      <!-- 40 -->
      <g transform="translate(442.955506 462.077812) scale(0.14 -0.14)">
       <use xlink:href="#DejaVuSans-34"/>
       <use xlink:href="#DejaVuSans-30" x="63.623047"/>
      </g>
     </g>
    </g>
   </g>
   <g id="matplotlib.axis_8">
    <g id="ytick_10">
     <g id="line2d_28">
      <g>
       <use xlink:href="#mcb64b8edd6" x="290.127" y="437.462284" style="stroke: #000000; stroke-width: 0.8"/>
      </g>
     </g>
    </g>
    <g id="ytick_11">
     <g id="line2d_29">
      <g>
       <use xlink:href="#mcb64b8edd6" x="290.127" y="380.04017" style="stroke: #000000; stroke-width: 0.8"/>
      </g>
     </g>
    </g>
    <g id="ytick_12">
     <g id="line2d_30">
      <g>
       <use xlink:href="#mcb64b8edd6" x="290.127" y="322.618056" style="stroke: #000000; stroke-width: 0.8"/>
      </g>
     </g>
    </g>
   </g>
   <g id="line2d_31">
    <path d="M 299.357591 429.776287 
L 483.969409 429.776287 
" clip-path="url(#pbd0e8e31f6)" style="fill: none; stroke-dasharray: 7.4,3.2; stroke-dashoffset: 0; stroke: #696969; stroke-width: 2"/>
   </g>
   <g id="line2d_32">
    <path d="M 483.969409 435.733227 
L 451.863006 437.439155 
L 428.929861 437.401203 
L 411.730002 436.173423 
L 398.352334 431.324854 
L 387.6502 297.907727 
L 378.893908 435.342085 
L 371.596998 436.6286 
L 365.42269 437.305735 
L 360.130425 437.448545 
L 355.543796 436.65524 
L 351.530496 436.728125 
L 347.989349 436.710415 
L 344.841662 436.660967 
L 342.025311 437.168529 
L 339.490595 433.945226 
L 337.19728 436.89012 
L 335.112449 437.147247 
L 333.208907 437.461603 
L 331.463994 437.185942 
L 329.858674 437.216373 
L 328.37684 436.717701 
L 327.004771 435.505325 
L 325.730708 432.781525 
L 324.544511 435.350975 
L 323.437393 424.445837 
L 322.401703 437.109634 
L 321.430743 436.994975 
L 320.518629 436.700616 
L 319.660169 436.950758 
L 318.850764 436.335635 
L 318.086326 437.089043 
L 317.363209 435.362022 
L 316.678151 434.029129 
L 316.028223 436.062033 
L 315.410792 436.185098 
L 314.82348 436.327693 
L 314.264135 437.110995 
L 313.730806 436.40756 
L 313.22172 437.430739 
L 312.735259 437.197566 
L 312.269949 437.430429 
L 311.824439 437.321566 
L 311.397492 436.840801 
L 310.987972 436.257683 
L 310.594832 434.335857 
L 310.21711 437.027801 
L 309.853915 437.137562 
L 309.504426 437.244039 
L 309.167881 437.387079 
L 308.843574 437.460585 
L 308.530849 437.439722 
L 308.229097 437.395065 
L 307.93775 437.359456 
L 307.65628 436.84664 
L 307.384192 437.454072 
L 307.121024 437.373613 
L 306.866346 437.45945 
L 306.619754 437.369756 
L 306.380867 437.44141 
L 306.14933 437.42246 
L 305.92481 437.455402 
L 305.706992 437.448385 
L 305.49558 437.399121 
L 305.290296 437.455819 
L 305.090877 437.44492 
L 304.897076 437.404528 
L 304.708658 437.449755 
L 304.525402 437.457441 
L 304.3471 437.46008 
L 304.173551 437.443173 
L 304.00457 437.454595 
L 303.839978 437.457558 
L 303.679607 437.457806 
L 303.523295 437.458947 
L 303.370891 437.460509 
L 303.222251 437.460996 
L 303.077235 437.46218 
L 302.935714 437.460063 
L 302.797563 437.453104 
L 302.662662 437.454231 
L 302.530898 437.455035 
L 302.402164 437.453739 
L 302.276355 437.459872 
L 302.153373 437.459717 
L 302.033125 437.451308 
L 301.915519 437.459794 
L 301.800469 437.460546 
L 301.687894 437.426517 
L 301.577715 437.398722 
L 301.469854 437.459189 
L 301.364241 437.448774 
L 301.260806 437.423558 
L 301.159481 437.447309 
L 301.060203 437.423832 
L 300.962911 437.351752 
L 300.867546 437.445821 
L 300.77405 437.378456 
L 300.68237 437.432979 
L 300.592453 437.419881 
L 300.504248 437.417287 
L 300.417708 437.433625 
L 300.332785 437.397509 
L 300.249435 437.4167 
L 300.167615 437.442666 
L 300.087282 437.432682 
L 300.008396 437.365235 
L 299.93092 437.414535 
L 299.854814 437.451692 
L 299.780044 437.43161 
L 299.706574 437.454321 
L 299.63437 437.4532 
L 299.563401 437.439316 
L 299.493635 437.414031 
L 299.425041 437.223024 
L 299.357591 437.40423 
" clip-path="url(#pbd0e8e31f6)" style="fill: none; stroke: #191970; stroke-width: 2; stroke-linecap: square"/>
   </g>
   <g id="patch_12">
    <path d="M 290.127 444.44 
L 290.127 290.93 
" style="fill: none; stroke: #000000; stroke-width: 0.8; stroke-linejoin: miter; stroke-linecap: square"/>
   </g>
   <g id="patch_13">
    <path d="M 290.127 444.44 
L 493.2 444.44 
" style="fill: none; stroke: #000000; stroke-width: 0.8; stroke-linejoin: miter; stroke-linecap: square"/>
   </g>
   <g id="text_18">
    <!-- 4 HYPO DL -->
    <g transform="translate(354.199281 269.253062) scale(0.14 -0.14)">
     <use xlink:href="#DejaVuSans-34"/>
     <use xlink:href="#DejaVuSans-20" x="63.623047"/>
     <use xlink:href="#DejaVuSans-48" x="95.410156"/>
     <use xlink:href="#DejaVuSans-59" x="170.605469"/>
     <use xlink:href="#DejaVuSans-50" x="231.689453"/>
     <use xlink:href="#DejaVuSans-4f" x="291.992188"/>
     <use xlink:href="#DejaVuSans-20" x="370.703125"/>
     <use xlink:href="#DejaVuSans-44" x="402.490234"/>
     <use xlink:href="#DejaVuSans-4c" x="479.492188"/>
    </g>
    <!-- (PEAK ON 24.00 HOURS) -->
    <g transform="translate(305.512094 284.93) scale(0.14 -0.14)">
     <use xlink:href="#DejaVuSans-28"/>
     <use xlink:href="#DejaVuSans-50" x="39.013672"/>
     <use xlink:href="#DejaVuSans-45" x="99.316406"/>
     <use xlink:href="#DejaVuSans-41" x="162.5"/>
     <use xlink:href="#DejaVuSans-4b" x="230.908203"/>
     <use xlink:href="#DejaVuSans-20" x="296.484375"/>
     <use xlink:href="#DejaVuSans-4f" x="328.271484"/>
     <use xlink:href="#DejaVuSans-4e" x="406.982422"/>
     <use xlink:href="#DejaVuSans-20" x="481.787109"/>
     <use xlink:href="#DejaVuSans-32" x="513.574219"/>
     <use xlink:href="#DejaVuSans-34" x="577.197266"/>
     <use xlink:href="#DejaVuSans-2e" x="640.820312"/>
     <use xlink:href="#DejaVuSans-30" x="672.607422"/>
     <use xlink:href="#DejaVuSans-30" x="736.230469"/>
     <use xlink:href="#DejaVuSans-20" x="799.853516"/>
     <use xlink:href="#DejaVuSans-48" x="831.640625"/>
     <use xlink:href="#DejaVuSans-4f" x="906.835938"/>
     <use xlink:href="#DejaVuSans-55" x="985.546875"/>
     <use xlink:href="#DejaVuSans-52" x="1058.740234"/>
     <use xlink:href="#DejaVuSans-53" x="1128.222656"/>
     <use xlink:href="#DejaVuSans-29" x="1191.699219"/>
    </g>
   </g>
  </g>
  <g id="text_19">
   <!-- PSD $(COUNTS^{2}/HZ)$ -->
   <g transform="translate(25.236562 338.58) rotate(-90) scale(0.18 -0.18)">
    <defs>
     <path id="DejaVuSans-Oblique-43" d="M 4447 4306 
L 4319 3641 
Q 4019 3944 3683 4091 
Q 3347 4238 2956 4238 
Q 2422 4238 2017 3981 
Q 1613 3725 1319 3200 
Q 1131 2863 1032 2486 
Q 934 2109 934 1728 
Q 934 1091 1264 756 
Q 1594 422 2222 422 
Q 2656 422 3056 561 
Q 3456 700 3834 978 
L 3688 231 
Q 3316 72 2936 -9 
Q 2556 -91 2175 -91 
Q 1278 -91 773 396 
Q 269 884 269 1753 
Q 269 2309 461 2846 
Q 653 3384 1013 3828 
Q 1394 4300 1883 4525 
Q 2372 4750 3022 4750 
Q 3422 4750 3780 4639 
Q 4138 4528 4447 4306 
z
" transform="scale(0.015625)"/>
     <path id="DejaVuSans-Oblique-4f" d="M 2919 4238 
Q 2400 4238 2003 3986 
Q 1606 3734 1313 3219 
Q 1125 2891 1026 2522 
Q 928 2153 928 1778 
Q 928 1128 1239 775 
Q 1550 422 2119 422 
Q 2631 422 3032 676 
Q 3434 931 3719 1434 
Q 3909 1772 4009 2142 
Q 4109 2513 4109 2881 
Q 4109 3528 3796 3883 
Q 3484 4238 2919 4238 
z
M 2100 -91 
Q 1241 -91 748 418 
Q 256 928 256 1813 
Q 256 2319 448 2847 
Q 641 3375 978 3788 
Q 1375 4272 1862 4511 
Q 2350 4750 2938 4750 
Q 3794 4750 4287 4245 
Q 4781 3741 4781 2869 
Q 4781 2331 4593 1812 
Q 4406 1294 4056 872 
Q 3656 384 3173 146 
Q 2691 -91 2100 -91 
z
" transform="scale(0.015625)"/>
     <path id="DejaVuSans-Oblique-55" d="M 991 4666 
L 1625 4666 
L 1075 1831 
Q 1041 1641 1027 1517 
Q 1013 1394 1013 1300 
Q 1013 869 1253 645 
Q 1494 422 1959 422 
Q 2563 422 2898 753 
Q 3234 1084 3378 1831 
L 3928 4666 
L 4563 4666 
L 4000 1753 
Q 3816 809 3300 359 
Q 2784 -91 1888 -91 
Q 1188 -91 780 261 
Q 372 613 372 1216 
Q 372 1325 387 1461 
Q 403 1597 434 1753 
L 991 4666 
z
" transform="scale(0.015625)"/>
     <path id="DejaVuSans-Oblique-4e" d="M 1081 4666 
L 1931 4666 
L 3219 666 
L 4000 4666 
L 4616 4666 
L 3706 0 
L 2853 0 
L 1569 4025 
L 788 0 
L 172 0 
L 1081 4666 
z
" transform="scale(0.015625)"/>
     <path id="DejaVuSans-Oblique-54" d="M 378 4666 
L 4325 4666 
L 4225 4134 
L 2559 4134 
L 1759 0 
L 1125 0 
L 1925 4134 
L 275 4134 
L 378 4666 
z
" transform="scale(0.015625)"/>
     <path id="DejaVuSans-Oblique-53" d="M 3859 4513 
L 3738 3897 
Q 3422 4066 3111 4152 
Q 2800 4238 2509 4238 
Q 1944 4238 1609 3991 
Q 1275 3744 1275 3334 
Q 1275 3109 1398 2989 
Q 1522 2869 2034 2731 
L 2413 2638 
Q 3053 2472 3303 2217 
Q 3553 1963 3553 1503 
Q 3553 797 2998 353 
Q 2444 -91 1538 -91 
Q 1166 -91 791 -17 
Q 416 56 38 206 
L 166 856 
Q 513 641 861 531 
Q 1209 422 1556 422 
Q 2147 422 2503 684 
Q 2859 947 2859 1369 
Q 2859 1650 2717 1795 
Q 2575 1941 2106 2059 
L 1728 2156 
Q 1081 2325 845 2545 
Q 609 2766 609 3163 
Q 609 3859 1145 4304 
Q 1681 4750 2541 4750 
Q 2875 4750 3203 4690 
Q 3531 4631 3859 4513 
z
" transform="scale(0.015625)"/>
     <path id="DejaVuSans-2f" d="M 1625 4666 
L 2156 4666 
L 531 -594 
L 0 -594 
L 1625 4666 
z
" transform="scale(0.015625)"/>
     <path id="DejaVuSans-Oblique-48" d="M 1081 4666 
L 1716 4666 
L 1344 2753 
L 3634 2753 
L 4006 4666 
L 4641 4666 
L 3731 0 
L 3097 0 
L 3531 2222 
L 1241 2222 
L 806 0 
L 172 0 
L 1081 4666 
z
" transform="scale(0.015625)"/>
     <path id="DejaVuSans-Oblique-5a" d="M 838 4666 
L 4500 4666 
L 4409 4184 
L 794 531 
L 3769 531 
L 3669 0 
L -141 0 
L -50 481 
L 3566 4134 
L 738 4134 
L 838 4666 
z
" transform="scale(0.015625)"/>
    </defs>
    <use xlink:href="#DejaVuSans-50" transform="translate(0 0.765625)"/>
    <use xlink:href="#DejaVuSans-53" transform="translate(60.302734 0.765625)"/>
    <use xlink:href="#DejaVuSans-44" transform="translate(123.779297 0.765625)"/>
    <use xlink:href="#DejaVuSans-20" transform="translate(200.78125 0.765625)"/>
    <use xlink:href="#DejaVuSans-28" transform="translate(232.568359 0.765625)"/>
    <use xlink:href="#DejaVuSans-Oblique-43" transform="translate(271.582031 0.765625)"/>
    <use xlink:href="#DejaVuSans-Oblique-4f" transform="translate(341.40625 0.765625)"/>
    <use xlink:href="#DejaVuSans-Oblique-55" transform="translate(420.117188 0.765625)"/>
    <use xlink:href="#DejaVuSans-Oblique-4e" transform="translate(493.310547 0.765625)"/>
    <use xlink:href="#DejaVuSans-Oblique-54" transform="translate(568.115234 0.765625)"/>
    <use xlink:href="#DejaVuSans-Oblique-53" transform="translate(629.199219 0.765625)"/>
    <use xlink:href="#DejaVuSans-32" transform="translate(699.876302 39.046875) scale(0.7)"/>
    <use xlink:href="#DejaVuSans-2f" transform="translate(747.14681 0.765625)"/>
    <use xlink:href="#DejaVuSans-Oblique-48" transform="translate(779.088216 0.765625)"/>
    <use xlink:href="#DejaVuSans-Oblique-5a" transform="translate(854.283529 0.765625)"/>
    <use xlink:href="#DejaVuSans-29" transform="translate(922.789388 0.765625)"/>
   </g>
  </g>
  <g id="text_20">
   <!-- PERIOD (HOUR) -->
   <g transform="translate(181.386562 495.216563) scale(0.18 -0.18)">
    <use xlink:href="#DejaVuSans-50"/>
    <use xlink:href="#DejaVuSans-45" x="60.302734"/>
    <use xlink:href="#DejaVuSans-52" x="123.486328"/>
    <use xlink:href="#DejaVuSans-49" x="192.96875"/>
    <use xlink:href="#DejaVuSans-4f" x="222.460938"/>
    <use xlink:href="#DejaVuSans-44" x="301.171875"/>
    <use xlink:href="#DejaVuSans-20" x="378.173828"/>
    <use xlink:href="#DejaVuSans-28" x="409.960938"/>
    <use xlink:href="#DejaVuSans-48" x="448.974609"/>
    <use xlink:href="#DejaVuSans-4f" x="524.169922"/>
    <use xlink:href="#DejaVuSans-55" x="602.880859"/>
    <use xlink:href="#DejaVuSans-52" x="676.074219"/>
    <use xlink:href="#DejaVuSans-29" x="745.556641"/>
   </g>
  </g>
  <g id="text_21">
   <!-- PERIODOGRAM OF CONTINUOUS - ANIMAL 02 -->
   <g transform="translate(70.12125 22.2375) scale(0.16 -0.16)">
    <defs>
     <path id="DejaVuSans-47" d="M 3809 666 
L 3809 1919 
L 2778 1919 
L 2778 2438 
L 4434 2438 
L 4434 434 
Q 4069 175 3628 42 
Q 3188 -91 2688 -91 
Q 1594 -91 976 548 
Q 359 1188 359 2328 
Q 359 3472 976 4111 
Q 1594 4750 2688 4750 
Q 3144 4750 3555 4637 
Q 3966 4525 4313 4306 
L 4313 3634 
Q 3963 3931 3569 4081 
Q 3175 4231 2741 4231 
Q 1884 4231 1454 3753 
Q 1025 3275 1025 2328 
Q 1025 1384 1454 906 
Q 1884 428 2741 428 
Q 3075 428 3337 486 
Q 3600 544 3809 666 
z
" transform="scale(0.015625)"/>
     <path id="DejaVuSans-4d" d="M 628 4666 
L 1569 4666 
L 2759 1491 
L 3956 4666 
L 4897 4666 
L 4897 0 
L 4281 0 
L 4281 4097 
L 3078 897 
L 2444 897 
L 1241 4097 
L 1241 0 
L 628 0 
L 628 4666 
z
" transform="scale(0.015625)"/>
     <path id="DejaVuSans-46" d="M 628 4666 
L 3309 4666 
L 3309 4134 
L 1259 4134 
L 1259 2759 
L 3109 2759 
L 3109 2228 
L 1259 2228 
L 1259 0 
L 628 0 
L 628 4666 
z
" transform="scale(0.015625)"/>
     <path id="DejaVuSans-2d" d="M 313 2009 
L 1997 2009 
L 1997 1497 
L 313 1497 
L 313 2009 
z
" transform="scale(0.015625)"/>
    </defs>
    <use xlink:href="#DejaVuSans-50"/>
    <use xlink:href="#DejaVuSans-45" x="60.302734"/>
    <use xlink:href="#DejaVuSans-52" x="123.486328"/>
    <use xlink:href="#DejaVuSans-49" x="192.96875"/>
    <use xlink:href="#DejaVuSans-4f" x="222.460938"/>
    <use xlink:href="#DejaVuSans-44" x="301.171875"/>
    <use xlink:href="#DejaVuSans-4f" x="378.173828"/>
    <use xlink:href="#DejaVuSans-47" x="456.884766"/>
    <use xlink:href="#DejaVuSans-52" x="534.375"/>
    <use xlink:href="#DejaVuSans-41" x="599.857422"/>
    <use xlink:href="#DejaVuSans-4d" x="668.265625"/>
    <use xlink:href="#DejaVuSans-20" x="754.544922"/>
    <use xlink:href="#DejaVuSans-4f" x="786.332031"/>
    <use xlink:href="#DejaVuSans-46" x="865.042969"/>
    <use xlink:href="#DejaVuSans-20" x="922.5625"/>
    <use xlink:href="#DejaVuSans-43" x="954.349609"/>
    <use xlink:href="#DejaVuSans-4f" x="1024.173828"/>
    <use xlink:href="#DejaVuSans-4e" x="1102.884766"/>
    <use xlink:href="#DejaVuSans-54" x="1177.689453"/>
    <use xlink:href="#DejaVuSans-49" x="1238.773438"/>
    <use xlink:href="#DejaVuSans-4e" x="1268.265625"/>
    <use xlink:href="#DejaVuSans-55" x="1343.070312"/>
    <use xlink:href="#DejaVuSans-4f" x="1416.263672"/>
    <use xlink:href="#DejaVuSans-55" x="1494.974609"/>
    <use xlink:href="#DejaVuSans-53" x="1568.167969"/>
    <use xlink:href="#DejaVuSans-20" x="1631.644531"/>
    <use xlink:href="#DejaVuSans-2d" x="1663.431641"/>
    <use xlink:href="#DejaVuSans-20" x="1699.515625"/>
    <use xlink:href="#DejaVuSans-41" x="1731.302734"/>
    <use xlink:href="#DejaVuSans-4e" x="1799.710938"/>
    <use xlink:href="#DejaVuSans-49" x="1874.515625"/>
    <use xlink:href="#DejaVuSans-4d" x="1904.007812"/>
    <use xlink:href="#DejaVuSans-41" x="1990.287109"/>
    <use xlink:href="#DejaVuSans-4c" x="2058.695312"/>
    <use xlink:href="#DejaVuSans-20" x="2114.408203"/>
    <use xlink:href="#DejaVuSans-30" x="2146.195312"/>
    <use xlink:href="#DejaVuSans-32" x="2209.818359"/>
   </g>
  </g>
 </g>
 <defs>
  <clipPath id="p573b525638">
   <rect x="72.754" y="79.56" width="203.073" height="153.51"/>
  </clipPath>
  <clipPath id="pc6721eb8a8">
   <rect x="290.127" y="79.56" width="203.073" height="153.51"/>
  </clipPath>
  <clipPath id="pf45d114835">
   <rect x="72.754" y="290.93" width="203.073" height="153.51"/>
  </clipPath>
  <clipPath id="pbd0e8e31f6">
   <rect x="290.127" y="290.93" width="203.073" height="153.51"/>
  </clipPath>
 </defs>
</svg>
