<?xml version="1.0" encoding="utf-8" standalone="no"?>
<!DOCTYPE svg PUBLIC "-//W3C//DTD SVG 1.1//EN"
  "http://www.w3.org/Graphics/SVG/1.1/DTD/svg11.dtd">
<svg xmlns:xlink="http://www.w3.org/1999/xlink" width="864pt" height="360pt" viewBox="0 0 864 360" xmlns="http://www.w3.org/2000/svg" version="1.1">
 <metadata>
  <rdf:RDF xmlns:dc="http://purl.org/dc/elements/1.1/" xmlns:cc="http://creativecommons.org/ns#" xmlns:rdf="http://www.w3.org/1999/02/22-rdf-syntax-ns#">
   <cc:Work>
    <dc:type rdf:resource="http://purl.org/dc/dcmitype/StillImage"/>
    <dc:date>2023-11-28T18:47:40.641431</dc:date>
    <dc:format>image/svg+xml</dc:format>
    <dc:creator>
     <cc:Agent>
      <dc:title>Matplotlib v3.7.4, https://matplotlib.org/</dc:title>
     </cc:Agent>
    </dc:creator>
   </cc:Work>
  </rdf:RDF>
 </metadata>
 <defs>
  <style type="text/css">*{stroke-linejoin: round; stroke-linecap: butt}</style>
 </defs>
 <g id="figure_1">
  <g id="patch_1">
   <path d="M 0 360 
L 864 360 
L 864 0 
L 0 0 
z
" style="fill: #ffffff"/>
  </g>
  <g id="axes_1">
   <g id="patch_2">
    <path d="M 108 320.4 
L 777.6 320.4 
L 777.6 43.2 
L 108 43.2 
z
" style="fill: #ffffff"/>
   </g>
   <g id="matplotlib.axis_1">
    <g id="xtick_1">
     <g id="line2d_1">
      <defs>
       <path id="m70dba73116" d="M 0 0 
L 0 3.5 
" style="stroke: #000000; stroke-width: 0.8"/>
      </defs>
      <g>
       <use xlink:href="#m70dba73116" x="180.153824" y="320.4" style="stroke: #000000; stroke-width: 0.8"/>
      </g>
     </g>
     <g id="text_1">
      <!-- 2022-06-15 -->
      <g transform="translate(151.096011 334.998438) scale(0.1 -0.1)">
       <defs>
        <path id="DejaVuSans-32" d="M 1228 531 
L 3431 531 
L 3431 0 
L 469 0 
L 469 531 
Q 828 903 1448 1529 
Q 2069 2156 2228 2338 
Q 2531 2678 2651 2914 
Q 2772 3150 2772 3378 
Q 2772 3750 2511 3984 
Q 2250 4219 1831 4219 
Q 1534 4219 1204 4116 
Q 875 4013 500 3803 
L 500 4441 
Q 881 4594 1212 4672 
Q 1544 4750 1819 4750 
Q 2544 4750 2975 4387 
Q 3406 4025 3406 3419 
Q 3406 3131 3298 2873 
Q 3191 2616 2906 2266 
Q 2828 2175 2409 1742 
Q 1991 1309 1228 531 
z
" transform="scale(0.015625)"/>
        <path id="DejaVuSans-30" d="M 2034 4250 
Q 1547 4250 1301 3770 
Q 1056 3291 1056 2328 
Q 1056 1369 1301 889 
Q 1547 409 2034 409 
Q 2525 409 2770 889 
Q 3016 1369 3016 2328 
Q 3016 3291 2770 3770 
Q 2525 4250 2034 4250 
z
M 2034 4750 
Q 2819 4750 3233 4129 
Q 3647 3509 3647 2328 
Q 3647 1150 3233 529 
Q 2819 -91 2034 -91 
Q 1250 -91 836 529 
Q 422 1150 422 2328 
Q 422 3509 836 4129 
Q 1250 4750 2034 4750 
z
" transform="scale(0.015625)"/>
        <path id="DejaVuSans-2d" d="M 313 2009 
L 1997 2009 
L 1997 1497 
L 313 1497 
L 313 2009 
z
" transform="scale(0.015625)"/>
        <path id="DejaVuSans-36" d="M 2113 2584 
Q 1688 2584 1439 2293 
Q 1191 2003 1191 1497 
Q 1191 994 1439 701 
Q 1688 409 2113 409 
Q 2538 409 2786 701 
Q 3034 994 3034 1497 
Q 3034 2003 2786 2293 
Q 2538 2584 2113 2584 
z
M 3366 4563 
L 3366 3988 
Q 3128 4100 2886 4159 
Q 2644 4219 2406 4219 
Q 1781 4219 1451 3797 
Q 1122 3375 1075 2522 
Q 1259 2794 1537 2939 
Q 1816 3084 2150 3084 
Q 2853 3084 3261 2657 
Q 3669 2231 3669 1497 
Q 3669 778 3244 343 
Q 2819 -91 2113 -91 
Q 1303 -91 875 529 
Q 447 1150 447 2328 
Q 447 3434 972 4092 
Q 1497 4750 2381 4750 
Q 2619 4750 2861 4703 
Q 3103 4656 3366 4563 
z
" transform="scale(0.015625)"/>
        <path id="DejaVuSans-31" d="M 794 531 
L 1825 531 
L 1825 4091 
L 703 3866 
L 703 4441 
L 1819 4666 
L 2450 4666 
L 2450 531 
L 3481 531 
L 3481 0 
L 794 0 
L 794 531 
z
" transform="scale(0.015625)"/>
        <path id="DejaVuSans-35" d="M 691 4666 
L 3169 4666 
L 3169 4134 
L 1269 4134 
L 1269 2991 
Q 1406 3038 1543 3061 
Q 1681 3084 1819 3084 
Q 2600 3084 3056 2656 
Q 3513 2228 3513 1497 
Q 3513 744 3044 326 
Q 2575 -91 1722 -91 
Q 1428 -91 1123 -41 
Q 819 9 494 109 
L 494 744 
Q 775 591 1075 516 
Q 1375 441 1709 441 
Q 2250 441 2565 725 
Q 2881 1009 2881 1497 
Q 2881 1984 2565 2268 
Q 2250 2553 1709 2553 
Q 1456 2553 1204 2497 
Q 953 2441 691 2322 
L 691 4666 
z
" transform="scale(0.015625)"/>
       </defs>
       <use xlink:href="#DejaVuSans-32"/>
       <use xlink:href="#DejaVuSans-30" x="63.623047"/>
       <use xlink:href="#DejaVuSans-32" x="127.246094"/>
       <use xlink:href="#DejaVuSans-32" x="190.869141"/>
       <use xlink:href="#DejaVuSans-2d" x="254.492188"/>
       <use xlink:href="#DejaVuSans-30" x="290.576172"/>
       <use xlink:href="#DejaVuSans-36" x="354.199219"/>
       <use xlink:href="#DejaVuSans-2d" x="417.822266"/>
       <use xlink:href="#DejaVuSans-31" x="453.90625"/>
       <use xlink:href="#DejaVuSans-35" x="517.529297"/>
      </g>
     </g>
    </g>
    <g id="xtick_2">
     <g id="line2d_2">
      <g>
       <use xlink:href="#m70dba73116" x="313.649696" y="320.4" style="stroke: #000000; stroke-width: 0.8"/>
      </g>
     </g>
     <g id="text_2">
      <!-- 2022-07-01 -->
      <g transform="translate(284.591884 334.998438) scale(0.1 -0.1)">
       <defs>
        <path id="DejaVuSans-37" d="M 525 4666 
L 3525 4666 
L 3525 4397 
L 1831 0 
L 1172 0 
L 2766 4134 
L 525 4134 
L 525 4666 
z
" transform="scale(0.015625)"/>
       </defs>
       <use xlink:href="#DejaVuSans-32"/>
       <use xlink:href="#DejaVuSans-30" x="63.623047"/>
       <use xlink:href="#DejaVuSans-32" x="127.246094"/>
       <use xlink:href="#DejaVuSans-32" x="190.869141"/>
       <use xlink:href="#DejaVuSans-2d" x="254.492188"/>
       <use xlink:href="#DejaVuSans-30" x="290.576172"/>
       <use xlink:href="#DejaVuSans-37" x="354.199219"/>
       <use xlink:href="#DejaVuSans-2d" x="417.822266"/>
       <use xlink:href="#DejaVuSans-30" x="453.90625"/>
       <use xlink:href="#DejaVuSans-31" x="517.529297"/>
      </g>
     </g>
    </g>
    <g id="xtick_3">
     <g id="line2d_3">
      <g>
       <use xlink:href="#m70dba73116" x="430.458585" y="320.4" style="stroke: #000000; stroke-width: 0.8"/>
      </g>
     </g>
     <g id="text_3">
      <!-- 2022-07-15 -->
      <g transform="translate(401.400772 334.998438) scale(0.1 -0.1)">
       <use xlink:href="#DejaVuSans-32"/>
       <use xlink:href="#DejaVuSans-30" x="63.623047"/>
       <use xlink:href="#DejaVuSans-32" x="127.246094"/>
       <use xlink:href="#DejaVuSans-32" x="190.869141"/>
       <use xlink:href="#DejaVuSans-2d" x="254.492188"/>
       <use xlink:href="#DejaVuSans-30" x="290.576172"/>
       <use xlink:href="#DejaVuSans-37" x="354.199219"/>
       <use xlink:href="#DejaVuSans-2d" x="417.822266"/>
       <use xlink:href="#DejaVuSans-31" x="453.90625"/>
       <use xlink:href="#DejaVuSans-35" x="517.529297"/>
      </g>
     </g>
    </g>
    <g id="xtick_4">
     <g id="line2d_4">
      <g>
       <use xlink:href="#m70dba73116" x="572.297949" y="320.4" style="stroke: #000000; stroke-width: 0.8"/>
      </g>
     </g>
     <g id="text_4">
      <!-- 2022-08-01 -->
      <g transform="translate(543.240137 334.998438) scale(0.1 -0.1)">
       <defs>
        <path id="DejaVuSans-38" d="M 2034 2216 
Q 1584 2216 1326 1975 
Q 1069 1734 1069 1313 
Q 1069 891 1326 650 
Q 1584 409 2034 409 
Q 2484 409 2743 651 
Q 3003 894 3003 1313 
Q 3003 1734 2745 1975 
Q 2488 2216 2034 2216 
z
M 1403 2484 
Q 997 2584 770 2862 
Q 544 3141 544 3541 
Q 544 4100 942 4425 
Q 1341 4750 2034 4750 
Q 2731 4750 3128 4425 
Q 3525 4100 3525 3541 
Q 3525 3141 3298 2862 
Q 3072 2584 2669 2484 
Q 3125 2378 3379 2068 
Q 3634 1759 3634 1313 
Q 3634 634 3220 271 
Q 2806 -91 2034 -91 
Q 1263 -91 848 271 
Q 434 634 434 1313 
Q 434 1759 690 2068 
Q 947 2378 1403 2484 
z
M 1172 3481 
Q 1172 3119 1398 2916 
Q 1625 2713 2034 2713 
Q 2441 2713 2670 2916 
Q 2900 3119 2900 3481 
Q 2900 3844 2670 4047 
Q 2441 4250 2034 4250 
Q 1625 4250 1398 4047 
Q 1172 3844 1172 3481 
z
" transform="scale(0.015625)"/>
       </defs>
       <use xlink:href="#DejaVuSans-32"/>
       <use xlink:href="#DejaVuSans-30" x="63.623047"/>
       <use xlink:href="#DejaVuSans-32" x="127.246094"/>
       <use xlink:href="#DejaVuSans-32" x="190.869141"/>
       <use xlink:href="#DejaVuSans-2d" x="254.492188"/>
       <use xlink:href="#DejaVuSans-30" x="290.576172"/>
       <use xlink:href="#DejaVuSans-38" x="354.199219"/>
       <use xlink:href="#DejaVuSans-2d" x="417.822266"/>
       <use xlink:href="#DejaVuSans-30" x="453.90625"/>
       <use xlink:href="#DejaVuSans-31" x="517.529297"/>
      </g>
     </g>
    </g>
    <g id="xtick_5">
     <g id="line2d_5">
      <g>
       <use xlink:href="#m70dba73116" x="689.106838" y="320.4" style="stroke: #000000; stroke-width: 0.8"/>
      </g>
     </g>
     <g id="text_5">
      <!-- 2022-08-15 -->
      <g transform="translate(660.049025 334.998438) scale(0.1 -0.1)">
       <use xlink:href="#DejaVuSans-32"/>
       <use xlink:href="#DejaVuSans-30" x="63.623047"/>
       <use xlink:href="#DejaVuSans-32" x="127.246094"/>
       <use xlink:href="#DejaVuSans-32" x="190.869141"/>
       <use xlink:href="#DejaVuSans-2d" x="254.492188"/>
       <use xlink:href="#DejaVuSans-30" x="290.576172"/>
       <use xlink:href="#DejaVuSans-38" x="354.199219"/>
       <use xlink:href="#DejaVuSans-2d" x="417.822266"/>
       <use xlink:href="#DejaVuSans-31" x="453.90625"/>
       <use xlink:href="#DejaVuSans-35" x="517.529297"/>
      </g>
     </g>
    </g>
    <g id="text_6">
     <!-- TIME (DAYS) -->
     <g transform="translate(406.180313 350.19625) scale(0.12 -0.12)">
      <defs>
       <path id="DejaVuSans-54" d="M -19 4666 
L 3928 4666 
L 3928 4134 
L 2272 4134 
L 2272 0 
L 1638 0 
L 1638 4134 
L -19 4134 
L -19 4666 
z
" transform="scale(0.015625)"/>
       <path id="DejaVuSans-49" d="M 628 4666 
L 1259 4666 
L 1259 0 
L 628 0 
L 628 4666 
z
" transform="scale(0.015625)"/>
       <path id="DejaVuSans-4d" d="M 628 4666 
L 1569 4666 
L 2759 1491 
L 3956 4666 
L 4897 4666 
L 4897 0 
L 4281 0 
L 4281 4097 
L 3078 897 
L 2444 897 
L 1241 4097 
L 1241 0 
L 628 0 
L 628 4666 
z
" transform="scale(0.015625)"/>
       <path id="DejaVuSans-45" d="M 628 4666 
L 3578 4666 
L 3578 4134 
L 1259 4134 
L 1259 2753 
L 3481 2753 
L 3481 2222 
L 1259 2222 
L 1259 531 
L 3634 531 
L 3634 0 
L 628 0 
L 628 4666 
z
" transform="scale(0.015625)"/>
       <path id="DejaVuSans-20" transform="scale(0.015625)"/>
       <path id="DejaVuSans-28" d="M 1984 4856 
Q 1566 4138 1362 3434 
Q 1159 2731 1159 2009 
Q 1159 1288 1364 580 
Q 1569 -128 1984 -844 
L 1484 -844 
Q 1016 -109 783 600 
Q 550 1309 550 2009 
Q 550 2706 781 3412 
Q 1013 4119 1484 4856 
L 1984 4856 
z
" transform="scale(0.015625)"/>
       <path id="DejaVuSans-44" d="M 1259 4147 
L 1259 519 
L 2022 519 
Q 2988 519 3436 956 
Q 3884 1394 3884 2338 
Q 3884 3275 3436 3711 
Q 2988 4147 2022 4147 
L 1259 4147 
z
M 628 4666 
L 1925 4666 
Q 3281 4666 3915 4102 
Q 4550 3538 4550 2338 
Q 4550 1131 3912 565 
Q 3275 0 1925 0 
L 628 0 
L 628 4666 
z
" transform="scale(0.015625)"/>
       <path id="DejaVuSans-41" d="M 2188 4044 
L 1331 1722 
L 3047 1722 
L 2188 4044 
z
M 1831 4666 
L 2547 4666 
L 4325 0 
L 3669 0 
L 3244 1197 
L 1141 1197 
L 716 0 
L 50 0 
L 1831 4666 
z
" transform="scale(0.015625)"/>
       <path id="DejaVuSans-59" d="M -13 4666 
L 666 4666 
L 1959 2747 
L 3244 4666 
L 3922 4666 
L 2272 2222 
L 2272 0 
L 1638 0 
L 1638 2222 
L -13 4666 
z
" transform="scale(0.015625)"/>
       <path id="DejaVuSans-53" d="M 3425 4513 
L 3425 3897 
Q 3066 4069 2747 4153 
Q 2428 4238 2131 4238 
Q 1616 4238 1336 4038 
Q 1056 3838 1056 3469 
Q 1056 3159 1242 3001 
Q 1428 2844 1947 2747 
L 2328 2669 
Q 3034 2534 3370 2195 
Q 3706 1856 3706 1288 
Q 3706 609 3251 259 
Q 2797 -91 1919 -91 
Q 1588 -91 1214 -16 
Q 841 59 441 206 
L 441 856 
Q 825 641 1194 531 
Q 1563 422 1919 422 
Q 2459 422 2753 634 
Q 3047 847 3047 1241 
Q 3047 1584 2836 1778 
Q 2625 1972 2144 2069 
L 1759 2144 
Q 1053 2284 737 2584 
Q 422 2884 422 3419 
Q 422 4038 858 4394 
Q 1294 4750 2059 4750 
Q 2388 4750 2728 4690 
Q 3069 4631 3425 4513 
z
" transform="scale(0.015625)"/>
       <path id="DejaVuSans-29" d="M 513 4856 
L 1013 4856 
Q 1481 4119 1714 3412 
Q 1947 2706 1947 2009 
Q 1947 1309 1714 600 
Q 1481 -109 1013 -844 
L 513 -844 
Q 928 -128 1133 580 
Q 1338 1288 1338 2009 
Q 1338 2731 1133 3434 
Q 928 4138 513 4856 
z
" transform="scale(0.015625)"/>
      </defs>
      <use xlink:href="#DejaVuSans-54"/>
      <use xlink:href="#DejaVuSans-49" x="61.083984"/>
      <use xlink:href="#DejaVuSans-4d" x="90.576172"/>
      <use xlink:href="#DejaVuSans-45" x="176.855469"/>
      <use xlink:href="#DejaVuSans-20" x="240.039062"/>
      <use xlink:href="#DejaVuSans-28" x="271.826172"/>
      <use xlink:href="#DejaVuSans-44" x="310.839844"/>
      <use xlink:href="#DejaVuSans-41" x="386.091797"/>
      <use xlink:href="#DejaVuSans-59" x="446.75"/>
      <use xlink:href="#DejaVuSans-53" x="507.833984"/>
      <use xlink:href="#DejaVuSans-29" x="571.310547"/>
     </g>
    </g>
   </g>
   <g id="matplotlib.axis_2">
    <g id="ytick_1">
     <g id="line2d_6">
      <defs>
       <path id="m54946196d6" d="M 0 0 
L -3.5 0 
" style="stroke: #000000; stroke-width: 0.8"/>
      </defs>
      <g>
       <use xlink:href="#m54946196d6" x="108" y="307.8" style="stroke: #000000; stroke-width: 0.8"/>
      </g>
     </g>
     <g id="text_7">
      <!-- 0.0 -->
      <g transform="translate(85.096875 311.599219) scale(0.1 -0.1)">
       <defs>
        <path id="DejaVuSans-2e" d="M 684 794 
L 1344 794 
L 1344 0 
L 684 0 
L 684 794 
z
" transform="scale(0.015625)"/>
       </defs>
       <use xlink:href="#DejaVuSans-30"/>
       <use xlink:href="#DejaVuSans-2e" x="63.623047"/>
       <use xlink:href="#DejaVuSans-30" x="95.410156"/>
      </g>
     </g>
    </g>
    <g id="ytick_2">
     <g id="line2d_7">
      <g>
       <use xlink:href="#m54946196d6" x="108" y="257.4" style="stroke: #000000; stroke-width: 0.8"/>
      </g>
     </g>
     <g id="text_8">
      <!-- 0.2 -->
      <g transform="translate(85.096875 261.199219) scale(0.1 -0.1)">
       <use xlink:href="#DejaVuSans-30"/>
       <use xlink:href="#DejaVuSans-2e" x="63.623047"/>
       <use xlink:href="#DejaVuSans-32" x="95.410156"/>
      </g>
     </g>
    </g>
    <g id="ytick_3">
     <g id="line2d_8">
      <g>
       <use xlink:href="#m54946196d6" x="108" y="207" style="stroke: #000000; stroke-width: 0.8"/>
      </g>
     </g>
     <g id="text_9">
      <!-- 0.4 -->
      <g transform="translate(85.096875 210.799219) scale(0.1 -0.1)">
       <defs>
        <path id="DejaVuSans-34" d="M 2419 4116 
L 825 1625 
L 2419 1625 
L 2419 4116 
z
M 2253 4666 
L 3047 4666 
L 3047 1625 
L 3713 1625 
L 3713 1100 
L 3047 1100 
L 3047 0 
L 2419 0 
L 2419 1100 
L 313 1100 
L 313 1709 
L 2253 4666 
z
" transform="scale(0.015625)"/>
       </defs>
       <use xlink:href="#DejaVuSans-30"/>
       <use xlink:href="#DejaVuSans-2e" x="63.623047"/>
       <use xlink:href="#DejaVuSans-34" x="95.410156"/>
      </g>
     </g>
    </g>
    <g id="ytick_4">
     <g id="line2d_9">
      <g>
       <use xlink:href="#m54946196d6" x="108" y="156.6" style="stroke: #000000; stroke-width: 0.8"/>
      </g>
     </g>
     <g id="text_10">
      <!-- 0.6 -->
      <g transform="translate(85.096875 160.399219) scale(0.1 -0.1)">
       <use xlink:href="#DejaVuSans-30"/>
       <use xlink:href="#DejaVuSans-2e" x="63.623047"/>
       <use xlink:href="#DejaVuSans-36" x="95.410156"/>
      </g>
     </g>
    </g>
    <g id="ytick_5">
     <g id="line2d_10">
      <g>
       <use xlink:href="#m54946196d6" x="108" y="106.2" style="stroke: #000000; stroke-width: 0.8"/>
      </g>
     </g>
     <g id="text_11">
      <!-- 0.8 -->
      <g transform="translate(85.096875 109.999219) scale(0.1 -0.1)">
       <use xlink:href="#DejaVuSans-30"/>
       <use xlink:href="#DejaVuSans-2e" x="63.623047"/>
       <use xlink:href="#DejaVuSans-38" x="95.410156"/>
      </g>
     </g>
    </g>
    <g id="ytick_6">
     <g id="line2d_11">
      <g>
       <use xlink:href="#m54946196d6" x="108" y="55.8" style="stroke: #000000; stroke-width: 0.8"/>
      </g>
     </g>
     <g id="text_12">
      <!-- 1.0 -->
      <g transform="translate(85.096875 59.599219) scale(0.1 -0.1)">
       <use xlink:href="#DejaVuSans-31"/>
       <use xlink:href="#DejaVuSans-2e" x="63.623047"/>
       <use xlink:href="#DejaVuSans-30" x="95.410156"/>
      </g>
     </g>
    </g>
    <g id="text_13">
     <!-- VISITS -->
     <g transform="translate(78.60125 200.727187) rotate(-90) scale(0.12 -0.12)">
      <defs>
       <path id="DejaVuSans-56" d="M 1831 0 
L 50 4666 
L 709 4666 
L 2188 738 
L 3669 4666 
L 4325 4666 
L 2547 0 
L 1831 0 
z
" transform="scale(0.015625)"/>
      </defs>
      <use xlink:href="#DejaVuSans-56"/>
      <use xlink:href="#DejaVuSans-49" x="68.408203"/>
      <use xlink:href="#DejaVuSans-53" x="97.900391"/>
      <use xlink:href="#DejaVuSans-49" x="161.376953"/>
      <use xlink:href="#DejaVuSans-54" x="190.869141"/>
      <use xlink:href="#DejaVuSans-53" x="251.953125"/>
     </g>
    </g>
   </g>
   <g id="line2d_12">
    <path d="M 138.436364 146.52 
L 138.784009 227.16 
L 139.131655 277.56 
L 139.4793 297.72 
L 139.826946 307.8 
L 140.174591 307.8 
L 140.522237 297.72 
L 141.217528 297.72 
L 141.565173 287.64 
L 141.912819 287.64 
L 142.60811 126.36 
L 142.955755 86.04 
L 143.303401 166.68 
L 143.651046 217.08 
L 143.998692 227.16 
L 144.346337 227.16 
L 144.693983 267.48 
L 145.041628 237.24 
L 145.389274 196.92 
L 145.736919 65.88 
L 146.084565 65.88 
L 146.43221 55.8 
L 146.779856 192.3 
L 147.475147 307.8 
L 148.170438 307.8 
L 148.518083 286.8 
L 148.865729 255.3 
L 149.56102 255.3 
L 149.908665 286.8 
L 150.256311 265.8 
L 150.603956 213.3 
L 150.951602 118.8 
L 151.299247 66.3 
L 152.342184 213.3 
L 152.689829 181.8 
L 153.38512 223.8 
L 153.732766 213.3 
L 154.080411 160.8 
L 154.428057 55.8 
L 154.775702 55.8 
L 155.123348 209.8 
L 155.470993 279.8 
L 155.818639 300.8 
L 156.166284 307.8 
L 156.51393 293.8 
L 156.861575 286.8 
L 157.209221 272.8 
L 157.556866 293.8 
L 158.252157 293.8 
L 158.599803 286.8 
L 159.642739 188.8 
L 160.685676 286.8 
L 161.033321 286.8 
L 161.380967 307.8 
L 161.728612 307.8 
L 162.076258 279.8 
L 162.423903 195.8 
L 162.771549 55.8 
L 163.119194 97.8 
L 163.46684 75.96 
L 163.814485 287.64 
L 164.162131 307.8 
L 164.509776 297.72 
L 165.552713 297.72 
L 165.900358 277.56 
L 166.248004 277.56 
L 166.595649 247.32 
L 166.943295 267.48 
L 167.29094 156.6 
L 167.638586 86.04 
L 167.986231 86.04 
L 168.333877 186.84 
L 168.681522 217.08 
L 169.029168 207 
L 169.376813 217.08 
L 169.724459 277.56 
L 170.072104 277.56 
L 170.41975 247.32 
L 170.767395 237.24 
L 171.462686 55.8 
L 171.810332 55.8 
L 172.505623 307.8 
L 173.200914 307.8 
L 173.548559 296.345455 
L 174.24385 296.345455 
L 174.591496 273.436364 
L 175.634432 273.436364 
L 175.982078 204.709091 
L 176.329723 181.8 
L 176.677369 216.163636 
L 177.025014 170.345455 
L 177.37266 170.345455 
L 177.720305 158.890909 
L 178.067951 273.436364 
L 178.415596 261.981818 
L 178.763242 261.981818 
L 179.110887 216.163636 
L 179.458533 193.254545 
L 179.806178 78.709091 
L 180.153824 131.4 
L 180.501469 55.8 
L 180.849115 91.08 
L 181.544406 287.64 
L 181.892051 292.68 
L 182.239697 292.68 
L 182.587342 287.64 
L 182.934988 302.76 
L 183.282633 302.76 
L 183.630279 292.68 
L 184.673215 116.28 
L 185.368506 242.28 
L 185.716152 257.4 
L 186.063797 227.16 
L 187.106734 307.8 
L 187.454379 262.44 
L 187.802025 181.8 
L 188.14967 156.6 
L 188.497316 55.8 
L 188.844961 247.8 
L 189.192607 307.8 
L 189.540252 307.8 
L 189.887898 283.8 
L 190.583189 283.8 
L 190.930834 307.8 
L 191.27848 283.8 
L 191.626125 271.8 
L 191.973771 271.8 
L 192.669062 115.8 
L 193.016707 103.8 
L 193.711998 235.8 
L 194.059644 247.8 
L 194.407289 223.8 
L 194.754935 211.8 
L 195.10258 211.8 
L 195.450226 259.8 
L 196.145517 103.8 
L 196.493162 91.8 
L 196.840808 219.6 
L 197.188453 282.6 
L 197.536099 295.2 
L 197.883744 295.2 
L 198.23139 307.8 
L 198.579035 307.8 
L 198.926681 282.6 
L 200.317263 282.6 
L 200.664908 207 
L 201.012554 181.8 
L 201.360199 144 
L 201.707845 207 
L 202.05549 244.8 
L 202.750781 219.6 
L 203.098427 169.2 
L 203.446072 219.6 
L 203.793718 244.8 
L 204.141363 257.4 
L 204.836654 55.8 
L 205.1843 95.589474 
L 205.879591 307.8 
L 206.922527 307.8 
L 207.270173 294.536842 
L 208.660755 294.536842 
L 209.0084 254.747368 
L 209.356046 201.694737 
L 209.703691 122.115789 
L 210.051337 148.642105 
L 210.398982 188.431579 
L 210.746628 188.431579 
L 211.094273 135.378947 
L 211.441919 108.852632 
L 211.789564 175.168421 
L 212.13721 214.957895 
L 212.484855 228.221053 
L 213.180146 55.8 
L 213.527792 241.484211 
L 213.875437 307.8 
L 216.656601 307.8 
L 217.351892 254.747368 
L 217.699538 201.694737 
L 218.047183 175.168421 
L 218.742474 55.8 
L 219.09012 69.063158 
L 219.437765 108.852632 
L 219.785411 214.957895 
L 220.133056 254.747368 
L 220.480702 281.273684 
L 220.828347 254.747368 
L 221.175993 241.484211 
L 221.523638 241.484211 
L 221.871284 278.152941 
L 222.566575 307.8 
L 224.304802 307.8 
L 224.652448 292.976471 
L 225.347739 292.976471 
L 225.695384 233.682353 
L 226.04303 204.035294 
L 226.738321 174.388235 
L 227.085966 144.741176 
L 227.433612 55.8 
L 227.781257 85.447059 
L 228.128903 144.741176 
L 228.476548 233.682353 
L 228.824194 248.505882 
L 229.171839 174.388235 
L 229.519485 129.917647 
L 229.86713 100.270588 
L 230.910067 307.8 
L 231.605358 307.8 
L 231.953003 292.05 
L 232.648294 292.05 
L 232.99594 229.05 
L 233.691231 229.05 
L 234.038876 244.8 
L 234.386522 229.05 
L 234.734167 197.55 
L 235.081813 229.05 
L 235.429458 134.55 
L 235.777104 118.8 
L 236.124749 71.55 
L 236.472395 150.3 
L 236.82004 197.55 
L 237.167686 181.8 
L 237.515331 134.55 
L 237.862977 55.8 
L 238.210623 71.55 
L 238.558268 187.8 
L 239.253559 307.8 
L 239.94885 307.8 
L 240.296496 283.8 
L 240.991787 283.8 
L 241.339432 307.8 
L 242.034723 307.8 
L 242.382369 283.8 
L 242.730014 223.8 
L 243.07766 223.8 
L 243.772951 151.8 
L 244.120596 139.8 
L 244.468242 187.8 
L 244.815887 187.8 
L 245.163533 139.8 
L 245.511178 139.8 
L 245.858824 115.8 
L 246.206469 67.8 
L 246.554115 55.8 
L 247.249406 279.8 
L 247.597051 307.8 
L 248.639988 307.8 
L 248.987633 293.8 
L 249.682924 293.8 
L 250.03057 307.8 
L 250.378215 307.8 
L 251.073506 181.8 
L 251.421152 167.8 
L 251.768797 139.8 
L 252.464088 167.8 
L 252.811734 251.8 
L 253.159379 265.8 
L 253.507025 251.8 
L 253.85467 153.8 
L 254.202316 111.8 
L 254.549961 55.8 
L 255.592898 278.152941 
L 255.940543 307.8 
L 256.635834 307.8 
L 256.98348 278.152941 
L 257.678771 278.152941 
L 258.026416 307.8 
L 258.374062 307.8 
L 259.069353 278.152941 
L 259.416998 189.211765 
L 259.764644 144.741176 
L 260.112289 129.917647 
L 260.459935 144.741176 
L 260.80758 189.211765 
L 261.155226 204.035294 
L 261.502871 278.152941 
L 261.850517 292.976471 
L 262.198162 233.682353 
L 262.893453 70.623529 
L 263.241099 55.8 
L 264.284035 307.8 
L 265.326972 307.8 
L 265.674617 276.3 
L 266.369908 276.3 
L 266.717554 307.8 
L 267.065199 307.8 
L 267.412845 260.55 
L 268.108136 197.55 
L 268.455781 244.8 
L 268.803427 213.3 
L 269.151072 197.55 
L 269.498718 197.55 
L 270.194009 292.05 
L 270.541654 213.3 
L 270.8893 197.55 
L 271.236945 87.3 
L 271.584591 55.8 
L 271.932236 55.8 
L 272.627527 223.8 
L 272.975173 279.8 
L 273.322818 279.8 
L 273.670464 307.8 
L 275.061046 307.8 
L 275.408691 293.8 
L 275.756337 265.8 
L 276.103982 223.8 
L 276.451628 237.8 
L 276.799273 237.8 
L 277.146919 265.8 
L 277.494564 209.8 
L 277.84221 237.8 
L 278.189855 251.8 
L 278.537501 293.8 
L 279.580437 139.8 
L 279.928083 167.8 
L 280.275728 172.107692 
L 280.623374 269.030769 
L 280.971019 307.8 
L 282.361601 307.8 
L 282.709247 288.415385 
L 283.404538 288.415385 
L 283.752183 307.8 
L 284.447474 191.492308 
L 284.79512 152.723077 
L 285.142765 172.107692 
L 285.490411 210.876923 
L 285.838056 210.876923 
L 286.185702 249.646154 
L 286.533347 230.261538 
L 286.880993 269.030769 
L 287.576284 230.261538 
L 287.923929 94.569231 
L 288.271575 55.8 
L 288.61922 55.8 
L 288.966866 232.2 
L 289.314511 307.8 
L 290.705093 307.8 
L 291.052739 181.8 
L 291.74803 181.8 
L 292.095675 307.8 
L 292.443321 257.4 
L 292.790966 181.8 
L 293.138612 55.8 
L 293.833903 106.2 
L 294.181548 207 
L 294.529194 207 
L 295.57213 282.6 
L 295.919776 232.2 
L 296.267421 106.2 
L 296.615067 55.8 
L 296.962712 111.8 
L 297.310358 251.8 
L 297.658003 307.8 
L 300.439167 307.8 
L 300.786813 139.8 
L 301.134458 55.8 
L 301.482104 55.8 
L 301.829749 139.8 
L 302.177395 167.8 
L 302.52504 111.8 
L 302.872686 167.8 
L 303.220331 167.8 
L 303.567977 223.8 
L 303.915622 251.8 
L 304.263268 307.8 
L 304.958559 55.8 
L 305.306204 78.709091 
L 306.001495 261.981818 
L 306.696786 307.8 
L 307.044432 284.890909 
L 307.739723 284.890909 
L 308.087368 307.8 
L 309.130305 307.8 
L 309.825596 170.345455 
L 310.520887 124.527273 
L 311.216178 170.345455 
L 311.911469 261.981818 
L 312.60676 261.981818 
L 312.954405 124.527273 
L 313.302051 55.8 
L 313.649696 55.8 
L 313.997342 193.254545 
L 314.344987 261.981818 
L 314.692633 307.8 
L 315.735569 307.8 
L 316.083215 216.163636 
L 316.778506 216.163636 
L 317.126151 307.8 
L 317.473797 307.8 
L 317.821442 216.163636 
L 318.169088 193.254545 
L 318.516733 193.254545 
L 319.212024 147.436364 
L 319.55967 101.618182 
L 319.907315 216.163636 
L 320.254961 261.981818 
L 320.602606 284.890909 
L 320.950252 239.072727 
L 321.645543 101.618182 
L 321.993188 55.8 
L 322.340834 150.3 
L 322.688479 276.3 
L 323.036125 307.8 
L 323.38377 307.8 
L 323.731416 276.3 
L 324.426707 276.3 
L 324.774352 307.8 
L 325.121998 244.8 
L 325.817289 244.8 
L 326.164934 276.3 
L 326.860225 276.3 
L 327.207871 307.8 
L 370.315913 307.8 
L 370.663558 300.8 
L 371.011204 244.8 
L 371.358849 76.8 
L 371.706495 55.8 
L 372.05414 55.8 
L 372.401786 257.4 
L 373.097077 274.2 
L 373.444722 274.2 
L 373.792368 282.6 
L 374.140013 307.8 
L 374.487659 274.2 
L 375.18295 274.2 
L 375.530596 257.4 
L 376.225887 148.2 
L 376.573532 148.2 
L 376.921178 156.6 
L 377.268823 156.6 
L 377.616469 173.4 
L 377.964114 207 
L 378.31176 257.4 
L 378.659405 232.2 
L 379.007051 198.6 
L 379.354696 148.2 
L 379.702342 148.2 
L 380.049987 156.6 
L 380.397633 154.408696 
L 380.745278 231.104348 
L 381.092924 274.930435 
L 381.440569 285.886957 
L 381.788215 285.886957 
L 382.13586 307.8 
L 382.831151 307.8 
L 383.178797 285.886957 
L 383.526442 285.886957 
L 384.221733 132.495652 
L 384.917024 132.495652 
L 385.26467 121.53913 
L 385.612315 55.8 
L 385.959961 77.713043 
L 386.655252 209.191304 
L 387.002897 187.278261 
L 387.350543 143.452174 
L 387.698188 66.756522 
L 388.045834 99.626087 
L 388.741125 260.55 
L 389.08877 276.3 
L 389.784061 276.3 
L 390.131707 307.8 
L 390.479352 260.55 
L 390.826998 260.55 
L 391.174643 276.3 
L 391.522289 276.3 
L 392.565225 181.8 
L 392.912871 55.8 
L 393.260516 55.8 
L 393.608162 71.55 
L 393.955807 197.55 
L 394.303453 229.05 
L 394.651098 276.3 
L 395.694035 276.3 
L 396.389326 181.8 
L 396.736971 181.8 
L 397.084617 248.505882 
L 397.779908 278.152941 
L 398.127553 263.329412 
L 398.475199 278.152941 
L 398.822844 233.682353 
L 399.518135 263.329412 
L 399.865781 307.8 
L 400.561072 174.388235 
L 400.908717 70.623529 
L 401.256363 85.447059 
L 401.604008 55.8 
L 401.951654 144.741176 
L 402.299299 100.270588 
L 402.646945 159.564706 
L 402.99459 174.388235 
L 403.342236 233.682353 
L 403.689881 189.211765 
L 404.037527 100.270588 
L 404.385172 85.447059 
L 405.080463 233.682353 
L 405.428109 257.4 
L 406.1234 282.6 
L 406.471045 307.8 
L 406.818691 307.8 
L 407.166336 282.6 
L 407.513982 282.6 
L 407.861627 270 
L 408.209273 295.2 
L 408.556918 257.4 
L 408.904564 232.2 
L 409.252209 194.4 
L 409.599855 169.2 
L 409.9475 131.4 
L 410.295146 68.4 
L 410.642791 68.4 
L 411.338082 156.6 
L 411.685728 181.8 
L 412.381019 55.8 
L 412.728664 68.4 
L 413.423955 270 
L 413.771601 291 
L 414.119246 257.4 
L 414.466892 274.2 
L 414.814537 274.2 
L 415.162183 307.8 
L 415.509828 240.6 
L 415.857474 257.4 
L 416.205119 257.4 
L 416.552765 291 
L 417.248056 156.6 
L 417.943347 123 
L 418.290992 156.6 
L 418.638638 89.4 
L 418.986283 139.8 
L 419.333929 106.2 
L 419.681574 190.2 
L 420.02922 139.8 
L 420.376865 156.6 
L 420.724511 55.8 
L 421.072156 139.8 
L 421.419802 106.2 
L 421.767447 240.6 
L 422.115093 247.8 
L 422.462738 295.8 
L 422.810384 295.8 
L 423.158029 307.8 
L 423.505675 283.8 
L 424.200966 283.8 
L 424.548611 295.8 
L 424.896257 283.8 
L 425.243902 259.8 
L 425.591548 247.8 
L 425.939193 223.8 
L 426.286839 175.8 
L 426.634484 187.8 
L 426.98213 151.8 
L 427.329775 175.8 
L 427.677421 151.8 
L 428.025066 163.8 
L 428.372712 139.8 
L 428.720357 67.8 
L 429.068003 55.8 
L 429.415648 115.8 
L 429.763294 223.8 
L 430.110939 211.8 
L 430.458585 219.6 
L 430.80623 232.2 
L 431.153876 270 
L 431.501521 270 
L 431.849167 257.4 
L 432.544458 257.4 
L 432.892103 270 
L 433.239749 270 
L 433.587394 232.2 
L 433.93504 169.2 
L 434.282685 169.2 
L 434.630331 156.6 
L 434.977976 68.4 
L 435.325622 55.8 
L 435.673267 93.6 
L 436.020913 219.6 
L 436.368558 219.6 
L 436.716204 144 
L 437.063849 93.6 
L 437.411495 118.8 
L 438.106786 282.6 
L 438.454431 307.8 
L 438.802077 307.8 
L 439.149722 289.8 
L 439.845013 289.8 
L 440.192659 271.8 
L 440.540304 289.8 
L 440.88795 271.8 
L 441.235595 307.8 
L 441.583241 199.8 
L 441.930886 163.8 
L 442.278532 109.8 
L 442.626177 109.8 
L 442.973823 145.8 
L 443.321468 109.8 
L 443.669114 145.8 
L 444.016759 55.8 
L 444.364405 145.8 
L 444.71205 145.8 
L 445.059696 181.8 
L 445.407341 91.8 
L 445.754987 91.8 
L 446.102632 163.8 
L 446.450278 199.8 
L 446.797923 271.8 
L 447.145569 265.8 
L 449.231442 265.8 
L 449.579087 286.8 
L 449.926733 139.8 
L 450.274378 97.8 
L 450.622024 76.8 
L 450.969669 139.8 
L 451.317315 139.8 
L 451.66496 76.8 
L 452.012606 118.8 
L 452.360251 97.8 
L 452.707897 181.8 
L 453.055542 160.8 
L 453.403188 160.8 
L 453.750833 55.8 
L 454.098479 118.8 
L 454.446124 160.8 
L 454.79377 307.8 
L 455.141415 265.8 
L 455.489061 278.152941 
L 455.836706 263.329412 
L 456.184352 292.976471 
L 456.531997 292.976471 
L 456.879643 307.8 
L 457.227288 278.152941 
L 457.574934 278.152941 
L 457.922579 204.035294 
L 458.270225 204.035294 
L 458.61787 159.564706 
L 458.965516 174.388235 
L 459.313161 129.917647 
L 459.660807 70.623529 
L 460.008452 85.447059 
L 460.703743 204.035294 
L 461.051389 218.858824 
L 461.399034 129.917647 
L 461.74668 144.741176 
L 462.094325 55.8 
L 462.441971 144.741176 
L 462.789616 159.564706 
L 463.137262 278.152941 
L 463.484907 263.329412 
L 463.832553 281.273684 
L 464.180198 268.010526 
L 464.875489 268.010526 
L 465.223135 254.747368 
L 465.57078 281.273684 
L 465.918426 281.273684 
L 466.266071 241.484211 
L 466.961362 188.431579 
L 467.656653 161.905263 
L 468.004299 69.063158 
L 468.351944 135.378947 
L 468.69959 69.063158 
L 469.047235 161.905263 
L 469.394881 95.589474 
L 469.742526 122.115789 
L 470.090172 108.852632 
L 470.437817 55.8 
L 470.785463 135.378947 
L 471.133108 175.168421 
L 471.480754 307.8 
L 471.828399 268.010526 
L 472.176045 307.8 
L 473.218981 307.8 
L 473.566627 223.8 
L 473.914272 274.2 
L 474.261918 223.8 
L 474.609563 223.8 
L 474.957209 173.4 
L 475.304854 55.8 
L 475.6525 123 
L 476.000145 55.8 
L 476.347791 156.6 
L 476.695436 173.4 
L 477.043082 223.8 
L 477.738373 156.6 
L 478.086018 106.2 
L 478.433664 106.2 
L 478.781309 123 
L 479.128955 207 
L 479.824246 240.6 
L 480.171891 274.2 
L 480.519537 295.2 
L 480.867182 295.2 
L 481.214828 244.8 
L 481.562473 270 
L 481.910119 270 
L 482.257764 307.8 
L 482.60541 257.4 
L 483.300701 207 
L 483.648346 257.4 
L 483.995992 219.6 
L 484.343637 207 
L 484.691283 118.8 
L 485.038928 131.4 
L 485.386574 169.2 
L 485.734219 194.4 
L 486.081865 169.2 
L 486.777156 55.8 
L 487.124801 93.6 
L 487.472447 156.6 
L 487.820092 295.2 
L 488.167738 307.8 
L 488.515383 307.8 
L 488.863029 279.8 
L 489.210674 237.8 
L 489.55832 237.8 
L 489.905965 223.8 
L 490.253611 293.8 
L 490.601256 251.8 
L 490.948902 251.8 
L 491.296547 181.8 
L 491.644193 153.8 
L 491.991838 139.8 
L 492.339484 83.8 
L 492.687129 139.8 
L 493.034775 55.8 
L 493.38242 125.8 
L 493.730066 139.8 
L 494.077711 195.8 
L 494.425357 209.8 
L 494.773002 139.8 
L 495.120648 97.8 
L 495.468293 139.8 
L 495.815939 209.8 
L 496.163584 307.8 
L 496.51123 279.8 
L 496.858875 279.8 
L 497.206521 274.2 
L 497.554166 307.8 
L 497.901812 291 
L 498.249457 173.4 
L 498.944748 173.4 
L 499.292394 240.6 
L 499.640039 190.2 
L 499.987685 173.4 
L 500.33533 207 
L 500.682976 89.4 
L 501.030621 55.8 
L 501.378267 55.8 
L 501.725912 190.2 
L 502.421203 257.4 
L 503.116494 106.2 
L 503.46414 106.2 
L 504.159431 291 
L 504.507076 291 
L 504.854722 307.8 
L 505.202367 274.2 
L 505.550013 253.8 
L 505.897658 253.8 
L 506.245304 199.8 
L 506.592949 199.8 
L 506.940595 181.8 
L 507.28824 289.8 
L 507.635886 145.8 
L 507.983531 91.8 
L 508.331177 91.8 
L 508.678822 163.8 
L 509.026468 163.8 
L 509.374113 127.8 
L 509.721759 163.8 
L 510.41705 163.8 
L 510.764695 145.8 
L 511.112341 145.8 
L 511.459987 73.8 
L 511.807632 55.8 
L 512.155278 127.8 
L 512.502923 235.8 
L 512.850569 307.8 
L 513.198214 253.8 
L 513.54586 253.8 
L 513.893505 276.3 
L 514.241151 307.8 
L 514.588796 276.3 
L 514.936442 276.3 
L 515.284087 244.8 
L 515.979378 71.55 
L 516.327024 55.8 
L 516.674669 118.8 
L 517.022315 134.55 
L 517.36996 181.8 
L 517.717606 118.8 
L 518.065251 166.05 
L 518.412897 103.05 
L 518.760542 213.3 
L 519.108188 166.05 
L 519.455833 150.3 
L 519.803479 103.05 
L 520.49877 213.3 
L 520.846415 260.55 
L 521.194061 260.55 
L 521.541706 292.05 
L 521.889352 307.8 
L 522.236997 244.8 
L 522.584643 265.8 
L 522.932288 223.8 
L 523.279934 286.8 
L 523.627579 244.8 
L 523.975225 181.8 
L 524.32287 97.8 
L 524.670516 118.8 
L 525.018161 181.8 
L 525.365807 118.8 
L 525.713452 97.8 
L 526.061098 118.8 
L 526.408743 181.8 
L 527.45168 181.8 
L 528.146971 55.8 
L 529.189907 307.8 
L 529.537553 265.8 
L 529.885198 286.8 
L 530.232844 286.8 
L 530.580489 307.8 
L 530.928135 270 
L 531.623426 270 
L 532.318717 194.4 
L 533.014008 55.8 
L 533.361653 93.6 
L 533.709299 118.8 
L 534.056944 169.2 
L 534.40459 156.6 
L 534.752235 194.4 
L 535.099881 270 
L 535.447526 282.6 
L 535.795172 219.6 
L 536.142817 181.8 
L 536.490463 169.2 
L 536.838108 244.8 
L 537.185754 282.6 
L 537.881045 282.6 
L 538.22869 270 
L 538.576336 282.6 
L 538.923981 254.747368 
L 539.271627 214.957895 
L 539.619272 214.957895 
L 539.966918 228.221053 
L 540.314563 201.694737 
L 540.662209 188.431579 
L 541.009854 161.905263 
L 541.3575 241.484211 
L 541.705145 228.221053 
L 542.052791 254.747368 
L 542.400436 188.431579 
L 542.748082 148.642105 
L 543.095727 161.905263 
L 543.443373 241.484211 
L 543.791018 254.747368 
L 544.138664 108.852632 
L 544.486309 55.8 
L 544.833955 69.063158 
L 545.1816 214.957895 
L 545.876891 294.536842 
L 546.224537 294.536842 
L 546.572182 307.8 
L 546.919828 281.273684 
L 547.267473 199.8 
L 547.615119 199.8 
L 547.962764 235.8 
L 548.31041 289.8 
L 548.658055 217.8 
L 549.353346 181.8 
L 549.700992 253.8 
L 550.048637 235.8 
L 550.396283 145.8 
L 550.743928 91.8 
L 551.091574 55.8 
L 551.439219 217.8 
L 551.786865 253.8 
L 552.13451 253.8 
L 552.482156 181.8 
L 552.829801 145.8 
L 553.177447 217.8 
L 553.525092 253.8 
L 553.872738 307.8 
L 554.220383 289.8 
L 554.568029 253.8 
L 554.915674 253.8 
L 555.26332 271.8 
L 555.610965 307.8 
L 555.958611 199.8 
L 556.653902 199.8 
L 557.001547 217.8 
L 557.349193 181.8 
L 557.696838 109.8 
L 558.044484 163.8 
L 558.392129 145.8 
L 558.739775 91.8 
L 559.08742 73.8 
L 559.435066 109.8 
L 559.782711 235.8 
L 560.130357 217.8 
L 560.825648 55.8 
L 561.173293 109.8 
L 561.520939 217.8 
L 561.868584 271.8 
L 562.563875 271.8 
L 562.911521 289.8 
L 563.259166 217.8 
L 563.606812 217.8 
L 563.954457 229.05 
L 564.302103 276.3 
L 564.649748 229.05 
L 564.997394 229.05 
L 565.345039 197.55 
L 565.692685 197.55 
L 566.04033 166.05 
L 566.735621 229.05 
L 567.083267 166.05 
L 567.430912 150.3 
L 567.778558 118.8 
L 568.126203 181.8 
L 568.473849 197.55 
L 569.16914 55.8 
L 569.516785 87.3 
L 570.212076 307.8 
L 570.907367 307.8 
L 571.255013 276.3 
L 571.950304 276.3 
L 572.297949 307.8 
L 572.645595 307.8 
L 572.99324 240.6 
L 573.688531 173.4 
L 574.036177 190.2 
L 574.383822 223.8 
L 574.731468 207 
L 575.079113 106.2 
L 575.426759 55.8 
L 575.774404 106.2 
L 576.12205 257.4 
L 576.469695 240.6 
L 577.164986 89.4 
L 577.512632 106.2 
L 578.555568 291 
L 579.94615 291 
L 580.293796 274.2 
L 580.641441 278.152941 
L 580.989087 278.152941 
L 581.336732 233.682353 
L 581.684378 204.035294 
L 582.032023 55.8 
L 582.379669 129.917647 
L 582.727314 144.741176 
L 583.07496 218.858824 
L 583.422605 189.211765 
L 583.770251 189.211765 
L 584.117896 263.329412 
L 584.465542 292.976471 
L 585.508478 129.917647 
L 585.856124 115.094118 
L 586.89906 307.8 
L 587.246706 292.976471 
L 587.941997 292.976471 
L 588.289642 307.8 
L 588.637288 233.682353 
L 588.984933 249.646154 
L 589.332579 230.261538 
L 589.680224 259.338462 
L 590.02787 210.876923 
L 590.375515 230.261538 
L 590.723161 210.876923 
L 591.070806 239.953846 
L 591.418452 230.261538 
L 591.766097 278.723077 
L 592.113743 239.953846 
L 592.461388 220.569231 
L 592.809034 220.569231 
L 593.156679 249.646154 
L 593.504325 152.723077 
L 593.85197 113.953846 
L 594.199616 55.8 
L 594.547261 181.8 
L 594.894907 181.8 
L 595.242552 269.030769 
L 595.590198 259.338462 
L 595.937843 239.953846 
L 596.285489 239.953846 
L 596.633134 249.646154 
L 596.98078 307.8 
L 597.328425 213.3 
L 597.676071 213.3 
L 598.023716 134.55 
L 598.371362 118.8 
L 598.719007 55.8 
L 599.066653 71.55 
L 599.414298 71.55 
L 600.109589 166.05 
L 600.457235 276.3 
L 600.80488 260.55 
L 601.152526 150.3 
L 601.500171 103.05 
L 601.847817 103.05 
L 602.195462 166.05 
L 602.543108 166.05 
L 602.890753 181.8 
L 603.238399 244.8 
L 603.586044 244.8 
L 603.93369 260.55 
L 604.281335 260.55 
L 604.628981 307.8 
L 604.976626 276.3 
L 605.324272 118.8 
L 605.671917 135.981818 
L 606.019563 90.163636 
L 606.367208 124.527273 
L 606.714854 90.163636 
L 607.062499 90.163636 
L 607.410145 55.8 
L 607.75779 124.527273 
L 608.105436 135.981818 
L 608.453081 158.890909 
L 608.800727 147.436364 
L 609.148372 147.436364 
L 609.496018 204.709091 
L 609.843663 181.8 
L 610.191309 170.345455 
L 610.538954 135.981818 
L 610.8866 181.8 
L 611.581891 307.8 
L 611.929536 284.890909 
L 612.277182 284.890909 
L 612.624827 261.981818 
L 613.320118 261.981818 
L 613.667764 239.072727 
L 614.015409 232.2 
L 614.363055 144 
L 614.7107 118.8 
L 615.058346 156.6 
L 615.405991 169.2 
L 615.753637 169.2 
L 616.101282 68.4 
L 616.448928 106.2 
L 617.144219 257.4 
L 617.491864 270 
L 617.83951 219.6 
L 618.187155 194.4 
L 618.534801 55.8 
L 618.882446 81 
L 619.230092 144 
L 619.577737 307.8 
L 619.925383 295.2 
L 620.273028 295.2 
L 620.620674 270 
L 620.968319 307.8 
L 621.315965 295.2 
L 622.011256 295.2 
L 622.358901 197.55 
L 622.706547 213.3 
L 623.054192 134.55 
L 623.401838 197.55 
L 623.749483 118.8 
L 624.097129 103.05 
L 624.444774 55.8 
L 624.79242 87.3 
L 625.140065 181.8 
L 625.487711 213.3 
L 625.835356 260.55 
L 626.183002 213.3 
L 626.530647 150.3 
L 626.878293 55.8 
L 627.225938 55.8 
L 627.921229 244.8 
L 628.268875 292.05 
L 628.61652 276.3 
L 628.964166 307.8 
L 629.311811 276.3 
L 629.659457 292.05 
L 630.007102 292.05 
L 630.702393 113.953846 
L 631.050039 94.569231 
L 631.397684 172.107692 
L 632.092975 172.107692 
L 632.440621 191.492308 
L 632.788266 113.953846 
L 633.135912 94.569231 
L 633.483557 133.338462 
L 633.831203 249.646154 
L 634.526494 210.876923 
L 634.874139 152.723077 
L 635.221785 113.953846 
L 635.56943 55.8 
L 636.264721 230.261538 
L 636.612367 307.8 
L 636.960012 230.261538 
L 637.307658 249.646154 
L 637.655303 210.876923 
L 638.002949 288.415385 
L 638.69824 249.646154 
L 639.393531 163.8 
L 639.741176 217.8 
L 640.088822 253.8 
L 640.436467 271.8 
L 640.784113 217.8 
L 641.131758 181.8 
L 641.479404 199.8 
L 641.827049 235.8 
L 642.174695 253.8 
L 642.52234 217.8 
L 642.869986 127.8 
L 643.217631 127.8 
L 643.565277 55.8 
L 643.912922 145.8 
L 644.260568 163.8 
L 644.608213 289.8 
L 644.955859 307.8 
L 645.998795 307.8 
L 646.694086 199.8 
L 647.041732 199.8 
L 647.389377 194.4 
L 648.084669 169.2 
L 648.432314 181.8 
L 648.77996 219.6 
L 649.127605 207 
L 649.475251 207 
L 649.822896 219.6 
L 650.170542 219.6 
L 650.518187 282.6 
L 650.865833 207 
L 651.213478 156.6 
L 651.561124 55.8 
L 651.908769 93.6 
L 652.60406 257.4 
L 652.951706 282.6 
L 653.299351 257.4 
L 653.646997 270 
L 653.994642 270 
L 654.342288 295.2 
L 654.689933 295.2 
L 655.037579 307.8 
L 655.385224 257.4 
L 655.73287 131.4 
L 656.080515 81 
L 656.775806 232.2 
L 657.123452 106.2 
L 657.471097 55.8 
L 657.818743 55.8 
L 658.166388 81 
L 658.514034 156.6 
L 658.861679 181.8 
L 659.209325 257.4 
L 659.55697 207 
L 659.904616 106.2 
L 660.252261 55.8 
L 660.599907 81 
L 660.947552 207 
L 661.295198 156.6 
L 661.642843 181.8 
L 661.990489 156.6 
L 662.338134 307.8 
L 662.68578 307.8 
L 663.033425 257.4 
L 663.381071 181.8 
L 663.728716 181.8 
L 664.076362 223.8 
L 664.424007 205.133333 
L 664.771653 167.8 
L 665.466944 261.133333 
L 665.814589 242.466667 
L 666.162235 261.133333 
L 666.50988 270.466667 
L 666.857526 289.133333 
L 667.205171 279.8 
L 667.552817 195.8 
L 667.900462 139.8 
L 668.248108 55.8 
L 668.595753 139.8 
L 668.943399 195.8 
L 669.291044 279.8 
L 669.63869 279.8 
L 669.986335 307.8 
L 670.681626 214.466667 
L 671.029272 223.8 
L 671.376917 279.8 
L 671.724563 289.133333 
L 672.072208 261.133333 
L 672.419854 189.211765 
L 672.767499 189.211765 
L 673.115145 159.564706 
L 673.46279 55.8 
L 673.810436 100.270588 
L 674.158081 115.094118 
L 674.505727 218.858824 
L 674.853372 204.035294 
L 675.201018 233.682353 
L 675.548663 248.505882 
L 675.896309 218.858824 
L 676.243954 233.682353 
L 676.5916 174.388235 
L 676.939245 174.388235 
L 677.286891 159.564706 
L 677.982182 292.976471 
L 678.329827 263.329412 
L 678.677473 248.505882 
L 679.025118 218.858824 
L 679.372764 278.152941 
L 680.068055 307.8 
L 680.4157 174.388235 
L 680.763346 174.388235 
L 681.110991 189.211765 
L 681.458637 292.976471 
L 681.806282 307.8 
L 682.501573 204.035294 
L 682.849219 100.270588 
L 683.196864 115.094118 
L 683.54451 85.447059 
L 683.892155 85.447059 
L 684.239801 55.8 
L 684.935092 233.682353 
L 685.282737 204.035294 
L 685.630383 100.270588 
L 685.978028 55.8 
L 686.325674 129.917647 
L 686.673319 248.505882 
L 687.020965 307.8 
L 687.36861 263.329412 
L 687.716256 263.329412 
L 688.063901 204.035294 
L 688.411547 278.152941 
L 688.759192 278.152941 
L 689.106838 284.890909 
L 689.802129 284.890909 
L 690.149774 193.254545 
L 690.49742 193.254545 
L 690.845065 170.345455 
L 691.192711 193.254545 
L 691.540356 170.345455 
L 691.888002 78.709091 
L 692.235647 147.436364 
L 692.583293 78.709091 
L 693.278584 78.709091 
L 693.973875 216.163636 
L 694.32152 170.345455 
L 694.669166 147.436364 
L 695.016811 55.8 
L 695.712102 147.436364 
L 696.059748 216.163636 
L 696.407393 261.981818 
L 696.755039 261.981818 
L 697.102684 307.8 
L 697.45033 271.8 
L 697.797975 271.8 
L 698.145621 283.8 
L 698.493266 271.8 
L 699.883848 271.8 
L 700.231494 211.8 
L 700.579139 211.8 
L 700.926785 115.8 
L 701.27443 91.8 
L 701.622076 55.8 
L 701.969721 151.8 
L 702.665012 247.8 
L 703.012658 199.8 
L 703.360303 211.8 
L 703.707949 211.8 
L 704.055594 115.8 
L 704.750885 163.8 
L 705.098531 307.8 
L 705.446176 283.8 
L 705.793822 292.05 
L 706.141467 244.8 
L 706.489113 276.3 
L 706.836758 260.55 
L 707.184404 307.8 
L 707.532049 307.8 
L 707.879695 292.05 
L 708.574986 292.05 
L 708.922631 276.3 
L 709.270277 229.05 
L 709.965568 87.3 
L 710.313213 55.8 
L 710.660859 134.55 
L 711.008504 166.05 
L 711.35615 244.8 
L 711.703795 197.55 
L 712.051441 229.05 
L 712.399086 118.8 
L 712.746732 103.05 
L 713.094377 150.3 
L 713.442023 213.3 
L 713.789668 229.05 
L 714.484959 181.8 
L 714.832605 244.8 
L 715.18025 244.8 
L 715.527896 307.8 
L 716.223187 307.8 
L 716.570832 286.8 
L 716.918478 286.8 
L 717.266123 223.8 
L 717.613769 265.8 
L 717.961414 160.8 
L 718.30906 160.8 
L 718.656705 76.8 
L 719.004351 139.8 
L 719.351996 139.8 
L 719.699642 118.8 
L 720.047287 139.8 
L 720.394933 118.8 
L 720.742578 160.8 
L 721.090224 55.8 
L 721.437869 55.8 
L 721.785515 97.8 
L 722.13316 223.8 
L 722.480806 257.4 
L 722.828451 223.8 
L 723.176097 223.8 
L 723.523742 274.2 
L 723.871388 307.8 
L 724.219033 307.8 
L 724.566679 291 
L 724.914324 307.8 
L 725.26197 257.4 
L 725.609615 274.2 
L 726.304906 240.6 
L 726.652552 173.4 
L 727.000197 139.8 
L 727.695488 207 
L 728.043134 123 
L 728.738425 190.2 
L 729.08607 240.6 
L 729.433716 173.4 
L 729.781361 55.8 
L 730.129007 89.4 
L 730.476652 156.6 
L 730.824298 271.8 
L 731.171943 307.8 
L 731.519589 307.8 
L 731.867234 295.8 
L 732.21488 271.8 
L 732.910171 271.8 
L 733.257816 295.8 
L 733.605462 259.8 
L 733.953107 271.8 
L 734.648398 271.8 
L 734.996044 199.8 
L 735.343689 187.8 
L 735.691335 151.8 
L 736.03898 187.8 
L 736.386626 91.8 
L 736.734271 151.8 
L 737.081917 187.8 
L 737.429562 235.8 
L 737.777208 199.8 
L 738.124853 151.8 
L 738.472499 127.8 
L 738.820144 55.8 
L 739.16779 93.6 
L 739.863081 270 
L 740.558372 270 
L 740.906017 282.6 
L 741.601308 282.6 
L 741.948954 307.8 
L 742.296599 244.8 
L 742.644245 244.8 
L 742.99189 219.6 
L 743.339536 244.8 
L 743.687181 219.6 
L 744.034827 207 
L 744.382472 156.6 
L 744.730118 156.6 
L 745.077763 93.6 
L 745.425409 156.6 
L 745.773054 156.6 
L 746.1207 207 
L 746.468345 169.2 
L 746.815991 81 
L 747.163636 55.8 
L 747.163636 55.8 
" clip-path="url(#p14b889adec)" style="fill: none; stroke: #191970; stroke-width: 2; stroke-linecap: square"/>
   </g>
   <g id="patch_3">
    <path d="M 108 320.4 
L 108 43.2 
" style="fill: none; stroke: #000000; stroke-width: 0.8; stroke-linejoin: miter; stroke-linecap: square"/>
   </g>
   <g id="patch_4">
    <path d="M 777.6 320.4 
L 777.6 43.2 
" style="fill: none; stroke: #000000; stroke-width: 0.8; stroke-linejoin: miter; stroke-linecap: square"/>
   </g>
   <g id="patch_5">
    <path d="M 108 320.4 
L 777.6 320.4 
" style="fill: none; stroke: #000000; stroke-width: 0.8; stroke-linejoin: miter; stroke-linecap: square"/>
   </g>
   <g id="patch_6">
    <path d="M 108 43.2 
L 777.6 43.2 
" style="fill: none; stroke: #000000; stroke-width: 0.8; stroke-linejoin: miter; stroke-linecap: square"/>
   </g>
   <g id="text_14">
    <!-- TIME SERIES -->
    <g transform="translate(399.109062 37.2) scale(0.14 -0.14)">
     <defs>
      <path id="DejaVuSans-52" d="M 2841 2188 
Q 3044 2119 3236 1894 
Q 3428 1669 3622 1275 
L 4263 0 
L 3584 0 
L 2988 1197 
Q 2756 1666 2539 1819 
Q 2322 1972 1947 1972 
L 1259 1972 
L 1259 0 
L 628 0 
L 628 4666 
L 2053 4666 
Q 2853 4666 3247 4331 
Q 3641 3997 3641 3322 
Q 3641 2881 3436 2590 
Q 3231 2300 2841 2188 
z
M 1259 4147 
L 1259 2491 
L 2053 2491 
Q 2509 2491 2742 2702 
Q 2975 2913 2975 3322 
Q 2975 3731 2742 3939 
Q 2509 4147 2053 4147 
L 1259 4147 
z
" transform="scale(0.015625)"/>
     </defs>
     <use xlink:href="#DejaVuSans-54"/>
     <use xlink:href="#DejaVuSans-49" x="61.083984"/>
     <use xlink:href="#DejaVuSans-4d" x="90.576172"/>
     <use xlink:href="#DejaVuSans-45" x="176.855469"/>
     <use xlink:href="#DejaVuSans-20" x="240.039062"/>
     <use xlink:href="#DejaVuSans-53" x="271.826172"/>
     <use xlink:href="#DejaVuSans-45" x="335.302734"/>
     <use xlink:href="#DejaVuSans-52" x="398.486328"/>
     <use xlink:href="#DejaVuSans-49" x="467.96875"/>
     <use xlink:href="#DejaVuSans-45" x="497.460938"/>
     <use xlink:href="#DejaVuSans-53" x="560.644531"/>
    </g>
   </g>
  </g>
 </g>
 <defs>
  <clipPath id="p14b889adec">
   <rect x="108" y="43.2" width="669.6" height="277.2"/>
  </clipPath>
 </defs>
</svg>
