<?xml version="1.0" encoding="utf-8" standalone="no"?>
<!DOCTYPE svg PUBLIC "-//W3C//DTD SVG 1.1//EN"
  "http://www.w3.org/Graphics/SVG/1.1/DTD/svg11.dtd">
<svg xmlns:xlink="http://www.w3.org/1999/xlink" width="504pt" height="504pt" viewBox="0 0 504 504" xmlns="http://www.w3.org/2000/svg" version="1.1">
 <metadata>
  <rdf:RDF xmlns:dc="http://purl.org/dc/elements/1.1/" xmlns:cc="http://creativecommons.org/ns#" xmlns:rdf="http://www.w3.org/1999/02/22-rdf-syntax-ns#">
   <cc:Work>
    <dc:type rdf:resource="http://purl.org/dc/dcmitype/StillImage"/>
    <dc:date>2023-11-28T17:32:08.720714</dc:date>
    <dc:format>image/svg+xml</dc:format>
    <dc:creator>
     <cc:Agent>
      <dc:title>Matplotlib v3.7.4, https://matplotlib.org/</dc:title>
     </cc:Agent>
    </dc:creator>
   </cc:Work>
  </rdf:RDF>
 </metadata>
 <defs>
  <style type="text/css">*{stroke-linejoin: round; stroke-linecap: butt}</style>
 </defs>
 <g id="figure_1">
  <g id="patch_1">
   <path d="M 0 504 
L 504 504 
L 504 0 
L 0 0 
z
" style="fill: #ffffff"/>
  </g>
  <g id="axes_1">
   <g id="patch_2">
    <path d="M 59.344 233.07 
L 269.122 233.07 
L 269.122 79.56 
L 59.344 79.56 
z
" style="fill: #ffffff"/>
   </g>
   <g id="matplotlib.axis_1">
    <g id="xtick_1">
     <g id="line2d_1">
      <defs>
       <path id="m4a1f5a2bd6" d="M 0 0 
L 0 3.5 
" style="stroke: #000000; stroke-width: 0.8"/>
      </defs>
      <g>
       <use xlink:href="#m4a1f5a2bd6" x="60.587743" y="233.07" style="stroke: #000000; stroke-width: 0.8"/>
      </g>
     </g>
    </g>
    <g id="xtick_2">
     <g id="line2d_2">
      <g>
       <use xlink:href="#m4a1f5a2bd6" x="143.503949" y="233.07" style="stroke: #000000; stroke-width: 0.8"/>
      </g>
     </g>
    </g>
    <g id="xtick_3">
     <g id="line2d_3">
      <g>
       <use xlink:href="#m4a1f5a2bd6" x="226.420154" y="233.07" style="stroke: #000000; stroke-width: 0.8"/>
      </g>
     </g>
    </g>
   </g>
   <g id="matplotlib.axis_2">
    <g id="ytick_1">
     <g id="line2d_4">
      <defs>
       <path id="mfba702b6a4" d="M 0 0 
L -3.5 0 
" style="stroke: #000000; stroke-width: 0.8"/>
      </defs>
      <g>
       <use xlink:href="#mfba702b6a4" x="59.344" y="226.092281" style="stroke: #000000; stroke-width: 0.8"/>
      </g>
     </g>
     <g id="text_1">
      <!-- 0 -->
      <g transform="translate(43.4365 231.411187) scale(0.14 -0.14)">
       <defs>
        <path id="DejaVuSans-30" d="M 2034 4250 
Q 1547 4250 1301 3770 
Q 1056 3291 1056 2328 
Q 1056 1369 1301 889 
Q 1547 409 2034 409 
Q 2525 409 2770 889 
Q 3016 1369 3016 2328 
Q 3016 3291 2770 3770 
Q 2525 4250 2034 4250 
z
M 2034 4750 
Q 2819 4750 3233 4129 
Q 3647 3509 3647 2328 
Q 3647 1150 3233 529 
Q 2819 -91 2034 -91 
Q 1250 -91 836 529 
Q 422 1150 422 2328 
Q 422 3509 836 4129 
Q 1250 4750 2034 4750 
z
" transform="scale(0.015625)"/>
       </defs>
       <use xlink:href="#DejaVuSans-30"/>
      </g>
     </g>
    </g>
    <g id="ytick_2">
     <g id="line2d_5">
      <g>
       <use xlink:href="#mfba702b6a4" x="59.344" y="174.478547" style="stroke: #000000; stroke-width: 0.8"/>
      </g>
     </g>
     <g id="text_2">
      <!-- 2 -->
      <g transform="translate(43.4365 179.797453) scale(0.14 -0.14)">
       <defs>
        <path id="DejaVuSans-32" d="M 1228 531 
L 3431 531 
L 3431 0 
L 469 0 
L 469 531 
Q 828 903 1448 1529 
Q 2069 2156 2228 2338 
Q 2531 2678 2651 2914 
Q 2772 3150 2772 3378 
Q 2772 3750 2511 3984 
Q 2250 4219 1831 4219 
Q 1534 4219 1204 4116 
Q 875 4013 500 3803 
L 500 4441 
Q 881 4594 1212 4672 
Q 1544 4750 1819 4750 
Q 2544 4750 2975 4387 
Q 3406 4025 3406 3419 
Q 3406 3131 3298 2873 
Q 3191 2616 2906 2266 
Q 2828 2175 2409 1742 
Q 1991 1309 1228 531 
z
" transform="scale(0.015625)"/>
       </defs>
       <use xlink:href="#DejaVuSans-32"/>
      </g>
     </g>
    </g>
    <g id="ytick_3">
     <g id="line2d_6">
      <g>
       <use xlink:href="#mfba702b6a4" x="59.344" y="122.864813" style="stroke: #000000; stroke-width: 0.8"/>
      </g>
     </g>
     <g id="text_3">
      <!-- 4 -->
      <g transform="translate(43.4365 128.183719) scale(0.14 -0.14)">
       <defs>
        <path id="DejaVuSans-34" d="M 2419 4116 
L 825 1625 
L 2419 1625 
L 2419 4116 
z
M 2253 4666 
L 3047 4666 
L 3047 1625 
L 3713 1625 
L 3713 1100 
L 3047 1100 
L 3047 0 
L 2419 0 
L 2419 1100 
L 313 1100 
L 313 1709 
L 2253 4666 
z
" transform="scale(0.015625)"/>
       </defs>
       <use xlink:href="#DejaVuSans-34"/>
      </g>
     </g>
    </g>
    <g id="text_4">
     <!-- 1e7 -->
     <g transform="translate(59.344 76.56) scale(0.1 -0.1)">
      <defs>
       <path id="DejaVuSans-31" d="M 794 531 
L 1825 531 
L 1825 4091 
L 703 3866 
L 703 4441 
L 1819 4666 
L 2450 4666 
L 2450 531 
L 3481 531 
L 3481 0 
L 794 0 
L 794 531 
z
" transform="scale(0.015625)"/>
       <path id="DejaVuSans-65" d="M 3597 1894 
L 3597 1613 
L 953 1613 
Q 991 1019 1311 708 
Q 1631 397 2203 397 
Q 2534 397 2845 478 
Q 3156 559 3463 722 
L 3463 178 
Q 3153 47 2828 -22 
Q 2503 -91 2169 -91 
Q 1331 -91 842 396 
Q 353 884 353 1716 
Q 353 2575 817 3079 
Q 1281 3584 2069 3584 
Q 2775 3584 3186 3129 
Q 3597 2675 3597 1894 
z
M 3022 2063 
Q 3016 2534 2758 2815 
Q 2500 3097 2075 3097 
Q 1594 3097 1305 2825 
Q 1016 2553 972 2059 
L 3022 2063 
z
" transform="scale(0.015625)"/>
       <path id="DejaVuSans-37" d="M 525 4666 
L 3525 4666 
L 3525 4397 
L 1831 0 
L 1172 0 
L 2766 4134 
L 525 4134 
L 525 4666 
z
" transform="scale(0.015625)"/>
      </defs>
      <use xlink:href="#DejaVuSans-31"/>
      <use xlink:href="#DejaVuSans-65" x="63.623047"/>
      <use xlink:href="#DejaVuSans-37" x="125.146484"/>
     </g>
    </g>
   </g>
   <g id="line2d_7">
    <path d="M 68.879364 222.110218 
L 226.420154 222.110218 
" clip-path="url(#p4f69cc4fd7)" style="fill: none; stroke-dasharray: 7.4,3.2; stroke-dashoffset: 0; stroke: #696969; stroke-width: 2"/>
   </g>
   <g id="line2d_8">
    <path d="M 226.420154 225.178188 
L 184.962051 225.138467 
L 160.08719 213.52072 
L 143.503949 225.496132 
L 131.658776 224.711251 
L 122.774897 225.924314 
L 115.865213 225.560376 
L 110.337466 210.92354 
L 105.814764 225.989901 
L 102.045846 226.014054 
L 98.856761 225.974096 
L 96.12326 225.965867 
L 93.754225 207.853251 
L 91.68132 225.728038 
L 89.852286 225.642521 
L 88.226478 226.044586 
L 86.771808 225.830365 
L 85.462605 223.278905 
L 84.278088 225.950261 
L 83.201254 226.011306 
L 82.218058 226.060169 
L 81.316794 226.068914 
L 80.487632 224.681246 
L 79.722252 225.767163 
L 79.013567 226.036941 
L 78.355501 226.009011 
L 77.74282 226.048828 
L 77.170984 225.89664 
L 76.636041 225.887848 
L 76.134532 226.06113 
L 75.663417 225.944416 
L 75.220015 226.045633 
L 74.80195 225.99508 
L 74.407111 226.045225 
L 74.033614 226.058696 
L 73.679776 226.083443 
L 73.344082 226.077022 
L 73.025174 226.078318 
L 72.721822 226.072963 
L 72.432915 226.069026 
L 72.157446 226.075052 
L 71.894498 226.059189 
L 71.643237 226.068427 
L 71.4029 226.070864 
L 71.172791 226.083772 
L 70.952269 226.078267 
L 70.740748 226.089827 
L 70.537688 225.992358 
L 70.342591 226.077277 
L 70.154998 226.083864 
L 69.974483 226.024862 
L 69.800655 226.090997 
L 69.633147 225.941805 
L 69.471622 226.074179 
L 69.315765 226.056764 
L 69.165282 225.878877 
L 69.0199 226.019587 
L 68.879364 226.088861 
" clip-path="url(#p4f69cc4fd7)" style="fill: none; stroke: #191970; stroke-width: 2; stroke-linecap: square"/>
   </g>
   <g id="patch_3">
    <path d="M 59.344 233.07 
L 59.344 79.56 
" style="fill: none; stroke: #000000; stroke-width: 0.8; stroke-linejoin: miter; stroke-linecap: square"/>
   </g>
   <g id="patch_4">
    <path d="M 59.344 233.07 
L 269.122 233.07 
" style="fill: none; stroke: #000000; stroke-width: 0.8; stroke-linejoin: miter; stroke-linecap: square"/>
   </g>
   <g id="text_5">
    <!-- 1 CONTROL DL -->
    <g transform="translate(111.854406 57.883063) scale(0.14 -0.14)">
     <defs>
      <path id="DejaVuSans-20" transform="scale(0.015625)"/>
      <path id="DejaVuSans-43" d="M 4122 4306 
L 4122 3641 
Q 3803 3938 3442 4084 
Q 3081 4231 2675 4231 
Q 1875 4231 1450 3742 
Q 1025 3253 1025 2328 
Q 1025 1406 1450 917 
Q 1875 428 2675 428 
Q 3081 428 3442 575 
Q 3803 722 4122 1019 
L 4122 359 
Q 3791 134 3420 21 
Q 3050 -91 2638 -91 
Q 1578 -91 968 557 
Q 359 1206 359 2328 
Q 359 3453 968 4101 
Q 1578 4750 2638 4750 
Q 3056 4750 3426 4639 
Q 3797 4528 4122 4306 
z
" transform="scale(0.015625)"/>
      <path id="DejaVuSans-4f" d="M 2522 4238 
Q 1834 4238 1429 3725 
Q 1025 3213 1025 2328 
Q 1025 1447 1429 934 
Q 1834 422 2522 422 
Q 3209 422 3611 934 
Q 4013 1447 4013 2328 
Q 4013 3213 3611 3725 
Q 3209 4238 2522 4238 
z
M 2522 4750 
Q 3503 4750 4090 4092 
Q 4678 3434 4678 2328 
Q 4678 1225 4090 567 
Q 3503 -91 2522 -91 
Q 1538 -91 948 565 
Q 359 1222 359 2328 
Q 359 3434 948 4092 
Q 1538 4750 2522 4750 
z
" transform="scale(0.015625)"/>
      <path id="DejaVuSans-4e" d="M 628 4666 
L 1478 4666 
L 3547 763 
L 3547 4666 
L 4159 4666 
L 4159 0 
L 3309 0 
L 1241 3903 
L 1241 0 
L 628 0 
L 628 4666 
z
" transform="scale(0.015625)"/>
      <path id="DejaVuSans-54" d="M -19 4666 
L 3928 4666 
L 3928 4134 
L 2272 4134 
L 2272 0 
L 1638 0 
L 1638 4134 
L -19 4134 
L -19 4666 
z
" transform="scale(0.015625)"/>
      <path id="DejaVuSans-52" d="M 2841 2188 
Q 3044 2119 3236 1894 
Q 3428 1669 3622 1275 
L 4263 0 
L 3584 0 
L 2988 1197 
Q 2756 1666 2539 1819 
Q 2322 1972 1947 1972 
L 1259 1972 
L 1259 0 
L 628 0 
L 628 4666 
L 2053 4666 
Q 2853 4666 3247 4331 
Q 3641 3997 3641 3322 
Q 3641 2881 3436 2590 
Q 3231 2300 2841 2188 
z
M 1259 4147 
L 1259 2491 
L 2053 2491 
Q 2509 2491 2742 2702 
Q 2975 2913 2975 3322 
Q 2975 3731 2742 3939 
Q 2509 4147 2053 4147 
L 1259 4147 
z
" transform="scale(0.015625)"/>
      <path id="DejaVuSans-4c" d="M 628 4666 
L 1259 4666 
L 1259 531 
L 3531 531 
L 3531 0 
L 628 0 
L 628 4666 
z
" transform="scale(0.015625)"/>
      <path id="DejaVuSans-44" d="M 1259 4147 
L 1259 519 
L 2022 519 
Q 2988 519 3436 956 
Q 3884 1394 3884 2338 
Q 3884 3275 3436 3711 
Q 2988 4147 2022 4147 
L 1259 4147 
z
M 628 4666 
L 1925 4666 
Q 3281 4666 3915 4102 
Q 4550 3538 4550 2338 
Q 4550 1131 3912 565 
Q 3275 0 1925 0 
L 628 0 
L 628 4666 
z
" transform="scale(0.015625)"/>
     </defs>
     <use xlink:href="#DejaVuSans-31"/>
     <use xlink:href="#DejaVuSans-20" x="63.623047"/>
     <use xlink:href="#DejaVuSans-43" x="95.410156"/>
     <use xlink:href="#DejaVuSans-4f" x="165.234375"/>
     <use xlink:href="#DejaVuSans-4e" x="243.945312"/>
     <use xlink:href="#DejaVuSans-54" x="318.75"/>
     <use xlink:href="#DejaVuSans-52" x="379.833984"/>
     <use xlink:href="#DejaVuSans-4f" x="449.316406"/>
     <use xlink:href="#DejaVuSans-4c" x="528.027344"/>
     <use xlink:href="#DejaVuSans-20" x="583.740234"/>
     <use xlink:href="#DejaVuSans-44" x="615.527344"/>
     <use xlink:href="#DejaVuSans-4c" x="692.529297"/>
    </g>
    <!-- (PEAK ON 8.00 HOURS) -->
    <g transform="translate(82.535344 73.56) scale(0.14 -0.14)">
     <defs>
      <path id="DejaVuSans-28" d="M 1984 4856 
Q 1566 4138 1362 3434 
Q 1159 2731 1159 2009 
Q 1159 1288 1364 580 
Q 1569 -128 1984 -844 
L 1484 -844 
Q 1016 -109 783 600 
Q 550 1309 550 2009 
Q 550 2706 781 3412 
Q 1013 4119 1484 4856 
L 1984 4856 
z
" transform="scale(0.015625)"/>
      <path id="DejaVuSans-50" d="M 1259 4147 
L 1259 2394 
L 2053 2394 
Q 2494 2394 2734 2622 
Q 2975 2850 2975 3272 
Q 2975 3691 2734 3919 
Q 2494 4147 2053 4147 
L 1259 4147 
z
M 628 4666 
L 2053 4666 
Q 2838 4666 3239 4311 
Q 3641 3956 3641 3272 
Q 3641 2581 3239 2228 
Q 2838 1875 2053 1875 
L 1259 1875 
L 1259 0 
L 628 0 
L 628 4666 
z
" transform="scale(0.015625)"/>
      <path id="DejaVuSans-45" d="M 628 4666 
L 3578 4666 
L 3578 4134 
L 1259 4134 
L 1259 2753 
L 3481 2753 
L 3481 2222 
L 1259 2222 
L 1259 531 
L 3634 531 
L 3634 0 
L 628 0 
L 628 4666 
z
" transform="scale(0.015625)"/>
      <path id="DejaVuSans-41" d="M 2188 4044 
L 1331 1722 
L 3047 1722 
L 2188 4044 
z
M 1831 4666 
L 2547 4666 
L 4325 0 
L 3669 0 
L 3244 1197 
L 1141 1197 
L 716 0 
L 50 0 
L 1831 4666 
z
" transform="scale(0.015625)"/>
      <path id="DejaVuSans-4b" d="M 628 4666 
L 1259 4666 
L 1259 2694 
L 3353 4666 
L 4166 4666 
L 1850 2491 
L 4331 0 
L 3500 0 
L 1259 2247 
L 1259 0 
L 628 0 
L 628 4666 
z
" transform="scale(0.015625)"/>
      <path id="DejaVuSans-38" d="M 2034 2216 
Q 1584 2216 1326 1975 
Q 1069 1734 1069 1313 
Q 1069 891 1326 650 
Q 1584 409 2034 409 
Q 2484 409 2743 651 
Q 3003 894 3003 1313 
Q 3003 1734 2745 1975 
Q 2488 2216 2034 2216 
z
M 1403 2484 
Q 997 2584 770 2862 
Q 544 3141 544 3541 
Q 544 4100 942 4425 
Q 1341 4750 2034 4750 
Q 2731 4750 3128 4425 
Q 3525 4100 3525 3541 
Q 3525 3141 3298 2862 
Q 3072 2584 2669 2484 
Q 3125 2378 3379 2068 
Q 3634 1759 3634 1313 
Q 3634 634 3220 271 
Q 2806 -91 2034 -91 
Q 1263 -91 848 271 
Q 434 634 434 1313 
Q 434 1759 690 2068 
Q 947 2378 1403 2484 
z
M 1172 3481 
Q 1172 3119 1398 2916 
Q 1625 2713 2034 2713 
Q 2441 2713 2670 2916 
Q 2900 3119 2900 3481 
Q 2900 3844 2670 4047 
Q 2441 4250 2034 4250 
Q 1625 4250 1398 4047 
Q 1172 3844 1172 3481 
z
" transform="scale(0.015625)"/>
      <path id="DejaVuSans-2e" d="M 684 794 
L 1344 794 
L 1344 0 
L 684 0 
L 684 794 
z
" transform="scale(0.015625)"/>
      <path id="DejaVuSans-48" d="M 628 4666 
L 1259 4666 
L 1259 2753 
L 3553 2753 
L 3553 4666 
L 4184 4666 
L 4184 0 
L 3553 0 
L 3553 2222 
L 1259 2222 
L 1259 0 
L 628 0 
L 628 4666 
z
" transform="scale(0.015625)"/>
      <path id="DejaVuSans-55" d="M 556 4666 
L 1191 4666 
L 1191 1831 
Q 1191 1081 1462 751 
Q 1734 422 2344 422 
Q 2950 422 3222 751 
Q 3494 1081 3494 1831 
L 3494 4666 
L 4128 4666 
L 4128 1753 
Q 4128 841 3676 375 
Q 3225 -91 2344 -91 
Q 1459 -91 1007 375 
Q 556 841 556 1753 
L 556 4666 
z
" transform="scale(0.015625)"/>
      <path id="DejaVuSans-53" d="M 3425 4513 
L 3425 3897 
Q 3066 4069 2747 4153 
Q 2428 4238 2131 4238 
Q 1616 4238 1336 4038 
Q 1056 3838 1056 3469 
Q 1056 3159 1242 3001 
Q 1428 2844 1947 2747 
L 2328 2669 
Q 3034 2534 3370 2195 
Q 3706 1856 3706 1288 
Q 3706 609 3251 259 
Q 2797 -91 1919 -91 
Q 1588 -91 1214 -16 
Q 841 59 441 206 
L 441 856 
Q 825 641 1194 531 
Q 1563 422 1919 422 
Q 2459 422 2753 634 
Q 3047 847 3047 1241 
Q 3047 1584 2836 1778 
Q 2625 1972 2144 2069 
L 1759 2144 
Q 1053 2284 737 2584 
Q 422 2884 422 3419 
Q 422 4038 858 4394 
Q 1294 4750 2059 4750 
Q 2388 4750 2728 4690 
Q 3069 4631 3425 4513 
z
" transform="scale(0.015625)"/>
      <path id="DejaVuSans-29" d="M 513 4856 
L 1013 4856 
Q 1481 4119 1714 3412 
Q 1947 2706 1947 2009 
Q 1947 1309 1714 600 
Q 1481 -109 1013 -844 
L 513 -844 
Q 928 -128 1133 580 
Q 1338 1288 1338 2009 
Q 1338 2731 1133 3434 
Q 928 4138 513 4856 
z
" transform="scale(0.015625)"/>
     </defs>
     <use xlink:href="#DejaVuSans-28"/>
     <use xlink:href="#DejaVuSans-50" x="39.013672"/>
     <use xlink:href="#DejaVuSans-45" x="99.316406"/>
     <use xlink:href="#DejaVuSans-41" x="162.5"/>
     <use xlink:href="#DejaVuSans-4b" x="230.908203"/>
     <use xlink:href="#DejaVuSans-20" x="296.484375"/>
     <use xlink:href="#DejaVuSans-4f" x="328.271484"/>
     <use xlink:href="#DejaVuSans-4e" x="406.982422"/>
     <use xlink:href="#DejaVuSans-20" x="481.787109"/>
     <use xlink:href="#DejaVuSans-38" x="513.574219"/>
     <use xlink:href="#DejaVuSans-2e" x="577.197266"/>
     <use xlink:href="#DejaVuSans-30" x="608.984375"/>
     <use xlink:href="#DejaVuSans-30" x="672.607422"/>
     <use xlink:href="#DejaVuSans-20" x="736.230469"/>
     <use xlink:href="#DejaVuSans-48" x="768.017578"/>
     <use xlink:href="#DejaVuSans-4f" x="843.212891"/>
     <use xlink:href="#DejaVuSans-55" x="921.923828"/>
     <use xlink:href="#DejaVuSans-52" x="995.117188"/>
     <use xlink:href="#DejaVuSans-53" x="1064.599609"/>
     <use xlink:href="#DejaVuSans-29" x="1128.076172"/>
    </g>
   </g>
  </g>
  <g id="axes_2">
   <g id="patch_5">
    <path d="M 283.422 233.07 
L 493.2 233.07 
L 493.2 79.56 
L 283.422 79.56 
z
" style="fill: #ffffff"/>
   </g>
   <g id="matplotlib.axis_3">
    <g id="xtick_4">
     <g id="line2d_9">
      <g>
       <use xlink:href="#m4a1f5a2bd6" x="284.665743" y="233.07" style="stroke: #000000; stroke-width: 0.8"/>
      </g>
     </g>
    </g>
    <g id="xtick_5">
     <g id="line2d_10">
      <g>
       <use xlink:href="#m4a1f5a2bd6" x="367.581949" y="233.07" style="stroke: #000000; stroke-width: 0.8"/>
      </g>
     </g>
    </g>
    <g id="xtick_6">
     <g id="line2d_11">
      <g>
       <use xlink:href="#m4a1f5a2bd6" x="450.498154" y="233.07" style="stroke: #000000; stroke-width: 0.8"/>
      </g>
     </g>
    </g>
   </g>
   <g id="matplotlib.axis_4">
    <g id="ytick_4">
     <g id="line2d_12">
      <g>
       <use xlink:href="#mfba702b6a4" x="283.422" y="226.092281" style="stroke: #000000; stroke-width: 0.8"/>
      </g>
     </g>
    </g>
    <g id="ytick_5">
     <g id="line2d_13">
      <g>
       <use xlink:href="#mfba702b6a4" x="283.422" y="174.478547" style="stroke: #000000; stroke-width: 0.8"/>
      </g>
     </g>
    </g>
    <g id="ytick_6">
     <g id="line2d_14">
      <g>
       <use xlink:href="#mfba702b6a4" x="283.422" y="122.864813" style="stroke: #000000; stroke-width: 0.8"/>
      </g>
     </g>
    </g>
   </g>
   <g id="line2d_15">
    <path d="M 292.957364 221.752777 
L 483.664636 221.752777 
" clip-path="url(#p0f01183028)" style="fill: none; stroke-dasharray: 7.4,3.2; stroke-dashoffset: 0; stroke: #696969; stroke-width: 2"/>
   </g>
   <g id="line2d_16">
    <path d="M 483.664636 222.30417 
L 468.357029 225.652444 
L 455.236223 224.628702 
L 443.864858 225.580353 
L 433.914913 225.333688 
L 425.13555 225.932159 
L 417.331672 224.956765 
L 410.349255 225.043181 
L 404.065079 224.088047 
L 398.379396 225.459886 
L 393.210594 223.088595 
L 388.491253 223.195421 
L 384.16519 86.537727 
L 380.185212 222.483652 
L 376.511386 225.083188 
L 373.109696 225.871052 
L 369.950983 225.503947 
L 367.010113 226.063889 
L 364.2653 225.214944 
L 361.697573 225.464325 
L 359.290328 225.090697 
L 357.028977 226.032089 
L 354.900647 224.779759 
L 352.893935 225.032398 
L 350.998708 225.88728 
L 349.205925 225.875766 
L 347.507499 223.746246 
L 345.896172 224.918149 
L 342.909322 225.856957 
L 341.52257 224.749926 
L 340.200318 225.974689 
L 338.938169 224.840279 
L 336.578498 226.031731 
L 335.473971 224.373136 
L 334.415466 218.212626 
L 333.400166 220.115454 
L 332.425477 225.734829 
L 331.489012 225.559804 
L 330.588565 226.063262 
L 329.722096 226.038587 
L 328.887719 225.774204 
L 328.083683 225.936131 
L 327.308363 225.655782 
L 326.560247 225.991226 
L 325.837928 225.200311 
L 325.140094 225.611148 
L 324.465522 224.370575 
L 323.813066 225.929376 
L 323.181658 224.911951 
L 322.570294 224.454919 
L 321.978036 225.698817 
L 320.84736 225.606354 
L 320.307336 225.492251 
L 319.783195 225.732552 
L 319.274246 225.018266 
L 318.779839 225.985333 
L 318.299359 224.769171 
L 317.832225 221.960886 
L 317.37789 223.55665 
L 316.935834 224.09301 
L 316.505566 223.456772 
L 316.086621 225.837479 
L 315.678558 225.89129 
L 314.893423 225.786515 
L 314.515577 225.399148 
L 314.147061 225.983763 
L 313.787532 226.031559 
L 313.094156 225.105202 
L 312.759704 226.053174 
L 312.433031 225.755253 
L 311.198929 225.918339 
L 310.907355 223.488477 
L 310.62212 226.059134 
L 310.34302 224.534453 
L 310.069857 225.915333 
L 309.802445 224.822705 
L 309.540605 220.054794 
L 309.284163 220.384456 
L 308.54561 225.979092 
L 308.309176 226.064066 
L 308.077378 225.672947 
L 307.627154 226.068764 
L 307.408474 224.742418 
L 307.19392 225.899427 
L 306.983376 225.61115 
L 306.573878 226.046026 
L 306.374713 225.766745 
L 306.179137 226.073281 
L 305.987053 225.83166 
L 305.798369 226.080973 
L 304.732858 226.006658 
L 304.565632 222.900456 
L 304.401171 224.301035 
L 304.239405 224.530172 
L 304.080269 226.039606 
L 303.9237 226.018561 
L 303.618019 225.873357 
L 303.468788 225.876228 
L 303.321889 225.992112 
L 303.034872 225.813488 
L 302.894649 226.050225 
L 302.62053 226.014165 
L 302.486539 225.838991 
L 302.224469 226.08828 
L 301.601819 225.936429 
L 301.482551 226.018296 
L 301.364951 225.939587 
L 301.248984 226.028505 
L 301.134617 224.729808 
L 301.021817 226.075914 
L 300.17215 226.01339 
L 299.87585 226.080736 
L 299.59066 226.068997 
L 299.315968 226.081243 
L 299.13839 226.089678 
L 298.389805 226.024996 
L 298.157193 226.086627 
L 294.615688 226.072826 
L 294.574402 225.864772 
L 294.533457 225.9995 
L 294.452574 226.089398 
L 294.412628 226.016776 
L 294.21769 226.08946 
L 294.030397 225.983994 
L 293.885769 226.078552 
L 293.780196 226.022145 
L 293.74554 226.044326 
L 293.677014 226.088708 
L 293.543017 225.99351 
L 293.317869 226.067347 
L 293.286634 225.99666 
L 292.957364 225.98839 
L 292.957364 225.98839 
" clip-path="url(#p0f01183028)" style="fill: none; stroke: #191970; stroke-width: 2; stroke-linecap: square"/>
   </g>
   <g id="patch_6">
    <path d="M 283.422 233.07 
L 283.422 79.56 
" style="fill: none; stroke: #000000; stroke-width: 0.8; stroke-linejoin: miter; stroke-linecap: square"/>
   </g>
   <g id="patch_7">
    <path d="M 283.422 233.07 
L 493.2 233.07 
" style="fill: none; stroke: #000000; stroke-width: 0.8; stroke-linejoin: miter; stroke-linecap: square"/>
   </g>
   <g id="text_6">
    <!-- 2 INDUCTION DD -->
    <g transform="translate(328.83725 57.883063) scale(0.14 -0.14)">
     <defs>
      <path id="DejaVuSans-49" d="M 628 4666 
L 1259 4666 
L 1259 0 
L 628 0 
L 628 4666 
z
" transform="scale(0.015625)"/>
     </defs>
     <use xlink:href="#DejaVuSans-32"/>
     <use xlink:href="#DejaVuSans-20" x="63.623047"/>
     <use xlink:href="#DejaVuSans-49" x="95.410156"/>
     <use xlink:href="#DejaVuSans-4e" x="124.902344"/>
     <use xlink:href="#DejaVuSans-44" x="199.707031"/>
     <use xlink:href="#DejaVuSans-55" x="276.708984"/>
     <use xlink:href="#DejaVuSans-43" x="349.902344"/>
     <use xlink:href="#DejaVuSans-54" x="419.726562"/>
     <use xlink:href="#DejaVuSans-49" x="480.810547"/>
     <use xlink:href="#DejaVuSans-4f" x="510.302734"/>
     <use xlink:href="#DejaVuSans-4e" x="589.013672"/>
     <use xlink:href="#DejaVuSans-20" x="663.818359"/>
     <use xlink:href="#DejaVuSans-44" x="695.605469"/>
     <use xlink:href="#DejaVuSans-44" x="772.607422"/>
    </g>
    <!-- (PEAK ON 24.00 HOURS) -->
    <g transform="translate(302.159594 73.56) scale(0.14 -0.14)">
     <use xlink:href="#DejaVuSans-28"/>
     <use xlink:href="#DejaVuSans-50" x="39.013672"/>
     <use xlink:href="#DejaVuSans-45" x="99.316406"/>
     <use xlink:href="#DejaVuSans-41" x="162.5"/>
     <use xlink:href="#DejaVuSans-4b" x="230.908203"/>
     <use xlink:href="#DejaVuSans-20" x="296.484375"/>
     <use xlink:href="#DejaVuSans-4f" x="328.271484"/>
     <use xlink:href="#DejaVuSans-4e" x="406.982422"/>
     <use xlink:href="#DejaVuSans-20" x="481.787109"/>
     <use xlink:href="#DejaVuSans-32" x="513.574219"/>
     <use xlink:href="#DejaVuSans-34" x="577.197266"/>
     <use xlink:href="#DejaVuSans-2e" x="640.820312"/>
     <use xlink:href="#DejaVuSans-30" x="672.607422"/>
     <use xlink:href="#DejaVuSans-30" x="736.230469"/>
     <use xlink:href="#DejaVuSans-20" x="799.853516"/>
     <use xlink:href="#DejaVuSans-48" x="831.640625"/>
     <use xlink:href="#DejaVuSans-4f" x="906.835938"/>
     <use xlink:href="#DejaVuSans-55" x="985.546875"/>
     <use xlink:href="#DejaVuSans-52" x="1058.740234"/>
     <use xlink:href="#DejaVuSans-53" x="1128.222656"/>
     <use xlink:href="#DejaVuSans-29" x="1191.699219"/>
    </g>
   </g>
  </g>
  <g id="axes_3">
   <g id="patch_8">
    <path d="M 59.344 444.44 
L 269.122 444.44 
L 269.122 290.93 
L 59.344 290.93 
z
" style="fill: #ffffff"/>
   </g>
   <g id="matplotlib.axis_5">
    <g id="xtick_7">
     <g id="line2d_17">
      <g>
       <use xlink:href="#m4a1f5a2bd6" x="60.587743" y="444.44" style="stroke: #000000; stroke-width: 0.8"/>
      </g>
     </g>
     <g id="text_7">
      <!-- 0 -->
      <g transform="translate(56.133993 462.077812) scale(0.14 -0.14)">
       <use xlink:href="#DejaVuSans-30"/>
      </g>
     </g>
    </g>
    <g id="xtick_8">
     <g id="line2d_18">
      <g>
       <use xlink:href="#m4a1f5a2bd6" x="143.503949" y="444.44" style="stroke: #000000; stroke-width: 0.8"/>
      </g>
     </g>
     <g id="text_8">
      <!-- 20 -->
      <g transform="translate(134.596449 462.077812) scale(0.14 -0.14)">
       <use xlink:href="#DejaVuSans-32"/>
       <use xlink:href="#DejaVuSans-30" x="63.623047"/>
      </g>
     </g>
    </g>
    <g id="xtick_9">
     <g id="line2d_19">
      <g>
       <use xlink:href="#m4a1f5a2bd6" x="226.420154" y="444.44" style="stroke: #000000; stroke-width: 0.8"/>
      </g>
     </g>
     <g id="text_9">
      <!-- 40 -->
      <g transform="translate(217.512654 462.077812) scale(0.14 -0.14)">
       <use xlink:href="#DejaVuSans-34"/>
       <use xlink:href="#DejaVuSans-30" x="63.623047"/>
      </g>
     </g>
    </g>
   </g>
   <g id="matplotlib.axis_6">
    <g id="ytick_7">
     <g id="line2d_20">
      <g>
       <use xlink:href="#mfba702b6a4" x="59.344" y="437.462281" style="stroke: #000000; stroke-width: 0.8"/>
      </g>
     </g>
     <g id="text_10">
      <!-- 0 -->
      <g transform="translate(43.4365 442.781187) scale(0.14 -0.14)">
       <use xlink:href="#DejaVuSans-30"/>
      </g>
     </g>
    </g>
    <g id="ytick_8">
     <g id="line2d_21">
      <g>
       <use xlink:href="#mfba702b6a4" x="59.344" y="385.848547" style="stroke: #000000; stroke-width: 0.8"/>
      </g>
     </g>
     <g id="text_11">
      <!-- 2 -->
      <g transform="translate(43.4365 391.167453) scale(0.14 -0.14)">
       <use xlink:href="#DejaVuSans-32"/>
      </g>
     </g>
    </g>
    <g id="ytick_9">
     <g id="line2d_22">
      <g>
       <use xlink:href="#mfba702b6a4" x="59.344" y="334.234813" style="stroke: #000000; stroke-width: 0.8"/>
      </g>
     </g>
     <g id="text_12">
      <!-- 4 -->
      <g transform="translate(43.4365 339.553719) scale(0.14 -0.14)">
       <use xlink:href="#DejaVuSans-34"/>
      </g>
     </g>
    </g>
    <g id="text_13">
     <!-- 1e7 -->
     <g transform="translate(59.344 287.93) scale(0.1 -0.1)">
      <use xlink:href="#DejaVuSans-31"/>
      <use xlink:href="#DejaVuSans-65" x="63.623047"/>
      <use xlink:href="#DejaVuSans-37" x="125.146484"/>
     </g>
    </g>
   </g>
   <g id="line2d_23">
    <path d="M 68.879364 434.567144 
L 259.586636 434.567144 
" clip-path="url(#p9b6df3a1cf)" style="fill: none; stroke-dasharray: 7.4,3.2; stroke-dashoffset: 0; stroke: #696969; stroke-width: 2"/>
   </g>
   <g id="line2d_24">
    <path d="M 259.586636 437.104782 
L 241.495828 436.483555 
L 226.420154 437.250748 
L 213.663815 437.091213 
L 202.72981 436.477889 
L 193.253672 436.158418 
L 184.962051 437.297658 
L 177.645916 436.440226 
L 171.142684 434.915745 
L 165.324003 434.54064 
L 160.08719 402.036393 
L 155.349121 433.263682 
L 151.041785 436.016528 
L 147.109001 437.385155 
L 143.503949 436.893108 
L 140.1873 437.097538 
L 137.125779 436.890439 
L 131.658776 436.915626 
L 129.208051 435.992703 
L 126.920708 435.382989 
L 124.780934 437.423357 
L 122.774897 435.755787 
L 120.890438 436.101191 
L 119.116829 437.092244 
L 117.44457 436.612942 
L 115.865213 434.48218 
L 114.371228 437.216233 
L 112.955873 437.185064 
L 111.6131 434.775173 
L 110.337466 416.872834 
L 109.124059 436.645544 
L 107.968432 437.145202 
L 106.866555 437.383302 
L 105.814764 437.456447 
L 104.809719 437.043824 
L 102.045846 437.43365 
L 101.199762 437.424159 
L 100.387522 437.070998 
L 99.607134 437.439428 
L 98.856761 436.664219 
L 98.134704 437.116164 
L 97.43939 437.381074 
L 96.76936 437.217673 
L 96.12326 436.686336 
L 95.49983 437.426641 
L 94.316369 435.160009 
L 93.754225 431.438882 
L 93.210512 433.1143 
L 92.684339 436.317332 
L 92.174869 437.420039 
L 91.68132 436.872702 
L 91.202957 436.555554 
L 90.739091 437.199225 
L 90.28907 437.413206 
L 89.852286 436.726292 
L 89.428162 437.338703 
L 89.016156 437.422939 
L 88.615756 436.553243 
L 88.226478 437.148728 
L 87.847865 437.074508 
L 87.479485 437.30915 
L 87.120929 436.671677 
L 86.771808 436.91788 
L 86.431755 436.49617 
L 86.100422 437.348108 
L 85.777476 433.151685 
L 85.462605 432.911724 
L 85.155508 427.409222 
L 84.855901 436.415472 
L 84.278088 437.212196 
L 83.999378 437.262419 
L 83.727149 437.461876 
L 83.461179 437.342672 
L 83.201254 436.918292 
L 82.947169 437.261055 
L 82.698731 436.523368 
L 82.455753 437.296121 
L 82.218058 437.37619 
L 81.757838 437.082184 
L 81.534995 437.03303 
L 81.316794 437.107291 
L 81.103093 437.437862 
L 80.688641 437.083958 
L 80.487632 437.096898 
L 80.290604 436.076306 
L 80.097439 437.17991 
L 79.722252 437.228554 
L 79.540019 437.033835 
L 79.361224 437.433512 
L 79.18577 437.159303 
L 78.844522 437.417358 
L 78.515571 437.243987 
L 78.198265 437.459883 
L 77.452056 437.267982 
L 77.170984 437.366394 
L 77.033933 437.208041 
L 76.766515 437.38979 
L 76.507655 437.396501 
L 75.89535 437.447416 
L 75.778498 437.307189 
L 75.550066 437.455472 
L 72.225105 437.460502 
L 70.439173 437.372662 
L 70.295006 437.452934 
L 70.109221 437.392972 
L 69.886757 437.460646 
L 69.843506 437.3677 
L 69.800655 437.453621 
L 69.758199 437.457509 
L 69.716133 437.24956 
L 69.633147 437.375814 
L 69.51146 437.331645 
L 69.354214 437.416358 
L 69.239869 437.396844 
L 69.091969 437.457518 
L 69.055781 437.341238 
L 68.984321 437.455158 
L 68.879364 437.456077 
L 68.879364 437.456077 
" clip-path="url(#p9b6df3a1cf)" style="fill: none; stroke: #191970; stroke-width: 2; stroke-linecap: square"/>
   </g>
   <g id="patch_9">
    <path d="M 59.344 444.44 
L 59.344 290.93 
" style="fill: none; stroke: #000000; stroke-width: 0.8; stroke-linejoin: miter; stroke-linecap: square"/>
   </g>
   <g id="patch_10">
    <path d="M 59.344 444.44 
L 269.122 444.44 
" style="fill: none; stroke: #000000; stroke-width: 0.8; stroke-linejoin: miter; stroke-linecap: square"/>
   </g>
   <g id="text_14">
    <!-- 3 HYPO DD -->
    <g transform="translate(125.279094 258.654625) scale(0.14 -0.14)">
     <defs>
      <path id="DejaVuSans-33" d="M 2597 2516 
Q 3050 2419 3304 2112 
Q 3559 1806 3559 1356 
Q 3559 666 3084 287 
Q 2609 -91 1734 -91 
Q 1441 -91 1130 -33 
Q 819 25 488 141 
L 488 750 
Q 750 597 1062 519 
Q 1375 441 1716 441 
Q 2309 441 2620 675 
Q 2931 909 2931 1356 
Q 2931 1769 2642 2001 
Q 2353 2234 1838 2234 
L 1294 2234 
L 1294 2753 
L 1863 2753 
Q 2328 2753 2575 2939 
Q 2822 3125 2822 3475 
Q 2822 3834 2567 4026 
Q 2313 4219 1838 4219 
Q 1578 4219 1281 4162 
Q 984 4106 628 3988 
L 628 4550 
Q 988 4650 1302 4700 
Q 1616 4750 1894 4750 
Q 2613 4750 3031 4423 
Q 3450 4097 3450 3541 
Q 3450 3153 3228 2886 
Q 3006 2619 2597 2516 
z
" transform="scale(0.015625)"/>
      <path id="DejaVuSans-59" d="M -13 4666 
L 666 4666 
L 1959 2747 
L 3244 4666 
L 3922 4666 
L 2272 2222 
L 2272 0 
L 1638 0 
L 1638 2222 
L -13 4666 
z
" transform="scale(0.015625)"/>
     </defs>
     <use xlink:href="#DejaVuSans-33"/>
     <use xlink:href="#DejaVuSans-20" x="63.623047"/>
     <use xlink:href="#DejaVuSans-48" x="95.410156"/>
     <use xlink:href="#DejaVuSans-59" x="170.605469"/>
     <use xlink:href="#DejaVuSans-50" x="231.689453"/>
     <use xlink:href="#DejaVuSans-4f" x="291.992188"/>
     <use xlink:href="#DejaVuSans-20" x="370.703125"/>
     <use xlink:href="#DejaVuSans-44" x="402.490234"/>
     <use xlink:href="#DejaVuSans-44" x="479.492188"/>
    </g>
    <!-- (PEAK ON 24.00 HOURS) -->
    <g transform="translate(78.081594 274.331563) scale(0.14 -0.14)">
     <use xlink:href="#DejaVuSans-28"/>
     <use xlink:href="#DejaVuSans-50" x="39.013672"/>
     <use xlink:href="#DejaVuSans-45" x="99.316406"/>
     <use xlink:href="#DejaVuSans-41" x="162.5"/>
     <use xlink:href="#DejaVuSans-4b" x="230.908203"/>
     <use xlink:href="#DejaVuSans-20" x="296.484375"/>
     <use xlink:href="#DejaVuSans-4f" x="328.271484"/>
     <use xlink:href="#DejaVuSans-4e" x="406.982422"/>
     <use xlink:href="#DejaVuSans-20" x="481.787109"/>
     <use xlink:href="#DejaVuSans-32" x="513.574219"/>
     <use xlink:href="#DejaVuSans-34" x="577.197266"/>
     <use xlink:href="#DejaVuSans-2e" x="640.820312"/>
     <use xlink:href="#DejaVuSans-30" x="672.607422"/>
     <use xlink:href="#DejaVuSans-30" x="736.230469"/>
     <use xlink:href="#DejaVuSans-20" x="799.853516"/>
     <use xlink:href="#DejaVuSans-48" x="831.640625"/>
     <use xlink:href="#DejaVuSans-4f" x="906.835938"/>
     <use xlink:href="#DejaVuSans-55" x="985.546875"/>
     <use xlink:href="#DejaVuSans-52" x="1058.740234"/>
     <use xlink:href="#DejaVuSans-53" x="1128.222656"/>
     <use xlink:href="#DejaVuSans-29" x="1191.699219"/>
    </g>
   </g>
  </g>
  <g id="axes_4">
   <g id="patch_11">
    <path d="M 283.422 444.44 
L 493.2 444.44 
L 493.2 290.93 
L 283.422 290.93 
z
" style="fill: #ffffff"/>
   </g>
   <g id="matplotlib.axis_7">
    <g id="xtick_10">
     <g id="line2d_25">
      <g>
       <use xlink:href="#m4a1f5a2bd6" x="284.665743" y="444.44" style="stroke: #000000; stroke-width: 0.8"/>
      </g>
     </g>
     <g id="text_15">
      <!-- 0 -->
      <g transform="translate(280.211993 462.077812) scale(0.14 -0.14)">
       <use xlink:href="#DejaVuSans-30"/>
      </g>
     </g>
    </g>
    <g id="xtick_11">
     <g id="line2d_26">
      <g>
       <use xlink:href="#m4a1f5a2bd6" x="367.581949" y="444.44" style="stroke: #000000; stroke-width: 0.8"/>
      </g>
     </g>
     <g id="text_16">
      <!-- 20 -->
      <g transform="translate(358.674449 462.077812) scale(0.14 -0.14)">
       <use xlink:href="#DejaVuSans-32"/>
       <use xlink:href="#DejaVuSans-30" x="63.623047"/>
      </g>
     </g>
    </g>
    <g id="xtick_12">
     <g id="line2d_27">
      <g>
       <use xlink:href="#m4a1f5a2bd6" x="450.498154" y="444.44" style="stroke: #000000; stroke-width: 0.8"/>
      </g>
     </g>
     <g id="text_17">
      <!-- 40 -->
      <g transform="translate(441.590654 462.077812) scale(0.14 -0.14)">
       <use xlink:href="#DejaVuSans-34"/>
       <use xlink:href="#DejaVuSans-30" x="63.623047"/>
      </g>
     </g>
    </g>
   </g>
   <g id="matplotlib.axis_8">
    <g id="ytick_10">
     <g id="line2d_28">
      <g>
       <use xlink:href="#mfba702b6a4" x="283.422" y="437.462281" style="stroke: #000000; stroke-width: 0.8"/>
      </g>
     </g>
    </g>
    <g id="ytick_11">
     <g id="line2d_29">
      <g>
       <use xlink:href="#mfba702b6a4" x="283.422" y="385.848547" style="stroke: #000000; stroke-width: 0.8"/>
      </g>
     </g>
    </g>
    <g id="ytick_12">
     <g id="line2d_30">
      <g>
       <use xlink:href="#mfba702b6a4" x="283.422" y="334.234813" style="stroke: #000000; stroke-width: 0.8"/>
      </g>
     </g>
    </g>
   </g>
   <g id="line2d_31">
    <path d="M 292.957364 434.629724 
L 483.664636 434.629724 
" clip-path="url(#p88062bd162)" style="fill: none; stroke-dasharray: 7.4,3.2; stroke-dashoffset: 0; stroke: #696969; stroke-width: 2"/>
   </g>
   <g id="line2d_32">
    <path d="M 483.664636 436.376538 
L 450.498154 436.241457 
L 426.80781 437.431389 
L 409.040051 435.166087 
L 395.220684 428.170347 
L 384.16519 430.854639 
L 375.119785 437.01824 
L 367.581949 436.599253 
L 361.203779 436.696009 
L 355.736776 437.153423 
L 350.998708 436.455934 
L 346.852897 437.06066 
L 343.194829 437.234143 
L 339.943213 435.946896 
L 337.033873 434.707217 
L 334.415466 435.908303 
L 332.046432 437.168974 
L 329.892764 436.95893 
L 327.926372 434.258422 
L 326.123846 436.923578 
L 324.465522 437.336883 
L 322.934761 436.190686 
L 321.51739 436.661546 
L 320.20126 429.967634 
L 318.975897 423.183391 
L 317.832225 436.869593 
L 316.762339 436.448348 
L 315.75932 436.651474 
L 314.817091 437.430504 
L 313.930286 436.725084 
L 313.094156 437.045405 
L 312.304478 437.143483 
L 311.557485 437.060901 
L 310.849808 434.357732 
L 310.178422 437.236639 
L 309.540605 436.108589 
L 308.933901 437.20793 
L 308.356088 437.194602 
L 307.805149 436.514743 
L 307.279254 437.359765 
L 306.776731 437.234015 
L 306.296058 436.926433 
L 305.835838 437.265714 
L 305.394794 437.139396 
L 304.971753 436.607723 
L 304.565632 436.652451 
L 304.175439 436.949207 
L 303.800252 437.400729 
L 303.439224 436.619921 
L 303.091567 437.196525 
L 302.756552 437.372189 
L 302.433501 437.420389 
L 302.121786 436.829995 
L 301.82082 437.328015 
L 301.530056 437.254715 
L 301.248984 437.245228 
L 300.977128 437.407739 
L 300.714041 437.420855 
L 300.459306 437.413755 
L 300.212532 437.420177 
L 299.97335 437.328587 
L 299.741417 437.430554 
L 299.516407 437.396147 
L 299.298015 437.386558 
L 299.085953 437.441626 
L 298.87995 437.449247 
L 298.67975 437.427255 
L 298.485111 437.420963 
L 298.295804 437.458448 
L 298.111614 437.461072 
L 297.932336 437.458541 
L 297.757776 437.458821 
L 297.587749 437.457153 
L 297.422082 437.453832 
L 297.26061 437.456953 
L 297.103174 437.45835 
L 296.949625 437.460286 
L 296.799822 437.460853 
L 296.653628 437.459177 
L 296.510915 437.461714 
L 296.37156 437.459166 
L 296.235446 437.457743 
L 296.102461 437.450869 
L 295.972498 437.458027 
L 295.845456 437.452893 
L 295.721237 437.421383 
L 295.599748 437.452843 
L 295.4809 437.443408 
L 295.364608 437.447498 
L 295.250791 437.455756 
L 295.139369 437.455184 
L 295.030269 437.449173 
L 294.923418 437.390732 
L 294.818748 437.434331 
L 294.716192 437.423629 
L 294.615688 437.457161 
L 294.517173 437.447712 
L 294.420591 437.33612 
L 294.325884 437.429681 
L 294.232998 437.458949 
L 294.141881 437.38096 
L 294.052483 437.452561 
L 293.964757 437.44394 
L 293.878655 437.453688 
L 293.794133 437.434154 
L 293.711147 437.294349 
L 293.629657 437.419805 
L 293.549622 437.062359 
L 293.471004 437.428392 
L 293.393765 437.341575 
L 293.317869 437.267662 
L 293.243282 437.386729 
L 293.169969 437.392983 
L 293.0979 437.155967 
L 293.027041 437.384332 
L 292.957364 437.452159 
" clip-path="url(#p88062bd162)" style="fill: none; stroke: #191970; stroke-width: 2; stroke-linecap: square"/>
   </g>
   <g id="patch_12">
    <path d="M 283.422 444.44 
L 283.422 290.93 
" style="fill: none; stroke: #000000; stroke-width: 0.8; stroke-linejoin: miter; stroke-linecap: square"/>
   </g>
   <g id="patch_13">
    <path d="M 283.422 444.44 
L 493.2 444.44 
" style="fill: none; stroke: #000000; stroke-width: 0.8; stroke-linejoin: miter; stroke-linecap: square"/>
   </g>
   <g id="text_18">
    <!-- 4 HYPO DL -->
    <g transform="translate(350.846781 269.253062) scale(0.14 -0.14)">
     <use xlink:href="#DejaVuSans-34"/>
     <use xlink:href="#DejaVuSans-20" x="63.623047"/>
     <use xlink:href="#DejaVuSans-48" x="95.410156"/>
     <use xlink:href="#DejaVuSans-59" x="170.605469"/>
     <use xlink:href="#DejaVuSans-50" x="231.689453"/>
     <use xlink:href="#DejaVuSans-4f" x="291.992188"/>
     <use xlink:href="#DejaVuSans-20" x="370.703125"/>
     <use xlink:href="#DejaVuSans-44" x="402.490234"/>
     <use xlink:href="#DejaVuSans-4c" x="479.492188"/>
    </g>
    <!-- (PEAK ON 8.28 HOURS) -->
    <g transform="translate(306.613344 284.93) scale(0.14 -0.14)">
     <use xlink:href="#DejaVuSans-28"/>
     <use xlink:href="#DejaVuSans-50" x="39.013672"/>
     <use xlink:href="#DejaVuSans-45" x="99.316406"/>
     <use xlink:href="#DejaVuSans-41" x="162.5"/>
     <use xlink:href="#DejaVuSans-4b" x="230.908203"/>
     <use xlink:href="#DejaVuSans-20" x="296.484375"/>
     <use xlink:href="#DejaVuSans-4f" x="328.271484"/>
     <use xlink:href="#DejaVuSans-4e" x="406.982422"/>
     <use xlink:href="#DejaVuSans-20" x="481.787109"/>
     <use xlink:href="#DejaVuSans-38" x="513.574219"/>
     <use xlink:href="#DejaVuSans-2e" x="577.197266"/>
     <use xlink:href="#DejaVuSans-32" x="608.984375"/>
     <use xlink:href="#DejaVuSans-38" x="672.607422"/>
     <use xlink:href="#DejaVuSans-20" x="736.230469"/>
     <use xlink:href="#DejaVuSans-48" x="768.017578"/>
     <use xlink:href="#DejaVuSans-4f" x="843.212891"/>
     <use xlink:href="#DejaVuSans-55" x="921.923828"/>
     <use xlink:href="#DejaVuSans-52" x="995.117188"/>
     <use xlink:href="#DejaVuSans-53" x="1064.599609"/>
     <use xlink:href="#DejaVuSans-29" x="1128.076172"/>
    </g>
   </g>
  </g>
  <g id="text_19">
   <!-- PSD $(COUNTS^{2}/HZ)$ -->
   <g transform="translate(25.236562 338.58) rotate(-90) scale(0.18 -0.18)">
    <defs>
     <path id="DejaVuSans-Oblique-43" d="M 4447 4306 
L 4319 3641 
Q 4019 3944 3683 4091 
Q 3347 4238 2956 4238 
Q 2422 4238 2017 3981 
Q 1613 3725 1319 3200 
Q 1131 2863 1032 2486 
Q 934 2109 934 1728 
Q 934 1091 1264 756 
Q 1594 422 2222 422 
Q 2656 422 3056 561 
Q 3456 700 3834 978 
L 3688 231 
Q 3316 72 2936 -9 
Q 2556 -91 2175 -91 
Q 1278 -91 773 396 
Q 269 884 269 1753 
Q 269 2309 461 2846 
Q 653 3384 1013 3828 
Q 1394 4300 1883 4525 
Q 2372 4750 3022 4750 
Q 3422 4750 3780 4639 
Q 4138 4528 4447 4306 
z
" transform="scale(0.015625)"/>
     <path id="DejaVuSans-Oblique-4f" d="M 2919 4238 
Q 2400 4238 2003 3986 
Q 1606 3734 1313 3219 
Q 1125 2891 1026 2522 
Q 928 2153 928 1778 
Q 928 1128 1239 775 
Q 1550 422 2119 422 
Q 2631 422 3032 676 
Q 3434 931 3719 1434 
Q 3909 1772 4009 2142 
Q 4109 2513 4109 2881 
Q 4109 3528 3796 3883 
Q 3484 4238 2919 4238 
z
M 2100 -91 
Q 1241 -91 748 418 
Q 256 928 256 1813 
Q 256 2319 448 2847 
Q 641 3375 978 3788 
Q 1375 4272 1862 4511 
Q 2350 4750 2938 4750 
Q 3794 4750 4287 4245 
Q 4781 3741 4781 2869 
Q 4781 2331 4593 1812 
Q 4406 1294 4056 872 
Q 3656 384 3173 146 
Q 2691 -91 2100 -91 
z
" transform="scale(0.015625)"/>
     <path id="DejaVuSans-Oblique-55" d="M 991 4666 
L 1625 4666 
L 1075 1831 
Q 1041 1641 1027 1517 
Q 1013 1394 1013 1300 
Q 1013 869 1253 645 
Q 1494 422 1959 422 
Q 2563 422 2898 753 
Q 3234 1084 3378 1831 
L 3928 4666 
L 4563 4666 
L 4000 1753 
Q 3816 809 3300 359 
Q 2784 -91 1888 -91 
Q 1188 -91 780 261 
Q 372 613 372 1216 
Q 372 1325 387 1461 
Q 403 1597 434 1753 
L 991 4666 
z
" transform="scale(0.015625)"/>
     <path id="DejaVuSans-Oblique-4e" d="M 1081 4666 
L 1931 4666 
L 3219 666 
L 4000 4666 
L 4616 4666 
L 3706 0 
L 2853 0 
L 1569 4025 
L 788 0 
L 172 0 
L 1081 4666 
z
" transform="scale(0.015625)"/>
     <path id="DejaVuSans-Oblique-54" d="M 378 4666 
L 4325 4666 
L 4225 4134 
L 2559 4134 
L 1759 0 
L 1125 0 
L 1925 4134 
L 275 4134 
L 378 4666 
z
" transform="scale(0.015625)"/>
     <path id="DejaVuSans-Oblique-53" d="M 3859 4513 
L 3738 3897 
Q 3422 4066 3111 4152 
Q 2800 4238 2509 4238 
Q 1944 4238 1609 3991 
Q 1275 3744 1275 3334 
Q 1275 3109 1398 2989 
Q 1522 2869 2034 2731 
L 2413 2638 
Q 3053 2472 3303 2217 
Q 3553 1963 3553 1503 
Q 3553 797 2998 353 
Q 2444 -91 1538 -91 
Q 1166 -91 791 -17 
Q 416 56 38 206 
L 166 856 
Q 513 641 861 531 
Q 1209 422 1556 422 
Q 2147 422 2503 684 
Q 2859 947 2859 1369 
Q 2859 1650 2717 1795 
Q 2575 1941 2106 2059 
L 1728 2156 
Q 1081 2325 845 2545 
Q 609 2766 609 3163 
Q 609 3859 1145 4304 
Q 1681 4750 2541 4750 
Q 2875 4750 3203 4690 
Q 3531 4631 3859 4513 
z
" transform="scale(0.015625)"/>
     <path id="DejaVuSans-2f" d="M 1625 4666 
L 2156 4666 
L 531 -594 
L 0 -594 
L 1625 4666 
z
" transform="scale(0.015625)"/>
     <path id="DejaVuSans-Oblique-48" d="M 1081 4666 
L 1716 4666 
L 1344 2753 
L 3634 2753 
L 4006 4666 
L 4641 4666 
L 3731 0 
L 3097 0 
L 3531 2222 
L 1241 2222 
L 806 0 
L 172 0 
L 1081 4666 
z
" transform="scale(0.015625)"/>
     <path id="DejaVuSans-Oblique-5a" d="M 838 4666 
L 4500 4666 
L 4409 4184 
L 794 531 
L 3769 531 
L 3669 0 
L -141 0 
L -50 481 
L 3566 4134 
L 738 4134 
L 838 4666 
z
" transform="scale(0.015625)"/>
    </defs>
    <use xlink:href="#DejaVuSans-50" transform="translate(0 0.765625)"/>
    <use xlink:href="#DejaVuSans-53" transform="translate(60.302734 0.765625)"/>
    <use xlink:href="#DejaVuSans-44" transform="translate(123.779297 0.765625)"/>
    <use xlink:href="#DejaVuSans-20" transform="translate(200.78125 0.765625)"/>
    <use xlink:href="#DejaVuSans-28" transform="translate(232.568359 0.765625)"/>
    <use xlink:href="#DejaVuSans-Oblique-43" transform="translate(271.582031 0.765625)"/>
    <use xlink:href="#DejaVuSans-Oblique-4f" transform="translate(341.40625 0.765625)"/>
    <use xlink:href="#DejaVuSans-Oblique-55" transform="translate(420.117188 0.765625)"/>
    <use xlink:href="#DejaVuSans-Oblique-4e" transform="translate(493.310547 0.765625)"/>
    <use xlink:href="#DejaVuSans-Oblique-54" transform="translate(568.115234 0.765625)"/>
    <use xlink:href="#DejaVuSans-Oblique-53" transform="translate(629.199219 0.765625)"/>
    <use xlink:href="#DejaVuSans-32" transform="translate(699.876302 39.046875) scale(0.7)"/>
    <use xlink:href="#DejaVuSans-2f" transform="translate(747.14681 0.765625)"/>
    <use xlink:href="#DejaVuSans-Oblique-48" transform="translate(779.088216 0.765625)"/>
    <use xlink:href="#DejaVuSans-Oblique-5a" transform="translate(854.283529 0.765625)"/>
    <use xlink:href="#DejaVuSans-29" transform="translate(922.789388 0.765625)"/>
   </g>
  </g>
  <g id="text_20">
   <!-- PERIOD (HOUR) -->
   <g transform="translate(181.386562 495.216563) scale(0.18 -0.18)">
    <use xlink:href="#DejaVuSans-50"/>
    <use xlink:href="#DejaVuSans-45" x="60.302734"/>
    <use xlink:href="#DejaVuSans-52" x="123.486328"/>
    <use xlink:href="#DejaVuSans-49" x="192.96875"/>
    <use xlink:href="#DejaVuSans-4f" x="222.460938"/>
    <use xlink:href="#DejaVuSans-44" x="301.171875"/>
    <use xlink:href="#DejaVuSans-20" x="378.173828"/>
    <use xlink:href="#DejaVuSans-28" x="409.960938"/>
    <use xlink:href="#DejaVuSans-48" x="448.974609"/>
    <use xlink:href="#DejaVuSans-4f" x="524.169922"/>
    <use xlink:href="#DejaVuSans-55" x="602.880859"/>
    <use xlink:href="#DejaVuSans-52" x="676.074219"/>
    <use xlink:href="#DejaVuSans-29" x="745.556641"/>
   </g>
  </g>
  <g id="text_21">
   <!-- PERIODOGRAM OF CONTINUOUS - ANIMAL 03 -->
   <g transform="translate(70.12125 22.2375) scale(0.16 -0.16)">
    <defs>
     <path id="DejaVuSans-47" d="M 3809 666 
L 3809 1919 
L 2778 1919 
L 2778 2438 
L 4434 2438 
L 4434 434 
Q 4069 175 3628 42 
Q 3188 -91 2688 -91 
Q 1594 -91 976 548 
Q 359 1188 359 2328 
Q 359 3472 976 4111 
Q 1594 4750 2688 4750 
Q 3144 4750 3555 4637 
Q 3966 4525 4313 4306 
L 4313 3634 
Q 3963 3931 3569 4081 
Q 3175 4231 2741 4231 
Q 1884 4231 1454 3753 
Q 1025 3275 1025 2328 
Q 1025 1384 1454 906 
Q 1884 428 2741 428 
Q 3075 428 3337 486 
Q 3600 544 3809 666 
z
" transform="scale(0.015625)"/>
     <path id="DejaVuSans-4d" d="M 628 4666 
L 1569 4666 
L 2759 1491 
L 3956 4666 
L 4897 4666 
L 4897 0 
L 4281 0 
L 4281 4097 
L 3078 897 
L 2444 897 
L 1241 4097 
L 1241 0 
L 628 0 
L 628 4666 
z
" transform="scale(0.015625)"/>
     <path id="DejaVuSans-46" d="M 628 4666 
L 3309 4666 
L 3309 4134 
L 1259 4134 
L 1259 2759 
L 3109 2759 
L 3109 2228 
L 1259 2228 
L 1259 0 
L 628 0 
L 628 4666 
z
" transform="scale(0.015625)"/>
     <path id="DejaVuSans-2d" d="M 313 2009 
L 1997 2009 
L 1997 1497 
L 313 1497 
L 313 2009 
z
" transform="scale(0.015625)"/>
    </defs>
    <use xlink:href="#DejaVuSans-50"/>
    <use xlink:href="#DejaVuSans-45" x="60.302734"/>
    <use xlink:href="#DejaVuSans-52" x="123.486328"/>
    <use xlink:href="#DejaVuSans-49" x="192.96875"/>
    <use xlink:href="#DejaVuSans-4f" x="222.460938"/>
    <use xlink:href="#DejaVuSans-44" x="301.171875"/>
    <use xlink:href="#DejaVuSans-4f" x="378.173828"/>
    <use xlink:href="#DejaVuSans-47" x="456.884766"/>
    <use xlink:href="#DejaVuSans-52" x="534.375"/>
    <use xlink:href="#DejaVuSans-41" x="599.857422"/>
    <use xlink:href="#DejaVuSans-4d" x="668.265625"/>
    <use xlink:href="#DejaVuSans-20" x="754.544922"/>
    <use xlink:href="#DejaVuSans-4f" x="786.332031"/>
    <use xlink:href="#DejaVuSans-46" x="865.042969"/>
    <use xlink:href="#DejaVuSans-20" x="922.5625"/>
    <use xlink:href="#DejaVuSans-43" x="954.349609"/>
    <use xlink:href="#DejaVuSans-4f" x="1024.173828"/>
    <use xlink:href="#DejaVuSans-4e" x="1102.884766"/>
    <use xlink:href="#DejaVuSans-54" x="1177.689453"/>
    <use xlink:href="#DejaVuSans-49" x="1238.773438"/>
    <use xlink:href="#DejaVuSans-4e" x="1268.265625"/>
    <use xlink:href="#DejaVuSans-55" x="1343.070312"/>
    <use xlink:href="#DejaVuSans-4f" x="1416.263672"/>
    <use xlink:href="#DejaVuSans-55" x="1494.974609"/>
    <use xlink:href="#DejaVuSans-53" x="1568.167969"/>
    <use xlink:href="#DejaVuSans-20" x="1631.644531"/>
    <use xlink:href="#DejaVuSans-2d" x="1663.431641"/>
    <use xlink:href="#DejaVuSans-20" x="1699.515625"/>
    <use xlink:href="#DejaVuSans-41" x="1731.302734"/>
    <use xlink:href="#DejaVuSans-4e" x="1799.710938"/>
    <use xlink:href="#DejaVuSans-49" x="1874.515625"/>
    <use xlink:href="#DejaVuSans-4d" x="1904.007812"/>
    <use xlink:href="#DejaVuSans-41" x="1990.287109"/>
    <use xlink:href="#DejaVuSans-4c" x="2058.695312"/>
    <use xlink:href="#DejaVuSans-20" x="2114.408203"/>
    <use xlink:href="#DejaVuSans-30" x="2146.195312"/>
    <use xlink:href="#DejaVuSans-33" x="2209.818359"/>
   </g>
  </g>
 </g>
 <defs>
  <clipPath id="p4f69cc4fd7">
   <rect x="59.344" y="79.56" width="209.778" height="153.51"/>
  </clipPath>
  <clipPath id="p0f01183028">
   <rect x="283.422" y="79.56" width="209.778" height="153.51"/>
  </clipPath>
  <clipPath id="p9b6df3a1cf">
   <rect x="59.344" y="290.93" width="209.778" height="153.51"/>
  </clipPath>
  <clipPath id="p88062bd162">
   <rect x="283.422" y="290.93" width="209.778" height="153.51"/>
  </clipPath>
 </defs>
</svg>
