<?xml version="1.0" encoding="utf-8" standalone="no"?>
<!DOCTYPE svg PUBLIC "-//W3C//DTD SVG 1.1//EN"
  "http://www.w3.org/Graphics/SVG/1.1/DTD/svg11.dtd">
<svg xmlns:xlink="http://www.w3.org/1999/xlink" width="504pt" height="504pt" viewBox="0 0 504 504" xmlns="http://www.w3.org/2000/svg" version="1.1">
 <metadata>
  <rdf:RDF xmlns:dc="http://purl.org/dc/elements/1.1/" xmlns:cc="http://creativecommons.org/ns#" xmlns:rdf="http://www.w3.org/1999/02/22-rdf-syntax-ns#">
   <cc:Work>
    <dc:type rdf:resource="http://purl.org/dc/dcmitype/StillImage"/>
    <dc:date>2023-11-28T17:32:09.745189</dc:date>
    <dc:format>image/svg+xml</dc:format>
    <dc:creator>
     <cc:Agent>
      <dc:title>Matplotlib v3.7.4, https://matplotlib.org/</dc:title>
     </cc:Agent>
    </dc:creator>
   </cc:Work>
  </rdf:RDF>
 </metadata>
 <defs>
  <style type="text/css">*{stroke-linejoin: round; stroke-linecap: butt}</style>
 </defs>
 <g id="figure_1">
  <g id="patch_1">
   <path d="M 0 504 
L 504 504 
L 504 0 
L 0 0 
z
" style="fill: #ffffff"/>
  </g>
  <g id="axes_1">
   <g id="patch_2">
    <path d="M 59.254 233.07 
L 269.077 233.07 
L 269.077 79.56 
L 59.254 79.56 
z
" style="fill: #ffffff"/>
   </g>
   <g id="matplotlib.axis_1">
    <g id="xtick_1">
     <g id="line2d_1">
      <defs>
       <path id="m4d532ef66e" d="M 0 0 
L 0 3.5 
" style="stroke: #000000; stroke-width: 0.8"/>
      </defs>
      <g>
       <use xlink:href="#m4d532ef66e" x="60.49801" y="233.07" style="stroke: #000000; stroke-width: 0.8"/>
      </g>
     </g>
    </g>
    <g id="xtick_2">
     <g id="line2d_2">
      <g>
       <use xlink:href="#m4d532ef66e" x="143.432002" y="233.07" style="stroke: #000000; stroke-width: 0.8"/>
      </g>
     </g>
    </g>
    <g id="xtick_3">
     <g id="line2d_3">
      <g>
       <use xlink:href="#m4d532ef66e" x="226.365994" y="233.07" style="stroke: #000000; stroke-width: 0.8"/>
      </g>
     </g>
    </g>
   </g>
   <g id="matplotlib.axis_2">
    <g id="ytick_1">
     <g id="line2d_4">
      <defs>
       <path id="mf619a4923d" d="M 0 0 
L -3.5 0 
" style="stroke: #000000; stroke-width: 0.8"/>
      </defs>
      <g>
       <use xlink:href="#mf619a4923d" x="59.254" y="226.092287" style="stroke: #000000; stroke-width: 0.8"/>
      </g>
     </g>
     <g id="text_1">
      <!-- 0 -->
      <g transform="translate(43.3465 231.411194) scale(0.14 -0.14)">
       <defs>
        <path id="DejaVuSans-30" d="M 2034 4250 
Q 1547 4250 1301 3770 
Q 1056 3291 1056 2328 
Q 1056 1369 1301 889 
Q 1547 409 2034 409 
Q 2525 409 2770 889 
Q 3016 1369 3016 2328 
Q 3016 3291 2770 3770 
Q 2525 4250 2034 4250 
z
M 2034 4750 
Q 2819 4750 3233 4129 
Q 3647 3509 3647 2328 
Q 3647 1150 3233 529 
Q 2819 -91 2034 -91 
Q 1250 -91 836 529 
Q 422 1150 422 2328 
Q 422 3509 836 4129 
Q 1250 4750 2034 4750 
z
" transform="scale(0.015625)"/>
       </defs>
       <use xlink:href="#DejaVuSans-30"/>
      </g>
     </g>
    </g>
    <g id="ytick_2">
     <g id="line2d_5">
      <g>
       <use xlink:href="#mf619a4923d" x="59.254" y="187.727829" style="stroke: #000000; stroke-width: 0.8"/>
      </g>
     </g>
     <g id="text_2">
      <!-- 1 -->
      <g transform="translate(43.3465 193.046736) scale(0.14 -0.14)">
       <defs>
        <path id="DejaVuSans-31" d="M 794 531 
L 1825 531 
L 1825 4091 
L 703 3866 
L 703 4441 
L 1819 4666 
L 2450 4666 
L 2450 531 
L 3481 531 
L 3481 0 
L 794 0 
L 794 531 
z
" transform="scale(0.015625)"/>
       </defs>
       <use xlink:href="#DejaVuSans-31"/>
      </g>
     </g>
    </g>
    <g id="ytick_3">
     <g id="line2d_6">
      <g>
       <use xlink:href="#mf619a4923d" x="59.254" y="149.363371" style="stroke: #000000; stroke-width: 0.8"/>
      </g>
     </g>
     <g id="text_3">
      <!-- 2 -->
      <g transform="translate(43.3465 154.682278) scale(0.14 -0.14)">
       <defs>
        <path id="DejaVuSans-32" d="M 1228 531 
L 3431 531 
L 3431 0 
L 469 0 
L 469 531 
Q 828 903 1448 1529 
Q 2069 2156 2228 2338 
Q 2531 2678 2651 2914 
Q 2772 3150 2772 3378 
Q 2772 3750 2511 3984 
Q 2250 4219 1831 4219 
Q 1534 4219 1204 4116 
Q 875 4013 500 3803 
L 500 4441 
Q 881 4594 1212 4672 
Q 1544 4750 1819 4750 
Q 2544 4750 2975 4387 
Q 3406 4025 3406 3419 
Q 3406 3131 3298 2873 
Q 3191 2616 2906 2266 
Q 2828 2175 2409 1742 
Q 1991 1309 1228 531 
z
" transform="scale(0.015625)"/>
       </defs>
       <use xlink:href="#DejaVuSans-32"/>
      </g>
     </g>
    </g>
    <g id="ytick_4">
     <g id="line2d_7">
      <g>
       <use xlink:href="#mf619a4923d" x="59.254" y="110.998913" style="stroke: #000000; stroke-width: 0.8"/>
      </g>
     </g>
     <g id="text_4">
      <!-- 3 -->
      <g transform="translate(43.3465 116.31782) scale(0.14 -0.14)">
       <defs>
        <path id="DejaVuSans-33" d="M 2597 2516 
Q 3050 2419 3304 2112 
Q 3559 1806 3559 1356 
Q 3559 666 3084 287 
Q 2609 -91 1734 -91 
Q 1441 -91 1130 -33 
Q 819 25 488 141 
L 488 750 
Q 750 597 1062 519 
Q 1375 441 1716 441 
Q 2309 441 2620 675 
Q 2931 909 2931 1356 
Q 2931 1769 2642 2001 
Q 2353 2234 1838 2234 
L 1294 2234 
L 1294 2753 
L 1863 2753 
Q 2328 2753 2575 2939 
Q 2822 3125 2822 3475 
Q 2822 3834 2567 4026 
Q 2313 4219 1838 4219 
Q 1578 4219 1281 4162 
Q 984 4106 628 3988 
L 628 4550 
Q 988 4650 1302 4700 
Q 1616 4750 1894 4750 
Q 2613 4750 3031 4423 
Q 3450 4097 3450 3541 
Q 3450 3153 3228 2886 
Q 3006 2619 2597 2516 
z
" transform="scale(0.015625)"/>
       </defs>
       <use xlink:href="#DejaVuSans-33"/>
      </g>
     </g>
    </g>
    <g id="text_5">
     <!-- 1e7 -->
     <g transform="translate(59.254 76.56) scale(0.1 -0.1)">
      <defs>
       <path id="DejaVuSans-65" d="M 3597 1894 
L 3597 1613 
L 953 1613 
Q 991 1019 1311 708 
Q 1631 397 2203 397 
Q 2534 397 2845 478 
Q 3156 559 3463 722 
L 3463 178 
Q 3153 47 2828 -22 
Q 2503 -91 2169 -91 
Q 1331 -91 842 396 
Q 353 884 353 1716 
Q 353 2575 817 3079 
Q 1281 3584 2069 3584 
Q 2775 3584 3186 3129 
Q 3597 2675 3597 1894 
z
M 3022 2063 
Q 3016 2534 2758 2815 
Q 2500 3097 2075 3097 
Q 1594 3097 1305 2825 
Q 1016 2553 972 2059 
L 3022 2063 
z
" transform="scale(0.015625)"/>
       <path id="DejaVuSans-37" d="M 525 4666 
L 3525 4666 
L 3525 4397 
L 1831 0 
L 1172 0 
L 2766 4134 
L 525 4134 
L 525 4666 
z
" transform="scale(0.015625)"/>
      </defs>
      <use xlink:href="#DejaVuSans-31"/>
      <use xlink:href="#DejaVuSans-65" x="63.623047"/>
      <use xlink:href="#DejaVuSans-37" x="125.146484"/>
     </g>
    </g>
   </g>
   <g id="line2d_8">
    <path d="M 68.791409 220.93229 
L 226.365994 220.93229 
" clip-path="url(#pe7e8ecc44e)" style="fill: none; stroke-dasharray: 7.4,3.2; stroke-dashoffset: 0; stroke: #696969; stroke-width: 2"/>
   </g>
   <g id="line2d_9">
    <path d="M 226.365994 222.639729 
L 184.898998 220.66368 
L 160.0188 210.137547 
L 143.432002 222.471581 
L 131.584289 225.622447 
L 122.698504 225.915619 
L 115.787338 223.982436 
L 110.258405 214.107422 
L 105.734733 222.483512 
L 101.965006 226.077727 
L 98.775237 225.914109 
L 96.041149 222.347603 
L 93.671607 211.480857 
L 91.598257 222.48786 
L 89.768831 225.867482 
L 88.142674 225.95492 
L 86.687692 225.789732 
L 85.378208 224.33125 
L 84.193436 225.770758 
L 83.116371 225.955247 
L 82.132964 226.08108 
L 81.231508 225.950572 
L 80.402168 225.281032 
L 79.636623 225.946533 
L 78.927786 225.695257 
L 78.26958 225.998084 
L 77.656767 225.988144 
L 77.084808 225.73826 
L 76.54975 225.915277 
L 76.048133 226.008746 
L 75.576918 226.053069 
L 75.13342 226.076855 
L 74.715266 226.050069 
L 74.320342 226.064939 
L 73.946765 226.090535 
L 73.592851 226.088782 
L 73.257086 226.091891 
L 72.938109 226.092018 
L 72.634692 226.09184 
L 72.345723 226.090557 
L 72.070195 226.091136 
L 71.807191 226.090595 
L 71.555875 226.090378 
L 71.315487 226.081646 
L 71.085328 226.085288 
L 70.864759 226.064231 
L 70.653193 226.049193 
L 70.450089 226.010924 
L 70.25495 226.082953 
L 70.067317 226.072228 
L 69.886764 226.013512 
L 69.712898 226.024954 
L 69.545354 225.944822 
L 69.383795 226.011585 
L 69.227904 226.07422 
L 69.077388 226.036549 
L 68.931975 226.085611 
L 68.791409 226.034691 
" clip-path="url(#pe7e8ecc44e)" style="fill: none; stroke: #191970; stroke-width: 2; stroke-linecap: square"/>
   </g>
   <g id="patch_3">
    <path d="M 59.254 233.07 
L 59.254 79.56 
" style="fill: none; stroke: #000000; stroke-width: 0.8; stroke-linejoin: miter; stroke-linecap: square"/>
   </g>
   <g id="patch_4">
    <path d="M 59.254 233.07 
L 269.077 233.07 
" style="fill: none; stroke: #000000; stroke-width: 0.8; stroke-linejoin: miter; stroke-linecap: square"/>
   </g>
   <g id="text_6">
    <!-- 1 CONTROL DL -->
    <g transform="translate(111.786906 47.284625) scale(0.14 -0.14)">
     <defs>
      <path id="DejaVuSans-20" transform="scale(0.015625)"/>
      <path id="DejaVuSans-43" d="M 4122 4306 
L 4122 3641 
Q 3803 3938 3442 4084 
Q 3081 4231 2675 4231 
Q 1875 4231 1450 3742 
Q 1025 3253 1025 2328 
Q 1025 1406 1450 917 
Q 1875 428 2675 428 
Q 3081 428 3442 575 
Q 3803 722 4122 1019 
L 4122 359 
Q 3791 134 3420 21 
Q 3050 -91 2638 -91 
Q 1578 -91 968 557 
Q 359 1206 359 2328 
Q 359 3453 968 4101 
Q 1578 4750 2638 4750 
Q 3056 4750 3426 4639 
Q 3797 4528 4122 4306 
z
" transform="scale(0.015625)"/>
      <path id="DejaVuSans-4f" d="M 2522 4238 
Q 1834 4238 1429 3725 
Q 1025 3213 1025 2328 
Q 1025 1447 1429 934 
Q 1834 422 2522 422 
Q 3209 422 3611 934 
Q 4013 1447 4013 2328 
Q 4013 3213 3611 3725 
Q 3209 4238 2522 4238 
z
M 2522 4750 
Q 3503 4750 4090 4092 
Q 4678 3434 4678 2328 
Q 4678 1225 4090 567 
Q 3503 -91 2522 -91 
Q 1538 -91 948 565 
Q 359 1222 359 2328 
Q 359 3434 948 4092 
Q 1538 4750 2522 4750 
z
" transform="scale(0.015625)"/>
      <path id="DejaVuSans-4e" d="M 628 4666 
L 1478 4666 
L 3547 763 
L 3547 4666 
L 4159 4666 
L 4159 0 
L 3309 0 
L 1241 3903 
L 1241 0 
L 628 0 
L 628 4666 
z
" transform="scale(0.015625)"/>
      <path id="DejaVuSans-54" d="M -19 4666 
L 3928 4666 
L 3928 4134 
L 2272 4134 
L 2272 0 
L 1638 0 
L 1638 4134 
L -19 4134 
L -19 4666 
z
" transform="scale(0.015625)"/>
      <path id="DejaVuSans-52" d="M 2841 2188 
Q 3044 2119 3236 1894 
Q 3428 1669 3622 1275 
L 4263 0 
L 3584 0 
L 2988 1197 
Q 2756 1666 2539 1819 
Q 2322 1972 1947 1972 
L 1259 1972 
L 1259 0 
L 628 0 
L 628 4666 
L 2053 4666 
Q 2853 4666 3247 4331 
Q 3641 3997 3641 3322 
Q 3641 2881 3436 2590 
Q 3231 2300 2841 2188 
z
M 1259 4147 
L 1259 2491 
L 2053 2491 
Q 2509 2491 2742 2702 
Q 2975 2913 2975 3322 
Q 2975 3731 2742 3939 
Q 2509 4147 2053 4147 
L 1259 4147 
z
" transform="scale(0.015625)"/>
      <path id="DejaVuSans-4c" d="M 628 4666 
L 1259 4666 
L 1259 531 
L 3531 531 
L 3531 0 
L 628 0 
L 628 4666 
z
" transform="scale(0.015625)"/>
      <path id="DejaVuSans-44" d="M 1259 4147 
L 1259 519 
L 2022 519 
Q 2988 519 3436 956 
Q 3884 1394 3884 2338 
Q 3884 3275 3436 3711 
Q 2988 4147 2022 4147 
L 1259 4147 
z
M 628 4666 
L 1925 4666 
Q 3281 4666 3915 4102 
Q 4550 3538 4550 2338 
Q 4550 1131 3912 565 
Q 3275 0 1925 0 
L 628 0 
L 628 4666 
z
" transform="scale(0.015625)"/>
     </defs>
     <use xlink:href="#DejaVuSans-31"/>
     <use xlink:href="#DejaVuSans-20" x="63.623047"/>
     <use xlink:href="#DejaVuSans-43" x="95.410156"/>
     <use xlink:href="#DejaVuSans-4f" x="165.234375"/>
     <use xlink:href="#DejaVuSans-4e" x="243.945312"/>
     <use xlink:href="#DejaVuSans-54" x="318.75"/>
     <use xlink:href="#DejaVuSans-52" x="379.833984"/>
     <use xlink:href="#DejaVuSans-4f" x="449.316406"/>
     <use xlink:href="#DejaVuSans-4c" x="528.027344"/>
     <use xlink:href="#DejaVuSans-20" x="583.740234"/>
     <use xlink:href="#DejaVuSans-44" x="615.527344"/>
     <use xlink:href="#DejaVuSans-4c" x="692.529297"/>
    </g>
    <!-- (PEAK ON 24.00 HOURS) -->
    <g transform="translate(78.014094 62.961563) scale(0.14 -0.14)">
     <defs>
      <path id="DejaVuSans-28" d="M 1984 4856 
Q 1566 4138 1362 3434 
Q 1159 2731 1159 2009 
Q 1159 1288 1364 580 
Q 1569 -128 1984 -844 
L 1484 -844 
Q 1016 -109 783 600 
Q 550 1309 550 2009 
Q 550 2706 781 3412 
Q 1013 4119 1484 4856 
L 1984 4856 
z
" transform="scale(0.015625)"/>
      <path id="DejaVuSans-50" d="M 1259 4147 
L 1259 2394 
L 2053 2394 
Q 2494 2394 2734 2622 
Q 2975 2850 2975 3272 
Q 2975 3691 2734 3919 
Q 2494 4147 2053 4147 
L 1259 4147 
z
M 628 4666 
L 2053 4666 
Q 2838 4666 3239 4311 
Q 3641 3956 3641 3272 
Q 3641 2581 3239 2228 
Q 2838 1875 2053 1875 
L 1259 1875 
L 1259 0 
L 628 0 
L 628 4666 
z
" transform="scale(0.015625)"/>
      <path id="DejaVuSans-45" d="M 628 4666 
L 3578 4666 
L 3578 4134 
L 1259 4134 
L 1259 2753 
L 3481 2753 
L 3481 2222 
L 1259 2222 
L 1259 531 
L 3634 531 
L 3634 0 
L 628 0 
L 628 4666 
z
" transform="scale(0.015625)"/>
      <path id="DejaVuSans-41" d="M 2188 4044 
L 1331 1722 
L 3047 1722 
L 2188 4044 
z
M 1831 4666 
L 2547 4666 
L 4325 0 
L 3669 0 
L 3244 1197 
L 1141 1197 
L 716 0 
L 50 0 
L 1831 4666 
z
" transform="scale(0.015625)"/>
      <path id="DejaVuSans-4b" d="M 628 4666 
L 1259 4666 
L 1259 2694 
L 3353 4666 
L 4166 4666 
L 1850 2491 
L 4331 0 
L 3500 0 
L 1259 2247 
L 1259 0 
L 628 0 
L 628 4666 
z
" transform="scale(0.015625)"/>
      <path id="DejaVuSans-34" d="M 2419 4116 
L 825 1625 
L 2419 1625 
L 2419 4116 
z
M 2253 4666 
L 3047 4666 
L 3047 1625 
L 3713 1625 
L 3713 1100 
L 3047 1100 
L 3047 0 
L 2419 0 
L 2419 1100 
L 313 1100 
L 313 1709 
L 2253 4666 
z
" transform="scale(0.015625)"/>
      <path id="DejaVuSans-2e" d="M 684 794 
L 1344 794 
L 1344 0 
L 684 0 
L 684 794 
z
" transform="scale(0.015625)"/>
      <path id="DejaVuSans-48" d="M 628 4666 
L 1259 4666 
L 1259 2753 
L 3553 2753 
L 3553 4666 
L 4184 4666 
L 4184 0 
L 3553 0 
L 3553 2222 
L 1259 2222 
L 1259 0 
L 628 0 
L 628 4666 
z
" transform="scale(0.015625)"/>
      <path id="DejaVuSans-55" d="M 556 4666 
L 1191 4666 
L 1191 1831 
Q 1191 1081 1462 751 
Q 1734 422 2344 422 
Q 2950 422 3222 751 
Q 3494 1081 3494 1831 
L 3494 4666 
L 4128 4666 
L 4128 1753 
Q 4128 841 3676 375 
Q 3225 -91 2344 -91 
Q 1459 -91 1007 375 
Q 556 841 556 1753 
L 556 4666 
z
" transform="scale(0.015625)"/>
      <path id="DejaVuSans-53" d="M 3425 4513 
L 3425 3897 
Q 3066 4069 2747 4153 
Q 2428 4238 2131 4238 
Q 1616 4238 1336 4038 
Q 1056 3838 1056 3469 
Q 1056 3159 1242 3001 
Q 1428 2844 1947 2747 
L 2328 2669 
Q 3034 2534 3370 2195 
Q 3706 1856 3706 1288 
Q 3706 609 3251 259 
Q 2797 -91 1919 -91 
Q 1588 -91 1214 -16 
Q 841 59 441 206 
L 441 856 
Q 825 641 1194 531 
Q 1563 422 1919 422 
Q 2459 422 2753 634 
Q 3047 847 3047 1241 
Q 3047 1584 2836 1778 
Q 2625 1972 2144 2069 
L 1759 2144 
Q 1053 2284 737 2584 
Q 422 2884 422 3419 
Q 422 4038 858 4394 
Q 1294 4750 2059 4750 
Q 2388 4750 2728 4690 
Q 3069 4631 3425 4513 
z
" transform="scale(0.015625)"/>
      <path id="DejaVuSans-29" d="M 513 4856 
L 1013 4856 
Q 1481 4119 1714 3412 
Q 1947 2706 1947 2009 
Q 1947 1309 1714 600 
Q 1481 -109 1013 -844 
L 513 -844 
Q 928 -128 1133 580 
Q 1338 1288 1338 2009 
Q 1338 2731 1133 3434 
Q 928 4138 513 4856 
z
" transform="scale(0.015625)"/>
     </defs>
     <use xlink:href="#DejaVuSans-28"/>
     <use xlink:href="#DejaVuSans-50" x="39.013672"/>
     <use xlink:href="#DejaVuSans-45" x="99.316406"/>
     <use xlink:href="#DejaVuSans-41" x="162.5"/>
     <use xlink:href="#DejaVuSans-4b" x="230.908203"/>
     <use xlink:href="#DejaVuSans-20" x="296.484375"/>
     <use xlink:href="#DejaVuSans-4f" x="328.271484"/>
     <use xlink:href="#DejaVuSans-4e" x="406.982422"/>
     <use xlink:href="#DejaVuSans-20" x="481.787109"/>
     <use xlink:href="#DejaVuSans-32" x="513.574219"/>
     <use xlink:href="#DejaVuSans-34" x="577.197266"/>
     <use xlink:href="#DejaVuSans-2e" x="640.820312"/>
     <use xlink:href="#DejaVuSans-30" x="672.607422"/>
     <use xlink:href="#DejaVuSans-30" x="736.230469"/>
     <use xlink:href="#DejaVuSans-20" x="799.853516"/>
     <use xlink:href="#DejaVuSans-48" x="831.640625"/>
     <use xlink:href="#DejaVuSans-4f" x="906.835938"/>
     <use xlink:href="#DejaVuSans-55" x="985.546875"/>
     <use xlink:href="#DejaVuSans-52" x="1058.740234"/>
     <use xlink:href="#DejaVuSans-53" x="1128.222656"/>
     <use xlink:href="#DejaVuSans-29" x="1191.699219"/>
    </g>
   </g>
  </g>
  <g id="axes_2">
   <g id="patch_5">
    <path d="M 283.377 233.07 
L 493.2 233.07 
L 493.2 79.56 
L 283.377 79.56 
z
" style="fill: #ffffff"/>
   </g>
   <g id="matplotlib.axis_3">
    <g id="xtick_4">
     <g id="line2d_10">
      <g>
       <use xlink:href="#m4d532ef66e" x="284.62101" y="233.07" style="stroke: #000000; stroke-width: 0.8"/>
      </g>
     </g>
    </g>
    <g id="xtick_5">
     <g id="line2d_11">
      <g>
       <use xlink:href="#m4d532ef66e" x="367.555002" y="233.07" style="stroke: #000000; stroke-width: 0.8"/>
      </g>
     </g>
    </g>
    <g id="xtick_6">
     <g id="line2d_12">
      <g>
       <use xlink:href="#m4d532ef66e" x="450.488994" y="233.07" style="stroke: #000000; stroke-width: 0.8"/>
      </g>
     </g>
    </g>
   </g>
   <g id="matplotlib.axis_4">
    <g id="ytick_5">
     <g id="line2d_13">
      <g>
       <use xlink:href="#mf619a4923d" x="283.377" y="226.092287" style="stroke: #000000; stroke-width: 0.8"/>
      </g>
     </g>
    </g>
    <g id="ytick_6">
     <g id="line2d_14">
      <g>
       <use xlink:href="#mf619a4923d" x="283.377" y="187.727829" style="stroke: #000000; stroke-width: 0.8"/>
      </g>
     </g>
    </g>
    <g id="ytick_7">
     <g id="line2d_15">
      <g>
       <use xlink:href="#mf619a4923d" x="283.377" y="149.363371" style="stroke: #000000; stroke-width: 0.8"/>
      </g>
     </g>
    </g>
    <g id="ytick_8">
     <g id="line2d_16">
      <g>
       <use xlink:href="#mf619a4923d" x="283.377" y="110.998913" style="stroke: #000000; stroke-width: 0.8"/>
      </g>
     </g>
    </g>
   </g>
   <g id="line2d_17">
    <path d="M 292.914409 219.446584 
L 483.662591 219.446584 
" clip-path="url(#p4964486064)" style="fill: none; stroke-dasharray: 7.4,3.2; stroke-dashoffset: 0; stroke: #696969; stroke-width: 2"/>
   </g>
   <g id="line2d_18">
    <path d="M 483.662591 224.069779 
L 468.3517 224.723831 
L 455.228079 224.916605 
L 443.854275 223.931743 
L 433.902196 225.239496 
L 425.120949 225.664302 
L 417.315397 225.927154 
L 410.331482 225.86079 
L 404.045958 224.189246 
L 398.359056 220.890253 
L 393.189145 224.226415 
L 388.468791 200.578336 
L 384.1418 86.537727 
L 380.160969 163.587535 
L 376.486355 223.14323 
L 373.083935 224.745761 
L 369.924545 225.416285 
L 364.237642 225.688225 
L 361.669364 225.988748 
L 359.261603 225.465305 
L 356.999767 225.460724 
L 354.87098 225.223669 
L 352.863838 225.460735 
L 350.968204 226.05186 
L 349.175036 224.46469 
L 347.476246 221.158443 
L 345.864573 221.237405 
L 344.333484 224.810072 
L 342.877082 225.582853 
L 341.490033 224.273103 
L 340.167498 224.352886 
L 338.905077 223.574407 
L 336.544901 225.080819 
L 335.440137 223.825525 
L 334.381405 212.136142 
L 333.365887 213.639716 
L 332.390989 225.122513 
L 331.454323 225.953427 
L 329.687028 226.09074 
L 328.048264 225.371044 
L 327.272777 225.709978 
L 326.524501 225.847865 
L 325.104043 225.250354 
L 324.429326 224.078545 
L 323.145187 223.273453 
L 322.533692 222.530735 
L 321.367148 224.814574 
L 320.810388 224.870076 
L 320.270248 225.261186 
L 319.745995 225.24234 
L 319.236937 224.839299 
L 318.26184 226.071014 
L 317.794607 221.367013 
L 317.340174 222.037282 
L 316.898023 225.210549 
L 316.467663 224.734854 
L 316.048628 225.921786 
L 315.242792 225.934995 
L 314.477247 224.583863 
L 314.108652 225.580903 
L 313.749046 226.005896 
L 313.398106 225.083566 
L 313.055521 224.800662 
L 312.720998 225.747399 
L 312.394254 225.642694 
L 312.075021 225.146636 
L 311.763044 225.427126 
L 311.458077 225.240593 
L 311.159887 225.625068 
L 310.868251 224.172695 
L 310.582955 224.775366 
L 310.303795 224.857769 
L 310.030573 225.320671 
L 309.763104 225.43281 
L 309.501208 215.72339 
L 309.244711 219.084294 
L 308.993448 226.029616 
L 308.506 226.004332 
L 308.037666 225.532951 
L 307.81032 225.866976 
L 307.587346 225.633241 
L 307.368619 224.536316 
L 307.154019 225.298775 
L 306.94343 225.620712 
L 306.334637 225.678125 
L 306.139019 226.040283 
L 305.946894 225.741666 
L 305.572755 226.041865 
L 305.211518 225.999372 
L 304.69243 225.769727 
L 304.525168 220.80205 
L 304.19887 225.619645 
L 304.039701 225.55423 
L 303.883098 225.927159 
L 303.729002 225.483886 
L 303.281158 226.031319 
L 302.994079 225.722307 
L 302.579649 226.083424 
L 302.445629 226.001196 
L 302.183502 226.069476 
L 301.928973 225.659164 
L 301.441425 225.995073 
L 301.3238 225.892551 
L 301.093417 224.682197 
L 300.869302 226.087279 
L 300.232114 225.965058 
L 299.009558 226.043779 
L 298.838266 226.038745 
L 298.507632 226.0778 
L 298.348015 225.993201 
L 297.96458 226.077645 
L 294.573089 226.014481 
L 294.531794 225.791877 
L 294.49084 225.880339 
L 294.40994 226.070937 
L 294.369985 226.057971 
L 294.330355 226.050394 
L 294.291046 225.912609 
L 294.252054 225.993249 
L 294.175006 226.082299 
L 294.136942 226.025581 
L 293.500188 225.964229 
L 293.434659 226.035365 
L 293.37009 225.977793 
L 293.212733 226.062504 
L 293.031218 226.041018 
L 292.972405 225.751229 
L 292.914409 225.927557 
" clip-path="url(#p4964486064)" style="fill: none; stroke: #191970; stroke-width: 2; stroke-linecap: square"/>
   </g>
   <g id="patch_6">
    <path d="M 283.377 233.07 
L 283.377 79.56 
" style="fill: none; stroke: #000000; stroke-width: 0.8; stroke-linejoin: miter; stroke-linecap: square"/>
   </g>
   <g id="patch_7">
    <path d="M 283.377 233.07 
L 493.2 233.07 
" style="fill: none; stroke: #000000; stroke-width: 0.8; stroke-linejoin: miter; stroke-linecap: square"/>
   </g>
   <g id="text_7">
    <!-- 2 INDUCTION DD -->
    <g transform="translate(328.81475 57.883063) scale(0.14 -0.14)">
     <defs>
      <path id="DejaVuSans-49" d="M 628 4666 
L 1259 4666 
L 1259 0 
L 628 0 
L 628 4666 
z
" transform="scale(0.015625)"/>
     </defs>
     <use xlink:href="#DejaVuSans-32"/>
     <use xlink:href="#DejaVuSans-20" x="63.623047"/>
     <use xlink:href="#DejaVuSans-49" x="95.410156"/>
     <use xlink:href="#DejaVuSans-4e" x="124.902344"/>
     <use xlink:href="#DejaVuSans-44" x="199.707031"/>
     <use xlink:href="#DejaVuSans-55" x="276.708984"/>
     <use xlink:href="#DejaVuSans-43" x="349.902344"/>
     <use xlink:href="#DejaVuSans-54" x="419.726562"/>
     <use xlink:href="#DejaVuSans-49" x="480.810547"/>
     <use xlink:href="#DejaVuSans-4f" x="510.302734"/>
     <use xlink:href="#DejaVuSans-4e" x="589.013672"/>
     <use xlink:href="#DejaVuSans-20" x="663.818359"/>
     <use xlink:href="#DejaVuSans-44" x="695.605469"/>
     <use xlink:href="#DejaVuSans-44" x="772.607422"/>
    </g>
    <!-- (PEAK ON 24.00 HOURS) -->
    <g transform="translate(302.137094 73.56) scale(0.14 -0.14)">
     <use xlink:href="#DejaVuSans-28"/>
     <use xlink:href="#DejaVuSans-50" x="39.013672"/>
     <use xlink:href="#DejaVuSans-45" x="99.316406"/>
     <use xlink:href="#DejaVuSans-41" x="162.5"/>
     <use xlink:href="#DejaVuSans-4b" x="230.908203"/>
     <use xlink:href="#DejaVuSans-20" x="296.484375"/>
     <use xlink:href="#DejaVuSans-4f" x="328.271484"/>
     <use xlink:href="#DejaVuSans-4e" x="406.982422"/>
     <use xlink:href="#DejaVuSans-20" x="481.787109"/>
     <use xlink:href="#DejaVuSans-32" x="513.574219"/>
     <use xlink:href="#DejaVuSans-34" x="577.197266"/>
     <use xlink:href="#DejaVuSans-2e" x="640.820312"/>
     <use xlink:href="#DejaVuSans-30" x="672.607422"/>
     <use xlink:href="#DejaVuSans-30" x="736.230469"/>
     <use xlink:href="#DejaVuSans-20" x="799.853516"/>
     <use xlink:href="#DejaVuSans-48" x="831.640625"/>
     <use xlink:href="#DejaVuSans-4f" x="906.835938"/>
     <use xlink:href="#DejaVuSans-55" x="985.546875"/>
     <use xlink:href="#DejaVuSans-52" x="1058.740234"/>
     <use xlink:href="#DejaVuSans-53" x="1128.222656"/>
     <use xlink:href="#DejaVuSans-29" x="1191.699219"/>
    </g>
   </g>
  </g>
  <g id="axes_3">
   <g id="patch_8">
    <path d="M 59.254 444.44 
L 269.077 444.44 
L 269.077 290.93 
L 59.254 290.93 
z
" style="fill: #ffffff"/>
   </g>
   <g id="matplotlib.axis_5">
    <g id="xtick_7">
     <g id="line2d_19">
      <g>
       <use xlink:href="#m4d532ef66e" x="60.49801" y="444.44" style="stroke: #000000; stroke-width: 0.8"/>
      </g>
     </g>
     <g id="text_8">
      <!-- 0 -->
      <g transform="translate(56.04426 462.077812) scale(0.14 -0.14)">
       <use xlink:href="#DejaVuSans-30"/>
      </g>
     </g>
    </g>
    <g id="xtick_8">
     <g id="line2d_20">
      <g>
       <use xlink:href="#m4d532ef66e" x="143.432002" y="444.44" style="stroke: #000000; stroke-width: 0.8"/>
      </g>
     </g>
     <g id="text_9">
      <!-- 20 -->
      <g transform="translate(134.524502 462.077812) scale(0.14 -0.14)">
       <use xlink:href="#DejaVuSans-32"/>
       <use xlink:href="#DejaVuSans-30" x="63.623047"/>
      </g>
     </g>
    </g>
    <g id="xtick_9">
     <g id="line2d_21">
      <g>
       <use xlink:href="#m4d532ef66e" x="226.365994" y="444.44" style="stroke: #000000; stroke-width: 0.8"/>
      </g>
     </g>
     <g id="text_10">
      <!-- 40 -->
      <g transform="translate(217.458494 462.077812) scale(0.14 -0.14)">
       <use xlink:href="#DejaVuSans-34"/>
       <use xlink:href="#DejaVuSans-30" x="63.623047"/>
      </g>
     </g>
    </g>
   </g>
   <g id="matplotlib.axis_6">
    <g id="ytick_9">
     <g id="line2d_22">
      <g>
       <use xlink:href="#mf619a4923d" x="59.254" y="437.462287" style="stroke: #000000; stroke-width: 0.8"/>
      </g>
     </g>
     <g id="text_11">
      <!-- 0 -->
      <g transform="translate(43.3465 442.781194) scale(0.14 -0.14)">
       <use xlink:href="#DejaVuSans-30"/>
      </g>
     </g>
    </g>
    <g id="ytick_10">
     <g id="line2d_23">
      <g>
       <use xlink:href="#mf619a4923d" x="59.254" y="399.097829" style="stroke: #000000; stroke-width: 0.8"/>
      </g>
     </g>
     <g id="text_12">
      <!-- 1 -->
      <g transform="translate(43.3465 404.416736) scale(0.14 -0.14)">
       <use xlink:href="#DejaVuSans-31"/>
      </g>
     </g>
    </g>
    <g id="ytick_11">
     <g id="line2d_24">
      <g>
       <use xlink:href="#mf619a4923d" x="59.254" y="360.733371" style="stroke: #000000; stroke-width: 0.8"/>
      </g>
     </g>
     <g id="text_13">
      <!-- 2 -->
      <g transform="translate(43.3465 366.052278) scale(0.14 -0.14)">
       <use xlink:href="#DejaVuSans-32"/>
      </g>
     </g>
    </g>
    <g id="ytick_12">
     <g id="line2d_25">
      <g>
       <use xlink:href="#mf619a4923d" x="59.254" y="322.368913" style="stroke: #000000; stroke-width: 0.8"/>
      </g>
     </g>
     <g id="text_14">
      <!-- 3 -->
      <g transform="translate(43.3465 327.68782) scale(0.14 -0.14)">
       <use xlink:href="#DejaVuSans-33"/>
      </g>
     </g>
    </g>
    <g id="text_15">
     <!-- 1e7 -->
     <g transform="translate(59.254 287.93) scale(0.1 -0.1)">
      <use xlink:href="#DejaVuSans-31"/>
      <use xlink:href="#DejaVuSans-65" x="63.623047"/>
      <use xlink:href="#DejaVuSans-37" x="125.146484"/>
     </g>
    </g>
   </g>
   <g id="line2d_26">
    <path d="M 68.791409 433.683621 
L 259.539591 433.683621 
" clip-path="url(#p3d51d6800b)" style="fill: none; stroke-dasharray: 7.4,3.2; stroke-dashoffset: 0; stroke: #696969; stroke-width: 2"/>
   </g>
   <g id="line2d_27">
    <path d="M 259.539591 436.876814 
L 241.444902 437.095485 
L 226.365994 437.395699 
L 213.606918 436.014898 
L 202.670568 436.882156 
L 184.898998 437.291241 
L 177.581293 434.650346 
L 171.076666 435.789821 
L 165.256737 433.195132 
L 160.0188 404.68866 
L 150.971456 434.807564 
L 147.037828 437.271217 
L 143.432002 437.092087 
L 137.052464 437.363847 
L 134.217114 437.02142 
L 131.584289 435.040698 
L 129.133038 436.209137 
L 126.845204 436.339378 
L 124.704972 436.344882 
L 122.698504 434.265108 
L 120.81364 433.86531 
L 119.039651 436.674058 
L 117.367033 437.043779 
L 115.787338 435.159379 
L 114.293032 436.095885 
L 112.877373 436.666342 
L 111.534313 436.795678 
L 110.258405 420.065059 
L 109.044737 428.198124 
L 107.888863 437.069776 
L 106.78675 437.459202 
L 105.734733 437.298813 
L 104.729472 436.882841 
L 103.767919 437.218183 
L 101.965006 437.429873 
L 101.118741 437.298032 
L 100.306326 436.912698 
L 99.525771 437.426661 
L 98.775237 436.522602 
L 98.053025 436.885592 
L 97.357562 437.381463 
L 96.687388 437.098718 
L 96.041149 436.685104 
L 95.417586 436.872461 
L 94.815524 437.20942 
L 94.233871 437.372268 
L 93.671607 429.76995 
L 93.127777 427.950321 
L 92.601491 435.785696 
L 92.091912 437.292982 
L 91.598257 436.080813 
L 91.119792 436.074372 
L 90.655825 437.252855 
L 90.205709 437.309996 
L 89.768831 436.266537 
L 88.932521 437.28202 
L 88.532035 436.273291 
L 88.142674 436.180256 
L 87.76398 436.671395 
L 87.395521 436.256808 
L 87.036887 436.779187 
L 86.687692 436.554766 
L 86.347566 435.743413 
L 86.016161 434.530407 
L 85.693147 435.448818 
L 85.071045 423.607527 
L 84.771373 436.556093 
L 84.478923 437.441267 
L 84.193436 437.456451 
L 83.914666 437.342141 
L 83.64238 437.455372 
L 83.116371 436.791571 
L 82.862232 436.655376 
L 82.613741 435.650011 
L 82.132964 437.143086 
L 81.90033 437.318831 
L 81.449755 437.343867 
L 81.231508 437.091545 
L 81.017761 437.296618 
L 80.808375 437.052076 
L 80.60322 437.230632 
L 80.402168 436.684377 
L 80.205097 435.639549 
L 80.01189 437.118503 
L 79.822435 437.39625 
L 79.454351 437.154702 
L 79.275518 436.925118 
L 78.927786 437.104484 
L 78.758705 437.359185 
L 77.656767 437.399019 
L 77.510111 437.441022 
L 77.224193 437.058982 
L 76.947727 437.039622 
L 76.680252 437.44198 
L 76.421336 437.428679 
L 76.048133 437.428792 
L 75.808901 437.402673 
L 75.692024 437.212758 
L 75.351859 437.443035 
L 73.679572 437.445083 
L 73.016348 437.462217 
L 69.670433 437.357856 
L 69.628358 437.154626 
L 69.586667 437.410236 
L 69.463847 437.416675 
L 69.344302 437.321143 
L 69.305159 437.369042 
L 69.151992 437.437291 
L 69.040567 437.389434 
L 68.791409 437.451153 
L 68.791409 437.451153 
" clip-path="url(#p3d51d6800b)" style="fill: none; stroke: #191970; stroke-width: 2; stroke-linecap: square"/>
   </g>
   <g id="patch_9">
    <path d="M 59.254 444.44 
L 59.254 290.93 
" style="fill: none; stroke: #000000; stroke-width: 0.8; stroke-linejoin: miter; stroke-linecap: square"/>
   </g>
   <g id="patch_10">
    <path d="M 59.254 444.44 
L 269.077 444.44 
" style="fill: none; stroke: #000000; stroke-width: 0.8; stroke-linejoin: miter; stroke-linecap: square"/>
   </g>
   <g id="text_16">
    <!-- 3 HYPO DD -->
    <g transform="translate(125.211594 258.654625) scale(0.14 -0.14)">
     <defs>
      <path id="DejaVuSans-59" d="M -13 4666 
L 666 4666 
L 1959 2747 
L 3244 4666 
L 3922 4666 
L 2272 2222 
L 2272 0 
L 1638 0 
L 1638 2222 
L -13 4666 
z
" transform="scale(0.015625)"/>
     </defs>
     <use xlink:href="#DejaVuSans-33"/>
     <use xlink:href="#DejaVuSans-20" x="63.623047"/>
     <use xlink:href="#DejaVuSans-48" x="95.410156"/>
     <use xlink:href="#DejaVuSans-59" x="170.605469"/>
     <use xlink:href="#DejaVuSans-50" x="231.689453"/>
     <use xlink:href="#DejaVuSans-4f" x="291.992188"/>
     <use xlink:href="#DejaVuSans-20" x="370.703125"/>
     <use xlink:href="#DejaVuSans-44" x="402.490234"/>
     <use xlink:href="#DejaVuSans-44" x="479.492188"/>
    </g>
    <!-- (PEAK ON 24.00 HOURS) -->
    <g transform="translate(78.014094 274.331563) scale(0.14 -0.14)">
     <use xlink:href="#DejaVuSans-28"/>
     <use xlink:href="#DejaVuSans-50" x="39.013672"/>
     <use xlink:href="#DejaVuSans-45" x="99.316406"/>
     <use xlink:href="#DejaVuSans-41" x="162.5"/>
     <use xlink:href="#DejaVuSans-4b" x="230.908203"/>
     <use xlink:href="#DejaVuSans-20" x="296.484375"/>
     <use xlink:href="#DejaVuSans-4f" x="328.271484"/>
     <use xlink:href="#DejaVuSans-4e" x="406.982422"/>
     <use xlink:href="#DejaVuSans-20" x="481.787109"/>
     <use xlink:href="#DejaVuSans-32" x="513.574219"/>
     <use xlink:href="#DejaVuSans-34" x="577.197266"/>
     <use xlink:href="#DejaVuSans-2e" x="640.820312"/>
     <use xlink:href="#DejaVuSans-30" x="672.607422"/>
     <use xlink:href="#DejaVuSans-30" x="736.230469"/>
     <use xlink:href="#DejaVuSans-20" x="799.853516"/>
     <use xlink:href="#DejaVuSans-48" x="831.640625"/>
     <use xlink:href="#DejaVuSans-4f" x="906.835938"/>
     <use xlink:href="#DejaVuSans-55" x="985.546875"/>
     <use xlink:href="#DejaVuSans-52" x="1058.740234"/>
     <use xlink:href="#DejaVuSans-53" x="1128.222656"/>
     <use xlink:href="#DejaVuSans-29" x="1191.699219"/>
    </g>
   </g>
  </g>
  <g id="axes_4">
   <g id="patch_11">
    <path d="M 283.377 444.44 
L 493.2 444.44 
L 493.2 290.93 
L 283.377 290.93 
z
" style="fill: #ffffff"/>
   </g>
   <g id="matplotlib.axis_7">
    <g id="xtick_10">
     <g id="line2d_28">
      <g>
       <use xlink:href="#m4d532ef66e" x="284.62101" y="444.44" style="stroke: #000000; stroke-width: 0.8"/>
      </g>
     </g>
     <g id="text_17">
      <!-- 0 -->
      <g transform="translate(280.16726 462.077812) scale(0.14 -0.14)">
       <use xlink:href="#DejaVuSans-30"/>
      </g>
     </g>
    </g>
    <g id="xtick_11">
     <g id="line2d_29">
      <g>
       <use xlink:href="#m4d532ef66e" x="367.555002" y="444.44" style="stroke: #000000; stroke-width: 0.8"/>
      </g>
     </g>
     <g id="text_18">
      <!-- 20 -->
      <g transform="translate(358.647502 462.077812) scale(0.14 -0.14)">
       <use xlink:href="#DejaVuSans-32"/>
       <use xlink:href="#DejaVuSans-30" x="63.623047"/>
      </g>
     </g>
    </g>
    <g id="xtick_12">
     <g id="line2d_30">
      <g>
       <use xlink:href="#m4d532ef66e" x="450.488994" y="444.44" style="stroke: #000000; stroke-width: 0.8"/>
      </g>
     </g>
     <g id="text_19">
      <!-- 40 -->
      <g transform="translate(441.581494 462.077812) scale(0.14 -0.14)">
       <use xlink:href="#DejaVuSans-34"/>
       <use xlink:href="#DejaVuSans-30" x="63.623047"/>
      </g>
     </g>
    </g>
   </g>
   <g id="matplotlib.axis_8">
    <g id="ytick_13">
     <g id="line2d_31">
      <g>
       <use xlink:href="#mf619a4923d" x="283.377" y="437.462287" style="stroke: #000000; stroke-width: 0.8"/>
      </g>
     </g>
    </g>
    <g id="ytick_14">
     <g id="line2d_32">
      <g>
       <use xlink:href="#mf619a4923d" x="283.377" y="399.097829" style="stroke: #000000; stroke-width: 0.8"/>
      </g>
     </g>
    </g>
    <g id="ytick_15">
     <g id="line2d_33">
      <g>
       <use xlink:href="#mf619a4923d" x="283.377" y="360.733371" style="stroke: #000000; stroke-width: 0.8"/>
      </g>
     </g>
    </g>
    <g id="ytick_16">
     <g id="line2d_34">
      <g>
       <use xlink:href="#mf619a4923d" x="283.377" y="322.368913" style="stroke: #000000; stroke-width: 0.8"/>
      </g>
     </g>
    </g>
   </g>
   <g id="line2d_35">
    <path d="M 292.914409 434.051906 
L 483.662591 434.051906 
" clip-path="url(#pe2456045d5)" style="fill: none; stroke-dasharray: 7.4,3.2; stroke-dashoffset: 0; stroke: #696969; stroke-width: 2"/>
   </g>
   <g id="line2d_36">
    <path d="M 483.662591 435.05505 
L 450.488994 435.054461 
L 426.793568 435.66513 
L 409.021998 437.214998 
L 395.199666 436.181112 
L 384.1418 436.262567 
L 375.094456 434.49319 
L 367.555002 435.287131 
L 361.175464 435.933398 
L 355.707289 435.749851 
L 350.968204 436.447013 
L 346.821504 437.201313 
L 343.162651 437.404325 
L 339.910338 436.740551 
L 337.000373 433.604056 
L 334.381405 433.981206 
L 332.011863 437.364785 
L 329.857733 437.408618 
L 327.890919 436.177549 
L 326.088006 437.268042 
L 324.429326 436.829254 
L 322.898237 436.875983 
L 321.480562 436.723102 
L 320.164149 424.511186 
L 318.938524 416.253666 
L 317.794607 434.692567 
L 316.724491 437.086989 
L 315.721257 436.637473 
L 314.778825 436.512094 
L 313.891831 436.538912 
L 313.055521 437.200378 
L 312.265674 437.399893 
L 311.518521 436.481384 
L 310.810692 433.201175 
L 310.139161 434.242382 
L 309.501208 436.367535 
L 308.894373 437.330234 
L 308.316436 437.315898 
L 307.76538 436.967045 
L 307.239371 437.241618 
L 306.736741 436.743792 
L 306.255964 436.612923 
L 305.795646 437.198688 
L 305.354508 437.033099 
L 304.931375 435.833286 
L 304.525168 436.082754 
L 304.13489 436.048694 
L 303.759623 437.358081 
L 303.398518 436.654463 
L 303.050786 437.053144 
L 302.715699 437.430729 
L 302.39258 437.205717 
L 302.080798 436.660818 
L 301.779767 437.032696 
L 301.48894 437.304744 
L 301.207808 437.35268 
L 300.935894 437.45944 
L 300.67275 437.425937 
L 300.417961 437.458842 
L 300.171133 437.389863 
L 299.931901 437.322695 
L 299.699918 437.446754 
L 299.474859 437.231591 
L 299.25642 437.348418 
L 299.044313 437.447179 
L 298.838266 437.439514 
L 298.638023 437.459756 
L 298.443342 437.454071 
L 298.253995 437.460389 
L 298.069765 437.455265 
L 297.890449 437.459612 
L 297.715851 437.461937 
L 297.545788 437.460762 
L 297.380086 437.461635 
L 297.218578 437.462215 
L 297.061109 437.462257 
L 296.907527 437.462254 
L 296.757692 437.461709 
L 296.611467 437.461363 
L 296.468723 437.460882 
L 296.329338 437.460338 
L 296.193195 437.462273 
L 296.060181 437.456613 
L 295.930191 437.458592 
L 295.803121 437.459388 
L 295.678875 437.435094 
L 295.55736 437.456417 
L 295.438487 437.436885 
L 295.32217 437.41566 
L 295.208328 437.449748 
L 295.096883 437.449901 
L 294.987759 437.421475 
L 294.880885 437.427447 
L 294.776193 437.458921 
L 294.673615 437.438299 
L 294.573089 437.448747 
L 294.474553 437.452683 
L 294.37795 437.308956 
L 294.283223 437.344155 
L 294.190317 437.42007 
L 294.09918 437.373484 
L 294.009764 437.431977 
L 293.922018 437.441207 
L 293.835898 437.404888 
L 293.751358 437.445737 
L 293.668354 437.332676 
L 293.586847 437.238636 
L 293.506795 437.022552 
L 293.428159 437.367647 
L 293.350904 437.392265 
L 293.274992 437.257479 
L 293.200388 437.322709 
L 293.12706 437.420224 
L 293.054975 437.296867 
L 292.984102 437.457449 
L 292.914409 437.38228 
" clip-path="url(#pe2456045d5)" style="fill: none; stroke: #191970; stroke-width: 2; stroke-linecap: square"/>
   </g>
   <g id="patch_12">
    <path d="M 283.377 444.44 
L 283.377 290.93 
" style="fill: none; stroke: #000000; stroke-width: 0.8; stroke-linejoin: miter; stroke-linecap: square"/>
   </g>
   <g id="patch_13">
    <path d="M 283.377 444.44 
L 493.2 444.44 
" style="fill: none; stroke: #000000; stroke-width: 0.8; stroke-linejoin: miter; stroke-linecap: square"/>
   </g>
   <g id="text_20">
    <!-- 4 HYPO DL -->
    <g transform="translate(350.824281 269.253062) scale(0.14 -0.14)">
     <use xlink:href="#DejaVuSans-34"/>
     <use xlink:href="#DejaVuSans-20" x="63.623047"/>
     <use xlink:href="#DejaVuSans-48" x="95.410156"/>
     <use xlink:href="#DejaVuSans-59" x="170.605469"/>
     <use xlink:href="#DejaVuSans-50" x="231.689453"/>
     <use xlink:href="#DejaVuSans-4f" x="291.992188"/>
     <use xlink:href="#DejaVuSans-20" x="370.703125"/>
     <use xlink:href="#DejaVuSans-44" x="402.490234"/>
     <use xlink:href="#DejaVuSans-4c" x="479.492188"/>
    </g>
    <!-- (PEAK ON 8.28 HOURS) -->
    <g transform="translate(306.590844 284.93) scale(0.14 -0.14)">
     <defs>
      <path id="DejaVuSans-38" d="M 2034 2216 
Q 1584 2216 1326 1975 
Q 1069 1734 1069 1313 
Q 1069 891 1326 650 
Q 1584 409 2034 409 
Q 2484 409 2743 651 
Q 3003 894 3003 1313 
Q 3003 1734 2745 1975 
Q 2488 2216 2034 2216 
z
M 1403 2484 
Q 997 2584 770 2862 
Q 544 3141 544 3541 
Q 544 4100 942 4425 
Q 1341 4750 2034 4750 
Q 2731 4750 3128 4425 
Q 3525 4100 3525 3541 
Q 3525 3141 3298 2862 
Q 3072 2584 2669 2484 
Q 3125 2378 3379 2068 
Q 3634 1759 3634 1313 
Q 3634 634 3220 271 
Q 2806 -91 2034 -91 
Q 1263 -91 848 271 
Q 434 634 434 1313 
Q 434 1759 690 2068 
Q 947 2378 1403 2484 
z
M 1172 3481 
Q 1172 3119 1398 2916 
Q 1625 2713 2034 2713 
Q 2441 2713 2670 2916 
Q 2900 3119 2900 3481 
Q 2900 3844 2670 4047 
Q 2441 4250 2034 4250 
Q 1625 4250 1398 4047 
Q 1172 3844 1172 3481 
z
" transform="scale(0.015625)"/>
     </defs>
     <use xlink:href="#DejaVuSans-28"/>
     <use xlink:href="#DejaVuSans-50" x="39.013672"/>
     <use xlink:href="#DejaVuSans-45" x="99.316406"/>
     <use xlink:href="#DejaVuSans-41" x="162.5"/>
     <use xlink:href="#DejaVuSans-4b" x="230.908203"/>
     <use xlink:href="#DejaVuSans-20" x="296.484375"/>
     <use xlink:href="#DejaVuSans-4f" x="328.271484"/>
     <use xlink:href="#DejaVuSans-4e" x="406.982422"/>
     <use xlink:href="#DejaVuSans-20" x="481.787109"/>
     <use xlink:href="#DejaVuSans-38" x="513.574219"/>
     <use xlink:href="#DejaVuSans-2e" x="577.197266"/>
     <use xlink:href="#DejaVuSans-32" x="608.984375"/>
     <use xlink:href="#DejaVuSans-38" x="672.607422"/>
     <use xlink:href="#DejaVuSans-20" x="736.230469"/>
     <use xlink:href="#DejaVuSans-48" x="768.017578"/>
     <use xlink:href="#DejaVuSans-4f" x="843.212891"/>
     <use xlink:href="#DejaVuSans-55" x="921.923828"/>
     <use xlink:href="#DejaVuSans-52" x="995.117188"/>
     <use xlink:href="#DejaVuSans-53" x="1064.599609"/>
     <use xlink:href="#DejaVuSans-29" x="1128.076172"/>
    </g>
   </g>
  </g>
  <g id="text_21">
   <!-- PSD $(COUNTS^{2}/HZ)$ -->
   <g transform="translate(25.236562 338.58) rotate(-90) scale(0.18 -0.18)">
    <defs>
     <path id="DejaVuSans-Oblique-43" d="M 4447 4306 
L 4319 3641 
Q 4019 3944 3683 4091 
Q 3347 4238 2956 4238 
Q 2422 4238 2017 3981 
Q 1613 3725 1319 3200 
Q 1131 2863 1032 2486 
Q 934 2109 934 1728 
Q 934 1091 1264 756 
Q 1594 422 2222 422 
Q 2656 422 3056 561 
Q 3456 700 3834 978 
L 3688 231 
Q 3316 72 2936 -9 
Q 2556 -91 2175 -91 
Q 1278 -91 773 396 
Q 269 884 269 1753 
Q 269 2309 461 2846 
Q 653 3384 1013 3828 
Q 1394 4300 1883 4525 
Q 2372 4750 3022 4750 
Q 3422 4750 3780 4639 
Q 4138 4528 4447 4306 
z
" transform="scale(0.015625)"/>
     <path id="DejaVuSans-Oblique-4f" d="M 2919 4238 
Q 2400 4238 2003 3986 
Q 1606 3734 1313 3219 
Q 1125 2891 1026 2522 
Q 928 2153 928 1778 
Q 928 1128 1239 775 
Q 1550 422 2119 422 
Q 2631 422 3032 676 
Q 3434 931 3719 1434 
Q 3909 1772 4009 2142 
Q 4109 2513 4109 2881 
Q 4109 3528 3796 3883 
Q 3484 4238 2919 4238 
z
M 2100 -91 
Q 1241 -91 748 418 
Q 256 928 256 1813 
Q 256 2319 448 2847 
Q 641 3375 978 3788 
Q 1375 4272 1862 4511 
Q 2350 4750 2938 4750 
Q 3794 4750 4287 4245 
Q 4781 3741 4781 2869 
Q 4781 2331 4593 1812 
Q 4406 1294 4056 872 
Q 3656 384 3173 146 
Q 2691 -91 2100 -91 
z
" transform="scale(0.015625)"/>
     <path id="DejaVuSans-Oblique-55" d="M 991 4666 
L 1625 4666 
L 1075 1831 
Q 1041 1641 1027 1517 
Q 1013 1394 1013 1300 
Q 1013 869 1253 645 
Q 1494 422 1959 422 
Q 2563 422 2898 753 
Q 3234 1084 3378 1831 
L 3928 4666 
L 4563 4666 
L 4000 1753 
Q 3816 809 3300 359 
Q 2784 -91 1888 -91 
Q 1188 -91 780 261 
Q 372 613 372 1216 
Q 372 1325 387 1461 
Q 403 1597 434 1753 
L 991 4666 
z
" transform="scale(0.015625)"/>
     <path id="DejaVuSans-Oblique-4e" d="M 1081 4666 
L 1931 4666 
L 3219 666 
L 4000 4666 
L 4616 4666 
L 3706 0 
L 2853 0 
L 1569 4025 
L 788 0 
L 172 0 
L 1081 4666 
z
" transform="scale(0.015625)"/>
     <path id="DejaVuSans-Oblique-54" d="M 378 4666 
L 4325 4666 
L 4225 4134 
L 2559 4134 
L 1759 0 
L 1125 0 
L 1925 4134 
L 275 4134 
L 378 4666 
z
" transform="scale(0.015625)"/>
     <path id="DejaVuSans-Oblique-53" d="M 3859 4513 
L 3738 3897 
Q 3422 4066 3111 4152 
Q 2800 4238 2509 4238 
Q 1944 4238 1609 3991 
Q 1275 3744 1275 3334 
Q 1275 3109 1398 2989 
Q 1522 2869 2034 2731 
L 2413 2638 
Q 3053 2472 3303 2217 
Q 3553 1963 3553 1503 
Q 3553 797 2998 353 
Q 2444 -91 1538 -91 
Q 1166 -91 791 -17 
Q 416 56 38 206 
L 166 856 
Q 513 641 861 531 
Q 1209 422 1556 422 
Q 2147 422 2503 684 
Q 2859 947 2859 1369 
Q 2859 1650 2717 1795 
Q 2575 1941 2106 2059 
L 1728 2156 
Q 1081 2325 845 2545 
Q 609 2766 609 3163 
Q 609 3859 1145 4304 
Q 1681 4750 2541 4750 
Q 2875 4750 3203 4690 
Q 3531 4631 3859 4513 
z
" transform="scale(0.015625)"/>
     <path id="DejaVuSans-2f" d="M 1625 4666 
L 2156 4666 
L 531 -594 
L 0 -594 
L 1625 4666 
z
" transform="scale(0.015625)"/>
     <path id="DejaVuSans-Oblique-48" d="M 1081 4666 
L 1716 4666 
L 1344 2753 
L 3634 2753 
L 4006 4666 
L 4641 4666 
L 3731 0 
L 3097 0 
L 3531 2222 
L 1241 2222 
L 806 0 
L 172 0 
L 1081 4666 
z
" transform="scale(0.015625)"/>
     <path id="DejaVuSans-Oblique-5a" d="M 838 4666 
L 4500 4666 
L 4409 4184 
L 794 531 
L 3769 531 
L 3669 0 
L -141 0 
L -50 481 
L 3566 4134 
L 738 4134 
L 838 4666 
z
" transform="scale(0.015625)"/>
    </defs>
    <use xlink:href="#DejaVuSans-50" transform="translate(0 0.765625)"/>
    <use xlink:href="#DejaVuSans-53" transform="translate(60.302734 0.765625)"/>
    <use xlink:href="#DejaVuSans-44" transform="translate(123.779297 0.765625)"/>
    <use xlink:href="#DejaVuSans-20" transform="translate(200.78125 0.765625)"/>
    <use xlink:href="#DejaVuSans-28" transform="translate(232.568359 0.765625)"/>
    <use xlink:href="#DejaVuSans-Oblique-43" transform="translate(271.582031 0.765625)"/>
    <use xlink:href="#DejaVuSans-Oblique-4f" transform="translate(341.40625 0.765625)"/>
    <use xlink:href="#DejaVuSans-Oblique-55" transform="translate(420.117188 0.765625)"/>
    <use xlink:href="#DejaVuSans-Oblique-4e" transform="translate(493.310547 0.765625)"/>
    <use xlink:href="#DejaVuSans-Oblique-54" transform="translate(568.115234 0.765625)"/>
    <use xlink:href="#DejaVuSans-Oblique-53" transform="translate(629.199219 0.765625)"/>
    <use xlink:href="#DejaVuSans-32" transform="translate(699.876302 39.046875) scale(0.7)"/>
    <use xlink:href="#DejaVuSans-2f" transform="translate(747.14681 0.765625)"/>
    <use xlink:href="#DejaVuSans-Oblique-48" transform="translate(779.088216 0.765625)"/>
    <use xlink:href="#DejaVuSans-Oblique-5a" transform="translate(854.283529 0.765625)"/>
    <use xlink:href="#DejaVuSans-29" transform="translate(922.789388 0.765625)"/>
   </g>
  </g>
  <g id="text_22">
   <!-- PERIOD (HOUR) -->
   <g transform="translate(181.386562 495.216563) scale(0.18 -0.18)">
    <use xlink:href="#DejaVuSans-50"/>
    <use xlink:href="#DejaVuSans-45" x="60.302734"/>
    <use xlink:href="#DejaVuSans-52" x="123.486328"/>
    <use xlink:href="#DejaVuSans-49" x="192.96875"/>
    <use xlink:href="#DejaVuSans-4f" x="222.460938"/>
    <use xlink:href="#DejaVuSans-44" x="301.171875"/>
    <use xlink:href="#DejaVuSans-20" x="378.173828"/>
    <use xlink:href="#DejaVuSans-28" x="409.960938"/>
    <use xlink:href="#DejaVuSans-48" x="448.974609"/>
    <use xlink:href="#DejaVuSans-4f" x="524.169922"/>
    <use xlink:href="#DejaVuSans-55" x="602.880859"/>
    <use xlink:href="#DejaVuSans-52" x="676.074219"/>
    <use xlink:href="#DejaVuSans-29" x="745.556641"/>
   </g>
  </g>
  <g id="text_23">
   <!-- PERIODOGRAM OF CONTINUOUS - ANIMAL 03 -->
   <g transform="translate(70.12125 22.2375) scale(0.16 -0.16)">
    <defs>
     <path id="DejaVuSans-47" d="M 3809 666 
L 3809 1919 
L 2778 1919 
L 2778 2438 
L 4434 2438 
L 4434 434 
Q 4069 175 3628 42 
Q 3188 -91 2688 -91 
Q 1594 -91 976 548 
Q 359 1188 359 2328 
Q 359 3472 976 4111 
Q 1594 4750 2688 4750 
Q 3144 4750 3555 4637 
Q 3966 4525 4313 4306 
L 4313 3634 
Q 3963 3931 3569 4081 
Q 3175 4231 2741 4231 
Q 1884 4231 1454 3753 
Q 1025 3275 1025 2328 
Q 1025 1384 1454 906 
Q 1884 428 2741 428 
Q 3075 428 3337 486 
Q 3600 544 3809 666 
z
" transform="scale(0.015625)"/>
     <path id="DejaVuSans-4d" d="M 628 4666 
L 1569 4666 
L 2759 1491 
L 3956 4666 
L 4897 4666 
L 4897 0 
L 4281 0 
L 4281 4097 
L 3078 897 
L 2444 897 
L 1241 4097 
L 1241 0 
L 628 0 
L 628 4666 
z
" transform="scale(0.015625)"/>
     <path id="DejaVuSans-46" d="M 628 4666 
L 3309 4666 
L 3309 4134 
L 1259 4134 
L 1259 2759 
L 3109 2759 
L 3109 2228 
L 1259 2228 
L 1259 0 
L 628 0 
L 628 4666 
z
" transform="scale(0.015625)"/>
     <path id="DejaVuSans-2d" d="M 313 2009 
L 1997 2009 
L 1997 1497 
L 313 1497 
L 313 2009 
z
" transform="scale(0.015625)"/>
    </defs>
    <use xlink:href="#DejaVuSans-50"/>
    <use xlink:href="#DejaVuSans-45" x="60.302734"/>
    <use xlink:href="#DejaVuSans-52" x="123.486328"/>
    <use xlink:href="#DejaVuSans-49" x="192.96875"/>
    <use xlink:href="#DejaVuSans-4f" x="222.460938"/>
    <use xlink:href="#DejaVuSans-44" x="301.171875"/>
    <use xlink:href="#DejaVuSans-4f" x="378.173828"/>
    <use xlink:href="#DejaVuSans-47" x="456.884766"/>
    <use xlink:href="#DejaVuSans-52" x="534.375"/>
    <use xlink:href="#DejaVuSans-41" x="599.857422"/>
    <use xlink:href="#DejaVuSans-4d" x="668.265625"/>
    <use xlink:href="#DejaVuSans-20" x="754.544922"/>
    <use xlink:href="#DejaVuSans-4f" x="786.332031"/>
    <use xlink:href="#DejaVuSans-46" x="865.042969"/>
    <use xlink:href="#DejaVuSans-20" x="922.5625"/>
    <use xlink:href="#DejaVuSans-43" x="954.349609"/>
    <use xlink:href="#DejaVuSans-4f" x="1024.173828"/>
    <use xlink:href="#DejaVuSans-4e" x="1102.884766"/>
    <use xlink:href="#DejaVuSans-54" x="1177.689453"/>
    <use xlink:href="#DejaVuSans-49" x="1238.773438"/>
    <use xlink:href="#DejaVuSans-4e" x="1268.265625"/>
    <use xlink:href="#DejaVuSans-55" x="1343.070312"/>
    <use xlink:href="#DejaVuSans-4f" x="1416.263672"/>
    <use xlink:href="#DejaVuSans-55" x="1494.974609"/>
    <use xlink:href="#DejaVuSans-53" x="1568.167969"/>
    <use xlink:href="#DejaVuSans-20" x="1631.644531"/>
    <use xlink:href="#DejaVuSans-2d" x="1663.431641"/>
    <use xlink:href="#DejaVuSans-20" x="1699.515625"/>
    <use xlink:href="#DejaVuSans-41" x="1731.302734"/>
    <use xlink:href="#DejaVuSans-4e" x="1799.710938"/>
    <use xlink:href="#DejaVuSans-49" x="1874.515625"/>
    <use xlink:href="#DejaVuSans-4d" x="1904.007812"/>
    <use xlink:href="#DejaVuSans-41" x="1990.287109"/>
    <use xlink:href="#DejaVuSans-4c" x="2058.695312"/>
    <use xlink:href="#DejaVuSans-20" x="2114.408203"/>
    <use xlink:href="#DejaVuSans-30" x="2146.195312"/>
    <use xlink:href="#DejaVuSans-33" x="2209.818359"/>
   </g>
  </g>
 </g>
 <defs>
  <clipPath id="pe7e8ecc44e">
   <rect x="59.254" y="79.56" width="209.823" height="153.51"/>
  </clipPath>
  <clipPath id="p4964486064">
   <rect x="283.377" y="79.56" width="209.823" height="153.51"/>
  </clipPath>
  <clipPath id="p3d51d6800b">
   <rect x="59.254" y="290.93" width="209.823" height="153.51"/>
  </clipPath>
  <clipPath id="pe2456045d5">
   <rect x="283.377" y="290.93" width="209.823" height="153.51"/>
  </clipPath>
 </defs>
</svg>
