<?xml version="1.0" encoding="utf-8" standalone="no"?>
<!DOCTYPE svg PUBLIC "-//W3C//DTD SVG 1.1//EN"
  "http://www.w3.org/Graphics/SVG/1.1/DTD/svg11.dtd">
<svg xmlns:xlink="http://www.w3.org/1999/xlink" width="864pt" height="360pt" viewBox="0 0 864 360" xmlns="http://www.w3.org/2000/svg" version="1.1">
 <metadata>
  <rdf:RDF xmlns:dc="http://purl.org/dc/elements/1.1/" xmlns:cc="http://creativecommons.org/ns#" xmlns:rdf="http://www.w3.org/1999/02/22-rdf-syntax-ns#">
   <cc:Work>
    <dc:type rdf:resource="http://purl.org/dc/dcmitype/StillImage"/>
    <dc:date>2023-11-07T11:16:32.273488</dc:date>
    <dc:format>image/svg+xml</dc:format>
    <dc:creator>
     <cc:Agent>
      <dc:title>Matplotlib v3.7.1, https://matplotlib.org/</dc:title>
     </cc:Agent>
    </dc:creator>
   </cc:Work>
  </rdf:RDF>
 </metadata>
 <defs>
  <style type="text/css">*{stroke-linejoin: round; stroke-linecap: butt}</style>
 </defs>
 <g id="figure_1">
  <g id="patch_1">
   <path d="M 0 360 
L 864 360 
L 864 0 
L 0 0 
z
" style="fill: #ffffff"/>
  </g>
  <g id="axes_1">
   <g id="patch_2">
    <path d="M 108 320.4 
L 777.6 320.4 
L 777.6 43.2 
L 108 43.2 
z
" style="fill: #ffffff"/>
   </g>
   <g id="matplotlib.axis_1">
    <g id="xtick_1">
     <g id="line2d_1">
      <defs>
       <path id="m4fa91fc570" d="M 0 0 
L 0 3.5 
" style="stroke: #000000; stroke-width: 0.8"/>
      </defs>
      <g>
       <use xlink:href="#m4fa91fc570" x="138.436364" y="320.4" style="stroke: #000000; stroke-width: 0.8"/>
      </g>
     </g>
     <g id="text_1">
      <!-- 2022-01-01 -->
      <g transform="translate(109.378551 334.998438) scale(0.1 -0.1)">
       <defs>
        <path id="DejaVuSans-32" d="M 1228 531 
L 3431 531 
L 3431 0 
L 469 0 
L 469 531 
Q 828 903 1448 1529 
Q 2069 2156 2228 2338 
Q 2531 2678 2651 2914 
Q 2772 3150 2772 3378 
Q 2772 3750 2511 3984 
Q 2250 4219 1831 4219 
Q 1534 4219 1204 4116 
Q 875 4013 500 3803 
L 500 4441 
Q 881 4594 1212 4672 
Q 1544 4750 1819 4750 
Q 2544 4750 2975 4387 
Q 3406 4025 3406 3419 
Q 3406 3131 3298 2873 
Q 3191 2616 2906 2266 
Q 2828 2175 2409 1742 
Q 1991 1309 1228 531 
z
" transform="scale(0.015625)"/>
        <path id="DejaVuSans-30" d="M 2034 4250 
Q 1547 4250 1301 3770 
Q 1056 3291 1056 2328 
Q 1056 1369 1301 889 
Q 1547 409 2034 409 
Q 2525 409 2770 889 
Q 3016 1369 3016 2328 
Q 3016 3291 2770 3770 
Q 2525 4250 2034 4250 
z
M 2034 4750 
Q 2819 4750 3233 4129 
Q 3647 3509 3647 2328 
Q 3647 1150 3233 529 
Q 2819 -91 2034 -91 
Q 1250 -91 836 529 
Q 422 1150 422 2328 
Q 422 3509 836 4129 
Q 1250 4750 2034 4750 
z
" transform="scale(0.015625)"/>
        <path id="DejaVuSans-2d" d="M 313 2009 
L 1997 2009 
L 1997 1497 
L 313 1497 
L 313 2009 
z
" transform="scale(0.015625)"/>
        <path id="DejaVuSans-31" d="M 794 531 
L 1825 531 
L 1825 4091 
L 703 3866 
L 703 4441 
L 1819 4666 
L 2450 4666 
L 2450 531 
L 3481 531 
L 3481 0 
L 794 0 
L 794 531 
z
" transform="scale(0.015625)"/>
       </defs>
       <use xlink:href="#DejaVuSans-32"/>
       <use xlink:href="#DejaVuSans-30" x="63.623047"/>
       <use xlink:href="#DejaVuSans-32" x="127.246094"/>
       <use xlink:href="#DejaVuSans-32" x="190.869141"/>
       <use xlink:href="#DejaVuSans-2d" x="254.492188"/>
       <use xlink:href="#DejaVuSans-30" x="290.576172"/>
       <use xlink:href="#DejaVuSans-31" x="354.199219"/>
       <use xlink:href="#DejaVuSans-2d" x="417.822266"/>
       <use xlink:href="#DejaVuSans-30" x="453.90625"/>
       <use xlink:href="#DejaVuSans-31" x="517.529297"/>
      </g>
     </g>
    </g>
    <g id="xtick_2">
     <g id="line2d_2">
      <g>
       <use xlink:href="#m4fa91fc570" x="232.237035" y="320.4" style="stroke: #000000; stroke-width: 0.8"/>
      </g>
     </g>
     <g id="text_2">
      <!-- 2022-01-03 -->
      <g transform="translate(203.179222 334.998438) scale(0.1 -0.1)">
       <defs>
        <path id="DejaVuSans-33" d="M 2597 2516 
Q 3050 2419 3304 2112 
Q 3559 1806 3559 1356 
Q 3559 666 3084 287 
Q 2609 -91 1734 -91 
Q 1441 -91 1130 -33 
Q 819 25 488 141 
L 488 750 
Q 750 597 1062 519 
Q 1375 441 1716 441 
Q 2309 441 2620 675 
Q 2931 909 2931 1356 
Q 2931 1769 2642 2001 
Q 2353 2234 1838 2234 
L 1294 2234 
L 1294 2753 
L 1863 2753 
Q 2328 2753 2575 2939 
Q 2822 3125 2822 3475 
Q 2822 3834 2567 4026 
Q 2313 4219 1838 4219 
Q 1578 4219 1281 4162 
Q 984 4106 628 3988 
L 628 4550 
Q 988 4650 1302 4700 
Q 1616 4750 1894 4750 
Q 2613 4750 3031 4423 
Q 3450 4097 3450 3541 
Q 3450 3153 3228 2886 
Q 3006 2619 2597 2516 
z
" transform="scale(0.015625)"/>
       </defs>
       <use xlink:href="#DejaVuSans-32"/>
       <use xlink:href="#DejaVuSans-30" x="63.623047"/>
       <use xlink:href="#DejaVuSans-32" x="127.246094"/>
       <use xlink:href="#DejaVuSans-32" x="190.869141"/>
       <use xlink:href="#DejaVuSans-2d" x="254.492188"/>
       <use xlink:href="#DejaVuSans-30" x="290.576172"/>
       <use xlink:href="#DejaVuSans-31" x="354.199219"/>
       <use xlink:href="#DejaVuSans-2d" x="417.822266"/>
       <use xlink:href="#DejaVuSans-30" x="453.90625"/>
       <use xlink:href="#DejaVuSans-33" x="517.529297"/>
      </g>
     </g>
    </g>
    <g id="xtick_3">
     <g id="line2d_3">
      <g>
       <use xlink:href="#m4fa91fc570" x="326.037706" y="320.4" style="stroke: #000000; stroke-width: 0.8"/>
      </g>
     </g>
     <g id="text_3">
      <!-- 2022-01-05 -->
      <g transform="translate(296.979894 334.998438) scale(0.1 -0.1)">
       <defs>
        <path id="DejaVuSans-35" d="M 691 4666 
L 3169 4666 
L 3169 4134 
L 1269 4134 
L 1269 2991 
Q 1406 3038 1543 3061 
Q 1681 3084 1819 3084 
Q 2600 3084 3056 2656 
Q 3513 2228 3513 1497 
Q 3513 744 3044 326 
Q 2575 -91 1722 -91 
Q 1428 -91 1123 -41 
Q 819 9 494 109 
L 494 744 
Q 775 591 1075 516 
Q 1375 441 1709 441 
Q 2250 441 2565 725 
Q 2881 1009 2881 1497 
Q 2881 1984 2565 2268 
Q 2250 2553 1709 2553 
Q 1456 2553 1204 2497 
Q 953 2441 691 2322 
L 691 4666 
z
" transform="scale(0.015625)"/>
       </defs>
       <use xlink:href="#DejaVuSans-32"/>
       <use xlink:href="#DejaVuSans-30" x="63.623047"/>
       <use xlink:href="#DejaVuSans-32" x="127.246094"/>
       <use xlink:href="#DejaVuSans-32" x="190.869141"/>
       <use xlink:href="#DejaVuSans-2d" x="254.492188"/>
       <use xlink:href="#DejaVuSans-30" x="290.576172"/>
       <use xlink:href="#DejaVuSans-31" x="354.199219"/>
       <use xlink:href="#DejaVuSans-2d" x="417.822266"/>
       <use xlink:href="#DejaVuSans-30" x="453.90625"/>
       <use xlink:href="#DejaVuSans-35" x="517.529297"/>
      </g>
     </g>
    </g>
    <g id="xtick_4">
     <g id="line2d_4">
      <g>
       <use xlink:href="#m4fa91fc570" x="419.838377" y="320.4" style="stroke: #000000; stroke-width: 0.8"/>
      </g>
     </g>
     <g id="text_4">
      <!-- 2022-01-07 -->
      <g transform="translate(390.780565 334.998438) scale(0.1 -0.1)">
       <defs>
        <path id="DejaVuSans-37" d="M 525 4666 
L 3525 4666 
L 3525 4397 
L 1831 0 
L 1172 0 
L 2766 4134 
L 525 4134 
L 525 4666 
z
" transform="scale(0.015625)"/>
       </defs>
       <use xlink:href="#DejaVuSans-32"/>
       <use xlink:href="#DejaVuSans-30" x="63.623047"/>
       <use xlink:href="#DejaVuSans-32" x="127.246094"/>
       <use xlink:href="#DejaVuSans-32" x="190.869141"/>
       <use xlink:href="#DejaVuSans-2d" x="254.492188"/>
       <use xlink:href="#DejaVuSans-30" x="290.576172"/>
       <use xlink:href="#DejaVuSans-31" x="354.199219"/>
       <use xlink:href="#DejaVuSans-2d" x="417.822266"/>
       <use xlink:href="#DejaVuSans-30" x="453.90625"/>
       <use xlink:href="#DejaVuSans-37" x="517.529297"/>
      </g>
     </g>
    </g>
    <g id="xtick_5">
     <g id="line2d_5">
      <g>
       <use xlink:href="#m4fa91fc570" x="513.639049" y="320.4" style="stroke: #000000; stroke-width: 0.8"/>
      </g>
     </g>
     <g id="text_5">
      <!-- 2022-01-09 -->
      <g transform="translate(484.581236 334.998438) scale(0.1 -0.1)">
       <defs>
        <path id="DejaVuSans-39" d="M 703 97 
L 703 672 
Q 941 559 1184 500 
Q 1428 441 1663 441 
Q 2288 441 2617 861 
Q 2947 1281 2994 2138 
Q 2813 1869 2534 1725 
Q 2256 1581 1919 1581 
Q 1219 1581 811 2004 
Q 403 2428 403 3163 
Q 403 3881 828 4315 
Q 1253 4750 1959 4750 
Q 2769 4750 3195 4129 
Q 3622 3509 3622 2328 
Q 3622 1225 3098 567 
Q 2575 -91 1691 -91 
Q 1453 -91 1209 -44 
Q 966 3 703 97 
z
M 1959 2075 
Q 2384 2075 2632 2365 
Q 2881 2656 2881 3163 
Q 2881 3666 2632 3958 
Q 2384 4250 1959 4250 
Q 1534 4250 1286 3958 
Q 1038 3666 1038 3163 
Q 1038 2656 1286 2365 
Q 1534 2075 1959 2075 
z
" transform="scale(0.015625)"/>
       </defs>
       <use xlink:href="#DejaVuSans-32"/>
       <use xlink:href="#DejaVuSans-30" x="63.623047"/>
       <use xlink:href="#DejaVuSans-32" x="127.246094"/>
       <use xlink:href="#DejaVuSans-32" x="190.869141"/>
       <use xlink:href="#DejaVuSans-2d" x="254.492188"/>
       <use xlink:href="#DejaVuSans-30" x="290.576172"/>
       <use xlink:href="#DejaVuSans-31" x="354.199219"/>
       <use xlink:href="#DejaVuSans-2d" x="417.822266"/>
       <use xlink:href="#DejaVuSans-30" x="453.90625"/>
       <use xlink:href="#DejaVuSans-39" x="517.529297"/>
      </g>
     </g>
    </g>
    <g id="xtick_6">
     <g id="line2d_6">
      <g>
       <use xlink:href="#m4fa91fc570" x="607.43972" y="320.4" style="stroke: #000000; stroke-width: 0.8"/>
      </g>
     </g>
     <g id="text_6">
      <!-- 2022-01-11 -->
      <g transform="translate(578.381907 334.998438) scale(0.1 -0.1)">
       <use xlink:href="#DejaVuSans-32"/>
       <use xlink:href="#DejaVuSans-30" x="63.623047"/>
       <use xlink:href="#DejaVuSans-32" x="127.246094"/>
       <use xlink:href="#DejaVuSans-32" x="190.869141"/>
       <use xlink:href="#DejaVuSans-2d" x="254.492188"/>
       <use xlink:href="#DejaVuSans-30" x="290.576172"/>
       <use xlink:href="#DejaVuSans-31" x="354.199219"/>
       <use xlink:href="#DejaVuSans-2d" x="417.822266"/>
       <use xlink:href="#DejaVuSans-31" x="453.90625"/>
       <use xlink:href="#DejaVuSans-31" x="517.529297"/>
      </g>
     </g>
    </g>
    <g id="xtick_7">
     <g id="line2d_7">
      <g>
       <use xlink:href="#m4fa91fc570" x="701.240391" y="320.4" style="stroke: #000000; stroke-width: 0.8"/>
      </g>
     </g>
     <g id="text_7">
      <!-- 2022-01-13 -->
      <g transform="translate(672.182579 334.998438) scale(0.1 -0.1)">
       <use xlink:href="#DejaVuSans-32"/>
       <use xlink:href="#DejaVuSans-30" x="63.623047"/>
       <use xlink:href="#DejaVuSans-32" x="127.246094"/>
       <use xlink:href="#DejaVuSans-32" x="190.869141"/>
       <use xlink:href="#DejaVuSans-2d" x="254.492188"/>
       <use xlink:href="#DejaVuSans-30" x="290.576172"/>
       <use xlink:href="#DejaVuSans-31" x="354.199219"/>
       <use xlink:href="#DejaVuSans-2d" x="417.822266"/>
       <use xlink:href="#DejaVuSans-31" x="453.90625"/>
       <use xlink:href="#DejaVuSans-33" x="517.529297"/>
      </g>
     </g>
    </g>
    <g id="text_8">
     <!-- TIME (DAYS) -->
     <g transform="translate(412.283594 348.676562) scale(0.1 -0.1)">
      <defs>
       <path id="DejaVuSans-54" d="M -19 4666 
L 3928 4666 
L 3928 4134 
L 2272 4134 
L 2272 0 
L 1638 0 
L 1638 4134 
L -19 4134 
L -19 4666 
z
" transform="scale(0.015625)"/>
       <path id="DejaVuSans-49" d="M 628 4666 
L 1259 4666 
L 1259 0 
L 628 0 
L 628 4666 
z
" transform="scale(0.015625)"/>
       <path id="DejaVuSans-4d" d="M 628 4666 
L 1569 4666 
L 2759 1491 
L 3956 4666 
L 4897 4666 
L 4897 0 
L 4281 0 
L 4281 4097 
L 3078 897 
L 2444 897 
L 1241 4097 
L 1241 0 
L 628 0 
L 628 4666 
z
" transform="scale(0.015625)"/>
       <path id="DejaVuSans-45" d="M 628 4666 
L 3578 4666 
L 3578 4134 
L 1259 4134 
L 1259 2753 
L 3481 2753 
L 3481 2222 
L 1259 2222 
L 1259 531 
L 3634 531 
L 3634 0 
L 628 0 
L 628 4666 
z
" transform="scale(0.015625)"/>
       <path id="DejaVuSans-20" transform="scale(0.015625)"/>
       <path id="DejaVuSans-28" d="M 1984 4856 
Q 1566 4138 1362 3434 
Q 1159 2731 1159 2009 
Q 1159 1288 1364 580 
Q 1569 -128 1984 -844 
L 1484 -844 
Q 1016 -109 783 600 
Q 550 1309 550 2009 
Q 550 2706 781 3412 
Q 1013 4119 1484 4856 
L 1984 4856 
z
" transform="scale(0.015625)"/>
       <path id="DejaVuSans-44" d="M 1259 4147 
L 1259 519 
L 2022 519 
Q 2988 519 3436 956 
Q 3884 1394 3884 2338 
Q 3884 3275 3436 3711 
Q 2988 4147 2022 4147 
L 1259 4147 
z
M 628 4666 
L 1925 4666 
Q 3281 4666 3915 4102 
Q 4550 3538 4550 2338 
Q 4550 1131 3912 565 
Q 3275 0 1925 0 
L 628 0 
L 628 4666 
z
" transform="scale(0.015625)"/>
       <path id="DejaVuSans-41" d="M 2188 4044 
L 1331 1722 
L 3047 1722 
L 2188 4044 
z
M 1831 4666 
L 2547 4666 
L 4325 0 
L 3669 0 
L 3244 1197 
L 1141 1197 
L 716 0 
L 50 0 
L 1831 4666 
z
" transform="scale(0.015625)"/>
       <path id="DejaVuSans-59" d="M -13 4666 
L 666 4666 
L 1959 2747 
L 3244 4666 
L 3922 4666 
L 2272 2222 
L 2272 0 
L 1638 0 
L 1638 2222 
L -13 4666 
z
" transform="scale(0.015625)"/>
       <path id="DejaVuSans-53" d="M 3425 4513 
L 3425 3897 
Q 3066 4069 2747 4153 
Q 2428 4238 2131 4238 
Q 1616 4238 1336 4038 
Q 1056 3838 1056 3469 
Q 1056 3159 1242 3001 
Q 1428 2844 1947 2747 
L 2328 2669 
Q 3034 2534 3370 2195 
Q 3706 1856 3706 1288 
Q 3706 609 3251 259 
Q 2797 -91 1919 -91 
Q 1588 -91 1214 -16 
Q 841 59 441 206 
L 441 856 
Q 825 641 1194 531 
Q 1563 422 1919 422 
Q 2459 422 2753 634 
Q 3047 847 3047 1241 
Q 3047 1584 2836 1778 
Q 2625 1972 2144 2069 
L 1759 2144 
Q 1053 2284 737 2584 
Q 422 2884 422 3419 
Q 422 4038 858 4394 
Q 1294 4750 2059 4750 
Q 2388 4750 2728 4690 
Q 3069 4631 3425 4513 
z
" transform="scale(0.015625)"/>
       <path id="DejaVuSans-29" d="M 513 4856 
L 1013 4856 
Q 1481 4119 1714 3412 
Q 1947 2706 1947 2009 
Q 1947 1309 1714 600 
Q 1481 -109 1013 -844 
L 513 -844 
Q 928 -128 1133 580 
Q 1338 1288 1338 2009 
Q 1338 2731 1133 3434 
Q 928 4138 513 4856 
z
" transform="scale(0.015625)"/>
      </defs>
      <use xlink:href="#DejaVuSans-54"/>
      <use xlink:href="#DejaVuSans-49" x="61.083984"/>
      <use xlink:href="#DejaVuSans-4d" x="90.576172"/>
      <use xlink:href="#DejaVuSans-45" x="176.855469"/>
      <use xlink:href="#DejaVuSans-20" x="240.039062"/>
      <use xlink:href="#DejaVuSans-28" x="271.826172"/>
      <use xlink:href="#DejaVuSans-44" x="310.839844"/>
      <use xlink:href="#DejaVuSans-41" x="386.091797"/>
      <use xlink:href="#DejaVuSans-59" x="446.75"/>
      <use xlink:href="#DejaVuSans-53" x="507.833984"/>
      <use xlink:href="#DejaVuSans-29" x="571.310547"/>
     </g>
    </g>
   </g>
   <g id="matplotlib.axis_2">
    <g id="ytick_1">
     <g id="line2d_8">
      <defs>
       <path id="mcf44d16591" d="M 0 0 
L -3.5 0 
" style="stroke: #000000; stroke-width: 0.8"/>
      </defs>
      <g>
       <use xlink:href="#mcf44d16591" x="108" y="307.8" style="stroke: #000000; stroke-width: 0.8"/>
      </g>
     </g>
     <g id="text_9">
      <!-- 0 -->
      <g transform="translate(94.6375 311.599219) scale(0.1 -0.1)">
       <use xlink:href="#DejaVuSans-30"/>
      </g>
     </g>
    </g>
    <g id="ytick_2">
     <g id="line2d_9">
      <g>
       <use xlink:href="#mcf44d16591" x="108" y="271.383815" style="stroke: #000000; stroke-width: 0.8"/>
      </g>
     </g>
     <g id="text_10">
      <!-- 25 -->
      <g transform="translate(88.275 275.183034) scale(0.1 -0.1)">
       <use xlink:href="#DejaVuSans-32"/>
       <use xlink:href="#DejaVuSans-35" x="63.623047"/>
      </g>
     </g>
    </g>
    <g id="ytick_3">
     <g id="line2d_10">
      <g>
       <use xlink:href="#mcf44d16591" x="108" y="234.96763" style="stroke: #000000; stroke-width: 0.8"/>
      </g>
     </g>
     <g id="text_11">
      <!-- 50 -->
      <g transform="translate(88.275 238.766849) scale(0.1 -0.1)">
       <use xlink:href="#DejaVuSans-35"/>
       <use xlink:href="#DejaVuSans-30" x="63.623047"/>
      </g>
     </g>
    </g>
    <g id="ytick_4">
     <g id="line2d_11">
      <g>
       <use xlink:href="#mcf44d16591" x="108" y="198.551445" style="stroke: #000000; stroke-width: 0.8"/>
      </g>
     </g>
     <g id="text_12">
      <!-- 75 -->
      <g transform="translate(88.275 202.350664) scale(0.1 -0.1)">
       <use xlink:href="#DejaVuSans-37"/>
       <use xlink:href="#DejaVuSans-35" x="63.623047"/>
      </g>
     </g>
    </g>
    <g id="ytick_5">
     <g id="line2d_12">
      <g>
       <use xlink:href="#mcf44d16591" x="108" y="162.13526" style="stroke: #000000; stroke-width: 0.8"/>
      </g>
     </g>
     <g id="text_13">
      <!-- 100 -->
      <g transform="translate(81.9125 165.934479) scale(0.1 -0.1)">
       <use xlink:href="#DejaVuSans-31"/>
       <use xlink:href="#DejaVuSans-30" x="63.623047"/>
       <use xlink:href="#DejaVuSans-30" x="127.246094"/>
      </g>
     </g>
    </g>
    <g id="ytick_6">
     <g id="line2d_13">
      <g>
       <use xlink:href="#mcf44d16591" x="108" y="125.719075" style="stroke: #000000; stroke-width: 0.8"/>
      </g>
     </g>
     <g id="text_14">
      <!-- 125 -->
      <g transform="translate(81.9125 129.518294) scale(0.1 -0.1)">
       <use xlink:href="#DejaVuSans-31"/>
       <use xlink:href="#DejaVuSans-32" x="63.623047"/>
       <use xlink:href="#DejaVuSans-35" x="127.246094"/>
      </g>
     </g>
    </g>
    <g id="ytick_7">
     <g id="line2d_14">
      <g>
       <use xlink:href="#mcf44d16591" x="108" y="89.30289" style="stroke: #000000; stroke-width: 0.8"/>
      </g>
     </g>
     <g id="text_15">
      <!-- 150 -->
      <g transform="translate(81.9125 93.102109) scale(0.1 -0.1)">
       <use xlink:href="#DejaVuSans-31"/>
       <use xlink:href="#DejaVuSans-35" x="63.623047"/>
       <use xlink:href="#DejaVuSans-30" x="127.246094"/>
      </g>
     </g>
    </g>
    <g id="ytick_8">
     <g id="line2d_15">
      <g>
       <use xlink:href="#mcf44d16591" x="108" y="52.886705" style="stroke: #000000; stroke-width: 0.8"/>
      </g>
     </g>
     <g id="text_16">
      <!-- 175 -->
      <g transform="translate(81.9125 56.685924) scale(0.1 -0.1)">
       <use xlink:href="#DejaVuSans-31"/>
       <use xlink:href="#DejaVuSans-37" x="63.623047"/>
       <use xlink:href="#DejaVuSans-35" x="127.246094"/>
      </g>
     </g>
    </g>
    <g id="text_17">
     <!-- AMPLITUDE -->
     <g transform="translate(75.832812 210.532812) rotate(-90) scale(0.1 -0.1)">
      <defs>
       <path id="DejaVuSans-50" d="M 1259 4147 
L 1259 2394 
L 2053 2394 
Q 2494 2394 2734 2622 
Q 2975 2850 2975 3272 
Q 2975 3691 2734 3919 
Q 2494 4147 2053 4147 
L 1259 4147 
z
M 628 4666 
L 2053 4666 
Q 2838 4666 3239 4311 
Q 3641 3956 3641 3272 
Q 3641 2581 3239 2228 
Q 2838 1875 2053 1875 
L 1259 1875 
L 1259 0 
L 628 0 
L 628 4666 
z
" transform="scale(0.015625)"/>
       <path id="DejaVuSans-4c" d="M 628 4666 
L 1259 4666 
L 1259 531 
L 3531 531 
L 3531 0 
L 628 0 
L 628 4666 
z
" transform="scale(0.015625)"/>
       <path id="DejaVuSans-55" d="M 556 4666 
L 1191 4666 
L 1191 1831 
Q 1191 1081 1462 751 
Q 1734 422 2344 422 
Q 2950 422 3222 751 
Q 3494 1081 3494 1831 
L 3494 4666 
L 4128 4666 
L 4128 1753 
Q 4128 841 3676 375 
Q 3225 -91 2344 -91 
Q 1459 -91 1007 375 
Q 556 841 556 1753 
L 556 4666 
z
" transform="scale(0.015625)"/>
      </defs>
      <use xlink:href="#DejaVuSans-41"/>
      <use xlink:href="#DejaVuSans-4d" x="68.408203"/>
      <use xlink:href="#DejaVuSans-50" x="154.6875"/>
      <use xlink:href="#DejaVuSans-4c" x="214.990234"/>
      <use xlink:href="#DejaVuSans-49" x="270.703125"/>
      <use xlink:href="#DejaVuSans-54" x="300.195312"/>
      <use xlink:href="#DejaVuSans-55" x="361.279297"/>
      <use xlink:href="#DejaVuSans-44" x="434.472656"/>
      <use xlink:href="#DejaVuSans-45" x="511.474609"/>
     </g>
    </g>
   </g>
   <g id="line2d_16">
    <path d="M 138.436364 167.96185 
L 139.413454 250.990751 
L 140.390544 307.8 
L 141.367635 299.060116 
L 142.344725 307.8 
L 143.321815 294.690173 
L 144.298906 287.406936 
L 145.275996 307.8 
L 146.253086 296.146821 
L 147.230177 288.863584 
L 148.207267 261.187283 
L 149.184357 307.8 
L 150.161448 307.8 
L 152.115628 258.273988 
L 153.092719 307.8 
L 154.069809 300.516763 
L 155.046899 307.8 
L 158.95526 307.8 
L 159.932351 256.817341 
L 160.909441 163.591908 
L 161.886531 131.545665 
L 162.863622 137.372254 
L 163.840712 127.175723 
L 164.817802 188.354913 
L 165.794893 156.308671 
L 166.771983 232.054335 
L 167.749073 131.545665 
L 168.726164 55.8 
L 169.703254 128.63237 
L 170.680344 146.112139 
L 171.657435 160.678613 
L 172.634525 149.025434 
L 173.611615 188.354913 
L 174.588706 170.875145 
L 175.565796 173.788439 
L 176.542886 147.568786 
L 177.519977 176.701734 
L 178.497067 119.892486 
L 179.474157 125.719075 
L 180.451248 163.591908 
L 181.428338 182.528324 
L 182.405428 307.8 
L 183.382519 307.8 
L 184.359609 306.343353 
L 185.336699 274.29711 
L 186.31379 307.8 
L 187.29088 307.8 
L 188.26797 304.886705 
L 189.245061 307.8 
L 190.222151 265.557225 
L 191.199241 307.8 
L 193.153422 307.8 
L 194.130512 293.233526 
L 195.107603 290.320231 
L 196.084693 303.430058 
L 197.061783 307.8 
L 198.038873 307.8 
L 199.015964 280.123699 
L 199.993054 301.97341 
L 200.970144 297.603468 
L 201.947235 307.8 
L 203.901415 307.8 
L 204.878506 182.528324 
L 205.855596 201.46474 
L 206.832686 149.025434 
L 207.809777 186.898266 
L 208.786867 197.094798 
L 209.763957 138.828902 
L 210.741048 170.875145 
L 211.718138 181.071676 
L 212.695228 140.285549 
L 213.672319 178.158382 
L 214.649409 157.765318 
L 215.626499 163.591908 
L 216.60359 223.314451 
L 217.58068 156.308671 
L 218.55777 166.505202 
L 219.534861 186.898266 
L 220.511951 198.551445 
L 221.489041 186.898266 
L 222.466132 188.354913 
L 223.443222 256.817341 
L 224.420312 182.528324 
L 225.397403 137.372254 
L 226.374493 296.146821 
L 227.351583 307.8 
L 228.328674 253.904046 
L 229.305764 293.233526 
L 230.282854 304.886705 
L 231.259945 307.8 
L 233.214125 307.8 
L 234.191216 290.320231 
L 235.168306 291.776879 
L 236.145396 249.534104 
L 237.122487 307.8 
L 240.053757 307.8 
L 241.030848 304.886705 
L 242.985028 307.8 
L 243.962119 303.430058 
L 244.939209 307.8 
L 245.916299 262.643931 
L 246.89339 288.863584 
L 247.87048 307.8 
L 248.84757 121.349133 
L 249.824661 185.441618 
L 250.801751 173.788439 
L 251.778841 89.30289 
L 252.755932 146.112139 
L 253.733022 119.892486 
L 254.710112 165.048555 
L 255.687203 165.048555 
L 256.664293 127.175723 
L 257.641383 154.852023 
L 259.595564 182.528324 
L 260.572654 156.308671 
L 261.549745 169.418497 
L 262.526835 82.019653 
L 263.503925 153.395376 
L 264.481016 195.63815 
L 265.458106 165.048555 
L 266.435196 144.655491 
L 267.412287 194.181503 
L 268.389377 159.221965 
L 269.366467 166.505202 
L 270.343558 291.776879 
L 271.320648 271.383815 
L 272.297738 307.8 
L 273.274829 294.690173 
L 274.251919 285.950289 
L 275.229009 307.8 
L 279.13737 307.8 
L 280.114461 281.580347 
L 281.091551 303.430058 
L 282.068641 307.8 
L 283.045732 265.557225 
L 284.022822 303.430058 
L 284.999912 307.8 
L 285.977003 283.036994 
L 286.954093 307.8 
L 287.931183 307.8 
L 288.908274 297.603468 
L 289.885364 269.927168 
L 290.862454 307.8 
L 291.839545 146.112139 
L 292.816635 125.719075 
L 293.793725 182.528324 
L 294.770816 153.395376 
L 295.747906 191.268208 
L 296.724996 183.984971 
L 297.702087 114.065896 
L 298.679177 183.984971 
L 299.656267 153.395376 
L 300.633358 112.609249 
L 301.610448 182.528324 
L 302.587538 178.158382 
L 303.564629 185.441618 
L 304.541719 150.482081 
L 305.518809 211.661272 
L 306.4959 160.678613 
L 308.45008 242.250867 
L 309.427171 150.482081 
L 310.404261 150.482081 
L 311.381351 118.435838 
L 312.358442 157.765318 
L 313.335532 202.921387 
L 314.312622 306.343353 
L 315.289713 220.401156 
L 316.266803 301.97341 
L 317.243893 296.146821 
L 318.220984 278.667052 
L 319.198074 269.927168 
L 320.175164 307.8 
L 322.129345 307.8 
L 324.083525 253.904046 
L 325.060616 307.8 
L 326.037706 301.97341 
L 327.014796 250.990751 
L 327.991887 297.603468 
L 328.968977 300.516763 
L 329.946067 268.47052 
L 330.923158 307.8 
L 332.877338 307.8 
L 333.854429 232.054335 
L 334.831519 307.8 
L 335.808609 283.036994 
L 336.7857 307.8 
L 337.76279 153.395376 
L 338.73988 127.175723 
L 339.716971 60.169942 
L 340.694061 138.828902 
L 341.671151 202.921387 
L 342.648242 173.788439 
L 343.625332 114.065896 
L 344.602422 191.268208 
L 345.579513 172.331792 
L 346.556603 200.008092 
L 347.533693 176.701734 
L 348.510784 195.63815 
L 349.487874 201.46474 
L 350.464964 137.372254 
L 352.419145 143.198844 
L 353.396235 121.349133 
L 354.373326 172.331792 
L 356.327506 186.898266 
L 357.304597 160.678613 
L 358.281687 121.349133 
L 359.258777 159.221965 
L 360.235868 122.80578 
L 361.212958 100.956069 
L 362.190048 256.817341 
L 363.167138 307.8 
L 369.02968 307.8 
L 370.006771 268.47052 
L 370.983861 306.343353 
L 371.960951 307.8 
L 372.938042 294.690173 
L 373.915132 307.8 
L 374.892222 284.493642 
L 375.869313 307.8 
L 376.846403 290.320231 
L 377.823493 303.430058 
L 378.800584 307.8 
L 380.754764 307.8 
L 381.731855 303.430058 
L 382.708945 307.8 
L 383.686035 271.383815 
L 384.663126 275.753757 
L 385.640216 293.233526 
L 386.617306 183.984971 
L 388.571487 156.308671 
L 389.548577 127.175723 
L 390.525668 154.852023 
L 391.502758 133.002312 
L 392.479848 141.742197 
L 393.456939 141.742197 
L 394.434029 237.880925 
L 395.411119 188.354913 
L 396.38821 188.354913 
L 397.3653 204.378035 
L 398.34239 118.435838 
L 399.319481 179.615029 
L 400.296571 154.852023 
L 401.273661 191.268208 
L 402.250751 191.268208 
L 403.227842 170.875145 
L 404.204932 207.291329 
L 405.182022 223.314451 
L 406.159113 185.441618 
L 407.136203 200.008092 
L 408.113293 92.216185 
L 409.090384 138.828902 
L 410.067474 175.245087 
L 411.044564 252.447399 
L 412.021655 307.8 
L 414.952926 307.8 
L 415.930016 226.227746 
L 416.907106 304.886705 
L 417.884197 307.8 
L 418.861287 252.447399 
L 419.838377 269.927168 
L 420.815468 306.343353 
L 421.792558 284.493642 
L 422.769648 249.534104 
L 423.746739 307.8 
L 424.723829 281.580347 
L 425.700919 307.8 
L 426.67801 306.343353 
L 427.6551 306.343353 
L 428.63219 303.430058 
L 429.609281 301.97341 
L 430.586371 297.603468 
L 431.563461 307.8 
L 434.494732 307.8 
L 435.471823 111.152601 
L 436.448913 156.308671 
L 437.426003 114.065896 
L 438.403094 213.117919 
L 439.380184 172.331792 
L 440.357274 172.331792 
L 441.334365 137.372254 
L 442.311455 141.742197 
L 443.288545 182.528324 
L 444.265635 137.372254 
L 445.242726 105.326012 
L 446.219816 130.089017 
L 447.196906 106.782659 
L 448.173997 172.331792 
L 449.151087 188.354913 
L 450.128177 83.476301 
L 451.105268 150.482081 
L 452.082358 151.938728 
L 453.059448 147.568786 
L 454.036539 170.875145 
L 455.013629 166.505202 
L 455.990719 173.788439 
L 456.96781 173.788439 
L 457.9449 143.198844 
L 458.92199 284.493642 
L 459.899081 307.8 
L 461.853261 307.8 
L 462.830352 234.96763 
L 463.807442 267.013873 
L 464.784532 307.8 
L 465.761623 274.29711 
L 466.738713 246.620809 
L 467.715803 307.8 
L 468.692894 299.060116 
L 470.647074 307.8 
L 471.624165 265.557225 
L 472.601255 284.493642 
L 473.578345 307.8 
L 474.555436 287.406936 
L 475.532526 307.8 
L 476.509616 307.8 
L 477.486707 280.123699 
L 478.463797 296.146821 
L 479.440887 307.8 
L 480.417978 307.8 
L 481.395068 287.406936 
L 482.372158 303.430058 
L 483.349249 115.522543 
L 484.326339 198.551445 
L 485.303429 201.46474 
L 486.280519 173.788439 
L 487.25761 194.181503 
L 488.2347 154.852023 
L 489.21179 134.45896 
L 490.188881 175.245087 
L 491.165971 79.106358 
L 492.143061 210.204624 
L 493.120152 146.112139 
L 494.097242 182.528324 
L 495.074332 159.221965 
L 496.051423 224.771098 
L 497.028513 204.378035 
L 498.005603 74.736416 
L 498.982694 200.008092 
L 499.959784 156.308671 
L 500.936874 154.852023 
L 501.913965 150.482081 
L 502.891055 172.331792 
L 503.868145 198.551445 
L 504.845236 189.811561 
L 505.822326 119.892486 
L 506.799416 131.545665 
L 507.776507 307.8 
L 509.730687 307.8 
L 510.707778 272.840462 
L 511.684868 307.8 
L 512.661958 252.447399 
L 513.639049 306.343353 
L 514.616139 307.8 
L 515.593229 288.863584 
L 516.57032 280.123699 
L 517.54741 307.8 
L 518.5245 272.840462 
L 519.501591 250.990751 
L 520.478681 293.233526 
L 521.455771 277.210405 
L 522.432862 287.406936 
L 523.409952 307.8 
L 524.387042 307.8 
L 525.364132 277.210405 
L 526.341223 272.840462 
L 527.318313 303.430058 
L 528.295403 307.8 
L 530.249584 307.8 
L 531.226674 275.753757 
L 532.203765 176.701734 
L 533.180855 185.441618 
L 534.157945 150.482081 
L 535.135036 166.505202 
L 536.112126 87.846243 
L 537.089216 127.175723 
L 538.066307 195.63815 
L 539.043397 179.615029 
L 540.020487 141.742197 
L 540.997578 147.568786 
L 541.974668 191.268208 
L 542.951758 189.811561 
L 543.928849 130.089017 
L 544.905939 208.747977 
L 545.883029 179.615029 
L 546.86012 124.262428 
L 547.83721 130.089017 
L 548.8143 217.487861 
L 549.791391 175.245087 
L 550.768481 189.811561 
L 551.745571 185.441618 
L 552.722662 150.482081 
L 553.699752 149.025434 
L 554.676842 115.522543 
L 555.653933 186.898266 
L 556.631023 296.146821 
L 557.608113 307.8 
L 558.585204 306.343353 
L 559.562294 307.8 
L 565.424836 307.8 
L 566.401926 294.690173 
L 567.379016 275.753757 
L 568.356107 307.8 
L 570.310287 307.8 
L 571.287378 280.123699 
L 572.264468 307.8 
L 574.218649 307.8 
L 575.195739 300.516763 
L 576.172829 249.534104 
L 577.14992 306.343353 
L 578.12701 307.8 
L 579.1041 307.8 
L 580.081191 162.13526 
L 581.058281 154.852023 
L 582.035371 133.002312 
L 583.012462 233.510983 
L 583.989552 114.065896 
L 584.966642 211.661272 
L 586.920823 159.221965 
L 587.897913 115.522543 
L 588.875004 172.331792 
L 589.852094 150.482081 
L 590.829184 151.938728 
L 591.806275 108.239306 
L 592.783365 122.80578 
L 593.760455 146.112139 
L 594.737546 205.834682 
L 595.714636 133.002312 
L 596.691726 170.875145 
L 597.668817 166.505202 
L 598.645907 175.245087 
L 599.622997 176.701734 
L 600.600088 128.63237 
L 601.577178 165.048555 
L 602.554268 167.96185 
L 603.531359 131.545665 
L 604.508449 307.8 
L 605.485539 307.8 
L 606.46263 277.210405 
L 607.43972 307.8 
L 608.41681 307.8 
L 609.3939 301.97341 
L 610.370991 307.8 
L 614.279352 307.8 
L 615.256442 283.036994 
L 616.233533 307.8 
L 617.210623 283.036994 
L 618.187713 307.8 
L 620.141894 307.8 
L 621.118984 299.060116 
L 622.096075 307.8 
L 623.073165 303.430058 
L 624.050255 269.927168 
L 625.027346 285.950289 
L 626.004436 277.210405 
L 626.981526 290.320231 
L 627.958617 306.343353 
L 628.935707 157.765318 
L 629.912797 135.915607 
L 630.889888 118.435838 
L 631.866978 153.395376 
L 632.844068 156.308671 
L 633.821159 198.551445 
L 634.798249 121.349133 
L 635.775339 202.921387 
L 636.75243 172.331792 
L 637.72952 163.591908 
L 639.683701 194.181503 
L 640.660791 173.788439 
L 642.614972 127.175723 
L 643.592062 146.112139 
L 644.569152 109.695954 
L 645.546243 149.025434 
L 646.523333 166.505202 
L 647.500423 176.701734 
L 648.477513 185.441618 
L 649.454604 150.482081 
L 650.431694 131.545665 
L 651.408784 167.96185 
L 652.385875 170.875145 
L 653.362965 307.8 
L 654.340055 307.8 
L 655.317146 301.97341 
L 656.294236 300.516763 
L 657.271326 280.123699 
L 658.248417 245.164162 
L 659.225507 293.233526 
L 660.202597 290.320231 
L 661.179688 253.904046 
L 662.156778 307.8 
L 663.133868 307.8 
L 664.110959 300.516763 
L 665.088049 274.29711 
L 666.065139 307.8 
L 668.01932 307.8 
L 668.99641 299.060116 
L 669.973501 258.273988 
L 670.950591 307.8 
L 673.881862 307.8 
L 674.858952 288.863584 
L 675.836043 307.8 
L 676.813133 293.233526 
L 677.790223 106.782659 
L 678.767314 175.245087 
L 679.744404 169.418497 
L 680.721494 162.13526 
L 681.698585 162.13526 
L 682.675675 153.395376 
L 683.652765 154.852023 
L 684.629856 166.505202 
L 685.606946 224.771098 
L 686.584036 210.204624 
L 687.561127 105.326012 
L 688.538217 188.354913 
L 689.515307 106.782659 
L 690.492397 178.158382 
L 691.469488 160.678613 
L 692.446578 176.701734 
L 693.423668 159.221965 
L 694.400759 183.984971 
L 695.377849 202.921387 
L 696.354939 116.979191 
L 697.33203 133.002312 
L 698.30912 128.63237 
L 699.28621 189.811561 
L 700.263301 149.025434 
L 701.240391 217.487861 
L 702.217481 307.8 
L 705.148752 307.8 
L 706.125843 272.840462 
L 707.102933 269.927168 
L 708.080023 307.8 
L 710.034204 307.8 
L 711.011294 277.210405 
L 711.988385 240.79422 
L 712.965475 307.8 
L 713.942565 288.863584 
L 714.919656 307.8 
L 715.896746 272.840462 
L 716.873836 307.8 
L 717.850927 307.8 
L 718.828017 287.406936 
L 719.805107 307.8 
L 720.782198 307.8 
L 721.759288 300.516763 
L 722.736378 248.077457 
L 723.713469 294.690173 
L 724.690559 290.320231 
L 725.667649 165.048555 
L 726.64474 157.765318 
L 727.62183 163.591908 
L 728.59892 192.724855 
L 729.576011 166.505202 
L 730.553101 146.112139 
L 731.530191 140.285549 
L 732.507281 159.221965 
L 733.484372 204.378035 
L 734.461462 198.551445 
L 735.438552 202.921387 
L 736.415643 124.262428 
L 737.392733 183.984971 
L 738.369823 211.661272 
L 739.346914 163.591908 
L 740.324004 95.12948 
L 741.301094 157.765318 
L 742.278185 151.938728 
L 743.255275 162.13526 
L 744.232365 173.788439 
L 745.209456 210.204624 
L 746.186546 197.094798 
L 747.163636 170.875145 
L 747.163636 170.875145 
" clip-path="url(#p101f84d401)" style="fill: none; stroke: #191970; stroke-width: 2; stroke-linecap: square"/>
   </g>
   <g id="patch_3">
    <path d="M 108 320.4 
L 108 43.2 
" style="fill: none; stroke: #000000; stroke-width: 0.8; stroke-linejoin: miter; stroke-linecap: square"/>
   </g>
   <g id="patch_4">
    <path d="M 777.6 320.4 
L 777.6 43.2 
" style="fill: none; stroke: #000000; stroke-width: 0.8; stroke-linejoin: miter; stroke-linecap: square"/>
   </g>
   <g id="patch_5">
    <path d="M 108 320.4 
L 777.6 320.4 
" style="fill: none; stroke: #000000; stroke-width: 0.8; stroke-linejoin: miter; stroke-linecap: square"/>
   </g>
   <g id="patch_6">
    <path d="M 108 43.2 
L 777.6 43.2 
" style="fill: none; stroke: #000000; stroke-width: 0.8; stroke-linejoin: miter; stroke-linecap: square"/>
   </g>
   <g id="text_18">
    <!-- TIME SERIES -->
    <g transform="translate(405.350625 37.2) scale(0.12 -0.12)">
     <defs>
      <path id="DejaVuSans-52" d="M 2841 2188 
Q 3044 2119 3236 1894 
Q 3428 1669 3622 1275 
L 4263 0 
L 3584 0 
L 2988 1197 
Q 2756 1666 2539 1819 
Q 2322 1972 1947 1972 
L 1259 1972 
L 1259 0 
L 628 0 
L 628 4666 
L 2053 4666 
Q 2853 4666 3247 4331 
Q 3641 3997 3641 3322 
Q 3641 2881 3436 2590 
Q 3231 2300 2841 2188 
z
M 1259 4147 
L 1259 2491 
L 2053 2491 
Q 2509 2491 2742 2702 
Q 2975 2913 2975 3322 
Q 2975 3731 2742 3939 
Q 2509 4147 2053 4147 
L 1259 4147 
z
" transform="scale(0.015625)"/>
     </defs>
     <use xlink:href="#DejaVuSans-54"/>
     <use xlink:href="#DejaVuSans-49" x="61.083984"/>
     <use xlink:href="#DejaVuSans-4d" x="90.576172"/>
     <use xlink:href="#DejaVuSans-45" x="176.855469"/>
     <use xlink:href="#DejaVuSans-20" x="240.039062"/>
     <use xlink:href="#DejaVuSans-53" x="271.826172"/>
     <use xlink:href="#DejaVuSans-45" x="335.302734"/>
     <use xlink:href="#DejaVuSans-52" x="398.486328"/>
     <use xlink:href="#DejaVuSans-49" x="467.96875"/>
     <use xlink:href="#DejaVuSans-45" x="497.460938"/>
     <use xlink:href="#DejaVuSans-53" x="560.644531"/>
    </g>
   </g>
  </g>
 </g>
 <defs>
  <clipPath id="p101f84d401">
   <rect x="108" y="43.2" width="669.6" height="277.2"/>
  </clipPath>
 </defs>
</svg>
