<?xml version="1.0" encoding="utf-8" standalone="no"?>
<!DOCTYPE svg PUBLIC "-//W3C//DTD SVG 1.1//EN"
  "http://www.w3.org/Graphics/SVG/1.1/DTD/svg11.dtd">
<svg xmlns:xlink="http://www.w3.org/1999/xlink" width="864pt" height="360pt" viewBox="0 0 864 360" xmlns="http://www.w3.org/2000/svg" version="1.1">
 <metadata>
  <rdf:RDF xmlns:dc="http://purl.org/dc/elements/1.1/" xmlns:cc="http://creativecommons.org/ns#" xmlns:rdf="http://www.w3.org/1999/02/22-rdf-syntax-ns#">
   <cc:Work>
    <dc:type rdf:resource="http://purl.org/dc/dcmitype/StillImage"/>
    <dc:date>2023-11-27T21:13:56.228420</dc:date>
    <dc:format>image/svg+xml</dc:format>
    <dc:creator>
     <cc:Agent>
      <dc:title>Matplotlib v3.7.4, https://matplotlib.org/</dc:title>
     </cc:Agent>
    </dc:creator>
   </cc:Work>
  </rdf:RDF>
 </metadata>
 <defs>
  <style type="text/css">*{stroke-linejoin: round; stroke-linecap: butt}</style>
 </defs>
 <g id="figure_1">
  <g id="patch_1">
   <path d="M 0 360 
L 864 360 
L 864 0 
L 0 0 
z
" style="fill: #ffffff"/>
  </g>
  <g id="axes_1">
   <g id="patch_2">
    <path d="M 108 320.4 
L 777.6 320.4 
L 777.6 43.2 
L 108 43.2 
z
" style="fill: #ffffff"/>
   </g>
   <g id="matplotlib.axis_1">
    <g id="xtick_1">
     <g id="line2d_1">
      <defs>
       <path id="m2feeab3cf6" d="M 0 0 
L 0 3.5 
" style="stroke: #000000; stroke-width: 0.8"/>
      </defs>
      <g>
       <use xlink:href="#m2feeab3cf6" x="138.436364" y="320.4" style="stroke: #000000; stroke-width: 0.8"/>
      </g>
     </g>
     <g id="text_1">
      <!-- 2022-01-01 -->
      <g transform="translate(103.566989 336.518125) scale(0.12 -0.12)">
       <defs>
        <path id="DejaVuSans-32" d="M 1228 531 
L 3431 531 
L 3431 0 
L 469 0 
L 469 531 
Q 828 903 1448 1529 
Q 2069 2156 2228 2338 
Q 2531 2678 2651 2914 
Q 2772 3150 2772 3378 
Q 2772 3750 2511 3984 
Q 2250 4219 1831 4219 
Q 1534 4219 1204 4116 
Q 875 4013 500 3803 
L 500 4441 
Q 881 4594 1212 4672 
Q 1544 4750 1819 4750 
Q 2544 4750 2975 4387 
Q 3406 4025 3406 3419 
Q 3406 3131 3298 2873 
Q 3191 2616 2906 2266 
Q 2828 2175 2409 1742 
Q 1991 1309 1228 531 
z
" transform="scale(0.015625)"/>
        <path id="DejaVuSans-30" d="M 2034 4250 
Q 1547 4250 1301 3770 
Q 1056 3291 1056 2328 
Q 1056 1369 1301 889 
Q 1547 409 2034 409 
Q 2525 409 2770 889 
Q 3016 1369 3016 2328 
Q 3016 3291 2770 3770 
Q 2525 4250 2034 4250 
z
M 2034 4750 
Q 2819 4750 3233 4129 
Q 3647 3509 3647 2328 
Q 3647 1150 3233 529 
Q 2819 -91 2034 -91 
Q 1250 -91 836 529 
Q 422 1150 422 2328 
Q 422 3509 836 4129 
Q 1250 4750 2034 4750 
z
" transform="scale(0.015625)"/>
        <path id="DejaVuSans-2d" d="M 313 2009 
L 1997 2009 
L 1997 1497 
L 313 1497 
L 313 2009 
z
" transform="scale(0.015625)"/>
        <path id="DejaVuSans-31" d="M 794 531 
L 1825 531 
L 1825 4091 
L 703 3866 
L 703 4441 
L 1819 4666 
L 2450 4666 
L 2450 531 
L 3481 531 
L 3481 0 
L 794 0 
L 794 531 
z
" transform="scale(0.015625)"/>
       </defs>
       <use xlink:href="#DejaVuSans-32"/>
       <use xlink:href="#DejaVuSans-30" x="63.623047"/>
       <use xlink:href="#DejaVuSans-32" x="127.246094"/>
       <use xlink:href="#DejaVuSans-32" x="190.869141"/>
       <use xlink:href="#DejaVuSans-2d" x="254.492188"/>
       <use xlink:href="#DejaVuSans-30" x="290.576172"/>
       <use xlink:href="#DejaVuSans-31" x="354.199219"/>
       <use xlink:href="#DejaVuSans-2d" x="417.822266"/>
       <use xlink:href="#DejaVuSans-30" x="453.90625"/>
       <use xlink:href="#DejaVuSans-31" x="517.529297"/>
      </g>
     </g>
    </g>
    <g id="xtick_2">
     <g id="line2d_2">
      <g>
       <use xlink:href="#m2feeab3cf6" x="219.712884" y="320.4" style="stroke: #000000; stroke-width: 0.8"/>
      </g>
     </g>
     <g id="text_2">
      <!-- 2022-01-03 -->
      <g transform="translate(184.843509 336.518125) scale(0.12 -0.12)">
       <defs>
        <path id="DejaVuSans-33" d="M 2597 2516 
Q 3050 2419 3304 2112 
Q 3559 1806 3559 1356 
Q 3559 666 3084 287 
Q 2609 -91 1734 -91 
Q 1441 -91 1130 -33 
Q 819 25 488 141 
L 488 750 
Q 750 597 1062 519 
Q 1375 441 1716 441 
Q 2309 441 2620 675 
Q 2931 909 2931 1356 
Q 2931 1769 2642 2001 
Q 2353 2234 1838 2234 
L 1294 2234 
L 1294 2753 
L 1863 2753 
Q 2328 2753 2575 2939 
Q 2822 3125 2822 3475 
Q 2822 3834 2567 4026 
Q 2313 4219 1838 4219 
Q 1578 4219 1281 4162 
Q 984 4106 628 3988 
L 628 4550 
Q 988 4650 1302 4700 
Q 1616 4750 1894 4750 
Q 2613 4750 3031 4423 
Q 3450 4097 3450 3541 
Q 3450 3153 3228 2886 
Q 3006 2619 2597 2516 
z
" transform="scale(0.015625)"/>
       </defs>
       <use xlink:href="#DejaVuSans-32"/>
       <use xlink:href="#DejaVuSans-30" x="63.623047"/>
       <use xlink:href="#DejaVuSans-32" x="127.246094"/>
       <use xlink:href="#DejaVuSans-32" x="190.869141"/>
       <use xlink:href="#DejaVuSans-2d" x="254.492188"/>
       <use xlink:href="#DejaVuSans-30" x="290.576172"/>
       <use xlink:href="#DejaVuSans-31" x="354.199219"/>
       <use xlink:href="#DejaVuSans-2d" x="417.822266"/>
       <use xlink:href="#DejaVuSans-30" x="453.90625"/>
       <use xlink:href="#DejaVuSans-33" x="517.529297"/>
      </g>
     </g>
    </g>
    <g id="xtick_3">
     <g id="line2d_3">
      <g>
       <use xlink:href="#m2feeab3cf6" x="300.989404" y="320.4" style="stroke: #000000; stroke-width: 0.8"/>
      </g>
     </g>
     <g id="text_3">
      <!-- 2022-01-05 -->
      <g transform="translate(266.120029 336.518125) scale(0.12 -0.12)">
       <defs>
        <path id="DejaVuSans-35" d="M 691 4666 
L 3169 4666 
L 3169 4134 
L 1269 4134 
L 1269 2991 
Q 1406 3038 1543 3061 
Q 1681 3084 1819 3084 
Q 2600 3084 3056 2656 
Q 3513 2228 3513 1497 
Q 3513 744 3044 326 
Q 2575 -91 1722 -91 
Q 1428 -91 1123 -41 
Q 819 9 494 109 
L 494 744 
Q 775 591 1075 516 
Q 1375 441 1709 441 
Q 2250 441 2565 725 
Q 2881 1009 2881 1497 
Q 2881 1984 2565 2268 
Q 2250 2553 1709 2553 
Q 1456 2553 1204 2497 
Q 953 2441 691 2322 
L 691 4666 
z
" transform="scale(0.015625)"/>
       </defs>
       <use xlink:href="#DejaVuSans-32"/>
       <use xlink:href="#DejaVuSans-30" x="63.623047"/>
       <use xlink:href="#DejaVuSans-32" x="127.246094"/>
       <use xlink:href="#DejaVuSans-32" x="190.869141"/>
       <use xlink:href="#DejaVuSans-2d" x="254.492188"/>
       <use xlink:href="#DejaVuSans-30" x="290.576172"/>
       <use xlink:href="#DejaVuSans-31" x="354.199219"/>
       <use xlink:href="#DejaVuSans-2d" x="417.822266"/>
       <use xlink:href="#DejaVuSans-30" x="453.90625"/>
       <use xlink:href="#DejaVuSans-35" x="517.529297"/>
      </g>
     </g>
    </g>
    <g id="xtick_4">
     <g id="line2d_4">
      <g>
       <use xlink:href="#m2feeab3cf6" x="382.265925" y="320.4" style="stroke: #000000; stroke-width: 0.8"/>
      </g>
     </g>
     <g id="text_4">
      <!-- 2022-01-07 -->
      <g transform="translate(347.39655 336.518125) scale(0.12 -0.12)">
       <defs>
        <path id="DejaVuSans-37" d="M 525 4666 
L 3525 4666 
L 3525 4397 
L 1831 0 
L 1172 0 
L 2766 4134 
L 525 4134 
L 525 4666 
z
" transform="scale(0.015625)"/>
       </defs>
       <use xlink:href="#DejaVuSans-32"/>
       <use xlink:href="#DejaVuSans-30" x="63.623047"/>
       <use xlink:href="#DejaVuSans-32" x="127.246094"/>
       <use xlink:href="#DejaVuSans-32" x="190.869141"/>
       <use xlink:href="#DejaVuSans-2d" x="254.492188"/>
       <use xlink:href="#DejaVuSans-30" x="290.576172"/>
       <use xlink:href="#DejaVuSans-31" x="354.199219"/>
       <use xlink:href="#DejaVuSans-2d" x="417.822266"/>
       <use xlink:href="#DejaVuSans-30" x="453.90625"/>
       <use xlink:href="#DejaVuSans-37" x="517.529297"/>
      </g>
     </g>
    </g>
    <g id="xtick_5">
     <g id="line2d_5">
      <g>
       <use xlink:href="#m2feeab3cf6" x="463.542445" y="320.4" style="stroke: #000000; stroke-width: 0.8"/>
      </g>
     </g>
     <g id="text_5">
      <!-- 2022-01-09 -->
      <g transform="translate(428.67307 336.518125) scale(0.12 -0.12)">
       <defs>
        <path id="DejaVuSans-39" d="M 703 97 
L 703 672 
Q 941 559 1184 500 
Q 1428 441 1663 441 
Q 2288 441 2617 861 
Q 2947 1281 2994 2138 
Q 2813 1869 2534 1725 
Q 2256 1581 1919 1581 
Q 1219 1581 811 2004 
Q 403 2428 403 3163 
Q 403 3881 828 4315 
Q 1253 4750 1959 4750 
Q 2769 4750 3195 4129 
Q 3622 3509 3622 2328 
Q 3622 1225 3098 567 
Q 2575 -91 1691 -91 
Q 1453 -91 1209 -44 
Q 966 3 703 97 
z
M 1959 2075 
Q 2384 2075 2632 2365 
Q 2881 2656 2881 3163 
Q 2881 3666 2632 3958 
Q 2384 4250 1959 4250 
Q 1534 4250 1286 3958 
Q 1038 3666 1038 3163 
Q 1038 2656 1286 2365 
Q 1534 2075 1959 2075 
z
" transform="scale(0.015625)"/>
       </defs>
       <use xlink:href="#DejaVuSans-32"/>
       <use xlink:href="#DejaVuSans-30" x="63.623047"/>
       <use xlink:href="#DejaVuSans-32" x="127.246094"/>
       <use xlink:href="#DejaVuSans-32" x="190.869141"/>
       <use xlink:href="#DejaVuSans-2d" x="254.492188"/>
       <use xlink:href="#DejaVuSans-30" x="290.576172"/>
       <use xlink:href="#DejaVuSans-31" x="354.199219"/>
       <use xlink:href="#DejaVuSans-2d" x="417.822266"/>
       <use xlink:href="#DejaVuSans-30" x="453.90625"/>
       <use xlink:href="#DejaVuSans-39" x="517.529297"/>
      </g>
     </g>
    </g>
    <g id="xtick_6">
     <g id="line2d_6">
      <g>
       <use xlink:href="#m2feeab3cf6" x="544.818966" y="320.4" style="stroke: #000000; stroke-width: 0.8"/>
      </g>
     </g>
     <g id="text_6">
      <!-- 2022-01-11 -->
      <g transform="translate(509.949591 336.518125) scale(0.12 -0.12)">
       <use xlink:href="#DejaVuSans-32"/>
       <use xlink:href="#DejaVuSans-30" x="63.623047"/>
       <use xlink:href="#DejaVuSans-32" x="127.246094"/>
       <use xlink:href="#DejaVuSans-32" x="190.869141"/>
       <use xlink:href="#DejaVuSans-2d" x="254.492188"/>
       <use xlink:href="#DejaVuSans-30" x="290.576172"/>
       <use xlink:href="#DejaVuSans-31" x="354.199219"/>
       <use xlink:href="#DejaVuSans-2d" x="417.822266"/>
       <use xlink:href="#DejaVuSans-31" x="453.90625"/>
       <use xlink:href="#DejaVuSans-31" x="517.529297"/>
      </g>
     </g>
    </g>
    <g id="xtick_7">
     <g id="line2d_7">
      <g>
       <use xlink:href="#m2feeab3cf6" x="626.095486" y="320.4" style="stroke: #000000; stroke-width: 0.8"/>
      </g>
     </g>
     <g id="text_7">
      <!-- 2022-01-13 -->
      <g transform="translate(591.226111 336.518125) scale(0.12 -0.12)">
       <use xlink:href="#DejaVuSans-32"/>
       <use xlink:href="#DejaVuSans-30" x="63.623047"/>
       <use xlink:href="#DejaVuSans-32" x="127.246094"/>
       <use xlink:href="#DejaVuSans-32" x="190.869141"/>
       <use xlink:href="#DejaVuSans-2d" x="254.492188"/>
       <use xlink:href="#DejaVuSans-30" x="290.576172"/>
       <use xlink:href="#DejaVuSans-31" x="354.199219"/>
       <use xlink:href="#DejaVuSans-2d" x="417.822266"/>
       <use xlink:href="#DejaVuSans-31" x="453.90625"/>
       <use xlink:href="#DejaVuSans-33" x="517.529297"/>
      </g>
     </g>
    </g>
    <g id="xtick_8">
     <g id="line2d_8">
      <g>
       <use xlink:href="#m2feeab3cf6" x="707.372007" y="320.4" style="stroke: #000000; stroke-width: 0.8"/>
      </g>
     </g>
     <g id="text_8">
      <!-- 2022-01-15 -->
      <g transform="translate(672.502632 336.518125) scale(0.12 -0.12)">
       <use xlink:href="#DejaVuSans-32"/>
       <use xlink:href="#DejaVuSans-30" x="63.623047"/>
       <use xlink:href="#DejaVuSans-32" x="127.246094"/>
       <use xlink:href="#DejaVuSans-32" x="190.869141"/>
       <use xlink:href="#DejaVuSans-2d" x="254.492188"/>
       <use xlink:href="#DejaVuSans-30" x="290.576172"/>
       <use xlink:href="#DejaVuSans-31" x="354.199219"/>
       <use xlink:href="#DejaVuSans-2d" x="417.822266"/>
       <use xlink:href="#DejaVuSans-31" x="453.90625"/>
       <use xlink:href="#DejaVuSans-35" x="517.529297"/>
      </g>
     </g>
    </g>
    <g id="text_9">
     <!-- TIME (DAYS) -->
     <g transform="translate(393.97375 355.17125) scale(0.16 -0.16)">
      <defs>
       <path id="DejaVuSans-54" d="M -19 4666 
L 3928 4666 
L 3928 4134 
L 2272 4134 
L 2272 0 
L 1638 0 
L 1638 4134 
L -19 4134 
L -19 4666 
z
" transform="scale(0.015625)"/>
       <path id="DejaVuSans-49" d="M 628 4666 
L 1259 4666 
L 1259 0 
L 628 0 
L 628 4666 
z
" transform="scale(0.015625)"/>
       <path id="DejaVuSans-4d" d="M 628 4666 
L 1569 4666 
L 2759 1491 
L 3956 4666 
L 4897 4666 
L 4897 0 
L 4281 0 
L 4281 4097 
L 3078 897 
L 2444 897 
L 1241 4097 
L 1241 0 
L 628 0 
L 628 4666 
z
" transform="scale(0.015625)"/>
       <path id="DejaVuSans-45" d="M 628 4666 
L 3578 4666 
L 3578 4134 
L 1259 4134 
L 1259 2753 
L 3481 2753 
L 3481 2222 
L 1259 2222 
L 1259 531 
L 3634 531 
L 3634 0 
L 628 0 
L 628 4666 
z
" transform="scale(0.015625)"/>
       <path id="DejaVuSans-20" transform="scale(0.015625)"/>
       <path id="DejaVuSans-28" d="M 1984 4856 
Q 1566 4138 1362 3434 
Q 1159 2731 1159 2009 
Q 1159 1288 1364 580 
Q 1569 -128 1984 -844 
L 1484 -844 
Q 1016 -109 783 600 
Q 550 1309 550 2009 
Q 550 2706 781 3412 
Q 1013 4119 1484 4856 
L 1984 4856 
z
" transform="scale(0.015625)"/>
       <path id="DejaVuSans-44" d="M 1259 4147 
L 1259 519 
L 2022 519 
Q 2988 519 3436 956 
Q 3884 1394 3884 2338 
Q 3884 3275 3436 3711 
Q 2988 4147 2022 4147 
L 1259 4147 
z
M 628 4666 
L 1925 4666 
Q 3281 4666 3915 4102 
Q 4550 3538 4550 2338 
Q 4550 1131 3912 565 
Q 3275 0 1925 0 
L 628 0 
L 628 4666 
z
" transform="scale(0.015625)"/>
       <path id="DejaVuSans-41" d="M 2188 4044 
L 1331 1722 
L 3047 1722 
L 2188 4044 
z
M 1831 4666 
L 2547 4666 
L 4325 0 
L 3669 0 
L 3244 1197 
L 1141 1197 
L 716 0 
L 50 0 
L 1831 4666 
z
" transform="scale(0.015625)"/>
       <path id="DejaVuSans-59" d="M -13 4666 
L 666 4666 
L 1959 2747 
L 3244 4666 
L 3922 4666 
L 2272 2222 
L 2272 0 
L 1638 0 
L 1638 2222 
L -13 4666 
z
" transform="scale(0.015625)"/>
       <path id="DejaVuSans-53" d="M 3425 4513 
L 3425 3897 
Q 3066 4069 2747 4153 
Q 2428 4238 2131 4238 
Q 1616 4238 1336 4038 
Q 1056 3838 1056 3469 
Q 1056 3159 1242 3001 
Q 1428 2844 1947 2747 
L 2328 2669 
Q 3034 2534 3370 2195 
Q 3706 1856 3706 1288 
Q 3706 609 3251 259 
Q 2797 -91 1919 -91 
Q 1588 -91 1214 -16 
Q 841 59 441 206 
L 441 856 
Q 825 641 1194 531 
Q 1563 422 1919 422 
Q 2459 422 2753 634 
Q 3047 847 3047 1241 
Q 3047 1584 2836 1778 
Q 2625 1972 2144 2069 
L 1759 2144 
Q 1053 2284 737 2584 
Q 422 2884 422 3419 
Q 422 4038 858 4394 
Q 1294 4750 2059 4750 
Q 2388 4750 2728 4690 
Q 3069 4631 3425 4513 
z
" transform="scale(0.015625)"/>
       <path id="DejaVuSans-29" d="M 513 4856 
L 1013 4856 
Q 1481 4119 1714 3412 
Q 1947 2706 1947 2009 
Q 1947 1309 1714 600 
Q 1481 -109 1013 -844 
L 513 -844 
Q 928 -128 1133 580 
Q 1338 1288 1338 2009 
Q 1338 2731 1133 3434 
Q 928 4138 513 4856 
z
" transform="scale(0.015625)"/>
      </defs>
      <use xlink:href="#DejaVuSans-54"/>
      <use xlink:href="#DejaVuSans-49" x="61.083984"/>
      <use xlink:href="#DejaVuSans-4d" x="90.576172"/>
      <use xlink:href="#DejaVuSans-45" x="176.855469"/>
      <use xlink:href="#DejaVuSans-20" x="240.039062"/>
      <use xlink:href="#DejaVuSans-28" x="271.826172"/>
      <use xlink:href="#DejaVuSans-44" x="310.839844"/>
      <use xlink:href="#DejaVuSans-41" x="386.091797"/>
      <use xlink:href="#DejaVuSans-59" x="446.75"/>
      <use xlink:href="#DejaVuSans-53" x="507.833984"/>
      <use xlink:href="#DejaVuSans-29" x="571.310547"/>
     </g>
    </g>
   </g>
   <g id="matplotlib.axis_2">
    <g id="ytick_1">
     <g id="line2d_9">
      <defs>
       <path id="m77522cc6d8" d="M 0 0 
L -3.5 0 
" style="stroke: #000000; stroke-width: 0.8"/>
      </defs>
      <g>
       <use xlink:href="#m77522cc6d8" x="108" y="307.8" style="stroke: #000000; stroke-width: 0.8"/>
      </g>
     </g>
     <g id="text_10">
      <!-- 0 -->
      <g transform="translate(93.365 312.359062) scale(0.12 -0.12)">
       <use xlink:href="#DejaVuSans-30"/>
      </g>
     </g>
    </g>
    <g id="ytick_2">
     <g id="line2d_10">
      <g>
       <use xlink:href="#m77522cc6d8" x="108" y="269.385366" style="stroke: #000000; stroke-width: 0.8"/>
      </g>
     </g>
     <g id="text_11">
      <!-- 25 -->
      <g transform="translate(85.73 273.944428) scale(0.12 -0.12)">
       <use xlink:href="#DejaVuSans-32"/>
       <use xlink:href="#DejaVuSans-35" x="63.623047"/>
      </g>
     </g>
    </g>
    <g id="ytick_3">
     <g id="line2d_11">
      <g>
       <use xlink:href="#m77522cc6d8" x="108" y="230.970732" style="stroke: #000000; stroke-width: 0.8"/>
      </g>
     </g>
     <g id="text_12">
      <!-- 50 -->
      <g transform="translate(85.73 235.529794) scale(0.12 -0.12)">
       <use xlink:href="#DejaVuSans-35"/>
       <use xlink:href="#DejaVuSans-30" x="63.623047"/>
      </g>
     </g>
    </g>
    <g id="ytick_4">
     <g id="line2d_12">
      <g>
       <use xlink:href="#m77522cc6d8" x="108" y="192.556098" style="stroke: #000000; stroke-width: 0.8"/>
      </g>
     </g>
     <g id="text_13">
      <!-- 75 -->
      <g transform="translate(85.73 197.11516) scale(0.12 -0.12)">
       <use xlink:href="#DejaVuSans-37"/>
       <use xlink:href="#DejaVuSans-35" x="63.623047"/>
      </g>
     </g>
    </g>
    <g id="ytick_5">
     <g id="line2d_13">
      <g>
       <use xlink:href="#m77522cc6d8" x="108" y="154.141463" style="stroke: #000000; stroke-width: 0.8"/>
      </g>
     </g>
     <g id="text_14">
      <!-- 100 -->
      <g transform="translate(78.095 158.700526) scale(0.12 -0.12)">
       <use xlink:href="#DejaVuSans-31"/>
       <use xlink:href="#DejaVuSans-30" x="63.623047"/>
       <use xlink:href="#DejaVuSans-30" x="127.246094"/>
      </g>
     </g>
    </g>
    <g id="ytick_6">
     <g id="line2d_14">
      <g>
       <use xlink:href="#m77522cc6d8" x="108" y="115.726829" style="stroke: #000000; stroke-width: 0.8"/>
      </g>
     </g>
     <g id="text_15">
      <!-- 125 -->
      <g transform="translate(78.095 120.285892) scale(0.12 -0.12)">
       <use xlink:href="#DejaVuSans-31"/>
       <use xlink:href="#DejaVuSans-32" x="63.623047"/>
       <use xlink:href="#DejaVuSans-35" x="127.246094"/>
      </g>
     </g>
    </g>
    <g id="ytick_7">
     <g id="line2d_15">
      <g>
       <use xlink:href="#m77522cc6d8" x="108" y="77.312195" style="stroke: #000000; stroke-width: 0.8"/>
      </g>
     </g>
     <g id="text_16">
      <!-- 150 -->
      <g transform="translate(78.095 81.871258) scale(0.12 -0.12)">
       <use xlink:href="#DejaVuSans-31"/>
       <use xlink:href="#DejaVuSans-35" x="63.623047"/>
       <use xlink:href="#DejaVuSans-30" x="127.246094"/>
      </g>
     </g>
    </g>
    <g id="text_17">
     <!-- SIMULATED -->
     <g transform="translate(52.851 227.5875) rotate(-90) scale(0.16 -0.16)">
      <defs>
       <path id="DejaVuSans-55" d="M 556 4666 
L 1191 4666 
L 1191 1831 
Q 1191 1081 1462 751 
Q 1734 422 2344 422 
Q 2950 422 3222 751 
Q 3494 1081 3494 1831 
L 3494 4666 
L 4128 4666 
L 4128 1753 
Q 4128 841 3676 375 
Q 3225 -91 2344 -91 
Q 1459 -91 1007 375 
Q 556 841 556 1753 
L 556 4666 
z
" transform="scale(0.015625)"/>
       <path id="DejaVuSans-4c" d="M 628 4666 
L 1259 4666 
L 1259 531 
L 3531 531 
L 3531 0 
L 628 0 
L 628 4666 
z
" transform="scale(0.015625)"/>
      </defs>
      <use xlink:href="#DejaVuSans-53"/>
      <use xlink:href="#DejaVuSans-49" x="63.476562"/>
      <use xlink:href="#DejaVuSans-4d" x="92.96875"/>
      <use xlink:href="#DejaVuSans-55" x="179.248047"/>
      <use xlink:href="#DejaVuSans-4c" x="252.441406"/>
      <use xlink:href="#DejaVuSans-41" x="310.404297"/>
      <use xlink:href="#DejaVuSans-54" x="371.0625"/>
      <use xlink:href="#DejaVuSans-45" x="432.146484"/>
      <use xlink:href="#DejaVuSans-44" x="495.330078"/>
     </g>
     <!-- AMPLITUDE -->
     <g transform="translate(70.7675 227.7725) rotate(-90) scale(0.16 -0.16)">
      <defs>
       <path id="DejaVuSans-50" d="M 1259 4147 
L 1259 2394 
L 2053 2394 
Q 2494 2394 2734 2622 
Q 2975 2850 2975 3272 
Q 2975 3691 2734 3919 
Q 2494 4147 2053 4147 
L 1259 4147 
z
M 628 4666 
L 2053 4666 
Q 2838 4666 3239 4311 
Q 3641 3956 3641 3272 
Q 3641 2581 3239 2228 
Q 2838 1875 2053 1875 
L 1259 1875 
L 1259 0 
L 628 0 
L 628 4666 
z
" transform="scale(0.015625)"/>
      </defs>
      <use xlink:href="#DejaVuSans-41"/>
      <use xlink:href="#DejaVuSans-4d" x="68.408203"/>
      <use xlink:href="#DejaVuSans-50" x="154.6875"/>
      <use xlink:href="#DejaVuSans-4c" x="214.990234"/>
      <use xlink:href="#DejaVuSans-49" x="270.703125"/>
      <use xlink:href="#DejaVuSans-54" x="300.195312"/>
      <use xlink:href="#DejaVuSans-55" x="361.279297"/>
      <use xlink:href="#DejaVuSans-44" x="434.472656"/>
      <use xlink:href="#DejaVuSans-45" x="511.474609"/>
     </g>
    </g>
   </g>
   <g id="line2d_16">
    <path d="M 138.436364 131.092683 
L 139.282994 307.8 
L 140.976255 307.8 
L 141.822885 304.726829 
L 142.669516 307.8 
L 143.516146 307.8 
L 144.362777 289.360976 
L 145.209407 286.287805 
L 146.056037 307.8 
L 146.902668 270.921951 
L 147.749298 307.8 
L 148.595929 307.8 
L 149.442559 290.897561 
L 150.28919 307.8 
L 151.13582 275.531707 
L 151.98245 275.531707 
L 152.829081 307.8 
L 153.675711 289.360976 
L 154.522342 257.092683 
L 155.368972 307.8 
L 158.755494 307.8 
L 159.602124 204.84878 
L 160.448755 147.995122 
L 161.295385 138.77561 
L 162.142015 149.531707 
L 162.988646 140.312195 
L 163.835276 137.239024 
L 164.681907 141.84878 
L 165.528537 155.678049 
L 166.375168 114.190244 
L 167.221798 164.897561 
L 168.068428 143.385366 
L 168.915059 157.214634 
L 169.761689 183.336585 
L 170.60832 141.84878 
L 171.45495 128.019512 
L 172.30158 132.629268 
L 173.148211 223.287805 
L 173.994841 129.556098 
L 174.841472 189.482927 
L 175.688102 157.214634 
L 176.534733 108.043902 
L 177.381363 129.556098 
L 178.227993 134.165854 
L 179.074624 98.82439 
L 179.921254 172.580488 
L 180.767885 307.8 
L 181.614515 295.507317 
L 182.461146 303.190244 
L 183.307776 307.8 
L 184.154406 232.507317 
L 185.001037 295.507317 
L 185.847667 307.8 
L 186.694298 307.8 
L 187.540928 300.117073 
L 188.387558 307.8 
L 189.234189 307.8 
L 190.080819 304.726829 
L 190.92745 280.141463 
L 191.77408 307.8 
L 192.620711 283.214634 
L 193.467341 269.385366 
L 194.313971 307.8 
L 195.160602 300.117073 
L 196.007232 307.8 
L 196.853863 295.507317 
L 197.700493 289.360976 
L 198.547124 307.8 
L 199.393754 275.531707 
L 200.240384 266.312195 
L 201.087015 292.434146 
L 201.933645 131.092683 
L 202.780276 149.531707 
L 203.626906 131.092683 
L 204.473536 177.190244 
L 205.320167 175.653659 
L 206.166797 167.970732 
L 207.013428 164.897561 
L 207.860058 157.214634 
L 208.706689 157.214634 
L 210.399949 135.702439 
L 211.24658 163.360976 
L 212.09321 115.726829 
L 212.939841 175.653659 
L 213.786471 151.068293 
L 214.633102 147.995122 
L 215.479732 134.165854 
L 216.326362 197.165854 
L 217.172993 103.434146 
L 218.019623 157.214634 
L 218.866254 198.702439 
L 219.712884 158.75122 
L 220.559514 134.165854 
L 221.406145 140.312195 
L 222.252775 126.482927 
L 223.099406 306.263415 
L 223.946036 307.8 
L 226.485927 307.8 
L 227.332558 272.458537 
L 228.179188 287.82439 
L 229.025819 264.77561 
L 229.872449 289.360976 
L 230.71908 303.190244 
L 231.56571 295.507317 
L 232.41234 307.8 
L 233.258971 250.946341 
L 234.105601 307.8 
L 234.952232 300.117073 
L 235.798862 307.8 
L 236.645492 307.8 
L 237.492123 298.580488 
L 238.338753 307.8 
L 240.032014 307.8 
L 240.878645 290.897561 
L 241.725275 303.190244 
L 242.571905 304.726829 
L 243.418536 307.8 
L 244.265166 128.019512 
L 245.111797 180.263415 
L 245.958427 71.165854 
L 246.805058 154.141463 
L 247.651688 146.458537 
L 248.498318 181.8 
L 249.344949 101.897561 
L 250.191579 112.653659 
L 251.03821 149.531707 
L 251.88484 180.263415 
L 252.73147 132.629268 
L 253.578101 164.897561 
L 254.424731 111.117073 
L 255.271362 128.019512 
L 256.117992 104.970732 
L 256.964623 97.287805 
L 257.811253 95.75122 
L 258.657883 178.726829 
L 259.504514 114.190244 
L 260.351144 189.482927 
L 261.197775 121.873171 
L 262.044405 175.653659 
L 262.891036 155.678049 
L 263.737666 177.190244 
L 264.584296 137.239024 
L 265.430927 307.8 
L 266.277557 307.8 
L 267.124188 186.409756 
L 267.970818 269.385366 
L 268.817448 301.653659 
L 269.664079 307.8 
L 270.510709 281.678049 
L 271.35734 235.580488 
L 272.20397 307.8 
L 273.050601 307.8 
L 273.897231 301.653659 
L 274.743861 307.8 
L 275.590492 249.409756 
L 276.437122 290.897561 
L 277.283753 278.604878 
L 278.130383 307.8 
L 278.977014 287.82439 
L 279.823644 307.8 
L 280.670274 261.702439 
L 281.516905 287.82439 
L 282.363535 247.873171 
L 283.210166 295.507317 
L 284.056796 307.8 
L 285.750057 307.8 
L 286.596687 138.77561 
L 287.443318 184.873171 
L 288.289948 109.580488 
L 289.136579 112.653659 
L 289.983209 218.678049 
L 290.829839 212.531707 
L 291.67647 161.82439 
L 292.5231 164.897561 
L 293.369731 152.604878 
L 294.216361 158.75122 
L 295.062992 183.336585 
L 295.909622 157.214634 
L 296.756252 106.507317 
L 297.602883 201.77561 
L 298.449513 209.458537 
L 299.296144 138.77561 
L 300.142774 154.141463 
L 300.989404 147.995122 
L 301.836035 149.531707 
L 302.682665 112.653659 
L 303.529296 164.897561 
L 304.375926 157.214634 
L 305.222557 114.190244 
L 306.069187 191.019512 
L 306.915817 126.482927 
L 308.609078 307.8 
L 309.455709 229.434146 
L 310.302339 307.8 
L 311.9956 307.8 
L 312.84223 278.604878 
L 313.688861 307.8 
L 314.535491 254.019512 
L 315.382122 287.82439 
L 316.228752 293.970732 
L 317.075382 307.8 
L 317.922013 257.092683 
L 318.768643 307.8 
L 320.461904 307.8 
L 321.308535 284.75122 
L 322.155165 307.8 
L 323.001795 307.8 
L 323.848426 287.82439 
L 324.695056 307.8 
L 325.541687 301.653659 
L 326.388317 307.8 
L 327.234948 266.312195 
L 328.081578 307.8 
L 328.928208 117.263415 
L 329.774839 94.214634 
L 330.621469 143.385366 
L 331.4681 135.702439 
L 332.31473 131.092683 
L 333.16136 247.873171 
L 334.007991 129.556098 
L 334.854621 108.043902 
L 335.701252 210.995122 
L 336.547882 183.336585 
L 337.394513 114.190244 
L 338.241143 200.239024 
L 339.087773 92.678049 
L 339.934404 174.117073 
L 340.781034 149.531707 
L 341.627665 218.678049 
L 342.474295 161.82439 
L 343.320926 149.531707 
L 344.167556 147.995122 
L 345.014186 201.77561 
L 345.860817 201.77561 
L 346.707447 143.385366 
L 347.554078 161.82439 
L 348.400708 227.897561 
L 349.247338 171.043902 
L 350.093969 307.8 
L 351.78723 307.8 
L 352.63386 254.019512 
L 353.480491 273.995122 
L 354.327121 307.8 
L 355.173751 304.726829 
L 356.020382 266.312195 
L 356.867012 307.8 
L 358.560273 307.8 
L 359.406904 240.190244 
L 360.253534 307.8 
L 361.946795 307.8 
L 362.793425 301.653659 
L 363.640056 307.8 
L 364.486686 307.8 
L 365.333316 295.507317 
L 366.179947 273.995122 
L 367.026577 307.8 
L 367.873208 280.141463 
L 368.719838 307.8 
L 369.566469 304.726829 
L 370.413099 297.043902 
L 371.259729 135.702439 
L 372.10636 189.482927 
L 372.95299 138.77561 
L 373.799621 215.604878 
L 374.646251 157.214634 
L 375.492882 126.482927 
L 376.339512 161.82439 
L 377.186142 161.82439 
L 378.032773 171.043902 
L 378.879403 171.043902 
L 379.726034 194.092683 
L 380.572664 97.287805 
L 381.419294 174.117073 
L 382.265925 103.434146 
L 383.112555 86.531707 
L 383.959186 158.75122 
L 384.805816 207.921951 
L 385.652447 180.263415 
L 387.345707 94.214634 
L 388.192338 101.897561 
L 389.038968 175.653659 
L 389.885599 112.653659 
L 390.732229 157.214634 
L 391.57886 164.897561 
L 392.42549 298.580488 
L 393.27212 307.8 
L 394.965381 307.8 
L 395.812012 254.019512 
L 396.658642 307.8 
L 397.505272 307.8 
L 398.351903 238.653659 
L 399.198533 307.8 
L 400.045164 307.8 
L 400.891794 301.653659 
L 401.738425 307.8 
L 404.278316 307.8 
L 405.124946 287.82439 
L 405.971577 295.507317 
L 406.818207 307.8 
L 408.511468 307.8 
L 409.358098 269.385366 
L 410.204729 284.75122 
L 411.051359 307.8 
L 411.89799 307.8 
L 412.74462 301.653659 
L 413.59125 131.092683 
L 414.437881 144.921951 
L 415.284511 146.458537 
L 416.131142 207.921951 
L 416.977772 154.141463 
L 417.824403 138.77561 
L 418.671033 155.678049 
L 419.517663 112.653659 
L 420.364294 198.702439 
L 421.210924 197.165854 
L 422.057555 187.946341 
L 422.904185 175.653659 
L 423.750816 134.165854 
L 424.597446 164.897561 
L 425.444076 184.873171 
L 426.290707 138.77561 
L 427.137337 167.970732 
L 427.983968 192.556098 
L 428.830598 181.8 
L 429.677228 98.82439 
L 430.523859 147.995122 
L 431.370489 151.068293 
L 432.21712 118.8 
L 433.06375 132.629268 
L 433.910381 74.239024 
L 434.757011 303.190244 
L 435.603641 284.75122 
L 436.450272 306.263415 
L 437.296902 307.8 
L 438.143533 281.678049 
L 438.990163 307.8 
L 439.836794 283.214634 
L 440.683424 307.8 
L 441.530054 275.531707 
L 442.376685 286.287805 
L 443.223315 237.117073 
L 444.069946 286.287805 
L 444.916576 307.8 
L 446.609837 307.8 
L 447.456467 284.75122 
L 448.303098 307.8 
L 452.53625 307.8 
L 453.38288 295.507317 
L 454.229511 171.043902 
L 455.076141 155.678049 
L 455.922772 111.117073 
L 456.769402 183.336585 
L 457.616032 137.239024 
L 458.462663 135.702439 
L 460.155924 180.263415 
L 461.002554 197.165854 
L 461.849184 121.873171 
L 462.695815 135.702439 
L 463.542445 140.312195 
L 464.389076 141.84878 
L 465.235706 174.117073 
L 466.082337 95.75122 
L 466.928967 151.068293 
L 467.775597 132.629268 
L 468.622228 132.629268 
L 469.468858 146.458537 
L 470.315489 157.214634 
L 471.162119 129.556098 
L 472.00875 111.117073 
L 472.85538 121.873171 
L 473.70201 293.970732 
L 474.548641 273.995122 
L 475.395271 307.8 
L 476.241902 298.580488 
L 477.088532 306.263415 
L 477.935162 277.068293 
L 478.781793 307.8 
L 479.628423 275.531707 
L 480.475054 306.263415 
L 481.321684 307.8 
L 482.168315 307.8 
L 483.014945 301.653659 
L 483.861575 263.239024 
L 484.708206 298.580488 
L 485.554836 261.702439 
L 486.401467 273.995122 
L 487.248097 241.726829 
L 488.094728 284.75122 
L 488.941358 272.458537 
L 489.787988 283.214634 
L 490.634619 287.82439 
L 491.481249 307.8 
L 492.32788 307.8 
L 493.17451 126.482927 
L 494.02114 212.531707 
L 494.867771 154.141463 
L 495.714401 129.556098 
L 496.561032 114.190244 
L 497.407662 118.8 
L 498.254293 117.263415 
L 499.100923 204.84878 
L 499.947553 117.263415 
L 500.794184 151.068293 
L 501.640814 161.82439 
L 502.487445 72.702439 
L 503.334075 109.580488 
L 504.180706 186.409756 
L 505.027336 137.239024 
L 505.873966 192.556098 
L 506.720597 172.580488 
L 507.567227 131.092683 
L 508.413858 217.141463 
L 509.260488 155.678049 
L 510.107118 149.531707 
L 510.953749 204.84878 
L 511.800379 118.8 
L 512.64701 269.385366 
L 513.49364 289.360976 
L 514.340271 283.214634 
L 515.186901 290.897561 
L 516.033531 307.8 
L 516.880162 307.8 
L 517.726792 217.141463 
L 518.573423 301.653659 
L 519.420053 257.092683 
L 520.266684 287.82439 
L 521.113314 297.043902 
L 521.959944 307.8 
L 522.806575 272.458537 
L 523.653205 304.726829 
L 524.499836 307.8 
L 526.193096 307.8 
L 527.039727 304.726829 
L 527.886357 307.8 
L 529.579618 307.8 
L 530.426249 260.165854 
L 531.272879 307.8 
L 532.119509 92.678049 
L 532.96614 134.165854 
L 533.81277 155.678049 
L 534.659401 143.385366 
L 535.506031 60.409756 
L 536.352662 55.8 
L 537.199292 212.531707 
L 538.045922 137.239024 
L 538.892553 166.434146 
L 539.739183 123.409756 
L 540.585814 141.84878 
L 541.432444 132.629268 
L 542.279074 128.019512 
L 543.125705 191.019512 
L 543.972335 181.8 
L 544.818966 174.117073 
L 545.665596 203.312195 
L 546.512227 147.995122 
L 547.358857 65.019512 
L 548.205487 175.653659 
L 549.052118 195.629268 
L 549.898748 169.507317 
L 550.745379 149.531707 
L 551.592009 272.458537 
L 552.43864 260.165854 
L 553.28527 297.043902 
L 554.1319 286.287805 
L 554.978531 306.263415 
L 555.825161 277.068293 
L 556.671792 307.8 
L 559.211683 307.8 
L 560.058313 289.360976 
L 560.904944 307.8 
L 566.831357 307.8 
L 567.677987 295.507317 
L 568.524618 289.360976 
L 569.371248 292.434146 
L 570.217878 307.8 
L 571.064509 89.604878 
L 571.911139 81.921951 
L 572.75777 183.336585 
L 573.6044 169.507317 
L 574.45103 247.873171 
L 575.297661 189.482927 
L 576.144291 114.190244 
L 576.990922 124.946341 
L 577.837552 146.458537 
L 578.684183 183.336585 
L 579.530813 151.068293 
L 580.377443 129.556098 
L 581.224074 195.629268 
L 582.070704 141.84878 
L 582.917335 161.82439 
L 583.763965 77.312195 
L 584.610596 160.287805 
L 585.457226 149.531707 
L 586.303856 161.82439 
L 587.150487 189.482927 
L 587.997117 181.8 
L 588.843748 223.287805 
L 589.690378 138.77561 
L 590.537008 301.653659 
L 591.383639 307.8 
L 593.0769 307.8 
L 593.92353 284.75122 
L 594.770161 307.8 
L 595.616791 307.8 
L 596.463421 269.385366 
L 597.310052 301.653659 
L 598.156682 307.8 
L 599.003313 300.117073 
L 599.849943 307.8 
L 600.696574 255.556098 
L 601.543204 301.653659 
L 602.389834 307.8 
L 603.236465 289.360976 
L 604.083095 307.8 
L 607.469617 307.8 
L 608.316247 281.678049 
L 609.162878 191.019512 
L 610.009508 129.556098 
L 610.856139 217.141463 
L 611.702769 227.897561 
L 612.549399 132.629268 
L 613.39603 201.77561 
L 614.24266 89.604878 
L 615.089291 206.385366 
L 615.935921 163.360976 
L 616.782552 97.287805 
L 617.629182 152.604878 
L 618.475812 88.068293 
L 619.322443 144.921951 
L 620.169073 175.653659 
L 621.015704 109.580488 
L 621.862334 149.531707 
L 622.708964 120.336585 
L 623.555595 187.946341 
L 624.402225 171.043902 
L 625.248856 111.117073 
L 626.942117 181.8 
L 627.788747 95.75122 
L 628.635377 307.8 
L 629.482008 218.678049 
L 630.328638 250.946341 
L 631.175269 307.8 
L 632.021899 257.092683 
L 632.86853 286.287805 
L 633.71516 298.580488 
L 634.56179 307.8 
L 635.408421 295.507317 
L 636.255051 254.019512 
L 637.101682 263.239024 
L 637.948312 280.141463 
L 638.794942 307.8 
L 639.641573 301.653659 
L 640.488203 307.8 
L 641.334834 307.8 
L 642.181464 295.507317 
L 643.028095 300.117073 
L 643.874725 307.8 
L 644.721355 209.458537 
L 645.567986 307.8 
L 646.414616 307.8 
L 647.261247 247.873171 
L 648.107877 163.360976 
L 648.954508 166.434146 
L 649.801138 215.604878 
L 650.647768 163.360976 
L 651.494399 92.678049 
L 652.341029 174.117073 
L 653.18766 100.360976 
L 654.03429 195.629268 
L 654.88092 178.726829 
L 655.727551 141.84878 
L 656.574181 183.336585 
L 657.420812 157.214634 
L 658.267442 217.141463 
L 659.114073 120.336585 
L 659.960703 194.092683 
L 660.807333 128.019512 
L 661.653964 146.458537 
L 662.500594 204.84878 
L 663.347225 160.287805 
L 664.193855 189.482927 
L 665.040486 146.458537 
L 665.887116 97.287805 
L 667.580377 307.8 
L 668.427007 307.8 
L 669.273638 300.117073 
L 670.120268 290.897561 
L 670.966898 307.8 
L 671.813529 303.190244 
L 672.660159 307.8 
L 674.35342 307.8 
L 675.200051 300.117073 
L 676.046681 307.8 
L 676.893311 307.8 
L 677.739942 303.190244 
L 678.586572 307.8 
L 679.433203 303.190244 
L 680.279833 307.8 
L 681.126464 307.8 
L 681.973094 295.507317 
L 682.819724 250.946341 
L 683.666355 307.8 
L 684.512985 224.82439 
L 685.359616 306.263415 
L 686.206246 267.84878 
L 687.052876 154.141463 
L 687.899507 184.873171 
L 688.746137 141.84878 
L 689.592768 160.287805 
L 690.439398 143.385366 
L 691.286029 89.604878 
L 692.132659 151.068293 
L 692.979289 140.312195 
L 693.82592 151.068293 
L 694.67255 144.921951 
L 695.519181 191.019512 
L 696.365811 174.117073 
L 697.212442 212.531707 
L 698.059072 237.117073 
L 698.905702 134.165854 
L 699.752333 175.653659 
L 700.598963 74.239024 
L 701.445594 152.604878 
L 702.292224 155.678049 
L 703.138854 160.287805 
L 703.985485 138.77561 
L 704.832115 126.482927 
L 705.678746 175.653659 
L 706.525376 290.897561 
L 707.372007 307.8 
L 710.758528 307.8 
L 711.605159 281.678049 
L 712.451789 293.970732 
L 713.29842 300.117073 
L 714.14505 307.8 
L 714.99168 258.629268 
L 715.838311 269.385366 
L 717.531572 307.8 
L 718.378202 307.8 
L 719.224832 250.946341 
L 720.071463 278.604878 
L 720.918093 283.214634 
L 721.764724 254.019512 
L 722.611354 307.8 
L 723.457985 307.8 
L 724.304615 290.897561 
L 725.151245 307.8 
L 725.997876 157.214634 
L 726.844506 166.434146 
L 727.691137 147.995122 
L 728.537767 137.239024 
L 729.384398 157.214634 
L 730.231028 141.84878 
L 731.077658 167.970732 
L 731.924289 84.995122 
L 732.770919 100.360976 
L 733.61755 186.409756 
L 734.46418 164.897561 
L 735.31081 149.531707 
L 736.157441 152.604878 
L 737.004071 163.360976 
L 737.850702 137.239024 
L 738.697332 126.482927 
L 739.543963 160.287805 
L 740.390593 103.434146 
L 741.237223 131.092683 
L 742.083854 163.360976 
L 742.930484 97.287805 
L 743.777115 158.75122 
L 744.623745 157.214634 
L 745.470376 307.8 
L 747.163636 307.8 
L 747.163636 307.8 
" clip-path="url(#p831856866b)" style="fill: none; stroke: #191970; stroke-width: 2; stroke-linecap: square"/>
   </g>
   <g id="patch_3">
    <path d="M 108 320.4 
L 108 43.2 
" style="fill: none; stroke: #000000; stroke-width: 0.8; stroke-linejoin: miter; stroke-linecap: square"/>
   </g>
   <g id="patch_4">
    <path d="M 777.6 320.4 
L 777.6 43.2 
" style="fill: none; stroke: #000000; stroke-width: 0.8; stroke-linejoin: miter; stroke-linecap: square"/>
   </g>
   <g id="patch_5">
    <path d="M 108 320.4 
L 777.6 320.4 
" style="fill: none; stroke: #000000; stroke-width: 0.8; stroke-linejoin: miter; stroke-linecap: square"/>
   </g>
   <g id="patch_6">
    <path d="M 108 43.2 
L 777.6 43.2 
" style="fill: none; stroke: #000000; stroke-width: 0.8; stroke-linejoin: miter; stroke-linecap: square"/>
   </g>
   <g id="text_18">
    <!-- TIME SERIES -->
    <g transform="translate(386.625938 37.2) scale(0.18 -0.18)">
     <defs>
      <path id="DejaVuSans-52" d="M 2841 2188 
Q 3044 2119 3236 1894 
Q 3428 1669 3622 1275 
L 4263 0 
L 3584 0 
L 2988 1197 
Q 2756 1666 2539 1819 
Q 2322 1972 1947 1972 
L 1259 1972 
L 1259 0 
L 628 0 
L 628 4666 
L 2053 4666 
Q 2853 4666 3247 4331 
Q 3641 3997 3641 3322 
Q 3641 2881 3436 2590 
Q 3231 2300 2841 2188 
z
M 1259 4147 
L 1259 2491 
L 2053 2491 
Q 2509 2491 2742 2702 
Q 2975 2913 2975 3322 
Q 2975 3731 2742 3939 
Q 2509 4147 2053 4147 
L 1259 4147 
z
" transform="scale(0.015625)"/>
     </defs>
     <use xlink:href="#DejaVuSans-54"/>
     <use xlink:href="#DejaVuSans-49" x="61.083984"/>
     <use xlink:href="#DejaVuSans-4d" x="90.576172"/>
     <use xlink:href="#DejaVuSans-45" x="176.855469"/>
     <use xlink:href="#DejaVuSans-20" x="240.039062"/>
     <use xlink:href="#DejaVuSans-53" x="271.826172"/>
     <use xlink:href="#DejaVuSans-45" x="335.302734"/>
     <use xlink:href="#DejaVuSans-52" x="398.486328"/>
     <use xlink:href="#DejaVuSans-49" x="467.96875"/>
     <use xlink:href="#DejaVuSans-45" x="497.460938"/>
     <use xlink:href="#DejaVuSans-53" x="560.644531"/>
    </g>
   </g>
  </g>
 </g>
 <defs>
  <clipPath id="p831856866b">
   <rect x="108" y="43.2" width="669.6" height="277.2"/>
  </clipPath>
 </defs>
</svg>
