<?xml version="1.0" encoding="utf-8" standalone="no"?>
<!DOCTYPE svg PUBLIC "-//W3C//DTD SVG 1.1//EN"
  "http://www.w3.org/Graphics/SVG/1.1/DTD/svg11.dtd">
<svg xmlns:xlink="http://www.w3.org/1999/xlink" width="864pt" height="360pt" viewBox="0 0 864 360" xmlns="http://www.w3.org/2000/svg" version="1.1">
 <metadata>
  <rdf:RDF xmlns:dc="http://purl.org/dc/elements/1.1/" xmlns:cc="http://creativecommons.org/ns#" xmlns:rdf="http://www.w3.org/1999/02/22-rdf-syntax-ns#">
   <cc:Work>
    <dc:type rdf:resource="http://purl.org/dc/dcmitype/StillImage"/>
    <dc:date>2023-11-07T11:17:17.613764</dc:date>
    <dc:format>image/svg+xml</dc:format>
    <dc:creator>
     <cc:Agent>
      <dc:title>Matplotlib v3.7.1, https://matplotlib.org/</dc:title>
     </cc:Agent>
    </dc:creator>
   </cc:Work>
  </rdf:RDF>
 </metadata>
 <defs>
  <style type="text/css">*{stroke-linejoin: round; stroke-linecap: butt}</style>
 </defs>
 <g id="figure_1">
  <g id="patch_1">
   <path d="M 0 360 
L 864 360 
L 864 0 
L 0 0 
z
" style="fill: #ffffff"/>
  </g>
  <g id="axes_1">
   <g id="patch_2">
    <path d="M 108 320.4 
L 777.6 320.4 
L 777.6 43.2 
L 108 43.2 
z
" style="fill: #ffffff"/>
   </g>
   <g id="matplotlib.axis_1">
    <g id="xtick_1">
     <g id="line2d_1">
      <defs>
       <path id="m6e0e7301f4" d="M 0 0 
L 0 3.5 
" style="stroke: #000000; stroke-width: 0.8"/>
      </defs>
      <g>
       <use xlink:href="#m6e0e7301f4" x="138.436364" y="320.4" style="stroke: #000000; stroke-width: 0.8"/>
      </g>
     </g>
     <g id="text_1">
      <!-- 2022-01-01 -->
      <g transform="translate(109.378551 334.998438) scale(0.1 -0.1)">
       <defs>
        <path id="DejaVuSans-32" d="M 1228 531 
L 3431 531 
L 3431 0 
L 469 0 
L 469 531 
Q 828 903 1448 1529 
Q 2069 2156 2228 2338 
Q 2531 2678 2651 2914 
Q 2772 3150 2772 3378 
Q 2772 3750 2511 3984 
Q 2250 4219 1831 4219 
Q 1534 4219 1204 4116 
Q 875 4013 500 3803 
L 500 4441 
Q 881 4594 1212 4672 
Q 1544 4750 1819 4750 
Q 2544 4750 2975 4387 
Q 3406 4025 3406 3419 
Q 3406 3131 3298 2873 
Q 3191 2616 2906 2266 
Q 2828 2175 2409 1742 
Q 1991 1309 1228 531 
z
" transform="scale(0.015625)"/>
        <path id="DejaVuSans-30" d="M 2034 4250 
Q 1547 4250 1301 3770 
Q 1056 3291 1056 2328 
Q 1056 1369 1301 889 
Q 1547 409 2034 409 
Q 2525 409 2770 889 
Q 3016 1369 3016 2328 
Q 3016 3291 2770 3770 
Q 2525 4250 2034 4250 
z
M 2034 4750 
Q 2819 4750 3233 4129 
Q 3647 3509 3647 2328 
Q 3647 1150 3233 529 
Q 2819 -91 2034 -91 
Q 1250 -91 836 529 
Q 422 1150 422 2328 
Q 422 3509 836 4129 
Q 1250 4750 2034 4750 
z
" transform="scale(0.015625)"/>
        <path id="DejaVuSans-2d" d="M 313 2009 
L 1997 2009 
L 1997 1497 
L 313 1497 
L 313 2009 
z
" transform="scale(0.015625)"/>
        <path id="DejaVuSans-31" d="M 794 531 
L 1825 531 
L 1825 4091 
L 703 3866 
L 703 4441 
L 1819 4666 
L 2450 4666 
L 2450 531 
L 3481 531 
L 3481 0 
L 794 0 
L 794 531 
z
" transform="scale(0.015625)"/>
       </defs>
       <use xlink:href="#DejaVuSans-32"/>
       <use xlink:href="#DejaVuSans-30" x="63.623047"/>
       <use xlink:href="#DejaVuSans-32" x="127.246094"/>
       <use xlink:href="#DejaVuSans-32" x="190.869141"/>
       <use xlink:href="#DejaVuSans-2d" x="254.492188"/>
       <use xlink:href="#DejaVuSans-30" x="290.576172"/>
       <use xlink:href="#DejaVuSans-31" x="354.199219"/>
       <use xlink:href="#DejaVuSans-2d" x="417.822266"/>
       <use xlink:href="#DejaVuSans-30" x="453.90625"/>
       <use xlink:href="#DejaVuSans-31" x="517.529297"/>
      </g>
     </g>
    </g>
    <g id="xtick_2">
     <g id="line2d_2">
      <g>
       <use xlink:href="#m6e0e7301f4" x="214.626479" y="320.4" style="stroke: #000000; stroke-width: 0.8"/>
      </g>
     </g>
     <g id="text_2">
      <!-- 2022-01-03 -->
      <g transform="translate(185.568666 334.998438) scale(0.1 -0.1)">
       <defs>
        <path id="DejaVuSans-33" d="M 2597 2516 
Q 3050 2419 3304 2112 
Q 3559 1806 3559 1356 
Q 3559 666 3084 287 
Q 2609 -91 1734 -91 
Q 1441 -91 1130 -33 
Q 819 25 488 141 
L 488 750 
Q 750 597 1062 519 
Q 1375 441 1716 441 
Q 2309 441 2620 675 
Q 2931 909 2931 1356 
Q 2931 1769 2642 2001 
Q 2353 2234 1838 2234 
L 1294 2234 
L 1294 2753 
L 1863 2753 
Q 2328 2753 2575 2939 
Q 2822 3125 2822 3475 
Q 2822 3834 2567 4026 
Q 2313 4219 1838 4219 
Q 1578 4219 1281 4162 
Q 984 4106 628 3988 
L 628 4550 
Q 988 4650 1302 4700 
Q 1616 4750 1894 4750 
Q 2613 4750 3031 4423 
Q 3450 4097 3450 3541 
Q 3450 3153 3228 2886 
Q 3006 2619 2597 2516 
z
" transform="scale(0.015625)"/>
       </defs>
       <use xlink:href="#DejaVuSans-32"/>
       <use xlink:href="#DejaVuSans-30" x="63.623047"/>
       <use xlink:href="#DejaVuSans-32" x="127.246094"/>
       <use xlink:href="#DejaVuSans-32" x="190.869141"/>
       <use xlink:href="#DejaVuSans-2d" x="254.492188"/>
       <use xlink:href="#DejaVuSans-30" x="290.576172"/>
       <use xlink:href="#DejaVuSans-31" x="354.199219"/>
       <use xlink:href="#DejaVuSans-2d" x="417.822266"/>
       <use xlink:href="#DejaVuSans-30" x="453.90625"/>
       <use xlink:href="#DejaVuSans-33" x="517.529297"/>
      </g>
     </g>
    </g>
    <g id="xtick_3">
     <g id="line2d_3">
      <g>
       <use xlink:href="#m6e0e7301f4" x="290.816594" y="320.4" style="stroke: #000000; stroke-width: 0.8"/>
      </g>
     </g>
     <g id="text_3">
      <!-- 2022-01-05 -->
      <g transform="translate(261.758781 334.998438) scale(0.1 -0.1)">
       <defs>
        <path id="DejaVuSans-35" d="M 691 4666 
L 3169 4666 
L 3169 4134 
L 1269 4134 
L 1269 2991 
Q 1406 3038 1543 3061 
Q 1681 3084 1819 3084 
Q 2600 3084 3056 2656 
Q 3513 2228 3513 1497 
Q 3513 744 3044 326 
Q 2575 -91 1722 -91 
Q 1428 -91 1123 -41 
Q 819 9 494 109 
L 494 744 
Q 775 591 1075 516 
Q 1375 441 1709 441 
Q 2250 441 2565 725 
Q 2881 1009 2881 1497 
Q 2881 1984 2565 2268 
Q 2250 2553 1709 2553 
Q 1456 2553 1204 2497 
Q 953 2441 691 2322 
L 691 4666 
z
" transform="scale(0.015625)"/>
       </defs>
       <use xlink:href="#DejaVuSans-32"/>
       <use xlink:href="#DejaVuSans-30" x="63.623047"/>
       <use xlink:href="#DejaVuSans-32" x="127.246094"/>
       <use xlink:href="#DejaVuSans-32" x="190.869141"/>
       <use xlink:href="#DejaVuSans-2d" x="254.492188"/>
       <use xlink:href="#DejaVuSans-30" x="290.576172"/>
       <use xlink:href="#DejaVuSans-31" x="354.199219"/>
       <use xlink:href="#DejaVuSans-2d" x="417.822266"/>
       <use xlink:href="#DejaVuSans-30" x="453.90625"/>
       <use xlink:href="#DejaVuSans-35" x="517.529297"/>
      </g>
     </g>
    </g>
    <g id="xtick_4">
     <g id="line2d_4">
      <g>
       <use xlink:href="#m6e0e7301f4" x="367.006709" y="320.4" style="stroke: #000000; stroke-width: 0.8"/>
      </g>
     </g>
     <g id="text_4">
      <!-- 2022-01-07 -->
      <g transform="translate(337.948896 334.998438) scale(0.1 -0.1)">
       <defs>
        <path id="DejaVuSans-37" d="M 525 4666 
L 3525 4666 
L 3525 4397 
L 1831 0 
L 1172 0 
L 2766 4134 
L 525 4134 
L 525 4666 
z
" transform="scale(0.015625)"/>
       </defs>
       <use xlink:href="#DejaVuSans-32"/>
       <use xlink:href="#DejaVuSans-30" x="63.623047"/>
       <use xlink:href="#DejaVuSans-32" x="127.246094"/>
       <use xlink:href="#DejaVuSans-32" x="190.869141"/>
       <use xlink:href="#DejaVuSans-2d" x="254.492188"/>
       <use xlink:href="#DejaVuSans-30" x="290.576172"/>
       <use xlink:href="#DejaVuSans-31" x="354.199219"/>
       <use xlink:href="#DejaVuSans-2d" x="417.822266"/>
       <use xlink:href="#DejaVuSans-30" x="453.90625"/>
       <use xlink:href="#DejaVuSans-37" x="517.529297"/>
      </g>
     </g>
    </g>
    <g id="xtick_5">
     <g id="line2d_5">
      <g>
       <use xlink:href="#m6e0e7301f4" x="443.196824" y="320.4" style="stroke: #000000; stroke-width: 0.8"/>
      </g>
     </g>
     <g id="text_5">
      <!-- 2022-01-09 -->
      <g transform="translate(414.139011 334.998438) scale(0.1 -0.1)">
       <defs>
        <path id="DejaVuSans-39" d="M 703 97 
L 703 672 
Q 941 559 1184 500 
Q 1428 441 1663 441 
Q 2288 441 2617 861 
Q 2947 1281 2994 2138 
Q 2813 1869 2534 1725 
Q 2256 1581 1919 1581 
Q 1219 1581 811 2004 
Q 403 2428 403 3163 
Q 403 3881 828 4315 
Q 1253 4750 1959 4750 
Q 2769 4750 3195 4129 
Q 3622 3509 3622 2328 
Q 3622 1225 3098 567 
Q 2575 -91 1691 -91 
Q 1453 -91 1209 -44 
Q 966 3 703 97 
z
M 1959 2075 
Q 2384 2075 2632 2365 
Q 2881 2656 2881 3163 
Q 2881 3666 2632 3958 
Q 2384 4250 1959 4250 
Q 1534 4250 1286 3958 
Q 1038 3666 1038 3163 
Q 1038 2656 1286 2365 
Q 1534 2075 1959 2075 
z
" transform="scale(0.015625)"/>
       </defs>
       <use xlink:href="#DejaVuSans-32"/>
       <use xlink:href="#DejaVuSans-30" x="63.623047"/>
       <use xlink:href="#DejaVuSans-32" x="127.246094"/>
       <use xlink:href="#DejaVuSans-32" x="190.869141"/>
       <use xlink:href="#DejaVuSans-2d" x="254.492188"/>
       <use xlink:href="#DejaVuSans-30" x="290.576172"/>
       <use xlink:href="#DejaVuSans-31" x="354.199219"/>
       <use xlink:href="#DejaVuSans-2d" x="417.822266"/>
       <use xlink:href="#DejaVuSans-30" x="453.90625"/>
       <use xlink:href="#DejaVuSans-39" x="517.529297"/>
      </g>
     </g>
    </g>
    <g id="xtick_6">
     <g id="line2d_6">
      <g>
       <use xlink:href="#m6e0e7301f4" x="519.386938" y="320.4" style="stroke: #000000; stroke-width: 0.8"/>
      </g>
     </g>
     <g id="text_6">
      <!-- 2022-01-11 -->
      <g transform="translate(490.329126 334.998438) scale(0.1 -0.1)">
       <use xlink:href="#DejaVuSans-32"/>
       <use xlink:href="#DejaVuSans-30" x="63.623047"/>
       <use xlink:href="#DejaVuSans-32" x="127.246094"/>
       <use xlink:href="#DejaVuSans-32" x="190.869141"/>
       <use xlink:href="#DejaVuSans-2d" x="254.492188"/>
       <use xlink:href="#DejaVuSans-30" x="290.576172"/>
       <use xlink:href="#DejaVuSans-31" x="354.199219"/>
       <use xlink:href="#DejaVuSans-2d" x="417.822266"/>
       <use xlink:href="#DejaVuSans-31" x="453.90625"/>
       <use xlink:href="#DejaVuSans-31" x="517.529297"/>
      </g>
     </g>
    </g>
    <g id="xtick_7">
     <g id="line2d_7">
      <g>
       <use xlink:href="#m6e0e7301f4" x="595.577053" y="320.4" style="stroke: #000000; stroke-width: 0.8"/>
      </g>
     </g>
     <g id="text_7">
      <!-- 2022-01-13 -->
      <g transform="translate(566.519241 334.998438) scale(0.1 -0.1)">
       <use xlink:href="#DejaVuSans-32"/>
       <use xlink:href="#DejaVuSans-30" x="63.623047"/>
       <use xlink:href="#DejaVuSans-32" x="127.246094"/>
       <use xlink:href="#DejaVuSans-32" x="190.869141"/>
       <use xlink:href="#DejaVuSans-2d" x="254.492188"/>
       <use xlink:href="#DejaVuSans-30" x="290.576172"/>
       <use xlink:href="#DejaVuSans-31" x="354.199219"/>
       <use xlink:href="#DejaVuSans-2d" x="417.822266"/>
       <use xlink:href="#DejaVuSans-31" x="453.90625"/>
       <use xlink:href="#DejaVuSans-33" x="517.529297"/>
      </g>
     </g>
    </g>
    <g id="xtick_8">
     <g id="line2d_8">
      <g>
       <use xlink:href="#m6e0e7301f4" x="671.767168" y="320.4" style="stroke: #000000; stroke-width: 0.8"/>
      </g>
     </g>
     <g id="text_8">
      <!-- 2022-01-15 -->
      <g transform="translate(642.709356 334.998438) scale(0.1 -0.1)">
       <use xlink:href="#DejaVuSans-32"/>
       <use xlink:href="#DejaVuSans-30" x="63.623047"/>
       <use xlink:href="#DejaVuSans-32" x="127.246094"/>
       <use xlink:href="#DejaVuSans-32" x="190.869141"/>
       <use xlink:href="#DejaVuSans-2d" x="254.492188"/>
       <use xlink:href="#DejaVuSans-30" x="290.576172"/>
       <use xlink:href="#DejaVuSans-31" x="354.199219"/>
       <use xlink:href="#DejaVuSans-2d" x="417.822266"/>
       <use xlink:href="#DejaVuSans-31" x="453.90625"/>
       <use xlink:href="#DejaVuSans-35" x="517.529297"/>
      </g>
     </g>
    </g>
    <g id="xtick_9">
     <g id="line2d_9">
      <g>
       <use xlink:href="#m6e0e7301f4" x="747.957283" y="320.4" style="stroke: #000000; stroke-width: 0.8"/>
      </g>
     </g>
     <g id="text_9">
      <!-- 2022-01-17 -->
      <g transform="translate(718.899471 334.998438) scale(0.1 -0.1)">
       <use xlink:href="#DejaVuSans-32"/>
       <use xlink:href="#DejaVuSans-30" x="63.623047"/>
       <use xlink:href="#DejaVuSans-32" x="127.246094"/>
       <use xlink:href="#DejaVuSans-32" x="190.869141"/>
       <use xlink:href="#DejaVuSans-2d" x="254.492188"/>
       <use xlink:href="#DejaVuSans-30" x="290.576172"/>
       <use xlink:href="#DejaVuSans-31" x="354.199219"/>
       <use xlink:href="#DejaVuSans-2d" x="417.822266"/>
       <use xlink:href="#DejaVuSans-31" x="453.90625"/>
       <use xlink:href="#DejaVuSans-37" x="517.529297"/>
      </g>
     </g>
    </g>
    <g id="text_10">
     <!-- TIME (DAYS) -->
     <g transform="translate(412.283594 348.676562) scale(0.1 -0.1)">
      <defs>
       <path id="DejaVuSans-54" d="M -19 4666 
L 3928 4666 
L 3928 4134 
L 2272 4134 
L 2272 0 
L 1638 0 
L 1638 4134 
L -19 4134 
L -19 4666 
z
" transform="scale(0.015625)"/>
       <path id="DejaVuSans-49" d="M 628 4666 
L 1259 4666 
L 1259 0 
L 628 0 
L 628 4666 
z
" transform="scale(0.015625)"/>
       <path id="DejaVuSans-4d" d="M 628 4666 
L 1569 4666 
L 2759 1491 
L 3956 4666 
L 4897 4666 
L 4897 0 
L 4281 0 
L 4281 4097 
L 3078 897 
L 2444 897 
L 1241 4097 
L 1241 0 
L 628 0 
L 628 4666 
z
" transform="scale(0.015625)"/>
       <path id="DejaVuSans-45" d="M 628 4666 
L 3578 4666 
L 3578 4134 
L 1259 4134 
L 1259 2753 
L 3481 2753 
L 3481 2222 
L 1259 2222 
L 1259 531 
L 3634 531 
L 3634 0 
L 628 0 
L 628 4666 
z
" transform="scale(0.015625)"/>
       <path id="DejaVuSans-20" transform="scale(0.015625)"/>
       <path id="DejaVuSans-28" d="M 1984 4856 
Q 1566 4138 1362 3434 
Q 1159 2731 1159 2009 
Q 1159 1288 1364 580 
Q 1569 -128 1984 -844 
L 1484 -844 
Q 1016 -109 783 600 
Q 550 1309 550 2009 
Q 550 2706 781 3412 
Q 1013 4119 1484 4856 
L 1984 4856 
z
" transform="scale(0.015625)"/>
       <path id="DejaVuSans-44" d="M 1259 4147 
L 1259 519 
L 2022 519 
Q 2988 519 3436 956 
Q 3884 1394 3884 2338 
Q 3884 3275 3436 3711 
Q 2988 4147 2022 4147 
L 1259 4147 
z
M 628 4666 
L 1925 4666 
Q 3281 4666 3915 4102 
Q 4550 3538 4550 2338 
Q 4550 1131 3912 565 
Q 3275 0 1925 0 
L 628 0 
L 628 4666 
z
" transform="scale(0.015625)"/>
       <path id="DejaVuSans-41" d="M 2188 4044 
L 1331 1722 
L 3047 1722 
L 2188 4044 
z
M 1831 4666 
L 2547 4666 
L 4325 0 
L 3669 0 
L 3244 1197 
L 1141 1197 
L 716 0 
L 50 0 
L 1831 4666 
z
" transform="scale(0.015625)"/>
       <path id="DejaVuSans-59" d="M -13 4666 
L 666 4666 
L 1959 2747 
L 3244 4666 
L 3922 4666 
L 2272 2222 
L 2272 0 
L 1638 0 
L 1638 2222 
L -13 4666 
z
" transform="scale(0.015625)"/>
       <path id="DejaVuSans-53" d="M 3425 4513 
L 3425 3897 
Q 3066 4069 2747 4153 
Q 2428 4238 2131 4238 
Q 1616 4238 1336 4038 
Q 1056 3838 1056 3469 
Q 1056 3159 1242 3001 
Q 1428 2844 1947 2747 
L 2328 2669 
Q 3034 2534 3370 2195 
Q 3706 1856 3706 1288 
Q 3706 609 3251 259 
Q 2797 -91 1919 -91 
Q 1588 -91 1214 -16 
Q 841 59 441 206 
L 441 856 
Q 825 641 1194 531 
Q 1563 422 1919 422 
Q 2459 422 2753 634 
Q 3047 847 3047 1241 
Q 3047 1584 2836 1778 
Q 2625 1972 2144 2069 
L 1759 2144 
Q 1053 2284 737 2584 
Q 422 2884 422 3419 
Q 422 4038 858 4394 
Q 1294 4750 2059 4750 
Q 2388 4750 2728 4690 
Q 3069 4631 3425 4513 
z
" transform="scale(0.015625)"/>
       <path id="DejaVuSans-29" d="M 513 4856 
L 1013 4856 
Q 1481 4119 1714 3412 
Q 1947 2706 1947 2009 
Q 1947 1309 1714 600 
Q 1481 -109 1013 -844 
L 513 -844 
Q 928 -128 1133 580 
Q 1338 1288 1338 2009 
Q 1338 2731 1133 3434 
Q 928 4138 513 4856 
z
" transform="scale(0.015625)"/>
      </defs>
      <use xlink:href="#DejaVuSans-54"/>
      <use xlink:href="#DejaVuSans-49" x="61.083984"/>
      <use xlink:href="#DejaVuSans-4d" x="90.576172"/>
      <use xlink:href="#DejaVuSans-45" x="176.855469"/>
      <use xlink:href="#DejaVuSans-20" x="240.039062"/>
      <use xlink:href="#DejaVuSans-28" x="271.826172"/>
      <use xlink:href="#DejaVuSans-44" x="310.839844"/>
      <use xlink:href="#DejaVuSans-41" x="386.091797"/>
      <use xlink:href="#DejaVuSans-59" x="446.75"/>
      <use xlink:href="#DejaVuSans-53" x="507.833984"/>
      <use xlink:href="#DejaVuSans-29" x="571.310547"/>
     </g>
    </g>
   </g>
   <g id="matplotlib.axis_2">
    <g id="ytick_1">
     <g id="line2d_10">
      <defs>
       <path id="m44784a7bc5" d="M 0 0 
L -3.5 0 
" style="stroke: #000000; stroke-width: 0.8"/>
      </defs>
      <g>
       <use xlink:href="#m44784a7bc5" x="108" y="307.8" style="stroke: #000000; stroke-width: 0.8"/>
      </g>
     </g>
     <g id="text_11">
      <!-- 0 -->
      <g transform="translate(94.6375 311.599219) scale(0.1 -0.1)">
       <use xlink:href="#DejaVuSans-30"/>
      </g>
     </g>
    </g>
    <g id="ytick_2">
     <g id="line2d_11">
      <g>
       <use xlink:href="#m44784a7bc5" x="108" y="275.901266" style="stroke: #000000; stroke-width: 0.8"/>
      </g>
     </g>
     <g id="text_12">
      <!-- 20 -->
      <g transform="translate(88.275 279.700485) scale(0.1 -0.1)">
       <use xlink:href="#DejaVuSans-32"/>
       <use xlink:href="#DejaVuSans-30" x="63.623047"/>
      </g>
     </g>
    </g>
    <g id="ytick_3">
     <g id="line2d_12">
      <g>
       <use xlink:href="#m44784a7bc5" x="108" y="244.002532" style="stroke: #000000; stroke-width: 0.8"/>
      </g>
     </g>
     <g id="text_13">
      <!-- 40 -->
      <g transform="translate(88.275 247.80175) scale(0.1 -0.1)">
       <defs>
        <path id="DejaVuSans-34" d="M 2419 4116 
L 825 1625 
L 2419 1625 
L 2419 4116 
z
M 2253 4666 
L 3047 4666 
L 3047 1625 
L 3713 1625 
L 3713 1100 
L 3047 1100 
L 3047 0 
L 2419 0 
L 2419 1100 
L 313 1100 
L 313 1709 
L 2253 4666 
z
" transform="scale(0.015625)"/>
       </defs>
       <use xlink:href="#DejaVuSans-34"/>
       <use xlink:href="#DejaVuSans-30" x="63.623047"/>
      </g>
     </g>
    </g>
    <g id="ytick_4">
     <g id="line2d_13">
      <g>
       <use xlink:href="#m44784a7bc5" x="108" y="212.103797" style="stroke: #000000; stroke-width: 0.8"/>
      </g>
     </g>
     <g id="text_14">
      <!-- 60 -->
      <g transform="translate(88.275 215.903016) scale(0.1 -0.1)">
       <defs>
        <path id="DejaVuSans-36" d="M 2113 2584 
Q 1688 2584 1439 2293 
Q 1191 2003 1191 1497 
Q 1191 994 1439 701 
Q 1688 409 2113 409 
Q 2538 409 2786 701 
Q 3034 994 3034 1497 
Q 3034 2003 2786 2293 
Q 2538 2584 2113 2584 
z
M 3366 4563 
L 3366 3988 
Q 3128 4100 2886 4159 
Q 2644 4219 2406 4219 
Q 1781 4219 1451 3797 
Q 1122 3375 1075 2522 
Q 1259 2794 1537 2939 
Q 1816 3084 2150 3084 
Q 2853 3084 3261 2657 
Q 3669 2231 3669 1497 
Q 3669 778 3244 343 
Q 2819 -91 2113 -91 
Q 1303 -91 875 529 
Q 447 1150 447 2328 
Q 447 3434 972 4092 
Q 1497 4750 2381 4750 
Q 2619 4750 2861 4703 
Q 3103 4656 3366 4563 
z
" transform="scale(0.015625)"/>
       </defs>
       <use xlink:href="#DejaVuSans-36"/>
       <use xlink:href="#DejaVuSans-30" x="63.623047"/>
      </g>
     </g>
    </g>
    <g id="ytick_5">
     <g id="line2d_14">
      <g>
       <use xlink:href="#m44784a7bc5" x="108" y="180.205063" style="stroke: #000000; stroke-width: 0.8"/>
      </g>
     </g>
     <g id="text_15">
      <!-- 80 -->
      <g transform="translate(88.275 184.004282) scale(0.1 -0.1)">
       <defs>
        <path id="DejaVuSans-38" d="M 2034 2216 
Q 1584 2216 1326 1975 
Q 1069 1734 1069 1313 
Q 1069 891 1326 650 
Q 1584 409 2034 409 
Q 2484 409 2743 651 
Q 3003 894 3003 1313 
Q 3003 1734 2745 1975 
Q 2488 2216 2034 2216 
z
M 1403 2484 
Q 997 2584 770 2862 
Q 544 3141 544 3541 
Q 544 4100 942 4425 
Q 1341 4750 2034 4750 
Q 2731 4750 3128 4425 
Q 3525 4100 3525 3541 
Q 3525 3141 3298 2862 
Q 3072 2584 2669 2484 
Q 3125 2378 3379 2068 
Q 3634 1759 3634 1313 
Q 3634 634 3220 271 
Q 2806 -91 2034 -91 
Q 1263 -91 848 271 
Q 434 634 434 1313 
Q 434 1759 690 2068 
Q 947 2378 1403 2484 
z
M 1172 3481 
Q 1172 3119 1398 2916 
Q 1625 2713 2034 2713 
Q 2441 2713 2670 2916 
Q 2900 3119 2900 3481 
Q 2900 3844 2670 4047 
Q 2441 4250 2034 4250 
Q 1625 4250 1398 4047 
Q 1172 3844 1172 3481 
z
" transform="scale(0.015625)"/>
       </defs>
       <use xlink:href="#DejaVuSans-38"/>
       <use xlink:href="#DejaVuSans-30" x="63.623047"/>
      </g>
     </g>
    </g>
    <g id="ytick_6">
     <g id="line2d_15">
      <g>
       <use xlink:href="#m44784a7bc5" x="108" y="148.306329" style="stroke: #000000; stroke-width: 0.8"/>
      </g>
     </g>
     <g id="text_16">
      <!-- 100 -->
      <g transform="translate(81.9125 152.105548) scale(0.1 -0.1)">
       <use xlink:href="#DejaVuSans-31"/>
       <use xlink:href="#DejaVuSans-30" x="63.623047"/>
       <use xlink:href="#DejaVuSans-30" x="127.246094"/>
      </g>
     </g>
    </g>
    <g id="ytick_7">
     <g id="line2d_16">
      <g>
       <use xlink:href="#m44784a7bc5" x="108" y="116.407595" style="stroke: #000000; stroke-width: 0.8"/>
      </g>
     </g>
     <g id="text_17">
      <!-- 120 -->
      <g transform="translate(81.9125 120.206814) scale(0.1 -0.1)">
       <use xlink:href="#DejaVuSans-31"/>
       <use xlink:href="#DejaVuSans-32" x="63.623047"/>
       <use xlink:href="#DejaVuSans-30" x="127.246094"/>
      </g>
     </g>
    </g>
    <g id="ytick_8">
     <g id="line2d_17">
      <g>
       <use xlink:href="#m44784a7bc5" x="108" y="84.508861" style="stroke: #000000; stroke-width: 0.8"/>
      </g>
     </g>
     <g id="text_18">
      <!-- 140 -->
      <g transform="translate(81.9125 88.30808) scale(0.1 -0.1)">
       <use xlink:href="#DejaVuSans-31"/>
       <use xlink:href="#DejaVuSans-34" x="63.623047"/>
       <use xlink:href="#DejaVuSans-30" x="127.246094"/>
      </g>
     </g>
    </g>
    <g id="ytick_9">
     <g id="line2d_18">
      <g>
       <use xlink:href="#m44784a7bc5" x="108" y="52.610127" style="stroke: #000000; stroke-width: 0.8"/>
      </g>
     </g>
     <g id="text_19">
      <!-- 160 -->
      <g transform="translate(81.9125 56.409345) scale(0.1 -0.1)">
       <use xlink:href="#DejaVuSans-31"/>
       <use xlink:href="#DejaVuSans-36" x="63.623047"/>
       <use xlink:href="#DejaVuSans-30" x="127.246094"/>
      </g>
     </g>
    </g>
    <g id="text_20">
     <!-- AMPLITUDE -->
     <g transform="translate(75.832812 210.532812) rotate(-90) scale(0.1 -0.1)">
      <defs>
       <path id="DejaVuSans-50" d="M 1259 4147 
L 1259 2394 
L 2053 2394 
Q 2494 2394 2734 2622 
Q 2975 2850 2975 3272 
Q 2975 3691 2734 3919 
Q 2494 4147 2053 4147 
L 1259 4147 
z
M 628 4666 
L 2053 4666 
Q 2838 4666 3239 4311 
Q 3641 3956 3641 3272 
Q 3641 2581 3239 2228 
Q 2838 1875 2053 1875 
L 1259 1875 
L 1259 0 
L 628 0 
L 628 4666 
z
" transform="scale(0.015625)"/>
       <path id="DejaVuSans-4c" d="M 628 4666 
L 1259 4666 
L 1259 531 
L 3531 531 
L 3531 0 
L 628 0 
L 628 4666 
z
" transform="scale(0.015625)"/>
       <path id="DejaVuSans-55" d="M 556 4666 
L 1191 4666 
L 1191 1831 
Q 1191 1081 1462 751 
Q 1734 422 2344 422 
Q 2950 422 3222 751 
Q 3494 1081 3494 1831 
L 3494 4666 
L 4128 4666 
L 4128 1753 
Q 4128 841 3676 375 
Q 3225 -91 2344 -91 
Q 1459 -91 1007 375 
Q 556 841 556 1753 
L 556 4666 
z
" transform="scale(0.015625)"/>
      </defs>
      <use xlink:href="#DejaVuSans-41"/>
      <use xlink:href="#DejaVuSans-4d" x="68.408203"/>
      <use xlink:href="#DejaVuSans-50" x="154.6875"/>
      <use xlink:href="#DejaVuSans-4c" x="214.990234"/>
      <use xlink:href="#DejaVuSans-49" x="270.703125"/>
      <use xlink:href="#DejaVuSans-54" x="300.195312"/>
      <use xlink:href="#DejaVuSans-55" x="361.279297"/>
      <use xlink:href="#DejaVuSans-44" x="434.472656"/>
      <use xlink:href="#DejaVuSans-45" x="511.474609"/>
     </g>
    </g>
   </g>
   <g id="line2d_19">
    <path d="M 138.436364 125.977215 
L 139.230011 291.850633 
L 140.023658 307.8 
L 140.817305 282.281013 
L 141.610952 303.01519 
L 142.404599 279.091139 
L 143.198246 266.331646 
L 143.991893 307.8 
L 144.78554 264.736709 
L 145.579187 200.939241 
L 146.372834 269.521519 
L 147.166481 290.255696 
L 147.960128 307.8 
L 148.753775 293.44557 
L 149.547422 307.8 
L 151.134716 307.8 
L 151.928363 234.432911 
L 152.72201 307.8 
L 153.515657 266.331646 
L 154.309304 307.8 
L 155.102951 307.8 
L 156.690245 285.470886 
L 157.483892 232.837975 
L 158.277539 129.167089 
L 159.071186 188.179747 
L 159.864833 127.572152 
L 160.658481 184.989873 
L 161.452128 105.243038 
L 162.245775 172.23038 
L 163.039422 125.977215 
L 163.833069 146.711392 
L 164.626716 194.559494 
L 165.420363 221.673418 
L 166.21401 105.243038 
L 167.007657 89.293671 
L 167.801304 197.749367 
L 168.594951 124.382278 
L 169.388598 178.610127 
L 170.182245 177.01519 
L 170.975892 148.306329 
L 171.769539 151.496203 
L 172.563186 137.141772 
L 173.356833 172.23038 
L 174.15048 130.762025 
L 174.944127 125.977215 
L 175.737774 207.318987 
L 176.531421 121.192405 
L 177.325068 307.8 
L 178.118715 307.8 
L 178.912362 303.01519 
L 179.706009 279.091139 
L 180.499656 293.44557 
L 181.293303 288.660759 
L 182.08695 244.002532 
L 182.880597 307.8 
L 183.674244 307.8 
L 184.467891 282.281013 
L 185.261538 307.8 
L 186.055185 280.686076 
L 186.848833 267.926582 
L 187.64248 307.8 
L 188.436127 275.901266 
L 189.229774 210.508861 
L 190.023421 271.116456 
L 190.817068 293.44557 
L 191.610715 307.8 
L 192.404362 296.635443 
L 193.198009 307.8 
L 195.57895 307.8 
L 196.372597 149.901266 
L 197.166244 119.597468 
L 197.959891 137.141772 
L 198.753538 114.812658 
L 199.547185 172.23038 
L 200.340832 141.926582 
L 201.134479 122.787342 
L 201.928126 135.546835 
L 202.721773 167.44557 
L 203.51542 97.268354 
L 204.309067 226.458228 
L 205.102714 220.078481 
L 205.896361 146.711392 
L 206.690008 95.673418 
L 207.483655 177.01519 
L 208.277302 129.167089 
L 209.070949 169.040506 
L 209.864596 121.192405 
L 211.45189 229.648101 
L 212.245538 90.888608 
L 213.039185 113.217722 
L 213.832832 81.318987 
L 214.626479 167.44557 
L 215.420126 95.673418 
L 216.213773 296.635443 
L 217.00742 274.306329 
L 217.801067 303.01519 
L 218.594714 307.8 
L 221.769302 307.8 
L 222.562949 250.382278 
L 223.356596 280.686076 
L 224.150243 304.610127 
L 224.94389 307.8 
L 225.737537 307.8 
L 226.531184 290.255696 
L 227.324831 307.8 
L 230.499419 307.8 
L 231.293066 288.660759 
L 232.086713 307.8 
L 233.674007 307.8 
L 234.467654 301.420253 
L 235.261301 178.610127 
L 236.054948 124.382278 
L 236.848595 178.610127 
L 237.642243 153.091139 
L 238.43589 135.546835 
L 239.229537 164.255696 
L 240.023184 105.243038 
L 240.816831 141.926582 
L 241.610478 111.622785 
L 242.404125 68.559494 
L 243.197772 116.407595 
L 243.991419 95.673418 
L 244.785066 253.572152 
L 245.578713 149.901266 
L 246.37236 161.065823 
L 247.166007 146.711392 
L 247.959654 153.091139 
L 248.753301 165.850633 
L 249.546948 58.989873 
L 250.340595 74.939241 
L 251.134242 161.065823 
L 251.927889 148.306329 
L 252.721536 156.281013 
L 253.515183 129.167089 
L 254.30883 307.8 
L 255.102477 285.470886 
L 255.896124 237.622785 
L 256.689771 293.44557 
L 257.483418 303.01519 
L 258.277065 307.8 
L 259.070712 303.01519 
L 259.864359 307.8 
L 260.658006 303.01519 
L 261.451653 229.648101 
L 262.2453 282.281013 
L 263.038947 307.8 
L 263.832595 277.496203 
L 264.626242 271.116456 
L 265.419889 307.8 
L 266.213536 226.458228 
L 267.007183 304.610127 
L 267.80083 261.546835 
L 268.594477 307.8 
L 269.388124 307.8 
L 270.181771 287.065823 
L 270.975418 307.8 
L 271.769065 307.8 
L 272.562712 299.825316 
L 273.356359 307.8 
L 274.150006 78.129114 
L 274.943653 95.673418 
L 275.7373 180.205063 
L 276.530947 135.546835 
L 277.324594 175.420253 
L 278.118241 170.635443 
L 278.911888 122.787342 
L 279.705535 118.002532 
L 280.499182 167.44557 
L 281.292829 149.901266 
L 282.086476 188.179747 
L 282.880123 111.622785 
L 283.67377 157.875949 
L 284.467417 146.711392 
L 285.261064 181.8 
L 286.054711 173.825316 
L 286.848358 232.837975 
L 287.642005 100.458228 
L 288.435652 119.597468 
L 289.2293 119.597468 
L 290.022947 146.711392 
L 290.816594 156.281013 
L 291.610241 151.496203 
L 292.403888 98.863291 
L 293.197535 299.825316 
L 293.991182 307.8 
L 294.784829 264.736709 
L 295.578476 307.8 
L 296.372123 307.8 
L 297.16577 295.040506 
L 297.959417 307.8 
L 299.546711 307.8 
L 300.340358 271.116456 
L 301.134005 307.8 
L 301.927652 306.205063 
L 302.721299 307.8 
L 303.514946 263.141772 
L 304.308593 307.8 
L 305.10224 287.065823 
L 305.895887 242.407595 
L 306.689534 285.470886 
L 307.483181 267.926582 
L 308.276828 307.8 
L 309.070475 299.825316 
L 309.864122 307.8 
L 311.451416 307.8 
L 312.245063 156.281013 
L 313.03871 228.053165 
L 313.832357 119.597468 
L 314.626005 161.065823 
L 315.419652 188.179747 
L 316.213299 151.496203 
L 317.006946 161.065823 
L 317.800593 145.116456 
L 318.59424 149.901266 
L 319.387887 165.850633 
L 320.181534 143.521519 
L 320.975181 92.483544 
L 321.768828 162.660759 
L 322.562475 173.825316 
L 323.356122 129.167089 
L 324.149769 183.394937 
L 324.943416 169.040506 
L 325.737063 82.913924 
L 326.53071 162.660759 
L 327.324357 210.508861 
L 328.118004 133.951899 
L 328.911651 165.850633 
L 329.705298 218.483544 
L 330.498945 220.078481 
L 331.292592 169.040506 
L 332.086239 307.8 
L 333.673533 271.116456 
L 334.46718 307.8 
L 336.848121 307.8 
L 337.641768 287.065823 
L 338.435415 307.8 
L 339.229062 307.8 
L 340.022709 274.306329 
L 340.816357 290.255696 
L 342.403651 296.635443 
L 343.197298 307.8 
L 344.784592 307.8 
L 345.578239 269.521519 
L 346.371886 275.901266 
L 347.165533 226.458228 
L 347.95918 258.356962 
L 348.752827 280.686076 
L 349.546474 307.8 
L 350.340121 296.635443 
L 351.133768 153.091139 
L 351.927415 137.141772 
L 352.721062 183.394937 
L 353.514709 189.774684 
L 354.308356 103.648101 
L 355.102003 119.597468 
L 355.89565 132.356962 
L 356.689297 114.812658 
L 357.482944 113.217722 
L 358.276591 164.255696 
L 359.070238 125.977215 
L 359.863885 173.825316 
L 360.657532 183.394937 
L 361.451179 98.863291 
L 362.244826 156.281013 
L 363.038473 173.825316 
L 363.83212 108.432911 
L 364.625767 149.901266 
L 365.419414 110.027848 
L 366.213062 110.027848 
L 367.006709 151.496203 
L 367.800356 140.331646 
L 368.594003 180.205063 
L 369.38765 180.205063 
L 370.181297 285.470886 
L 370.974944 307.8 
L 371.768591 271.116456 
L 372.562238 307.8 
L 373.355885 296.635443 
L 374.149532 282.281013 
L 374.943179 307.8 
L 375.736826 271.116456 
L 376.530473 301.420253 
L 377.32412 307.8 
L 379.705061 307.8 
L 380.498708 258.356962 
L 381.292355 307.8 
L 382.879649 307.8 
L 383.673296 299.825316 
L 384.466943 288.660759 
L 385.26059 307.8 
L 386.054237 307.8 
L 386.847884 301.420253 
L 387.641531 307.8 
L 388.435178 287.065823 
L 389.228825 245.597468 
L 390.022472 138.736709 
L 390.816119 167.44557 
L 391.609767 159.470886 
L 392.403414 118.002532 
L 393.197061 149.901266 
L 393.990708 151.496203 
L 394.784355 173.825316 
L 395.578002 137.141772 
L 396.371649 108.432911 
L 397.958943 177.01519 
L 398.75259 177.01519 
L 399.546237 189.774684 
L 400.339884 177.01519 
L 401.133531 151.496203 
L 401.927178 98.863291 
L 402.720825 141.926582 
L 403.514472 208.913924 
L 404.308119 212.103797 
L 405.101766 76.534177 
L 405.895413 111.622785 
L 406.68906 116.407595 
L 407.482707 172.23038 
L 408.276354 167.44557 
L 409.070001 293.44557 
L 409.863648 307.8 
L 412.244589 307.8 
L 413.038236 236.027848 
L 413.831883 307.8 
L 414.62553 307.8 
L 415.419177 299.825316 
L 416.212824 299.825316 
L 417.006471 307.8 
L 417.800119 277.496203 
L 419.387413 307.8 
L 420.18106 304.610127 
L 420.974707 288.660759 
L 421.768354 247.192405 
L 422.562001 307.8 
L 423.355648 307.8 
L 424.149295 306.205063 
L 424.942942 307.8 
L 427.323883 307.8 
L 428.11753 105.243038 
L 429.704824 184.989873 
L 430.498471 159.470886 
L 431.292118 188.179747 
L 432.085765 180.205063 
L 432.879412 103.648101 
L 433.673059 141.926582 
L 434.466706 140.331646 
L 435.260353 172.23038 
L 436.054 167.44557 
L 436.847647 122.787342 
L 437.641294 191.36962 
L 438.434941 118.002532 
L 439.228588 146.711392 
L 440.022235 140.331646 
L 440.815882 167.44557 
L 441.609529 84.508861 
L 442.403176 175.420253 
L 443.196824 210.508861 
L 443.990471 220.078481 
L 444.784118 116.407595 
L 445.577765 86.103797 
L 446.371412 143.521519 
L 447.165059 119.597468 
L 447.958706 307.8 
L 448.752353 245.597468 
L 449.546 307.8 
L 450.339647 307.8 
L 451.133294 287.065823 
L 451.926941 307.8 
L 452.720588 307.8 
L 453.514235 296.635443 
L 454.307882 307.8 
L 455.101529 307.8 
L 455.895176 301.420253 
L 456.688823 307.8 
L 457.48247 264.736709 
L 458.276117 283.875949 
L 459.069764 248.787342 
L 459.863411 259.951899 
L 460.657058 307.8 
L 463.037999 307.8 
L 463.831646 272.711392 
L 464.625293 288.660759 
L 465.41894 271.116456 
L 466.212587 306.205063 
L 467.006234 180.205063 
L 467.799881 116.407595 
L 468.593529 186.58481 
L 469.387176 92.483544 
L 470.180823 149.901266 
L 470.97447 220.078481 
L 472.561764 114.812658 
L 473.355411 153.091139 
L 474.149058 135.546835 
L 474.942705 135.546835 
L 475.736352 164.255696 
L 476.529999 138.736709 
L 477.323646 125.977215 
L 478.117293 133.951899 
L 478.91094 194.559494 
L 479.704587 194.559494 
L 480.498234 141.926582 
L 481.291881 140.331646 
L 482.085528 173.825316 
L 482.879175 132.356962 
L 483.672822 121.192405 
L 486.053763 210.508861 
L 486.84741 167.44557 
L 487.641057 301.420253 
L 488.434704 307.8 
L 489.228351 280.686076 
L 490.021998 267.926582 
L 490.815645 248.787342 
L 491.609292 283.875949 
L 492.402939 288.660759 
L 493.196586 307.8 
L 494.783881 307.8 
L 495.577528 275.901266 
L 496.371175 307.8 
L 497.164822 307.8 
L 497.958469 291.850633 
L 498.752116 295.040506 
L 499.545763 285.470886 
L 500.33941 307.8 
L 501.133057 304.610127 
L 501.926704 307.8 
L 503.513998 307.8 
L 504.307645 288.660759 
L 505.101292 304.610127 
L 505.894939 307.8 
L 506.688586 307.8 
L 507.482233 149.901266 
L 508.27588 103.648101 
L 509.069527 169.040506 
L 509.863174 192.964557 
L 510.656821 199.344304 
L 511.450468 140.331646 
L 512.244115 151.496203 
L 513.037762 186.58481 
L 513.831409 189.774684 
L 514.625056 125.977215 
L 515.418703 177.01519 
L 516.21235 188.179747 
L 517.005997 127.572152 
L 517.799644 161.065823 
L 518.593291 114.812658 
L 519.386938 162.660759 
L 520.180586 135.546835 
L 520.974233 133.951899 
L 521.76788 110.027848 
L 522.561527 159.470886 
L 523.355174 119.597468 
L 524.148821 162.660759 
L 524.942468 175.420253 
L 525.736115 146.711392 
L 526.529762 140.331646 
L 527.323409 307.8 
L 528.910703 274.306329 
L 529.70435 299.825316 
L 530.497997 307.8 
L 531.291644 287.065823 
L 532.085291 307.8 
L 532.878938 290.255696 
L 533.672585 293.44557 
L 534.466232 295.040506 
L 535.259879 307.8 
L 536.053526 295.040506 
L 536.847173 250.382278 
L 537.64082 307.8 
L 538.434467 307.8 
L 539.228114 301.420253 
L 540.021761 307.8 
L 540.815408 299.825316 
L 541.609055 307.8 
L 543.196349 307.8 
L 543.989996 301.420253 
L 544.783643 306.205063 
L 545.577291 307.8 
L 546.370938 307.8 
L 547.164585 95.673418 
L 547.958232 79.724051 
L 548.751879 55.8 
L 549.545526 164.255696 
L 550.339173 151.496203 
L 551.13282 111.622785 
L 551.926467 162.660759 
L 552.720114 161.065823 
L 553.513761 116.407595 
L 554.307408 191.36962 
L 555.101055 184.989873 
L 555.894702 153.091139 
L 556.688349 234.432911 
L 557.481996 148.306329 
L 558.275643 137.141772 
L 559.06929 202.534177 
L 559.862937 98.863291 
L 560.656584 172.23038 
L 561.450231 95.673418 
L 562.243878 177.01519 
L 563.037525 140.331646 
L 563.831172 116.407595 
L 564.624819 197.749367 
L 565.418466 149.901266 
L 566.212113 165.850633 
L 567.00576 122.787342 
L 567.799407 234.432911 
L 568.593054 307.8 
L 569.386701 291.850633 
L 570.180348 283.875949 
L 570.973995 307.8 
L 571.767643 307.8 
L 572.56129 291.850633 
L 573.354937 280.686076 
L 574.148584 274.306329 
L 574.942231 307.8 
L 575.735878 279.091139 
L 576.529525 255.167089 
L 577.323172 275.901266 
L 578.116819 303.01519 
L 578.910466 299.825316 
L 579.704113 307.8 
L 583.672348 307.8 
L 584.465995 277.496203 
L 585.259642 232.837975 
L 586.053289 307.8 
L 586.846936 307.8 
L 587.640583 164.255696 
L 588.43423 167.44557 
L 589.227877 105.243038 
L 590.021524 132.356962 
L 590.815171 129.167089 
L 591.608818 196.15443 
L 592.402465 138.736709 
L 593.196112 151.496203 
L 593.989759 130.762025 
L 594.783406 133.951899 
L 595.577053 113.217722 
L 596.3707 97.268354 
L 597.164348 94.078481 
L 597.957995 145.116456 
L 598.751642 141.926582 
L 599.545289 192.964557 
L 600.338936 82.913924 
L 601.132583 154.686076 
L 601.92623 186.58481 
L 602.719877 106.837975 
L 603.513524 81.318987 
L 604.307171 162.660759 
L 605.100818 161.065823 
L 605.894465 127.572152 
L 606.688112 172.23038 
L 607.481759 307.8 
L 609.069053 307.8 
L 609.8627 275.901266 
L 610.656347 277.496203 
L 611.449994 307.8 
L 612.243641 304.610127 
L 613.037288 307.8 
L 613.830935 296.635443 
L 614.624582 274.306329 
L 615.418229 220.078481 
L 616.211876 277.496203 
L 617.005523 277.496203 
L 617.79917 307.8 
L 618.592817 272.711392 
L 619.386464 307.8 
L 620.180111 282.281013 
L 620.973758 293.44557 
L 621.767405 293.44557 
L 622.561053 307.8 
L 623.3547 290.255696 
L 624.148347 307.8 
L 624.941994 251.977215 
L 625.735641 285.470886 
L 626.529288 307.8 
L 627.322935 125.977215 
L 628.116582 184.989873 
L 629.703876 114.812658 
L 630.497523 149.901266 
L 631.29117 129.167089 
L 632.084817 177.01519 
L 632.878464 108.432911 
L 633.672111 148.306329 
L 634.465758 140.331646 
L 635.259405 118.002532 
L 636.053052 208.913924 
L 636.846699 145.116456 
L 637.640346 135.546835 
L 638.433993 146.711392 
L 639.22764 189.774684 
L 640.021287 186.58481 
L 640.814934 177.01519 
L 641.608581 130.762025 
L 642.402228 62.179747 
L 643.195875 207.318987 
L 643.989522 240.812658 
L 644.783169 119.597468 
L 645.576816 199.344304 
L 647.16411 119.597468 
L 647.957757 307.8 
L 649.545052 307.8 
L 650.338699 258.356962 
L 651.132346 307.8 
L 651.925993 307.8 
L 652.71964 293.44557 
L 653.513287 307.8 
L 654.306934 307.8 
L 655.100581 264.736709 
L 655.894228 307.8 
L 657.481522 307.8 
L 658.275169 285.470886 
L 659.068816 307.8 
L 659.862463 296.635443 
L 660.65611 306.205063 
L 661.449757 299.825316 
L 662.243404 307.8 
L 663.037051 299.825316 
L 663.830698 282.281013 
L 664.624345 288.660759 
L 665.417992 277.496203 
L 666.211639 282.281013 
L 667.005286 307.8 
L 667.798933 135.546835 
L 668.59258 175.420253 
L 669.386227 181.8 
L 670.179874 118.002532 
L 670.973521 127.572152 
L 671.767168 140.331646 
L 672.560815 175.420253 
L 673.354462 114.812658 
L 674.14811 169.040506 
L 674.941757 173.825316 
L 675.735404 197.749367 
L 676.529051 146.711392 
L 678.116345 102.053165 
L 678.909992 149.901266 
L 679.703639 181.8 
L 680.497286 90.888608 
L 681.290933 189.774684 
L 682.08458 175.420253 
L 682.878227 169.040506 
L 683.671874 250.382278 
L 684.465521 149.901266 
L 685.259168 180.205063 
L 686.052815 127.572152 
L 686.846462 186.58481 
L 687.640109 307.8 
L 690.02105 307.8 
L 690.814697 280.686076 
L 691.608344 264.736709 
L 692.401991 307.8 
L 693.195638 306.205063 
L 693.989285 261.546835 
L 694.782932 223.268354 
L 695.576579 307.8 
L 696.370226 307.8 
L 697.163873 285.470886 
L 697.95752 307.8 
L 698.751167 290.255696 
L 699.544815 296.635443 
L 700.338462 236.027848 
L 701.132109 256.762025 
L 701.925756 307.8 
L 703.51305 307.8 
L 704.306697 298.23038 
L 705.100344 250.382278 
L 705.893991 307.8 
L 706.687638 307.8 
L 707.481285 183.394937 
L 708.274932 196.15443 
L 709.068579 196.15443 
L 709.862226 177.01519 
L 710.655873 184.989873 
L 711.44952 133.951899 
L 712.243167 113.217722 
L 713.036814 178.610127 
L 713.830461 127.572152 
L 714.624108 110.027848 
L 715.417755 197.749367 
L 716.211402 184.989873 
L 717.005049 157.875949 
L 718.592343 151.496203 
L 719.38599 130.762025 
L 720.179637 205.724051 
L 720.973284 92.483544 
L 721.766931 122.787342 
L 722.560578 124.382278 
L 723.354225 172.23038 
L 724.147872 159.470886 
L 724.941519 125.977215 
L 725.735167 130.762025 
L 726.528814 121.192405 
L 727.322461 130.762025 
L 728.116108 256.762025 
L 728.909755 307.8 
L 729.703402 299.825316 
L 730.497049 307.8 
L 733.671637 307.8 
L 734.465284 304.610127 
L 735.258931 307.8 
L 736.052578 307.8 
L 736.846225 266.331646 
L 737.639872 307.8 
L 738.433519 307.8 
L 739.227166 291.850633 
L 740.020813 307.8 
L 740.81446 299.825316 
L 741.608107 307.8 
L 742.401754 307.8 
L 743.195401 251.977215 
L 743.989048 307.8 
L 745.576342 307.8 
L 746.369989 296.635443 
L 747.163636 304.610127 
L 747.163636 304.610127 
" clip-path="url(#p328c7f7429)" style="fill: none; stroke: #191970; stroke-width: 2; stroke-linecap: square"/>
   </g>
   <g id="patch_3">
    <path d="M 108 320.4 
L 108 43.2 
" style="fill: none; stroke: #000000; stroke-width: 0.8; stroke-linejoin: miter; stroke-linecap: square"/>
   </g>
   <g id="patch_4">
    <path d="M 777.6 320.4 
L 777.6 43.2 
" style="fill: none; stroke: #000000; stroke-width: 0.8; stroke-linejoin: miter; stroke-linecap: square"/>
   </g>
   <g id="patch_5">
    <path d="M 108 320.4 
L 777.6 320.4 
" style="fill: none; stroke: #000000; stroke-width: 0.8; stroke-linejoin: miter; stroke-linecap: square"/>
   </g>
   <g id="patch_6">
    <path d="M 108 43.2 
L 777.6 43.2 
" style="fill: none; stroke: #000000; stroke-width: 0.8; stroke-linejoin: miter; stroke-linecap: square"/>
   </g>
   <g id="text_21">
    <!-- TIME SERIES -->
    <g transform="translate(405.350625 37.2) scale(0.12 -0.12)">
     <defs>
      <path id="DejaVuSans-52" d="M 2841 2188 
Q 3044 2119 3236 1894 
Q 3428 1669 3622 1275 
L 4263 0 
L 3584 0 
L 2988 1197 
Q 2756 1666 2539 1819 
Q 2322 1972 1947 1972 
L 1259 1972 
L 1259 0 
L 628 0 
L 628 4666 
L 2053 4666 
Q 2853 4666 3247 4331 
Q 3641 3997 3641 3322 
Q 3641 2881 3436 2590 
Q 3231 2300 2841 2188 
z
M 1259 4147 
L 1259 2491 
L 2053 2491 
Q 2509 2491 2742 2702 
Q 2975 2913 2975 3322 
Q 2975 3731 2742 3939 
Q 2509 4147 2053 4147 
L 1259 4147 
z
" transform="scale(0.015625)"/>
     </defs>
     <use xlink:href="#DejaVuSans-54"/>
     <use xlink:href="#DejaVuSans-49" x="61.083984"/>
     <use xlink:href="#DejaVuSans-4d" x="90.576172"/>
     <use xlink:href="#DejaVuSans-45" x="176.855469"/>
     <use xlink:href="#DejaVuSans-20" x="240.039062"/>
     <use xlink:href="#DejaVuSans-53" x="271.826172"/>
     <use xlink:href="#DejaVuSans-45" x="335.302734"/>
     <use xlink:href="#DejaVuSans-52" x="398.486328"/>
     <use xlink:href="#DejaVuSans-49" x="467.96875"/>
     <use xlink:href="#DejaVuSans-45" x="497.460938"/>
     <use xlink:href="#DejaVuSans-53" x="560.644531"/>
    </g>
   </g>
  </g>
 </g>
 <defs>
  <clipPath id="p328c7f7429">
   <rect x="108" y="43.2" width="669.6" height="277.2"/>
  </clipPath>
 </defs>
</svg>
