<?xml version="1.0" encoding="utf-8" standalone="no"?>
<!DOCTYPE svg PUBLIC "-//W3C//DTD SVG 1.1//EN"
  "http://www.w3.org/Graphics/SVG/1.1/DTD/svg11.dtd">
<svg xmlns:xlink="http://www.w3.org/1999/xlink" width="850.32pt" height="141.12pt" viewBox="0 0 850.32 141.12" xmlns="http://www.w3.org/2000/svg" version="1.1">
 <metadata>
  <rdf:RDF xmlns:dc="http://purl.org/dc/elements/1.1/" xmlns:cc="http://creativecommons.org/ns#" xmlns:rdf="http://www.w3.org/1999/02/22-rdf-syntax-ns#">
   <cc:Work>
    <dc:type rdf:resource="http://purl.org/dc/dcmitype/StillImage"/>
    <dc:date>2023-11-27T20:40:38.485148</dc:date>
    <dc:format>image/svg+xml</dc:format>
    <dc:creator>
     <cc:Agent>
      <dc:title>Matplotlib v3.7.4, https://matplotlib.org/</dc:title>
     </cc:Agent>
    </dc:creator>
   </cc:Work>
  </rdf:RDF>
 </metadata>
 <defs>
  <style type="text/css">*{stroke-linejoin: round; stroke-linecap: butt}</style>
 </defs>
 <g id="figure_1">
  <g id="patch_1">
   <path d="M 0 141.12 
L 850.32 141.12 
L 850.32 0 
L 0 0 
z
" style="fill: #ffffff"/>
  </g>
  <g id="axes_1">
   <g id="patch_2">
    <path d="M 57.67 89.48 
L 440.807076 89.48 
L 440.807076 60.144 
L 57.67 60.144 
z
" style="fill: #ffffff"/>
   </g>
   <g id="patch_3">
    <path d="M 55.526576 87.035333 
L 59.813424 87.035333 
L 59.813424 74.812 
L 55.526576 74.812 
z
" clip-path="url(#p099a417008)" style="fill: #696969"/>
   </g>
   <g id="patch_4">
    <path d="M 58.205856 87.035333 
L 62.492704 87.035333 
L 62.492704 76.523267 
L 58.205856 76.523267 
z
" clip-path="url(#p099a417008)" style="fill: #696969"/>
   </g>
   <g id="patch_5">
    <path d="M 60.885136 87.035333 
L 65.171985 87.035333 
L 65.171985 78.234533 
L 60.885136 78.234533 
z
" clip-path="url(#p099a417008)" style="fill: #696969"/>
   </g>
   <g id="patch_6">
    <path d="M 63.564417 87.035333 
L 67.851265 87.035333 
L 67.851265 79.701333 
L 63.564417 79.701333 
z
" clip-path="url(#p099a417008)" style="fill: #696969"/>
   </g>
   <g id="patch_7">
    <path d="M 66.243697 87.035333 
L 70.530545 87.035333 
L 70.530545 81.4126 
L 66.243697 81.4126 
z
" clip-path="url(#p099a417008)" style="fill: #696969"/>
   </g>
   <g id="patch_8">
    <path d="M 68.922977 87.035333 
L 73.209825 87.035333 
L 73.209825 82.634933 
L 68.922977 82.634933 
z
" clip-path="url(#p099a417008)" style="fill: #696969"/>
   </g>
   <g id="patch_9">
    <path d="M 71.602257 87.035333 
L 75.889106 87.035333 
L 75.889106 83.857267 
L 71.602257 83.857267 
z
" clip-path="url(#p099a417008)" style="fill: #696969"/>
   </g>
   <g id="patch_10">
    <path d="M 74.281538 87.035333 
L 78.568386 87.035333 
L 78.568386 84.835133 
L 74.281538 84.835133 
z
" clip-path="url(#p099a417008)" style="fill: #696969"/>
   </g>
   <g id="patch_11">
    <path d="M 76.960818 87.035333 
L 81.247666 87.035333 
L 81.247666 85.813 
L 76.960818 85.813 
z
" clip-path="url(#p099a417008)" style="fill: #696969"/>
   </g>
   <g id="patch_12">
    <path d="M 79.640098 87.035333 
L 83.926946 87.035333 
L 83.926946 86.5464 
L 79.640098 86.5464 
z
" clip-path="url(#p099a417008)" style="fill: #696969"/>
   </g>
   <g id="patch_13">
    <path d="M 82.319378 87.035333 
L 86.606227 87.035333 
L 86.606227 86.790867 
L 82.319378 86.790867 
z
" clip-path="url(#p099a417008)" style="fill: #696969"/>
   </g>
   <g id="patch_14">
    <path d="M 84.998659 87.035333 
L 89.285507 87.035333 
L 89.285507 87.035333 
L 84.998659 87.035333 
z
" clip-path="url(#p099a417008)" style="fill: #696969"/>
   </g>
   <g id="patch_15">
    <path d="M 87.677939 87.035333 
L 91.964787 87.035333 
L 91.964787 87.035333 
L 87.677939 87.035333 
z
" clip-path="url(#p099a417008)" style="fill: #696969"/>
   </g>
   <g id="patch_16">
    <path d="M 90.357219 87.035333 
L 94.644067 87.035333 
L 94.644067 86.5464 
L 90.357219 86.5464 
z
" clip-path="url(#p099a417008)" style="fill: #696969"/>
   </g>
   <g id="patch_17">
    <path d="M 93.036499 87.035333 
L 97.323348 87.035333 
L 97.323348 86.057467 
L 93.036499 86.057467 
z
" clip-path="url(#p099a417008)" style="fill: #696969"/>
   </g>
   <g id="patch_18">
    <path d="M 95.71578 87.035333 
L 100.002628 87.035333 
L 100.002628 85.324067 
L 95.71578 85.324067 
z
" clip-path="url(#p099a417008)" style="fill: #696969"/>
   </g>
   <g id="patch_19">
    <path d="M 98.39506 87.035333 
L 102.681908 87.035333 
L 102.681908 84.3462 
L 98.39506 84.3462 
z
" clip-path="url(#p099a417008)" style="fill: #696969"/>
   </g>
   <g id="patch_20">
    <path d="M 101.07434 87.035333 
L 105.361188 87.035333 
L 105.361188 83.368333 
L 101.07434 83.368333 
z
" clip-path="url(#p099a417008)" style="fill: #696969"/>
   </g>
   <g id="patch_21">
    <path d="M 103.75362 87.035333 
L 108.040469 87.035333 
L 108.040469 81.901533 
L 103.75362 81.901533 
z
" clip-path="url(#p099a417008)" style="fill: #696969"/>
   </g>
   <g id="patch_22">
    <path d="M 106.432901 87.035333 
L 110.719749 87.035333 
L 110.719749 80.434733 
L 106.432901 80.434733 
z
" clip-path="url(#p099a417008)" style="fill: #696969"/>
   </g>
   <g id="patch_23">
    <path d="M 109.112181 87.035333 
L 113.399029 87.035333 
L 113.399029 78.967933 
L 109.112181 78.967933 
z
" clip-path="url(#p099a417008)" style="fill: #696969"/>
   </g>
   <g id="patch_24">
    <path d="M 111.791461 87.035333 
L 116.078309 87.035333 
L 116.078309 77.256667 
L 111.791461 77.256667 
z
" clip-path="url(#p099a417008)" style="fill: #696969"/>
   </g>
   <g id="patch_25">
    <path d="M 114.470741 87.035333 
L 118.75759 87.035333 
L 118.75759 75.5454 
L 114.470741 75.5454 
z
" clip-path="url(#p099a417008)" style="fill: #696969"/>
   </g>
   <g id="patch_26">
    <path d="M 117.150022 87.035333 
L 121.43687 87.035333 
L 121.43687 73.834133 
L 117.150022 73.834133 
z
" clip-path="url(#p099a417008)" style="fill: #696969"/>
   </g>
   <g id="patch_27">
    <path d="M 119.829302 87.035333 
L 124.11615 87.035333 
L 124.11615 72.122867 
L 119.829302 72.122867 
z
" clip-path="url(#p099a417008)" style="fill: #696969"/>
   </g>
   <g id="patch_28">
    <path d="M 122.508582 87.035333 
L 126.79543 87.035333 
L 126.79543 70.656067 
L 122.508582 70.656067 
z
" clip-path="url(#p099a417008)" style="fill: #696969"/>
   </g>
   <g id="patch_29">
    <path d="M 125.187862 87.035333 
L 129.474711 87.035333 
L 129.474711 68.9448 
L 125.187862 68.9448 
z
" clip-path="url(#p099a417008)" style="fill: #696969"/>
   </g>
   <g id="patch_30">
    <path d="M 127.867143 87.035333 
L 132.153991 87.035333 
L 132.153991 67.478 
L 127.867143 67.478 
z
" clip-path="url(#p099a417008)" style="fill: #696969"/>
   </g>
   <g id="patch_31">
    <path d="M 130.546423 87.035333 
L 134.833271 87.035333 
L 134.833271 66.255667 
L 130.546423 66.255667 
z
" clip-path="url(#p099a417008)" style="fill: #696969"/>
   </g>
   <g id="patch_32">
    <path d="M 133.225703 87.035333 
L 137.512551 87.035333 
L 137.512551 65.033333 
L 133.225703 65.033333 
z
" clip-path="url(#p099a417008)" style="fill: #696969"/>
   </g>
   <g id="patch_33">
    <path d="M 135.904983 87.035333 
L 140.191832 87.035333 
L 140.191832 64.299933 
L 135.904983 64.299933 
z
" clip-path="url(#p099a417008)" style="fill: #696969"/>
   </g>
   <g id="patch_34">
    <path d="M 138.584264 87.035333 
L 142.871112 87.035333 
L 142.871112 63.566533 
L 138.584264 63.566533 
z
" clip-path="url(#p099a417008)" style="fill: #696969"/>
   </g>
   <g id="patch_35">
    <path d="M 141.263544 87.035333 
L 145.550392 87.035333 
L 145.550392 62.833133 
L 141.263544 62.833133 
z
" clip-path="url(#p099a417008)" style="fill: #696969"/>
   </g>
   <g id="patch_36">
    <path d="M 143.942824 87.035333 
L 148.229672 87.035333 
L 148.229672 62.588667 
L 143.942824 62.588667 
z
" clip-path="url(#p099a417008)" style="fill: #696969"/>
   </g>
   <g id="patch_37">
    <path d="M 146.622104 87.035333 
L 150.908953 87.035333 
L 150.908953 62.588667 
L 146.622104 62.588667 
z
" clip-path="url(#p099a417008)" style="fill: #696969"/>
   </g>
   <g id="patch_38">
    <path d="M 149.301385 87.035333 
L 153.588233 87.035333 
L 153.588233 62.833133 
L 149.301385 62.833133 
z
" clip-path="url(#p099a417008)" style="fill: #696969"/>
   </g>
   <g id="patch_39">
    <path d="M 151.980665 87.035333 
L 156.267513 87.035333 
L 156.267513 63.322067 
L 151.980665 63.322067 
z
" clip-path="url(#p099a417008)" style="fill: #696969"/>
   </g>
   <g id="patch_40">
    <path d="M 154.659945 87.035333 
L 158.946793 87.035333 
L 158.946793 63.811 
L 154.659945 63.811 
z
" clip-path="url(#p099a417008)" style="fill: #696969"/>
   </g>
   <g id="patch_41">
    <path d="M 157.339225 87.035333 
L 161.626074 87.035333 
L 161.626074 64.788867 
L 157.339225 64.788867 
z
" clip-path="url(#p099a417008)" style="fill: #696969"/>
   </g>
   <g id="patch_42">
    <path d="M 160.018506 87.035333 
L 164.305354 87.035333 
L 164.305354 65.766733 
L 160.018506 65.766733 
z
" clip-path="url(#p099a417008)" style="fill: #696969"/>
   </g>
   <g id="patch_43">
    <path d="M 162.697786 87.035333 
L 166.984634 87.035333 
L 166.984634 66.989067 
L 162.697786 66.989067 
z
" clip-path="url(#p099a417008)" style="fill: #696969"/>
   </g>
   <g id="patch_44">
    <path d="M 165.377066 87.035333 
L 169.663914 87.035333 
L 169.663914 68.455867 
L 165.377066 68.455867 
z
" clip-path="url(#p099a417008)" style="fill: #696969"/>
   </g>
   <g id="patch_45">
    <path d="M 168.056346 87.035333 
L 172.343195 87.035333 
L 172.343195 69.922667 
L 168.056346 69.922667 
z
" clip-path="url(#p099a417008)" style="fill: #696969"/>
   </g>
   <g id="patch_46">
    <path d="M 170.735627 87.035333 
L 175.022475 87.035333 
L 175.022475 71.633933 
L 170.735627 71.633933 
z
" clip-path="url(#p099a417008)" style="fill: #696969"/>
   </g>
   <g id="patch_47">
    <path d="M 173.414907 87.035333 
L 177.701755 87.035333 
L 177.701755 73.100733 
L 173.414907 73.100733 
z
" clip-path="url(#p099a417008)" style="fill: #696969"/>
   </g>
   <g id="patch_48">
    <path d="M 176.094187 87.035333 
L 180.381035 87.035333 
L 180.381035 74.812 
L 176.094187 74.812 
z
" clip-path="url(#p099a417008)" style="fill: #696969"/>
   </g>
   <g id="patch_49">
    <path d="M 178.773467 87.035333 
L 183.060316 87.035333 
L 183.060316 76.523267 
L 178.773467 76.523267 
z
" clip-path="url(#p099a417008)" style="fill: #696969"/>
   </g>
   <g id="patch_50">
    <path d="M 181.452748 87.035333 
L 185.739596 87.035333 
L 185.739596 78.234533 
L 181.452748 78.234533 
z
" clip-path="url(#p099a417008)" style="fill: #696969"/>
   </g>
   <g id="patch_51">
    <path d="M 184.132028 87.035333 
L 188.418876 87.035333 
L 188.418876 79.9458 
L 184.132028 79.9458 
z
" clip-path="url(#p099a417008)" style="fill: #696969"/>
   </g>
   <g id="patch_52">
    <path d="M 186.811308 87.035333 
L 191.098156 87.035333 
L 191.098156 81.4126 
L 186.811308 81.4126 
z
" clip-path="url(#p099a417008)" style="fill: #696969"/>
   </g>
   <g id="patch_53">
    <path d="M 189.490588 87.035333 
L 193.777437 87.035333 
L 193.777437 82.634933 
L 189.490588 82.634933 
z
" clip-path="url(#p099a417008)" style="fill: #696969"/>
   </g>
   <g id="patch_54">
    <path d="M 192.169869 87.035333 
L 196.456717 87.035333 
L 196.456717 83.857267 
L 192.169869 83.857267 
z
" clip-path="url(#p099a417008)" style="fill: #696969"/>
   </g>
   <g id="patch_55">
    <path d="M 194.849149 87.035333 
L 199.135997 87.035333 
L 199.135997 85.0796 
L 194.849149 85.0796 
z
" clip-path="url(#p099a417008)" style="fill: #696969"/>
   </g>
   <g id="patch_56">
    <path d="M 197.528429 87.035333 
L 201.815277 87.035333 
L 201.815277 85.813 
L 197.528429 85.813 
z
" clip-path="url(#p099a417008)" style="fill: #696969"/>
   </g>
   <g id="patch_57">
    <path d="M 200.207709 87.035333 
L 204.494558 87.035333 
L 204.494558 86.5464 
L 200.207709 86.5464 
z
" clip-path="url(#p099a417008)" style="fill: #696969"/>
   </g>
   <g id="patch_58">
    <path d="M 202.88699 87.035333 
L 207.173838 87.035333 
L 207.173838 86.790867 
L 202.88699 86.790867 
z
" clip-path="url(#p099a417008)" style="fill: #696969"/>
   </g>
   <g id="patch_59">
    <path d="M 205.56627 87.035333 
L 209.853118 87.035333 
L 209.853118 87.035333 
L 205.56627 87.035333 
z
" clip-path="url(#p099a417008)" style="fill: #696969"/>
   </g>
   <g id="patch_60">
    <path d="M 208.24555 87.035333 
L 212.532398 87.035333 
L 212.532398 87.035333 
L 208.24555 87.035333 
z
" clip-path="url(#p099a417008)" style="fill: #696969"/>
   </g>
   <g id="patch_61">
    <path d="M 210.92483 87.035333 
L 215.211679 87.035333 
L 215.211679 86.5464 
L 210.92483 86.5464 
z
" clip-path="url(#p099a417008)" style="fill: #696969"/>
   </g>
   <g id="patch_62">
    <path d="M 213.604111 87.035333 
L 217.890959 87.035333 
L 217.890959 86.057467 
L 213.604111 86.057467 
z
" clip-path="url(#p099a417008)" style="fill: #696969"/>
   </g>
   <g id="patch_63">
    <path d="M 216.283391 87.035333 
L 220.570239 87.035333 
L 220.570239 85.324067 
L 216.283391 85.324067 
z
" clip-path="url(#p099a417008)" style="fill: #696969"/>
   </g>
   <g id="patch_64">
    <path d="M 218.962671 87.035333 
L 223.249519 87.035333 
L 223.249519 84.3462 
L 218.962671 84.3462 
z
" clip-path="url(#p099a417008)" style="fill: #696969"/>
   </g>
   <g id="patch_65">
    <path d="M 221.641951 87.035333 
L 225.9288 87.035333 
L 225.9288 83.123867 
L 221.641951 83.123867 
z
" clip-path="url(#p099a417008)" style="fill: #696969"/>
   </g>
   <g id="patch_66">
    <path d="M 224.321232 87.035333 
L 228.60808 87.035333 
L 228.60808 81.901533 
L 224.321232 81.901533 
z
" clip-path="url(#p099a417008)" style="fill: #696969"/>
   </g>
   <g id="patch_67">
    <path d="M 227.000512 87.035333 
L 231.28736 87.035333 
L 231.28736 80.434733 
L 227.000512 80.434733 
z
" clip-path="url(#p099a417008)" style="fill: #696969"/>
   </g>
   <g id="patch_68">
    <path d="M 229.679792 87.035333 
L 233.96664 87.035333 
L 233.96664 78.967933 
L 229.679792 78.967933 
z
" clip-path="url(#p099a417008)" style="fill: #696969"/>
   </g>
   <g id="patch_69">
    <path d="M 232.359072 87.035333 
L 236.645921 87.035333 
L 236.645921 77.256667 
L 232.359072 77.256667 
z
" clip-path="url(#p099a417008)" style="fill: #696969"/>
   </g>
   <g id="patch_70">
    <path d="M 235.038353 87.035333 
L 239.325201 87.035333 
L 239.325201 75.5454 
L 235.038353 75.5454 
z
" clip-path="url(#p099a417008)" style="fill: #696969"/>
   </g>
   <g id="patch_71">
    <path d="M 237.717633 87.035333 
L 242.004481 87.035333 
L 242.004481 73.834133 
L 237.717633 73.834133 
z
" clip-path="url(#p099a417008)" style="fill: #696969"/>
   </g>
   <g id="patch_72">
    <path d="M 240.396913 87.035333 
L 244.683761 87.035333 
L 244.683761 72.122867 
L 240.396913 72.122867 
z
" clip-path="url(#p099a417008)" style="fill: #696969"/>
   </g>
   <g id="patch_73">
    <path d="M 243.076193 87.035333 
L 247.363042 87.035333 
L 247.363042 70.4116 
L 243.076193 70.4116 
z
" clip-path="url(#p099a417008)" style="fill: #696969"/>
   </g>
   <g id="patch_74">
    <path d="M 245.755474 87.035333 
L 250.042322 87.035333 
L 250.042322 68.9448 
L 245.755474 68.9448 
z
" clip-path="url(#p099a417008)" style="fill: #696969"/>
   </g>
   <g id="patch_75">
    <path d="M 248.434754 87.035333 
L 252.721602 87.035333 
L 252.721602 67.478 
L 248.434754 67.478 
z
" clip-path="url(#p099a417008)" style="fill: #696969"/>
   </g>
   <g id="patch_76">
    <path d="M 251.114034 87.035333 
L 255.400882 87.035333 
L 255.400882 66.255667 
L 251.114034 66.255667 
z
" clip-path="url(#p099a417008)" style="fill: #696969"/>
   </g>
   <g id="patch_77">
    <path d="M 253.793314 87.035333 
L 258.080163 87.035333 
L 258.080163 65.033333 
L 253.793314 65.033333 
z
" clip-path="url(#p099a417008)" style="fill: #696969"/>
   </g>
   <g id="patch_78">
    <path d="M 256.472594 87.035333 
L 260.759443 87.035333 
L 260.759443 64.055467 
L 256.472594 64.055467 
z
" clip-path="url(#p099a417008)" style="fill: #696969"/>
   </g>
   <g id="patch_79">
    <path d="M 259.151875 87.035333 
L 263.438723 87.035333 
L 263.438723 63.322067 
L 259.151875 63.322067 
z
" clip-path="url(#p099a417008)" style="fill: #696969"/>
   </g>
   <g id="patch_80">
    <path d="M 261.831155 87.035333 
L 266.118003 87.035333 
L 266.118003 62.833133 
L 261.831155 62.833133 
z
" clip-path="url(#p099a417008)" style="fill: #696969"/>
   </g>
   <g id="patch_81">
    <path d="M 264.510435 87.035333 
L 268.797284 87.035333 
L 268.797284 62.588667 
L 264.510435 62.588667 
z
" clip-path="url(#p099a417008)" style="fill: #696969"/>
   </g>
   <g id="patch_82">
    <path d="M 267.189715 87.035333 
L 271.476564 87.035333 
L 271.476564 62.588667 
L 267.189715 62.588667 
z
" clip-path="url(#p099a417008)" style="fill: #696969"/>
   </g>
   <g id="patch_83">
    <path d="M 269.868996 87.035333 
L 274.155844 87.035333 
L 274.155844 62.833133 
L 269.868996 62.833133 
z
" clip-path="url(#p099a417008)" style="fill: #696969"/>
   </g>
   <g id="patch_84">
    <path d="M 272.548276 87.035333 
L 276.835124 87.035333 
L 276.835124 63.322067 
L 272.548276 63.322067 
z
" clip-path="url(#p099a417008)" style="fill: #696969"/>
   </g>
   <g id="patch_85">
    <path d="M 275.227556 87.035333 
L 279.514405 87.035333 
L 279.514405 63.811 
L 275.227556 63.811 
z
" clip-path="url(#p099a417008)" style="fill: #696969"/>
   </g>
   <g id="patch_86">
    <path d="M 277.906836 87.035333 
L 282.193685 87.035333 
L 282.193685 64.788867 
L 277.906836 64.788867 
z
" clip-path="url(#p099a417008)" style="fill: #696969"/>
   </g>
   <g id="patch_87">
    <path d="M 280.586117 87.035333 
L 284.872965 87.035333 
L 284.872965 65.766733 
L 280.586117 65.766733 
z
" clip-path="url(#p099a417008)" style="fill: #696969"/>
   </g>
   <g id="patch_88">
    <path d="M 283.265397 87.035333 
L 287.552245 87.035333 
L 287.552245 66.989067 
L 283.265397 66.989067 
z
" clip-path="url(#p099a417008)" style="fill: #696969"/>
   </g>
   <g id="patch_89">
    <path d="M 285.944677 87.035333 
L 290.231526 87.035333 
L 290.231526 68.455867 
L 285.944677 68.455867 
z
" clip-path="url(#p099a417008)" style="fill: #696969"/>
   </g>
   <g id="patch_90">
    <path d="M 288.623957 87.035333 
L 292.910806 87.035333 
L 292.910806 69.922667 
L 288.623957 69.922667 
z
" clip-path="url(#p099a417008)" style="fill: #696969"/>
   </g>
   <g id="patch_91">
    <path d="M 291.303238 87.035333 
L 295.590086 87.035333 
L 295.590086 71.633933 
L 291.303238 71.633933 
z
" clip-path="url(#p099a417008)" style="fill: #696969"/>
   </g>
   <g id="patch_92">
    <path d="M 293.982518 87.035333 
L 298.269366 87.035333 
L 298.269366 73.3452 
L 293.982518 73.3452 
z
" clip-path="url(#p099a417008)" style="fill: #696969"/>
   </g>
   <g id="patch_93">
    <path d="M 296.661798 87.035333 
L 300.948647 87.035333 
L 300.948647 75.056467 
L 296.661798 75.056467 
z
" clip-path="url(#p099a417008)" style="fill: #696969"/>
   </g>
   <g id="patch_94">
    <path d="M 299.341078 87.035333 
L 303.627927 87.035333 
L 303.627927 76.767733 
L 299.341078 76.767733 
z
" clip-path="url(#p099a417008)" style="fill: #696969"/>
   </g>
   <g id="patch_95">
    <path d="M 302.020359 87.035333 
L 306.307207 87.035333 
L 306.307207 78.479 
L 302.020359 78.479 
z
" clip-path="url(#p099a417008)" style="fill: #696969"/>
   </g>
   <g id="patch_96">
    <path d="M 304.699639 87.035333 
L 308.986487 87.035333 
L 308.986487 79.9458 
L 304.699639 79.9458 
z
" clip-path="url(#p099a417008)" style="fill: #696969"/>
   </g>
   <g id="patch_97">
    <path d="M 307.378919 87.035333 
L 311.665768 87.035333 
L 311.665768 81.4126 
L 307.378919 81.4126 
z
" clip-path="url(#p099a417008)" style="fill: #696969"/>
   </g>
   <g id="patch_98">
    <path d="M 310.058199 87.035333 
L 314.345048 87.035333 
L 314.345048 82.8794 
L 310.058199 82.8794 
z
" clip-path="url(#p099a417008)" style="fill: #696969"/>
   </g>
   <g id="patch_99">
    <path d="M 312.73748 87.035333 
L 317.024328 87.035333 
L 317.024328 84.101733 
L 312.73748 84.101733 
z
" clip-path="url(#p099a417008)" style="fill: #696969"/>
   </g>
   <g id="patch_100">
    <path d="M 315.41676 87.035333 
L 319.703608 87.035333 
L 319.703608 85.0796 
L 315.41676 85.0796 
z
" clip-path="url(#p099a417008)" style="fill: #696969"/>
   </g>
   <g id="patch_101">
    <path d="M 318.09604 87.035333 
L 322.382889 87.035333 
L 322.382889 85.813 
L 318.09604 85.813 
z
" clip-path="url(#p099a417008)" style="fill: #696969"/>
   </g>
   <g id="patch_102">
    <path d="M 320.77532 87.035333 
L 325.062169 87.035333 
L 325.062169 86.5464 
L 320.77532 86.5464 
z
" clip-path="url(#p099a417008)" style="fill: #696969"/>
   </g>
   <g id="patch_103">
    <path d="M 323.454601 87.035333 
L 327.741449 87.035333 
L 327.741449 86.790867 
L 323.454601 86.790867 
z
" clip-path="url(#p099a417008)" style="fill: #696969"/>
   </g>
   <g id="patch_104">
    <path d="M 326.133881 87.035333 
L 330.420729 87.035333 
L 330.420729 87.035333 
L 326.133881 87.035333 
z
" clip-path="url(#p099a417008)" style="fill: #696969"/>
   </g>
   <g id="patch_105">
    <path d="M 328.813161 87.035333 
L 333.10001 87.035333 
L 333.10001 87.035333 
L 328.813161 87.035333 
z
" clip-path="url(#p099a417008)" style="fill: #696969"/>
   </g>
   <g id="patch_106">
    <path d="M 331.492441 87.035333 
L 335.77929 87.035333 
L 335.77929 86.5464 
L 331.492441 86.5464 
z
" clip-path="url(#p099a417008)" style="fill: #696969"/>
   </g>
   <g id="patch_107">
    <path d="M 334.171722 87.035333 
L 338.45857 87.035333 
L 338.45857 86.057467 
L 334.171722 86.057467 
z
" clip-path="url(#p099a417008)" style="fill: #696969"/>
   </g>
   <g id="patch_108">
    <path d="M 336.851002 87.035333 
L 341.13785 87.035333 
L 341.13785 85.324067 
L 336.851002 85.324067 
z
" clip-path="url(#p099a417008)" style="fill: #696969"/>
   </g>
   <g id="patch_109">
    <path d="M 339.530282 87.035333 
L 343.817131 87.035333 
L 343.817131 84.3462 
L 339.530282 84.3462 
z
" clip-path="url(#p099a417008)" style="fill: #696969"/>
   </g>
   <g id="patch_110">
    <path d="M 342.209562 87.035333 
L 346.496411 87.035333 
L 346.496411 83.123867 
L 342.209562 83.123867 
z
" clip-path="url(#p099a417008)" style="fill: #696969"/>
   </g>
   <g id="patch_111">
    <path d="M 344.888843 87.035333 
L 349.175691 87.035333 
L 349.175691 81.901533 
L 344.888843 81.901533 
z
" clip-path="url(#p099a417008)" style="fill: #696969"/>
   </g>
   <g id="patch_112">
    <path d="M 347.568123 87.035333 
L 351.854971 87.035333 
L 351.854971 80.434733 
L 347.568123 80.434733 
z
" clip-path="url(#p099a417008)" style="fill: #696969"/>
   </g>
   <g id="patch_113">
    <path d="M 350.247403 87.035333 
L 354.534252 87.035333 
L 354.534252 78.723467 
L 350.247403 78.723467 
z
" clip-path="url(#p099a417008)" style="fill: #696969"/>
   </g>
   <g id="patch_114">
    <path d="M 352.926683 87.035333 
L 357.213532 87.035333 
L 357.213532 77.0122 
L 352.926683 77.0122 
z
" clip-path="url(#p099a417008)" style="fill: #696969"/>
   </g>
   <g id="patch_115">
    <path d="M 355.605964 87.035333 
L 359.892812 87.035333 
L 359.892812 75.300933 
L 355.605964 75.300933 
z
" clip-path="url(#p099a417008)" style="fill: #696969"/>
   </g>
   <g id="patch_116">
    <path d="M 358.285244 87.035333 
L 362.572092 87.035333 
L 362.572092 73.589667 
L 358.285244 73.589667 
z
" clip-path="url(#p099a417008)" style="fill: #696969"/>
   </g>
   <g id="patch_117">
    <path d="M 360.964524 87.035333 
L 365.251373 87.035333 
L 365.251373 72.122867 
L 360.964524 72.122867 
z
" clip-path="url(#p099a417008)" style="fill: #696969"/>
   </g>
   <g id="patch_118">
    <path d="M 363.643804 87.035333 
L 367.930653 87.035333 
L 367.930653 70.4116 
L 363.643804 70.4116 
z
" clip-path="url(#p099a417008)" style="fill: #696969"/>
   </g>
   <g id="patch_119">
    <path d="M 366.323085 87.035333 
L 370.609933 87.035333 
L 370.609933 68.9448 
L 366.323085 68.9448 
z
" clip-path="url(#p099a417008)" style="fill: #696969"/>
   </g>
   <g id="patch_120">
    <path d="M 369.002365 87.035333 
L 373.289213 87.035333 
L 373.289213 67.478 
L 369.002365 67.478 
z
" clip-path="url(#p099a417008)" style="fill: #696969"/>
   </g>
   <g id="patch_121">
    <path d="M 371.681645 87.035333 
L 375.968494 87.035333 
L 375.968494 66.0112 
L 371.681645 66.0112 
z
" clip-path="url(#p099a417008)" style="fill: #696969"/>
   </g>
   <g id="patch_122">
    <path d="M 374.360925 87.035333 
L 378.647774 87.035333 
L 378.647774 65.033333 
L 374.360925 65.033333 
z
" clip-path="url(#p099a417008)" style="fill: #696969"/>
   </g>
   <g id="patch_123">
    <path d="M 377.040206 87.035333 
L 381.327054 87.035333 
L 381.327054 64.055467 
L 377.040206 64.055467 
z
" clip-path="url(#p099a417008)" style="fill: #696969"/>
   </g>
   <g id="patch_124">
    <path d="M 379.719486 87.035333 
L 384.006334 87.035333 
L 384.006334 63.322067 
L 379.719486 63.322067 
z
" clip-path="url(#p099a417008)" style="fill: #696969"/>
   </g>
   <g id="patch_125">
    <path d="M 382.398766 87.035333 
L 386.685615 87.035333 
L 386.685615 62.833133 
L 382.398766 62.833133 
z
" clip-path="url(#p099a417008)" style="fill: #696969"/>
   </g>
   <g id="patch_126">
    <path d="M 385.078046 87.035333 
L 389.364895 87.035333 
L 389.364895 62.588667 
L 385.078046 62.588667 
z
" clip-path="url(#p099a417008)" style="fill: #696969"/>
   </g>
   <g id="patch_127">
    <path d="M 387.757327 87.035333 
L 392.044175 87.035333 
L 392.044175 62.588667 
L 387.757327 62.588667 
z
" clip-path="url(#p099a417008)" style="fill: #696969"/>
   </g>
   <g id="patch_128">
    <path d="M 390.436607 87.035333 
L 394.723455 87.035333 
L 394.723455 62.833133 
L 390.436607 62.833133 
z
" clip-path="url(#p099a417008)" style="fill: #696969"/>
   </g>
   <g id="patch_129">
    <path d="M 393.115887 87.035333 
L 397.402736 87.035333 
L 397.402736 63.322067 
L 393.115887 63.322067 
z
" clip-path="url(#p099a417008)" style="fill: #696969"/>
   </g>
   <g id="patch_130">
    <path d="M 395.795167 87.035333 
L 400.082016 87.035333 
L 400.082016 64.055467 
L 395.795167 64.055467 
z
" clip-path="url(#p099a417008)" style="fill: #696969"/>
   </g>
   <g id="patch_131">
    <path d="M 398.474448 87.035333 
L 402.761296 87.035333 
L 402.761296 64.788867 
L 398.474448 64.788867 
z
" clip-path="url(#p099a417008)" style="fill: #696969"/>
   </g>
   <g id="patch_132">
    <path d="M 401.153728 87.035333 
L 405.440576 87.035333 
L 405.440576 66.0112 
L 401.153728 66.0112 
z
" clip-path="url(#p099a417008)" style="fill: #696969"/>
   </g>
   <g id="patch_133">
    <path d="M 403.833008 87.035333 
L 408.119857 87.035333 
L 408.119857 67.233533 
L 403.833008 67.233533 
z
" clip-path="url(#p099a417008)" style="fill: #696969"/>
   </g>
   <g id="patch_134">
    <path d="M 406.512288 87.035333 
L 410.799137 87.035333 
L 410.799137 68.700333 
L 406.512288 68.700333 
z
" clip-path="url(#p099a417008)" style="fill: #696969"/>
   </g>
   <g id="patch_135">
    <path d="M 409.191569 87.035333 
L 413.478417 87.035333 
L 413.478417 70.167133 
L 409.191569 70.167133 
z
" clip-path="url(#p099a417008)" style="fill: #696969"/>
   </g>
   <g id="patch_136">
    <path d="M 411.870849 87.035333 
L 416.157697 87.035333 
L 416.157697 71.633933 
L 411.870849 71.633933 
z
" clip-path="url(#p099a417008)" style="fill: #696969"/>
   </g>
   <g id="patch_137">
    <path d="M 414.550129 87.035333 
L 418.836978 87.035333 
L 418.836978 73.3452 
L 414.550129 73.3452 
z
" clip-path="url(#p099a417008)" style="fill: #696969"/>
   </g>
   <g id="patch_138">
    <path d="M 417.229409 87.035333 
L 421.516258 87.035333 
L 421.516258 75.056467 
L 417.229409 75.056467 
z
" clip-path="url(#p099a417008)" style="fill: #696969"/>
   </g>
   <g id="patch_139">
    <path d="M 419.90869 87.035333 
L 424.195538 87.035333 
L 424.195538 76.767733 
L 419.90869 76.767733 
z
" clip-path="url(#p099a417008)" style="fill: #696969"/>
   </g>
   <g id="patch_140">
    <path d="M 422.58797 87.035333 
L 426.874818 87.035333 
L 426.874818 78.479 
L 422.58797 78.479 
z
" clip-path="url(#p099a417008)" style="fill: #696969"/>
   </g>
   <g id="patch_141">
    <path d="M 425.26725 87.035333 
L 429.554099 87.035333 
L 429.554099 80.190267 
L 425.26725 80.190267 
z
" clip-path="url(#p099a417008)" style="fill: #696969"/>
   </g>
   <g id="patch_142">
    <path d="M 427.94653 87.035333 
L 432.233379 87.035333 
L 432.233379 81.657067 
L 427.94653 81.657067 
z
" clip-path="url(#p099a417008)" style="fill: #696969"/>
   </g>
   <g id="patch_143">
    <path d="M 430.625811 87.035333 
L 434.912659 87.035333 
L 434.912659 82.8794 
L 430.625811 82.8794 
z
" clip-path="url(#p099a417008)" style="fill: #696969"/>
   </g>
   <g id="patch_144">
    <path d="M 433.305091 87.035333 
L 437.591939 87.035333 
L 437.591939 84.101733 
L 433.305091 84.101733 
z
" clip-path="url(#p099a417008)" style="fill: #696969"/>
   </g>
   <g id="patch_145">
    <path d="M 435.984371 87.035333 
L 440.27122 87.035333 
L 440.27122 85.0796 
L 435.984371 85.0796 
z
" clip-path="url(#p099a417008)" style="fill: #696969"/>
   </g>
   <g id="patch_146">
    <path d="M 438.663651 87.035333 
L 442.9505 87.035333 
L 442.9505 86.057467 
L 438.663651 86.057467 
z
" clip-path="url(#p099a417008)" style="fill: #696969"/>
   </g>
   <g id="matplotlib.axis_1">
    <g id="xtick_1">
     <g id="line2d_1">
      <defs>
       <path id="mc8b87e9455" d="M 0 0 
L 0 3.5 
" style="stroke: #000000; stroke-width: 0.8"/>
      </defs>
      <g>
       <use xlink:href="#mc8b87e9455" x="57.67" y="89.48" style="stroke: #000000; stroke-width: 0.8"/>
      </g>
     </g>
     <g id="text_1">
      <!-- 0 -->
      <g transform="translate(53.8525 105.598125) scale(0.12 -0.12)">
       <defs>
        <path id="DejaVuSans-30" d="M 2034 4250 
Q 1547 4250 1301 3770 
Q 1056 3291 1056 2328 
Q 1056 1369 1301 889 
Q 1547 409 2034 409 
Q 2525 409 2770 889 
Q 3016 1369 3016 2328 
Q 3016 3291 2770 3770 
Q 2525 4250 2034 4250 
z
M 2034 4750 
Q 2819 4750 3233 4129 
Q 3647 3509 3647 2328 
Q 3647 1150 3233 529 
Q 2819 -91 2034 -91 
Q 1250 -91 836 529 
Q 422 1150 422 2328 
Q 422 3509 836 4129 
Q 1250 4750 2034 4750 
z
" transform="scale(0.015625)"/>
       </defs>
       <use xlink:href="#DejaVuSans-30"/>
      </g>
     </g>
    </g>
    <g id="xtick_2">
     <g id="line2d_2">
      <g>
       <use xlink:href="#mc8b87e9455" x="111.255605" y="89.48" style="stroke: #000000; stroke-width: 0.8"/>
      </g>
     </g>
     <g id="text_2">
      <!-- 10 -->
      <g transform="translate(103.620605 105.598125) scale(0.12 -0.12)">
       <defs>
        <path id="DejaVuSans-31" d="M 794 531 
L 1825 531 
L 1825 4091 
L 703 3866 
L 703 4441 
L 1819 4666 
L 2450 4666 
L 2450 531 
L 3481 531 
L 3481 0 
L 794 0 
L 794 531 
z
" transform="scale(0.015625)"/>
       </defs>
       <use xlink:href="#DejaVuSans-31"/>
       <use xlink:href="#DejaVuSans-30" x="63.623047"/>
      </g>
     </g>
    </g>
    <g id="xtick_3">
     <g id="line2d_3">
      <g>
       <use xlink:href="#mc8b87e9455" x="164.84121" y="89.48" style="stroke: #000000; stroke-width: 0.8"/>
      </g>
     </g>
     <g id="text_3">
      <!-- 20 -->
      <g transform="translate(157.20621 105.598125) scale(0.12 -0.12)">
       <defs>
        <path id="DejaVuSans-32" d="M 1228 531 
L 3431 531 
L 3431 0 
L 469 0 
L 469 531 
Q 828 903 1448 1529 
Q 2069 2156 2228 2338 
Q 2531 2678 2651 2914 
Q 2772 3150 2772 3378 
Q 2772 3750 2511 3984 
Q 2250 4219 1831 4219 
Q 1534 4219 1204 4116 
Q 875 4013 500 3803 
L 500 4441 
Q 881 4594 1212 4672 
Q 1544 4750 1819 4750 
Q 2544 4750 2975 4387 
Q 3406 4025 3406 3419 
Q 3406 3131 3298 2873 
Q 3191 2616 2906 2266 
Q 2828 2175 2409 1742 
Q 1991 1309 1228 531 
z
" transform="scale(0.015625)"/>
       </defs>
       <use xlink:href="#DejaVuSans-32"/>
       <use xlink:href="#DejaVuSans-30" x="63.623047"/>
      </g>
     </g>
    </g>
    <g id="xtick_4">
     <g id="line2d_4">
      <g>
       <use xlink:href="#mc8b87e9455" x="218.426815" y="89.48" style="stroke: #000000; stroke-width: 0.8"/>
      </g>
     </g>
     <g id="text_4">
      <!-- 30 -->
      <g transform="translate(210.791815 105.598125) scale(0.12 -0.12)">
       <defs>
        <path id="DejaVuSans-33" d="M 2597 2516 
Q 3050 2419 3304 2112 
Q 3559 1806 3559 1356 
Q 3559 666 3084 287 
Q 2609 -91 1734 -91 
Q 1441 -91 1130 -33 
Q 819 25 488 141 
L 488 750 
Q 750 597 1062 519 
Q 1375 441 1716 441 
Q 2309 441 2620 675 
Q 2931 909 2931 1356 
Q 2931 1769 2642 2001 
Q 2353 2234 1838 2234 
L 1294 2234 
L 1294 2753 
L 1863 2753 
Q 2328 2753 2575 2939 
Q 2822 3125 2822 3475 
Q 2822 3834 2567 4026 
Q 2313 4219 1838 4219 
Q 1578 4219 1281 4162 
Q 984 4106 628 3988 
L 628 4550 
Q 988 4650 1302 4700 
Q 1616 4750 1894 4750 
Q 2613 4750 3031 4423 
Q 3450 4097 3450 3541 
Q 3450 3153 3228 2886 
Q 3006 2619 2597 2516 
z
" transform="scale(0.015625)"/>
       </defs>
       <use xlink:href="#DejaVuSans-33"/>
       <use xlink:href="#DejaVuSans-30" x="63.623047"/>
      </g>
     </g>
    </g>
    <g id="xtick_5">
     <g id="line2d_5">
      <g>
       <use xlink:href="#mc8b87e9455" x="272.01242" y="89.48" style="stroke: #000000; stroke-width: 0.8"/>
      </g>
     </g>
     <g id="text_5">
      <!-- 40 -->
      <g transform="translate(264.37742 105.598125) scale(0.12 -0.12)">
       <defs>
        <path id="DejaVuSans-34" d="M 2419 4116 
L 825 1625 
L 2419 1625 
L 2419 4116 
z
M 2253 4666 
L 3047 4666 
L 3047 1625 
L 3713 1625 
L 3713 1100 
L 3047 1100 
L 3047 0 
L 2419 0 
L 2419 1100 
L 313 1100 
L 313 1709 
L 2253 4666 
z
" transform="scale(0.015625)"/>
       </defs>
       <use xlink:href="#DejaVuSans-34"/>
       <use xlink:href="#DejaVuSans-30" x="63.623047"/>
      </g>
     </g>
    </g>
    <g id="xtick_6">
     <g id="line2d_6">
      <g>
       <use xlink:href="#mc8b87e9455" x="325.598025" y="89.48" style="stroke: #000000; stroke-width: 0.8"/>
      </g>
     </g>
     <g id="text_6">
      <!-- 50 -->
      <g transform="translate(317.963025 105.598125) scale(0.12 -0.12)">
       <defs>
        <path id="DejaVuSans-35" d="M 691 4666 
L 3169 4666 
L 3169 4134 
L 1269 4134 
L 1269 2991 
Q 1406 3038 1543 3061 
Q 1681 3084 1819 3084 
Q 2600 3084 3056 2656 
Q 3513 2228 3513 1497 
Q 3513 744 3044 326 
Q 2575 -91 1722 -91 
Q 1428 -91 1123 -41 
Q 819 9 494 109 
L 494 744 
Q 775 591 1075 516 
Q 1375 441 1709 441 
Q 2250 441 2565 725 
Q 2881 1009 2881 1497 
Q 2881 1984 2565 2268 
Q 2250 2553 1709 2553 
Q 1456 2553 1204 2497 
Q 953 2441 691 2322 
L 691 4666 
z
" transform="scale(0.015625)"/>
       </defs>
       <use xlink:href="#DejaVuSans-35"/>
       <use xlink:href="#DejaVuSans-30" x="63.623047"/>
      </g>
     </g>
    </g>
    <g id="xtick_7">
     <g id="line2d_7">
      <g>
       <use xlink:href="#mc8b87e9455" x="379.18363" y="89.48" style="stroke: #000000; stroke-width: 0.8"/>
      </g>
     </g>
     <g id="text_7">
      <!-- 60 -->
      <g transform="translate(371.54863 105.598125) scale(0.12 -0.12)">
       <defs>
        <path id="DejaVuSans-36" d="M 2113 2584 
Q 1688 2584 1439 2293 
Q 1191 2003 1191 1497 
Q 1191 994 1439 701 
Q 1688 409 2113 409 
Q 2538 409 2786 701 
Q 3034 994 3034 1497 
Q 3034 2003 2786 2293 
Q 2538 2584 2113 2584 
z
M 3366 4563 
L 3366 3988 
Q 3128 4100 2886 4159 
Q 2644 4219 2406 4219 
Q 1781 4219 1451 3797 
Q 1122 3375 1075 2522 
Q 1259 2794 1537 2939 
Q 1816 3084 2150 3084 
Q 2853 3084 3261 2657 
Q 3669 2231 3669 1497 
Q 3669 778 3244 343 
Q 2819 -91 2113 -91 
Q 1303 -91 875 529 
Q 447 1150 447 2328 
Q 447 3434 972 4092 
Q 1497 4750 2381 4750 
Q 2619 4750 2861 4703 
Q 3103 4656 3366 4563 
z
" transform="scale(0.015625)"/>
       </defs>
       <use xlink:href="#DejaVuSans-36"/>
       <use xlink:href="#DejaVuSans-30" x="63.623047"/>
      </g>
     </g>
    </g>
    <g id="xtick_8">
     <g id="line2d_8">
      <g>
       <use xlink:href="#mc8b87e9455" x="432.769235" y="89.48" style="stroke: #000000; stroke-width: 0.8"/>
      </g>
     </g>
     <g id="text_8">
      <!-- 70 -->
      <g transform="translate(425.134235 105.598125) scale(0.12 -0.12)">
       <defs>
        <path id="DejaVuSans-37" d="M 525 4666 
L 3525 4666 
L 3525 4397 
L 1831 0 
L 1172 0 
L 2766 4134 
L 525 4134 
L 525 4666 
z
" transform="scale(0.015625)"/>
       </defs>
       <use xlink:href="#DejaVuSans-37"/>
       <use xlink:href="#DejaVuSans-30" x="63.623047"/>
      </g>
     </g>
    </g>
   </g>
   <g id="matplotlib.axis_2">
    <g id="ytick_1">
     <g id="line2d_9">
      <defs>
       <path id="mfbc2963126" d="M 0 0 
L -3.5 0 
" style="stroke: #000000; stroke-width: 0.8"/>
      </defs>
      <g>
       <use xlink:href="#mfbc2963126" x="57.67" y="87.035333" style="stroke: #000000; stroke-width: 0.8"/>
      </g>
     </g>
     <g id="text_9">
      <!-- 0 -->
      <g transform="translate(43.035 91.594396) scale(0.12 -0.12)">
       <use xlink:href="#DejaVuSans-30"/>
      </g>
     </g>
    </g>
    <g id="ytick_2">
     <g id="line2d_10">
      <g>
       <use xlink:href="#mfbc2963126" x="57.67" y="62.588667" style="stroke: #000000; stroke-width: 0.8"/>
      </g>
     </g>
     <g id="text_10">
      <!-- 1 -->
      <g transform="translate(43.035 67.147729) scale(0.12 -0.12)">
       <use xlink:href="#DejaVuSans-31"/>
      </g>
     </g>
    </g>
    <g id="text_11">
     <!-- 1e2 -->
     <g transform="translate(57.67 57.144) scale(0.1 -0.1)">
      <defs>
       <path id="DejaVuSans-65" d="M 3597 1894 
L 3597 1613 
L 953 1613 
Q 991 1019 1311 708 
Q 1631 397 2203 397 
Q 2534 397 2845 478 
Q 3156 559 3463 722 
L 3463 178 
Q 3153 47 2828 -22 
Q 2503 -91 2169 -91 
Q 1331 -91 842 396 
Q 353 884 353 1716 
Q 353 2575 817 3079 
Q 1281 3584 2069 3584 
Q 2775 3584 3186 3129 
Q 3597 2675 3597 1894 
z
M 3022 2063 
Q 3016 2534 2758 2815 
Q 2500 3097 2075 3097 
Q 1594 3097 1305 2825 
Q 1016 2553 972 2059 
L 3022 2063 
z
" transform="scale(0.015625)"/>
      </defs>
      <use xlink:href="#DejaVuSans-31"/>
      <use xlink:href="#DejaVuSans-65" x="63.623047"/>
      <use xlink:href="#DejaVuSans-32" x="125.146484"/>
     </g>
    </g>
   </g>
   <g id="line2d_11">
    <path d="M 57.67 74.745695 
L 65.707841 79.73013 
L 71.066401 82.627347 
L 73.745681 83.860441 
L 76.424962 84.916779 
L 79.104242 85.775747 
L 81.783522 86.420579 
L 84.462802 86.838693 
L 87.142083 87.021928 
L 89.821363 86.966709 
L 92.500643 86.674112 
L 95.179923 86.149848 
L 97.859204 85.404149 
L 100.538484 84.451568 
L 103.217764 83.310695 
L 105.897044 82.003794 
L 111.255605 78.996675 
L 119.293446 73.955686 
L 124.652006 70.622079 
L 130.010567 67.613285 
L 132.689847 66.305235 
L 135.369127 65.163033 
L 138.048407 64.20897 
L 140.727688 63.461665 
L 143.406968 62.935702 
L 146.086248 62.641346 
L 148.765528 62.584342 
L 151.444809 62.765801 
L 154.124089 63.182184 
L 156.803369 63.825362 
L 159.482649 64.682786 
L 162.16193 65.73772 
L 164.84121 66.969578 
L 167.52049 68.354318 
L 172.879051 71.471894 
L 186.275452 79.823832 
L 191.634012 82.705894 
L 194.313293 83.929029 
L 196.992573 84.97407 
L 199.671853 85.820621 
L 202.351133 86.452163 
L 205.030414 86.856369 
L 207.709694 87.025351 
L 210.388974 86.955812 
L 213.068254 86.649109 
L 215.747535 86.111226 
L 218.426815 85.352662 
L 221.106095 84.388221 
L 223.785375 83.236723 
L 226.464656 81.920642 
L 231.823216 78.900178 
L 239.861057 73.853392 
L 245.219617 70.52584 
L 250.578178 67.530576 
L 253.257458 66.231788 
L 255.936738 65.10028 
L 258.616019 64.158136 
L 261.295299 63.423742 
L 263.974579 62.91143 
L 266.653859 62.631199 
L 269.33314 62.588518 
L 272.01242 62.784219 
L 274.6917 63.214483 
L 277.37098 63.870913 
L 280.050261 64.740699 
L 282.729541 65.806866 
L 285.408821 67.048607 
L 290.767382 69.958922 
L 296.125942 73.245566 
L 304.163783 78.319512 
L 309.522343 81.415048 
L 312.201624 82.783884 
L 314.880904 83.996974 
L 317.560184 85.030644 
L 320.239464 85.864721 
L 322.918745 86.482926 
L 325.598025 86.873196 
L 328.277305 87.027914 
L 330.956585 86.944061 
L 333.635866 86.623272 
L 336.315146 86.071809 
L 338.994426 85.300433 
L 341.673706 84.324199 
L 344.352987 83.162158 
L 347.032267 81.836989 
L 352.390827 78.803392 
L 360.428668 73.751166 
L 365.787229 70.429902 
L 371.145789 67.44838 
L 373.825069 66.158943 
L 376.50435 65.038209 
L 379.18363 64.108051 
L 381.86291 63.386619 
L 384.54219 62.887995 
L 387.221471 62.621909 
L 389.900751 62.593553 
L 392.580031 62.803482 
L 395.259311 63.247597 
L 397.938592 63.917233 
L 400.617872 64.799321 
L 403.297152 65.876645 
L 405.976432 67.128182 
L 411.334993 70.053269 
L 416.693553 73.347355 
L 424.731394 78.417625 
L 430.089955 81.501096 
L 432.769235 82.861313 
L 435.448515 84.064273 
L 438.127795 85.086499 
L 440.807076 85.908042 
L 440.807076 85.908042 
" clip-path="url(#p099a417008)" style="fill: none; stroke: #191970; stroke-width: 3; stroke-linecap: square"/>
   </g>
   <g id="line2d_12">
    <path d="M 148.065536 89.48 
L 148.065536 60.144 
" clip-path="url(#p099a417008)" style="fill: none; stroke-dasharray: 7.4,3.2; stroke-dashoffset: 0; stroke: #000000; stroke-opacity: 0.8; stroke-width: 2"/>
   </g>
   <g id="patch_147">
    <path d="M 57.67 89.48 
L 57.67 60.144 
" style="fill: none; stroke: #000000; stroke-width: 0.8; stroke-linejoin: miter; stroke-linecap: square"/>
   </g>
   <g id="patch_148">
    <path d="M 57.67 89.48 
L 440.807076 89.48 
" style="fill: none; stroke: #000000; stroke-width: 0.8; stroke-linejoin: miter; stroke-linecap: square"/>
   </g>
   <g id="text_12">
    <!-- 1 -->
    <g transform="translate(246.057288 42.946187) scale(0.1 -0.1)">
     <use xlink:href="#DejaVuSans-31"/>
    </g>
    <!-- (AC: 16.87, PR: 22.47) -->
    <g transform="translate(193.826819 54.144) scale(0.1 -0.1)">
     <defs>
      <path id="DejaVuSans-28" d="M 1984 4856 
Q 1566 4138 1362 3434 
Q 1159 2731 1159 2009 
Q 1159 1288 1364 580 
Q 1569 -128 1984 -844 
L 1484 -844 
Q 1016 -109 783 600 
Q 550 1309 550 2009 
Q 550 2706 781 3412 
Q 1013 4119 1484 4856 
L 1984 4856 
z
" transform="scale(0.015625)"/>
      <path id="DejaVuSans-41" d="M 2188 4044 
L 1331 1722 
L 3047 1722 
L 2188 4044 
z
M 1831 4666 
L 2547 4666 
L 4325 0 
L 3669 0 
L 3244 1197 
L 1141 1197 
L 716 0 
L 50 0 
L 1831 4666 
z
" transform="scale(0.015625)"/>
      <path id="DejaVuSans-43" d="M 4122 4306 
L 4122 3641 
Q 3803 3938 3442 4084 
Q 3081 4231 2675 4231 
Q 1875 4231 1450 3742 
Q 1025 3253 1025 2328 
Q 1025 1406 1450 917 
Q 1875 428 2675 428 
Q 3081 428 3442 575 
Q 3803 722 4122 1019 
L 4122 359 
Q 3791 134 3420 21 
Q 3050 -91 2638 -91 
Q 1578 -91 968 557 
Q 359 1206 359 2328 
Q 359 3453 968 4101 
Q 1578 4750 2638 4750 
Q 3056 4750 3426 4639 
Q 3797 4528 4122 4306 
z
" transform="scale(0.015625)"/>
      <path id="DejaVuSans-3a" d="M 750 794 
L 1409 794 
L 1409 0 
L 750 0 
L 750 794 
z
M 750 3309 
L 1409 3309 
L 1409 2516 
L 750 2516 
L 750 3309 
z
" transform="scale(0.015625)"/>
      <path id="DejaVuSans-20" transform="scale(0.015625)"/>
      <path id="DejaVuSans-2e" d="M 684 794 
L 1344 794 
L 1344 0 
L 684 0 
L 684 794 
z
" transform="scale(0.015625)"/>
      <path id="DejaVuSans-38" d="M 2034 2216 
Q 1584 2216 1326 1975 
Q 1069 1734 1069 1313 
Q 1069 891 1326 650 
Q 1584 409 2034 409 
Q 2484 409 2743 651 
Q 3003 894 3003 1313 
Q 3003 1734 2745 1975 
Q 2488 2216 2034 2216 
z
M 1403 2484 
Q 997 2584 770 2862 
Q 544 3141 544 3541 
Q 544 4100 942 4425 
Q 1341 4750 2034 4750 
Q 2731 4750 3128 4425 
Q 3525 4100 3525 3541 
Q 3525 3141 3298 2862 
Q 3072 2584 2669 2484 
Q 3125 2378 3379 2068 
Q 3634 1759 3634 1313 
Q 3634 634 3220 271 
Q 2806 -91 2034 -91 
Q 1263 -91 848 271 
Q 434 634 434 1313 
Q 434 1759 690 2068 
Q 947 2378 1403 2484 
z
M 1172 3481 
Q 1172 3119 1398 2916 
Q 1625 2713 2034 2713 
Q 2441 2713 2670 2916 
Q 2900 3119 2900 3481 
Q 2900 3844 2670 4047 
Q 2441 4250 2034 4250 
Q 1625 4250 1398 4047 
Q 1172 3844 1172 3481 
z
" transform="scale(0.015625)"/>
      <path id="DejaVuSans-2c" d="M 750 794 
L 1409 794 
L 1409 256 
L 897 -744 
L 494 -744 
L 750 256 
L 750 794 
z
" transform="scale(0.015625)"/>
      <path id="DejaVuSans-50" d="M 1259 4147 
L 1259 2394 
L 2053 2394 
Q 2494 2394 2734 2622 
Q 2975 2850 2975 3272 
Q 2975 3691 2734 3919 
Q 2494 4147 2053 4147 
L 1259 4147 
z
M 628 4666 
L 2053 4666 
Q 2838 4666 3239 4311 
Q 3641 3956 3641 3272 
Q 3641 2581 3239 2228 
Q 2838 1875 2053 1875 
L 1259 1875 
L 1259 0 
L 628 0 
L 628 4666 
z
" transform="scale(0.015625)"/>
      <path id="DejaVuSans-52" d="M 2841 2188 
Q 3044 2119 3236 1894 
Q 3428 1669 3622 1275 
L 4263 0 
L 3584 0 
L 2988 1197 
Q 2756 1666 2539 1819 
Q 2322 1972 1947 1972 
L 1259 1972 
L 1259 0 
L 628 0 
L 628 4666 
L 2053 4666 
Q 2853 4666 3247 4331 
Q 3641 3997 3641 3322 
Q 3641 2881 3436 2590 
Q 3231 2300 2841 2188 
z
M 1259 4147 
L 1259 2491 
L 2053 2491 
Q 2509 2491 2742 2702 
Q 2975 2913 2975 3322 
Q 2975 3731 2742 3939 
Q 2509 4147 2053 4147 
L 1259 4147 
z
" transform="scale(0.015625)"/>
      <path id="DejaVuSans-29" d="M 513 4856 
L 1013 4856 
Q 1481 4119 1714 3412 
Q 1947 2706 1947 2009 
Q 1947 1309 1714 600 
Q 1481 -109 1013 -844 
L 513 -844 
Q 928 -128 1133 580 
Q 1338 1288 1338 2009 
Q 1338 2731 1133 3434 
Q 928 4138 513 4856 
z
" transform="scale(0.015625)"/>
     </defs>
     <use xlink:href="#DejaVuSans-28"/>
     <use xlink:href="#DejaVuSans-41" x="39.013672"/>
     <use xlink:href="#DejaVuSans-43" x="105.671875"/>
     <use xlink:href="#DejaVuSans-3a" x="175.496094"/>
     <use xlink:href="#DejaVuSans-20" x="209.1875"/>
     <use xlink:href="#DejaVuSans-31" x="240.974609"/>
     <use xlink:href="#DejaVuSans-36" x="304.597656"/>
     <use xlink:href="#DejaVuSans-2e" x="368.220703"/>
     <use xlink:href="#DejaVuSans-38" x="400.007812"/>
     <use xlink:href="#DejaVuSans-37" x="463.630859"/>
     <use xlink:href="#DejaVuSans-2c" x="527.253906"/>
     <use xlink:href="#DejaVuSans-20" x="559.041016"/>
     <use xlink:href="#DejaVuSans-50" x="590.828125"/>
     <use xlink:href="#DejaVuSans-52" x="651.130859"/>
     <use xlink:href="#DejaVuSans-3a" x="717.488281"/>
     <use xlink:href="#DejaVuSans-20" x="751.179688"/>
     <use xlink:href="#DejaVuSans-32" x="782.966797"/>
     <use xlink:href="#DejaVuSans-32" x="846.589844"/>
     <use xlink:href="#DejaVuSans-2e" x="910.212891"/>
     <use xlink:href="#DejaVuSans-34" x="942"/>
     <use xlink:href="#DejaVuSans-37" x="1005.623047"/>
     <use xlink:href="#DejaVuSans-29" x="1069.246094"/>
    </g>
   </g>
  </g>
  <g id="axes_2">
   <g id="patch_149">
    <path d="M 456.382924 89.48 
L 839.52 89.48 
L 839.52 60.144 
L 456.382924 60.144 
z
" style="fill: #ffffff"/>
   </g>
   <g id="patch_150">
    <path d="M 454.2395 87.035333 
L 458.526349 87.035333 
L 458.526349 86.057467 
L 454.2395 86.057467 
z
" clip-path="url(#p12e5cfc4f6)" style="fill: #696969"/>
   </g>
   <g id="patch_151">
    <path d="M 456.91878 87.035333 
L 461.205629 87.035333 
L 461.205629 86.5464 
L 456.91878 86.5464 
z
" clip-path="url(#p12e5cfc4f6)" style="fill: #696969"/>
   </g>
   <g id="patch_152">
    <path d="M 459.598061 87.035333 
L 463.884909 87.035333 
L 463.884909 86.790867 
L 459.598061 86.790867 
z
" clip-path="url(#p12e5cfc4f6)" style="fill: #696969"/>
   </g>
   <g id="patch_153">
    <path d="M 462.277341 87.035333 
L 466.564189 87.035333 
L 466.564189 87.035333 
L 462.277341 87.035333 
z
" clip-path="url(#p12e5cfc4f6)" style="fill: #696969"/>
   </g>
   <g id="patch_154">
    <path d="M 464.956621 87.035333 
L 469.24347 87.035333 
L 469.24347 87.035333 
L 464.956621 87.035333 
z
" clip-path="url(#p12e5cfc4f6)" style="fill: #696969"/>
   </g>
   <g id="patch_155">
    <path d="M 467.635901 87.035333 
L 471.92275 87.035333 
L 471.92275 86.5464 
L 467.635901 86.5464 
z
" clip-path="url(#p12e5cfc4f6)" style="fill: #696969"/>
   </g>
   <g id="patch_156">
    <path d="M 470.315182 87.035333 
L 474.60203 87.035333 
L 474.60203 86.057467 
L 470.315182 86.057467 
z
" clip-path="url(#p12e5cfc4f6)" style="fill: #696969"/>
   </g>
   <g id="patch_157">
    <path d="M 472.994462 87.035333 
L 477.28131 87.035333 
L 477.28131 85.324067 
L 472.994462 85.324067 
z
" clip-path="url(#p12e5cfc4f6)" style="fill: #696969"/>
   </g>
   <g id="patch_158">
    <path d="M 475.673742 87.035333 
L 479.960591 87.035333 
L 479.960591 84.3462 
L 475.673742 84.3462 
z
" clip-path="url(#p12e5cfc4f6)" style="fill: #696969"/>
   </g>
   <g id="patch_159">
    <path d="M 478.353022 87.035333 
L 482.639871 87.035333 
L 482.639871 83.368333 
L 478.353022 83.368333 
z
" clip-path="url(#p12e5cfc4f6)" style="fill: #696969"/>
   </g>
   <g id="patch_160">
    <path d="M 481.032303 87.035333 
L 485.319151 87.035333 
L 485.319151 82.146 
L 481.032303 82.146 
z
" clip-path="url(#p12e5cfc4f6)" style="fill: #696969"/>
   </g>
   <g id="patch_161">
    <path d="M 483.711583 87.035333 
L 487.998431 87.035333 
L 487.998431 80.6792 
L 483.711583 80.6792 
z
" clip-path="url(#p12e5cfc4f6)" style="fill: #696969"/>
   </g>
   <g id="patch_162">
    <path d="M 486.390863 87.035333 
L 490.677712 87.035333 
L 490.677712 79.2124 
L 486.390863 79.2124 
z
" clip-path="url(#p12e5cfc4f6)" style="fill: #696969"/>
   </g>
   <g id="patch_163">
    <path d="M 489.070143 87.035333 
L 493.356992 87.035333 
L 493.356992 77.501133 
L 489.070143 77.501133 
z
" clip-path="url(#p12e5cfc4f6)" style="fill: #696969"/>
   </g>
   <g id="patch_164">
    <path d="M 491.749424 87.035333 
L 496.036272 87.035333 
L 496.036272 76.034333 
L 491.749424 76.034333 
z
" clip-path="url(#p12e5cfc4f6)" style="fill: #696969"/>
   </g>
   <g id="patch_165">
    <path d="M 494.428704 87.035333 
L 498.715552 87.035333 
L 498.715552 74.323067 
L 494.428704 74.323067 
z
" clip-path="url(#p12e5cfc4f6)" style="fill: #696969"/>
   </g>
   <g id="patch_166">
    <path d="M 497.107984 87.035333 
L 501.394833 87.035333 
L 501.394833 72.6118 
L 497.107984 72.6118 
z
" clip-path="url(#p12e5cfc4f6)" style="fill: #696969"/>
   </g>
   <g id="patch_167">
    <path d="M 499.787264 87.035333 
L 504.074113 87.035333 
L 504.074113 71.145 
L 499.787264 71.145 
z
" clip-path="url(#p12e5cfc4f6)" style="fill: #696969"/>
   </g>
   <g id="patch_168">
    <path d="M 502.466545 87.035333 
L 506.753393 87.035333 
L 506.753393 69.433733 
L 502.466545 69.433733 
z
" clip-path="url(#p12e5cfc4f6)" style="fill: #696969"/>
   </g>
   <g id="patch_169">
    <path d="M 505.145825 87.035333 
L 509.432673 87.035333 
L 509.432673 67.966933 
L 505.145825 67.966933 
z
" clip-path="url(#p12e5cfc4f6)" style="fill: #696969"/>
   </g>
   <g id="patch_170">
    <path d="M 507.825105 87.035333 
L 512.111954 87.035333 
L 512.111954 66.7446 
L 507.825105 66.7446 
z
" clip-path="url(#p12e5cfc4f6)" style="fill: #696969"/>
   </g>
   <g id="patch_171">
    <path d="M 510.504385 87.035333 
L 514.791234 87.035333 
L 514.791234 65.522267 
L 510.504385 65.522267 
z
" clip-path="url(#p12e5cfc4f6)" style="fill: #696969"/>
   </g>
   <g id="patch_172">
    <path d="M 513.183666 87.035333 
L 517.470514 87.035333 
L 517.470514 64.5444 
L 513.183666 64.5444 
z
" clip-path="url(#p12e5cfc4f6)" style="fill: #696969"/>
   </g>
   <g id="patch_173">
    <path d="M 515.862946 87.035333 
L 520.149794 87.035333 
L 520.149794 63.811 
L 515.862946 63.811 
z
" clip-path="url(#p12e5cfc4f6)" style="fill: #696969"/>
   </g>
   <g id="patch_174">
    <path d="M 518.542226 87.035333 
L 522.829075 87.035333 
L 522.829075 63.0776 
L 518.542226 63.0776 
z
" clip-path="url(#p12e5cfc4f6)" style="fill: #696969"/>
   </g>
   <g id="patch_175">
    <path d="M 521.221506 87.035333 
L 525.508355 87.035333 
L 525.508355 62.833133 
L 521.221506 62.833133 
z
" clip-path="url(#p12e5cfc4f6)" style="fill: #696969"/>
   </g>
   <g id="patch_176">
    <path d="M 523.900787 87.035333 
L 528.187635 87.035333 
L 528.187635 62.588667 
L 523.900787 62.588667 
z
" clip-path="url(#p12e5cfc4f6)" style="fill: #696969"/>
   </g>
   <g id="patch_177">
    <path d="M 526.580067 87.035333 
L 530.866915 87.035333 
L 530.866915 62.588667 
L 526.580067 62.588667 
z
" clip-path="url(#p12e5cfc4f6)" style="fill: #696969"/>
   </g>
   <g id="patch_178">
    <path d="M 529.259347 87.035333 
L 533.546196 87.035333 
L 533.546196 62.833133 
L 529.259347 62.833133 
z
" clip-path="url(#p12e5cfc4f6)" style="fill: #696969"/>
   </g>
   <g id="patch_179">
    <path d="M 531.938627 87.035333 
L 536.225476 87.035333 
L 536.225476 63.322067 
L 531.938627 63.322067 
z
" clip-path="url(#p12e5cfc4f6)" style="fill: #696969"/>
   </g>
   <g id="patch_180">
    <path d="M 534.617908 87.035333 
L 538.904756 87.035333 
L 538.904756 64.055467 
L 534.617908 64.055467 
z
" clip-path="url(#p12e5cfc4f6)" style="fill: #696969"/>
   </g>
   <g id="patch_181">
    <path d="M 537.297188 87.035333 
L 541.584036 87.035333 
L 541.584036 65.033333 
L 537.297188 65.033333 
z
" clip-path="url(#p12e5cfc4f6)" style="fill: #696969"/>
   </g>
   <g id="patch_182">
    <path d="M 539.976468 87.035333 
L 544.263317 87.035333 
L 544.263317 66.255667 
L 539.976468 66.255667 
z
" clip-path="url(#p12e5cfc4f6)" style="fill: #696969"/>
   </g>
   <g id="patch_183">
    <path d="M 542.655748 87.035333 
L 546.942597 87.035333 
L 546.942597 67.478 
L 542.655748 67.478 
z
" clip-path="url(#p12e5cfc4f6)" style="fill: #696969"/>
   </g>
   <g id="patch_184">
    <path d="M 545.335029 87.035333 
L 549.621877 87.035333 
L 549.621877 68.700333 
L 545.335029 68.700333 
z
" clip-path="url(#p12e5cfc4f6)" style="fill: #696969"/>
   </g>
   <g id="patch_185">
    <path d="M 548.014309 87.035333 
L 552.301157 87.035333 
L 552.301157 70.167133 
L 548.014309 70.167133 
z
" clip-path="url(#p12e5cfc4f6)" style="fill: #696969"/>
   </g>
   <g id="patch_186">
    <path d="M 550.693589 87.035333 
L 554.980438 87.035333 
L 554.980438 71.8784 
L 550.693589 71.8784 
z
" clip-path="url(#p12e5cfc4f6)" style="fill: #696969"/>
   </g>
   <g id="patch_187">
    <path d="M 553.372869 87.035333 
L 557.659718 87.035333 
L 557.659718 73.589667 
L 553.372869 73.589667 
z
" clip-path="url(#p12e5cfc4f6)" style="fill: #696969"/>
   </g>
   <g id="patch_188">
    <path d="M 556.05215 87.035333 
L 560.338998 87.035333 
L 560.338998 75.056467 
L 556.05215 75.056467 
z
" clip-path="url(#p12e5cfc4f6)" style="fill: #696969"/>
   </g>
   <g id="patch_189">
    <path d="M 558.73143 87.035333 
L 563.018278 87.035333 
L 563.018278 76.767733 
L 558.73143 76.767733 
z
" clip-path="url(#p12e5cfc4f6)" style="fill: #696969"/>
   </g>
   <g id="patch_190">
    <path d="M 561.41071 87.035333 
L 565.697559 87.035333 
L 565.697559 78.479 
L 561.41071 78.479 
z
" clip-path="url(#p12e5cfc4f6)" style="fill: #696969"/>
   </g>
   <g id="patch_191">
    <path d="M 564.08999 87.035333 
L 568.376839 87.035333 
L 568.376839 79.9458 
L 564.08999 79.9458 
z
" clip-path="url(#p12e5cfc4f6)" style="fill: #696969"/>
   </g>
   <g id="patch_192">
    <path d="M 566.769271 87.035333 
L 571.056119 87.035333 
L 571.056119 81.4126 
L 566.769271 81.4126 
z
" clip-path="url(#p12e5cfc4f6)" style="fill: #696969"/>
   </g>
   <g id="patch_193">
    <path d="M 569.448551 87.035333 
L 573.735399 87.035333 
L 573.735399 82.634933 
L 569.448551 82.634933 
z
" clip-path="url(#p12e5cfc4f6)" style="fill: #696969"/>
   </g>
   <g id="patch_194">
    <path d="M 572.127831 87.035333 
L 576.41468 87.035333 
L 576.41468 83.857267 
L 572.127831 83.857267 
z
" clip-path="url(#p12e5cfc4f6)" style="fill: #696969"/>
   </g>
   <g id="patch_195">
    <path d="M 574.807111 87.035333 
L 579.09396 87.035333 
L 579.09396 84.835133 
L 574.807111 84.835133 
z
" clip-path="url(#p12e5cfc4f6)" style="fill: #696969"/>
   </g>
   <g id="patch_196">
    <path d="M 577.486392 87.035333 
L 581.77324 87.035333 
L 581.77324 85.813 
L 577.486392 85.813 
z
" clip-path="url(#p12e5cfc4f6)" style="fill: #696969"/>
   </g>
   <g id="patch_197">
    <path d="M 580.165672 87.035333 
L 584.45252 87.035333 
L 584.45252 86.301933 
L 580.165672 86.301933 
z
" clip-path="url(#p12e5cfc4f6)" style="fill: #696969"/>
   </g>
   <g id="patch_198">
    <path d="M 582.844952 87.035333 
L 587.131801 87.035333 
L 587.131801 86.790867 
L 582.844952 86.790867 
z
" clip-path="url(#p12e5cfc4f6)" style="fill: #696969"/>
   </g>
   <g id="patch_199">
    <path d="M 585.524232 87.035333 
L 589.811081 87.035333 
L 589.811081 87.035333 
L 585.524232 87.035333 
z
" clip-path="url(#p12e5cfc4f6)" style="fill: #696969"/>
   </g>
   <g id="patch_200">
    <path d="M 588.203513 87.035333 
L 592.490361 87.035333 
L 592.490361 87.035333 
L 588.203513 87.035333 
z
" clip-path="url(#p12e5cfc4f6)" style="fill: #696969"/>
   </g>
   <g id="patch_201">
    <path d="M 590.882793 87.035333 
L 595.169641 87.035333 
L 595.169641 86.790867 
L 590.882793 86.790867 
z
" clip-path="url(#p12e5cfc4f6)" style="fill: #696969"/>
   </g>
   <g id="patch_202">
    <path d="M 593.562073 87.035333 
L 597.848922 87.035333 
L 597.848922 86.301933 
L 593.562073 86.301933 
z
" clip-path="url(#p12e5cfc4f6)" style="fill: #696969"/>
   </g>
   <g id="patch_203">
    <path d="M 596.241353 87.035333 
L 600.528202 87.035333 
L 600.528202 85.568533 
L 596.241353 85.568533 
z
" clip-path="url(#p12e5cfc4f6)" style="fill: #696969"/>
   </g>
   <g id="patch_204">
    <path d="M 598.920634 87.035333 
L 603.207482 87.035333 
L 603.207482 84.590667 
L 598.920634 84.590667 
z
" clip-path="url(#p12e5cfc4f6)" style="fill: #696969"/>
   </g>
   <g id="patch_205">
    <path d="M 601.599914 87.035333 
L 605.886762 87.035333 
L 605.886762 83.6128 
L 601.599914 83.6128 
z
" clip-path="url(#p12e5cfc4f6)" style="fill: #696969"/>
   </g>
   <g id="patch_206">
    <path d="M 604.279194 87.035333 
L 608.566043 87.035333 
L 608.566043 82.390467 
L 604.279194 82.390467 
z
" clip-path="url(#p12e5cfc4f6)" style="fill: #696969"/>
   </g>
   <g id="patch_207">
    <path d="M 606.958474 87.035333 
L 611.245323 87.035333 
L 611.245323 80.923667 
L 606.958474 80.923667 
z
" clip-path="url(#p12e5cfc4f6)" style="fill: #696969"/>
   </g>
   <g id="patch_208">
    <path d="M 609.637755 87.035333 
L 613.924603 87.035333 
L 613.924603 79.456867 
L 609.637755 79.456867 
z
" clip-path="url(#p12e5cfc4f6)" style="fill: #696969"/>
   </g>
   <g id="patch_209">
    <path d="M 612.317035 87.035333 
L 616.603883 87.035333 
L 616.603883 77.990067 
L 612.317035 77.990067 
z
" clip-path="url(#p12e5cfc4f6)" style="fill: #696969"/>
   </g>
   <g id="patch_210">
    <path d="M 614.996315 87.035333 
L 619.283164 87.035333 
L 619.283164 76.2788 
L 614.996315 76.2788 
z
" clip-path="url(#p12e5cfc4f6)" style="fill: #696969"/>
   </g>
   <g id="patch_211">
    <path d="M 617.675595 87.035333 
L 621.962444 87.035333 
L 621.962444 74.567533 
L 617.675595 74.567533 
z
" clip-path="url(#p12e5cfc4f6)" style="fill: #696969"/>
   </g>
   <g id="patch_212">
    <path d="M 620.354876 87.035333 
L 624.641724 87.035333 
L 624.641724 73.100733 
L 620.354876 73.100733 
z
" clip-path="url(#p12e5cfc4f6)" style="fill: #696969"/>
   </g>
   <g id="patch_213">
    <path d="M 623.034156 87.035333 
L 627.321004 87.035333 
L 627.321004 71.389467 
L 623.034156 71.389467 
z
" clip-path="url(#p12e5cfc4f6)" style="fill: #696969"/>
   </g>
   <g id="patch_214">
    <path d="M 625.713436 87.035333 
L 630.000285 87.035333 
L 630.000285 69.922667 
L 625.713436 69.922667 
z
" clip-path="url(#p12e5cfc4f6)" style="fill: #696969"/>
   </g>
   <g id="patch_215">
    <path d="M 628.392716 87.035333 
L 632.679565 87.035333 
L 632.679565 68.455867 
L 628.392716 68.455867 
z
" clip-path="url(#p12e5cfc4f6)" style="fill: #696969"/>
   </g>
   <g id="patch_216">
    <path d="M 631.071997 87.035333 
L 635.358845 87.035333 
L 635.358845 66.989067 
L 631.071997 66.989067 
z
" clip-path="url(#p12e5cfc4f6)" style="fill: #696969"/>
   </g>
   <g id="patch_217">
    <path d="M 633.751277 87.035333 
L 638.038125 87.035333 
L 638.038125 65.766733 
L 633.751277 65.766733 
z
" clip-path="url(#p12e5cfc4f6)" style="fill: #696969"/>
   </g>
   <g id="patch_218">
    <path d="M 636.430557 87.035333 
L 640.717406 87.035333 
L 640.717406 64.788867 
L 636.430557 64.788867 
z
" clip-path="url(#p12e5cfc4f6)" style="fill: #696969"/>
   </g>
   <g id="patch_219">
    <path d="M 639.109837 87.035333 
L 643.396686 87.035333 
L 643.396686 63.811 
L 639.109837 63.811 
z
" clip-path="url(#p12e5cfc4f6)" style="fill: #696969"/>
   </g>
   <g id="patch_220">
    <path d="M 641.789118 87.035333 
L 646.075966 87.035333 
L 646.075966 63.322067 
L 641.789118 63.322067 
z
" clip-path="url(#p12e5cfc4f6)" style="fill: #696969"/>
   </g>
   <g id="patch_221">
    <path d="M 644.468398 87.035333 
L 648.755246 87.035333 
L 648.755246 62.833133 
L 644.468398 62.833133 
z
" clip-path="url(#p12e5cfc4f6)" style="fill: #696969"/>
   </g>
   <g id="patch_222">
    <path d="M 647.147678 87.035333 
L 651.434526 87.035333 
L 651.434526 62.588667 
L 647.147678 62.588667 
z
" clip-path="url(#p12e5cfc4f6)" style="fill: #696969"/>
   </g>
   <g id="patch_223">
    <path d="M 649.826958 87.035333 
L 654.113807 87.035333 
L 654.113807 62.588667 
L 649.826958 62.588667 
z
" clip-path="url(#p12e5cfc4f6)" style="fill: #696969"/>
   </g>
   <g id="patch_224">
    <path d="M 652.506239 87.035333 
L 656.793087 87.035333 
L 656.793087 62.833133 
L 652.506239 62.833133 
z
" clip-path="url(#p12e5cfc4f6)" style="fill: #696969"/>
   </g>
   <g id="patch_225">
    <path d="M 655.185519 87.035333 
L 659.472367 87.035333 
L 659.472367 63.322067 
L 655.185519 63.322067 
z
" clip-path="url(#p12e5cfc4f6)" style="fill: #696969"/>
   </g>
   <g id="patch_226">
    <path d="M 657.864799 87.035333 
L 662.151647 87.035333 
L 662.151647 64.055467 
L 657.864799 64.055467 
z
" clip-path="url(#p12e5cfc4f6)" style="fill: #696969"/>
   </g>
   <g id="patch_227">
    <path d="M 660.544079 87.035333 
L 664.830928 87.035333 
L 664.830928 64.788867 
L 660.544079 64.788867 
z
" clip-path="url(#p12e5cfc4f6)" style="fill: #696969"/>
   </g>
   <g id="patch_228">
    <path d="M 663.22336 87.035333 
L 667.510208 87.035333 
L 667.510208 65.766733 
L 663.22336 65.766733 
z
" clip-path="url(#p12e5cfc4f6)" style="fill: #696969"/>
   </g>
   <g id="patch_229">
    <path d="M 665.90264 87.035333 
L 670.189488 87.035333 
L 670.189488 66.989067 
L 665.90264 66.989067 
z
" clip-path="url(#p12e5cfc4f6)" style="fill: #696969"/>
   </g>
   <g id="patch_230">
    <path d="M 668.58192 87.035333 
L 672.868768 87.035333 
L 672.868768 68.455867 
L 668.58192 68.455867 
z
" clip-path="url(#p12e5cfc4f6)" style="fill: #696969"/>
   </g>
   <g id="patch_231">
    <path d="M 671.2612 87.035333 
L 675.548049 87.035333 
L 675.548049 69.922667 
L 671.2612 69.922667 
z
" clip-path="url(#p12e5cfc4f6)" style="fill: #696969"/>
   </g>
   <g id="patch_232">
    <path d="M 673.940481 87.035333 
L 678.227329 87.035333 
L 678.227329 71.389467 
L 673.940481 71.389467 
z
" clip-path="url(#p12e5cfc4f6)" style="fill: #696969"/>
   </g>
   <g id="patch_233">
    <path d="M 676.619761 87.035333 
L 680.906609 87.035333 
L 680.906609 73.100733 
L 676.619761 73.100733 
z
" clip-path="url(#p12e5cfc4f6)" style="fill: #696969"/>
   </g>
   <g id="patch_234">
    <path d="M 679.299041 87.035333 
L 683.585889 87.035333 
L 683.585889 74.812 
L 679.299041 74.812 
z
" clip-path="url(#p12e5cfc4f6)" style="fill: #696969"/>
   </g>
   <g id="patch_235">
    <path d="M 681.978321 87.035333 
L 686.26517 87.035333 
L 686.26517 76.523267 
L 681.978321 76.523267 
z
" clip-path="url(#p12e5cfc4f6)" style="fill: #696969"/>
   </g>
   <g id="patch_236">
    <path d="M 684.657602 87.035333 
L 688.94445 87.035333 
L 688.94445 77.990067 
L 684.657602 77.990067 
z
" clip-path="url(#p12e5cfc4f6)" style="fill: #696969"/>
   </g>
   <g id="patch_237">
    <path d="M 687.336882 87.035333 
L 691.62373 87.035333 
L 691.62373 79.701333 
L 687.336882 79.701333 
z
" clip-path="url(#p12e5cfc4f6)" style="fill: #696969"/>
   </g>
   <g id="patch_238">
    <path d="M 690.016162 87.035333 
L 694.30301 87.035333 
L 694.30301 81.168133 
L 690.016162 81.168133 
z
" clip-path="url(#p12e5cfc4f6)" style="fill: #696969"/>
   </g>
   <g id="patch_239">
    <path d="M 692.695442 87.035333 
L 696.982291 87.035333 
L 696.982291 82.390467 
L 692.695442 82.390467 
z
" clip-path="url(#p12e5cfc4f6)" style="fill: #696969"/>
   </g>
   <g id="patch_240">
    <path d="M 695.374723 87.035333 
L 699.661571 87.035333 
L 699.661571 83.6128 
L 695.374723 83.6128 
z
" clip-path="url(#p12e5cfc4f6)" style="fill: #696969"/>
   </g>
   <g id="patch_241">
    <path d="M 698.054003 87.035333 
L 702.340851 87.035333 
L 702.340851 84.835133 
L 698.054003 84.835133 
z
" clip-path="url(#p12e5cfc4f6)" style="fill: #696969"/>
   </g>
   <g id="patch_242">
    <path d="M 700.733283 87.035333 
L 705.020131 87.035333 
L 705.020131 85.568533 
L 700.733283 85.568533 
z
" clip-path="url(#p12e5cfc4f6)" style="fill: #696969"/>
   </g>
   <g id="patch_243">
    <path d="M 703.412563 87.035333 
L 707.699412 87.035333 
L 707.699412 86.301933 
L 703.412563 86.301933 
z
" clip-path="url(#p12e5cfc4f6)" style="fill: #696969"/>
   </g>
   <g id="patch_244">
    <path d="M 706.091844 87.035333 
L 710.378692 87.035333 
L 710.378692 86.790867 
L 706.091844 86.790867 
z
" clip-path="url(#p12e5cfc4f6)" style="fill: #696969"/>
   </g>
   <g id="patch_245">
    <path d="M 708.771124 87.035333 
L 713.057972 87.035333 
L 713.057972 87.035333 
L 708.771124 87.035333 
z
" clip-path="url(#p12e5cfc4f6)" style="fill: #696969"/>
   </g>
   <g id="patch_246">
    <path d="M 711.450404 87.035333 
L 715.737252 87.035333 
L 715.737252 87.035333 
L 711.450404 87.035333 
z
" clip-path="url(#p12e5cfc4f6)" style="fill: #696969"/>
   </g>
   <g id="patch_247">
    <path d="M 714.129684 87.035333 
L 718.416533 87.035333 
L 718.416533 86.790867 
L 714.129684 86.790867 
z
" clip-path="url(#p12e5cfc4f6)" style="fill: #696969"/>
   </g>
   <g id="patch_248">
    <path d="M 716.808965 87.035333 
L 721.095813 87.035333 
L 721.095813 86.301933 
L 716.808965 86.301933 
z
" clip-path="url(#p12e5cfc4f6)" style="fill: #696969"/>
   </g>
   <g id="patch_249">
    <path d="M 719.488245 87.035333 
L 723.775093 87.035333 
L 723.775093 85.813 
L 719.488245 85.813 
z
" clip-path="url(#p12e5cfc4f6)" style="fill: #696969"/>
   </g>
   <g id="patch_250">
    <path d="M 722.167525 87.035333 
L 726.454373 87.035333 
L 726.454373 84.835133 
L 722.167525 84.835133 
z
" clip-path="url(#p12e5cfc4f6)" style="fill: #696969"/>
   </g>
   <g id="patch_251">
    <path d="M 724.846805 87.035333 
L 729.133654 87.035333 
L 729.133654 83.857267 
L 724.846805 83.857267 
z
" clip-path="url(#p12e5cfc4f6)" style="fill: #696969"/>
   </g>
   <g id="patch_252">
    <path d="M 727.526086 87.035333 
L 731.812934 87.035333 
L 731.812934 82.634933 
L 727.526086 82.634933 
z
" clip-path="url(#p12e5cfc4f6)" style="fill: #696969"/>
   </g>
   <g id="patch_253">
    <path d="M 730.205366 87.035333 
L 734.492214 87.035333 
L 734.492214 81.4126 
L 730.205366 81.4126 
z
" clip-path="url(#p12e5cfc4f6)" style="fill: #696969"/>
   </g>
   <g id="patch_254">
    <path d="M 732.884646 87.035333 
L 737.171494 87.035333 
L 737.171494 79.9458 
L 732.884646 79.9458 
z
" clip-path="url(#p12e5cfc4f6)" style="fill: #696969"/>
   </g>
   <g id="patch_255">
    <path d="M 735.563926 87.035333 
L 739.850775 87.035333 
L 739.850775 78.234533 
L 735.563926 78.234533 
z
" clip-path="url(#p12e5cfc4f6)" style="fill: #696969"/>
   </g>
   <g id="patch_256">
    <path d="M 738.243207 87.035333 
L 742.530055 87.035333 
L 742.530055 76.767733 
L 738.243207 76.767733 
z
" clip-path="url(#p12e5cfc4f6)" style="fill: #696969"/>
   </g>
   <g id="patch_257">
    <path d="M 740.922487 87.035333 
L 745.209335 87.035333 
L 745.209335 75.056467 
L 740.922487 75.056467 
z
" clip-path="url(#p12e5cfc4f6)" style="fill: #696969"/>
   </g>
   <g id="patch_258">
    <path d="M 743.601767 87.035333 
L 747.888615 87.035333 
L 747.888615 73.3452 
L 743.601767 73.3452 
z
" clip-path="url(#p12e5cfc4f6)" style="fill: #696969"/>
   </g>
   <g id="patch_259">
    <path d="M 746.281047 87.035333 
L 750.567896 87.035333 
L 750.567896 71.633933 
L 746.281047 71.633933 
z
" clip-path="url(#p12e5cfc4f6)" style="fill: #696969"/>
   </g>
   <g id="patch_260">
    <path d="M 748.960328 87.035333 
L 753.247176 87.035333 
L 753.247176 70.167133 
L 748.960328 70.167133 
z
" clip-path="url(#p12e5cfc4f6)" style="fill: #696969"/>
   </g>
   <g id="patch_261">
    <path d="M 751.639608 87.035333 
L 755.926456 87.035333 
L 755.926456 68.700333 
L 751.639608 68.700333 
z
" clip-path="url(#p12e5cfc4f6)" style="fill: #696969"/>
   </g>
   <g id="patch_262">
    <path d="M 754.318888 87.035333 
L 758.605736 87.035333 
L 758.605736 67.233533 
L 754.318888 67.233533 
z
" clip-path="url(#p12e5cfc4f6)" style="fill: #696969"/>
   </g>
   <g id="patch_263">
    <path d="M 756.998168 87.035333 
L 761.285017 87.035333 
L 761.285017 66.0112 
L 756.998168 66.0112 
z
" clip-path="url(#p12e5cfc4f6)" style="fill: #696969"/>
   </g>
   <g id="patch_264">
    <path d="M 759.677449 87.035333 
L 763.964297 87.035333 
L 763.964297 65.033333 
L 759.677449 65.033333 
z
" clip-path="url(#p12e5cfc4f6)" style="fill: #696969"/>
   </g>
   <g id="patch_265">
    <path d="M 762.356729 87.035333 
L 766.643577 87.035333 
L 766.643577 64.055467 
L 762.356729 64.055467 
z
" clip-path="url(#p12e5cfc4f6)" style="fill: #696969"/>
   </g>
   <g id="patch_266">
    <path d="M 765.036009 87.035333 
L 769.322857 87.035333 
L 769.322857 63.322067 
L 765.036009 63.322067 
z
" clip-path="url(#p12e5cfc4f6)" style="fill: #696969"/>
   </g>
   <g id="patch_267">
    <path d="M 767.715289 87.035333 
L 772.002138 87.035333 
L 772.002138 62.833133 
L 767.715289 62.833133 
z
" clip-path="url(#p12e5cfc4f6)" style="fill: #696969"/>
   </g>
   <g id="patch_268">
    <path d="M 770.39457 87.035333 
L 774.681418 87.035333 
L 774.681418 62.588667 
L 770.39457 62.588667 
z
" clip-path="url(#p12e5cfc4f6)" style="fill: #696969"/>
   </g>
   <g id="patch_269">
    <path d="M 773.07385 87.035333 
L 777.360698 87.035333 
L 777.360698 62.588667 
L 773.07385 62.588667 
z
" clip-path="url(#p12e5cfc4f6)" style="fill: #696969"/>
   </g>
   <g id="patch_270">
    <path d="M 775.75313 87.035333 
L 780.039978 87.035333 
L 780.039978 62.833133 
L 775.75313 62.833133 
z
" clip-path="url(#p12e5cfc4f6)" style="fill: #696969"/>
   </g>
   <g id="patch_271">
    <path d="M 778.43241 87.035333 
L 782.719259 87.035333 
L 782.719259 63.0776 
L 778.43241 63.0776 
z
" clip-path="url(#p12e5cfc4f6)" style="fill: #696969"/>
   </g>
   <g id="patch_272">
    <path d="M 781.111691 87.035333 
L 785.398539 87.035333 
L 785.398539 63.811 
L 781.111691 63.811 
z
" clip-path="url(#p12e5cfc4f6)" style="fill: #696969"/>
   </g>
   <g id="patch_273">
    <path d="M 783.790971 87.035333 
L 788.077819 87.035333 
L 788.077819 64.5444 
L 783.790971 64.5444 
z
" clip-path="url(#p12e5cfc4f6)" style="fill: #696969"/>
   </g>
   <g id="patch_274">
    <path d="M 786.470251 87.035333 
L 790.757099 87.035333 
L 790.757099 65.522267 
L 786.470251 65.522267 
z
" clip-path="url(#p12e5cfc4f6)" style="fill: #696969"/>
   </g>
   <g id="patch_275">
    <path d="M 789.149531 87.035333 
L 793.43638 87.035333 
L 793.43638 66.7446 
L 789.149531 66.7446 
z
" clip-path="url(#p12e5cfc4f6)" style="fill: #696969"/>
   </g>
   <g id="patch_276">
    <path d="M 791.828812 87.035333 
L 796.11566 87.035333 
L 796.11566 68.2114 
L 791.828812 68.2114 
z
" clip-path="url(#p12e5cfc4f6)" style="fill: #696969"/>
   </g>
   <g id="patch_277">
    <path d="M 794.508092 87.035333 
L 798.79494 87.035333 
L 798.79494 69.6782 
L 794.508092 69.6782 
z
" clip-path="url(#p12e5cfc4f6)" style="fill: #696969"/>
   </g>
   <g id="patch_278">
    <path d="M 797.187372 87.035333 
L 801.47422 87.035333 
L 801.47422 71.145 
L 797.187372 71.145 
z
" clip-path="url(#p12e5cfc4f6)" style="fill: #696969"/>
   </g>
   <g id="patch_279">
    <path d="M 799.866652 87.035333 
L 804.153501 87.035333 
L 804.153501 72.856267 
L 799.866652 72.856267 
z
" clip-path="url(#p12e5cfc4f6)" style="fill: #696969"/>
   </g>
   <g id="patch_280">
    <path d="M 802.545933 87.035333 
L 806.832781 87.035333 
L 806.832781 74.323067 
L 802.545933 74.323067 
z
" clip-path="url(#p12e5cfc4f6)" style="fill: #696969"/>
   </g>
   <g id="patch_281">
    <path d="M 805.225213 87.035333 
L 809.512061 87.035333 
L 809.512061 76.034333 
L 805.225213 76.034333 
z
" clip-path="url(#p12e5cfc4f6)" style="fill: #696969"/>
   </g>
   <g id="patch_282">
    <path d="M 807.904493 87.035333 
L 812.191341 87.035333 
L 812.191341 77.7456 
L 807.904493 77.7456 
z
" clip-path="url(#p12e5cfc4f6)" style="fill: #696969"/>
   </g>
   <g id="patch_283">
    <path d="M 810.583773 87.035333 
L 814.870622 87.035333 
L 814.870622 79.2124 
L 810.583773 79.2124 
z
" clip-path="url(#p12e5cfc4f6)" style="fill: #696969"/>
   </g>
   <g id="patch_284">
    <path d="M 813.263054 87.035333 
L 817.549902 87.035333 
L 817.549902 80.6792 
L 813.263054 80.6792 
z
" clip-path="url(#p12e5cfc4f6)" style="fill: #696969"/>
   </g>
   <g id="patch_285">
    <path d="M 815.942334 87.035333 
L 820.229182 87.035333 
L 820.229182 82.146 
L 815.942334 82.146 
z
" clip-path="url(#p12e5cfc4f6)" style="fill: #696969"/>
   </g>
   <g id="patch_286">
    <path d="M 818.621614 87.035333 
L 822.908462 87.035333 
L 822.908462 83.368333 
L 818.621614 83.368333 
z
" clip-path="url(#p12e5cfc4f6)" style="fill: #696969"/>
   </g>
   <g id="patch_287">
    <path d="M 821.300894 87.035333 
L 825.587743 87.035333 
L 825.587743 84.590667 
L 821.300894 84.590667 
z
" clip-path="url(#p12e5cfc4f6)" style="fill: #696969"/>
   </g>
   <g id="patch_288">
    <path d="M 823.980175 87.035333 
L 828.267023 87.035333 
L 828.267023 85.324067 
L 823.980175 85.324067 
z
" clip-path="url(#p12e5cfc4f6)" style="fill: #696969"/>
   </g>
   <g id="patch_289">
    <path d="M 826.659455 87.035333 
L 830.946303 87.035333 
L 830.946303 86.057467 
L 826.659455 86.057467 
z
" clip-path="url(#p12e5cfc4f6)" style="fill: #696969"/>
   </g>
   <g id="patch_290">
    <path d="M 829.338735 87.035333 
L 833.625583 87.035333 
L 833.625583 86.790867 
L 829.338735 86.790867 
z
" clip-path="url(#p12e5cfc4f6)" style="fill: #696969"/>
   </g>
   <g id="patch_291">
    <path d="M 832.018015 87.035333 
L 836.304864 87.035333 
L 836.304864 87.035333 
L 832.018015 87.035333 
z
" clip-path="url(#p12e5cfc4f6)" style="fill: #696969"/>
   </g>
   <g id="patch_292">
    <path d="M 834.697296 87.035333 
L 838.984144 87.035333 
L 838.984144 87.035333 
L 834.697296 87.035333 
z
" clip-path="url(#p12e5cfc4f6)" style="fill: #696969"/>
   </g>
   <g id="patch_293">
    <path d="M 837.376576 87.035333 
L 841.663424 87.035333 
L 841.663424 86.790867 
L 837.376576 86.790867 
z
" clip-path="url(#p12e5cfc4f6)" style="fill: #696969"/>
   </g>
   <g id="matplotlib.axis_3">
    <g id="xtick_9">
     <g id="line2d_13">
      <g>
       <use xlink:href="#mc8b87e9455" x="499.251408" y="89.48" style="stroke: #000000; stroke-width: 0.8"/>
      </g>
     </g>
     <g id="text_13">
      <!-- 80 -->
      <g transform="translate(491.616408 105.598125) scale(0.12 -0.12)">
       <use xlink:href="#DejaVuSans-38"/>
       <use xlink:href="#DejaVuSans-30" x="63.623047"/>
      </g>
     </g>
    </g>
    <g id="xtick_10">
     <g id="line2d_14">
      <g>
       <use xlink:href="#mc8b87e9455" x="552.837013" y="89.48" style="stroke: #000000; stroke-width: 0.8"/>
      </g>
     </g>
     <g id="text_14">
      <!-- 90 -->
      <g transform="translate(545.202013 105.598125) scale(0.12 -0.12)">
       <defs>
        <path id="DejaVuSans-39" d="M 703 97 
L 703 672 
Q 941 559 1184 500 
Q 1428 441 1663 441 
Q 2288 441 2617 861 
Q 2947 1281 2994 2138 
Q 2813 1869 2534 1725 
Q 2256 1581 1919 1581 
Q 1219 1581 811 2004 
Q 403 2428 403 3163 
Q 403 3881 828 4315 
Q 1253 4750 1959 4750 
Q 2769 4750 3195 4129 
Q 3622 3509 3622 2328 
Q 3622 1225 3098 567 
Q 2575 -91 1691 -91 
Q 1453 -91 1209 -44 
Q 966 3 703 97 
z
M 1959 2075 
Q 2384 2075 2632 2365 
Q 2881 2656 2881 3163 
Q 2881 3666 2632 3958 
Q 2384 4250 1959 4250 
Q 1534 4250 1286 3958 
Q 1038 3666 1038 3163 
Q 1038 2656 1286 2365 
Q 1534 2075 1959 2075 
z
" transform="scale(0.015625)"/>
       </defs>
       <use xlink:href="#DejaVuSans-39"/>
       <use xlink:href="#DejaVuSans-30" x="63.623047"/>
      </g>
     </g>
    </g>
    <g id="xtick_11">
     <g id="line2d_15">
      <g>
       <use xlink:href="#mc8b87e9455" x="606.422618" y="89.48" style="stroke: #000000; stroke-width: 0.8"/>
      </g>
     </g>
     <g id="text_15">
      <!-- 100 -->
      <g transform="translate(594.970118 105.598125) scale(0.12 -0.12)">
       <use xlink:href="#DejaVuSans-31"/>
       <use xlink:href="#DejaVuSans-30" x="63.623047"/>
       <use xlink:href="#DejaVuSans-30" x="127.246094"/>
      </g>
     </g>
    </g>
    <g id="xtick_12">
     <g id="line2d_16">
      <g>
       <use xlink:href="#mc8b87e9455" x="660.008223" y="89.48" style="stroke: #000000; stroke-width: 0.8"/>
      </g>
     </g>
     <g id="text_16">
      <!-- 110 -->
      <g transform="translate(648.555723 105.598125) scale(0.12 -0.12)">
       <use xlink:href="#DejaVuSans-31"/>
       <use xlink:href="#DejaVuSans-31" x="63.623047"/>
       <use xlink:href="#DejaVuSans-30" x="127.246094"/>
      </g>
     </g>
    </g>
    <g id="xtick_13">
     <g id="line2d_17">
      <g>
       <use xlink:href="#mc8b87e9455" x="713.593828" y="89.48" style="stroke: #000000; stroke-width: 0.8"/>
      </g>
     </g>
     <g id="text_17">
      <!-- 120 -->
      <g transform="translate(702.141328 105.598125) scale(0.12 -0.12)">
       <use xlink:href="#DejaVuSans-31"/>
       <use xlink:href="#DejaVuSans-32" x="63.623047"/>
       <use xlink:href="#DejaVuSans-30" x="127.246094"/>
      </g>
     </g>
    </g>
    <g id="xtick_14">
     <g id="line2d_18">
      <g>
       <use xlink:href="#mc8b87e9455" x="767.179433" y="89.48" style="stroke: #000000; stroke-width: 0.8"/>
      </g>
     </g>
     <g id="text_18">
      <!-- 130 -->
      <g transform="translate(755.726933 105.598125) scale(0.12 -0.12)">
       <use xlink:href="#DejaVuSans-31"/>
       <use xlink:href="#DejaVuSans-33" x="63.623047"/>
       <use xlink:href="#DejaVuSans-30" x="127.246094"/>
      </g>
     </g>
    </g>
    <g id="xtick_15">
     <g id="line2d_19">
      <g>
       <use xlink:href="#mc8b87e9455" x="820.765038" y="89.48" style="stroke: #000000; stroke-width: 0.8"/>
      </g>
     </g>
     <g id="text_19">
      <!-- 140 -->
      <g transform="translate(809.312538 105.598125) scale(0.12 -0.12)">
       <use xlink:href="#DejaVuSans-31"/>
       <use xlink:href="#DejaVuSans-34" x="63.623047"/>
       <use xlink:href="#DejaVuSans-30" x="127.246094"/>
      </g>
     </g>
    </g>
   </g>
   <g id="matplotlib.axis_4">
    <g id="ytick_3">
     <g id="line2d_20">
      <g>
       <use xlink:href="#mfbc2963126" x="456.382924" y="87.035333" style="stroke: #000000; stroke-width: 0.8"/>
      </g>
     </g>
    </g>
    <g id="ytick_4">
     <g id="line2d_21">
      <g>
       <use xlink:href="#mfbc2963126" x="456.382924" y="62.588667" style="stroke: #000000; stroke-width: 0.8"/>
      </g>
     </g>
    </g>
   </g>
   <g id="line2d_22">
    <path d="M 456.382924 85.955981 
L 459.062205 86.531788 
L 461.741485 86.891089 
L 464.420765 87.027255 
L 467.100045 86.937772 
L 469.779326 86.624292 
L 472.458606 86.092599 
L 475.137886 85.352504 
L 477.817166 84.417662 
L 480.496447 83.305322 
L 483.175727 82.03601 
L 488.534287 79.122613 
L 496.572128 74.230547 
L 501.930689 70.970495 
L 507.289249 67.991631 
L 509.968529 66.677295 
L 512.64781 65.512798 
L 515.32709 64.519625 
L 518.00637 63.716103 
L 520.68565 63.117058 
L 523.364931 62.733544 
L 526.044211 62.572635 
L 528.723491 62.637302 
L 531.402771 62.926351 
L 534.082052 63.434449 
L 536.761332 64.152221 
L 539.440612 65.066423 
L 542.119892 66.160186 
L 544.799173 67.413328 
L 550.157733 70.30275 
L 555.516294 73.522416 
L 563.554134 78.451328 
L 568.912695 81.451609 
L 571.591975 82.780993 
L 574.271255 83.963078 
L 576.950536 84.976053 
L 579.629816 85.801228 
L 582.309096 86.423377 
L 584.988376 86.83102 
L 587.667657 87.016636 
L 590.346937 86.976799 
L 593.026217 86.712246 
L 595.705497 86.227856 
L 598.384778 85.532568 
L 601.064058 84.639211 
L 603.743338 83.564269 
L 606.422618 82.327576 
L 611.781179 79.462776 
L 617.139739 76.255273 
L 625.17758 71.31956 
L 630.536141 68.298533 
L 633.215421 66.954399 
L 635.894701 65.754991 
L 638.573981 64.722438 
L 641.253262 63.875795 
L 643.932542 63.230681 
L 646.611822 62.799001 
L 649.291102 62.58872 
L 651.970383 62.603717 
L 654.649663 62.843716 
L 657.328943 63.304289 
L 660.008223 63.976937 
L 662.687504 64.84925 
L 665.366784 65.90513 
L 668.046064 67.125097 
L 673.404625 69.964636 
L 678.763185 73.159258 
L 689.480306 79.66613 
L 694.838867 82.50035 
L 697.518147 83.716813 
L 700.197427 84.768711 
L 702.876707 85.636635 
L 705.555988 86.304569 
L 708.235268 86.760189 
L 710.914548 86.995089 
L 713.593828 87.004934 
L 716.273109 86.789543 
L 718.952389 86.35289 
L 721.631669 85.703032 
L 724.310949 84.851959 
L 726.99023 83.815376 
L 729.66951 82.612408 
L 735.02807 79.798766 
L 740.386631 76.617739 
L 751.103752 70.098132 
L 756.462312 67.238518 
L 759.141593 66.005271 
L 761.820873 64.934263 
L 764.500153 64.045254 
L 767.179433 63.354649 
L 769.858714 62.87519 
L 772.537994 62.615724 
L 775.217274 62.581038 
L 777.896554 62.771773 
L 780.575835 63.184408 
L 783.255115 63.811331 
L 785.934395 64.640974 
L 788.613675 65.658029 
L 791.292956 66.843728 
L 796.651516 69.630844 
L 802.010077 72.797566 
L 812.727198 79.32845 
L 818.085758 82.212818 
L 820.765038 83.462572 
L 823.444319 84.552452 
L 826.123599 85.462347 
L 828.802879 86.175469 
L 831.482159 86.67866 
L 834.16144 86.962634 
L 836.84072 87.022152 
L 839.52 86.856117 
L 839.52 86.856117 
" clip-path="url(#p12e5cfc4f6)" style="fill: none; stroke: #191970; stroke-width: 3; stroke-linecap: square"/>
   </g>
   <g id="line2d_23">
    <path d="M 155.107489 89.48 
L 155.107489 60.144 
" clip-path="url(#p12e5cfc4f6)" style="fill: none; stroke-dasharray: 7.4,3.2; stroke-dashoffset: 0; stroke: #000000; stroke-opacity: 0.8; stroke-width: 2"/>
   </g>
   <g id="patch_294">
    <path d="M 456.382924 89.48 
L 456.382924 60.144 
" style="fill: none; stroke: #000000; stroke-width: 0.8; stroke-linejoin: miter; stroke-linecap: square"/>
   </g>
   <g id="patch_295">
    <path d="M 456.382924 89.48 
L 839.52 89.48 
" style="fill: none; stroke: #000000; stroke-width: 0.8; stroke-linejoin: miter; stroke-linecap: square"/>
   </g>
   <g id="text_20">
    <!-- 2 -->
    <g transform="translate(644.770212 42.946187) scale(0.1 -0.1)">
     <use xlink:href="#DejaVuSans-32"/>
    </g>
    <!-- (AC: 15.78, PR: 23.11) -->
    <g transform="translate(592.539743 54.144) scale(0.1 -0.1)">
     <use xlink:href="#DejaVuSans-28"/>
     <use xlink:href="#DejaVuSans-41" x="39.013672"/>
     <use xlink:href="#DejaVuSans-43" x="105.671875"/>
     <use xlink:href="#DejaVuSans-3a" x="175.496094"/>
     <use xlink:href="#DejaVuSans-20" x="209.1875"/>
     <use xlink:href="#DejaVuSans-31" x="240.974609"/>
     <use xlink:href="#DejaVuSans-35" x="304.597656"/>
     <use xlink:href="#DejaVuSans-2e" x="368.220703"/>
     <use xlink:href="#DejaVuSans-37" x="400.007812"/>
     <use xlink:href="#DejaVuSans-38" x="463.630859"/>
     <use xlink:href="#DejaVuSans-2c" x="527.253906"/>
     <use xlink:href="#DejaVuSans-20" x="559.041016"/>
     <use xlink:href="#DejaVuSans-50" x="590.828125"/>
     <use xlink:href="#DejaVuSans-52" x="651.130859"/>
     <use xlink:href="#DejaVuSans-3a" x="717.488281"/>
     <use xlink:href="#DejaVuSans-20" x="751.179688"/>
     <use xlink:href="#DejaVuSans-32" x="782.966797"/>
     <use xlink:href="#DejaVuSans-33" x="846.589844"/>
     <use xlink:href="#DejaVuSans-2e" x="910.212891"/>
     <use xlink:href="#DejaVuSans-31" x="942"/>
     <use xlink:href="#DejaVuSans-31" x="1005.623047"/>
     <use xlink:href="#DejaVuSans-29" x="1069.246094"/>
    </g>
   </g>
  </g>
  <g id="text_21">
   <!-- COSINOR MODEL - 3 SINE 0 -->
   <g transform="translate(342.439688 11.940525) scale(0.12 -0.12)">
    <defs>
     <path id="DejaVuSans-4f" d="M 2522 4238 
Q 1834 4238 1429 3725 
Q 1025 3213 1025 2328 
Q 1025 1447 1429 934 
Q 1834 422 2522 422 
Q 3209 422 3611 934 
Q 4013 1447 4013 2328 
Q 4013 3213 3611 3725 
Q 3209 4238 2522 4238 
z
M 2522 4750 
Q 3503 4750 4090 4092 
Q 4678 3434 4678 2328 
Q 4678 1225 4090 567 
Q 3503 -91 2522 -91 
Q 1538 -91 948 565 
Q 359 1222 359 2328 
Q 359 3434 948 4092 
Q 1538 4750 2522 4750 
z
" transform="scale(0.015625)"/>
     <path id="DejaVuSans-53" d="M 3425 4513 
L 3425 3897 
Q 3066 4069 2747 4153 
Q 2428 4238 2131 4238 
Q 1616 4238 1336 4038 
Q 1056 3838 1056 3469 
Q 1056 3159 1242 3001 
Q 1428 2844 1947 2747 
L 2328 2669 
Q 3034 2534 3370 2195 
Q 3706 1856 3706 1288 
Q 3706 609 3251 259 
Q 2797 -91 1919 -91 
Q 1588 -91 1214 -16 
Q 841 59 441 206 
L 441 856 
Q 825 641 1194 531 
Q 1563 422 1919 422 
Q 2459 422 2753 634 
Q 3047 847 3047 1241 
Q 3047 1584 2836 1778 
Q 2625 1972 2144 2069 
L 1759 2144 
Q 1053 2284 737 2584 
Q 422 2884 422 3419 
Q 422 4038 858 4394 
Q 1294 4750 2059 4750 
Q 2388 4750 2728 4690 
Q 3069 4631 3425 4513 
z
" transform="scale(0.015625)"/>
     <path id="DejaVuSans-49" d="M 628 4666 
L 1259 4666 
L 1259 0 
L 628 0 
L 628 4666 
z
" transform="scale(0.015625)"/>
     <path id="DejaVuSans-4e" d="M 628 4666 
L 1478 4666 
L 3547 763 
L 3547 4666 
L 4159 4666 
L 4159 0 
L 3309 0 
L 1241 3903 
L 1241 0 
L 628 0 
L 628 4666 
z
" transform="scale(0.015625)"/>
     <path id="DejaVuSans-4d" d="M 628 4666 
L 1569 4666 
L 2759 1491 
L 3956 4666 
L 4897 4666 
L 4897 0 
L 4281 0 
L 4281 4097 
L 3078 897 
L 2444 897 
L 1241 4097 
L 1241 0 
L 628 0 
L 628 4666 
z
" transform="scale(0.015625)"/>
     <path id="DejaVuSans-44" d="M 1259 4147 
L 1259 519 
L 2022 519 
Q 2988 519 3436 956 
Q 3884 1394 3884 2338 
Q 3884 3275 3436 3711 
Q 2988 4147 2022 4147 
L 1259 4147 
z
M 628 4666 
L 1925 4666 
Q 3281 4666 3915 4102 
Q 4550 3538 4550 2338 
Q 4550 1131 3912 565 
Q 3275 0 1925 0 
L 628 0 
L 628 4666 
z
" transform="scale(0.015625)"/>
     <path id="DejaVuSans-45" d="M 628 4666 
L 3578 4666 
L 3578 4134 
L 1259 4134 
L 1259 2753 
L 3481 2753 
L 3481 2222 
L 1259 2222 
L 1259 531 
L 3634 531 
L 3634 0 
L 628 0 
L 628 4666 
z
" transform="scale(0.015625)"/>
     <path id="DejaVuSans-4c" d="M 628 4666 
L 1259 4666 
L 1259 531 
L 3531 531 
L 3531 0 
L 628 0 
L 628 4666 
z
" transform="scale(0.015625)"/>
     <path id="DejaVuSans-2d" d="M 313 2009 
L 1997 2009 
L 1997 1497 
L 313 1497 
L 313 2009 
z
" transform="scale(0.015625)"/>
    </defs>
    <use xlink:href="#DejaVuSans-43"/>
    <use xlink:href="#DejaVuSans-4f" x="69.824219"/>
    <use xlink:href="#DejaVuSans-53" x="148.535156"/>
    <use xlink:href="#DejaVuSans-49" x="212.011719"/>
    <use xlink:href="#DejaVuSans-4e" x="241.503906"/>
    <use xlink:href="#DejaVuSans-4f" x="316.308594"/>
    <use xlink:href="#DejaVuSans-52" x="395.019531"/>
    <use xlink:href="#DejaVuSans-20" x="464.501953"/>
    <use xlink:href="#DejaVuSans-4d" x="496.289062"/>
    <use xlink:href="#DejaVuSans-4f" x="582.568359"/>
    <use xlink:href="#DejaVuSans-44" x="661.279297"/>
    <use xlink:href="#DejaVuSans-45" x="738.28125"/>
    <use xlink:href="#DejaVuSans-4c" x="801.464844"/>
    <use xlink:href="#DejaVuSans-20" x="857.177734"/>
    <use xlink:href="#DejaVuSans-2d" x="888.964844"/>
    <use xlink:href="#DejaVuSans-20" x="925.048828"/>
    <use xlink:href="#DejaVuSans-33" x="956.835938"/>
    <use xlink:href="#DejaVuSans-20" x="1020.458984"/>
    <use xlink:href="#DejaVuSans-53" x="1052.246094"/>
    <use xlink:href="#DejaVuSans-49" x="1115.722656"/>
    <use xlink:href="#DejaVuSans-4e" x="1145.214844"/>
    <use xlink:href="#DejaVuSans-45" x="1220.019531"/>
    <use xlink:href="#DejaVuSans-20" x="1283.203125"/>
    <use xlink:href="#DejaVuSans-30" x="1314.990234"/>
   </g>
  </g>
  <g id="text_22">
   <!-- TIME (HOURS FROM START OF PROTOCOL) -->
   <g transform="translate(318.840469 137.629112) scale(0.1 -0.1)">
    <defs>
     <path id="DejaVuSans-54" d="M -19 4666 
L 3928 4666 
L 3928 4134 
L 2272 4134 
L 2272 0 
L 1638 0 
L 1638 4134 
L -19 4134 
L -19 4666 
z
" transform="scale(0.015625)"/>
     <path id="DejaVuSans-48" d="M 628 4666 
L 1259 4666 
L 1259 2753 
L 3553 2753 
L 3553 4666 
L 4184 4666 
L 4184 0 
L 3553 0 
L 3553 2222 
L 1259 2222 
L 1259 0 
L 628 0 
L 628 4666 
z
" transform="scale(0.015625)"/>
     <path id="DejaVuSans-55" d="M 556 4666 
L 1191 4666 
L 1191 1831 
Q 1191 1081 1462 751 
Q 1734 422 2344 422 
Q 2950 422 3222 751 
Q 3494 1081 3494 1831 
L 3494 4666 
L 4128 4666 
L 4128 1753 
Q 4128 841 3676 375 
Q 3225 -91 2344 -91 
Q 1459 -91 1007 375 
Q 556 841 556 1753 
L 556 4666 
z
" transform="scale(0.015625)"/>
     <path id="DejaVuSans-46" d="M 628 4666 
L 3309 4666 
L 3309 4134 
L 1259 4134 
L 1259 2759 
L 3109 2759 
L 3109 2228 
L 1259 2228 
L 1259 0 
L 628 0 
L 628 4666 
z
" transform="scale(0.015625)"/>
    </defs>
    <use xlink:href="#DejaVuSans-54"/>
    <use xlink:href="#DejaVuSans-49" x="61.083984"/>
    <use xlink:href="#DejaVuSans-4d" x="90.576172"/>
    <use xlink:href="#DejaVuSans-45" x="176.855469"/>
    <use xlink:href="#DejaVuSans-20" x="240.039062"/>
    <use xlink:href="#DejaVuSans-28" x="271.826172"/>
    <use xlink:href="#DejaVuSans-48" x="310.839844"/>
    <use xlink:href="#DejaVuSans-4f" x="386.035156"/>
    <use xlink:href="#DejaVuSans-55" x="464.746094"/>
    <use xlink:href="#DejaVuSans-52" x="537.939453"/>
    <use xlink:href="#DejaVuSans-53" x="607.421875"/>
    <use xlink:href="#DejaVuSans-20" x="670.898438"/>
    <use xlink:href="#DejaVuSans-46" x="702.685547"/>
    <use xlink:href="#DejaVuSans-52" x="760.205078"/>
    <use xlink:href="#DejaVuSans-4f" x="829.6875"/>
    <use xlink:href="#DejaVuSans-4d" x="908.398438"/>
    <use xlink:href="#DejaVuSans-20" x="994.677734"/>
    <use xlink:href="#DejaVuSans-53" x="1026.464844"/>
    <use xlink:href="#DejaVuSans-54" x="1089.941406"/>
    <use xlink:href="#DejaVuSans-41" x="1143.275391"/>
    <use xlink:href="#DejaVuSans-52" x="1211.683594"/>
    <use xlink:href="#DejaVuSans-54" x="1273.916016"/>
    <use xlink:href="#DejaVuSans-20" x="1335"/>
    <use xlink:href="#DejaVuSans-4f" x="1366.787109"/>
    <use xlink:href="#DejaVuSans-46" x="1445.498047"/>
    <use xlink:href="#DejaVuSans-20" x="1503.017578"/>
    <use xlink:href="#DejaVuSans-50" x="1534.804688"/>
    <use xlink:href="#DejaVuSans-52" x="1595.107422"/>
    <use xlink:href="#DejaVuSans-4f" x="1664.589844"/>
    <use xlink:href="#DejaVuSans-54" x="1743.300781"/>
    <use xlink:href="#DejaVuSans-4f" x="1804.384766"/>
    <use xlink:href="#DejaVuSans-43" x="1883.095703"/>
    <use xlink:href="#DejaVuSans-4f" x="1952.919922"/>
    <use xlink:href="#DejaVuSans-4c" x="2031.630859"/>
    <use xlink:href="#DejaVuSans-29" x="2087.34375"/>
   </g>
  </g>
  <g id="text_23">
   <!-- AMPLITUDE -->
   <g transform="translate(24.604838 99.292812) rotate(-90) scale(0.1 -0.1)">
    <use xlink:href="#DejaVuSans-41"/>
    <use xlink:href="#DejaVuSans-4d" x="68.408203"/>
    <use xlink:href="#DejaVuSans-50" x="154.6875"/>
    <use xlink:href="#DejaVuSans-4c" x="214.990234"/>
    <use xlink:href="#DejaVuSans-49" x="270.703125"/>
    <use xlink:href="#DejaVuSans-54" x="300.195312"/>
    <use xlink:href="#DejaVuSans-55" x="361.279297"/>
    <use xlink:href="#DejaVuSans-44" x="434.472656"/>
    <use xlink:href="#DejaVuSans-45" x="511.474609"/>
   </g>
  </g>
 </g>
 <defs>
  <clipPath id="p099a417008">
   <rect x="57.67" y="60.144" width="383.137076" height="29.336"/>
  </clipPath>
  <clipPath id="p12e5cfc4f6">
   <rect x="456.382924" y="60.144" width="383.137076" height="29.336"/>
  </clipPath>
 </defs>
</svg>
