<?xml version="1.0" encoding="utf-8" standalone="no"?>
<!DOCTYPE svg PUBLIC "-//W3C//DTD SVG 1.1//EN"
  "http://www.w3.org/Graphics/SVG/1.1/DTD/svg11.dtd">
<svg xmlns:xlink="http://www.w3.org/1999/xlink" width="850.32pt" height="141.12pt" viewBox="0 0 850.32 141.12" xmlns="http://www.w3.org/2000/svg" version="1.1">
 <metadata>
  <rdf:RDF xmlns:dc="http://purl.org/dc/elements/1.1/" xmlns:cc="http://creativecommons.org/ns#" xmlns:rdf="http://www.w3.org/1999/02/22-rdf-syntax-ns#">
   <cc:Work>
    <dc:type rdf:resource="http://purl.org/dc/dcmitype/StillImage"/>
    <dc:date>2023-11-27T20:47:47.282881</dc:date>
    <dc:format>image/svg+xml</dc:format>
    <dc:creator>
     <cc:Agent>
      <dc:title>Matplotlib v3.7.4, https://matplotlib.org/</dc:title>
     </cc:Agent>
    </dc:creator>
   </cc:Work>
  </rdf:RDF>
 </metadata>
 <defs>
  <style type="text/css">*{stroke-linejoin: round; stroke-linecap: butt}</style>
 </defs>
 <g id="figure_1">
  <g id="patch_1">
   <path d="M 0 141.12 
L 850.32 141.12 
L 850.32 0 
L 0 0 
z
" style="fill: #ffffff"/>
  </g>
  <g id="axes_1">
   <g id="patch_2">
    <path d="M 46.33 89.48 
L 435.137076 89.48 
L 435.137076 60.144 
L 46.33 60.144 
z
" style="fill: #ffffff"/>
   </g>
   <g id="patch_3">
    <path d="M 44.154856 87.035333 
L 48.505144 87.035333 
L 48.505144 82.182624 
L 44.154856 82.182624 
z
" clip-path="url(#pd82df247cb)" style="fill: #696969"/>
   </g>
   <g id="patch_4">
    <path d="M 46.873786 87.035333 
L 51.224075 87.035333 
L 51.224075 87.035333 
L 46.873786 87.035333 
z
" clip-path="url(#pd82df247cb)" style="fill: #696969"/>
   </g>
   <g id="patch_5">
    <path d="M 49.592717 87.035333 
L 53.943006 87.035333 
L 53.943006 74.949341 
L 49.592717 74.949341 
z
" clip-path="url(#pd82df247cb)" style="fill: #696969"/>
   </g>
   <g id="patch_6">
    <path d="M 52.311647 87.035333 
L 56.661936 87.035333 
L 56.661936 81.816382 
L 52.311647 81.816382 
z
" clip-path="url(#pd82df247cb)" style="fill: #696969"/>
   </g>
   <g id="patch_7">
    <path d="M 55.030578 87.035333 
L 59.380867 87.035333 
L 59.380867 82.274185 
L 55.030578 82.274185 
z
" clip-path="url(#pd82df247cb)" style="fill: #696969"/>
   </g>
   <g id="patch_8">
    <path d="M 57.749509 87.035333 
L 62.099797 87.035333 
L 62.099797 87.035333 
L 57.749509 87.035333 
z
" clip-path="url(#pd82df247cb)" style="fill: #696969"/>
   </g>
   <g id="patch_9">
    <path d="M 60.468439 87.035333 
L 64.818728 87.035333 
L 64.818728 87.035333 
L 60.468439 87.035333 
z
" clip-path="url(#pd82df247cb)" style="fill: #696969"/>
   </g>
   <g id="patch_10">
    <path d="M 63.18737 87.035333 
L 67.537659 87.035333 
L 67.537659 85.570365 
L 63.18737 85.570365 
z
" clip-path="url(#pd82df247cb)" style="fill: #696969"/>
   </g>
   <g id="patch_11">
    <path d="M 65.9063 87.035333 
L 70.256589 87.035333 
L 70.256589 84.563199 
L 65.9063 84.563199 
z
" clip-path="url(#pd82df247cb)" style="fill: #696969"/>
   </g>
   <g id="patch_12">
    <path d="M 68.625231 87.035333 
L 72.97552 87.035333 
L 72.97552 86.211288 
L 68.625231 86.211288 
z
" clip-path="url(#pd82df247cb)" style="fill: #696969"/>
   </g>
   <g id="patch_13">
    <path d="M 71.344162 87.035333 
L 75.69445 87.035333 
L 75.69445 87.035333 
L 71.344162 87.035333 
z
" clip-path="url(#pd82df247cb)" style="fill: #696969"/>
   </g>
   <g id="patch_14">
    <path d="M 74.063092 87.035333 
L 78.413381 87.035333 
L 78.413381 87.035333 
L 74.063092 87.035333 
z
" clip-path="url(#pd82df247cb)" style="fill: #696969"/>
   </g>
   <g id="patch_15">
    <path d="M 76.782023 87.035333 
L 81.132312 87.035333 
L 81.132312 87.035333 
L 76.782023 87.035333 
z
" clip-path="url(#pd82df247cb)" style="fill: #696969"/>
   </g>
   <g id="patch_16">
    <path d="M 79.500953 87.035333 
L 83.851242 87.035333 
L 83.851242 87.035333 
L 79.500953 87.035333 
z
" clip-path="url(#pd82df247cb)" style="fill: #696969"/>
   </g>
   <g id="patch_17">
    <path d="M 82.219884 87.035333 
L 86.570173 87.035333 
L 86.570173 87.035333 
L 82.219884 87.035333 
z
" clip-path="url(#pd82df247cb)" style="fill: #696969"/>
   </g>
   <g id="patch_18">
    <path d="M 84.938815 87.035333 
L 89.289103 87.035333 
L 89.289103 84.196956 
L 84.938815 84.196956 
z
" clip-path="url(#pd82df247cb)" style="fill: #696969"/>
   </g>
   <g id="patch_19">
    <path d="M 87.657745 87.035333 
L 92.008034 87.035333 
L 92.008034 81.5417 
L 87.657745 81.5417 
z
" clip-path="url(#pd82df247cb)" style="fill: #696969"/>
   </g>
   <g id="patch_20">
    <path d="M 90.376676 87.035333 
L 94.726965 87.035333 
L 94.726965 78.703323 
L 90.376676 78.703323 
z
" clip-path="url(#pd82df247cb)" style="fill: #696969"/>
   </g>
   <g id="patch_21">
    <path d="M 93.095606 87.035333 
L 97.445895 87.035333 
L 97.445895 87.035333 
L 93.095606 87.035333 
z
" clip-path="url(#pd82df247cb)" style="fill: #696969"/>
   </g>
   <g id="patch_22">
    <path d="M 95.814537 87.035333 
L 100.164826 87.035333 
L 100.164826 84.74632 
L 95.814537 84.74632 
z
" clip-path="url(#pd82df247cb)" style="fill: #696969"/>
   </g>
   <g id="patch_23">
    <path d="M 98.533468 87.035333 
L 102.883756 87.035333 
L 102.883756 79.985171 
L 98.533468 79.985171 
z
" clip-path="url(#pd82df247cb)" style="fill: #696969"/>
   </g>
   <g id="patch_24">
    <path d="M 101.252398 87.035333 
L 105.602687 87.035333 
L 105.602687 83.739154 
L 101.252398 83.739154 
z
" clip-path="url(#pd82df247cb)" style="fill: #696969"/>
   </g>
   <g id="patch_25">
    <path d="M 103.971329 87.035333 
L 108.321618 87.035333 
L 108.321618 78.428642 
L 103.971329 78.428642 
z
" clip-path="url(#pd82df247cb)" style="fill: #696969"/>
   </g>
   <g id="patch_26">
    <path d="M 106.690259 87.035333 
L 111.040548 87.035333 
L 111.040548 84.471638 
L 106.690259 84.471638 
z
" clip-path="url(#pd82df247cb)" style="fill: #696969"/>
   </g>
   <g id="patch_27">
    <path d="M 109.40919 87.035333 
L 113.759479 87.035333 
L 113.759479 70.920677 
L 109.40919 70.920677 
z
" clip-path="url(#pd82df247cb)" style="fill: #696969"/>
   </g>
   <g id="patch_28">
    <path d="M 112.12812 87.035333 
L 116.478409 87.035333 
L 116.478409 74.491538 
L 112.12812 74.491538 
z
" clip-path="url(#pd82df247cb)" style="fill: #696969"/>
   </g>
   <g id="patch_29">
    <path d="M 114.847051 87.035333 
L 119.19734 87.035333 
L 119.19734 78.337081 
L 114.847051 78.337081 
z
" clip-path="url(#pd82df247cb)" style="fill: #696969"/>
   </g>
   <g id="patch_30">
    <path d="M 117.565982 87.035333 
L 121.916271 87.035333 
L 121.916271 73.667493 
L 117.565982 73.667493 
z
" clip-path="url(#pd82df247cb)" style="fill: #696969"/>
   </g>
   <g id="patch_31">
    <path d="M 120.284912 87.035333 
L 124.635201 87.035333 
L 124.635201 78.0624 
L 120.284912 78.0624 
z
" clip-path="url(#pd82df247cb)" style="fill: #696969"/>
   </g>
   <g id="patch_32">
    <path d="M 123.003843 87.035333 
L 127.354132 87.035333 
L 127.354132 85.570365 
L 123.003843 85.570365 
z
" clip-path="url(#pd82df247cb)" style="fill: #696969"/>
   </g>
   <g id="patch_33">
    <path d="M 125.722773 87.035333 
L 130.073062 87.035333 
L 130.073062 71.927843 
L 125.722773 71.927843 
z
" clip-path="url(#pd82df247cb)" style="fill: #696969"/>
   </g>
   <g id="patch_34">
    <path d="M 128.441704 87.035333 
L 132.791993 87.035333 
L 132.791993 79.985171 
L 128.441704 79.985171 
z
" clip-path="url(#pd82df247cb)" style="fill: #696969"/>
   </g>
   <g id="patch_35">
    <path d="M 131.160635 87.035333 
L 135.510924 87.035333 
L 135.510924 70.005071 
L 131.160635 70.005071 
z
" clip-path="url(#pd82df247cb)" style="fill: #696969"/>
   </g>
   <g id="patch_36">
    <path d="M 133.879565 87.035333 
L 138.229854 87.035333 
L 138.229854 77.970839 
L 133.879565 77.970839 
z
" clip-path="url(#pd82df247cb)" style="fill: #696969"/>
   </g>
   <g id="patch_37">
    <path d="M 136.598496 87.035333 
L 140.948785 87.035333 
L 140.948785 68.997905 
L 136.598496 68.997905 
z
" clip-path="url(#pd82df247cb)" style="fill: #696969"/>
   </g>
   <g id="patch_38">
    <path d="M 139.317426 87.035333 
L 143.667715 87.035333 
L 143.667715 75.498704 
L 139.317426 75.498704 
z
" clip-path="url(#pd82df247cb)" style="fill: #696969"/>
   </g>
   <g id="patch_39">
    <path d="M 142.036357 87.035333 
L 146.386646 87.035333 
L 146.386646 73.850614 
L 142.036357 73.850614 
z
" clip-path="url(#pd82df247cb)" style="fill: #696969"/>
   </g>
   <g id="patch_40">
    <path d="M 144.755288 87.035333 
L 149.105577 87.035333 
L 149.105577 81.907943 
L 144.755288 81.907943 
z
" clip-path="url(#pd82df247cb)" style="fill: #696969"/>
   </g>
   <g id="patch_41">
    <path d="M 147.474218 87.035333 
L 151.824507 87.035333 
L 151.824507 78.794884 
L 147.474218 78.794884 
z
" clip-path="url(#pd82df247cb)" style="fill: #696969"/>
   </g>
   <g id="patch_42">
    <path d="M 150.193149 87.035333 
L 154.543438 87.035333 
L 154.543438 79.710489 
L 150.193149 79.710489 
z
" clip-path="url(#pd82df247cb)" style="fill: #696969"/>
   </g>
   <g id="patch_43">
    <path d="M 152.912079 87.035333 
L 157.262368 87.035333 
L 157.262368 72.110964 
L 152.912079 72.110964 
z
" clip-path="url(#pd82df247cb)" style="fill: #696969"/>
   </g>
   <g id="patch_44">
    <path d="M 155.63101 87.035333 
L 159.981299 87.035333 
L 159.981299 78.245521 
L 155.63101 78.245521 
z
" clip-path="url(#pd82df247cb)" style="fill: #696969"/>
   </g>
   <g id="patch_45">
    <path d="M 158.349941 87.035333 
L 162.70023 87.035333 
L 162.70023 74.949341 
L 158.349941 74.949341 
z
" clip-path="url(#pd82df247cb)" style="fill: #696969"/>
   </g>
   <g id="patch_46">
    <path d="M 161.068871 87.035333 
L 165.41916 87.035333 
L 165.41916 81.816382 
L 161.068871 81.816382 
z
" clip-path="url(#pd82df247cb)" style="fill: #696969"/>
   </g>
   <g id="patch_47">
    <path d="M 163.787802 87.035333 
L 168.138091 87.035333 
L 168.138091 76.322749 
L 163.787802 76.322749 
z
" clip-path="url(#pd82df247cb)" style="fill: #696969"/>
   </g>
   <g id="patch_48">
    <path d="M 166.506732 87.035333 
L 170.857021 87.035333 
L 170.857021 87.035333 
L 166.506732 87.035333 
z
" clip-path="url(#pd82df247cb)" style="fill: #696969"/>
   </g>
   <g id="patch_49">
    <path d="M 169.225663 87.035333 
L 173.575952 87.035333 
L 173.575952 78.520202 
L 169.225663 78.520202 
z
" clip-path="url(#pd82df247cb)" style="fill: #696969"/>
   </g>
   <g id="patch_50">
    <path d="M 171.944594 87.035333 
L 176.294883 87.035333 
L 176.294883 87.035333 
L 171.944594 87.035333 
z
" clip-path="url(#pd82df247cb)" style="fill: #696969"/>
   </g>
   <g id="patch_51">
    <path d="M 174.663524 87.035333 
L 179.013813 87.035333 
L 179.013813 87.035333 
L 174.663524 87.035333 
z
" clip-path="url(#pd82df247cb)" style="fill: #696969"/>
   </g>
   <g id="patch_52">
    <path d="M 177.382455 87.035333 
L 181.732744 87.035333 
L 181.732744 87.035333 
L 177.382455 87.035333 
z
" clip-path="url(#pd82df247cb)" style="fill: #696969"/>
   </g>
   <g id="patch_53">
    <path d="M 180.101385 87.035333 
L 184.451674 87.035333 
L 184.451674 77.329915 
L 180.101385 77.329915 
z
" clip-path="url(#pd82df247cb)" style="fill: #696969"/>
   </g>
   <g id="patch_54">
    <path d="M 182.820316 87.035333 
L 187.170605 87.035333 
L 187.170605 81.633261 
L 182.820316 81.633261 
z
" clip-path="url(#pd82df247cb)" style="fill: #696969"/>
   </g>
   <g id="patch_55">
    <path d="M 185.539247 87.035333 
L 189.889536 87.035333 
L 189.889536 87.035333 
L 185.539247 87.035333 
z
" clip-path="url(#pd82df247cb)" style="fill: #696969"/>
   </g>
   <g id="patch_56">
    <path d="M 188.258177 87.035333 
L 192.608466 87.035333 
L 192.608466 84.74632 
L 188.258177 84.74632 
z
" clip-path="url(#pd82df247cb)" style="fill: #696969"/>
   </g>
   <g id="patch_57">
    <path d="M 190.977108 87.035333 
L 195.327397 87.035333 
L 195.327397 87.035333 
L 190.977108 87.035333 
z
" clip-path="url(#pd82df247cb)" style="fill: #696969"/>
   </g>
   <g id="patch_58">
    <path d="M 193.696038 87.035333 
L 198.046327 87.035333 
L 198.046327 87.035333 
L 193.696038 87.035333 
z
" clip-path="url(#pd82df247cb)" style="fill: #696969"/>
   </g>
   <g id="patch_59">
    <path d="M 196.414969 87.035333 
L 200.765258 87.035333 
L 200.765258 87.035333 
L 196.414969 87.035333 
z
" clip-path="url(#pd82df247cb)" style="fill: #696969"/>
   </g>
   <g id="patch_60">
    <path d="M 199.1339 87.035333 
L 203.484189 87.035333 
L 203.484189 80.534534 
L 199.1339 80.534534 
z
" clip-path="url(#pd82df247cb)" style="fill: #696969"/>
   </g>
   <g id="patch_61">
    <path d="M 201.85283 87.035333 
L 206.203119 87.035333 
L 206.203119 87.035333 
L 201.85283 87.035333 
z
" clip-path="url(#pd82df247cb)" style="fill: #696969"/>
   </g>
   <g id="patch_62">
    <path d="M 204.571761 87.035333 
L 208.92205 87.035333 
L 208.92205 87.035333 
L 204.571761 87.035333 
z
" clip-path="url(#pd82df247cb)" style="fill: #696969"/>
   </g>
   <g id="patch_63">
    <path d="M 207.290691 87.035333 
L 211.64098 87.035333 
L 211.64098 87.035333 
L 207.290691 87.035333 
z
" clip-path="url(#pd82df247cb)" style="fill: #696969"/>
   </g>
   <g id="patch_64">
    <path d="M 210.009622 87.035333 
L 214.359911 87.035333 
L 214.359911 87.035333 
L 210.009622 87.035333 
z
" clip-path="url(#pd82df247cb)" style="fill: #696969"/>
   </g>
   <g id="patch_65">
    <path d="M 212.728553 87.035333 
L 217.078842 87.035333 
L 217.078842 83.922275 
L 212.728553 83.922275 
z
" clip-path="url(#pd82df247cb)" style="fill: #696969"/>
   </g>
   <g id="patch_66">
    <path d="M 215.447483 87.035333 
L 219.797772 87.035333 
L 219.797772 87.035333 
L 215.447483 87.035333 
z
" clip-path="url(#pd82df247cb)" style="fill: #696969"/>
   </g>
   <g id="patch_67">
    <path d="M 218.166414 87.035333 
L 222.516703 87.035333 
L 222.516703 84.380077 
L 218.166414 84.380077 
z
" clip-path="url(#pd82df247cb)" style="fill: #696969"/>
   </g>
   <g id="patch_68">
    <path d="M 220.885344 87.035333 
L 225.235633 87.035333 
L 225.235633 76.41431 
L 220.885344 76.41431 
z
" clip-path="url(#pd82df247cb)" style="fill: #696969"/>
   </g>
   <g id="patch_69">
    <path d="M 223.604275 87.035333 
L 227.954564 87.035333 
L 227.954564 87.035333 
L 223.604275 87.035333 
z
" clip-path="url(#pd82df247cb)" style="fill: #696969"/>
   </g>
   <g id="patch_70">
    <path d="M 226.323206 87.035333 
L 230.673495 87.035333 
L 230.673495 82.182624 
L 226.323206 82.182624 
z
" clip-path="url(#pd82df247cb)" style="fill: #696969"/>
   </g>
   <g id="patch_71">
    <path d="M 229.042136 87.035333 
L 233.392425 87.035333 
L 233.392425 87.035333 
L 229.042136 87.035333 
z
" clip-path="url(#pd82df247cb)" style="fill: #696969"/>
   </g>
   <g id="patch_72">
    <path d="M 231.761067 87.035333 
L 236.111356 87.035333 
L 236.111356 84.929441 
L 231.761067 84.929441 
z
" clip-path="url(#pd82df247cb)" style="fill: #696969"/>
   </g>
   <g id="patch_73">
    <path d="M 234.479997 87.035333 
L 238.830286 87.035333 
L 238.830286 82.365745 
L 234.479997 82.365745 
z
" clip-path="url(#pd82df247cb)" style="fill: #696969"/>
   </g>
   <g id="patch_74">
    <path d="M 237.198928 87.035333 
L 241.549217 87.035333 
L 241.549217 87.035333 
L 237.198928 87.035333 
z
" clip-path="url(#pd82df247cb)" style="fill: #696969"/>
   </g>
   <g id="patch_75">
    <path d="M 239.917859 87.035333 
L 244.268148 87.035333 
L 244.268148 85.478804 
L 239.917859 85.478804 
z
" clip-path="url(#pd82df247cb)" style="fill: #696969"/>
   </g>
   <g id="patch_76">
    <path d="M 242.636789 87.035333 
L 246.987078 87.035333 
L 246.987078 75.407144 
L 242.636789 75.407144 
z
" clip-path="url(#pd82df247cb)" style="fill: #696969"/>
   </g>
   <g id="patch_77">
    <path d="M 245.35572 87.035333 
L 249.706009 87.035333 
L 249.706009 74.949341 
L 245.35572 74.949341 
z
" clip-path="url(#pd82df247cb)" style="fill: #696969"/>
   </g>
   <g id="patch_78">
    <path d="M 248.07465 87.035333 
L 252.424939 87.035333 
L 252.424939 79.069566 
L 248.07465 79.069566 
z
" clip-path="url(#pd82df247cb)" style="fill: #696969"/>
   </g>
   <g id="patch_79">
    <path d="M 250.793581 87.035333 
L 255.14387 87.035333 
L 255.14387 81.175458 
L 250.793581 81.175458 
z
" clip-path="url(#pd82df247cb)" style="fill: #696969"/>
   </g>
   <g id="patch_80">
    <path d="M 253.512512 87.035333 
L 257.862801 87.035333 
L 257.862801 76.231189 
L 253.512512 76.231189 
z
" clip-path="url(#pd82df247cb)" style="fill: #696969"/>
   </g>
   <g id="patch_81">
    <path d="M 256.231442 87.035333 
L 260.581731 87.035333 
L 260.581731 81.083898 
L 256.231442 81.083898 
z
" clip-path="url(#pd82df247cb)" style="fill: #696969"/>
   </g>
   <g id="patch_82">
    <path d="M 258.950373 87.035333 
L 263.300662 87.035333 
L 263.300662 70.462874 
L 258.950373 70.462874 
z
" clip-path="url(#pd82df247cb)" style="fill: #696969"/>
   </g>
   <g id="patch_83">
    <path d="M 261.669303 87.035333 
L 266.019592 87.035333 
L 266.019592 67.716057 
L 261.669303 67.716057 
z
" clip-path="url(#pd82df247cb)" style="fill: #696969"/>
   </g>
   <g id="patch_84">
    <path d="M 264.388234 87.035333 
L 268.738523 87.035333 
L 268.738523 80.717655 
L 264.388234 80.717655 
z
" clip-path="url(#pd82df247cb)" style="fill: #696969"/>
   </g>
   <g id="patch_85">
    <path d="M 267.107165 87.035333 
L 271.457454 87.035333 
L 271.457454 83.18979 
L 267.107165 83.18979 
z
" clip-path="url(#pd82df247cb)" style="fill: #696969"/>
   </g>
   <g id="patch_86">
    <path d="M 269.826095 87.035333 
L 274.176384 87.035333 
L 274.176384 81.358579 
L 269.826095 81.358579 
z
" clip-path="url(#pd82df247cb)" style="fill: #696969"/>
   </g>
   <g id="patch_87">
    <path d="M 272.545026 87.035333 
L 276.895315 87.035333 
L 276.895315 79.527368 
L 272.545026 79.527368 
z
" clip-path="url(#pd82df247cb)" style="fill: #696969"/>
   </g>
   <g id="patch_88">
    <path d="M 275.263956 87.035333 
L 279.614245 87.035333 
L 279.614245 87.035333 
L 275.263956 87.035333 
z
" clip-path="url(#pd82df247cb)" style="fill: #696969"/>
   </g>
   <g id="patch_89">
    <path d="M 277.982887 87.035333 
L 282.333176 87.035333 
L 282.333176 74.85778 
L 277.982887 74.85778 
z
" clip-path="url(#pd82df247cb)" style="fill: #696969"/>
   </g>
   <g id="patch_90">
    <path d="M 280.701818 87.035333 
L 285.052107 87.035333 
L 285.052107 76.963673 
L 280.701818 76.963673 
z
" clip-path="url(#pd82df247cb)" style="fill: #696969"/>
   </g>
   <g id="patch_91">
    <path d="M 283.420748 87.035333 
L 287.771037 87.035333 
L 287.771037 87.035333 
L 283.420748 87.035333 
z
" clip-path="url(#pd82df247cb)" style="fill: #696969"/>
   </g>
   <g id="patch_92">
    <path d="M 286.139679 87.035333 
L 290.489968 87.035333 
L 290.489968 82.915109 
L 286.139679 82.915109 
z
" clip-path="url(#pd82df247cb)" style="fill: #696969"/>
   </g>
   <g id="patch_93">
    <path d="M 288.858609 87.035333 
L 293.208898 87.035333 
L 293.208898 83.281351 
L 288.858609 83.281351 
z
" clip-path="url(#pd82df247cb)" style="fill: #696969"/>
   </g>
   <g id="patch_94">
    <path d="M 291.57754 87.035333 
L 295.927829 87.035333 
L 295.927829 86.943773 
L 291.57754 86.943773 
z
" clip-path="url(#pd82df247cb)" style="fill: #696969"/>
   </g>
   <g id="patch_95">
    <path d="M 294.296471 87.035333 
L 298.64676 87.035333 
L 298.64676 84.563199 
L 294.296471 84.563199 
z
" clip-path="url(#pd82df247cb)" style="fill: #696969"/>
   </g>
   <g id="patch_96">
    <path d="M 297.015401 87.035333 
L 301.36569 87.035333 
L 301.36569 71.653161 
L 297.015401 71.653161 
z
" clip-path="url(#pd82df247cb)" style="fill: #696969"/>
   </g>
   <g id="patch_97">
    <path d="M 299.734332 87.035333 
L 304.084621 87.035333 
L 304.084621 84.929441 
L 299.734332 84.929441 
z
" clip-path="url(#pd82df247cb)" style="fill: #696969"/>
   </g>
   <g id="patch_98">
    <path d="M 302.453262 87.035333 
L 306.803551 87.035333 
L 306.803551 79.985171 
L 302.453262 79.985171 
z
" clip-path="url(#pd82df247cb)" style="fill: #696969"/>
   </g>
   <g id="patch_99">
    <path d="M 305.172193 87.035333 
L 309.522482 87.035333 
L 309.522482 87.035333 
L 305.172193 87.035333 
z
" clip-path="url(#pd82df247cb)" style="fill: #696969"/>
   </g>
   <g id="patch_100">
    <path d="M 307.891124 87.035333 
L 312.241413 87.035333 
L 312.241413 87.035333 
L 307.891124 87.035333 
z
" clip-path="url(#pd82df247cb)" style="fill: #696969"/>
   </g>
   <g id="patch_101">
    <path d="M 310.610054 87.035333 
L 314.960343 87.035333 
L 314.960343 77.970839 
L 310.610054 77.970839 
z
" clip-path="url(#pd82df247cb)" style="fill: #696969"/>
   </g>
   <g id="patch_102">
    <path d="M 313.328985 87.035333 
L 317.679274 87.035333 
L 317.679274 87.035333 
L 313.328985 87.035333 
z
" clip-path="url(#pd82df247cb)" style="fill: #696969"/>
   </g>
   <g id="patch_103">
    <path d="M 316.047915 87.035333 
L 320.398204 87.035333 
L 320.398204 87.035333 
L 316.047915 87.035333 
z
" clip-path="url(#pd82df247cb)" style="fill: #696969"/>
   </g>
   <g id="patch_104">
    <path d="M 318.766846 87.035333 
L 323.117135 87.035333 
L 323.117135 87.035333 
L 318.766846 87.035333 
z
" clip-path="url(#pd82df247cb)" style="fill: #696969"/>
   </g>
   <g id="patch_105">
    <path d="M 321.485777 87.035333 
L 325.836066 87.035333 
L 325.836066 87.035333 
L 321.485777 87.035333 
z
" clip-path="url(#pd82df247cb)" style="fill: #696969"/>
   </g>
   <g id="patch_106">
    <path d="M 324.204707 87.035333 
L 328.554996 87.035333 
L 328.554996 87.035333 
L 324.204707 87.035333 
z
" clip-path="url(#pd82df247cb)" style="fill: #696969"/>
   </g>
   <g id="patch_107">
    <path d="M 326.923638 87.035333 
L 331.273927 87.035333 
L 331.273927 79.435808 
L 326.923638 79.435808 
z
" clip-path="url(#pd82df247cb)" style="fill: #696969"/>
   </g>
   <g id="patch_108">
    <path d="M 329.642568 87.035333 
L 333.992857 87.035333 
L 333.992857 82.823548 
L 329.642568 82.823548 
z
" clip-path="url(#pd82df247cb)" style="fill: #696969"/>
   </g>
   <g id="patch_109">
    <path d="M 332.361499 87.035333 
L 336.711788 87.035333 
L 336.711788 83.830714 
L 332.361499 83.830714 
z
" clip-path="url(#pd82df247cb)" style="fill: #696969"/>
   </g>
   <g id="patch_110">
    <path d="M 335.08043 87.035333 
L 339.430719 87.035333 
L 339.430719 79.435808 
L 335.08043 79.435808 
z
" clip-path="url(#pd82df247cb)" style="fill: #696969"/>
   </g>
   <g id="patch_111">
    <path d="M 337.79936 87.035333 
L 342.149649 87.035333 
L 342.149649 79.80205 
L 337.79936 79.80205 
z
" clip-path="url(#pd82df247cb)" style="fill: #696969"/>
   </g>
   <g id="patch_112">
    <path d="M 340.518291 87.035333 
L 344.86858 87.035333 
L 344.86858 84.380077 
L 340.518291 84.380077 
z
" clip-path="url(#pd82df247cb)" style="fill: #696969"/>
   </g>
   <g id="patch_113">
    <path d="M 343.237221 87.035333 
L 347.58751 87.035333 
L 347.58751 73.942175 
L 343.237221 73.942175 
z
" clip-path="url(#pd82df247cb)" style="fill: #696969"/>
   </g>
   <g id="patch_114">
    <path d="M 345.956152 87.035333 
L 350.306441 87.035333 
L 350.306441 81.5417 
L 345.956152 81.5417 
z
" clip-path="url(#pd82df247cb)" style="fill: #696969"/>
   </g>
   <g id="patch_115">
    <path d="M 348.675083 87.035333 
L 353.025372 87.035333 
L 353.025372 84.471638 
L 348.675083 84.471638 
z
" clip-path="url(#pd82df247cb)" style="fill: #696969"/>
   </g>
   <g id="patch_116">
    <path d="M 351.394013 87.035333 
L 355.744302 87.035333 
L 355.744302 81.083898 
L 351.394013 81.083898 
z
" clip-path="url(#pd82df247cb)" style="fill: #696969"/>
   </g>
   <g id="patch_117">
    <path d="M 354.112944 87.035333 
L 358.463233 87.035333 
L 358.463233 87.035333 
L 354.112944 87.035333 
z
" clip-path="url(#pd82df247cb)" style="fill: #696969"/>
   </g>
   <g id="patch_118">
    <path d="M 356.831874 87.035333 
L 361.182163 87.035333 
L 361.182163 78.15396 
L 356.831874 78.15396 
z
" clip-path="url(#pd82df247cb)" style="fill: #696969"/>
   </g>
   <g id="patch_119">
    <path d="M 359.550805 87.035333 
L 363.901094 87.035333 
L 363.901094 83.647593 
L 359.550805 83.647593 
z
" clip-path="url(#pd82df247cb)" style="fill: #696969"/>
   </g>
   <g id="patch_120">
    <path d="M 362.269736 87.035333 
L 366.620025 87.035333 
L 366.620025 75.681825 
L 362.269736 75.681825 
z
" clip-path="url(#pd82df247cb)" style="fill: #696969"/>
   </g>
   <g id="patch_121">
    <path d="M 364.988666 87.035333 
L 369.338955 87.035333 
L 369.338955 82.731988 
L 364.988666 82.731988 
z
" clip-path="url(#pd82df247cb)" style="fill: #696969"/>
   </g>
   <g id="patch_122">
    <path d="M 367.707597 87.035333 
L 372.057886 87.035333 
L 372.057886 76.41431 
L 367.707597 76.41431 
z
" clip-path="url(#pd82df247cb)" style="fill: #696969"/>
   </g>
   <g id="patch_123">
    <path d="M 370.426527 87.035333 
L 374.776816 87.035333 
L 374.776816 72.935009 
L 370.426527 72.935009 
z
" clip-path="url(#pd82df247cb)" style="fill: #696969"/>
   </g>
   <g id="patch_124">
    <path d="M 373.145458 87.035333 
L 377.495747 87.035333 
L 377.495747 71.5616 
L 373.145458 71.5616 
z
" clip-path="url(#pd82df247cb)" style="fill: #696969"/>
   </g>
   <g id="patch_125">
    <path d="M 375.864389 87.035333 
L 380.214678 87.035333 
L 380.214678 78.0624 
L 375.864389 78.0624 
z
" clip-path="url(#pd82df247cb)" style="fill: #696969"/>
   </g>
   <g id="patch_126">
    <path d="M 378.583319 87.035333 
L 382.933608 87.035333 
L 382.933608 76.780552 
L 378.583319 76.780552 
z
" clip-path="url(#pd82df247cb)" style="fill: #696969"/>
   </g>
   <g id="patch_127">
    <path d="M 381.30225 87.035333 
L 385.652539 87.035333 
L 385.652539 69.089466 
L 381.30225 69.089466 
z
" clip-path="url(#pd82df247cb)" style="fill: #696969"/>
   </g>
   <g id="patch_128">
    <path d="M 384.02118 87.035333 
L 388.371469 87.035333 
L 388.371469 78.337081 
L 384.02118 78.337081 
z
" clip-path="url(#pd82df247cb)" style="fill: #696969"/>
   </g>
   <g id="patch_129">
    <path d="M 386.740111 87.035333 
L 391.0904 87.035333 
L 391.0904 79.527368 
L 386.740111 79.527368 
z
" clip-path="url(#pd82df247cb)" style="fill: #696969"/>
   </g>
   <g id="patch_130">
    <path d="M 389.459042 87.035333 
L 393.809331 87.035333 
L 393.809331 80.076732 
L 389.459042 80.076732 
z
" clip-path="url(#pd82df247cb)" style="fill: #696969"/>
   </g>
   <g id="patch_131">
    <path d="M 392.177972 87.035333 
L 396.528261 87.035333 
L 396.528261 76.41431 
L 392.177972 76.41431 
z
" clip-path="url(#pd82df247cb)" style="fill: #696969"/>
   </g>
   <g id="patch_132">
    <path d="M 394.896903 87.035333 
L 399.247192 87.035333 
L 399.247192 72.477206 
L 394.896903 72.477206 
z
" clip-path="url(#pd82df247cb)" style="fill: #696969"/>
   </g>
   <g id="patch_133">
    <path d="M 397.615833 87.035333 
L 401.966122 87.035333 
L 401.966122 72.751888 
L 397.615833 72.751888 
z
" clip-path="url(#pd82df247cb)" style="fill: #696969"/>
   </g>
   <g id="patch_134">
    <path d="M 400.334764 87.035333 
L 404.685053 87.035333 
L 404.685053 82.365745 
L 400.334764 82.365745 
z
" clip-path="url(#pd82df247cb)" style="fill: #696969"/>
   </g>
   <g id="patch_135">
    <path d="M 403.053695 87.035333 
L 407.403984 87.035333 
L 407.403984 78.337081 
L 403.053695 78.337081 
z
" clip-path="url(#pd82df247cb)" style="fill: #696969"/>
   </g>
   <g id="patch_136">
    <path d="M 405.772625 87.035333 
L 410.122914 87.035333 
L 410.122914 79.985171 
L 405.772625 79.985171 
z
" clip-path="url(#pd82df247cb)" style="fill: #696969"/>
   </g>
   <g id="patch_137">
    <path d="M 408.491556 87.035333 
L 412.841845 87.035333 
L 412.841845 79.161126 
L 408.491556 79.161126 
z
" clip-path="url(#pd82df247cb)" style="fill: #696969"/>
   </g>
   <g id="patch_138">
    <path d="M 411.210486 87.035333 
L 415.560775 87.035333 
L 415.560775 77.146794 
L 411.210486 77.146794 
z
" clip-path="url(#pd82df247cb)" style="fill: #696969"/>
   </g>
   <g id="patch_139">
    <path d="M 413.929417 87.035333 
L 418.279706 87.035333 
L 418.279706 81.633261 
L 413.929417 81.633261 
z
" clip-path="url(#pd82df247cb)" style="fill: #696969"/>
   </g>
   <g id="patch_140">
    <path d="M 416.648348 87.035333 
L 420.998637 87.035333 
L 420.998637 84.83788 
L 416.648348 84.83788 
z
" clip-path="url(#pd82df247cb)" style="fill: #696969"/>
   </g>
   <g id="patch_141">
    <path d="M 419.367278 87.035333 
L 423.717567 87.035333 
L 423.717567 83.922275 
L 419.367278 83.922275 
z
" clip-path="url(#pd82df247cb)" style="fill: #696969"/>
   </g>
   <g id="patch_142">
    <path d="M 422.086209 87.035333 
L 426.436498 87.035333 
L 426.436498 83.830714 
L 422.086209 83.830714 
z
" clip-path="url(#pd82df247cb)" style="fill: #696969"/>
   </g>
   <g id="patch_143">
    <path d="M 424.805139 87.035333 
L 429.155428 87.035333 
L 429.155428 81.175458 
L 424.805139 81.175458 
z
" clip-path="url(#pd82df247cb)" style="fill: #696969"/>
   </g>
   <g id="patch_144">
    <path d="M 427.52407 87.035333 
L 431.874359 87.035333 
L 431.874359 87.035333 
L 427.52407 87.035333 
z
" clip-path="url(#pd82df247cb)" style="fill: #696969"/>
   </g>
   <g id="patch_145">
    <path d="M 430.243001 87.035333 
L 434.59329 87.035333 
L 434.59329 87.035333 
L 430.243001 87.035333 
z
" clip-path="url(#pd82df247cb)" style="fill: #696969"/>
   </g>
   <g id="patch_146">
    <path d="M 432.961931 87.035333 
L 437.31222 87.035333 
L 437.31222 84.74632 
L 432.961931 84.74632 
z
" clip-path="url(#pd82df247cb)" style="fill: #696969"/>
   </g>
   <g id="matplotlib.axis_1">
    <g id="xtick_1">
     <g id="line2d_1">
      <defs>
       <path id="me116177e52" d="M 0 0 
L 0 3.5 
" style="stroke: #000000; stroke-width: 0.8"/>
      </defs>
      <g>
       <use xlink:href="#me116177e52" x="46.33" y="89.48" style="stroke: #000000; stroke-width: 0.8"/>
      </g>
     </g>
     <g id="text_1">
      <!-- 0 -->
      <g transform="translate(42.5125 105.598125) scale(0.12 -0.12)">
       <defs>
        <path id="DejaVuSans-30" d="M 2034 4250 
Q 1547 4250 1301 3770 
Q 1056 3291 1056 2328 
Q 1056 1369 1301 889 
Q 1547 409 2034 409 
Q 2525 409 2770 889 
Q 3016 1369 3016 2328 
Q 3016 3291 2770 3770 
Q 2525 4250 2034 4250 
z
M 2034 4750 
Q 2819 4750 3233 4129 
Q 3647 3509 3647 2328 
Q 3647 1150 3233 529 
Q 2819 -91 2034 -91 
Q 1250 -91 836 529 
Q 422 1150 422 2328 
Q 422 3509 836 4129 
Q 1250 4750 2034 4750 
z
" transform="scale(0.015625)"/>
       </defs>
       <use xlink:href="#DejaVuSans-30"/>
      </g>
     </g>
    </g>
    <g id="xtick_2">
     <g id="line2d_2">
      <g>
       <use xlink:href="#me116177e52" x="100.708612" y="89.48" style="stroke: #000000; stroke-width: 0.8"/>
      </g>
     </g>
     <g id="text_2">
      <!-- 10 -->
      <g transform="translate(93.073612 105.598125) scale(0.12 -0.12)">
       <defs>
        <path id="DejaVuSans-31" d="M 794 531 
L 1825 531 
L 1825 4091 
L 703 3866 
L 703 4441 
L 1819 4666 
L 2450 4666 
L 2450 531 
L 3481 531 
L 3481 0 
L 794 0 
L 794 531 
z
" transform="scale(0.015625)"/>
       </defs>
       <use xlink:href="#DejaVuSans-31"/>
       <use xlink:href="#DejaVuSans-30" x="63.623047"/>
      </g>
     </g>
    </g>
    <g id="xtick_3">
     <g id="line2d_3">
      <g>
       <use xlink:href="#me116177e52" x="155.087224" y="89.48" style="stroke: #000000; stroke-width: 0.8"/>
      </g>
     </g>
     <g id="text_3">
      <!-- 20 -->
      <g transform="translate(147.452224 105.598125) scale(0.12 -0.12)">
       <defs>
        <path id="DejaVuSans-32" d="M 1228 531 
L 3431 531 
L 3431 0 
L 469 0 
L 469 531 
Q 828 903 1448 1529 
Q 2069 2156 2228 2338 
Q 2531 2678 2651 2914 
Q 2772 3150 2772 3378 
Q 2772 3750 2511 3984 
Q 2250 4219 1831 4219 
Q 1534 4219 1204 4116 
Q 875 4013 500 3803 
L 500 4441 
Q 881 4594 1212 4672 
Q 1544 4750 1819 4750 
Q 2544 4750 2975 4387 
Q 3406 4025 3406 3419 
Q 3406 3131 3298 2873 
Q 3191 2616 2906 2266 
Q 2828 2175 2409 1742 
Q 1991 1309 1228 531 
z
" transform="scale(0.015625)"/>
       </defs>
       <use xlink:href="#DejaVuSans-32"/>
       <use xlink:href="#DejaVuSans-30" x="63.623047"/>
      </g>
     </g>
    </g>
    <g id="xtick_4">
     <g id="line2d_4">
      <g>
       <use xlink:href="#me116177e52" x="209.465836" y="89.48" style="stroke: #000000; stroke-width: 0.8"/>
      </g>
     </g>
     <g id="text_4">
      <!-- 30 -->
      <g transform="translate(201.830836 105.598125) scale(0.12 -0.12)">
       <defs>
        <path id="DejaVuSans-33" d="M 2597 2516 
Q 3050 2419 3304 2112 
Q 3559 1806 3559 1356 
Q 3559 666 3084 287 
Q 2609 -91 1734 -91 
Q 1441 -91 1130 -33 
Q 819 25 488 141 
L 488 750 
Q 750 597 1062 519 
Q 1375 441 1716 441 
Q 2309 441 2620 675 
Q 2931 909 2931 1356 
Q 2931 1769 2642 2001 
Q 2353 2234 1838 2234 
L 1294 2234 
L 1294 2753 
L 1863 2753 
Q 2328 2753 2575 2939 
Q 2822 3125 2822 3475 
Q 2822 3834 2567 4026 
Q 2313 4219 1838 4219 
Q 1578 4219 1281 4162 
Q 984 4106 628 3988 
L 628 4550 
Q 988 4650 1302 4700 
Q 1616 4750 1894 4750 
Q 2613 4750 3031 4423 
Q 3450 4097 3450 3541 
Q 3450 3153 3228 2886 
Q 3006 2619 2597 2516 
z
" transform="scale(0.015625)"/>
       </defs>
       <use xlink:href="#DejaVuSans-33"/>
       <use xlink:href="#DejaVuSans-30" x="63.623047"/>
      </g>
     </g>
    </g>
    <g id="xtick_5">
     <g id="line2d_5">
      <g>
       <use xlink:href="#me116177e52" x="263.844448" y="89.48" style="stroke: #000000; stroke-width: 0.8"/>
      </g>
     </g>
     <g id="text_5">
      <!-- 40 -->
      <g transform="translate(256.209448 105.598125) scale(0.12 -0.12)">
       <defs>
        <path id="DejaVuSans-34" d="M 2419 4116 
L 825 1625 
L 2419 1625 
L 2419 4116 
z
M 2253 4666 
L 3047 4666 
L 3047 1625 
L 3713 1625 
L 3713 1100 
L 3047 1100 
L 3047 0 
L 2419 0 
L 2419 1100 
L 313 1100 
L 313 1709 
L 2253 4666 
z
" transform="scale(0.015625)"/>
       </defs>
       <use xlink:href="#DejaVuSans-34"/>
       <use xlink:href="#DejaVuSans-30" x="63.623047"/>
      </g>
     </g>
    </g>
    <g id="xtick_6">
     <g id="line2d_6">
      <g>
       <use xlink:href="#me116177e52" x="318.22306" y="89.48" style="stroke: #000000; stroke-width: 0.8"/>
      </g>
     </g>
     <g id="text_6">
      <!-- 50 -->
      <g transform="translate(310.58806 105.598125) scale(0.12 -0.12)">
       <defs>
        <path id="DejaVuSans-35" d="M 691 4666 
L 3169 4666 
L 3169 4134 
L 1269 4134 
L 1269 2991 
Q 1406 3038 1543 3061 
Q 1681 3084 1819 3084 
Q 2600 3084 3056 2656 
Q 3513 2228 3513 1497 
Q 3513 744 3044 326 
Q 2575 -91 1722 -91 
Q 1428 -91 1123 -41 
Q 819 9 494 109 
L 494 744 
Q 775 591 1075 516 
Q 1375 441 1709 441 
Q 2250 441 2565 725 
Q 2881 1009 2881 1497 
Q 2881 1984 2565 2268 
Q 2250 2553 1709 2553 
Q 1456 2553 1204 2497 
Q 953 2441 691 2322 
L 691 4666 
z
" transform="scale(0.015625)"/>
       </defs>
       <use xlink:href="#DejaVuSans-35"/>
       <use xlink:href="#DejaVuSans-30" x="63.623047"/>
      </g>
     </g>
    </g>
    <g id="xtick_7">
     <g id="line2d_7">
      <g>
       <use xlink:href="#me116177e52" x="372.601672" y="89.48" style="stroke: #000000; stroke-width: 0.8"/>
      </g>
     </g>
     <g id="text_7">
      <!-- 60 -->
      <g transform="translate(364.966672 105.598125) scale(0.12 -0.12)">
       <defs>
        <path id="DejaVuSans-36" d="M 2113 2584 
Q 1688 2584 1439 2293 
Q 1191 2003 1191 1497 
Q 1191 994 1439 701 
Q 1688 409 2113 409 
Q 2538 409 2786 701 
Q 3034 994 3034 1497 
Q 3034 2003 2786 2293 
Q 2538 2584 2113 2584 
z
M 3366 4563 
L 3366 3988 
Q 3128 4100 2886 4159 
Q 2644 4219 2406 4219 
Q 1781 4219 1451 3797 
Q 1122 3375 1075 2522 
Q 1259 2794 1537 2939 
Q 1816 3084 2150 3084 
Q 2853 3084 3261 2657 
Q 3669 2231 3669 1497 
Q 3669 778 3244 343 
Q 2819 -91 2113 -91 
Q 1303 -91 875 529 
Q 447 1150 447 2328 
Q 447 3434 972 4092 
Q 1497 4750 2381 4750 
Q 2619 4750 2861 4703 
Q 3103 4656 3366 4563 
z
" transform="scale(0.015625)"/>
       </defs>
       <use xlink:href="#DejaVuSans-36"/>
       <use xlink:href="#DejaVuSans-30" x="63.623047"/>
      </g>
     </g>
    </g>
    <g id="xtick_8">
     <g id="line2d_8">
      <g>
       <use xlink:href="#me116177e52" x="426.980284" y="89.48" style="stroke: #000000; stroke-width: 0.8"/>
      </g>
     </g>
     <g id="text_8">
      <!-- 70 -->
      <g transform="translate(419.345284 105.598125) scale(0.12 -0.12)">
       <defs>
        <path id="DejaVuSans-37" d="M 525 4666 
L 3525 4666 
L 3525 4397 
L 1831 0 
L 1172 0 
L 2766 4134 
L 525 4134 
L 525 4666 
z
" transform="scale(0.015625)"/>
       </defs>
       <use xlink:href="#DejaVuSans-37"/>
       <use xlink:href="#DejaVuSans-30" x="63.623047"/>
      </g>
     </g>
    </g>
   </g>
   <g id="matplotlib.axis_2">
    <g id="ytick_1">
     <g id="line2d_9">
      <defs>
       <path id="m2ecbfd8605" d="M 0 0 
L -3.5 0 
" style="stroke: #000000; stroke-width: 0.8"/>
      </defs>
      <g>
       <use xlink:href="#m2ecbfd8605" x="46.33" y="87.035333" style="stroke: #000000; stroke-width: 0.8"/>
      </g>
     </g>
     <g id="text_9">
      <!-- 0.0 -->
      <g transform="translate(20.24625 91.594396) scale(0.12 -0.12)">
       <defs>
        <path id="DejaVuSans-2e" d="M 684 794 
L 1344 794 
L 1344 0 
L 684 0 
L 684 794 
z
" transform="scale(0.015625)"/>
       </defs>
       <use xlink:href="#DejaVuSans-30"/>
       <use xlink:href="#DejaVuSans-2e" x="63.623047"/>
       <use xlink:href="#DejaVuSans-30" x="95.410156"/>
      </g>
     </g>
    </g>
    <g id="ytick_2">
     <g id="line2d_10">
      <g>
       <use xlink:href="#m2ecbfd8605" x="46.33" y="64.145196" style="stroke: #000000; stroke-width: 0.8"/>
      </g>
     </g>
     <g id="text_10">
      <!-- 2.5 -->
      <g transform="translate(20.24625 68.704259) scale(0.12 -0.12)">
       <use xlink:href="#DejaVuSans-32"/>
       <use xlink:href="#DejaVuSans-2e" x="63.623047"/>
       <use xlink:href="#DejaVuSans-35" x="95.410156"/>
      </g>
     </g>
    </g>
    <g id="text_11">
     <!-- 1e2 -->
     <g transform="translate(46.33 57.144) scale(0.1 -0.1)">
      <defs>
       <path id="DejaVuSans-65" d="M 3597 1894 
L 3597 1613 
L 953 1613 
Q 991 1019 1311 708 
Q 1631 397 2203 397 
Q 2534 397 2845 478 
Q 3156 559 3463 722 
L 3463 178 
Q 3153 47 2828 -22 
Q 2503 -91 2169 -91 
Q 1331 -91 842 396 
Q 353 884 353 1716 
Q 353 2575 817 3079 
Q 1281 3584 2069 3584 
Q 2775 3584 3186 3129 
Q 3597 2675 3597 1894 
z
M 3022 2063 
Q 3016 2534 2758 2815 
Q 2500 3097 2075 3097 
Q 1594 3097 1305 2825 
Q 1016 2553 972 2059 
L 3022 2063 
z
" transform="scale(0.015625)"/>
      </defs>
      <use xlink:href="#DejaVuSans-31"/>
      <use xlink:href="#DejaVuSans-65" x="63.623047"/>
      <use xlink:href="#DejaVuSans-32" x="125.146484"/>
     </g>
    </g>
   </g>
   <g id="line2d_11">
    <path d="M 46.33 81.60716 
L 54.486792 83.416193 
L 59.924653 84.426377 
L 65.362514 85.188011 
L 70.800375 85.643012 
L 76.238237 85.756682 
L 81.676098 85.520353 
L 87.113959 84.952047 
L 92.55182 84.095104 
L 97.989681 83.014872 
L 108.865404 80.524802 
L 117.022196 78.742667 
L 122.460057 77.767502 
L 127.897918 77.05159 
L 133.335779 76.649525 
L 138.77364 76.591968 
L 144.211502 76.883309 
L 149.649363 77.50133 
L 155.087224 78.398901 
L 160.525085 79.507575 
L 182.27653 84.260871 
L 187.714391 85.072148 
L 193.152252 85.585628 
L 198.590114 85.762154 
L 204.027975 85.588263 
L 209.465836 85.077217 
L 214.903697 84.267987 
L 220.341558 83.222285 
L 228.49835 81.388244 
L 239.374073 78.94025 
L 244.811934 77.925826 
L 250.249795 77.15858 
L 255.687656 76.697023 
L 261.125517 76.576352 
L 266.563379 76.80577 
L 272.00124 77.36778 
L 277.439101 78.219526 
L 282.876962 79.296052 
L 293.752685 81.784185 
L 301.909476 83.569874 
L 307.347338 84.549523 
L 312.785199 85.271229 
L 318.22306 85.679956 
L 323.660921 85.744536 
L 329.098782 85.460042 
L 334.536643 84.848171 
L 339.974505 83.955583 
L 345.412366 82.850347 
L 367.163811 78.092208 
L 372.601672 77.275537 
L 378.039533 76.755635 
L 383.477394 76.572149 
L 388.915255 76.739073 
L 394.353117 77.243676 
L 399.790978 78.047478 
L 405.228839 79.089182 
L 413.385631 80.920535 
L 424.261353 83.371652 
L 429.699214 84.390284 
L 435.137076 85.163118 
L 435.137076 85.163118 
" clip-path="url(#pd82df247cb)" style="fill: none; stroke: #191970; stroke-width: 3; stroke-linecap: square"/>
   </g>
   <g id="line2d_12">
    <path d="M 136.945343 89.48 
L 136.945343 60.144 
" clip-path="url(#pd82df247cb)" style="fill: none; stroke-dasharray: 7.4,3.2; stroke-dashoffset: 0; stroke: #000000; stroke-opacity: 0.8; stroke-width: 2"/>
   </g>
   <g id="patch_147">
    <path d="M 46.33 89.48 
L 46.33 60.144 
" style="fill: none; stroke: #000000; stroke-width: 0.8; stroke-linejoin: miter; stroke-linecap: square"/>
   </g>
   <g id="patch_148">
    <path d="M 46.33 89.48 
L 435.137076 89.48 
" style="fill: none; stroke: #000000; stroke-width: 0.8; stroke-linejoin: miter; stroke-linecap: square"/>
   </g>
   <g id="text_12">
    <!-- 1 -->
    <g transform="translate(237.552288 42.946187) scale(0.1 -0.1)">
     <use xlink:href="#DejaVuSans-31"/>
    </g>
    <!-- (AC: 16.66, PR: 22.68) -->
    <g transform="translate(185.321819 54.144) scale(0.1 -0.1)">
     <defs>
      <path id="DejaVuSans-28" d="M 1984 4856 
Q 1566 4138 1362 3434 
Q 1159 2731 1159 2009 
Q 1159 1288 1364 580 
Q 1569 -128 1984 -844 
L 1484 -844 
Q 1016 -109 783 600 
Q 550 1309 550 2009 
Q 550 2706 781 3412 
Q 1013 4119 1484 4856 
L 1984 4856 
z
" transform="scale(0.015625)"/>
      <path id="DejaVuSans-41" d="M 2188 4044 
L 1331 1722 
L 3047 1722 
L 2188 4044 
z
M 1831 4666 
L 2547 4666 
L 4325 0 
L 3669 0 
L 3244 1197 
L 1141 1197 
L 716 0 
L 50 0 
L 1831 4666 
z
" transform="scale(0.015625)"/>
      <path id="DejaVuSans-43" d="M 4122 4306 
L 4122 3641 
Q 3803 3938 3442 4084 
Q 3081 4231 2675 4231 
Q 1875 4231 1450 3742 
Q 1025 3253 1025 2328 
Q 1025 1406 1450 917 
Q 1875 428 2675 428 
Q 3081 428 3442 575 
Q 3803 722 4122 1019 
L 4122 359 
Q 3791 134 3420 21 
Q 3050 -91 2638 -91 
Q 1578 -91 968 557 
Q 359 1206 359 2328 
Q 359 3453 968 4101 
Q 1578 4750 2638 4750 
Q 3056 4750 3426 4639 
Q 3797 4528 4122 4306 
z
" transform="scale(0.015625)"/>
      <path id="DejaVuSans-3a" d="M 750 794 
L 1409 794 
L 1409 0 
L 750 0 
L 750 794 
z
M 750 3309 
L 1409 3309 
L 1409 2516 
L 750 2516 
L 750 3309 
z
" transform="scale(0.015625)"/>
      <path id="DejaVuSans-20" transform="scale(0.015625)"/>
      <path id="DejaVuSans-2c" d="M 750 794 
L 1409 794 
L 1409 256 
L 897 -744 
L 494 -744 
L 750 256 
L 750 794 
z
" transform="scale(0.015625)"/>
      <path id="DejaVuSans-50" d="M 1259 4147 
L 1259 2394 
L 2053 2394 
Q 2494 2394 2734 2622 
Q 2975 2850 2975 3272 
Q 2975 3691 2734 3919 
Q 2494 4147 2053 4147 
L 1259 4147 
z
M 628 4666 
L 2053 4666 
Q 2838 4666 3239 4311 
Q 3641 3956 3641 3272 
Q 3641 2581 3239 2228 
Q 2838 1875 2053 1875 
L 1259 1875 
L 1259 0 
L 628 0 
L 628 4666 
z
" transform="scale(0.015625)"/>
      <path id="DejaVuSans-52" d="M 2841 2188 
Q 3044 2119 3236 1894 
Q 3428 1669 3622 1275 
L 4263 0 
L 3584 0 
L 2988 1197 
Q 2756 1666 2539 1819 
Q 2322 1972 1947 1972 
L 1259 1972 
L 1259 0 
L 628 0 
L 628 4666 
L 2053 4666 
Q 2853 4666 3247 4331 
Q 3641 3997 3641 3322 
Q 3641 2881 3436 2590 
Q 3231 2300 2841 2188 
z
M 1259 4147 
L 1259 2491 
L 2053 2491 
Q 2509 2491 2742 2702 
Q 2975 2913 2975 3322 
Q 2975 3731 2742 3939 
Q 2509 4147 2053 4147 
L 1259 4147 
z
" transform="scale(0.015625)"/>
      <path id="DejaVuSans-38" d="M 2034 2216 
Q 1584 2216 1326 1975 
Q 1069 1734 1069 1313 
Q 1069 891 1326 650 
Q 1584 409 2034 409 
Q 2484 409 2743 651 
Q 3003 894 3003 1313 
Q 3003 1734 2745 1975 
Q 2488 2216 2034 2216 
z
M 1403 2484 
Q 997 2584 770 2862 
Q 544 3141 544 3541 
Q 544 4100 942 4425 
Q 1341 4750 2034 4750 
Q 2731 4750 3128 4425 
Q 3525 4100 3525 3541 
Q 3525 3141 3298 2862 
Q 3072 2584 2669 2484 
Q 3125 2378 3379 2068 
Q 3634 1759 3634 1313 
Q 3634 634 3220 271 
Q 2806 -91 2034 -91 
Q 1263 -91 848 271 
Q 434 634 434 1313 
Q 434 1759 690 2068 
Q 947 2378 1403 2484 
z
M 1172 3481 
Q 1172 3119 1398 2916 
Q 1625 2713 2034 2713 
Q 2441 2713 2670 2916 
Q 2900 3119 2900 3481 
Q 2900 3844 2670 4047 
Q 2441 4250 2034 4250 
Q 1625 4250 1398 4047 
Q 1172 3844 1172 3481 
z
" transform="scale(0.015625)"/>
      <path id="DejaVuSans-29" d="M 513 4856 
L 1013 4856 
Q 1481 4119 1714 3412 
Q 1947 2706 1947 2009 
Q 1947 1309 1714 600 
Q 1481 -109 1013 -844 
L 513 -844 
Q 928 -128 1133 580 
Q 1338 1288 1338 2009 
Q 1338 2731 1133 3434 
Q 928 4138 513 4856 
z
" transform="scale(0.015625)"/>
     </defs>
     <use xlink:href="#DejaVuSans-28"/>
     <use xlink:href="#DejaVuSans-41" x="39.013672"/>
     <use xlink:href="#DejaVuSans-43" x="105.671875"/>
     <use xlink:href="#DejaVuSans-3a" x="175.496094"/>
     <use xlink:href="#DejaVuSans-20" x="209.1875"/>
     <use xlink:href="#DejaVuSans-31" x="240.974609"/>
     <use xlink:href="#DejaVuSans-36" x="304.597656"/>
     <use xlink:href="#DejaVuSans-2e" x="368.220703"/>
     <use xlink:href="#DejaVuSans-36" x="400.007812"/>
     <use xlink:href="#DejaVuSans-36" x="463.630859"/>
     <use xlink:href="#DejaVuSans-2c" x="527.253906"/>
     <use xlink:href="#DejaVuSans-20" x="559.041016"/>
     <use xlink:href="#DejaVuSans-50" x="590.828125"/>
     <use xlink:href="#DejaVuSans-52" x="651.130859"/>
     <use xlink:href="#DejaVuSans-3a" x="717.488281"/>
     <use xlink:href="#DejaVuSans-20" x="751.179688"/>
     <use xlink:href="#DejaVuSans-32" x="782.966797"/>
     <use xlink:href="#DejaVuSans-32" x="846.589844"/>
     <use xlink:href="#DejaVuSans-2e" x="910.212891"/>
     <use xlink:href="#DejaVuSans-36" x="942"/>
     <use xlink:href="#DejaVuSans-38" x="1005.623047"/>
     <use xlink:href="#DejaVuSans-29" x="1069.246094"/>
    </g>
   </g>
  </g>
  <g id="axes_2">
   <g id="patch_149">
    <path d="M 450.712924 89.48 
L 839.52 89.48 
L 839.52 60.144 
L 450.712924 60.144 
z
" style="fill: #ffffff"/>
   </g>
   <g id="patch_150">
    <path d="M 448.53778 87.035333 
L 452.888069 87.035333 
L 452.888069 83.09823 
L 448.53778 83.09823 
z
" clip-path="url(#p15300806c2)" style="fill: #696969"/>
   </g>
   <g id="patch_151">
    <path d="M 451.25671 87.035333 
L 455.606999 87.035333 
L 455.606999 87.035333 
L 451.25671 87.035333 
z
" clip-path="url(#p15300806c2)" style="fill: #696969"/>
   </g>
   <g id="patch_152">
    <path d="M 453.975641 87.035333 
L 458.32593 87.035333 
L 458.32593 81.633261 
L 453.975641 81.633261 
z
" clip-path="url(#p15300806c2)" style="fill: #696969"/>
   </g>
   <g id="patch_153">
    <path d="M 456.694572 87.035333 
L 461.044861 87.035333 
L 461.044861 87.035333 
L 456.694572 87.035333 
z
" clip-path="url(#p15300806c2)" style="fill: #696969"/>
   </g>
   <g id="patch_154">
    <path d="M 459.413502 87.035333 
L 463.763791 87.035333 
L 463.763791 87.035333 
L 459.413502 87.035333 
z
" clip-path="url(#p15300806c2)" style="fill: #696969"/>
   </g>
   <g id="patch_155">
    <path d="M 462.132433 87.035333 
L 466.482722 87.035333 
L 466.482722 87.035333 
L 462.132433 87.035333 
z
" clip-path="url(#p15300806c2)" style="fill: #696969"/>
   </g>
   <g id="patch_156">
    <path d="M 464.851363 87.035333 
L 469.201652 87.035333 
L 469.201652 86.760652 
L 464.851363 86.760652 
z
" clip-path="url(#p15300806c2)" style="fill: #696969"/>
   </g>
   <g id="patch_157">
    <path d="M 467.570294 87.035333 
L 471.920583 87.035333 
L 471.920583 87.035333 
L 467.570294 87.035333 
z
" clip-path="url(#p15300806c2)" style="fill: #696969"/>
   </g>
   <g id="patch_158">
    <path d="M 470.289225 87.035333 
L 474.639514 87.035333 
L 474.639514 78.794884 
L 470.289225 78.794884 
z
" clip-path="url(#p15300806c2)" style="fill: #696969"/>
   </g>
   <g id="patch_159">
    <path d="M 473.008155 87.035333 
L 477.358444 87.035333 
L 477.358444 79.252687 
L 473.008155 79.252687 
z
" clip-path="url(#p15300806c2)" style="fill: #696969"/>
   </g>
   <g id="patch_160">
    <path d="M 475.727086 87.035333 
L 480.077375 87.035333 
L 480.077375 86.302849 
L 475.727086 86.302849 
z
" clip-path="url(#p15300806c2)" style="fill: #696969"/>
   </g>
   <g id="patch_161">
    <path d="M 478.446016 87.035333 
L 482.796305 87.035333 
L 482.796305 84.105396 
L 478.446016 84.105396 
z
" clip-path="url(#p15300806c2)" style="fill: #696969"/>
   </g>
   <g id="patch_162">
    <path d="M 481.164947 87.035333 
L 485.515236 87.035333 
L 485.515236 80.626095 
L 481.164947 80.626095 
z
" clip-path="url(#p15300806c2)" style="fill: #696969"/>
   </g>
   <g id="patch_163">
    <path d="M 483.883878 87.035333 
L 488.234167 87.035333 
L 488.234167 86.48597 
L 483.883878 86.48597 
z
" clip-path="url(#p15300806c2)" style="fill: #696969"/>
   </g>
   <g id="patch_164">
    <path d="M 486.602808 87.035333 
L 490.953097 87.035333 
L 490.953097 79.435808 
L 486.602808 79.435808 
z
" clip-path="url(#p15300806c2)" style="fill: #696969"/>
   </g>
   <g id="patch_165">
    <path d="M 489.321739 87.035333 
L 493.672028 87.035333 
L 493.672028 74.583099 
L 489.321739 74.583099 
z
" clip-path="url(#p15300806c2)" style="fill: #696969"/>
   </g>
   <g id="patch_166">
    <path d="M 492.040669 87.035333 
L 496.390958 87.035333 
L 496.390958 81.175458 
L 492.040669 81.175458 
z
" clip-path="url(#p15300806c2)" style="fill: #696969"/>
   </g>
   <g id="patch_167">
    <path d="M 494.7596 87.035333 
L 499.109889 87.035333 
L 499.109889 78.428642 
L 494.7596 78.428642 
z
" clip-path="url(#p15300806c2)" style="fill: #696969"/>
   </g>
   <g id="patch_168">
    <path d="M 497.478531 87.035333 
L 501.82882 87.035333 
L 501.82882 73.026569 
L 497.478531 73.026569 
z
" clip-path="url(#p15300806c2)" style="fill: #696969"/>
   </g>
   <g id="patch_169">
    <path d="M 500.197461 87.035333 
L 504.54775 87.035333 
L 504.54775 79.710489 
L 500.197461 79.710489 
z
" clip-path="url(#p15300806c2)" style="fill: #696969"/>
   </g>
   <g id="patch_170">
    <path d="M 502.916392 87.035333 
L 507.266681 87.035333 
L 507.266681 76.597431 
L 502.916392 76.597431 
z
" clip-path="url(#p15300806c2)" style="fill: #696969"/>
   </g>
   <g id="patch_171">
    <path d="M 505.635322 87.035333 
L 509.985611 87.035333 
L 509.985611 77.146794 
L 505.635322 77.146794 
z
" clip-path="url(#p15300806c2)" style="fill: #696969"/>
   </g>
   <g id="patch_172">
    <path d="M 508.354253 87.035333 
L 512.704542 87.035333 
L 512.704542 76.139628 
L 508.354253 76.139628 
z
" clip-path="url(#p15300806c2)" style="fill: #696969"/>
   </g>
   <g id="patch_173">
    <path d="M 511.073184 87.035333 
L 515.423473 87.035333 
L 515.423473 87.035333 
L 511.073184 87.035333 
z
" clip-path="url(#p15300806c2)" style="fill: #696969"/>
   </g>
   <g id="patch_174">
    <path d="M 513.792114 87.035333 
L 518.142403 87.035333 
L 518.142403 74.308417 
L 513.792114 74.308417 
z
" clip-path="url(#p15300806c2)" style="fill: #696969"/>
   </g>
   <g id="patch_175">
    <path d="M 516.511045 87.035333 
L 520.861334 87.035333 
L 520.861334 81.083898 
L 516.511045 81.083898 
z
" clip-path="url(#p15300806c2)" style="fill: #696969"/>
   </g>
   <g id="patch_176">
    <path d="M 519.229975 87.035333 
L 523.580264 87.035333 
L 523.580264 87.035333 
L 519.229975 87.035333 
z
" clip-path="url(#p15300806c2)" style="fill: #696969"/>
   </g>
   <g id="patch_177">
    <path d="M 521.948906 87.035333 
L 526.299195 87.035333 
L 526.299195 77.604597 
L 521.948906 77.604597 
z
" clip-path="url(#p15300806c2)" style="fill: #696969"/>
   </g>
   <g id="patch_178">
    <path d="M 524.667837 87.035333 
L 529.018126 87.035333 
L 529.018126 66.800452 
L 524.667837 66.800452 
z
" clip-path="url(#p15300806c2)" style="fill: #696969"/>
   </g>
   <g id="patch_179">
    <path d="M 527.386767 87.035333 
L 531.737056 87.035333 
L 531.737056 83.922275 
L 527.386767 83.922275 
z
" clip-path="url(#p15300806c2)" style="fill: #696969"/>
   </g>
   <g id="patch_180">
    <path d="M 530.105698 87.035333 
L 534.455987 87.035333 
L 534.455987 79.985171 
L 530.105698 79.985171 
z
" clip-path="url(#p15300806c2)" style="fill: #696969"/>
   </g>
   <g id="patch_181">
    <path d="M 532.824628 87.035333 
L 537.174917 87.035333 
L 537.174917 82.274185 
L 532.824628 82.274185 
z
" clip-path="url(#p15300806c2)" style="fill: #696969"/>
   </g>
   <g id="patch_182">
    <path d="M 535.543559 87.035333 
L 539.893848 87.035333 
L 539.893848 79.161126 
L 535.543559 79.161126 
z
" clip-path="url(#p15300806c2)" style="fill: #696969"/>
   </g>
   <g id="patch_183">
    <path d="M 538.26249 87.035333 
L 542.612779 87.035333 
L 542.612779 84.83788 
L 538.26249 84.83788 
z
" clip-path="url(#p15300806c2)" style="fill: #696969"/>
   </g>
   <g id="patch_184">
    <path d="M 540.98142 87.035333 
L 545.331709 87.035333 
L 545.331709 79.527368 
L 540.98142 79.527368 
z
" clip-path="url(#p15300806c2)" style="fill: #696969"/>
   </g>
   <g id="patch_185">
    <path d="M 543.700351 87.035333 
L 548.05064 87.035333 
L 548.05064 74.949341 
L 543.700351 74.949341 
z
" clip-path="url(#p15300806c2)" style="fill: #696969"/>
   </g>
   <g id="patch_186">
    <path d="M 546.419281 87.035333 
L 550.76957 87.035333 
L 550.76957 81.724821 
L 546.419281 81.724821 
z
" clip-path="url(#p15300806c2)" style="fill: #696969"/>
   </g>
   <g id="patch_187">
    <path d="M 549.138212 87.035333 
L 553.488501 87.035333 
L 553.488501 83.922275 
L 549.138212 83.922275 
z
" clip-path="url(#p15300806c2)" style="fill: #696969"/>
   </g>
   <g id="patch_188">
    <path d="M 551.857143 87.035333 
L 556.207432 87.035333 
L 556.207432 86.028167 
L 551.857143 86.028167 
z
" clip-path="url(#p15300806c2)" style="fill: #696969"/>
   </g>
   <g id="patch_189">
    <path d="M 554.576073 87.035333 
L 558.926362 87.035333 
L 558.926362 77.879278 
L 554.576073 77.879278 
z
" clip-path="url(#p15300806c2)" style="fill: #696969"/>
   </g>
   <g id="patch_190">
    <path d="M 557.295004 87.035333 
L 561.645293 87.035333 
L 561.645293 80.076732 
L 557.295004 80.076732 
z
" clip-path="url(#p15300806c2)" style="fill: #696969"/>
   </g>
   <g id="patch_191">
    <path d="M 560.013934 87.035333 
L 564.364223 87.035333 
L 564.364223 87.035333 
L 560.013934 87.035333 
z
" clip-path="url(#p15300806c2)" style="fill: #696969"/>
   </g>
   <g id="patch_192">
    <path d="M 562.732865 87.035333 
L 567.083154 87.035333 
L 567.083154 87.035333 
L 562.732865 87.035333 
z
" clip-path="url(#p15300806c2)" style="fill: #696969"/>
   </g>
   <g id="patch_193">
    <path d="M 565.451796 87.035333 
L 569.802085 87.035333 
L 569.802085 82.274185 
L 565.451796 82.274185 
z
" clip-path="url(#p15300806c2)" style="fill: #696969"/>
   </g>
   <g id="patch_194">
    <path d="M 568.170726 87.035333 
L 572.521015 87.035333 
L 572.521015 87.035333 
L 568.170726 87.035333 
z
" clip-path="url(#p15300806c2)" style="fill: #696969"/>
   </g>
   <g id="patch_195">
    <path d="M 570.889657 87.035333 
L 575.239946 87.035333 
L 575.239946 87.035333 
L 570.889657 87.035333 
z
" clip-path="url(#p15300806c2)" style="fill: #696969"/>
   </g>
   <g id="patch_196">
    <path d="M 573.608587 87.035333 
L 577.958876 87.035333 
L 577.958876 78.886444 
L 573.608587 78.886444 
z
" clip-path="url(#p15300806c2)" style="fill: #696969"/>
   </g>
   <g id="patch_197">
    <path d="M 576.327518 87.035333 
L 580.677807 87.035333 
L 580.677807 85.570365 
L 576.327518 85.570365 
z
" clip-path="url(#p15300806c2)" style="fill: #696969"/>
   </g>
   <g id="patch_198">
    <path d="M 579.046449 87.035333 
L 583.396738 87.035333 
L 583.396738 86.028167 
L 579.046449 86.028167 
z
" clip-path="url(#p15300806c2)" style="fill: #696969"/>
   </g>
   <g id="patch_199">
    <path d="M 581.765379 87.035333 
L 586.115668 87.035333 
L 586.115668 87.035333 
L 581.765379 87.035333 
z
" clip-path="url(#p15300806c2)" style="fill: #696969"/>
   </g>
   <g id="patch_200">
    <path d="M 584.48431 87.035333 
L 588.834599 87.035333 
L 588.834599 78.886444 
L 584.48431 78.886444 
z
" clip-path="url(#p15300806c2)" style="fill: #696969"/>
   </g>
   <g id="patch_201">
    <path d="M 587.20324 87.035333 
L 591.553529 87.035333 
L 591.553529 87.035333 
L 587.20324 87.035333 
z
" clip-path="url(#p15300806c2)" style="fill: #696969"/>
   </g>
   <g id="patch_202">
    <path d="M 589.922171 87.035333 
L 594.27246 87.035333 
L 594.27246 84.563199 
L 589.922171 84.563199 
z
" clip-path="url(#p15300806c2)" style="fill: #696969"/>
   </g>
   <g id="patch_203">
    <path d="M 592.641102 87.035333 
L 596.991391 87.035333 
L 596.991391 85.204122 
L 592.641102 85.204122 
z
" clip-path="url(#p15300806c2)" style="fill: #696969"/>
   </g>
   <g id="patch_204">
    <path d="M 595.360032 87.035333 
L 599.710321 87.035333 
L 599.710321 87.035333 
L 595.360032 87.035333 
z
" clip-path="url(#p15300806c2)" style="fill: #696969"/>
   </g>
   <g id="patch_205">
    <path d="M 598.078963 87.035333 
L 602.429252 87.035333 
L 602.429252 84.83788 
L 598.078963 84.83788 
z
" clip-path="url(#p15300806c2)" style="fill: #696969"/>
   </g>
   <g id="patch_206">
    <path d="M 600.797893 87.035333 
L 605.148182 87.035333 
L 605.148182 87.035333 
L 600.797893 87.035333 
z
" clip-path="url(#p15300806c2)" style="fill: #696969"/>
   </g>
   <g id="patch_207">
    <path d="M 603.516824 87.035333 
L 607.867113 87.035333 
L 607.867113 79.435808 
L 603.516824 79.435808 
z
" clip-path="url(#p15300806c2)" style="fill: #696969"/>
   </g>
   <g id="patch_208">
    <path d="M 606.235755 87.035333 
L 610.586044 87.035333 
L 610.586044 87.035333 
L 606.235755 87.035333 
z
" clip-path="url(#p15300806c2)" style="fill: #696969"/>
   </g>
   <g id="patch_209">
    <path d="M 608.954685 87.035333 
L 613.304974 87.035333 
L 613.304974 81.45014 
L 608.954685 81.45014 
z
" clip-path="url(#p15300806c2)" style="fill: #696969"/>
   </g>
   <g id="patch_210">
    <path d="M 611.673616 87.035333 
L 616.023905 87.035333 
L 616.023905 85.845046 
L 611.673616 85.845046 
z
" clip-path="url(#p15300806c2)" style="fill: #696969"/>
   </g>
   <g id="patch_211">
    <path d="M 614.392546 87.035333 
L 618.742835 87.035333 
L 618.742835 85.387243 
L 614.392546 85.387243 
z
" clip-path="url(#p15300806c2)" style="fill: #696969"/>
   </g>
   <g id="patch_212">
    <path d="M 617.111477 87.035333 
L 621.461766 87.035333 
L 621.461766 81.907943 
L 617.111477 81.907943 
z
" clip-path="url(#p15300806c2)" style="fill: #696969"/>
   </g>
   <g id="patch_213">
    <path d="M 619.830408 87.035333 
L 624.180697 87.035333 
L 624.180697 75.040901 
L 619.830408 75.040901 
z
" clip-path="url(#p15300806c2)" style="fill: #696969"/>
   </g>
   <g id="patch_214">
    <path d="M 622.549338 87.035333 
L 626.899627 87.035333 
L 626.899627 79.069566 
L 622.549338 79.069566 
z
" clip-path="url(#p15300806c2)" style="fill: #696969"/>
   </g>
   <g id="patch_215">
    <path d="M 625.268269 87.035333 
L 629.618558 87.035333 
L 629.618558 81.45014 
L 625.268269 81.45014 
z
" clip-path="url(#p15300806c2)" style="fill: #696969"/>
   </g>
   <g id="patch_216">
    <path d="M 627.987199 87.035333 
L 632.337488 87.035333 
L 632.337488 78.794884 
L 627.987199 78.794884 
z
" clip-path="url(#p15300806c2)" style="fill: #696969"/>
   </g>
   <g id="patch_217">
    <path d="M 630.70613 87.035333 
L 635.056419 87.035333 
L 635.056419 81.907943 
L 630.70613 81.907943 
z
" clip-path="url(#p15300806c2)" style="fill: #696969"/>
   </g>
   <g id="patch_218">
    <path d="M 633.425061 87.035333 
L 637.77535 87.035333 
L 637.77535 75.407144 
L 633.425061 75.407144 
z
" clip-path="url(#p15300806c2)" style="fill: #696969"/>
   </g>
   <g id="patch_219">
    <path d="M 636.143991 87.035333 
L 640.49428 87.035333 
L 640.49428 62.588667 
L 636.143991 62.588667 
z
" clip-path="url(#p15300806c2)" style="fill: #696969"/>
   </g>
   <g id="patch_220">
    <path d="M 638.862922 87.035333 
L 643.213211 87.035333 
L 643.213211 79.161126 
L 638.862922 79.161126 
z
" clip-path="url(#p15300806c2)" style="fill: #696969"/>
   </g>
   <g id="patch_221">
    <path d="M 641.581852 87.035333 
L 645.932141 87.035333 
L 645.932141 82.823548 
L 641.581852 82.823548 
z
" clip-path="url(#p15300806c2)" style="fill: #696969"/>
   </g>
   <g id="patch_222">
    <path d="M 644.300783 87.035333 
L 648.651072 87.035333 
L 648.651072 79.985171 
L 644.300783 79.985171 
z
" clip-path="url(#p15300806c2)" style="fill: #696969"/>
   </g>
   <g id="patch_223">
    <path d="M 647.019714 87.035333 
L 651.370003 87.035333 
L 651.370003 87.035333 
L 647.019714 87.035333 
z
" clip-path="url(#p15300806c2)" style="fill: #696969"/>
   </g>
   <g id="patch_224">
    <path d="M 649.738644 87.035333 
L 654.088933 87.035333 
L 654.088933 78.0624 
L 649.738644 78.0624 
z
" clip-path="url(#p15300806c2)" style="fill: #696969"/>
   </g>
   <g id="patch_225">
    <path d="M 652.457575 87.035333 
L 656.807864 87.035333 
L 656.807864 81.724821 
L 652.457575 81.724821 
z
" clip-path="url(#p15300806c2)" style="fill: #696969"/>
   </g>
   <g id="patch_226">
    <path d="M 655.176505 87.035333 
L 659.526794 87.035333 
L 659.526794 76.597431 
L 655.176505 76.597431 
z
" clip-path="url(#p15300806c2)" style="fill: #696969"/>
   </g>
   <g id="patch_227">
    <path d="M 657.895436 87.035333 
L 662.245725 87.035333 
L 662.245725 75.498704 
L 657.895436 75.498704 
z
" clip-path="url(#p15300806c2)" style="fill: #696969"/>
   </g>
   <g id="patch_228">
    <path d="M 660.614367 87.035333 
L 664.964656 87.035333 
L 664.964656 87.035333 
L 660.614367 87.035333 
z
" clip-path="url(#p15300806c2)" style="fill: #696969"/>
   </g>
   <g id="patch_229">
    <path d="M 663.333297 87.035333 
L 667.683586 87.035333 
L 667.683586 76.597431 
L 663.333297 76.597431 
z
" clip-path="url(#p15300806c2)" style="fill: #696969"/>
   </g>
   <g id="patch_230">
    <path d="M 666.052228 87.035333 
L 670.402517 87.035333 
L 670.402517 77.329915 
L 666.052228 77.329915 
z
" clip-path="url(#p15300806c2)" style="fill: #696969"/>
   </g>
   <g id="patch_231">
    <path d="M 668.771158 87.035333 
L 673.121447 87.035333 
L 673.121447 75.773386 
L 668.771158 75.773386 
z
" clip-path="url(#p15300806c2)" style="fill: #696969"/>
   </g>
   <g id="patch_232">
    <path d="M 671.490089 87.035333 
L 675.840378 87.035333 
L 675.840378 85.112562 
L 671.490089 85.112562 
z
" clip-path="url(#p15300806c2)" style="fill: #696969"/>
   </g>
   <g id="patch_233">
    <path d="M 674.20902 87.035333 
L 678.559309 87.035333 
L 678.559309 81.45014 
L 674.20902 81.45014 
z
" clip-path="url(#p15300806c2)" style="fill: #696969"/>
   </g>
   <g id="patch_234">
    <path d="M 676.92795 87.035333 
L 681.278239 87.035333 
L 681.278239 80.259853 
L 676.92795 80.259853 
z
" clip-path="url(#p15300806c2)" style="fill: #696969"/>
   </g>
   <g id="patch_235">
    <path d="M 679.646881 87.035333 
L 683.99717 87.035333 
L 683.99717 86.028167 
L 679.646881 86.028167 
z
" clip-path="url(#p15300806c2)" style="fill: #696969"/>
   </g>
   <g id="patch_236">
    <path d="M 682.365811 87.035333 
L 686.7161 87.035333 
L 686.7161 83.372911 
L 682.365811 83.372911 
z
" clip-path="url(#p15300806c2)" style="fill: #696969"/>
   </g>
   <g id="patch_237">
    <path d="M 685.084742 87.035333 
L 689.435031 87.035333 
L 689.435031 80.900777 
L 685.084742 80.900777 
z
" clip-path="url(#p15300806c2)" style="fill: #696969"/>
   </g>
   <g id="patch_238">
    <path d="M 687.803673 87.035333 
L 692.153962 87.035333 
L 692.153962 71.653161 
L 687.803673 71.653161 
z
" clip-path="url(#p15300806c2)" style="fill: #696969"/>
   </g>
   <g id="patch_239">
    <path d="M 690.522603 87.035333 
L 694.872892 87.035333 
L 694.872892 87.035333 
L 690.522603 87.035333 
z
" clip-path="url(#p15300806c2)" style="fill: #696969"/>
   </g>
   <g id="patch_240">
    <path d="M 693.241534 87.035333 
L 697.591823 87.035333 
L 697.591823 78.611763 
L 693.241534 78.611763 
z
" clip-path="url(#p15300806c2)" style="fill: #696969"/>
   </g>
   <g id="patch_241">
    <path d="M 695.960464 87.035333 
L 700.310753 87.035333 
L 700.310753 87.035333 
L 695.960464 87.035333 
z
" clip-path="url(#p15300806c2)" style="fill: #696969"/>
   </g>
   <g id="patch_242">
    <path d="M 698.679395 87.035333 
L 703.029684 87.035333 
L 703.029684 86.48597 
L 698.679395 86.48597 
z
" clip-path="url(#p15300806c2)" style="fill: #696969"/>
   </g>
   <g id="patch_243">
    <path d="M 701.398326 87.035333 
L 705.748615 87.035333 
L 705.748615 87.035333 
L 701.398326 87.035333 
z
" clip-path="url(#p15300806c2)" style="fill: #696969"/>
   </g>
   <g id="patch_244">
    <path d="M 704.117256 87.035333 
L 708.467545 87.035333 
L 708.467545 83.647593 
L 704.117256 83.647593 
z
" clip-path="url(#p15300806c2)" style="fill: #696969"/>
   </g>
   <g id="patch_245">
    <path d="M 706.836187 87.035333 
L 711.186476 87.035333 
L 711.186476 87.035333 
L 706.836187 87.035333 
z
" clip-path="url(#p15300806c2)" style="fill: #696969"/>
   </g>
   <g id="patch_246">
    <path d="M 709.555117 87.035333 
L 713.905406 87.035333 
L 713.905406 87.035333 
L 709.555117 87.035333 
z
" clip-path="url(#p15300806c2)" style="fill: #696969"/>
   </g>
   <g id="patch_247">
    <path d="M 712.274048 87.035333 
L 716.624337 87.035333 
L 716.624337 87.035333 
L 712.274048 87.035333 
z
" clip-path="url(#p15300806c2)" style="fill: #696969"/>
   </g>
   <g id="patch_248">
    <path d="M 714.992979 87.035333 
L 719.343268 87.035333 
L 719.343268 80.809216 
L 714.992979 80.809216 
z
" clip-path="url(#p15300806c2)" style="fill: #696969"/>
   </g>
   <g id="patch_249">
    <path d="M 717.711909 87.035333 
L 722.062198 87.035333 
L 722.062198 87.035333 
L 717.711909 87.035333 
z
" clip-path="url(#p15300806c2)" style="fill: #696969"/>
   </g>
   <g id="patch_250">
    <path d="M 720.43084 87.035333 
L 724.781129 87.035333 
L 724.781129 81.633261 
L 720.43084 81.633261 
z
" clip-path="url(#p15300806c2)" style="fill: #696969"/>
   </g>
   <g id="patch_251">
    <path d="M 723.14977 87.035333 
L 727.500059 87.035333 
L 727.500059 77.696157 
L 723.14977 77.696157 
z
" clip-path="url(#p15300806c2)" style="fill: #696969"/>
   </g>
   <g id="patch_252">
    <path d="M 725.868701 87.035333 
L 730.21899 87.035333 
L 730.21899 85.295683 
L 725.868701 85.295683 
z
" clip-path="url(#p15300806c2)" style="fill: #696969"/>
   </g>
   <g id="patch_253">
    <path d="M 728.587632 87.035333 
L 732.937921 87.035333 
L 732.937921 82.731988 
L 728.587632 82.731988 
z
" clip-path="url(#p15300806c2)" style="fill: #696969"/>
   </g>
   <g id="patch_254">
    <path d="M 731.306562 87.035333 
L 735.656851 87.035333 
L 735.656851 84.196956 
L 731.306562 84.196956 
z
" clip-path="url(#p15300806c2)" style="fill: #696969"/>
   </g>
   <g id="patch_255">
    <path d="M 734.025493 87.035333 
L 738.375782 87.035333 
L 738.375782 78.794884 
L 734.025493 78.794884 
z
" clip-path="url(#p15300806c2)" style="fill: #696969"/>
   </g>
   <g id="patch_256">
    <path d="M 736.744423 87.035333 
L 741.094712 87.035333 
L 741.094712 77.513036 
L 736.744423 77.513036 
z
" clip-path="url(#p15300806c2)" style="fill: #696969"/>
   </g>
   <g id="patch_257">
    <path d="M 739.463354 87.035333 
L 743.813643 87.035333 
L 743.813643 82.182624 
L 739.463354 82.182624 
z
" clip-path="url(#p15300806c2)" style="fill: #696969"/>
   </g>
   <g id="patch_258">
    <path d="M 742.182285 87.035333 
L 746.532574 87.035333 
L 746.532574 81.907943 
L 742.182285 81.907943 
z
" clip-path="url(#p15300806c2)" style="fill: #696969"/>
   </g>
   <g id="patch_259">
    <path d="M 744.901215 87.035333 
L 749.251504 87.035333 
L 749.251504 74.76622 
L 744.901215 74.76622 
z
" clip-path="url(#p15300806c2)" style="fill: #696969"/>
   </g>
   <g id="patch_260">
    <path d="M 747.620146 87.035333 
L 751.970435 87.035333 
L 751.970435 75.590265 
L 747.620146 75.590265 
z
" clip-path="url(#p15300806c2)" style="fill: #696969"/>
   </g>
   <g id="patch_261">
    <path d="M 750.339076 87.035333 
L 754.689365 87.035333 
L 754.689365 73.026569 
L 750.339076 73.026569 
z
" clip-path="url(#p15300806c2)" style="fill: #696969"/>
   </g>
   <g id="patch_262">
    <path d="M 753.058007 87.035333 
L 757.408296 87.035333 
L 757.408296 76.322749 
L 753.058007 76.322749 
z
" clip-path="url(#p15300806c2)" style="fill: #696969"/>
   </g>
   <g id="patch_263">
    <path d="M 755.776938 87.035333 
L 760.127227 87.035333 
L 760.127227 75.864946 
L 755.776938 75.864946 
z
" clip-path="url(#p15300806c2)" style="fill: #696969"/>
   </g>
   <g id="patch_264">
    <path d="M 758.495868 87.035333 
L 762.846157 87.035333 
L 762.846157 75.864946 
L 758.495868 75.864946 
z
" clip-path="url(#p15300806c2)" style="fill: #696969"/>
   </g>
   <g id="patch_265">
    <path d="M 761.214799 87.035333 
L 765.565088 87.035333 
L 765.565088 78.337081 
L 761.214799 78.337081 
z
" clip-path="url(#p15300806c2)" style="fill: #696969"/>
   </g>
   <g id="patch_266">
    <path d="M 763.933729 87.035333 
L 768.284018 87.035333 
L 768.284018 81.999503 
L 763.933729 81.999503 
z
" clip-path="url(#p15300806c2)" style="fill: #696969"/>
   </g>
   <g id="patch_267">
    <path d="M 766.65266 87.035333 
L 771.002949 87.035333 
L 771.002949 87.035333 
L 766.65266 87.035333 
z
" clip-path="url(#p15300806c2)" style="fill: #696969"/>
   </g>
   <g id="patch_268">
    <path d="M 769.371591 87.035333 
L 773.72188 87.035333 
L 773.72188 77.513036 
L 769.371591 77.513036 
z
" clip-path="url(#p15300806c2)" style="fill: #696969"/>
   </g>
   <g id="patch_269">
    <path d="M 772.090521 87.035333 
L 776.44081 87.035333 
L 776.44081 74.85778 
L 772.090521 74.85778 
z
" clip-path="url(#p15300806c2)" style="fill: #696969"/>
   </g>
   <g id="patch_270">
    <path d="M 774.809452 87.035333 
L 779.159741 87.035333 
L 779.159741 86.669091 
L 774.809452 86.669091 
z
" clip-path="url(#p15300806c2)" style="fill: #696969"/>
   </g>
   <g id="patch_271">
    <path d="M 777.528382 87.035333 
L 781.878671 87.035333 
L 781.878671 79.069566 
L 777.528382 79.069566 
z
" clip-path="url(#p15300806c2)" style="fill: #696969"/>
   </g>
   <g id="patch_272">
    <path d="M 780.247313 87.035333 
L 784.597602 87.035333 
L 784.597602 80.442974 
L 780.247313 80.442974 
z
" clip-path="url(#p15300806c2)" style="fill: #696969"/>
   </g>
   <g id="patch_273">
    <path d="M 782.966244 87.035333 
L 787.316532 87.035333 
L 787.316532 82.548866 
L 782.966244 82.548866 
z
" clip-path="url(#p15300806c2)" style="fill: #696969"/>
   </g>
   <g id="patch_274">
    <path d="M 785.685174 87.035333 
L 790.035463 87.035333 
L 790.035463 72.385645 
L 785.685174 72.385645 
z
" clip-path="url(#p15300806c2)" style="fill: #696969"/>
   </g>
   <g id="patch_275">
    <path d="M 788.404105 87.035333 
L 792.754394 87.035333 
L 792.754394 87.035333 
L 788.404105 87.035333 
z
" clip-path="url(#p15300806c2)" style="fill: #696969"/>
   </g>
   <g id="patch_276">
    <path d="M 791.123035 87.035333 
L 795.473324 87.035333 
L 795.473324 80.900777 
L 791.123035 80.900777 
z
" clip-path="url(#p15300806c2)" style="fill: #696969"/>
   </g>
   <g id="patch_277">
    <path d="M 793.841966 87.035333 
L 798.192255 87.035333 
L 798.192255 75.864946 
L 793.841966 75.864946 
z
" clip-path="url(#p15300806c2)" style="fill: #696969"/>
   </g>
   <g id="patch_278">
    <path d="M 796.560897 87.035333 
L 800.911185 87.035333 
L 800.911185 84.929441 
L 796.560897 84.929441 
z
" clip-path="url(#p15300806c2)" style="fill: #696969"/>
   </g>
   <g id="patch_279">
    <path d="M 799.279827 87.035333 
L 803.630116 87.035333 
L 803.630116 84.196956 
L 799.279827 84.196956 
z
" clip-path="url(#p15300806c2)" style="fill: #696969"/>
   </g>
   <g id="patch_280">
    <path d="M 801.998758 87.035333 
L 806.349047 87.035333 
L 806.349047 76.048067 
L 801.998758 76.048067 
z
" clip-path="url(#p15300806c2)" style="fill: #696969"/>
   </g>
   <g id="patch_281">
    <path d="M 804.717688 87.035333 
L 809.067977 87.035333 
L 809.067977 77.329915 
L 804.717688 77.329915 
z
" clip-path="url(#p15300806c2)" style="fill: #696969"/>
   </g>
   <g id="patch_282">
    <path d="M 807.436619 87.035333 
L 811.786908 87.035333 
L 811.786908 83.556032 
L 807.436619 83.556032 
z
" clip-path="url(#p15300806c2)" style="fill: #696969"/>
   </g>
   <g id="patch_283">
    <path d="M 810.15555 87.035333 
L 814.505838 87.035333 
L 814.505838 84.380077 
L 810.15555 84.380077 
z
" clip-path="url(#p15300806c2)" style="fill: #696969"/>
   </g>
   <g id="patch_284">
    <path d="M 812.87448 87.035333 
L 817.224769 87.035333 
L 817.224769 78.703323 
L 812.87448 78.703323 
z
" clip-path="url(#p15300806c2)" style="fill: #696969"/>
   </g>
   <g id="patch_285">
    <path d="M 815.593411 87.035333 
L 819.9437 87.035333 
L 819.9437 83.18979 
L 815.593411 83.18979 
z
" clip-path="url(#p15300806c2)" style="fill: #696969"/>
   </g>
   <g id="patch_286">
    <path d="M 818.312341 87.035333 
L 822.66263 87.035333 
L 822.66263 87.035333 
L 818.312341 87.035333 
z
" clip-path="url(#p15300806c2)" style="fill: #696969"/>
   </g>
   <g id="patch_287">
    <path d="M 821.031272 87.035333 
L 825.381561 87.035333 
L 825.381561 87.035333 
L 821.031272 87.035333 
z
" clip-path="url(#p15300806c2)" style="fill: #696969"/>
   </g>
   <g id="patch_288">
    <path d="M 823.750203 87.035333 
L 828.100491 87.035333 
L 828.100491 87.035333 
L 823.750203 87.035333 
z
" clip-path="url(#p15300806c2)" style="fill: #696969"/>
   </g>
   <g id="patch_289">
    <path d="M 826.469133 87.035333 
L 830.819422 87.035333 
L 830.819422 87.035333 
L 826.469133 87.035333 
z
" clip-path="url(#p15300806c2)" style="fill: #696969"/>
   </g>
   <g id="patch_290">
    <path d="M 829.188064 87.035333 
L 833.538353 87.035333 
L 833.538353 87.035333 
L 829.188064 87.035333 
z
" clip-path="url(#p15300806c2)" style="fill: #696969"/>
   </g>
   <g id="patch_291">
    <path d="M 831.906994 87.035333 
L 836.257283 87.035333 
L 836.257283 79.344247 
L 831.906994 79.344247 
z
" clip-path="url(#p15300806c2)" style="fill: #696969"/>
   </g>
   <g id="patch_292">
    <path d="M 834.625925 87.035333 
L 838.976214 87.035333 
L 838.976214 86.669091 
L 834.625925 86.669091 
z
" clip-path="url(#p15300806c2)" style="fill: #696969"/>
   </g>
   <g id="patch_293">
    <path d="M 837.344856 87.035333 
L 841.695144 87.035333 
L 841.695144 81.083898 
L 837.344856 81.083898 
z
" clip-path="url(#p15300806c2)" style="fill: #696969"/>
   </g>
   <g id="matplotlib.axis_3">
    <g id="xtick_9">
     <g id="line2d_13">
      <g>
       <use xlink:href="#me116177e52" x="494.215814" y="89.48" style="stroke: #000000; stroke-width: 0.8"/>
      </g>
     </g>
     <g id="text_13">
      <!-- 80 -->
      <g transform="translate(486.580814 105.598125) scale(0.12 -0.12)">
       <use xlink:href="#DejaVuSans-38"/>
       <use xlink:href="#DejaVuSans-30" x="63.623047"/>
      </g>
     </g>
    </g>
    <g id="xtick_10">
     <g id="line2d_14">
      <g>
       <use xlink:href="#me116177e52" x="548.594426" y="89.48" style="stroke: #000000; stroke-width: 0.8"/>
      </g>
     </g>
     <g id="text_14">
      <!-- 90 -->
      <g transform="translate(540.959426 105.598125) scale(0.12 -0.12)">
       <defs>
        <path id="DejaVuSans-39" d="M 703 97 
L 703 672 
Q 941 559 1184 500 
Q 1428 441 1663 441 
Q 2288 441 2617 861 
Q 2947 1281 2994 2138 
Q 2813 1869 2534 1725 
Q 2256 1581 1919 1581 
Q 1219 1581 811 2004 
Q 403 2428 403 3163 
Q 403 3881 828 4315 
Q 1253 4750 1959 4750 
Q 2769 4750 3195 4129 
Q 3622 3509 3622 2328 
Q 3622 1225 3098 567 
Q 2575 -91 1691 -91 
Q 1453 -91 1209 -44 
Q 966 3 703 97 
z
M 1959 2075 
Q 2384 2075 2632 2365 
Q 2881 2656 2881 3163 
Q 2881 3666 2632 3958 
Q 2384 4250 1959 4250 
Q 1534 4250 1286 3958 
Q 1038 3666 1038 3163 
Q 1038 2656 1286 2365 
Q 1534 2075 1959 2075 
z
" transform="scale(0.015625)"/>
       </defs>
       <use xlink:href="#DejaVuSans-39"/>
       <use xlink:href="#DejaVuSans-30" x="63.623047"/>
      </g>
     </g>
    </g>
    <g id="xtick_11">
     <g id="line2d_15">
      <g>
       <use xlink:href="#me116177e52" x="602.973038" y="89.48" style="stroke: #000000; stroke-width: 0.8"/>
      </g>
     </g>
     <g id="text_15">
      <!-- 100 -->
      <g transform="translate(591.520538 105.598125) scale(0.12 -0.12)">
       <use xlink:href="#DejaVuSans-31"/>
       <use xlink:href="#DejaVuSans-30" x="63.623047"/>
       <use xlink:href="#DejaVuSans-30" x="127.246094"/>
      </g>
     </g>
    </g>
    <g id="xtick_12">
     <g id="line2d_16">
      <g>
       <use xlink:href="#me116177e52" x="657.35165" y="89.48" style="stroke: #000000; stroke-width: 0.8"/>
      </g>
     </g>
     <g id="text_16">
      <!-- 110 -->
      <g transform="translate(645.89915 105.598125) scale(0.12 -0.12)">
       <use xlink:href="#DejaVuSans-31"/>
       <use xlink:href="#DejaVuSans-31" x="63.623047"/>
       <use xlink:href="#DejaVuSans-30" x="127.246094"/>
      </g>
     </g>
    </g>
    <g id="xtick_13">
     <g id="line2d_17">
      <g>
       <use xlink:href="#me116177e52" x="711.730262" y="89.48" style="stroke: #000000; stroke-width: 0.8"/>
      </g>
     </g>
     <g id="text_17">
      <!-- 120 -->
      <g transform="translate(700.277762 105.598125) scale(0.12 -0.12)">
       <use xlink:href="#DejaVuSans-31"/>
       <use xlink:href="#DejaVuSans-32" x="63.623047"/>
       <use xlink:href="#DejaVuSans-30" x="127.246094"/>
      </g>
     </g>
    </g>
    <g id="xtick_14">
     <g id="line2d_18">
      <g>
       <use xlink:href="#me116177e52" x="766.108874" y="89.48" style="stroke: #000000; stroke-width: 0.8"/>
      </g>
     </g>
     <g id="text_18">
      <!-- 130 -->
      <g transform="translate(754.656374 105.598125) scale(0.12 -0.12)">
       <use xlink:href="#DejaVuSans-31"/>
       <use xlink:href="#DejaVuSans-33" x="63.623047"/>
       <use xlink:href="#DejaVuSans-30" x="127.246094"/>
      </g>
     </g>
    </g>
    <g id="xtick_15">
     <g id="line2d_19">
      <g>
       <use xlink:href="#me116177e52" x="820.487486" y="89.48" style="stroke: #000000; stroke-width: 0.8"/>
      </g>
     </g>
     <g id="text_19">
      <!-- 140 -->
      <g transform="translate(809.034986 105.598125) scale(0.12 -0.12)">
       <use xlink:href="#DejaVuSans-31"/>
       <use xlink:href="#DejaVuSans-34" x="63.623047"/>
       <use xlink:href="#DejaVuSans-30" x="127.246094"/>
      </g>
     </g>
    </g>
   </g>
   <g id="matplotlib.axis_4">
    <g id="ytick_3">
     <g id="line2d_20">
      <g>
       <use xlink:href="#m2ecbfd8605" x="450.712924" y="87.035333" style="stroke: #000000; stroke-width: 0.8"/>
      </g>
     </g>
    </g>
    <g id="ytick_4">
     <g id="line2d_21">
      <g>
       <use xlink:href="#m2ecbfd8605" x="450.712924" y="64.145196" style="stroke: #000000; stroke-width: 0.8"/>
      </g>
     </g>
    </g>
   </g>
   <g id="line2d_22">
    <path d="M 450.712924 84.689109 
L 456.150786 84.800412 
L 461.588647 84.662946 
L 467.026508 84.286975 
L 472.464369 83.700577 
L 480.621161 82.525741 
L 499.653675 79.488342 
L 505.091536 78.837196 
L 510.529398 78.382618 
L 515.967259 78.158555 
L 521.40512 78.181742 
L 526.842981 78.450446 
L 532.280842 78.9446 
L 537.718704 79.6273 
L 545.875495 80.890416 
L 559.470148 83.09765 
L 564.90801 83.823651 
L 570.345871 84.373827 
L 575.783732 84.70709 
L 581.221593 84.798552 
L 586.659454 84.641382 
L 592.097315 84.247319 
L 597.535177 83.645791 
L 605.691968 82.456201 
L 624.724483 79.430081 
L 630.162344 78.793045 
L 635.600205 78.355874 
L 641.038066 78.151216 
L 646.475927 78.194355 
L 651.913789 78.482069 
L 657.35165 78.992872 
L 662.789511 79.688616 
L 670.946303 80.9625 
L 684.540956 83.160993 
L 689.978817 83.874773 
L 695.416678 84.408909 
L 700.854539 84.723513 
L 706.292401 84.79509 
L 711.730262 84.618293 
L 717.168123 84.206327 
L 722.605984 83.589958 
L 730.762776 82.386187 
L 749.79529 79.3728 
L 755.233151 78.750181 
L 760.671013 78.330627 
L 766.108874 78.145472 
L 771.546735 78.208542 
L 776.984596 78.515129 
L 782.422457 79.042335 
L 790.579249 80.156876 
L 815.049625 83.924738 
L 820.487486 84.442578 
L 825.925347 84.738372 
L 831.363208 84.790028 
L 836.801069 84.59369 
L 839.52 84.406402 
L 839.52 84.406402 
" clip-path="url(#p15300806c2)" style="fill: none; stroke: #191970; stroke-width: 3; stroke-linecap: square"/>
   </g>
   <g id="line2d_23">
    <path d="M 144.273606 89.48 
L 144.273606 60.144 
" clip-path="url(#p15300806c2)" style="fill: none; stroke-dasharray: 7.4,3.2; stroke-dashoffset: 0; stroke: #000000; stroke-opacity: 0.8; stroke-width: 2"/>
   </g>
   <g id="patch_294">
    <path d="M 450.712924 89.48 
L 450.712924 60.144 
" style="fill: none; stroke: #000000; stroke-width: 0.8; stroke-linejoin: miter; stroke-linecap: square"/>
   </g>
   <g id="patch_295">
    <path d="M 450.712924 89.48 
L 839.52 89.48 
" style="fill: none; stroke: #000000; stroke-width: 0.8; stroke-linejoin: miter; stroke-linecap: square"/>
   </g>
   <g id="text_20">
    <!-- 2 -->
    <g transform="translate(641.935212 42.946187) scale(0.1 -0.1)">
     <use xlink:href="#DejaVuSans-32"/>
    </g>
    <!-- (AC: 15.65, PR: 22.92) -->
    <g transform="translate(589.704743 54.144) scale(0.1 -0.1)">
     <use xlink:href="#DejaVuSans-28"/>
     <use xlink:href="#DejaVuSans-41" x="39.013672"/>
     <use xlink:href="#DejaVuSans-43" x="105.671875"/>
     <use xlink:href="#DejaVuSans-3a" x="175.496094"/>
     <use xlink:href="#DejaVuSans-20" x="209.1875"/>
     <use xlink:href="#DejaVuSans-31" x="240.974609"/>
     <use xlink:href="#DejaVuSans-35" x="304.597656"/>
     <use xlink:href="#DejaVuSans-2e" x="368.220703"/>
     <use xlink:href="#DejaVuSans-36" x="400.007812"/>
     <use xlink:href="#DejaVuSans-35" x="463.630859"/>
     <use xlink:href="#DejaVuSans-2c" x="527.253906"/>
     <use xlink:href="#DejaVuSans-20" x="559.041016"/>
     <use xlink:href="#DejaVuSans-50" x="590.828125"/>
     <use xlink:href="#DejaVuSans-52" x="651.130859"/>
     <use xlink:href="#DejaVuSans-3a" x="717.488281"/>
     <use xlink:href="#DejaVuSans-20" x="751.179688"/>
     <use xlink:href="#DejaVuSans-32" x="782.966797"/>
     <use xlink:href="#DejaVuSans-32" x="846.589844"/>
     <use xlink:href="#DejaVuSans-2e" x="910.212891"/>
     <use xlink:href="#DejaVuSans-39" x="942"/>
     <use xlink:href="#DejaVuSans-32" x="1005.623047"/>
     <use xlink:href="#DejaVuSans-29" x="1069.246094"/>
    </g>
   </g>
  </g>
  <g id="text_21">
   <!-- COSINOR MODEL - 3 SINE 01 -->
   <g transform="translate(338.622187 11.940525) scale(0.12 -0.12)">
    <defs>
     <path id="DejaVuSans-4f" d="M 2522 4238 
Q 1834 4238 1429 3725 
Q 1025 3213 1025 2328 
Q 1025 1447 1429 934 
Q 1834 422 2522 422 
Q 3209 422 3611 934 
Q 4013 1447 4013 2328 
Q 4013 3213 3611 3725 
Q 3209 4238 2522 4238 
z
M 2522 4750 
Q 3503 4750 4090 4092 
Q 4678 3434 4678 2328 
Q 4678 1225 4090 567 
Q 3503 -91 2522 -91 
Q 1538 -91 948 565 
Q 359 1222 359 2328 
Q 359 3434 948 4092 
Q 1538 4750 2522 4750 
z
" transform="scale(0.015625)"/>
     <path id="DejaVuSans-53" d="M 3425 4513 
L 3425 3897 
Q 3066 4069 2747 4153 
Q 2428 4238 2131 4238 
Q 1616 4238 1336 4038 
Q 1056 3838 1056 3469 
Q 1056 3159 1242 3001 
Q 1428 2844 1947 2747 
L 2328 2669 
Q 3034 2534 3370 2195 
Q 3706 1856 3706 1288 
Q 3706 609 3251 259 
Q 2797 -91 1919 -91 
Q 1588 -91 1214 -16 
Q 841 59 441 206 
L 441 856 
Q 825 641 1194 531 
Q 1563 422 1919 422 
Q 2459 422 2753 634 
Q 3047 847 3047 1241 
Q 3047 1584 2836 1778 
Q 2625 1972 2144 2069 
L 1759 2144 
Q 1053 2284 737 2584 
Q 422 2884 422 3419 
Q 422 4038 858 4394 
Q 1294 4750 2059 4750 
Q 2388 4750 2728 4690 
Q 3069 4631 3425 4513 
z
" transform="scale(0.015625)"/>
     <path id="DejaVuSans-49" d="M 628 4666 
L 1259 4666 
L 1259 0 
L 628 0 
L 628 4666 
z
" transform="scale(0.015625)"/>
     <path id="DejaVuSans-4e" d="M 628 4666 
L 1478 4666 
L 3547 763 
L 3547 4666 
L 4159 4666 
L 4159 0 
L 3309 0 
L 1241 3903 
L 1241 0 
L 628 0 
L 628 4666 
z
" transform="scale(0.015625)"/>
     <path id="DejaVuSans-4d" d="M 628 4666 
L 1569 4666 
L 2759 1491 
L 3956 4666 
L 4897 4666 
L 4897 0 
L 4281 0 
L 4281 4097 
L 3078 897 
L 2444 897 
L 1241 4097 
L 1241 0 
L 628 0 
L 628 4666 
z
" transform="scale(0.015625)"/>
     <path id="DejaVuSans-44" d="M 1259 4147 
L 1259 519 
L 2022 519 
Q 2988 519 3436 956 
Q 3884 1394 3884 2338 
Q 3884 3275 3436 3711 
Q 2988 4147 2022 4147 
L 1259 4147 
z
M 628 4666 
L 1925 4666 
Q 3281 4666 3915 4102 
Q 4550 3538 4550 2338 
Q 4550 1131 3912 565 
Q 3275 0 1925 0 
L 628 0 
L 628 4666 
z
" transform="scale(0.015625)"/>
     <path id="DejaVuSans-45" d="M 628 4666 
L 3578 4666 
L 3578 4134 
L 1259 4134 
L 1259 2753 
L 3481 2753 
L 3481 2222 
L 1259 2222 
L 1259 531 
L 3634 531 
L 3634 0 
L 628 0 
L 628 4666 
z
" transform="scale(0.015625)"/>
     <path id="DejaVuSans-4c" d="M 628 4666 
L 1259 4666 
L 1259 531 
L 3531 531 
L 3531 0 
L 628 0 
L 628 4666 
z
" transform="scale(0.015625)"/>
     <path id="DejaVuSans-2d" d="M 313 2009 
L 1997 2009 
L 1997 1497 
L 313 1497 
L 313 2009 
z
" transform="scale(0.015625)"/>
    </defs>
    <use xlink:href="#DejaVuSans-43"/>
    <use xlink:href="#DejaVuSans-4f" x="69.824219"/>
    <use xlink:href="#DejaVuSans-53" x="148.535156"/>
    <use xlink:href="#DejaVuSans-49" x="212.011719"/>
    <use xlink:href="#DejaVuSans-4e" x="241.503906"/>
    <use xlink:href="#DejaVuSans-4f" x="316.308594"/>
    <use xlink:href="#DejaVuSans-52" x="395.019531"/>
    <use xlink:href="#DejaVuSans-20" x="464.501953"/>
    <use xlink:href="#DejaVuSans-4d" x="496.289062"/>
    <use xlink:href="#DejaVuSans-4f" x="582.568359"/>
    <use xlink:href="#DejaVuSans-44" x="661.279297"/>
    <use xlink:href="#DejaVuSans-45" x="738.28125"/>
    <use xlink:href="#DejaVuSans-4c" x="801.464844"/>
    <use xlink:href="#DejaVuSans-20" x="857.177734"/>
    <use xlink:href="#DejaVuSans-2d" x="888.964844"/>
    <use xlink:href="#DejaVuSans-20" x="925.048828"/>
    <use xlink:href="#DejaVuSans-33" x="956.835938"/>
    <use xlink:href="#DejaVuSans-20" x="1020.458984"/>
    <use xlink:href="#DejaVuSans-53" x="1052.246094"/>
    <use xlink:href="#DejaVuSans-49" x="1115.722656"/>
    <use xlink:href="#DejaVuSans-4e" x="1145.214844"/>
    <use xlink:href="#DejaVuSans-45" x="1220.019531"/>
    <use xlink:href="#DejaVuSans-20" x="1283.203125"/>
    <use xlink:href="#DejaVuSans-30" x="1314.990234"/>
    <use xlink:href="#DejaVuSans-31" x="1378.613281"/>
   </g>
  </g>
  <g id="text_22">
   <!-- TIME (HOURS FROM START OF PROTOCOL) -->
   <g transform="translate(318.840469 137.629112) scale(0.1 -0.1)">
    <defs>
     <path id="DejaVuSans-54" d="M -19 4666 
L 3928 4666 
L 3928 4134 
L 2272 4134 
L 2272 0 
L 1638 0 
L 1638 4134 
L -19 4134 
L -19 4666 
z
" transform="scale(0.015625)"/>
     <path id="DejaVuSans-48" d="M 628 4666 
L 1259 4666 
L 1259 2753 
L 3553 2753 
L 3553 4666 
L 4184 4666 
L 4184 0 
L 3553 0 
L 3553 2222 
L 1259 2222 
L 1259 0 
L 628 0 
L 628 4666 
z
" transform="scale(0.015625)"/>
     <path id="DejaVuSans-55" d="M 556 4666 
L 1191 4666 
L 1191 1831 
Q 1191 1081 1462 751 
Q 1734 422 2344 422 
Q 2950 422 3222 751 
Q 3494 1081 3494 1831 
L 3494 4666 
L 4128 4666 
L 4128 1753 
Q 4128 841 3676 375 
Q 3225 -91 2344 -91 
Q 1459 -91 1007 375 
Q 556 841 556 1753 
L 556 4666 
z
" transform="scale(0.015625)"/>
     <path id="DejaVuSans-46" d="M 628 4666 
L 3309 4666 
L 3309 4134 
L 1259 4134 
L 1259 2759 
L 3109 2759 
L 3109 2228 
L 1259 2228 
L 1259 0 
L 628 0 
L 628 4666 
z
" transform="scale(0.015625)"/>
    </defs>
    <use xlink:href="#DejaVuSans-54"/>
    <use xlink:href="#DejaVuSans-49" x="61.083984"/>
    <use xlink:href="#DejaVuSans-4d" x="90.576172"/>
    <use xlink:href="#DejaVuSans-45" x="176.855469"/>
    <use xlink:href="#DejaVuSans-20" x="240.039062"/>
    <use xlink:href="#DejaVuSans-28" x="271.826172"/>
    <use xlink:href="#DejaVuSans-48" x="310.839844"/>
    <use xlink:href="#DejaVuSans-4f" x="386.035156"/>
    <use xlink:href="#DejaVuSans-55" x="464.746094"/>
    <use xlink:href="#DejaVuSans-52" x="537.939453"/>
    <use xlink:href="#DejaVuSans-53" x="607.421875"/>
    <use xlink:href="#DejaVuSans-20" x="670.898438"/>
    <use xlink:href="#DejaVuSans-46" x="702.685547"/>
    <use xlink:href="#DejaVuSans-52" x="760.205078"/>
    <use xlink:href="#DejaVuSans-4f" x="829.6875"/>
    <use xlink:href="#DejaVuSans-4d" x="908.398438"/>
    <use xlink:href="#DejaVuSans-20" x="994.677734"/>
    <use xlink:href="#DejaVuSans-53" x="1026.464844"/>
    <use xlink:href="#DejaVuSans-54" x="1089.941406"/>
    <use xlink:href="#DejaVuSans-41" x="1143.275391"/>
    <use xlink:href="#DejaVuSans-52" x="1211.683594"/>
    <use xlink:href="#DejaVuSans-54" x="1273.916016"/>
    <use xlink:href="#DejaVuSans-20" x="1335"/>
    <use xlink:href="#DejaVuSans-4f" x="1366.787109"/>
    <use xlink:href="#DejaVuSans-46" x="1445.498047"/>
    <use xlink:href="#DejaVuSans-20" x="1503.017578"/>
    <use xlink:href="#DejaVuSans-50" x="1534.804688"/>
    <use xlink:href="#DejaVuSans-52" x="1595.107422"/>
    <use xlink:href="#DejaVuSans-4f" x="1664.589844"/>
    <use xlink:href="#DejaVuSans-54" x="1743.300781"/>
    <use xlink:href="#DejaVuSans-4f" x="1804.384766"/>
    <use xlink:href="#DejaVuSans-43" x="1883.095703"/>
    <use xlink:href="#DejaVuSans-4f" x="1952.919922"/>
    <use xlink:href="#DejaVuSans-4c" x="2031.630859"/>
    <use xlink:href="#DejaVuSans-29" x="2087.34375"/>
   </g>
  </g>
  <g id="text_23">
   <!-- AMPLITUDE -->
   <g transform="translate(24.604838 99.292812) rotate(-90) scale(0.1 -0.1)">
    <use xlink:href="#DejaVuSans-41"/>
    <use xlink:href="#DejaVuSans-4d" x="68.408203"/>
    <use xlink:href="#DejaVuSans-50" x="154.6875"/>
    <use xlink:href="#DejaVuSans-4c" x="214.990234"/>
    <use xlink:href="#DejaVuSans-49" x="270.703125"/>
    <use xlink:href="#DejaVuSans-54" x="300.195312"/>
    <use xlink:href="#DejaVuSans-55" x="361.279297"/>
    <use xlink:href="#DejaVuSans-44" x="434.472656"/>
    <use xlink:href="#DejaVuSans-45" x="511.474609"/>
   </g>
  </g>
 </g>
 <defs>
  <clipPath id="pd82df247cb">
   <rect x="46.33" y="60.144" width="388.807076" height="29.336"/>
  </clipPath>
  <clipPath id="p15300806c2">
   <rect x="450.712924" y="60.144" width="388.807076" height="29.336"/>
  </clipPath>
 </defs>
</svg>
