<?xml version="1.0" encoding="utf-8" standalone="no"?>
<!DOCTYPE svg PUBLIC "-//W3C//DTD SVG 1.1//EN"
  "http://www.w3.org/Graphics/SVG/1.1/DTD/svg11.dtd">
<svg xmlns:xlink="http://www.w3.org/1999/xlink" width="864pt" height="360pt" viewBox="0 0 864 360" xmlns="http://www.w3.org/2000/svg" version="1.1">
 <metadata>
  <rdf:RDF xmlns:dc="http://purl.org/dc/elements/1.1/" xmlns:cc="http://creativecommons.org/ns#" xmlns:rdf="http://www.w3.org/1999/02/22-rdf-syntax-ns#">
   <cc:Work>
    <dc:type rdf:resource="http://purl.org/dc/dcmitype/StillImage"/>
    <dc:date>2023-11-27T20:49:07.651369</dc:date>
    <dc:format>image/svg+xml</dc:format>
    <dc:creator>
     <cc:Agent>
      <dc:title>Matplotlib v3.7.4, https://matplotlib.org/</dc:title>
     </cc:Agent>
    </dc:creator>
   </cc:Work>
  </rdf:RDF>
 </metadata>
 <defs>
  <style type="text/css">*{stroke-linejoin: round; stroke-linecap: butt}</style>
 </defs>
 <g id="figure_1">
  <g id="patch_1">
   <path d="M 0 360 
L 864 360 
L 864 0 
L 0 0 
z
" style="fill: #ffffff"/>
  </g>
  <g id="axes_1">
   <g id="patch_2">
    <path d="M 108 320.4 
L 777.6 320.4 
L 777.6 43.2 
L 108 43.2 
z
" style="fill: #ffffff"/>
   </g>
   <g id="matplotlib.axis_1">
    <g id="xtick_1">
     <g id="line2d_1">
      <defs>
       <path id="m86ee5894be" d="M 0 0 
L 0 3.5 
" style="stroke: #000000; stroke-width: 0.8"/>
      </defs>
      <g>
       <use xlink:href="#m86ee5894be" x="138.436364" y="320.4" style="stroke: #000000; stroke-width: 0.8"/>
      </g>
     </g>
     <g id="text_1">
      <!-- 2022-01-01 -->
      <g transform="translate(103.566989 336.518125) scale(0.12 -0.12)">
       <defs>
        <path id="DejaVuSans-32" d="M 1228 531 
L 3431 531 
L 3431 0 
L 469 0 
L 469 531 
Q 828 903 1448 1529 
Q 2069 2156 2228 2338 
Q 2531 2678 2651 2914 
Q 2772 3150 2772 3378 
Q 2772 3750 2511 3984 
Q 2250 4219 1831 4219 
Q 1534 4219 1204 4116 
Q 875 4013 500 3803 
L 500 4441 
Q 881 4594 1212 4672 
Q 1544 4750 1819 4750 
Q 2544 4750 2975 4387 
Q 3406 4025 3406 3419 
Q 3406 3131 3298 2873 
Q 3191 2616 2906 2266 
Q 2828 2175 2409 1742 
Q 1991 1309 1228 531 
z
" transform="scale(0.015625)"/>
        <path id="DejaVuSans-30" d="M 2034 4250 
Q 1547 4250 1301 3770 
Q 1056 3291 1056 2328 
Q 1056 1369 1301 889 
Q 1547 409 2034 409 
Q 2525 409 2770 889 
Q 3016 1369 3016 2328 
Q 3016 3291 2770 3770 
Q 2525 4250 2034 4250 
z
M 2034 4750 
Q 2819 4750 3233 4129 
Q 3647 3509 3647 2328 
Q 3647 1150 3233 529 
Q 2819 -91 2034 -91 
Q 1250 -91 836 529 
Q 422 1150 422 2328 
Q 422 3509 836 4129 
Q 1250 4750 2034 4750 
z
" transform="scale(0.015625)"/>
        <path id="DejaVuSans-2d" d="M 313 2009 
L 1997 2009 
L 1997 1497 
L 313 1497 
L 313 2009 
z
" transform="scale(0.015625)"/>
        <path id="DejaVuSans-31" d="M 794 531 
L 1825 531 
L 1825 4091 
L 703 3866 
L 703 4441 
L 1819 4666 
L 2450 4666 
L 2450 531 
L 3481 531 
L 3481 0 
L 794 0 
L 794 531 
z
" transform="scale(0.015625)"/>
       </defs>
       <use xlink:href="#DejaVuSans-32"/>
       <use xlink:href="#DejaVuSans-30" x="63.623047"/>
       <use xlink:href="#DejaVuSans-32" x="127.246094"/>
       <use xlink:href="#DejaVuSans-32" x="190.869141"/>
       <use xlink:href="#DejaVuSans-2d" x="254.492188"/>
       <use xlink:href="#DejaVuSans-30" x="290.576172"/>
       <use xlink:href="#DejaVuSans-31" x="354.199219"/>
       <use xlink:href="#DejaVuSans-2d" x="417.822266"/>
       <use xlink:href="#DejaVuSans-30" x="453.90625"/>
       <use xlink:href="#DejaVuSans-31" x="517.529297"/>
      </g>
     </g>
    </g>
    <g id="xtick_2">
     <g id="line2d_2">
      <g>
       <use xlink:href="#m86ee5894be" x="225.527002" y="320.4" style="stroke: #000000; stroke-width: 0.8"/>
      </g>
     </g>
     <g id="text_2">
      <!-- 2022-01-03 -->
      <g transform="translate(190.657627 336.518125) scale(0.12 -0.12)">
       <defs>
        <path id="DejaVuSans-33" d="M 2597 2516 
Q 3050 2419 3304 2112 
Q 3559 1806 3559 1356 
Q 3559 666 3084 287 
Q 2609 -91 1734 -91 
Q 1441 -91 1130 -33 
Q 819 25 488 141 
L 488 750 
Q 750 597 1062 519 
Q 1375 441 1716 441 
Q 2309 441 2620 675 
Q 2931 909 2931 1356 
Q 2931 1769 2642 2001 
Q 2353 2234 1838 2234 
L 1294 2234 
L 1294 2753 
L 1863 2753 
Q 2328 2753 2575 2939 
Q 2822 3125 2822 3475 
Q 2822 3834 2567 4026 
Q 2313 4219 1838 4219 
Q 1578 4219 1281 4162 
Q 984 4106 628 3988 
L 628 4550 
Q 988 4650 1302 4700 
Q 1616 4750 1894 4750 
Q 2613 4750 3031 4423 
Q 3450 4097 3450 3541 
Q 3450 3153 3228 2886 
Q 3006 2619 2597 2516 
z
" transform="scale(0.015625)"/>
       </defs>
       <use xlink:href="#DejaVuSans-32"/>
       <use xlink:href="#DejaVuSans-30" x="63.623047"/>
       <use xlink:href="#DejaVuSans-32" x="127.246094"/>
       <use xlink:href="#DejaVuSans-32" x="190.869141"/>
       <use xlink:href="#DejaVuSans-2d" x="254.492188"/>
       <use xlink:href="#DejaVuSans-30" x="290.576172"/>
       <use xlink:href="#DejaVuSans-31" x="354.199219"/>
       <use xlink:href="#DejaVuSans-2d" x="417.822266"/>
       <use xlink:href="#DejaVuSans-30" x="453.90625"/>
       <use xlink:href="#DejaVuSans-33" x="517.529297"/>
      </g>
     </g>
    </g>
    <g id="xtick_3">
     <g id="line2d_3">
      <g>
       <use xlink:href="#m86ee5894be" x="312.61764" y="320.4" style="stroke: #000000; stroke-width: 0.8"/>
      </g>
     </g>
     <g id="text_3">
      <!-- 2022-01-05 -->
      <g transform="translate(277.748265 336.518125) scale(0.12 -0.12)">
       <defs>
        <path id="DejaVuSans-35" d="M 691 4666 
L 3169 4666 
L 3169 4134 
L 1269 4134 
L 1269 2991 
Q 1406 3038 1543 3061 
Q 1681 3084 1819 3084 
Q 2600 3084 3056 2656 
Q 3513 2228 3513 1497 
Q 3513 744 3044 326 
Q 2575 -91 1722 -91 
Q 1428 -91 1123 -41 
Q 819 9 494 109 
L 494 744 
Q 775 591 1075 516 
Q 1375 441 1709 441 
Q 2250 441 2565 725 
Q 2881 1009 2881 1497 
Q 2881 1984 2565 2268 
Q 2250 2553 1709 2553 
Q 1456 2553 1204 2497 
Q 953 2441 691 2322 
L 691 4666 
z
" transform="scale(0.015625)"/>
       </defs>
       <use xlink:href="#DejaVuSans-32"/>
       <use xlink:href="#DejaVuSans-30" x="63.623047"/>
       <use xlink:href="#DejaVuSans-32" x="127.246094"/>
       <use xlink:href="#DejaVuSans-32" x="190.869141"/>
       <use xlink:href="#DejaVuSans-2d" x="254.492188"/>
       <use xlink:href="#DejaVuSans-30" x="290.576172"/>
       <use xlink:href="#DejaVuSans-31" x="354.199219"/>
       <use xlink:href="#DejaVuSans-2d" x="417.822266"/>
       <use xlink:href="#DejaVuSans-30" x="453.90625"/>
       <use xlink:href="#DejaVuSans-35" x="517.529297"/>
      </g>
     </g>
    </g>
    <g id="xtick_4">
     <g id="line2d_4">
      <g>
       <use xlink:href="#m86ee5894be" x="399.708278" y="320.4" style="stroke: #000000; stroke-width: 0.8"/>
      </g>
     </g>
     <g id="text_4">
      <!-- 2022-01-07 -->
      <g transform="translate(364.838903 336.518125) scale(0.12 -0.12)">
       <defs>
        <path id="DejaVuSans-37" d="M 525 4666 
L 3525 4666 
L 3525 4397 
L 1831 0 
L 1172 0 
L 2766 4134 
L 525 4134 
L 525 4666 
z
" transform="scale(0.015625)"/>
       </defs>
       <use xlink:href="#DejaVuSans-32"/>
       <use xlink:href="#DejaVuSans-30" x="63.623047"/>
       <use xlink:href="#DejaVuSans-32" x="127.246094"/>
       <use xlink:href="#DejaVuSans-32" x="190.869141"/>
       <use xlink:href="#DejaVuSans-2d" x="254.492188"/>
       <use xlink:href="#DejaVuSans-30" x="290.576172"/>
       <use xlink:href="#DejaVuSans-31" x="354.199219"/>
       <use xlink:href="#DejaVuSans-2d" x="417.822266"/>
       <use xlink:href="#DejaVuSans-30" x="453.90625"/>
       <use xlink:href="#DejaVuSans-37" x="517.529297"/>
      </g>
     </g>
    </g>
    <g id="xtick_5">
     <g id="line2d_5">
      <g>
       <use xlink:href="#m86ee5894be" x="486.798916" y="320.4" style="stroke: #000000; stroke-width: 0.8"/>
      </g>
     </g>
     <g id="text_5">
      <!-- 2022-01-09 -->
      <g transform="translate(451.929541 336.518125) scale(0.12 -0.12)">
       <defs>
        <path id="DejaVuSans-39" d="M 703 97 
L 703 672 
Q 941 559 1184 500 
Q 1428 441 1663 441 
Q 2288 441 2617 861 
Q 2947 1281 2994 2138 
Q 2813 1869 2534 1725 
Q 2256 1581 1919 1581 
Q 1219 1581 811 2004 
Q 403 2428 403 3163 
Q 403 3881 828 4315 
Q 1253 4750 1959 4750 
Q 2769 4750 3195 4129 
Q 3622 3509 3622 2328 
Q 3622 1225 3098 567 
Q 2575 -91 1691 -91 
Q 1453 -91 1209 -44 
Q 966 3 703 97 
z
M 1959 2075 
Q 2384 2075 2632 2365 
Q 2881 2656 2881 3163 
Q 2881 3666 2632 3958 
Q 2384 4250 1959 4250 
Q 1534 4250 1286 3958 
Q 1038 3666 1038 3163 
Q 1038 2656 1286 2365 
Q 1534 2075 1959 2075 
z
" transform="scale(0.015625)"/>
       </defs>
       <use xlink:href="#DejaVuSans-32"/>
       <use xlink:href="#DejaVuSans-30" x="63.623047"/>
       <use xlink:href="#DejaVuSans-32" x="127.246094"/>
       <use xlink:href="#DejaVuSans-32" x="190.869141"/>
       <use xlink:href="#DejaVuSans-2d" x="254.492188"/>
       <use xlink:href="#DejaVuSans-30" x="290.576172"/>
       <use xlink:href="#DejaVuSans-31" x="354.199219"/>
       <use xlink:href="#DejaVuSans-2d" x="417.822266"/>
       <use xlink:href="#DejaVuSans-30" x="453.90625"/>
       <use xlink:href="#DejaVuSans-39" x="517.529297"/>
      </g>
     </g>
    </g>
    <g id="xtick_6">
     <g id="line2d_6">
      <g>
       <use xlink:href="#m86ee5894be" x="573.889554" y="320.4" style="stroke: #000000; stroke-width: 0.8"/>
      </g>
     </g>
     <g id="text_6">
      <!-- 2022-01-11 -->
      <g transform="translate(539.020179 336.518125) scale(0.12 -0.12)">
       <use xlink:href="#DejaVuSans-32"/>
       <use xlink:href="#DejaVuSans-30" x="63.623047"/>
       <use xlink:href="#DejaVuSans-32" x="127.246094"/>
       <use xlink:href="#DejaVuSans-32" x="190.869141"/>
       <use xlink:href="#DejaVuSans-2d" x="254.492188"/>
       <use xlink:href="#DejaVuSans-30" x="290.576172"/>
       <use xlink:href="#DejaVuSans-31" x="354.199219"/>
       <use xlink:href="#DejaVuSans-2d" x="417.822266"/>
       <use xlink:href="#DejaVuSans-31" x="453.90625"/>
       <use xlink:href="#DejaVuSans-31" x="517.529297"/>
      </g>
     </g>
    </g>
    <g id="xtick_7">
     <g id="line2d_7">
      <g>
       <use xlink:href="#m86ee5894be" x="660.980192" y="320.4" style="stroke: #000000; stroke-width: 0.8"/>
      </g>
     </g>
     <g id="text_7">
      <!-- 2022-01-13 -->
      <g transform="translate(626.110817 336.518125) scale(0.12 -0.12)">
       <use xlink:href="#DejaVuSans-32"/>
       <use xlink:href="#DejaVuSans-30" x="63.623047"/>
       <use xlink:href="#DejaVuSans-32" x="127.246094"/>
       <use xlink:href="#DejaVuSans-32" x="190.869141"/>
       <use xlink:href="#DejaVuSans-2d" x="254.492188"/>
       <use xlink:href="#DejaVuSans-30" x="290.576172"/>
       <use xlink:href="#DejaVuSans-31" x="354.199219"/>
       <use xlink:href="#DejaVuSans-2d" x="417.822266"/>
       <use xlink:href="#DejaVuSans-31" x="453.90625"/>
       <use xlink:href="#DejaVuSans-33" x="517.529297"/>
      </g>
     </g>
    </g>
    <g id="xtick_8">
     <g id="line2d_8">
      <g>
       <use xlink:href="#m86ee5894be" x="748.070831" y="320.4" style="stroke: #000000; stroke-width: 0.8"/>
      </g>
     </g>
     <g id="text_8">
      <!-- 2022-01-15 -->
      <g transform="translate(713.201456 336.518125) scale(0.12 -0.12)">
       <use xlink:href="#DejaVuSans-32"/>
       <use xlink:href="#DejaVuSans-30" x="63.623047"/>
       <use xlink:href="#DejaVuSans-32" x="127.246094"/>
       <use xlink:href="#DejaVuSans-32" x="190.869141"/>
       <use xlink:href="#DejaVuSans-2d" x="254.492188"/>
       <use xlink:href="#DejaVuSans-30" x="290.576172"/>
       <use xlink:href="#DejaVuSans-31" x="354.199219"/>
       <use xlink:href="#DejaVuSans-2d" x="417.822266"/>
       <use xlink:href="#DejaVuSans-31" x="453.90625"/>
       <use xlink:href="#DejaVuSans-35" x="517.529297"/>
      </g>
     </g>
    </g>
    <g id="text_9">
     <!-- TIME (DAYS) -->
     <g transform="translate(393.97375 355.17125) scale(0.16 -0.16)">
      <defs>
       <path id="DejaVuSans-54" d="M -19 4666 
L 3928 4666 
L 3928 4134 
L 2272 4134 
L 2272 0 
L 1638 0 
L 1638 4134 
L -19 4134 
L -19 4666 
z
" transform="scale(0.015625)"/>
       <path id="DejaVuSans-49" d="M 628 4666 
L 1259 4666 
L 1259 0 
L 628 0 
L 628 4666 
z
" transform="scale(0.015625)"/>
       <path id="DejaVuSans-4d" d="M 628 4666 
L 1569 4666 
L 2759 1491 
L 3956 4666 
L 4897 4666 
L 4897 0 
L 4281 0 
L 4281 4097 
L 3078 897 
L 2444 897 
L 1241 4097 
L 1241 0 
L 628 0 
L 628 4666 
z
" transform="scale(0.015625)"/>
       <path id="DejaVuSans-45" d="M 628 4666 
L 3578 4666 
L 3578 4134 
L 1259 4134 
L 1259 2753 
L 3481 2753 
L 3481 2222 
L 1259 2222 
L 1259 531 
L 3634 531 
L 3634 0 
L 628 0 
L 628 4666 
z
" transform="scale(0.015625)"/>
       <path id="DejaVuSans-20" transform="scale(0.015625)"/>
       <path id="DejaVuSans-28" d="M 1984 4856 
Q 1566 4138 1362 3434 
Q 1159 2731 1159 2009 
Q 1159 1288 1364 580 
Q 1569 -128 1984 -844 
L 1484 -844 
Q 1016 -109 783 600 
Q 550 1309 550 2009 
Q 550 2706 781 3412 
Q 1013 4119 1484 4856 
L 1984 4856 
z
" transform="scale(0.015625)"/>
       <path id="DejaVuSans-44" d="M 1259 4147 
L 1259 519 
L 2022 519 
Q 2988 519 3436 956 
Q 3884 1394 3884 2338 
Q 3884 3275 3436 3711 
Q 2988 4147 2022 4147 
L 1259 4147 
z
M 628 4666 
L 1925 4666 
Q 3281 4666 3915 4102 
Q 4550 3538 4550 2338 
Q 4550 1131 3912 565 
Q 3275 0 1925 0 
L 628 0 
L 628 4666 
z
" transform="scale(0.015625)"/>
       <path id="DejaVuSans-41" d="M 2188 4044 
L 1331 1722 
L 3047 1722 
L 2188 4044 
z
M 1831 4666 
L 2547 4666 
L 4325 0 
L 3669 0 
L 3244 1197 
L 1141 1197 
L 716 0 
L 50 0 
L 1831 4666 
z
" transform="scale(0.015625)"/>
       <path id="DejaVuSans-59" d="M -13 4666 
L 666 4666 
L 1959 2747 
L 3244 4666 
L 3922 4666 
L 2272 2222 
L 2272 0 
L 1638 0 
L 1638 2222 
L -13 4666 
z
" transform="scale(0.015625)"/>
       <path id="DejaVuSans-53" d="M 3425 4513 
L 3425 3897 
Q 3066 4069 2747 4153 
Q 2428 4238 2131 4238 
Q 1616 4238 1336 4038 
Q 1056 3838 1056 3469 
Q 1056 3159 1242 3001 
Q 1428 2844 1947 2747 
L 2328 2669 
Q 3034 2534 3370 2195 
Q 3706 1856 3706 1288 
Q 3706 609 3251 259 
Q 2797 -91 1919 -91 
Q 1588 -91 1214 -16 
Q 841 59 441 206 
L 441 856 
Q 825 641 1194 531 
Q 1563 422 1919 422 
Q 2459 422 2753 634 
Q 3047 847 3047 1241 
Q 3047 1584 2836 1778 
Q 2625 1972 2144 2069 
L 1759 2144 
Q 1053 2284 737 2584 
Q 422 2884 422 3419 
Q 422 4038 858 4394 
Q 1294 4750 2059 4750 
Q 2388 4750 2728 4690 
Q 3069 4631 3425 4513 
z
" transform="scale(0.015625)"/>
       <path id="DejaVuSans-29" d="M 513 4856 
L 1013 4856 
Q 1481 4119 1714 3412 
Q 1947 2706 1947 2009 
Q 1947 1309 1714 600 
Q 1481 -109 1013 -844 
L 513 -844 
Q 928 -128 1133 580 
Q 1338 1288 1338 2009 
Q 1338 2731 1133 3434 
Q 928 4138 513 4856 
z
" transform="scale(0.015625)"/>
      </defs>
      <use xlink:href="#DejaVuSans-54"/>
      <use xlink:href="#DejaVuSans-49" x="61.083984"/>
      <use xlink:href="#DejaVuSans-4d" x="90.576172"/>
      <use xlink:href="#DejaVuSans-45" x="176.855469"/>
      <use xlink:href="#DejaVuSans-20" x="240.039062"/>
      <use xlink:href="#DejaVuSans-28" x="271.826172"/>
      <use xlink:href="#DejaVuSans-44" x="310.839844"/>
      <use xlink:href="#DejaVuSans-41" x="386.091797"/>
      <use xlink:href="#DejaVuSans-59" x="446.75"/>
      <use xlink:href="#DejaVuSans-53" x="507.833984"/>
      <use xlink:href="#DejaVuSans-29" x="571.310547"/>
     </g>
    </g>
   </g>
   <g id="matplotlib.axis_2">
    <g id="ytick_1">
     <g id="line2d_9">
      <defs>
       <path id="mc0565b377a" d="M 0 0 
L -3.5 0 
" style="stroke: #000000; stroke-width: 0.8"/>
      </defs>
      <g>
       <use xlink:href="#mc0565b377a" x="108" y="307.8" style="stroke: #000000; stroke-width: 0.8"/>
      </g>
     </g>
     <g id="text_10">
      <!-- 0 -->
      <g transform="translate(93.365 312.359062) scale(0.12 -0.12)">
       <use xlink:href="#DejaVuSans-30"/>
      </g>
     </g>
    </g>
    <g id="ytick_2">
     <g id="line2d_10">
      <g>
       <use xlink:href="#mc0565b377a" x="108" y="258.388235" style="stroke: #000000; stroke-width: 0.8"/>
      </g>
     </g>
     <g id="text_11">
      <!-- 50 -->
      <g transform="translate(85.73 262.947298) scale(0.12 -0.12)">
       <use xlink:href="#DejaVuSans-35"/>
       <use xlink:href="#DejaVuSans-30" x="63.623047"/>
      </g>
     </g>
    </g>
    <g id="ytick_3">
     <g id="line2d_11">
      <g>
       <use xlink:href="#mc0565b377a" x="108" y="208.976471" style="stroke: #000000; stroke-width: 0.8"/>
      </g>
     </g>
     <g id="text_12">
      <!-- 100 -->
      <g transform="translate(78.095 213.535533) scale(0.12 -0.12)">
       <use xlink:href="#DejaVuSans-31"/>
       <use xlink:href="#DejaVuSans-30" x="63.623047"/>
       <use xlink:href="#DejaVuSans-30" x="127.246094"/>
      </g>
     </g>
    </g>
    <g id="ytick_4">
     <g id="line2d_12">
      <g>
       <use xlink:href="#mc0565b377a" x="108" y="159.564706" style="stroke: #000000; stroke-width: 0.8"/>
      </g>
     </g>
     <g id="text_13">
      <!-- 150 -->
      <g transform="translate(78.095 164.123768) scale(0.12 -0.12)">
       <use xlink:href="#DejaVuSans-31"/>
       <use xlink:href="#DejaVuSans-35" x="63.623047"/>
       <use xlink:href="#DejaVuSans-30" x="127.246094"/>
      </g>
     </g>
    </g>
    <g id="ytick_5">
     <g id="line2d_13">
      <g>
       <use xlink:href="#mc0565b377a" x="108" y="110.152941" style="stroke: #000000; stroke-width: 0.8"/>
      </g>
     </g>
     <g id="text_14">
      <!-- 200 -->
      <g transform="translate(78.095 114.712004) scale(0.12 -0.12)">
       <use xlink:href="#DejaVuSans-32"/>
       <use xlink:href="#DejaVuSans-30" x="63.623047"/>
       <use xlink:href="#DejaVuSans-30" x="127.246094"/>
      </g>
     </g>
    </g>
    <g id="ytick_6">
     <g id="line2d_14">
      <g>
       <use xlink:href="#mc0565b377a" x="108" y="60.741176" style="stroke: #000000; stroke-width: 0.8"/>
      </g>
     </g>
     <g id="text_15">
      <!-- 250 -->
      <g transform="translate(78.095 65.300239) scale(0.12 -0.12)">
       <use xlink:href="#DejaVuSans-32"/>
       <use xlink:href="#DejaVuSans-35" x="63.623047"/>
       <use xlink:href="#DejaVuSans-30" x="127.246094"/>
      </g>
     </g>
    </g>
    <g id="text_16">
     <!-- SIMULATED -->
     <g transform="translate(52.851 227.5875) rotate(-90) scale(0.16 -0.16)">
      <defs>
       <path id="DejaVuSans-55" d="M 556 4666 
L 1191 4666 
L 1191 1831 
Q 1191 1081 1462 751 
Q 1734 422 2344 422 
Q 2950 422 3222 751 
Q 3494 1081 3494 1831 
L 3494 4666 
L 4128 4666 
L 4128 1753 
Q 4128 841 3676 375 
Q 3225 -91 2344 -91 
Q 1459 -91 1007 375 
Q 556 841 556 1753 
L 556 4666 
z
" transform="scale(0.015625)"/>
       <path id="DejaVuSans-4c" d="M 628 4666 
L 1259 4666 
L 1259 531 
L 3531 531 
L 3531 0 
L 628 0 
L 628 4666 
z
" transform="scale(0.015625)"/>
      </defs>
      <use xlink:href="#DejaVuSans-53"/>
      <use xlink:href="#DejaVuSans-49" x="63.476562"/>
      <use xlink:href="#DejaVuSans-4d" x="92.96875"/>
      <use xlink:href="#DejaVuSans-55" x="179.248047"/>
      <use xlink:href="#DejaVuSans-4c" x="252.441406"/>
      <use xlink:href="#DejaVuSans-41" x="310.404297"/>
      <use xlink:href="#DejaVuSans-54" x="371.0625"/>
      <use xlink:href="#DejaVuSans-45" x="432.146484"/>
      <use xlink:href="#DejaVuSans-44" x="495.330078"/>
     </g>
     <!-- AMPLITUDE -->
     <g transform="translate(70.7675 227.7725) rotate(-90) scale(0.16 -0.16)">
      <defs>
       <path id="DejaVuSans-50" d="M 1259 4147 
L 1259 2394 
L 2053 2394 
Q 2494 2394 2734 2622 
Q 2975 2850 2975 3272 
Q 2975 3691 2734 3919 
Q 2494 4147 2053 4147 
L 1259 4147 
z
M 628 4666 
L 2053 4666 
Q 2838 4666 3239 4311 
Q 3641 3956 3641 3272 
Q 3641 2581 3239 2228 
Q 2838 1875 2053 1875 
L 1259 1875 
L 1259 0 
L 628 0 
L 628 4666 
z
" transform="scale(0.015625)"/>
      </defs>
      <use xlink:href="#DejaVuSans-41"/>
      <use xlink:href="#DejaVuSans-4d" x="68.408203"/>
      <use xlink:href="#DejaVuSans-50" x="154.6875"/>
      <use xlink:href="#DejaVuSans-4c" x="214.990234"/>
      <use xlink:href="#DejaVuSans-49" x="270.703125"/>
      <use xlink:href="#DejaVuSans-54" x="300.195312"/>
      <use xlink:href="#DejaVuSans-55" x="361.279297"/>
      <use xlink:href="#DejaVuSans-44" x="434.472656"/>
      <use xlink:href="#DejaVuSans-45" x="511.474609"/>
     </g>
    </g>
   </g>
   <g id="line2d_15">
    <path d="M 138.436364 234.670588 
L 139.343558 307.8 
L 140.250752 204.035294 
L 141.157946 242.576471 
L 142.06514 263.329412 
L 142.972334 307.8 
L 143.879529 286.058824 
L 144.786723 207.988235 
L 145.693917 307.8 
L 146.601111 200.082353 
L 147.508305 307.8 
L 150.229888 307.8 
L 151.137082 286.058824 
L 152.044276 240.6 
L 152.95147 307.8 
L 153.858664 222.811765 
L 154.765858 257.4 
L 155.673052 282.105882 
L 156.580247 297.917647 
L 157.487441 307.8 
L 158.394635 163.517647 
L 159.301829 242.576471 
L 160.209023 207 
L 161.116217 191.188235 
L 162.023411 252.458824 
L 162.930606 206.011765 
L 163.8378 221.823529 
L 164.744994 234.670588 
L 165.652188 273.211765 
L 166.559382 148.694118 
L 167.466576 119.047059 
L 168.37377 227.752941 
L 169.280965 105.211765 
L 170.188159 218.858824 
L 171.095353 263.329412 
L 172.002547 178.341176 
L 172.909741 221.823529 
L 173.816935 148.694118 
L 174.72413 217.870588 
L 175.631324 208.976471 
L 176.538518 179.329412 
L 177.445712 285.070588 
L 178.352906 275.188235 
L 179.2601 307.8 
L 180.167294 175.376471 
L 181.074489 213.917647 
L 181.981683 295.941176 
L 182.888877 293.964706 
L 183.796071 307.8 
L 184.703265 246.529412 
L 185.610459 307.8 
L 186.517653 307.8 
L 187.424848 257.4 
L 188.332042 307.8 
L 189.239236 302.858824 
L 190.14643 299.894118 
L 191.053624 257.4 
L 191.960818 278.152941 
L 192.868012 268.270588 
L 193.775207 307.8 
L 194.682401 293.964706 
L 195.589595 225.776471 
L 196.496789 307.8 
L 197.403983 227.752941 
L 199.218371 307.8 
L 200.125566 288.035294 
L 201.03276 184.270588 
L 201.939954 286.058824 
L 202.847148 189.211765 
L 203.754342 273.211765 
L 204.661536 150.670588 
L 206.475925 282.105882 
L 207.383119 119.047059 
L 208.290313 213.917647 
L 209.197507 214.905882 
L 210.104701 280.129412 
L 211.011895 218.858824 
L 211.91909 254.435294 
L 212.826284 193.164706 
L 213.733478 247.517647 
L 214.640672 133.870588 
L 215.547866 194.152941 
L 216.45506 305.823529 
L 217.362254 240.6 
L 218.269449 307.8 
L 219.176643 287.047059 
L 220.083837 288.035294 
L 220.991031 269.258824 
L 221.898225 273.211765 
L 222.805419 237.635294 
L 223.712613 275.188235 
L 224.619808 307.8 
L 225.527002 267.282353 
L 226.434196 307.8 
L 227.34139 307.8 
L 228.248584 211.941176 
L 229.155778 271.235294 
L 230.062972 307.8 
L 230.970167 239.611765 
L 231.877361 307.8 
L 234.598943 307.8 
L 235.506137 266.294118 
L 236.413332 307.8 
L 237.320526 230.717647 
L 238.22772 307.8 
L 240.042108 110.152941 
L 240.949302 293.964706 
L 241.856496 151.658824 
L 242.763691 254.435294 
L 243.670885 307.8 
L 244.578079 225.776471 
L 245.485273 277.164706 
L 246.392467 250.482353 
L 247.299661 200.082353 
L 248.206855 256.411765 
L 249.11405 261.352941 
L 250.021244 206.011765 
L 250.928438 282.105882 
L 251.835632 209.964706 
L 252.742826 103.235294 
L 253.65002 203.047059 
L 254.557214 236.647059 
L 255.464409 200.082353 
L 256.371603 260.364706 
L 257.278797 163.517647 
L 258.185991 301.870588 
L 259.093185 197.117647 
L 260.000379 261.352941 
L 260.907573 227.752941 
L 261.814768 307.8 
L 262.721962 156.6 
L 263.629156 307.8 
L 264.53635 252.458824 
L 265.443544 307.8 
L 266.350738 307.8 
L 267.257933 276.176471 
L 268.165127 307.8 
L 269.072321 307.8 
L 269.979515 232.694118 
L 270.886709 300.882353 
L 271.793903 307.8 
L 277.237068 307.8 
L 278.144262 304.835294 
L 279.051456 258.388235 
L 279.958651 186.247059 
L 280.865845 307.8 
L 281.773039 213.917647 
L 282.680233 206.011765 
L 283.587427 212.929412 
L 284.494621 194.152941 
L 285.401815 245.541176 
L 286.30901 151.658824 
L 287.216204 237.635294 
L 288.123398 135.847059 
L 289.030592 142.764706 
L 289.937786 126.952941 
L 290.84498 260.364706 
L 291.752175 263.329412 
L 292.659369 141.776471 
L 293.566563 256.411765 
L 295.380951 223.8 
L 296.288145 186.247059 
L 297.195339 236.647059 
L 298.102534 212.929412 
L 299.009728 235.658824 
L 300.824116 257.4 
L 301.73131 169.447059 
L 302.638504 307.8 
L 303.545698 248.505882 
L 304.452893 299.894118 
L 305.360087 264.317647 
L 306.267281 307.8 
L 307.174475 256.411765 
L 308.081669 307.8 
L 308.988863 299.894118 
L 309.896057 265.305882 
L 310.803252 277.164706 
L 311.710446 307.8 
L 312.61764 307.8 
L 313.524834 243.564706 
L 314.432028 307.8 
L 315.339222 307.8 
L 316.246416 244.552941 
L 317.153611 227.752941 
L 318.060805 279.141176 
L 318.967999 291 
L 319.875193 293.964706 
L 320.782387 307.8 
L 321.689581 307.8 
L 322.596776 264.317647 
L 323.50397 236.647059 
L 324.411164 158.576471 
L 325.318358 190.2 
L 326.225552 307.8 
L 328.03994 156.6 
L 328.947135 252.458824 
L 329.854329 249.494118 
L 330.761523 206.011765 
L 331.668717 261.352941 
L 332.575911 226.764706 
L 333.483105 200.082353 
L 334.390299 307.8 
L 335.297494 289.023529 
L 336.204688 235.658824 
L 337.111882 255.423529 
L 338.019076 143.752941 
L 338.92627 161.541176 
L 339.833464 212.929412 
L 340.740658 281.117647 
L 341.647853 278.152941 
L 342.555047 296.929412 
L 343.462241 291 
L 344.369435 307.8 
L 345.276629 175.376471 
L 346.183823 175.376471 
L 347.091017 307.8 
L 347.998212 292.976471 
L 348.905406 203.047059 
L 349.8126 307.8 
L 350.719794 307.8 
L 351.626988 302.858824 
L 352.534182 240.6 
L 353.441377 220.835294 
L 354.348571 271.235294 
L 355.255765 291 
L 356.162959 305.823529 
L 357.070153 284.082353 
L 357.977347 282.105882 
L 358.884541 219.847059 
L 359.791736 286.058824 
L 360.69893 307.8 
L 361.606124 222.811765 
L 362.513318 298.905882 
L 363.420512 278.152941 
L 364.327706 248.505882 
L 365.2349 203.047059 
L 366.142095 175.376471 
L 367.049289 197.117647 
L 367.956483 171.423529 
L 368.863677 224.788235 
L 369.770871 217.870588 
L 370.678065 193.164706 
L 371.585259 160.552941 
L 372.492454 253.447059 
L 373.399648 232.694118 
L 374.306842 106.2 
L 375.214036 281.117647 
L 376.12123 271.235294 
L 377.028424 220.835294 
L 377.935618 193.164706 
L 378.842813 214.905882 
L 379.750007 145.729412 
L 381.564395 274.2 
L 382.471589 207 
L 383.378783 219.847059 
L 385.193172 296.929412 
L 387.00756 221.823529 
L 387.914754 264.317647 
L 388.821948 214.905882 
L 389.729142 271.235294 
L 390.636337 242.576471 
L 391.543531 174.388235 
L 392.450725 270.247059 
L 393.357919 265.305882 
L 394.265113 307.8 
L 395.172307 245.541176 
L 396.079501 254.435294 
L 396.986696 244.552941 
L 397.89389 218.858824 
L 398.801084 258.388235 
L 399.708278 307.8 
L 400.615472 265.305882 
L 401.522666 228.741176 
L 402.42986 307.8 
L 403.337055 307.8 
L 404.244249 182.294118 
L 405.151443 203.047059 
L 406.058637 208.976471 
L 406.965831 257.4 
L 407.873025 179.329412 
L 408.780219 232.694118 
L 409.687414 231.705882 
L 410.594608 238.623529 
L 411.501802 163.517647 
L 412.408996 195.141176 
L 413.31619 222.811765 
L 414.223384 241.588235 
L 415.130579 193.164706 
L 416.037773 247.517647 
L 416.944967 137.823529 
L 417.852161 109.164706 
L 418.759355 236.647059 
L 419.666549 121.023529 
L 420.573743 171.423529 
L 421.480938 179.329412 
L 422.388132 288.035294 
L 423.295326 233.682353 
L 424.20252 307.8 
L 425.109714 244.552941 
L 426.016908 296.929412 
L 426.924102 290.011765 
L 427.831297 233.682353 
L 428.738491 307.8 
L 430.552879 307.8 
L 431.460073 243.564706 
L 432.367267 307.8 
L 434.181656 307.8 
L 435.08885 279.141176 
L 435.996044 307.8 
L 438.717626 307.8 
L 439.62482 286.058824 
L 440.532015 307.8 
L 441.439209 305.823529 
L 442.346403 211.941176 
L 443.253597 223.8 
L 444.160791 237.635294 
L 445.067985 204.035294 
L 445.97518 307.8 
L 446.882374 141.776471 
L 447.789568 305.823529 
L 448.696762 251.470588 
L 450.51115 174.388235 
L 451.418344 237.635294 
L 452.325539 242.576471 
L 453.232733 210.952941 
L 454.139927 234.670588 
L 455.047121 185.258824 
L 455.954315 216.882353 
L 456.861509 239.611765 
L 457.768703 259.376471 
L 458.675898 283.094118 
L 459.583092 126.952941 
L 460.490286 236.647059 
L 461.39748 212.929412 
L 462.304674 273.211765 
L 463.211868 203.047059 
L 464.119062 205.023529 
L 465.026257 298.905882 
L 465.933451 249.494118 
L 466.840645 292.976471 
L 467.747839 305.823529 
L 468.655033 264.317647 
L 469.562227 274.2 
L 470.469421 212.929412 
L 471.376616 262.341176 
L 472.28381 296.929412 
L 473.191004 307.8 
L 474.098198 307.8 
L 475.005392 304.835294 
L 475.912586 307.8 
L 476.819781 287.047059 
L 477.726975 307.8 
L 478.634169 287.047059 
L 479.541363 263.329412 
L 480.448557 307.8 
L 481.355751 287.047059 
L 482.262945 273.211765 
L 483.17014 198.105882 
L 484.077334 218.858824 
L 484.984528 307.8 
L 485.891722 272.223529 
L 486.798916 270.247059 
L 487.70611 266.294118 
L 488.613304 228.741176 
L 489.520499 230.717647 
L 490.427693 195.141176 
L 491.334887 266.294118 
L 492.242081 250.482353 
L 493.149275 213.917647 
L 494.056469 206.011765 
L 494.963663 143.752941 
L 495.870858 234.670588 
L 496.778052 248.505882 
L 497.685246 219.847059 
L 498.59244 240.6 
L 499.499634 190.2 
L 500.406828 275.188235 
L 501.314022 215.894118 
L 502.221217 223.8 
L 503.128411 170.435294 
L 504.035605 263.329412 
L 504.942799 207.988235 
L 505.849993 225.776471 
L 506.757187 279.141176 
L 507.664382 228.741176 
L 508.571576 282.105882 
L 509.47877 130.905882 
L 510.385964 245.541176 
L 511.293158 207 
L 512.200352 247.517647 
L 513.107546 307.8 
L 520.3651 307.8 
L 521.272294 269.258824 
L 522.179488 302.858824 
L 523.086682 225.776471 
L 523.993876 276.176471 
L 525.808264 266.294118 
L 526.715459 307.8 
L 527.622653 307.8 
L 528.529847 288.035294 
L 529.437041 216.882353 
L 530.344235 298.905882 
L 531.251429 158.576471 
L 533.065818 307.8 
L 533.973012 216.882353 
L 534.880206 141.776471 
L 535.7874 177.352941 
L 536.694594 186.247059 
L 537.601788 258.388235 
L 538.508983 154.623529 
L 539.416177 212.929412 
L 540.323371 307.8 
L 541.230565 192.176471 
L 542.137759 178.341176 
L 543.952147 284.082353 
L 544.859342 307.8 
L 546.67373 262.341176 
L 547.580924 281.117647 
L 548.488118 305.823529 
L 549.395312 307.8 
L 550.302506 307.8 
L 551.209701 286.058824 
L 552.116895 307.8 
L 553.024089 189.211765 
L 553.931283 307.8 
L 554.838477 303.847059 
L 555.745671 307.8 
L 556.652865 307.8 
L 557.56006 230.717647 
L 558.467254 307.8 
L 559.374448 307.8 
L 560.281642 301.870588 
L 561.188836 307.8 
L 562.09603 277.164706 
L 563.003224 307.8 
L 563.910419 307.8 
L 565.724807 260.364706 
L 566.632001 307.8 
L 567.539195 240.6 
L 568.446389 268.270588 
L 569.353584 197.117647 
L 570.260778 175.376471 
L 571.167972 254.435294 
L 572.075166 189.211765 
L 572.98236 278.152941 
L 573.889554 73.588235 
L 574.796748 231.705882 
L 576.611137 121.023529 
L 577.518331 200.082353 
L 578.425525 186.247059 
L 579.332719 135.847059 
L 580.239913 238.623529 
L 581.147107 307.8 
L 582.054302 295.941176 
L 582.961496 182.294118 
L 583.86869 155.611765 
L 584.775884 275.188235 
L 585.683078 280.129412 
L 586.590272 278.152941 
L 587.497466 307.8 
L 588.404661 244.552941 
L 589.311855 279.141176 
L 590.219049 307.8 
L 591.126243 279.141176 
L 592.033437 210.952941 
L 592.940631 307.8 
L 594.75502 307.8 
L 595.662214 296.929412 
L 596.569408 249.494118 
L 597.476602 294.952941 
L 598.383796 290.011765 
L 599.29099 307.8 
L 600.198185 217.870588 
L 601.105379 239.611765 
L 602.012573 281.117647 
L 602.919767 307.8 
L 603.826961 307.8 
L 604.734155 252.458824 
L 605.641349 253.447059 
L 606.548544 191.188235 
L 607.455738 290.011765 
L 608.362932 296.929412 
L 609.270126 292.976471 
L 610.17732 278.152941 
L 611.084514 213.917647 
L 611.991708 234.670588 
L 612.898903 205.023529 
L 613.806097 207 
L 614.713291 240.6 
L 615.620485 307.8 
L 616.527679 130.905882 
L 617.434873 110.152941 
L 618.342067 148.694118 
L 619.249262 259.376471 
L 620.156456 168.458824 
L 621.06365 217.870588 
L 621.970844 161.541176 
L 622.878038 292.976471 
L 623.785232 159.564706 
L 624.692427 307.8 
L 625.599621 275.188235 
L 626.506815 183.282353 
L 627.414009 238.623529 
L 628.321203 273.211765 
L 629.228397 251.470588 
L 630.135591 307.8 
L 631.042786 210.952941 
L 631.94998 279.141176 
L 632.857174 292.976471 
L 633.764368 245.541176 
L 634.671562 266.294118 
L 635.578756 230.717647 
L 636.48595 307.8 
L 637.393145 292.976471 
L 638.300339 307.8 
L 640.114727 307.8 
L 641.021921 238.623529 
L 641.929115 307.8 
L 642.836309 307.8 
L 643.743504 287.047059 
L 644.650698 224.788235 
L 645.557892 307.8 
L 646.465086 254.435294 
L 647.37228 281.117647 
L 648.279474 217.870588 
L 649.186668 226.764706 
L 650.093863 200.082353 
L 651.001057 307.8 
L 651.908251 245.541176 
L 652.815445 242.576471 
L 653.722639 181.305882 
L 654.629833 176.364706 
L 655.537028 161.541176 
L 656.444222 211.941176 
L 657.351416 169.447059 
L 658.25861 251.470588 
L 659.165804 136.835294 
L 660.072998 307.8 
L 660.980192 157.588235 
L 661.887387 195.141176 
L 662.794581 196.129412 
L 663.701775 288.035294 
L 664.608969 162.529412 
L 665.516163 157.588235 
L 666.423357 280.129412 
L 667.330551 177.352941 
L 668.237746 290.011765 
L 669.14494 145.729412 
L 670.052134 307.8 
L 670.959328 216.882353 
L 671.866522 246.529412 
L 672.773716 305.823529 
L 673.68091 197.117647 
L 674.588105 207.988235 
L 675.495299 307.8 
L 676.402493 307.8 
L 677.309687 289.023529 
L 678.216881 262.341176 
L 679.124075 307.8 
L 680.031269 307.8 
L 680.938464 272.223529 
L 681.845658 307.8 
L 684.56724 307.8 
L 685.474434 278.152941 
L 686.381629 274.2 
L 687.288823 226.764706 
L 688.196017 307.8 
L 689.103211 246.529412 
L 690.010405 307.8 
L 690.917599 247.517647 
L 691.824793 204.035294 
L 692.731988 233.682353 
L 693.639182 285.070588 
L 694.546376 307.8 
L 695.45357 295.941176 
L 696.360764 155.611765 
L 697.267958 137.823529 
L 698.175152 55.8 
L 699.082347 222.811765 
L 699.989541 271.235294 
L 700.896735 253.447059 
L 701.803929 307.8 
L 702.711123 157.588235 
L 703.618317 163.517647 
L 704.525511 274.2 
L 705.432706 227.752941 
L 706.3399 279.141176 
L 707.247094 287.047059 
L 708.154288 307.8 
L 709.061482 263.329412 
L 709.968676 200.082353 
L 710.87587 307.8 
L 711.783065 151.658824 
L 712.690259 289.023529 
L 713.597453 307.8 
L 714.504647 247.517647 
L 716.319035 307.8 
L 717.22623 260.364706 
L 718.133424 286.058824 
L 719.040618 307.8 
L 719.947812 275.188235 
L 720.855006 307.8 
L 723.576589 307.8 
L 724.483783 226.764706 
L 725.390977 307.8 
L 726.298171 249.494118 
L 727.205365 307.8 
L 728.112559 307.8 
L 729.019753 210.952941 
L 729.926948 229.729412 
L 730.834142 301.870588 
L 731.741336 274.2 
L 732.64853 271.235294 
L 733.555724 271.235294 
L 734.462918 283.094118 
L 735.370112 228.741176 
L 736.277307 88.411765 
L 737.184501 232.694118 
L 738.091695 151.658824 
L 738.998889 228.741176 
L 739.906083 256.411765 
L 740.813277 307.8 
L 741.720471 238.623529 
L 742.627666 180.317647 
L 743.53486 247.517647 
L 744.442054 237.635294 
L 745.349248 261.352941 
L 746.256442 251.470588 
L 747.163636 237.635294 
L 747.163636 237.635294 
" clip-path="url(#p98f6d63788)" style="fill: none; stroke: #191970; stroke-width: 2; stroke-linecap: square"/>
   </g>
   <g id="patch_3">
    <path d="M 108 320.4 
L 108 43.2 
" style="fill: none; stroke: #000000; stroke-width: 0.8; stroke-linejoin: miter; stroke-linecap: square"/>
   </g>
   <g id="patch_4">
    <path d="M 777.6 320.4 
L 777.6 43.2 
" style="fill: none; stroke: #000000; stroke-width: 0.8; stroke-linejoin: miter; stroke-linecap: square"/>
   </g>
   <g id="patch_5">
    <path d="M 108 320.4 
L 777.6 320.4 
" style="fill: none; stroke: #000000; stroke-width: 0.8; stroke-linejoin: miter; stroke-linecap: square"/>
   </g>
   <g id="patch_6">
    <path d="M 108 43.2 
L 777.6 43.2 
" style="fill: none; stroke: #000000; stroke-width: 0.8; stroke-linejoin: miter; stroke-linecap: square"/>
   </g>
   <g id="text_17">
    <!-- TIME SERIES -->
    <g transform="translate(386.625938 37.2) scale(0.18 -0.18)">
     <defs>
      <path id="DejaVuSans-52" d="M 2841 2188 
Q 3044 2119 3236 1894 
Q 3428 1669 3622 1275 
L 4263 0 
L 3584 0 
L 2988 1197 
Q 2756 1666 2539 1819 
Q 2322 1972 1947 1972 
L 1259 1972 
L 1259 0 
L 628 0 
L 628 4666 
L 2053 4666 
Q 2853 4666 3247 4331 
Q 3641 3997 3641 3322 
Q 3641 2881 3436 2590 
Q 3231 2300 2841 2188 
z
M 1259 4147 
L 1259 2491 
L 2053 2491 
Q 2509 2491 2742 2702 
Q 2975 2913 2975 3322 
Q 2975 3731 2742 3939 
Q 2509 4147 2053 4147 
L 1259 4147 
z
" transform="scale(0.015625)"/>
     </defs>
     <use xlink:href="#DejaVuSans-54"/>
     <use xlink:href="#DejaVuSans-49" x="61.083984"/>
     <use xlink:href="#DejaVuSans-4d" x="90.576172"/>
     <use xlink:href="#DejaVuSans-45" x="176.855469"/>
     <use xlink:href="#DejaVuSans-20" x="240.039062"/>
     <use xlink:href="#DejaVuSans-53" x="271.826172"/>
     <use xlink:href="#DejaVuSans-45" x="335.302734"/>
     <use xlink:href="#DejaVuSans-52" x="398.486328"/>
     <use xlink:href="#DejaVuSans-49" x="467.96875"/>
     <use xlink:href="#DejaVuSans-45" x="497.460938"/>
     <use xlink:href="#DejaVuSans-53" x="560.644531"/>
    </g>
   </g>
  </g>
 </g>
 <defs>
  <clipPath id="p98f6d63788">
   <rect x="108" y="43.2" width="669.6" height="277.2"/>
  </clipPath>
 </defs>
</svg>
