<?xml version="1.0" encoding="utf-8" standalone="no"?>
<!DOCTYPE svg PUBLIC "-//W3C//DTD SVG 1.1//EN"
  "http://www.w3.org/Graphics/SVG/1.1/DTD/svg11.dtd">
<svg xmlns:xlink="http://www.w3.org/1999/xlink" width="864pt" height="360pt" viewBox="0 0 864 360" xmlns="http://www.w3.org/2000/svg" version="1.1">
 <metadata>
  <rdf:RDF xmlns:dc="http://purl.org/dc/elements/1.1/" xmlns:cc="http://creativecommons.org/ns#" xmlns:rdf="http://www.w3.org/1999/02/22-rdf-syntax-ns#">
   <cc:Work>
    <dc:type rdf:resource="http://purl.org/dc/dcmitype/StillImage"/>
    <dc:date>2023-11-27T21:12:13.308910</dc:date>
    <dc:format>image/svg+xml</dc:format>
    <dc:creator>
     <cc:Agent>
      <dc:title>Matplotlib v3.7.4, https://matplotlib.org/</dc:title>
     </cc:Agent>
    </dc:creator>
   </cc:Work>
  </rdf:RDF>
 </metadata>
 <defs>
  <style type="text/css">*{stroke-linejoin: round; stroke-linecap: butt}</style>
 </defs>
 <g id="figure_1">
  <g id="patch_1">
   <path d="M 0 360 
L 864 360 
L 864 0 
L 0 0 
z
" style="fill: #ffffff"/>
  </g>
  <g id="axes_1">
   <g id="patch_2">
    <path d="M 108 320.4 
L 777.6 320.4 
L 777.6 43.2 
L 108 43.2 
z
" style="fill: #ffffff"/>
   </g>
   <g id="matplotlib.axis_1">
    <g id="xtick_1">
     <g id="line2d_1">
      <defs>
       <path id="m9dbf5c2ec9" d="M 0 0 
L 0 3.5 
" style="stroke: #000000; stroke-width: 0.8"/>
      </defs>
      <g>
       <use xlink:href="#m9dbf5c2ec9" x="138.436364" y="320.4" style="stroke: #000000; stroke-width: 0.8"/>
      </g>
     </g>
     <g id="text_1">
      <!-- 2022-01-01 -->
      <g transform="translate(103.566989 336.518125) scale(0.12 -0.12)">
       <defs>
        <path id="DejaVuSans-32" d="M 1228 531 
L 3431 531 
L 3431 0 
L 469 0 
L 469 531 
Q 828 903 1448 1529 
Q 2069 2156 2228 2338 
Q 2531 2678 2651 2914 
Q 2772 3150 2772 3378 
Q 2772 3750 2511 3984 
Q 2250 4219 1831 4219 
Q 1534 4219 1204 4116 
Q 875 4013 500 3803 
L 500 4441 
Q 881 4594 1212 4672 
Q 1544 4750 1819 4750 
Q 2544 4750 2975 4387 
Q 3406 4025 3406 3419 
Q 3406 3131 3298 2873 
Q 3191 2616 2906 2266 
Q 2828 2175 2409 1742 
Q 1991 1309 1228 531 
z
" transform="scale(0.015625)"/>
        <path id="DejaVuSans-30" d="M 2034 4250 
Q 1547 4250 1301 3770 
Q 1056 3291 1056 2328 
Q 1056 1369 1301 889 
Q 1547 409 2034 409 
Q 2525 409 2770 889 
Q 3016 1369 3016 2328 
Q 3016 3291 2770 3770 
Q 2525 4250 2034 4250 
z
M 2034 4750 
Q 2819 4750 3233 4129 
Q 3647 3509 3647 2328 
Q 3647 1150 3233 529 
Q 2819 -91 2034 -91 
Q 1250 -91 836 529 
Q 422 1150 422 2328 
Q 422 3509 836 4129 
Q 1250 4750 2034 4750 
z
" transform="scale(0.015625)"/>
        <path id="DejaVuSans-2d" d="M 313 2009 
L 1997 2009 
L 1997 1497 
L 313 1497 
L 313 2009 
z
" transform="scale(0.015625)"/>
        <path id="DejaVuSans-31" d="M 794 531 
L 1825 531 
L 1825 4091 
L 703 3866 
L 703 4441 
L 1819 4666 
L 2450 4666 
L 2450 531 
L 3481 531 
L 3481 0 
L 794 0 
L 794 531 
z
" transform="scale(0.015625)"/>
       </defs>
       <use xlink:href="#DejaVuSans-32"/>
       <use xlink:href="#DejaVuSans-30" x="63.623047"/>
       <use xlink:href="#DejaVuSans-32" x="127.246094"/>
       <use xlink:href="#DejaVuSans-32" x="190.869141"/>
       <use xlink:href="#DejaVuSans-2d" x="254.492188"/>
       <use xlink:href="#DejaVuSans-30" x="290.576172"/>
       <use xlink:href="#DejaVuSans-31" x="354.199219"/>
       <use xlink:href="#DejaVuSans-2d" x="417.822266"/>
       <use xlink:href="#DejaVuSans-30" x="453.90625"/>
       <use xlink:href="#DejaVuSans-31" x="517.529297"/>
      </g>
     </g>
    </g>
    <g id="xtick_2">
     <g id="line2d_2">
      <g>
       <use xlink:href="#m9dbf5c2ec9" x="214.626479" y="320.4" style="stroke: #000000; stroke-width: 0.8"/>
      </g>
     </g>
     <g id="text_2">
      <!-- 2022-01-03 -->
      <g transform="translate(179.757104 336.518125) scale(0.12 -0.12)">
       <defs>
        <path id="DejaVuSans-33" d="M 2597 2516 
Q 3050 2419 3304 2112 
Q 3559 1806 3559 1356 
Q 3559 666 3084 287 
Q 2609 -91 1734 -91 
Q 1441 -91 1130 -33 
Q 819 25 488 141 
L 488 750 
Q 750 597 1062 519 
Q 1375 441 1716 441 
Q 2309 441 2620 675 
Q 2931 909 2931 1356 
Q 2931 1769 2642 2001 
Q 2353 2234 1838 2234 
L 1294 2234 
L 1294 2753 
L 1863 2753 
Q 2328 2753 2575 2939 
Q 2822 3125 2822 3475 
Q 2822 3834 2567 4026 
Q 2313 4219 1838 4219 
Q 1578 4219 1281 4162 
Q 984 4106 628 3988 
L 628 4550 
Q 988 4650 1302 4700 
Q 1616 4750 1894 4750 
Q 2613 4750 3031 4423 
Q 3450 4097 3450 3541 
Q 3450 3153 3228 2886 
Q 3006 2619 2597 2516 
z
" transform="scale(0.015625)"/>
       </defs>
       <use xlink:href="#DejaVuSans-32"/>
       <use xlink:href="#DejaVuSans-30" x="63.623047"/>
       <use xlink:href="#DejaVuSans-32" x="127.246094"/>
       <use xlink:href="#DejaVuSans-32" x="190.869141"/>
       <use xlink:href="#DejaVuSans-2d" x="254.492188"/>
       <use xlink:href="#DejaVuSans-30" x="290.576172"/>
       <use xlink:href="#DejaVuSans-31" x="354.199219"/>
       <use xlink:href="#DejaVuSans-2d" x="417.822266"/>
       <use xlink:href="#DejaVuSans-30" x="453.90625"/>
       <use xlink:href="#DejaVuSans-33" x="517.529297"/>
      </g>
     </g>
    </g>
    <g id="xtick_3">
     <g id="line2d_3">
      <g>
       <use xlink:href="#m9dbf5c2ec9" x="290.816594" y="320.4" style="stroke: #000000; stroke-width: 0.8"/>
      </g>
     </g>
     <g id="text_3">
      <!-- 2022-01-05 -->
      <g transform="translate(255.947219 336.518125) scale(0.12 -0.12)">
       <defs>
        <path id="DejaVuSans-35" d="M 691 4666 
L 3169 4666 
L 3169 4134 
L 1269 4134 
L 1269 2991 
Q 1406 3038 1543 3061 
Q 1681 3084 1819 3084 
Q 2600 3084 3056 2656 
Q 3513 2228 3513 1497 
Q 3513 744 3044 326 
Q 2575 -91 1722 -91 
Q 1428 -91 1123 -41 
Q 819 9 494 109 
L 494 744 
Q 775 591 1075 516 
Q 1375 441 1709 441 
Q 2250 441 2565 725 
Q 2881 1009 2881 1497 
Q 2881 1984 2565 2268 
Q 2250 2553 1709 2553 
Q 1456 2553 1204 2497 
Q 953 2441 691 2322 
L 691 4666 
z
" transform="scale(0.015625)"/>
       </defs>
       <use xlink:href="#DejaVuSans-32"/>
       <use xlink:href="#DejaVuSans-30" x="63.623047"/>
       <use xlink:href="#DejaVuSans-32" x="127.246094"/>
       <use xlink:href="#DejaVuSans-32" x="190.869141"/>
       <use xlink:href="#DejaVuSans-2d" x="254.492188"/>
       <use xlink:href="#DejaVuSans-30" x="290.576172"/>
       <use xlink:href="#DejaVuSans-31" x="354.199219"/>
       <use xlink:href="#DejaVuSans-2d" x="417.822266"/>
       <use xlink:href="#DejaVuSans-30" x="453.90625"/>
       <use xlink:href="#DejaVuSans-35" x="517.529297"/>
      </g>
     </g>
    </g>
    <g id="xtick_4">
     <g id="line2d_4">
      <g>
       <use xlink:href="#m9dbf5c2ec9" x="367.006709" y="320.4" style="stroke: #000000; stroke-width: 0.8"/>
      </g>
     </g>
     <g id="text_4">
      <!-- 2022-01-07 -->
      <g transform="translate(332.137334 336.518125) scale(0.12 -0.12)">
       <defs>
        <path id="DejaVuSans-37" d="M 525 4666 
L 3525 4666 
L 3525 4397 
L 1831 0 
L 1172 0 
L 2766 4134 
L 525 4134 
L 525 4666 
z
" transform="scale(0.015625)"/>
       </defs>
       <use xlink:href="#DejaVuSans-32"/>
       <use xlink:href="#DejaVuSans-30" x="63.623047"/>
       <use xlink:href="#DejaVuSans-32" x="127.246094"/>
       <use xlink:href="#DejaVuSans-32" x="190.869141"/>
       <use xlink:href="#DejaVuSans-2d" x="254.492188"/>
       <use xlink:href="#DejaVuSans-30" x="290.576172"/>
       <use xlink:href="#DejaVuSans-31" x="354.199219"/>
       <use xlink:href="#DejaVuSans-2d" x="417.822266"/>
       <use xlink:href="#DejaVuSans-30" x="453.90625"/>
       <use xlink:href="#DejaVuSans-37" x="517.529297"/>
      </g>
     </g>
    </g>
    <g id="xtick_5">
     <g id="line2d_5">
      <g>
       <use xlink:href="#m9dbf5c2ec9" x="443.196824" y="320.4" style="stroke: #000000; stroke-width: 0.8"/>
      </g>
     </g>
     <g id="text_5">
      <!-- 2022-01-09 -->
      <g transform="translate(408.327449 336.518125) scale(0.12 -0.12)">
       <defs>
        <path id="DejaVuSans-39" d="M 703 97 
L 703 672 
Q 941 559 1184 500 
Q 1428 441 1663 441 
Q 2288 441 2617 861 
Q 2947 1281 2994 2138 
Q 2813 1869 2534 1725 
Q 2256 1581 1919 1581 
Q 1219 1581 811 2004 
Q 403 2428 403 3163 
Q 403 3881 828 4315 
Q 1253 4750 1959 4750 
Q 2769 4750 3195 4129 
Q 3622 3509 3622 2328 
Q 3622 1225 3098 567 
Q 2575 -91 1691 -91 
Q 1453 -91 1209 -44 
Q 966 3 703 97 
z
M 1959 2075 
Q 2384 2075 2632 2365 
Q 2881 2656 2881 3163 
Q 2881 3666 2632 3958 
Q 2384 4250 1959 4250 
Q 1534 4250 1286 3958 
Q 1038 3666 1038 3163 
Q 1038 2656 1286 2365 
Q 1534 2075 1959 2075 
z
" transform="scale(0.015625)"/>
       </defs>
       <use xlink:href="#DejaVuSans-32"/>
       <use xlink:href="#DejaVuSans-30" x="63.623047"/>
       <use xlink:href="#DejaVuSans-32" x="127.246094"/>
       <use xlink:href="#DejaVuSans-32" x="190.869141"/>
       <use xlink:href="#DejaVuSans-2d" x="254.492188"/>
       <use xlink:href="#DejaVuSans-30" x="290.576172"/>
       <use xlink:href="#DejaVuSans-31" x="354.199219"/>
       <use xlink:href="#DejaVuSans-2d" x="417.822266"/>
       <use xlink:href="#DejaVuSans-30" x="453.90625"/>
       <use xlink:href="#DejaVuSans-39" x="517.529297"/>
      </g>
     </g>
    </g>
    <g id="xtick_6">
     <g id="line2d_6">
      <g>
       <use xlink:href="#m9dbf5c2ec9" x="519.386938" y="320.4" style="stroke: #000000; stroke-width: 0.8"/>
      </g>
     </g>
     <g id="text_6">
      <!-- 2022-01-11 -->
      <g transform="translate(484.517563 336.518125) scale(0.12 -0.12)">
       <use xlink:href="#DejaVuSans-32"/>
       <use xlink:href="#DejaVuSans-30" x="63.623047"/>
       <use xlink:href="#DejaVuSans-32" x="127.246094"/>
       <use xlink:href="#DejaVuSans-32" x="190.869141"/>
       <use xlink:href="#DejaVuSans-2d" x="254.492188"/>
       <use xlink:href="#DejaVuSans-30" x="290.576172"/>
       <use xlink:href="#DejaVuSans-31" x="354.199219"/>
       <use xlink:href="#DejaVuSans-2d" x="417.822266"/>
       <use xlink:href="#DejaVuSans-31" x="453.90625"/>
       <use xlink:href="#DejaVuSans-31" x="517.529297"/>
      </g>
     </g>
    </g>
    <g id="xtick_7">
     <g id="line2d_7">
      <g>
       <use xlink:href="#m9dbf5c2ec9" x="595.577053" y="320.4" style="stroke: #000000; stroke-width: 0.8"/>
      </g>
     </g>
     <g id="text_7">
      <!-- 2022-01-13 -->
      <g transform="translate(560.707678 336.518125) scale(0.12 -0.12)">
       <use xlink:href="#DejaVuSans-32"/>
       <use xlink:href="#DejaVuSans-30" x="63.623047"/>
       <use xlink:href="#DejaVuSans-32" x="127.246094"/>
       <use xlink:href="#DejaVuSans-32" x="190.869141"/>
       <use xlink:href="#DejaVuSans-2d" x="254.492188"/>
       <use xlink:href="#DejaVuSans-30" x="290.576172"/>
       <use xlink:href="#DejaVuSans-31" x="354.199219"/>
       <use xlink:href="#DejaVuSans-2d" x="417.822266"/>
       <use xlink:href="#DejaVuSans-31" x="453.90625"/>
       <use xlink:href="#DejaVuSans-33" x="517.529297"/>
      </g>
     </g>
    </g>
    <g id="xtick_8">
     <g id="line2d_8">
      <g>
       <use xlink:href="#m9dbf5c2ec9" x="671.767168" y="320.4" style="stroke: #000000; stroke-width: 0.8"/>
      </g>
     </g>
     <g id="text_8">
      <!-- 2022-01-15 -->
      <g transform="translate(636.897793 336.518125) scale(0.12 -0.12)">
       <use xlink:href="#DejaVuSans-32"/>
       <use xlink:href="#DejaVuSans-30" x="63.623047"/>
       <use xlink:href="#DejaVuSans-32" x="127.246094"/>
       <use xlink:href="#DejaVuSans-32" x="190.869141"/>
       <use xlink:href="#DejaVuSans-2d" x="254.492188"/>
       <use xlink:href="#DejaVuSans-30" x="290.576172"/>
       <use xlink:href="#DejaVuSans-31" x="354.199219"/>
       <use xlink:href="#DejaVuSans-2d" x="417.822266"/>
       <use xlink:href="#DejaVuSans-31" x="453.90625"/>
       <use xlink:href="#DejaVuSans-35" x="517.529297"/>
      </g>
     </g>
    </g>
    <g id="xtick_9">
     <g id="line2d_9">
      <g>
       <use xlink:href="#m9dbf5c2ec9" x="747.957283" y="320.4" style="stroke: #000000; stroke-width: 0.8"/>
      </g>
     </g>
     <g id="text_9">
      <!-- 2022-01-17 -->
      <g transform="translate(713.087908 336.518125) scale(0.12 -0.12)">
       <use xlink:href="#DejaVuSans-32"/>
       <use xlink:href="#DejaVuSans-30" x="63.623047"/>
       <use xlink:href="#DejaVuSans-32" x="127.246094"/>
       <use xlink:href="#DejaVuSans-32" x="190.869141"/>
       <use xlink:href="#DejaVuSans-2d" x="254.492188"/>
       <use xlink:href="#DejaVuSans-30" x="290.576172"/>
       <use xlink:href="#DejaVuSans-31" x="354.199219"/>
       <use xlink:href="#DejaVuSans-2d" x="417.822266"/>
       <use xlink:href="#DejaVuSans-31" x="453.90625"/>
       <use xlink:href="#DejaVuSans-37" x="517.529297"/>
      </g>
     </g>
    </g>
    <g id="text_10">
     <!-- TIME (DAYS) -->
     <g transform="translate(393.97375 355.17125) scale(0.16 -0.16)">
      <defs>
       <path id="DejaVuSans-54" d="M -19 4666 
L 3928 4666 
L 3928 4134 
L 2272 4134 
L 2272 0 
L 1638 0 
L 1638 4134 
L -19 4134 
L -19 4666 
z
" transform="scale(0.015625)"/>
       <path id="DejaVuSans-49" d="M 628 4666 
L 1259 4666 
L 1259 0 
L 628 0 
L 628 4666 
z
" transform="scale(0.015625)"/>
       <path id="DejaVuSans-4d" d="M 628 4666 
L 1569 4666 
L 2759 1491 
L 3956 4666 
L 4897 4666 
L 4897 0 
L 4281 0 
L 4281 4097 
L 3078 897 
L 2444 897 
L 1241 4097 
L 1241 0 
L 628 0 
L 628 4666 
z
" transform="scale(0.015625)"/>
       <path id="DejaVuSans-45" d="M 628 4666 
L 3578 4666 
L 3578 4134 
L 1259 4134 
L 1259 2753 
L 3481 2753 
L 3481 2222 
L 1259 2222 
L 1259 531 
L 3634 531 
L 3634 0 
L 628 0 
L 628 4666 
z
" transform="scale(0.015625)"/>
       <path id="DejaVuSans-20" transform="scale(0.015625)"/>
       <path id="DejaVuSans-28" d="M 1984 4856 
Q 1566 4138 1362 3434 
Q 1159 2731 1159 2009 
Q 1159 1288 1364 580 
Q 1569 -128 1984 -844 
L 1484 -844 
Q 1016 -109 783 600 
Q 550 1309 550 2009 
Q 550 2706 781 3412 
Q 1013 4119 1484 4856 
L 1984 4856 
z
" transform="scale(0.015625)"/>
       <path id="DejaVuSans-44" d="M 1259 4147 
L 1259 519 
L 2022 519 
Q 2988 519 3436 956 
Q 3884 1394 3884 2338 
Q 3884 3275 3436 3711 
Q 2988 4147 2022 4147 
L 1259 4147 
z
M 628 4666 
L 1925 4666 
Q 3281 4666 3915 4102 
Q 4550 3538 4550 2338 
Q 4550 1131 3912 565 
Q 3275 0 1925 0 
L 628 0 
L 628 4666 
z
" transform="scale(0.015625)"/>
       <path id="DejaVuSans-41" d="M 2188 4044 
L 1331 1722 
L 3047 1722 
L 2188 4044 
z
M 1831 4666 
L 2547 4666 
L 4325 0 
L 3669 0 
L 3244 1197 
L 1141 1197 
L 716 0 
L 50 0 
L 1831 4666 
z
" transform="scale(0.015625)"/>
       <path id="DejaVuSans-59" d="M -13 4666 
L 666 4666 
L 1959 2747 
L 3244 4666 
L 3922 4666 
L 2272 2222 
L 2272 0 
L 1638 0 
L 1638 2222 
L -13 4666 
z
" transform="scale(0.015625)"/>
       <path id="DejaVuSans-53" d="M 3425 4513 
L 3425 3897 
Q 3066 4069 2747 4153 
Q 2428 4238 2131 4238 
Q 1616 4238 1336 4038 
Q 1056 3838 1056 3469 
Q 1056 3159 1242 3001 
Q 1428 2844 1947 2747 
L 2328 2669 
Q 3034 2534 3370 2195 
Q 3706 1856 3706 1288 
Q 3706 609 3251 259 
Q 2797 -91 1919 -91 
Q 1588 -91 1214 -16 
Q 841 59 441 206 
L 441 856 
Q 825 641 1194 531 
Q 1563 422 1919 422 
Q 2459 422 2753 634 
Q 3047 847 3047 1241 
Q 3047 1584 2836 1778 
Q 2625 1972 2144 2069 
L 1759 2144 
Q 1053 2284 737 2584 
Q 422 2884 422 3419 
Q 422 4038 858 4394 
Q 1294 4750 2059 4750 
Q 2388 4750 2728 4690 
Q 3069 4631 3425 4513 
z
" transform="scale(0.015625)"/>
       <path id="DejaVuSans-29" d="M 513 4856 
L 1013 4856 
Q 1481 4119 1714 3412 
Q 1947 2706 1947 2009 
Q 1947 1309 1714 600 
Q 1481 -109 1013 -844 
L 513 -844 
Q 928 -128 1133 580 
Q 1338 1288 1338 2009 
Q 1338 2731 1133 3434 
Q 928 4138 513 4856 
z
" transform="scale(0.015625)"/>
      </defs>
      <use xlink:href="#DejaVuSans-54"/>
      <use xlink:href="#DejaVuSans-49" x="61.083984"/>
      <use xlink:href="#DejaVuSans-4d" x="90.576172"/>
      <use xlink:href="#DejaVuSans-45" x="176.855469"/>
      <use xlink:href="#DejaVuSans-20" x="240.039062"/>
      <use xlink:href="#DejaVuSans-28" x="271.826172"/>
      <use xlink:href="#DejaVuSans-44" x="310.839844"/>
      <use xlink:href="#DejaVuSans-41" x="386.091797"/>
      <use xlink:href="#DejaVuSans-59" x="446.75"/>
      <use xlink:href="#DejaVuSans-53" x="507.833984"/>
      <use xlink:href="#DejaVuSans-29" x="571.310547"/>
     </g>
    </g>
   </g>
   <g id="matplotlib.axis_2">
    <g id="ytick_1">
     <g id="line2d_10">
      <defs>
       <path id="mdba54781e8" d="M 0 0 
L -3.5 0 
" style="stroke: #000000; stroke-width: 0.8"/>
      </defs>
      <g>
       <use xlink:href="#mdba54781e8" x="108" y="307.8" style="stroke: #000000; stroke-width: 0.8"/>
      </g>
     </g>
     <g id="text_11">
      <!-- 0 -->
      <g transform="translate(93.365 312.359062) scale(0.12 -0.12)">
       <use xlink:href="#DejaVuSans-30"/>
      </g>
     </g>
    </g>
    <g id="ytick_2">
     <g id="line2d_11">
      <g>
       <use xlink:href="#mdba54781e8" x="108" y="247.8" style="stroke: #000000; stroke-width: 0.8"/>
      </g>
     </g>
     <g id="text_12">
      <!-- 50 -->
      <g transform="translate(85.73 252.359062) scale(0.12 -0.12)">
       <use xlink:href="#DejaVuSans-35"/>
       <use xlink:href="#DejaVuSans-30" x="63.623047"/>
      </g>
     </g>
    </g>
    <g id="ytick_3">
     <g id="line2d_12">
      <g>
       <use xlink:href="#mdba54781e8" x="108" y="187.8" style="stroke: #000000; stroke-width: 0.8"/>
      </g>
     </g>
     <g id="text_13">
      <!-- 100 -->
      <g transform="translate(78.095 192.359062) scale(0.12 -0.12)">
       <use xlink:href="#DejaVuSans-31"/>
       <use xlink:href="#DejaVuSans-30" x="63.623047"/>
       <use xlink:href="#DejaVuSans-30" x="127.246094"/>
      </g>
     </g>
    </g>
    <g id="ytick_4">
     <g id="line2d_13">
      <g>
       <use xlink:href="#mdba54781e8" x="108" y="127.8" style="stroke: #000000; stroke-width: 0.8"/>
      </g>
     </g>
     <g id="text_14">
      <!-- 150 -->
      <g transform="translate(78.095 132.359062) scale(0.12 -0.12)">
       <use xlink:href="#DejaVuSans-31"/>
       <use xlink:href="#DejaVuSans-35" x="63.623047"/>
       <use xlink:href="#DejaVuSans-30" x="127.246094"/>
      </g>
     </g>
    </g>
    <g id="ytick_5">
     <g id="line2d_14">
      <g>
       <use xlink:href="#mdba54781e8" x="108" y="67.8" style="stroke: #000000; stroke-width: 0.8"/>
      </g>
     </g>
     <g id="text_15">
      <!-- 200 -->
      <g transform="translate(78.095 72.359062) scale(0.12 -0.12)">
       <use xlink:href="#DejaVuSans-32"/>
       <use xlink:href="#DejaVuSans-30" x="63.623047"/>
       <use xlink:href="#DejaVuSans-30" x="127.246094"/>
      </g>
     </g>
    </g>
    <g id="text_16">
     <!-- SIMULATED -->
     <g transform="translate(52.851 227.5875) rotate(-90) scale(0.16 -0.16)">
      <defs>
       <path id="DejaVuSans-55" d="M 556 4666 
L 1191 4666 
L 1191 1831 
Q 1191 1081 1462 751 
Q 1734 422 2344 422 
Q 2950 422 3222 751 
Q 3494 1081 3494 1831 
L 3494 4666 
L 4128 4666 
L 4128 1753 
Q 4128 841 3676 375 
Q 3225 -91 2344 -91 
Q 1459 -91 1007 375 
Q 556 841 556 1753 
L 556 4666 
z
" transform="scale(0.015625)"/>
       <path id="DejaVuSans-4c" d="M 628 4666 
L 1259 4666 
L 1259 531 
L 3531 531 
L 3531 0 
L 628 0 
L 628 4666 
z
" transform="scale(0.015625)"/>
      </defs>
      <use xlink:href="#DejaVuSans-53"/>
      <use xlink:href="#DejaVuSans-49" x="63.476562"/>
      <use xlink:href="#DejaVuSans-4d" x="92.96875"/>
      <use xlink:href="#DejaVuSans-55" x="179.248047"/>
      <use xlink:href="#DejaVuSans-4c" x="252.441406"/>
      <use xlink:href="#DejaVuSans-41" x="310.404297"/>
      <use xlink:href="#DejaVuSans-54" x="371.0625"/>
      <use xlink:href="#DejaVuSans-45" x="432.146484"/>
      <use xlink:href="#DejaVuSans-44" x="495.330078"/>
     </g>
     <!-- AMPLITUDE -->
     <g transform="translate(70.7675 227.7725) rotate(-90) scale(0.16 -0.16)">
      <defs>
       <path id="DejaVuSans-50" d="M 1259 4147 
L 1259 2394 
L 2053 2394 
Q 2494 2394 2734 2622 
Q 2975 2850 2975 3272 
Q 2975 3691 2734 3919 
Q 2494 4147 2053 4147 
L 1259 4147 
z
M 628 4666 
L 2053 4666 
Q 2838 4666 3239 4311 
Q 3641 3956 3641 3272 
Q 3641 2581 3239 2228 
Q 2838 1875 2053 1875 
L 1259 1875 
L 1259 0 
L 628 0 
L 628 4666 
z
" transform="scale(0.015625)"/>
      </defs>
      <use xlink:href="#DejaVuSans-41"/>
      <use xlink:href="#DejaVuSans-4d" x="68.408203"/>
      <use xlink:href="#DejaVuSans-50" x="154.6875"/>
      <use xlink:href="#DejaVuSans-4c" x="214.990234"/>
      <use xlink:href="#DejaVuSans-49" x="270.703125"/>
      <use xlink:href="#DejaVuSans-54" x="300.195312"/>
      <use xlink:href="#DejaVuSans-55" x="361.279297"/>
      <use xlink:href="#DejaVuSans-44" x="434.472656"/>
      <use xlink:href="#DejaVuSans-45" x="511.474609"/>
     </g>
    </g>
   </g>
   <g id="line2d_15">
    <path d="M 138.436364 208.2 
L 139.230011 307.8 
L 140.023658 256.2 
L 140.817305 307.8 
L 141.610952 262.2 
L 142.404599 244.2 
L 143.198246 307.8 
L 143.991893 269.4 
L 144.78554 307.8 
L 145.579187 307.8 
L 146.372834 247.8 
L 147.166481 307.8 
L 147.960128 307.8 
L 148.753775 262.2 
L 149.547422 307.8 
L 151.928363 307.8 
L 152.72201 265.8 
L 153.515657 259.8 
L 154.309304 208.2 
L 155.102951 276.6 
L 155.896598 307.8 
L 156.690245 298.2 
L 157.483892 307.8 
L 158.277539 235.8 
L 159.071186 81 
L 160.658481 213 
L 161.452128 173.4 
L 162.245775 157.8 
L 163.039422 180.6 
L 163.833069 215.4 
L 164.626716 173.4 
L 165.420363 213 
L 166.21401 220.2 
L 167.007657 166.2 
L 167.801304 191.4 
L 168.594951 114.6 
L 169.388598 253.8 
L 170.182245 190.2 
L 170.975892 204.6 
L 171.769539 157.8 
L 172.563186 171 
L 173.356833 189 
L 174.15048 171 
L 174.944127 131.4 
L 175.737774 238.2 
L 176.531421 214.2 
L 177.325068 234.6 
L 178.118715 307.8 
L 178.912362 307.8 
L 179.706009 264.6 
L 180.499656 305.4 
L 181.293303 275.4 
L 182.08695 307.8 
L 182.880597 219 
L 183.674244 275.4 
L 184.467891 259.8 
L 185.261538 307.8 
L 186.055185 277.8 
L 186.848833 301.8 
L 187.64248 307.8 
L 188.436127 306.6 
L 189.229774 307.8 
L 190.023421 288.6 
L 190.817068 307.8 
L 191.610715 281.4 
L 192.404362 307.8 
L 193.198009 307.8 
L 193.991656 298.2 
L 194.785303 279 
L 195.57895 307.8 
L 196.372597 286.2 
L 197.166244 172.2 
L 197.959891 197.4 
L 198.753538 154.2 
L 199.547185 186.6 
L 200.340832 156.6 
L 201.134479 214.2 
L 201.928126 155.4 
L 202.721773 177 
L 203.51542 207 
L 204.309067 154.2 
L 205.102714 225 
L 205.896361 165 
L 206.690008 185.4 
L 207.483655 221.4 
L 208.277302 168.6 
L 209.070949 202.2 
L 209.864596 255 
L 210.658243 136.2 
L 211.45189 262.2 
L 212.245538 133.8 
L 213.039185 233.4 
L 213.832832 168.6 
L 214.626479 138.6 
L 215.420126 208.2 
L 216.213773 295.8 
L 217.00742 305.4 
L 217.801067 271.8 
L 218.594714 259.8 
L 219.388361 307.8 
L 220.182008 232.2 
L 220.975655 307.8 
L 221.769302 307.8 
L 222.562949 297 
L 223.356596 229.8 
L 224.150243 306.6 
L 224.94389 268.2 
L 225.737537 307.8 
L 226.531184 307.8 
L 227.324831 253.8 
L 228.118478 295.8 
L 228.912125 262.2 
L 229.705772 307.8 
L 230.499419 226.2 
L 231.293066 307.8 
L 232.88036 307.8 
L 233.674007 305.4 
L 234.467654 307.8 
L 235.261301 225 
L 236.054948 178.2 
L 236.848595 115.8 
L 237.642243 174.6 
L 238.43589 196.2 
L 239.229537 222.6 
L 240.023184 216.6 
L 240.816831 171 
L 241.610478 177 
L 242.404125 250.2 
L 243.197772 183 
L 243.991419 246.6 
L 246.37236 130.2 
L 247.166007 257.4 
L 247.959654 133.8 
L 248.753301 136.2 
L 249.546948 234.6 
L 250.340595 119.4 
L 251.134242 172.2 
L 251.927889 113.4 
L 252.721536 175.8 
L 253.515183 172.2 
L 254.30883 264.6 
L 255.102477 267 
L 255.896124 241.8 
L 256.689771 249 
L 257.483418 265.8 
L 258.277065 256.2 
L 259.070712 307.8 
L 259.864359 205.8 
L 260.658006 211.8 
L 261.451653 307.8 
L 262.2453 307.8 
L 263.038947 281.4 
L 263.832595 276.6 
L 264.626242 257.4 
L 265.419889 222.6 
L 266.213536 307.8 
L 267.007183 307.8 
L 267.80083 282.6 
L 268.594477 307.8 
L 269.388124 235.8 
L 270.181771 307.8 
L 272.562712 307.8 
L 273.356359 295.8 
L 274.150006 211.8 
L 274.943653 177 
L 275.7373 210.6 
L 276.530947 211.8 
L 277.324594 229.8 
L 278.118241 217.8 
L 278.911888 139.8 
L 279.705535 117 
L 280.499182 195 
L 281.292829 150.6 
L 282.086476 227.4 
L 282.880123 145.8 
L 283.67377 190.2 
L 284.467417 148.2 
L 285.261064 262.2 
L 286.054711 55.8 
L 286.848358 197.4 
L 287.642005 261 
L 288.435652 173.4 
L 289.2293 151.8 
L 290.022947 196.2 
L 290.816594 143.4 
L 291.610241 241.8 
L 292.403888 199.8 
L 293.197535 179.4 
L 293.991182 225 
L 294.784829 307.8 
L 295.578476 289.8 
L 296.372123 307.8 
L 298.753064 307.8 
L 299.546711 244.2 
L 300.340358 285 
L 301.134005 307.8 
L 301.927652 294.6 
L 302.721299 307.8 
L 303.514946 307.8 
L 304.308593 262.2 
L 305.10224 307.8 
L 305.895887 307.8 
L 307.483181 253.8 
L 308.276828 307.8 
L 309.070475 271.8 
L 309.864122 265.8 
L 310.657769 307.8 
L 311.451416 307.8 
L 312.245063 238.2 
L 313.03871 258.6 
L 313.832357 118.2 
L 314.626005 193.8 
L 315.419652 256.2 
L 316.213299 203.4 
L 317.006946 251.4 
L 317.800593 165 
L 318.59424 270.6 
L 319.387887 289.8 
L 320.181534 234.6 
L 321.768828 77.4 
L 322.562475 178.2 
L 323.356122 261 
L 324.149769 228.6 
L 324.943416 227.4 
L 325.737063 113.4 
L 326.53071 226.2 
L 327.324357 265.8 
L 328.118004 177 
L 328.911651 148.2 
L 329.705298 247.8 
L 330.498945 175.8 
L 331.292592 252.6 
L 332.086239 299.4 
L 332.879886 307.8 
L 333.673533 303 
L 334.46718 232.2 
L 335.260827 287.4 
L 336.054474 307.8 
L 336.848121 233.4 
L 337.641768 307.8 
L 340.816357 307.8 
L 341.610004 292.2 
L 342.403651 293.4 
L 343.197298 307.8 
L 343.990945 279 
L 344.784592 293.4 
L 345.578239 255 
L 346.371886 265.8 
L 347.165533 293.4 
L 347.95918 173.4 
L 348.752827 289.8 
L 349.546474 307.8 
L 350.340121 307.8 
L 351.133768 174.6 
L 351.927415 208.2 
L 352.721062 171 
L 353.514709 233.4 
L 354.308356 191.4 
L 355.102003 174.6 
L 355.89565 173.4 
L 356.689297 120.6 
L 357.482944 246.6 
L 359.070238 129 
L 359.863885 198.6 
L 360.657532 141 
L 361.451179 127.8 
L 362.244826 154.2 
L 363.038473 257.4 
L 363.83212 247.8 
L 364.625767 197.4 
L 365.419414 229.8 
L 366.213062 111 
L 367.800356 190.2 
L 368.594003 219 
L 369.38765 132.6 
L 370.181297 298.2 
L 370.974944 307.8 
L 374.943179 307.8 
L 375.736826 287.4 
L 376.530473 289.8 
L 377.32412 307.8 
L 378.117767 307.8 
L 378.911414 273 
L 379.705061 280.2 
L 380.498708 264.6 
L 381.292355 273 
L 382.086002 239.4 
L 383.673296 305.4 
L 384.466943 204.6 
L 385.26059 307.8 
L 386.054237 283.8 
L 386.847884 307.8 
L 389.228825 307.8 
L 390.022472 217.8 
L 390.816119 147 
L 391.609767 175.8 
L 392.403414 166.2 
L 393.197061 172.2 
L 393.990708 171 
L 394.784355 129 
L 395.578002 174.6 
L 396.371649 205.8 
L 397.165296 145.8 
L 397.958943 245.4 
L 398.75259 162.6 
L 399.546237 192.6 
L 400.339884 162.6 
L 401.133531 127.8 
L 401.927178 294.6 
L 402.720825 189 
L 403.514472 215.4 
L 404.308119 162.6 
L 405.101766 190.2 
L 405.895413 239.4 
L 407.482707 185.4 
L 408.276354 274.2 
L 409.070001 241.8 
L 409.863648 307.8 
L 410.657295 307.8 
L 411.450942 186.6 
L 412.244589 307.8 
L 413.038236 283.8 
L 413.831883 307.8 
L 414.62553 268.2 
L 415.419177 300.6 
L 416.212824 295.8 
L 417.006471 275.4 
L 417.800119 245.4 
L 418.593766 231 
L 419.387413 264.6 
L 420.18106 253.8 
L 420.974707 238.2 
L 421.768354 307.8 
L 425.736589 307.8 
L 426.530236 214.2 
L 427.323883 307.8 
L 428.11753 115.8 
L 428.911177 190.2 
L 429.704824 222.6 
L 430.498471 214.2 
L 431.292118 216.6 
L 432.085765 198.6 
L 432.879412 175.8 
L 433.673059 250.2 
L 434.466706 121.8 
L 435.260353 142.2 
L 436.054 150.6 
L 436.847647 154.2 
L 437.641294 183 
L 438.434941 193.8 
L 439.228588 199.8 
L 440.022235 132.6 
L 440.815882 223.8 
L 441.609529 169.8 
L 442.403176 229.8 
L 443.990471 166.2 
L 444.784118 210.6 
L 445.577765 225 
L 446.371412 192.6 
L 447.165059 210.6 
L 447.958706 279 
L 448.752353 305.4 
L 449.546 301.8 
L 450.339647 307.8 
L 451.926941 307.8 
L 452.720588 292.2 
L 453.514235 307.8 
L 454.307882 243 
L 455.101529 307.8 
L 455.895176 166.2 
L 456.688823 307.8 
L 457.48247 261 
L 458.276117 275.4 
L 459.069764 307.8 
L 459.863411 255 
L 460.657058 307.8 
L 461.450705 239.4 
L 462.244352 277.8 
L 463.037999 289.8 
L 463.831646 270.6 
L 464.625293 301.8 
L 465.41894 269.4 
L 466.212587 307.8 
L 467.006234 213 
L 467.799881 157.8 
L 468.593529 213 
L 469.387176 213 
L 470.180823 209.4 
L 470.97447 227.4 
L 471.768117 222.6 
L 472.561764 209.4 
L 473.355411 209.4 
L 474.149058 291 
L 474.942705 207 
L 475.736352 256.2 
L 476.529999 180.6 
L 477.323646 129 
L 478.117293 273 
L 478.91094 69 
L 479.704587 243 
L 480.498234 177 
L 481.291881 150.6 
L 482.085528 185.4 
L 482.879175 101.4 
L 483.672822 126.6 
L 484.466469 90.6 
L 485.260116 221.4 
L 486.053763 177 
L 486.84741 255 
L 487.641057 282.6 
L 488.434704 280.2 
L 489.228351 267 
L 490.021998 276.6 
L 490.815645 228.6 
L 491.609292 307.8 
L 492.402939 267 
L 493.196586 307.8 
L 493.990233 280.2 
L 494.783881 275.4 
L 495.577528 307.8 
L 496.371175 307.8 
L 497.164822 258.6 
L 497.958469 286.2 
L 498.752116 300.6 
L 499.545763 307.8 
L 500.33941 286.2 
L 501.133057 303 
L 501.926704 287.4 
L 502.720351 307.8 
L 503.513998 298.2 
L 504.307645 307.8 
L 505.101292 294.6 
L 505.894939 307.8 
L 506.688586 292.2 
L 507.482233 172.2 
L 508.27588 186.6 
L 509.069527 207 
L 509.863174 184.2 
L 510.656821 263.4 
L 511.450468 165 
L 512.244115 151.8 
L 513.037762 121.8 
L 513.831409 197.4 
L 514.625056 185.4 
L 515.418703 157.8 
L 516.21235 197.4 
L 517.005997 245.4 
L 517.799644 253.8 
L 518.593291 195 
L 519.386938 201 
L 520.180586 169.8 
L 521.76788 191.4 
L 522.561527 162.6 
L 523.355174 165 
L 524.148821 185.4 
L 524.942468 157.8 
L 525.736115 233.4 
L 526.529762 196.2 
L 527.323409 244.2 
L 528.117056 307.8 
L 528.910703 285 
L 529.70435 283.8 
L 530.497997 307.8 
L 534.466232 307.8 
L 535.259879 244.2 
L 536.053526 307.8 
L 536.847173 221.4 
L 537.64082 239.4 
L 538.434467 186.6 
L 539.228114 307.8 
L 540.021761 287.4 
L 540.815408 280.2 
L 541.609055 286.2 
L 542.402702 256.2 
L 543.196349 307.8 
L 543.989996 282.6 
L 544.783643 297 
L 545.577291 303 
L 546.370938 263.4 
L 547.164585 185.4 
L 547.958232 196.2 
L 548.751879 168.6 
L 549.545526 189 
L 550.339173 239.4 
L 551.13282 244.2 
L 551.926467 198.6 
L 552.720114 226.2 
L 553.513761 129 
L 554.307408 303 
L 555.101055 123 
L 555.894702 183 
L 556.688349 142.2 
L 557.481996 219 
L 558.275643 239.4 
L 559.862937 139.8 
L 560.656584 145.8 
L 561.450231 157.8 
L 562.243878 205.8 
L 563.037525 132.6 
L 563.831172 245.4 
L 564.624819 179.4 
L 565.418466 256.2 
L 566.212113 183 
L 567.00576 139.8 
L 567.799407 297 
L 568.593054 303 
L 569.386701 307.8 
L 570.180348 295.8 
L 570.973995 307.8 
L 573.354937 307.8 
L 574.148584 228.6 
L 574.942231 307.8 
L 575.735878 244.2 
L 577.323172 307.8 
L 579.704113 307.8 
L 580.49776 288.6 
L 581.291407 307.8 
L 582.085054 307.8 
L 582.878701 277.8 
L 583.672348 307.8 
L 584.465995 307.8 
L 585.259642 183 
L 586.053289 307.8 
L 586.846936 307.8 
L 587.640583 189 
L 588.43423 159 
L 589.227877 88.2 
L 590.021524 232.2 
L 590.815171 199.8 
L 591.608818 192.6 
L 592.402465 267 
L 593.196112 243 
L 593.989759 202.2 
L 594.783406 280.2 
L 595.577053 192.6 
L 596.3707 192.6 
L 597.164348 232.2 
L 597.957995 138.6 
L 598.751642 162.6 
L 599.545289 179.4 
L 600.338936 229.8 
L 601.132583 173.4 
L 601.92623 95.4 
L 602.719877 217.8 
L 603.513524 201 
L 604.307171 148.2 
L 605.100818 217.8 
L 605.894465 240.6 
L 606.688112 159 
L 607.481759 307.8 
L 608.275406 240.6 
L 609.069053 229.8 
L 609.8627 304.2 
L 610.656347 298.2 
L 611.449994 307.8 
L 612.243641 275.4 
L 613.037288 298.2 
L 613.830935 307.8 
L 614.624582 307.8 
L 615.418229 301.8 
L 616.211876 307.8 
L 617.005523 265.8 
L 617.79917 307.8 
L 618.592817 307.8 
L 619.386464 294.6 
L 620.180111 307.8 
L 620.973758 307.8 
L 621.767405 225 
L 622.561053 291 
L 623.3547 291 
L 624.148347 307.8 
L 624.941994 233.4 
L 625.735641 222.6 
L 626.529288 241.8 
L 627.322935 233.4 
L 628.116582 175.8 
L 628.910229 229.8 
L 629.703876 181.8 
L 630.497523 195 
L 631.29117 137.4 
L 632.084817 135 
L 632.878464 211.8 
L 633.672111 139.8 
L 634.465758 174.6 
L 635.259405 181.8 
L 636.053052 175.8 
L 636.846699 250.2 
L 637.640346 208.2 
L 638.433993 123 
L 639.22764 192.6 
L 640.021287 161.4 
L 640.814934 274.2 
L 642.402228 172.2 
L 643.989522 234.6 
L 644.783169 243 
L 645.576816 270.6 
L 646.370463 174.6 
L 647.16411 166.2 
L 647.957757 262.2 
L 648.751405 307.8 
L 651.132346 307.8 
L 651.925993 271.8 
L 652.71964 307.8 
L 655.100581 307.8 
L 655.894228 270.6 
L 656.687875 307.8 
L 659.068816 307.8 
L 659.862463 291 
L 660.65611 307.8 
L 662.243404 307.8 
L 663.037051 304.2 
L 663.830698 307.8 
L 664.624345 250.2 
L 665.417992 283.8 
L 666.211639 240.6 
L 667.005286 235.8 
L 667.798933 157.8 
L 668.59258 162.6 
L 669.386227 159 
L 670.179874 298.2 
L 670.973521 250.2 
L 671.767168 139.8 
L 672.560815 174.6 
L 673.354462 155.4 
L 674.14811 237 
L 674.941757 177 
L 675.735404 220.2 
L 676.529051 149.4 
L 677.322698 120.6 
L 678.116345 106.2 
L 678.909992 245.4 
L 679.703639 166.2 
L 680.497286 136.2 
L 681.290933 129 
L 682.08458 137.4 
L 682.878227 149.4 
L 683.671874 163.8 
L 685.259168 251.4 
L 686.052815 166.2 
L 686.846462 240.6 
L 687.640109 270.6 
L 688.433756 307.8 
L 689.227403 285 
L 690.02105 307.8 
L 691.608344 307.8 
L 692.401991 265.8 
L 693.195638 234.6 
L 693.989285 307.8 
L 694.782932 307.8 
L 695.576579 239.4 
L 696.370226 282.6 
L 697.163873 307.8 
L 697.95752 304.2 
L 698.751167 307.8 
L 699.544815 205.8 
L 700.338462 307.8 
L 702.719403 307.8 
L 703.51305 276.6 
L 704.306697 307.8 
L 705.100344 292.2 
L 705.893991 307.8 
L 706.687638 262.2 
L 707.481285 179.4 
L 708.274932 168.6 
L 709.068579 204.6 
L 709.862226 209.4 
L 710.655873 221.4 
L 711.44952 133.8 
L 712.243167 108.6 
L 713.036814 151.8 
L 713.830461 211.8 
L 714.624108 115.8 
L 715.417755 172.2 
L 716.211402 209.4 
L 717.005049 255 
L 717.798696 109.8 
L 718.592343 244.2 
L 719.38599 154.2 
L 720.179637 184.2 
L 720.973284 167.4 
L 721.766931 241.8 
L 722.560578 149.4 
L 723.354225 189 
L 724.147872 175.8 
L 724.941519 232.2 
L 725.735167 186.6 
L 726.528814 273 
L 727.322461 185.4 
L 728.116108 246.6 
L 728.909755 294.6 
L 729.703402 307.8 
L 730.497049 285 
L 731.290696 220.2 
L 732.084343 280.2 
L 732.87799 307.8 
L 733.671637 270.6 
L 734.465284 305.4 
L 735.258931 307.8 
L 736.052578 252.6 
L 736.846225 307.8 
L 737.639872 307.8 
L 738.433519 211.8 
L 739.227166 307.8 
L 740.020813 288.6 
L 740.81446 307.8 
L 742.401754 307.8 
L 743.195401 255 
L 743.989048 307.8 
L 744.782695 286.2 
L 745.576342 285 
L 746.369989 307.8 
L 747.163636 307.8 
L 747.163636 307.8 
" clip-path="url(#pa2c891df5d)" style="fill: none; stroke: #191970; stroke-width: 2; stroke-linecap: square"/>
   </g>
   <g id="patch_3">
    <path d="M 108 320.4 
L 108 43.2 
" style="fill: none; stroke: #000000; stroke-width: 0.8; stroke-linejoin: miter; stroke-linecap: square"/>
   </g>
   <g id="patch_4">
    <path d="M 777.6 320.4 
L 777.6 43.2 
" style="fill: none; stroke: #000000; stroke-width: 0.8; stroke-linejoin: miter; stroke-linecap: square"/>
   </g>
   <g id="patch_5">
    <path d="M 108 320.4 
L 777.6 320.4 
" style="fill: none; stroke: #000000; stroke-width: 0.8; stroke-linejoin: miter; stroke-linecap: square"/>
   </g>
   <g id="patch_6">
    <path d="M 108 43.2 
L 777.6 43.2 
" style="fill: none; stroke: #000000; stroke-width: 0.8; stroke-linejoin: miter; stroke-linecap: square"/>
   </g>
   <g id="text_17">
    <!-- TIME SERIES -->
    <g transform="translate(386.625938 37.2) scale(0.18 -0.18)">
     <defs>
      <path id="DejaVuSans-52" d="M 2841 2188 
Q 3044 2119 3236 1894 
Q 3428 1669 3622 1275 
L 4263 0 
L 3584 0 
L 2988 1197 
Q 2756 1666 2539 1819 
Q 2322 1972 1947 1972 
L 1259 1972 
L 1259 0 
L 628 0 
L 628 4666 
L 2053 4666 
Q 2853 4666 3247 4331 
Q 3641 3997 3641 3322 
Q 3641 2881 3436 2590 
Q 3231 2300 2841 2188 
z
M 1259 4147 
L 1259 2491 
L 2053 2491 
Q 2509 2491 2742 2702 
Q 2975 2913 2975 3322 
Q 2975 3731 2742 3939 
Q 2509 4147 2053 4147 
L 1259 4147 
z
" transform="scale(0.015625)"/>
     </defs>
     <use xlink:href="#DejaVuSans-54"/>
     <use xlink:href="#DejaVuSans-49" x="61.083984"/>
     <use xlink:href="#DejaVuSans-4d" x="90.576172"/>
     <use xlink:href="#DejaVuSans-45" x="176.855469"/>
     <use xlink:href="#DejaVuSans-20" x="240.039062"/>
     <use xlink:href="#DejaVuSans-53" x="271.826172"/>
     <use xlink:href="#DejaVuSans-45" x="335.302734"/>
     <use xlink:href="#DejaVuSans-52" x="398.486328"/>
     <use xlink:href="#DejaVuSans-49" x="467.96875"/>
     <use xlink:href="#DejaVuSans-45" x="497.460938"/>
     <use xlink:href="#DejaVuSans-53" x="560.644531"/>
    </g>
   </g>
  </g>
 </g>
 <defs>
  <clipPath id="pa2c891df5d">
   <rect x="108" y="43.2" width="669.6" height="277.2"/>
  </clipPath>
 </defs>
</svg>
