<?xml version="1.0" encoding="utf-8" standalone="no"?>
<!DOCTYPE svg PUBLIC "-//W3C//DTD SVG 1.1//EN"
  "http://www.w3.org/Graphics/SVG/1.1/DTD/svg11.dtd">
<svg xmlns:xlink="http://www.w3.org/1999/xlink" width="864pt" height="360pt" viewBox="0 0 864 360" xmlns="http://www.w3.org/2000/svg" version="1.1">
 <metadata>
  <rdf:RDF xmlns:dc="http://purl.org/dc/elements/1.1/" xmlns:cc="http://creativecommons.org/ns#" xmlns:rdf="http://www.w3.org/1999/02/22-rdf-syntax-ns#">
   <cc:Work>
    <dc:type rdf:resource="http://purl.org/dc/dcmitype/StillImage"/>
    <dc:date>2023-11-27T21:13:11.178338</dc:date>
    <dc:format>image/svg+xml</dc:format>
    <dc:creator>
     <cc:Agent>
      <dc:title>Matplotlib v3.7.4, https://matplotlib.org/</dc:title>
     </cc:Agent>
    </dc:creator>
   </cc:Work>
  </rdf:RDF>
 </metadata>
 <defs>
  <style type="text/css">*{stroke-linejoin: round; stroke-linecap: butt}</style>
 </defs>
 <g id="figure_1">
  <g id="patch_1">
   <path d="M 0 360 
L 864 360 
L 864 0 
L 0 0 
z
" style="fill: #ffffff"/>
  </g>
  <g id="axes_1">
   <g id="patch_2">
    <path d="M 108 320.4 
L 777.6 320.4 
L 777.6 43.2 
L 108 43.2 
z
" style="fill: #ffffff"/>
   </g>
   <g id="matplotlib.axis_1">
    <g id="xtick_1">
     <g id="line2d_1">
      <defs>
       <path id="mcf379a06a5" d="M 0 0 
L 0 3.5 
" style="stroke: #000000; stroke-width: 0.8"/>
      </defs>
      <g>
       <use xlink:href="#mcf379a06a5" x="138.436364" y="320.4" style="stroke: #000000; stroke-width: 0.8"/>
      </g>
     </g>
     <g id="text_1">
      <!-- 2022-01-01 -->
      <g transform="translate(103.566989 336.518125) scale(0.12 -0.12)">
       <defs>
        <path id="DejaVuSans-32" d="M 1228 531 
L 3431 531 
L 3431 0 
L 469 0 
L 469 531 
Q 828 903 1448 1529 
Q 2069 2156 2228 2338 
Q 2531 2678 2651 2914 
Q 2772 3150 2772 3378 
Q 2772 3750 2511 3984 
Q 2250 4219 1831 4219 
Q 1534 4219 1204 4116 
Q 875 4013 500 3803 
L 500 4441 
Q 881 4594 1212 4672 
Q 1544 4750 1819 4750 
Q 2544 4750 2975 4387 
Q 3406 4025 3406 3419 
Q 3406 3131 3298 2873 
Q 3191 2616 2906 2266 
Q 2828 2175 2409 1742 
Q 1991 1309 1228 531 
z
" transform="scale(0.015625)"/>
        <path id="DejaVuSans-30" d="M 2034 4250 
Q 1547 4250 1301 3770 
Q 1056 3291 1056 2328 
Q 1056 1369 1301 889 
Q 1547 409 2034 409 
Q 2525 409 2770 889 
Q 3016 1369 3016 2328 
Q 3016 3291 2770 3770 
Q 2525 4250 2034 4250 
z
M 2034 4750 
Q 2819 4750 3233 4129 
Q 3647 3509 3647 2328 
Q 3647 1150 3233 529 
Q 2819 -91 2034 -91 
Q 1250 -91 836 529 
Q 422 1150 422 2328 
Q 422 3509 836 4129 
Q 1250 4750 2034 4750 
z
" transform="scale(0.015625)"/>
        <path id="DejaVuSans-2d" d="M 313 2009 
L 1997 2009 
L 1997 1497 
L 313 1497 
L 313 2009 
z
" transform="scale(0.015625)"/>
        <path id="DejaVuSans-31" d="M 794 531 
L 1825 531 
L 1825 4091 
L 703 3866 
L 703 4441 
L 1819 4666 
L 2450 4666 
L 2450 531 
L 3481 531 
L 3481 0 
L 794 0 
L 794 531 
z
" transform="scale(0.015625)"/>
       </defs>
       <use xlink:href="#DejaVuSans-32"/>
       <use xlink:href="#DejaVuSans-30" x="63.623047"/>
       <use xlink:href="#DejaVuSans-32" x="127.246094"/>
       <use xlink:href="#DejaVuSans-32" x="190.869141"/>
       <use xlink:href="#DejaVuSans-2d" x="254.492188"/>
       <use xlink:href="#DejaVuSans-30" x="290.576172"/>
       <use xlink:href="#DejaVuSans-31" x="354.199219"/>
       <use xlink:href="#DejaVuSans-2d" x="417.822266"/>
       <use xlink:href="#DejaVuSans-30" x="453.90625"/>
       <use xlink:href="#DejaVuSans-31" x="517.529297"/>
      </g>
     </g>
    </g>
    <g id="xtick_2">
     <g id="line2d_2">
      <g>
       <use xlink:href="#mcf379a06a5" x="249.324064" y="320.4" style="stroke: #000000; stroke-width: 0.8"/>
      </g>
     </g>
     <g id="text_2">
      <!-- 2022-01-03 -->
      <g transform="translate(214.454689 336.518125) scale(0.12 -0.12)">
       <defs>
        <path id="DejaVuSans-33" d="M 2597 2516 
Q 3050 2419 3304 2112 
Q 3559 1806 3559 1356 
Q 3559 666 3084 287 
Q 2609 -91 1734 -91 
Q 1441 -91 1130 -33 
Q 819 25 488 141 
L 488 750 
Q 750 597 1062 519 
Q 1375 441 1716 441 
Q 2309 441 2620 675 
Q 2931 909 2931 1356 
Q 2931 1769 2642 2001 
Q 2353 2234 1838 2234 
L 1294 2234 
L 1294 2753 
L 1863 2753 
Q 2328 2753 2575 2939 
Q 2822 3125 2822 3475 
Q 2822 3834 2567 4026 
Q 2313 4219 1838 4219 
Q 1578 4219 1281 4162 
Q 984 4106 628 3988 
L 628 4550 
Q 988 4650 1302 4700 
Q 1616 4750 1894 4750 
Q 2613 4750 3031 4423 
Q 3450 4097 3450 3541 
Q 3450 3153 3228 2886 
Q 3006 2619 2597 2516 
z
" transform="scale(0.015625)"/>
       </defs>
       <use xlink:href="#DejaVuSans-32"/>
       <use xlink:href="#DejaVuSans-30" x="63.623047"/>
       <use xlink:href="#DejaVuSans-32" x="127.246094"/>
       <use xlink:href="#DejaVuSans-32" x="190.869141"/>
       <use xlink:href="#DejaVuSans-2d" x="254.492188"/>
       <use xlink:href="#DejaVuSans-30" x="290.576172"/>
       <use xlink:href="#DejaVuSans-31" x="354.199219"/>
       <use xlink:href="#DejaVuSans-2d" x="417.822266"/>
       <use xlink:href="#DejaVuSans-30" x="453.90625"/>
       <use xlink:href="#DejaVuSans-33" x="517.529297"/>
      </g>
     </g>
    </g>
    <g id="xtick_3">
     <g id="line2d_3">
      <g>
       <use xlink:href="#mcf379a06a5" x="360.211765" y="320.4" style="stroke: #000000; stroke-width: 0.8"/>
      </g>
     </g>
     <g id="text_3">
      <!-- 2022-01-05 -->
      <g transform="translate(325.34239 336.518125) scale(0.12 -0.12)">
       <defs>
        <path id="DejaVuSans-35" d="M 691 4666 
L 3169 4666 
L 3169 4134 
L 1269 4134 
L 1269 2991 
Q 1406 3038 1543 3061 
Q 1681 3084 1819 3084 
Q 2600 3084 3056 2656 
Q 3513 2228 3513 1497 
Q 3513 744 3044 326 
Q 2575 -91 1722 -91 
Q 1428 -91 1123 -41 
Q 819 9 494 109 
L 494 744 
Q 775 591 1075 516 
Q 1375 441 1709 441 
Q 2250 441 2565 725 
Q 2881 1009 2881 1497 
Q 2881 1984 2565 2268 
Q 2250 2553 1709 2553 
Q 1456 2553 1204 2497 
Q 953 2441 691 2322 
L 691 4666 
z
" transform="scale(0.015625)"/>
       </defs>
       <use xlink:href="#DejaVuSans-32"/>
       <use xlink:href="#DejaVuSans-30" x="63.623047"/>
       <use xlink:href="#DejaVuSans-32" x="127.246094"/>
       <use xlink:href="#DejaVuSans-32" x="190.869141"/>
       <use xlink:href="#DejaVuSans-2d" x="254.492188"/>
       <use xlink:href="#DejaVuSans-30" x="290.576172"/>
       <use xlink:href="#DejaVuSans-31" x="354.199219"/>
       <use xlink:href="#DejaVuSans-2d" x="417.822266"/>
       <use xlink:href="#DejaVuSans-30" x="453.90625"/>
       <use xlink:href="#DejaVuSans-35" x="517.529297"/>
      </g>
     </g>
    </g>
    <g id="xtick_4">
     <g id="line2d_4">
      <g>
       <use xlink:href="#mcf379a06a5" x="471.099465" y="320.4" style="stroke: #000000; stroke-width: 0.8"/>
      </g>
     </g>
     <g id="text_4">
      <!-- 2022-01-07 -->
      <g transform="translate(436.23009 336.518125) scale(0.12 -0.12)">
       <defs>
        <path id="DejaVuSans-37" d="M 525 4666 
L 3525 4666 
L 3525 4397 
L 1831 0 
L 1172 0 
L 2766 4134 
L 525 4134 
L 525 4666 
z
" transform="scale(0.015625)"/>
       </defs>
       <use xlink:href="#DejaVuSans-32"/>
       <use xlink:href="#DejaVuSans-30" x="63.623047"/>
       <use xlink:href="#DejaVuSans-32" x="127.246094"/>
       <use xlink:href="#DejaVuSans-32" x="190.869141"/>
       <use xlink:href="#DejaVuSans-2d" x="254.492188"/>
       <use xlink:href="#DejaVuSans-30" x="290.576172"/>
       <use xlink:href="#DejaVuSans-31" x="354.199219"/>
       <use xlink:href="#DejaVuSans-2d" x="417.822266"/>
       <use xlink:href="#DejaVuSans-30" x="453.90625"/>
       <use xlink:href="#DejaVuSans-37" x="517.529297"/>
      </g>
     </g>
    </g>
    <g id="xtick_5">
     <g id="line2d_5">
      <g>
       <use xlink:href="#mcf379a06a5" x="581.987166" y="320.4" style="stroke: #000000; stroke-width: 0.8"/>
      </g>
     </g>
     <g id="text_5">
      <!-- 2022-01-09 -->
      <g transform="translate(547.117791 336.518125) scale(0.12 -0.12)">
       <defs>
        <path id="DejaVuSans-39" d="M 703 97 
L 703 672 
Q 941 559 1184 500 
Q 1428 441 1663 441 
Q 2288 441 2617 861 
Q 2947 1281 2994 2138 
Q 2813 1869 2534 1725 
Q 2256 1581 1919 1581 
Q 1219 1581 811 2004 
Q 403 2428 403 3163 
Q 403 3881 828 4315 
Q 1253 4750 1959 4750 
Q 2769 4750 3195 4129 
Q 3622 3509 3622 2328 
Q 3622 1225 3098 567 
Q 2575 -91 1691 -91 
Q 1453 -91 1209 -44 
Q 966 3 703 97 
z
M 1959 2075 
Q 2384 2075 2632 2365 
Q 2881 2656 2881 3163 
Q 2881 3666 2632 3958 
Q 2384 4250 1959 4250 
Q 1534 4250 1286 3958 
Q 1038 3666 1038 3163 
Q 1038 2656 1286 2365 
Q 1534 2075 1959 2075 
z
" transform="scale(0.015625)"/>
       </defs>
       <use xlink:href="#DejaVuSans-32"/>
       <use xlink:href="#DejaVuSans-30" x="63.623047"/>
       <use xlink:href="#DejaVuSans-32" x="127.246094"/>
       <use xlink:href="#DejaVuSans-32" x="190.869141"/>
       <use xlink:href="#DejaVuSans-2d" x="254.492188"/>
       <use xlink:href="#DejaVuSans-30" x="290.576172"/>
       <use xlink:href="#DejaVuSans-31" x="354.199219"/>
       <use xlink:href="#DejaVuSans-2d" x="417.822266"/>
       <use xlink:href="#DejaVuSans-30" x="453.90625"/>
       <use xlink:href="#DejaVuSans-39" x="517.529297"/>
      </g>
     </g>
    </g>
    <g id="xtick_6">
     <g id="line2d_6">
      <g>
       <use xlink:href="#mcf379a06a5" x="692.874866" y="320.4" style="stroke: #000000; stroke-width: 0.8"/>
      </g>
     </g>
     <g id="text_6">
      <!-- 2022-01-11 -->
      <g transform="translate(658.005491 336.518125) scale(0.12 -0.12)">
       <use xlink:href="#DejaVuSans-32"/>
       <use xlink:href="#DejaVuSans-30" x="63.623047"/>
       <use xlink:href="#DejaVuSans-32" x="127.246094"/>
       <use xlink:href="#DejaVuSans-32" x="190.869141"/>
       <use xlink:href="#DejaVuSans-2d" x="254.492188"/>
       <use xlink:href="#DejaVuSans-30" x="290.576172"/>
       <use xlink:href="#DejaVuSans-31" x="354.199219"/>
       <use xlink:href="#DejaVuSans-2d" x="417.822266"/>
       <use xlink:href="#DejaVuSans-31" x="453.90625"/>
       <use xlink:href="#DejaVuSans-31" x="517.529297"/>
      </g>
     </g>
    </g>
    <g id="text_7">
     <!-- TIME (DAYS) -->
     <g transform="translate(393.97375 355.17125) scale(0.16 -0.16)">
      <defs>
       <path id="DejaVuSans-54" d="M -19 4666 
L 3928 4666 
L 3928 4134 
L 2272 4134 
L 2272 0 
L 1638 0 
L 1638 4134 
L -19 4134 
L -19 4666 
z
" transform="scale(0.015625)"/>
       <path id="DejaVuSans-49" d="M 628 4666 
L 1259 4666 
L 1259 0 
L 628 0 
L 628 4666 
z
" transform="scale(0.015625)"/>
       <path id="DejaVuSans-4d" d="M 628 4666 
L 1569 4666 
L 2759 1491 
L 3956 4666 
L 4897 4666 
L 4897 0 
L 4281 0 
L 4281 4097 
L 3078 897 
L 2444 897 
L 1241 4097 
L 1241 0 
L 628 0 
L 628 4666 
z
" transform="scale(0.015625)"/>
       <path id="DejaVuSans-45" d="M 628 4666 
L 3578 4666 
L 3578 4134 
L 1259 4134 
L 1259 2753 
L 3481 2753 
L 3481 2222 
L 1259 2222 
L 1259 531 
L 3634 531 
L 3634 0 
L 628 0 
L 628 4666 
z
" transform="scale(0.015625)"/>
       <path id="DejaVuSans-20" transform="scale(0.015625)"/>
       <path id="DejaVuSans-28" d="M 1984 4856 
Q 1566 4138 1362 3434 
Q 1159 2731 1159 2009 
Q 1159 1288 1364 580 
Q 1569 -128 1984 -844 
L 1484 -844 
Q 1016 -109 783 600 
Q 550 1309 550 2009 
Q 550 2706 781 3412 
Q 1013 4119 1484 4856 
L 1984 4856 
z
" transform="scale(0.015625)"/>
       <path id="DejaVuSans-44" d="M 1259 4147 
L 1259 519 
L 2022 519 
Q 2988 519 3436 956 
Q 3884 1394 3884 2338 
Q 3884 3275 3436 3711 
Q 2988 4147 2022 4147 
L 1259 4147 
z
M 628 4666 
L 1925 4666 
Q 3281 4666 3915 4102 
Q 4550 3538 4550 2338 
Q 4550 1131 3912 565 
Q 3275 0 1925 0 
L 628 0 
L 628 4666 
z
" transform="scale(0.015625)"/>
       <path id="DejaVuSans-41" d="M 2188 4044 
L 1331 1722 
L 3047 1722 
L 2188 4044 
z
M 1831 4666 
L 2547 4666 
L 4325 0 
L 3669 0 
L 3244 1197 
L 1141 1197 
L 716 0 
L 50 0 
L 1831 4666 
z
" transform="scale(0.015625)"/>
       <path id="DejaVuSans-59" d="M -13 4666 
L 666 4666 
L 1959 2747 
L 3244 4666 
L 3922 4666 
L 2272 2222 
L 2272 0 
L 1638 0 
L 1638 2222 
L -13 4666 
z
" transform="scale(0.015625)"/>
       <path id="DejaVuSans-53" d="M 3425 4513 
L 3425 3897 
Q 3066 4069 2747 4153 
Q 2428 4238 2131 4238 
Q 1616 4238 1336 4038 
Q 1056 3838 1056 3469 
Q 1056 3159 1242 3001 
Q 1428 2844 1947 2747 
L 2328 2669 
Q 3034 2534 3370 2195 
Q 3706 1856 3706 1288 
Q 3706 609 3251 259 
Q 2797 -91 1919 -91 
Q 1588 -91 1214 -16 
Q 841 59 441 206 
L 441 856 
Q 825 641 1194 531 
Q 1563 422 1919 422 
Q 2459 422 2753 634 
Q 3047 847 3047 1241 
Q 3047 1584 2836 1778 
Q 2625 1972 2144 2069 
L 1759 2144 
Q 1053 2284 737 2584 
Q 422 2884 422 3419 
Q 422 4038 858 4394 
Q 1294 4750 2059 4750 
Q 2388 4750 2728 4690 
Q 3069 4631 3425 4513 
z
" transform="scale(0.015625)"/>
       <path id="DejaVuSans-29" d="M 513 4856 
L 1013 4856 
Q 1481 4119 1714 3412 
Q 1947 2706 1947 2009 
Q 1947 1309 1714 600 
Q 1481 -109 1013 -844 
L 513 -844 
Q 928 -128 1133 580 
Q 1338 1288 1338 2009 
Q 1338 2731 1133 3434 
Q 928 4138 513 4856 
z
" transform="scale(0.015625)"/>
      </defs>
      <use xlink:href="#DejaVuSans-54"/>
      <use xlink:href="#DejaVuSans-49" x="61.083984"/>
      <use xlink:href="#DejaVuSans-4d" x="90.576172"/>
      <use xlink:href="#DejaVuSans-45" x="176.855469"/>
      <use xlink:href="#DejaVuSans-20" x="240.039062"/>
      <use xlink:href="#DejaVuSans-28" x="271.826172"/>
      <use xlink:href="#DejaVuSans-44" x="310.839844"/>
      <use xlink:href="#DejaVuSans-41" x="386.091797"/>
      <use xlink:href="#DejaVuSans-59" x="446.75"/>
      <use xlink:href="#DejaVuSans-53" x="507.833984"/>
      <use xlink:href="#DejaVuSans-29" x="571.310547"/>
     </g>
    </g>
   </g>
   <g id="matplotlib.axis_2">
    <g id="ytick_1">
     <g id="line2d_7">
      <defs>
       <path id="mb273de41bc" d="M 0 0 
L -3.5 0 
" style="stroke: #000000; stroke-width: 0.8"/>
      </defs>
      <g>
       <use xlink:href="#mb273de41bc" x="108" y="307.8" style="stroke: #000000; stroke-width: 0.8"/>
      </g>
     </g>
     <g id="text_8">
      <!-- 0 -->
      <g transform="translate(93.365 312.359062) scale(0.12 -0.12)">
       <use xlink:href="#DejaVuSans-30"/>
      </g>
     </g>
    </g>
    <g id="ytick_2">
     <g id="line2d_8">
      <g>
       <use xlink:href="#mb273de41bc" x="108" y="276.765517" style="stroke: #000000; stroke-width: 0.8"/>
      </g>
     </g>
     <g id="text_9">
      <!-- 25 -->
      <g transform="translate(85.73 281.32458) scale(0.12 -0.12)">
       <use xlink:href="#DejaVuSans-32"/>
       <use xlink:href="#DejaVuSans-35" x="63.623047"/>
      </g>
     </g>
    </g>
    <g id="ytick_3">
     <g id="line2d_9">
      <g>
       <use xlink:href="#mb273de41bc" x="108" y="245.731034" style="stroke: #000000; stroke-width: 0.8"/>
      </g>
     </g>
     <g id="text_10">
      <!-- 50 -->
      <g transform="translate(85.73 250.290097) scale(0.12 -0.12)">
       <use xlink:href="#DejaVuSans-35"/>
       <use xlink:href="#DejaVuSans-30" x="63.623047"/>
      </g>
     </g>
    </g>
    <g id="ytick_4">
     <g id="line2d_10">
      <g>
       <use xlink:href="#mb273de41bc" x="108" y="214.696552" style="stroke: #000000; stroke-width: 0.8"/>
      </g>
     </g>
     <g id="text_11">
      <!-- 75 -->
      <g transform="translate(85.73 219.255614) scale(0.12 -0.12)">
       <use xlink:href="#DejaVuSans-37"/>
       <use xlink:href="#DejaVuSans-35" x="63.623047"/>
      </g>
     </g>
    </g>
    <g id="ytick_5">
     <g id="line2d_11">
      <g>
       <use xlink:href="#mb273de41bc" x="108" y="183.662069" style="stroke: #000000; stroke-width: 0.8"/>
      </g>
     </g>
     <g id="text_12">
      <!-- 100 -->
      <g transform="translate(78.095 188.221131) scale(0.12 -0.12)">
       <use xlink:href="#DejaVuSans-31"/>
       <use xlink:href="#DejaVuSans-30" x="63.623047"/>
       <use xlink:href="#DejaVuSans-30" x="127.246094"/>
      </g>
     </g>
    </g>
    <g id="ytick_6">
     <g id="line2d_12">
      <g>
       <use xlink:href="#mb273de41bc" x="108" y="152.627586" style="stroke: #000000; stroke-width: 0.8"/>
      </g>
     </g>
     <g id="text_13">
      <!-- 125 -->
      <g transform="translate(78.095 157.186649) scale(0.12 -0.12)">
       <use xlink:href="#DejaVuSans-31"/>
       <use xlink:href="#DejaVuSans-32" x="63.623047"/>
       <use xlink:href="#DejaVuSans-35" x="127.246094"/>
      </g>
     </g>
    </g>
    <g id="ytick_7">
     <g id="line2d_13">
      <g>
       <use xlink:href="#mb273de41bc" x="108" y="121.593103" style="stroke: #000000; stroke-width: 0.8"/>
      </g>
     </g>
     <g id="text_14">
      <!-- 150 -->
      <g transform="translate(78.095 126.152166) scale(0.12 -0.12)">
       <use xlink:href="#DejaVuSans-31"/>
       <use xlink:href="#DejaVuSans-35" x="63.623047"/>
       <use xlink:href="#DejaVuSans-30" x="127.246094"/>
      </g>
     </g>
    </g>
    <g id="ytick_8">
     <g id="line2d_14">
      <g>
       <use xlink:href="#mb273de41bc" x="108" y="90.558621" style="stroke: #000000; stroke-width: 0.8"/>
      </g>
     </g>
     <g id="text_15">
      <!-- 175 -->
      <g transform="translate(78.095 95.117683) scale(0.12 -0.12)">
       <use xlink:href="#DejaVuSans-31"/>
       <use xlink:href="#DejaVuSans-37" x="63.623047"/>
       <use xlink:href="#DejaVuSans-35" x="127.246094"/>
      </g>
     </g>
    </g>
    <g id="ytick_9">
     <g id="line2d_15">
      <g>
       <use xlink:href="#mb273de41bc" x="108" y="59.524138" style="stroke: #000000; stroke-width: 0.8"/>
      </g>
     </g>
     <g id="text_16">
      <!-- 200 -->
      <g transform="translate(78.095 64.0832) scale(0.12 -0.12)">
       <use xlink:href="#DejaVuSans-32"/>
       <use xlink:href="#DejaVuSans-30" x="63.623047"/>
       <use xlink:href="#DejaVuSans-30" x="127.246094"/>
      </g>
     </g>
    </g>
    <g id="text_17">
     <!-- SIMULATED -->
     <g transform="translate(52.851 227.5875) rotate(-90) scale(0.16 -0.16)">
      <defs>
       <path id="DejaVuSans-55" d="M 556 4666 
L 1191 4666 
L 1191 1831 
Q 1191 1081 1462 751 
Q 1734 422 2344 422 
Q 2950 422 3222 751 
Q 3494 1081 3494 1831 
L 3494 4666 
L 4128 4666 
L 4128 1753 
Q 4128 841 3676 375 
Q 3225 -91 2344 -91 
Q 1459 -91 1007 375 
Q 556 841 556 1753 
L 556 4666 
z
" transform="scale(0.015625)"/>
       <path id="DejaVuSans-4c" d="M 628 4666 
L 1259 4666 
L 1259 531 
L 3531 531 
L 3531 0 
L 628 0 
L 628 4666 
z
" transform="scale(0.015625)"/>
      </defs>
      <use xlink:href="#DejaVuSans-53"/>
      <use xlink:href="#DejaVuSans-49" x="63.476562"/>
      <use xlink:href="#DejaVuSans-4d" x="92.96875"/>
      <use xlink:href="#DejaVuSans-55" x="179.248047"/>
      <use xlink:href="#DejaVuSans-4c" x="252.441406"/>
      <use xlink:href="#DejaVuSans-41" x="310.404297"/>
      <use xlink:href="#DejaVuSans-54" x="371.0625"/>
      <use xlink:href="#DejaVuSans-45" x="432.146484"/>
      <use xlink:href="#DejaVuSans-44" x="495.330078"/>
     </g>
     <!-- AMPLITUDE -->
     <g transform="translate(70.7675 227.7725) rotate(-90) scale(0.16 -0.16)">
      <defs>
       <path id="DejaVuSans-50" d="M 1259 4147 
L 1259 2394 
L 2053 2394 
Q 2494 2394 2734 2622 
Q 2975 2850 2975 3272 
Q 2975 3691 2734 3919 
Q 2494 4147 2053 4147 
L 1259 4147 
z
M 628 4666 
L 2053 4666 
Q 2838 4666 3239 4311 
Q 3641 3956 3641 3272 
Q 3641 2581 3239 2228 
Q 2838 1875 2053 1875 
L 1259 1875 
L 1259 0 
L 628 0 
L 628 4666 
z
" transform="scale(0.015625)"/>
      </defs>
      <use xlink:href="#DejaVuSans-41"/>
      <use xlink:href="#DejaVuSans-4d" x="68.408203"/>
      <use xlink:href="#DejaVuSans-50" x="154.6875"/>
      <use xlink:href="#DejaVuSans-4c" x="214.990234"/>
      <use xlink:href="#DejaVuSans-49" x="270.703125"/>
      <use xlink:href="#DejaVuSans-54" x="300.195312"/>
      <use xlink:href="#DejaVuSans-55" x="361.279297"/>
      <use xlink:href="#DejaVuSans-44" x="434.472656"/>
      <use xlink:href="#DejaVuSans-45" x="511.474609"/>
     </g>
    </g>
   </g>
   <g id="line2d_16">
    <path d="M 138.436364 147.662069 
L 139.591444 295.386207 
L 140.746524 307.8 
L 144.211765 307.8 
L 145.366845 271.8 
L 146.521925 287.937931 
L 147.677005 184.903448 
L 148.832086 230.834483 
L 149.987166 181.17931 
L 151.142246 268.075862 
L 152.297326 294.144828 
L 153.452406 307.8 
L 154.607487 244.489655 
L 155.762567 297.868966 
L 156.917647 294.144828 
L 158.072727 307.8 
L 159.227807 300.351724 
L 160.382888 285.455172 
L 161.537968 307.8 
L 162.693048 307.8 
L 163.848128 233.317241 
L 165.003209 307.8 
L 166.158289 307.8 
L 167.313369 177.455172 
L 168.468449 196.075862 
L 169.623529 153.868966 
L 170.77861 126.558621 
L 171.93369 263.110345 
L 173.08877 151.386207 
L 174.24385 153.868966 
L 175.39893 70.696552 
L 176.554011 219.662069 
L 177.709091 201.041379 
L 178.864171 264.351724 
L 180.019251 254.42069 
L 181.174332 199.8 
L 182.329412 289.17931 
L 183.484492 198.558621 
L 184.639572 188.627586 
L 185.794652 251.937931 
L 188.104813 170.006897 
L 189.259893 229.593103 
L 190.414973 148.903448 
L 191.570053 209.731034 
L 192.725134 206.006897 
L 193.880214 192.351724 
L 195.035294 238.282759 
L 196.190374 301.593103 
L 197.345455 307.8 
L 198.500535 265.593103 
L 199.655615 232.075862 
L 200.810695 222.144828 
L 201.965775 307.8 
L 203.120856 307.8 
L 204.275936 246.972414 
L 205.431016 307.8 
L 206.586096 304.075862 
L 207.741176 307.8 
L 208.896257 307.8 
L 210.051337 260.627586 
L 211.206417 307.8 
L 212.361497 307.8 
L 213.516578 297.868966 
L 214.671658 294.144828 
L 215.826738 248.213793 
L 216.981818 271.8 
L 218.136898 268.075862 
L 219.291979 254.42069 
L 220.447059 307.8 
L 221.602139 242.006897 
L 222.757219 301.593103 
L 223.912299 183.662069 
L 226.22246 85.593103 
L 227.37754 240.765517 
L 228.53262 215.937931 
L 229.687701 109.17931 
L 230.842781 219.662069 
L 231.997861 153.868966 
L 233.152941 156.351724 
L 234.308021 152.627586 
L 235.463102 145.17931 
L 236.618182 207.248276 
L 237.773262 278.006897 
L 238.928342 155.110345 
L 240.083422 178.696552 
L 241.238503 146.42069 
L 242.393583 248.213793 
L 243.548663 140.213793 
L 244.703743 243.248276 
L 245.858824 183.662069 
L 247.013904 96.765517 
L 248.168984 131.524138 
L 249.324064 187.386207 
L 250.479144 197.317241 
L 251.634225 307.8 
L 252.789305 307.8 
L 253.944385 276.765517 
L 255.099465 306.558621 
L 256.254545 307.8 
L 259.719786 307.8 
L 260.874866 271.8 
L 262.029947 307.8 
L 263.185027 297.868966 
L 264.340107 297.868966 
L 265.495187 249.455172 
L 266.650267 307.8 
L 267.805348 307.8 
L 268.960428 186.144828 
L 270.115508 234.558621 
L 271.270588 289.17931 
L 272.425668 307.8 
L 273.580749 278.006897 
L 274.735829 204.765517 
L 275.890909 307.8 
L 278.20107 307.8 
L 279.35615 187.386207 
L 280.51123 138.972414 
L 281.66631 127.8 
L 282.82139 162.558621 
L 283.976471 145.17931 
L 285.131551 217.17931 
L 286.286631 176.213793 
L 287.441711 197.317241 
L 288.596791 186.144828 
L 289.751872 146.42069 
L 290.906952 224.627586 
L 292.062032 187.386207 
L 293.217112 188.627586 
L 294.372193 186.144828 
L 295.527273 158.834483 
L 296.682353 166.282759 
L 297.837433 111.662069 
L 298.992513 151.386207 
L 300.147594 228.351724 
L 301.302674 143.937931 
L 302.457754 230.834483 
L 303.612834 206.006897 
L 304.767914 264.351724 
L 305.922995 270.558621 
L 307.078075 181.17931 
L 308.233155 307.8 
L 309.388235 286.696552 
L 310.543316 307.8 
L 311.698396 245.731034 
L 312.853476 285.455172 
L 314.008556 307.8 
L 315.163636 224.627586 
L 316.318717 307.8 
L 317.473797 307.8 
L 318.628877 290.42069 
L 319.783957 275.524138 
L 320.939037 287.937931 
L 322.094118 276.765517 
L 323.249198 307.8 
L 325.559358 307.8 
L 326.714439 254.42069 
L 327.869519 307.8 
L 329.024599 301.593103 
L 330.179679 274.282759 
L 331.334759 307.8 
L 333.64492 307.8 
L 334.8 287.937931 
L 335.95508 151.386207 
L 337.11016 179.937931 
L 338.265241 134.006897 
L 339.420321 193.593103 
L 340.575401 117.868966 
L 341.730481 167.524138 
L 342.885561 223.386207 
L 344.040642 177.455172 
L 345.195722 157.593103 
L 346.350802 232.075862 
L 347.505882 228.351724 
L 348.660963 135.248276 
L 349.816043 170.006897 
L 350.971123 173.731034 
L 352.126203 171.248276 
L 353.281283 137.731034 
L 354.436364 263.110345 
L 355.591444 229.593103 
L 356.746524 217.17931 
L 357.901604 160.075862 
L 359.056684 173.731034 
L 360.211765 178.696552 
L 361.366845 165.041379 
L 362.521925 268.075862 
L 363.677005 289.17931 
L 364.832086 307.8 
L 365.987166 286.696552 
L 367.142246 307.8 
L 374.072727 307.8 
L 375.227807 256.903448 
L 376.382888 237.041379 
L 377.537968 294.144828 
L 378.693048 307.8 
L 382.158289 307.8 
L 383.313369 304.075862 
L 384.468449 304.075862 
L 385.623529 274.282759 
L 386.77861 307.8 
L 387.93369 287.937931 
L 389.08877 307.8 
L 391.39893 307.8 
L 392.554011 219.662069 
L 393.709091 83.110345 
L 394.864171 146.42069 
L 396.019251 218.42069 
L 397.174332 188.627586 
L 398.329412 214.696552 
L 399.484492 136.489655 
L 400.639572 166.282759 
L 401.794652 218.42069 
L 402.949733 197.317241 
L 404.104813 208.489655 
L 405.259893 188.627586 
L 406.414973 307.8 
L 407.570053 243.248276 
L 408.725134 81.868966 
L 409.880214 228.351724 
L 411.035294 162.558621 
L 412.190374 69.455172 
L 413.345455 146.42069 
L 414.500535 198.558621 
L 415.655615 243.248276 
L 416.810695 179.937931 
L 417.965775 225.868966 
L 419.120856 150.144828 
L 420.275936 307.8 
L 421.431016 256.903448 
L 422.586096 255.662069 
L 423.741176 265.593103 
L 424.896257 304.075862 
L 426.051337 307.8 
L 427.206417 307.8 
L 428.361497 208.489655 
L 429.516578 254.42069 
L 430.671658 307.8 
L 431.826738 280.489655 
L 432.981818 287.937931 
L 434.136898 307.8 
L 435.291979 307.8 
L 436.447059 224.627586 
L 437.602139 279.248276 
L 438.757219 307.8 
L 439.912299 237.041379 
L 441.06738 307.8 
L 442.22246 307.8 
L 443.37754 289.17931 
L 444.53262 299.110345 
L 445.687701 307.8 
L 446.842781 307.8 
L 447.997861 206.006897 
L 449.152941 182.42069 
L 450.308021 189.868966 
L 451.463102 217.17931 
L 452.618182 81.868966 
L 453.773262 224.627586 
L 454.928342 254.42069 
L 456.083422 110.42069 
L 457.238503 265.593103 
L 458.393583 179.937931 
L 459.548663 171.248276 
L 460.703743 142.696552 
L 461.858824 142.696552 
L 463.013904 202.282759 
L 464.168984 204.765517 
L 465.324064 107.937931 
L 466.479144 151.386207 
L 467.634225 137.731034 
L 468.789305 194.834483 
L 469.944385 130.282759 
L 471.099465 239.524138 
L 472.254545 212.213793 
L 473.409626 224.627586 
L 474.564706 198.558621 
L 475.719786 307.8 
L 476.874866 171.248276 
L 478.029947 292.903448 
L 479.185027 264.351724 
L 480.340107 307.8 
L 481.495187 187.386207 
L 482.650267 307.8 
L 483.805348 275.524138 
L 484.960428 287.937931 
L 486.115508 278.006897 
L 487.270588 307.8 
L 489.580749 307.8 
L 490.735829 284.213793 
L 491.890909 307.8 
L 493.045989 284.213793 
L 494.20107 269.317241 
L 495.35615 307.8 
L 496.51123 295.386207 
L 497.66631 246.972414 
L 498.82139 280.489655 
L 499.976471 307.8 
L 502.286631 307.8 
L 503.441711 275.524138 
L 504.596791 307.8 
L 505.751872 207.248276 
L 506.906952 140.213793 
L 508.062032 203.524138 
L 509.217112 202.282759 
L 510.372193 55.8 
L 511.527273 179.937931 
L 512.682353 194.834483 
L 513.837433 242.006897 
L 514.992513 116.627586 
L 516.147594 246.972414 
L 517.302674 240.765517 
L 518.457754 217.17931 
L 519.612834 227.110345 
L 520.767914 245.731034 
L 521.922995 196.075862 
L 523.078075 246.972414 
L 524.233155 152.627586 
L 525.388235 119.110345 
L 526.543316 181.17931 
L 527.698396 146.42069 
L 528.853476 186.144828 
L 530.008556 171.248276 
L 531.163636 192.351724 
L 532.318717 91.8 
L 533.473797 307.8 
L 534.628877 287.937931 
L 535.783957 307.8 
L 538.094118 307.8 
L 539.249198 305.317241 
L 540.404278 279.248276 
L 541.559358 307.8 
L 543.869519 307.8 
L 545.024599 268.075862 
L 546.179679 307.8 
L 548.48984 307.8 
L 549.64492 300.351724 
L 550.8 265.593103 
L 551.95508 307.8 
L 553.11016 279.248276 
L 554.265241 307.8 
L 555.420321 291.662069 
L 556.575401 307.8 
L 557.730481 244.489655 
L 558.885561 307.8 
L 560.040642 307.8 
L 561.195722 170.006897 
L 562.350802 136.489655 
L 563.505882 243.248276 
L 564.660963 222.144828 
L 565.816043 259.386207 
L 566.971123 197.317241 
L 568.126203 285.455172 
L 569.281283 155.110345 
L 570.436364 116.627586 
L 571.591444 146.42069 
L 572.746524 201.041379 
L 573.901604 187.386207 
L 575.056684 145.17931 
L 576.211765 112.903448 
L 577.366845 183.662069 
L 578.521925 184.903448 
L 579.677005 110.42069 
L 580.832086 117.868966 
L 581.987166 227.110345 
L 583.142246 184.903448 
L 584.297326 171.248276 
L 585.452406 137.731034 
L 586.607487 147.662069 
L 587.762567 261.868966 
L 588.917647 307.8 
L 590.072727 307.8 
L 591.227807 286.696552 
L 592.382888 307.8 
L 593.537968 285.455172 
L 594.693048 307.8 
L 597.003209 307.8 
L 598.158289 297.868966 
L 599.313369 307.8 
L 600.468449 299.110345 
L 601.623529 307.8 
L 605.08877 307.8 
L 606.24385 265.593103 
L 607.39893 255.662069 
L 608.554011 280.489655 
L 609.709091 260.627586 
L 610.864171 307.8 
L 614.329412 307.8 
L 615.484492 206.006897 
L 616.639572 176.213793 
L 617.794652 112.903448 
L 618.949733 102.972414 
L 620.104813 109.17931 
L 621.259893 199.8 
L 622.414973 173.731034 
L 623.570053 191.110345 
L 624.725134 275.524138 
L 625.880214 125.317241 
L 627.035294 184.903448 
L 628.190374 91.8 
L 629.345455 237.041379 
L 630.500535 243.248276 
L 631.655615 197.317241 
L 632.810695 184.903448 
L 633.965775 202.282759 
L 635.120856 213.455172 
L 636.275936 181.17931 
L 637.431016 173.731034 
L 638.586096 265.593103 
L 639.741176 111.662069 
L 640.896257 203.524138 
L 642.051337 208.489655 
L 643.206417 307.8 
L 644.361497 285.455172 
L 645.516578 248.213793 
L 646.671658 275.524138 
L 647.826738 307.8 
L 648.981818 261.868966 
L 650.136898 287.937931 
L 651.291979 307.8 
L 653.602139 307.8 
L 654.757219 300.351724 
L 655.912299 307.8 
L 657.06738 280.489655 
L 658.22246 248.213793 
L 659.37754 206.006897 
L 660.53262 300.351724 
L 661.687701 196.075862 
L 662.842781 301.593103 
L 663.997861 294.144828 
L 665.152941 307.8 
L 666.308021 302.834483 
L 667.463102 248.213793 
L 668.618182 307.8 
L 669.773262 307.8 
L 670.928342 187.386207 
L 672.083422 111.662069 
L 673.238503 212.213793 
L 674.393583 183.662069 
L 675.548663 179.937931 
L 676.703743 265.593103 
L 677.858824 285.455172 
L 680.168984 176.213793 
L 681.324064 167.524138 
L 682.479144 198.558621 
L 683.634225 129.041379 
L 684.789305 192.351724 
L 685.944385 222.144828 
L 687.099465 166.282759 
L 688.254545 177.455172 
L 689.409626 124.075862 
L 690.564706 244.489655 
L 691.719786 198.558621 
L 692.874866 220.903448 
L 694.029947 204.765517 
L 695.185027 223.386207 
L 696.340107 130.282759 
L 697.495187 127.8 
L 698.650267 268.075862 
L 699.805348 261.868966 
L 700.960428 274.282759 
L 702.115508 307.8 
L 703.270588 268.075862 
L 704.425668 307.8 
L 705.580749 307.8 
L 706.735829 291.662069 
L 707.890909 225.868966 
L 709.045989 307.8 
L 714.82139 307.8 
L 715.976471 245.731034 
L 717.131551 307.8 
L 718.286631 254.42069 
L 719.441711 307.8 
L 720.596791 306.558621 
L 721.751872 307.8 
L 722.906952 249.455172 
L 724.062032 307.8 
L 725.217112 307.8 
L 726.372193 204.765517 
L 727.527273 83.110345 
L 728.682353 166.282759 
L 729.837433 96.765517 
L 730.992513 176.213793 
L 732.147594 168.765517 
L 733.302674 270.558621 
L 734.457754 170.006897 
L 735.612834 245.731034 
L 736.767914 239.524138 
L 737.922995 168.765517 
L 739.078075 188.627586 
L 740.233155 244.489655 
L 741.388235 220.903448 
L 742.543316 201.041379 
L 743.698396 259.386207 
L 744.853476 229.593103 
L 746.008556 178.696552 
L 747.163636 224.627586 
L 747.163636 224.627586 
" clip-path="url(#p8e0eee5e96)" style="fill: none; stroke: #191970; stroke-width: 2; stroke-linecap: square"/>
   </g>
   <g id="patch_3">
    <path d="M 108 320.4 
L 108 43.2 
" style="fill: none; stroke: #000000; stroke-width: 0.8; stroke-linejoin: miter; stroke-linecap: square"/>
   </g>
   <g id="patch_4">
    <path d="M 777.6 320.4 
L 777.6 43.2 
" style="fill: none; stroke: #000000; stroke-width: 0.8; stroke-linejoin: miter; stroke-linecap: square"/>
   </g>
   <g id="patch_5">
    <path d="M 108 320.4 
L 777.6 320.4 
" style="fill: none; stroke: #000000; stroke-width: 0.8; stroke-linejoin: miter; stroke-linecap: square"/>
   </g>
   <g id="patch_6">
    <path d="M 108 43.2 
L 777.6 43.2 
" style="fill: none; stroke: #000000; stroke-width: 0.8; stroke-linejoin: miter; stroke-linecap: square"/>
   </g>
   <g id="text_18">
    <!-- TIME SERIES -->
    <g transform="translate(386.625938 37.2) scale(0.18 -0.18)">
     <defs>
      <path id="DejaVuSans-52" d="M 2841 2188 
Q 3044 2119 3236 1894 
Q 3428 1669 3622 1275 
L 4263 0 
L 3584 0 
L 2988 1197 
Q 2756 1666 2539 1819 
Q 2322 1972 1947 1972 
L 1259 1972 
L 1259 0 
L 628 0 
L 628 4666 
L 2053 4666 
Q 2853 4666 3247 4331 
Q 3641 3997 3641 3322 
Q 3641 2881 3436 2590 
Q 3231 2300 2841 2188 
z
M 1259 4147 
L 1259 2491 
L 2053 2491 
Q 2509 2491 2742 2702 
Q 2975 2913 2975 3322 
Q 2975 3731 2742 3939 
Q 2509 4147 2053 4147 
L 1259 4147 
z
" transform="scale(0.015625)"/>
     </defs>
     <use xlink:href="#DejaVuSans-54"/>
     <use xlink:href="#DejaVuSans-49" x="61.083984"/>
     <use xlink:href="#DejaVuSans-4d" x="90.576172"/>
     <use xlink:href="#DejaVuSans-45" x="176.855469"/>
     <use xlink:href="#DejaVuSans-20" x="240.039062"/>
     <use xlink:href="#DejaVuSans-53" x="271.826172"/>
     <use xlink:href="#DejaVuSans-45" x="335.302734"/>
     <use xlink:href="#DejaVuSans-52" x="398.486328"/>
     <use xlink:href="#DejaVuSans-49" x="467.96875"/>
     <use xlink:href="#DejaVuSans-45" x="497.460938"/>
     <use xlink:href="#DejaVuSans-53" x="560.644531"/>
    </g>
   </g>
  </g>
 </g>
 <defs>
  <clipPath id="p8e0eee5e96">
   <rect x="108" y="43.2" width="669.6" height="277.2"/>
  </clipPath>
 </defs>
</svg>
