<?xml version="1.0" encoding="utf-8" standalone="no"?>
<!DOCTYPE svg PUBLIC "-//W3C//DTD SVG 1.1//EN"
  "http://www.w3.org/Graphics/SVG/1.1/DTD/svg11.dtd">
<svg xmlns:xlink="http://www.w3.org/1999/xlink" width="504pt" height="504pt" viewBox="0 0 504 504" xmlns="http://www.w3.org/2000/svg" version="1.1">
 <metadata>
  <rdf:RDF xmlns:dc="http://purl.org/dc/elements/1.1/" xmlns:cc="http://creativecommons.org/ns#" xmlns:rdf="http://www.w3.org/1999/02/22-rdf-syntax-ns#">
   <cc:Work>
    <dc:type rdf:resource="http://purl.org/dc/dcmitype/StillImage"/>
    <dc:date>2023-11-27T21:08:58.987178</dc:date>
    <dc:format>image/svg+xml</dc:format>
    <dc:creator>
     <cc:Agent>
      <dc:title>Matplotlib v3.7.4, https://matplotlib.org/</dc:title>
     </cc:Agent>
    </dc:creator>
   </cc:Work>
  </rdf:RDF>
 </metadata>
 <defs>
  <style type="text/css">*{stroke-linejoin: round; stroke-linecap: butt}</style>
 </defs>
 <g id="figure_1">
  <g id="patch_1">
   <path d="M 0 504 
L 504 504 
L 504 0 
L 0 0 
z
" style="fill: #ffffff"/>
  </g>
  <g id="axes_1">
   <g id="patch_2">
    <path d="M 75.544 444.44 
L 277.222 444.44 
L 277.222 79.56 
L 75.544 79.56 
z
" style="fill: #ffffff"/>
   </g>
   <g id="matplotlib.axis_1">
    <g id="xtick_1">
     <g id="line2d_1">
      <defs>
       <path id="ma223685f6b" d="M 0 0 
L 0 3.5 
" style="stroke: #000000; stroke-width: 0.8"/>
      </defs>
      <g>
       <use xlink:href="#ma223685f6b" x="80.810253" y="444.44" style="stroke: #000000; stroke-width: 0.8"/>
      </g>
     </g>
     <g id="text_1">
      <!-- 0 -->
      <g transform="translate(76.356503 462.077812) scale(0.14 -0.14)">
       <defs>
        <path id="DejaVuSans-30" d="M 2034 4250 
Q 1547 4250 1301 3770 
Q 1056 3291 1056 2328 
Q 1056 1369 1301 889 
Q 1547 409 2034 409 
Q 2525 409 2770 889 
Q 3016 1369 3016 2328 
Q 3016 3291 2770 3770 
Q 2525 4250 2034 4250 
z
M 2034 4750 
Q 2819 4750 3233 4129 
Q 3647 3509 3647 2328 
Q 3647 1150 3233 529 
Q 2819 -91 2034 -91 
Q 1250 -91 836 529 
Q 422 1150 422 2328 
Q 422 3509 836 4129 
Q 1250 4750 2034 4750 
z
" transform="scale(0.015625)"/>
       </defs>
       <use xlink:href="#DejaVuSans-30"/>
      </g>
     </g>
    </g>
    <g id="xtick_2">
     <g id="line2d_2">
      <g>
       <use xlink:href="#ma223685f6b" x="158.828822" y="444.44" style="stroke: #000000; stroke-width: 0.8"/>
      </g>
     </g>
     <g id="text_2">
      <!-- 20 -->
      <g transform="translate(149.921322 462.077812) scale(0.14 -0.14)">
       <defs>
        <path id="DejaVuSans-32" d="M 1228 531 
L 3431 531 
L 3431 0 
L 469 0 
L 469 531 
Q 828 903 1448 1529 
Q 2069 2156 2228 2338 
Q 2531 2678 2651 2914 
Q 2772 3150 2772 3378 
Q 2772 3750 2511 3984 
Q 2250 4219 1831 4219 
Q 1534 4219 1204 4116 
Q 875 4013 500 3803 
L 500 4441 
Q 881 4594 1212 4672 
Q 1544 4750 1819 4750 
Q 2544 4750 2975 4387 
Q 3406 4025 3406 3419 
Q 3406 3131 3298 2873 
Q 3191 2616 2906 2266 
Q 2828 2175 2409 1742 
Q 1991 1309 1228 531 
z
" transform="scale(0.015625)"/>
       </defs>
       <use xlink:href="#DejaVuSans-32"/>
       <use xlink:href="#DejaVuSans-30" x="63.623047"/>
      </g>
     </g>
    </g>
    <g id="xtick_3">
     <g id="line2d_3">
      <g>
       <use xlink:href="#ma223685f6b" x="236.847391" y="444.44" style="stroke: #000000; stroke-width: 0.8"/>
      </g>
     </g>
     <g id="text_3">
      <!-- 40 -->
      <g transform="translate(227.939891 462.077812) scale(0.14 -0.14)">
       <defs>
        <path id="DejaVuSans-34" d="M 2419 4116 
L 825 1625 
L 2419 1625 
L 2419 4116 
z
M 2253 4666 
L 3047 4666 
L 3047 1625 
L 3713 1625 
L 3713 1100 
L 3047 1100 
L 3047 0 
L 2419 0 
L 2419 1100 
L 313 1100 
L 313 1709 
L 2253 4666 
z
" transform="scale(0.015625)"/>
       </defs>
       <use xlink:href="#DejaVuSans-34"/>
       <use xlink:href="#DejaVuSans-30" x="63.623047"/>
      </g>
     </g>
    </g>
   </g>
   <g id="matplotlib.axis_2">
    <g id="ytick_1">
     <g id="line2d_4">
      <defs>
       <path id="m6b09cc6755" d="M 0 0 
L -3.5 0 
" style="stroke: #000000; stroke-width: 0.8"/>
      </defs>
      <g>
       <use xlink:href="#m6b09cc6755" x="75.544" y="427.85846" style="stroke: #000000; stroke-width: 0.8"/>
      </g>
     </g>
     <g id="text_4">
      <!-- 0.0 -->
      <g transform="translate(46.279625 433.177367) scale(0.14 -0.14)">
       <defs>
        <path id="DejaVuSans-2e" d="M 684 794 
L 1344 794 
L 1344 0 
L 684 0 
L 684 794 
z
" transform="scale(0.015625)"/>
       </defs>
       <use xlink:href="#DejaVuSans-30"/>
       <use xlink:href="#DejaVuSans-2e" x="63.623047"/>
       <use xlink:href="#DejaVuSans-30" x="95.410156"/>
      </g>
     </g>
    </g>
    <g id="ytick_2">
     <g id="line2d_5">
      <g>
       <use xlink:href="#m6b09cc6755" x="75.544" y="377.875659" style="stroke: #000000; stroke-width: 0.8"/>
      </g>
     </g>
     <g id="text_5">
      <!-- 0.2 -->
      <g transform="translate(46.279625 383.194565) scale(0.14 -0.14)">
       <use xlink:href="#DejaVuSans-30"/>
       <use xlink:href="#DejaVuSans-2e" x="63.623047"/>
       <use xlink:href="#DejaVuSans-32" x="95.410156"/>
      </g>
     </g>
    </g>
    <g id="ytick_3">
     <g id="line2d_6">
      <g>
       <use xlink:href="#m6b09cc6755" x="75.544" y="327.892857" style="stroke: #000000; stroke-width: 0.8"/>
      </g>
     </g>
     <g id="text_6">
      <!-- 0.4 -->
      <g transform="translate(46.279625 333.211764) scale(0.14 -0.14)">
       <use xlink:href="#DejaVuSans-30"/>
       <use xlink:href="#DejaVuSans-2e" x="63.623047"/>
       <use xlink:href="#DejaVuSans-34" x="95.410156"/>
      </g>
     </g>
    </g>
    <g id="ytick_4">
     <g id="line2d_7">
      <g>
       <use xlink:href="#m6b09cc6755" x="75.544" y="277.910056" style="stroke: #000000; stroke-width: 0.8"/>
      </g>
     </g>
     <g id="text_7">
      <!-- 0.6 -->
      <g transform="translate(46.279625 283.228962) scale(0.14 -0.14)">
       <defs>
        <path id="DejaVuSans-36" d="M 2113 2584 
Q 1688 2584 1439 2293 
Q 1191 2003 1191 1497 
Q 1191 994 1439 701 
Q 1688 409 2113 409 
Q 2538 409 2786 701 
Q 3034 994 3034 1497 
Q 3034 2003 2786 2293 
Q 2538 2584 2113 2584 
z
M 3366 4563 
L 3366 3988 
Q 3128 4100 2886 4159 
Q 2644 4219 2406 4219 
Q 1781 4219 1451 3797 
Q 1122 3375 1075 2522 
Q 1259 2794 1537 2939 
Q 1816 3084 2150 3084 
Q 2853 3084 3261 2657 
Q 3669 2231 3669 1497 
Q 3669 778 3244 343 
Q 2819 -91 2113 -91 
Q 1303 -91 875 529 
Q 447 1150 447 2328 
Q 447 3434 972 4092 
Q 1497 4750 2381 4750 
Q 2619 4750 2861 4703 
Q 3103 4656 3366 4563 
z
" transform="scale(0.015625)"/>
       </defs>
       <use xlink:href="#DejaVuSans-30"/>
       <use xlink:href="#DejaVuSans-2e" x="63.623047"/>
       <use xlink:href="#DejaVuSans-36" x="95.410156"/>
      </g>
     </g>
    </g>
    <g id="ytick_5">
     <g id="line2d_8">
      <g>
       <use xlink:href="#m6b09cc6755" x="75.544" y="227.927254" style="stroke: #000000; stroke-width: 0.8"/>
      </g>
     </g>
     <g id="text_8">
      <!-- 0.8 -->
      <g transform="translate(46.279625 233.246161) scale(0.14 -0.14)">
       <defs>
        <path id="DejaVuSans-38" d="M 2034 2216 
Q 1584 2216 1326 1975 
Q 1069 1734 1069 1313 
Q 1069 891 1326 650 
Q 1584 409 2034 409 
Q 2484 409 2743 651 
Q 3003 894 3003 1313 
Q 3003 1734 2745 1975 
Q 2488 2216 2034 2216 
z
M 1403 2484 
Q 997 2584 770 2862 
Q 544 3141 544 3541 
Q 544 4100 942 4425 
Q 1341 4750 2034 4750 
Q 2731 4750 3128 4425 
Q 3525 4100 3525 3541 
Q 3525 3141 3298 2862 
Q 3072 2584 2669 2484 
Q 3125 2378 3379 2068 
Q 3634 1759 3634 1313 
Q 3634 634 3220 271 
Q 2806 -91 2034 -91 
Q 1263 -91 848 271 
Q 434 634 434 1313 
Q 434 1759 690 2068 
Q 947 2378 1403 2484 
z
M 1172 3481 
Q 1172 3119 1398 2916 
Q 1625 2713 2034 2713 
Q 2441 2713 2670 2916 
Q 2900 3119 2900 3481 
Q 2900 3844 2670 4047 
Q 2441 4250 2034 4250 
Q 1625 4250 1398 4047 
Q 1172 3844 1172 3481 
z
" transform="scale(0.015625)"/>
       </defs>
       <use xlink:href="#DejaVuSans-30"/>
       <use xlink:href="#DejaVuSans-2e" x="63.623047"/>
       <use xlink:href="#DejaVuSans-38" x="95.410156"/>
      </g>
     </g>
    </g>
    <g id="ytick_6">
     <g id="line2d_9">
      <g>
       <use xlink:href="#m6b09cc6755" x="75.544" y="177.944453" style="stroke: #000000; stroke-width: 0.8"/>
      </g>
     </g>
     <g id="text_9">
      <!-- 1.0 -->
      <g transform="translate(46.279625 183.263359) scale(0.14 -0.14)">
       <defs>
        <path id="DejaVuSans-31" d="M 794 531 
L 1825 531 
L 1825 4091 
L 703 3866 
L 703 4441 
L 1819 4666 
L 2450 4666 
L 2450 531 
L 3481 531 
L 3481 0 
L 794 0 
L 794 531 
z
" transform="scale(0.015625)"/>
       </defs>
       <use xlink:href="#DejaVuSans-31"/>
       <use xlink:href="#DejaVuSans-2e" x="63.623047"/>
       <use xlink:href="#DejaVuSans-30" x="95.410156"/>
      </g>
     </g>
    </g>
    <g id="ytick_7">
     <g id="line2d_10">
      <g>
       <use xlink:href="#m6b09cc6755" x="75.544" y="127.961651" style="stroke: #000000; stroke-width: 0.8"/>
      </g>
     </g>
     <g id="text_10">
      <!-- 1.2 -->
      <g transform="translate(46.279625 133.280557) scale(0.14 -0.14)">
       <use xlink:href="#DejaVuSans-31"/>
       <use xlink:href="#DejaVuSans-2e" x="63.623047"/>
       <use xlink:href="#DejaVuSans-32" x="95.410156"/>
      </g>
     </g>
    </g>
    <g id="text_11">
     <!-- 1e5 -->
     <g transform="translate(75.544 76.56) scale(0.1 -0.1)">
      <defs>
       <path id="DejaVuSans-65" d="M 3597 1894 
L 3597 1613 
L 953 1613 
Q 991 1019 1311 708 
Q 1631 397 2203 397 
Q 2534 397 2845 478 
Q 3156 559 3463 722 
L 3463 178 
Q 3153 47 2828 -22 
Q 2503 -91 2169 -91 
Q 1331 -91 842 396 
Q 353 884 353 1716 
Q 353 2575 817 3079 
Q 1281 3584 2069 3584 
Q 2775 3584 3186 3129 
Q 3597 2675 3597 1894 
z
M 3022 2063 
Q 3016 2534 2758 2815 
Q 2500 3097 2075 3097 
Q 1594 3097 1305 2825 
Q 1016 2553 972 2059 
L 3022 2063 
z
" transform="scale(0.015625)"/>
       <path id="DejaVuSans-35" d="M 691 4666 
L 3169 4666 
L 3169 4134 
L 1269 4134 
L 1269 2991 
Q 1406 3038 1543 3061 
Q 1681 3084 1819 3084 
Q 2600 3084 3056 2656 
Q 3513 2228 3513 1497 
Q 3513 744 3044 326 
Q 2575 -91 1722 -91 
Q 1428 -91 1123 -41 
Q 819 9 494 109 
L 494 744 
Q 775 591 1075 516 
Q 1375 441 1709 441 
Q 2250 441 2565 725 
Q 2881 1009 2881 1497 
Q 2881 1984 2565 2268 
Q 2250 2553 1709 2553 
Q 1456 2553 1204 2497 
Q 953 2441 691 2322 
L 691 4666 
z
" transform="scale(0.015625)"/>
      </defs>
      <use xlink:href="#DejaVuSans-31"/>
      <use xlink:href="#DejaVuSans-65" x="63.623047"/>
      <use xlink:href="#DejaVuSans-35" x="125.146484"/>
     </g>
    </g>
   </g>
   <g id="line2d_11">
    <path d="M 84.711182 386.799214 
L 244.649248 386.799214 
" clip-path="url(#p2ab05d73df)" style="fill: none; stroke-dasharray: 7.4,3.2; stroke-dashoffset: 0; stroke: #696969; stroke-width: 2"/>
   </g>
   <g id="line2d_12">
    <path d="M 244.649248 426.826328 
L 211.881449 415.802485 
L 190.03625 238.416633 
L 174.432536 96.145455 
L 162.72975 391.928218 
L 153.627584 421.308712 
L 146.345851 421.291389 
L 140.388069 425.000689 
L 135.423251 426.792591 
L 131.222252 427.231652 
L 127.621395 427.047215 
L 124.500652 425.012938 
L 121.770002 427.469237 
L 119.360605 427.023207 
L 117.218919 424.162474 
L 115.302673 427.004148 
L 113.578052 423.912409 
L 112.017681 427.515066 
L 110.599161 425.88886 
L 109.303992 426.508641 
L 108.116752 427.635849 
L 107.024492 418.40072 
L 105.082697 427.487051 
L 104.215824 424.340828 
L 103.408735 427.385441 
L 102.655453 423.822462 
L 101.950769 419.165182 
L 101.290128 407.935538 
L 100.669525 423.510929 
L 100.085429 406.768678 
L 99.53471 419.629776 
L 99.014586 426.111961 
L 98.522577 427.608336 
L 98.056463 424.524573 
L 97.614253 426.423275 
L 97.194153 423.172093 
L 96.794546 423.630266 
L 96.413967 427.217042 
L 96.05109 426.858695 
L 95.704707 422.620455 
L 95.057122 406.190975 
L 94.753998 405.827559 
L 94.463503 415.755688 
L 94.184865 412.802949 
L 93.917373 415.661369 
L 93.660371 425.63065 
L 93.413253 427.326897 
L 93.17546 427.581725 
L 92.946475 425.616822 
L 92.725817 425.484748 
L 92.513039 425.512866 
L 92.307727 420.114033 
L 92.109494 408.978695 
L 91.917982 426.675981 
L 91.732853 423.070864 
L 91.553794 416.695927 
L 91.380511 425.877464 
L 91.212729 426.380631 
L 91.050191 423.750405 
L 90.892653 427.706886 
L 90.591686 416.953874 
L 90.447841 418.561058 
L 90.308166 417.584486 
L 90.172482 414.364828 
L 90.040619 416.838184 
L 89.787733 425.768416 
L 89.666415 416.412948 
L 89.548333 417.753503 
L 89.32137 425.088457 
L 89.212253 424.739786 
L 89.105899 420.035094 
L 88.802399 427.230977 
L 88.706109 424.048624 
L 88.61211 425.656517 
L 88.430672 424.909888 
L 88.343081 427.732829 
L 88.173804 419.406926 
L 88.091986 425.454255 
L 88.011967 425.168912 
L 87.933688 426.181921 
L 87.782125 400.202285 
L 87.636878 427.478451 
L 87.566501 426.612465 
L 87.497559 426.976276 
L 87.430011 420.925375 
L 87.363813 394.419362 
L 87.298926 402.202647 
L 87.235312 423.143287 
L 87.172933 418.180091 
L 87.051739 412.655248 
L 86.822694 426.904274 
L 86.714361 417.601383 
L 86.661646 421.967028 
L 86.509001 423.512357 
L 86.459874 422.149012 
L 86.411587 427.82557 
L 86.364118 427.650647 
L 86.317446 416.172401 
L 86.271553 417.920965 
L 86.182024 427.726401 
L 86.138351 425.593674 
L 86.095382 423.11214 
L 86.053101 425.60651 
L 86.011491 426.700517 
L 85.930222 403.676339 
L 85.890532 406.062383 
L 85.812971 427.259141 
L 85.775071 417.381836 
L 85.737742 410.727528 
L 85.70097 427.163563 
L 85.593874 426.687849 
L 85.525045 427.294696 
L 85.361337 408.844624 
L 85.298993 427.322164 
L 85.238334 420.716797 
L 85.121806 424.111532 
L 85.065812 415.135976 
L 85.038356 426.605443 
L 84.984495 416.211061 
L 84.958076 417.282758 
L 84.880787 412.594926 
L 84.830842 426.212197 
L 84.782108 427.667757 
L 84.758181 427.512601 
L 84.734541 423.996088 
L 84.711182 426.795452 
" clip-path="url(#p2ab05d73df)" style="fill: none; stroke: #191970; stroke-width: 2; stroke-linecap: square"/>
   </g>
   <g id="patch_3">
    <path d="M 75.544 444.44 
L 75.544 79.56 
" style="fill: none; stroke: #000000; stroke-width: 0.8; stroke-linejoin: miter; stroke-linecap: square"/>
   </g>
   <g id="patch_4">
    <path d="M 75.544 444.44 
L 277.222 444.44 
" style="fill: none; stroke: #000000; stroke-width: 0.8; stroke-linejoin: miter; stroke-linecap: square"/>
   </g>
   <g id="text_12">
    <!-- 1 -->
    <g transform="translate(171.92925 47.284625) scale(0.14 -0.14)">
     <use xlink:href="#DejaVuSans-31"/>
    </g>
    <!-- (PEAK ON 24.00 HOURS) -->
    <g transform="translate(90.231594 62.961563) scale(0.14 -0.14)">
     <defs>
      <path id="DejaVuSans-28" d="M 1984 4856 
Q 1566 4138 1362 3434 
Q 1159 2731 1159 2009 
Q 1159 1288 1364 580 
Q 1569 -128 1984 -844 
L 1484 -844 
Q 1016 -109 783 600 
Q 550 1309 550 2009 
Q 550 2706 781 3412 
Q 1013 4119 1484 4856 
L 1984 4856 
z
" transform="scale(0.015625)"/>
      <path id="DejaVuSans-50" d="M 1259 4147 
L 1259 2394 
L 2053 2394 
Q 2494 2394 2734 2622 
Q 2975 2850 2975 3272 
Q 2975 3691 2734 3919 
Q 2494 4147 2053 4147 
L 1259 4147 
z
M 628 4666 
L 2053 4666 
Q 2838 4666 3239 4311 
Q 3641 3956 3641 3272 
Q 3641 2581 3239 2228 
Q 2838 1875 2053 1875 
L 1259 1875 
L 1259 0 
L 628 0 
L 628 4666 
z
" transform="scale(0.015625)"/>
      <path id="DejaVuSans-45" d="M 628 4666 
L 3578 4666 
L 3578 4134 
L 1259 4134 
L 1259 2753 
L 3481 2753 
L 3481 2222 
L 1259 2222 
L 1259 531 
L 3634 531 
L 3634 0 
L 628 0 
L 628 4666 
z
" transform="scale(0.015625)"/>
      <path id="DejaVuSans-41" d="M 2188 4044 
L 1331 1722 
L 3047 1722 
L 2188 4044 
z
M 1831 4666 
L 2547 4666 
L 4325 0 
L 3669 0 
L 3244 1197 
L 1141 1197 
L 716 0 
L 50 0 
L 1831 4666 
z
" transform="scale(0.015625)"/>
      <path id="DejaVuSans-4b" d="M 628 4666 
L 1259 4666 
L 1259 2694 
L 3353 4666 
L 4166 4666 
L 1850 2491 
L 4331 0 
L 3500 0 
L 1259 2247 
L 1259 0 
L 628 0 
L 628 4666 
z
" transform="scale(0.015625)"/>
      <path id="DejaVuSans-20" transform="scale(0.015625)"/>
      <path id="DejaVuSans-4f" d="M 2522 4238 
Q 1834 4238 1429 3725 
Q 1025 3213 1025 2328 
Q 1025 1447 1429 934 
Q 1834 422 2522 422 
Q 3209 422 3611 934 
Q 4013 1447 4013 2328 
Q 4013 3213 3611 3725 
Q 3209 4238 2522 4238 
z
M 2522 4750 
Q 3503 4750 4090 4092 
Q 4678 3434 4678 2328 
Q 4678 1225 4090 567 
Q 3503 -91 2522 -91 
Q 1538 -91 948 565 
Q 359 1222 359 2328 
Q 359 3434 948 4092 
Q 1538 4750 2522 4750 
z
" transform="scale(0.015625)"/>
      <path id="DejaVuSans-4e" d="M 628 4666 
L 1478 4666 
L 3547 763 
L 3547 4666 
L 4159 4666 
L 4159 0 
L 3309 0 
L 1241 3903 
L 1241 0 
L 628 0 
L 628 4666 
z
" transform="scale(0.015625)"/>
      <path id="DejaVuSans-48" d="M 628 4666 
L 1259 4666 
L 1259 2753 
L 3553 2753 
L 3553 4666 
L 4184 4666 
L 4184 0 
L 3553 0 
L 3553 2222 
L 1259 2222 
L 1259 0 
L 628 0 
L 628 4666 
z
" transform="scale(0.015625)"/>
      <path id="DejaVuSans-55" d="M 556 4666 
L 1191 4666 
L 1191 1831 
Q 1191 1081 1462 751 
Q 1734 422 2344 422 
Q 2950 422 3222 751 
Q 3494 1081 3494 1831 
L 3494 4666 
L 4128 4666 
L 4128 1753 
Q 4128 841 3676 375 
Q 3225 -91 2344 -91 
Q 1459 -91 1007 375 
Q 556 841 556 1753 
L 556 4666 
z
" transform="scale(0.015625)"/>
      <path id="DejaVuSans-52" d="M 2841 2188 
Q 3044 2119 3236 1894 
Q 3428 1669 3622 1275 
L 4263 0 
L 3584 0 
L 2988 1197 
Q 2756 1666 2539 1819 
Q 2322 1972 1947 1972 
L 1259 1972 
L 1259 0 
L 628 0 
L 628 4666 
L 2053 4666 
Q 2853 4666 3247 4331 
Q 3641 3997 3641 3322 
Q 3641 2881 3436 2590 
Q 3231 2300 2841 2188 
z
M 1259 4147 
L 1259 2491 
L 2053 2491 
Q 2509 2491 2742 2702 
Q 2975 2913 2975 3322 
Q 2975 3731 2742 3939 
Q 2509 4147 2053 4147 
L 1259 4147 
z
" transform="scale(0.015625)"/>
      <path id="DejaVuSans-53" d="M 3425 4513 
L 3425 3897 
Q 3066 4069 2747 4153 
Q 2428 4238 2131 4238 
Q 1616 4238 1336 4038 
Q 1056 3838 1056 3469 
Q 1056 3159 1242 3001 
Q 1428 2844 1947 2747 
L 2328 2669 
Q 3034 2534 3370 2195 
Q 3706 1856 3706 1288 
Q 3706 609 3251 259 
Q 2797 -91 1919 -91 
Q 1588 -91 1214 -16 
Q 841 59 441 206 
L 441 856 
Q 825 641 1194 531 
Q 1563 422 1919 422 
Q 2459 422 2753 634 
Q 3047 847 3047 1241 
Q 3047 1584 2836 1778 
Q 2625 1972 2144 2069 
L 1759 2144 
Q 1053 2284 737 2584 
Q 422 2884 422 3419 
Q 422 4038 858 4394 
Q 1294 4750 2059 4750 
Q 2388 4750 2728 4690 
Q 3069 4631 3425 4513 
z
" transform="scale(0.015625)"/>
      <path id="DejaVuSans-29" d="M 513 4856 
L 1013 4856 
Q 1481 4119 1714 3412 
Q 1947 2706 1947 2009 
Q 1947 1309 1714 600 
Q 1481 -109 1013 -844 
L 513 -844 
Q 928 -128 1133 580 
Q 1338 1288 1338 2009 
Q 1338 2731 1133 3434 
Q 928 4138 513 4856 
z
" transform="scale(0.015625)"/>
     </defs>
     <use xlink:href="#DejaVuSans-28"/>
     <use xlink:href="#DejaVuSans-50" x="39.013672"/>
     <use xlink:href="#DejaVuSans-45" x="99.316406"/>
     <use xlink:href="#DejaVuSans-41" x="162.5"/>
     <use xlink:href="#DejaVuSans-4b" x="230.908203"/>
     <use xlink:href="#DejaVuSans-20" x="296.484375"/>
     <use xlink:href="#DejaVuSans-4f" x="328.271484"/>
     <use xlink:href="#DejaVuSans-4e" x="406.982422"/>
     <use xlink:href="#DejaVuSans-20" x="481.787109"/>
     <use xlink:href="#DejaVuSans-32" x="513.574219"/>
     <use xlink:href="#DejaVuSans-34" x="577.197266"/>
     <use xlink:href="#DejaVuSans-2e" x="640.820312"/>
     <use xlink:href="#DejaVuSans-30" x="672.607422"/>
     <use xlink:href="#DejaVuSans-30" x="736.230469"/>
     <use xlink:href="#DejaVuSans-20" x="799.853516"/>
     <use xlink:href="#DejaVuSans-48" x="831.640625"/>
     <use xlink:href="#DejaVuSans-4f" x="906.835938"/>
     <use xlink:href="#DejaVuSans-55" x="985.546875"/>
     <use xlink:href="#DejaVuSans-52" x="1058.740234"/>
     <use xlink:href="#DejaVuSans-53" x="1128.222656"/>
     <use xlink:href="#DejaVuSans-29" x="1191.699219"/>
    </g>
   </g>
  </g>
  <g id="axes_2">
   <g id="patch_5">
    <path d="M 291.522 444.44 
L 493.2 444.44 
L 493.2 79.56 
L 291.522 79.56 
z
" style="fill: #ffffff"/>
   </g>
   <g id="matplotlib.axis_3">
    <g id="xtick_4">
     <g id="line2d_13">
      <g>
       <use xlink:href="#ma223685f6b" x="296.788253" y="444.44" style="stroke: #000000; stroke-width: 0.8"/>
      </g>
     </g>
     <g id="text_13">
      <!-- 0 -->
      <g transform="translate(292.334503 462.077812) scale(0.14 -0.14)">
       <use xlink:href="#DejaVuSans-30"/>
      </g>
     </g>
    </g>
    <g id="xtick_5">
     <g id="line2d_14">
      <g>
       <use xlink:href="#ma223685f6b" x="374.806822" y="444.44" style="stroke: #000000; stroke-width: 0.8"/>
      </g>
     </g>
     <g id="text_14">
      <!-- 20 -->
      <g transform="translate(365.899322 462.077812) scale(0.14 -0.14)">
       <use xlink:href="#DejaVuSans-32"/>
       <use xlink:href="#DejaVuSans-30" x="63.623047"/>
      </g>
     </g>
    </g>
    <g id="xtick_6">
     <g id="line2d_15">
      <g>
       <use xlink:href="#ma223685f6b" x="452.825391" y="444.44" style="stroke: #000000; stroke-width: 0.8"/>
      </g>
     </g>
     <g id="text_15">
      <!-- 40 -->
      <g transform="translate(443.917891 462.077812) scale(0.14 -0.14)">
       <use xlink:href="#DejaVuSans-34"/>
       <use xlink:href="#DejaVuSans-30" x="63.623047"/>
      </g>
     </g>
    </g>
   </g>
   <g id="matplotlib.axis_4">
    <g id="ytick_8">
     <g id="line2d_16">
      <g>
       <use xlink:href="#m6b09cc6755" x="291.522" y="427.85846" style="stroke: #000000; stroke-width: 0.8"/>
      </g>
     </g>
    </g>
    <g id="ytick_9">
     <g id="line2d_17">
      <g>
       <use xlink:href="#m6b09cc6755" x="291.522" y="377.875659" style="stroke: #000000; stroke-width: 0.8"/>
      </g>
     </g>
    </g>
    <g id="ytick_10">
     <g id="line2d_18">
      <g>
       <use xlink:href="#m6b09cc6755" x="291.522" y="327.892857" style="stroke: #000000; stroke-width: 0.8"/>
      </g>
     </g>
    </g>
    <g id="ytick_11">
     <g id="line2d_19">
      <g>
       <use xlink:href="#m6b09cc6755" x="291.522" y="277.910056" style="stroke: #000000; stroke-width: 0.8"/>
      </g>
     </g>
    </g>
    <g id="ytick_12">
     <g id="line2d_20">
      <g>
       <use xlink:href="#m6b09cc6755" x="291.522" y="227.927254" style="stroke: #000000; stroke-width: 0.8"/>
      </g>
     </g>
    </g>
    <g id="ytick_13">
     <g id="line2d_21">
      <g>
       <use xlink:href="#m6b09cc6755" x="291.522" y="177.944453" style="stroke: #000000; stroke-width: 0.8"/>
      </g>
     </g>
    </g>
    <g id="ytick_14">
     <g id="line2d_22">
      <g>
       <use xlink:href="#m6b09cc6755" x="291.522" y="127.961651" style="stroke: #000000; stroke-width: 0.8"/>
      </g>
     </g>
    </g>
   </g>
   <g id="line2d_23">
    <path d="M 300.689182 385.838331 
L 484.032818 385.838331 
" clip-path="url(#pf7f9879f9b)" style="fill: none; stroke-dasharray: 7.4,3.2; stroke-dashoffset: 0; stroke: #696969; stroke-width: 2"/>
   </g>
   <g id="line2d_24">
    <path d="M 484.032818 417.77409 
L 446.583905 423.309383 
L 421.617963 424.635055 
L 403.785148 406.183848 
L 390.410536 160.810565 
L 380.00806 225.596607 
L 371.686079 422.180594 
L 364.877186 427.285319 
L 359.203108 416.918668 
L 354.401966 420.522203 
L 350.2867 422.076717 
L 346.720137 410.397612 
L 343.599395 422.31442 
L 340.845798 427.313171 
L 338.398157 426.100657 
L 336.208162 412.191503 
L 334.237166 419.21527 
L 332.453885 421.972119 
L 330.83272 425.9637 
L 329.352526 422.583885 
L 327.995681 420.520408 
L 326.747384 384.018728 
L 325.59511 402.020944 
L 324.528189 427.854545 
L 323.537477 414.408376 
L 322.61509 420.101758 
L 321.754195 426.407645 
L 320.948842 423.177772 
L 320.193824 424.290194 
L 319.484564 425.788748 
L 318.817026 427.528873 
L 318.187632 427.831131 
L 317.593205 425.445563 
L 317.030909 422.519993 
L 316.498208 416.359074 
L 315.992824 420.12806 
L 315.51271 426.023033 
L 315.056016 424.179408 
L 314.621069 412.892637 
L 314.206352 411.168905 
L 313.810487 415.683074 
L 313.432215 425.876435 
L 313.070389 414.940751 
L 312.723961 419.190574 
L 312.391967 412.661867 
L 312.073524 409.117842 
L 311.767819 423.140979 
L 311.474102 426.963982 
L 311.191681 427.051775 
L 310.919919 423.210191 
L 310.658221 407.785702 
L 310.40604 423.777568 
L 310.162865 426.50076 
L 309.928223 422.270407 
L 309.701672 423.162787 
L 309.4828 410.910233 
L 309.271224 426.791934 
L 309.066586 427.661586 
L 308.868548 426.743645 
L 308.676797 427.434263 
L 308.310996 421.839911 
L 308.136409 426.533974 
L 307.967033 427.388557 
L 307.80264 426.995432 
L 307.643011 425.378851 
L 307.487943 427.503629 
L 307.190729 402.013457 
L 307.04823 424.194277 
L 306.909581 427.372666 
L 306.77463 424.741906 
L 306.64323 426.842187 
L 306.515244 424.08103 
L 306.390539 424.612838 
L 306.268991 425.700211 
L 306.150482 427.790666 
L 306.034899 427.692308 
L 305.922135 403.614659 
L 305.812088 411.025665 
L 305.704661 426.329323 
L 305.599762 420.036613 
L 305.397199 426.591657 
L 305.018784 412.854259 
L 304.841783 392.44606 
L 304.672235 417.21713 
L 304.59011 407.114327 
L 304.509679 427.593897 
L 304.430889 417.700834 
L 304.278036 425.135349 
L 304.20388 418.909604 
L 304.131177 421.318112 
L 303.989967 427.605037 
L 303.92138 427.098564 
L 303.854086 427.523514 
L 303.78805 423.470267 
L 303.659614 427.097165 
L 303.597147 424.32555 
L 303.535805 427.642216 
L 303.41638 418.498645 
L 303.358238 426.287202 
L 303.301108 423.06861 
L 303.189777 427.005481 
L 303.135527 425.529709 
L 303.029739 411.229858 
L 302.978156 412.144008 
L 302.877508 427.287558 
L 302.828401 423.325561 
L 302.68572 404.471392 
L 302.549625 426.227038 
L 302.419669 416.74481 
L 302.462331 427.621684 
L 302.377643 419.474245 
L 302.295446 427.795844 
L 302.255248 427.719091 
L 302.215632 424.282079 
L 302.138098 409.335399 
L 302.062748 427.198643 
L 302.025864 424.190845 
L 301.953621 419.580241 
L 301.918241 423.191296 
L 301.883344 423.291654 
L 301.814953 427.719653 
L 301.748374 426.964743 
L 301.683536 405.503128 
L 301.651749 413.431223 
L 301.558816 427.396052 
L 301.498808 425.562735 
L 301.469368 423.469783 
L 301.440292 424.853414 
L 301.411576 427.829479 
L 301.383212 427.168885 
L 301.273153 409.880546 
L 301.220077 425.124698 
L 301.142778 420.569846 
L 301.068129 427.625205 
L 301.043812 423.339643 
L 300.972489 421.433037 
L 300.995996 425.668635 
L 300.926255 422.148769 
L 300.903519 421.798819 
L 300.836785 414.478721 
L 300.815018 419.374652 
L 300.793485 424.054048 
L 300.77218 395.114211 
L 300.689182 427.852812 
L 300.689182 427.852812 
" clip-path="url(#pf7f9879f9b)" style="fill: none; stroke: #191970; stroke-width: 2; stroke-linecap: square"/>
   </g>
   <g id="patch_6">
    <path d="M 291.522 444.44 
L 291.522 79.56 
" style="fill: none; stroke: #000000; stroke-width: 0.8; stroke-linejoin: miter; stroke-linecap: square"/>
   </g>
   <g id="patch_7">
    <path d="M 291.522 444.44 
L 493.2 444.44 
" style="fill: none; stroke: #000000; stroke-width: 0.8; stroke-linejoin: miter; stroke-linecap: square"/>
   </g>
   <g id="text_16">
    <!-- 2 -->
    <g transform="translate(387.90725 57.883063) scale(0.14 -0.14)">
     <use xlink:href="#DejaVuSans-32"/>
    </g>
    <!-- (PEAK ON 24.00 HOURS) -->
    <g transform="translate(306.209594 73.56) scale(0.14 -0.14)">
     <use xlink:href="#DejaVuSans-28"/>
     <use xlink:href="#DejaVuSans-50" x="39.013672"/>
     <use xlink:href="#DejaVuSans-45" x="99.316406"/>
     <use xlink:href="#DejaVuSans-41" x="162.5"/>
     <use xlink:href="#DejaVuSans-4b" x="230.908203"/>
     <use xlink:href="#DejaVuSans-20" x="296.484375"/>
     <use xlink:href="#DejaVuSans-4f" x="328.271484"/>
     <use xlink:href="#DejaVuSans-4e" x="406.982422"/>
     <use xlink:href="#DejaVuSans-20" x="481.787109"/>
     <use xlink:href="#DejaVuSans-32" x="513.574219"/>
     <use xlink:href="#DejaVuSans-34" x="577.197266"/>
     <use xlink:href="#DejaVuSans-2e" x="640.820312"/>
     <use xlink:href="#DejaVuSans-30" x="672.607422"/>
     <use xlink:href="#DejaVuSans-30" x="736.230469"/>
     <use xlink:href="#DejaVuSans-20" x="799.853516"/>
     <use xlink:href="#DejaVuSans-48" x="831.640625"/>
     <use xlink:href="#DejaVuSans-4f" x="906.835938"/>
     <use xlink:href="#DejaVuSans-55" x="985.546875"/>
     <use xlink:href="#DejaVuSans-52" x="1058.740234"/>
     <use xlink:href="#DejaVuSans-53" x="1128.222656"/>
     <use xlink:href="#DejaVuSans-29" x="1191.699219"/>
    </g>
   </g>
  </g>
  <g id="text_17">
   <!-- PSD $(AMPLITUDE_{S}^{2}/HZ)$ -->
   <g transform="translate(26.46 352.44) rotate(-90) scale(0.18 -0.18)">
    <defs>
     <path id="DejaVuSans-44" d="M 1259 4147 
L 1259 519 
L 2022 519 
Q 2988 519 3436 956 
Q 3884 1394 3884 2338 
Q 3884 3275 3436 3711 
Q 2988 4147 2022 4147 
L 1259 4147 
z
M 628 4666 
L 1925 4666 
Q 3281 4666 3915 4102 
Q 4550 3538 4550 2338 
Q 4550 1131 3912 565 
Q 3275 0 1925 0 
L 628 0 
L 628 4666 
z
" transform="scale(0.015625)"/>
     <path id="DejaVuSans-Oblique-41" d="M 2356 4666 
L 3072 4666 
L 3938 0 
L 3278 0 
L 3084 1197 
L 984 1197 
L 325 0 
L -341 0 
L 2356 4666 
z
M 2584 4044 
L 1275 1722 
L 2988 1722 
L 2584 4044 
z
" transform="scale(0.015625)"/>
     <path id="DejaVuSans-Oblique-4d" d="M 1081 4666 
L 2028 4666 
L 2572 1522 
L 4378 4666 
L 5350 4666 
L 4441 0 
L 3828 0 
L 4622 4091 
L 2791 897 
L 2175 897 
L 1581 4103 
L 788 0 
L 172 0 
L 1081 4666 
z
" transform="scale(0.015625)"/>
     <path id="DejaVuSans-Oblique-50" d="M 1081 4666 
L 2541 4666 
Q 3178 4666 3512 4369 
Q 3847 4072 3847 3500 
Q 3847 2731 3353 2303 
Q 2859 1875 1966 1875 
L 1172 1875 
L 806 0 
L 172 0 
L 1081 4666 
z
M 1613 4147 
L 1275 2394 
L 2069 2394 
Q 2606 2394 2893 2669 
Q 3181 2944 3181 3456 
Q 3181 3784 2986 3965 
Q 2791 4147 2438 4147 
L 1613 4147 
z
" transform="scale(0.015625)"/>
     <path id="DejaVuSans-Oblique-4c" d="M 1075 4666 
L 1709 4666 
L 909 525 
L 3181 525 
L 3078 0 
L 172 0 
L 1075 4666 
z
" transform="scale(0.015625)"/>
     <path id="DejaVuSans-Oblique-49" d="M 1081 4666 
L 1716 4666 
L 806 0 
L 172 0 
L 1081 4666 
z
" transform="scale(0.015625)"/>
     <path id="DejaVuSans-Oblique-54" d="M 378 4666 
L 4325 4666 
L 4225 4134 
L 2559 4134 
L 1759 0 
L 1125 0 
L 1925 4134 
L 275 4134 
L 378 4666 
z
" transform="scale(0.015625)"/>
     <path id="DejaVuSans-Oblique-55" d="M 991 4666 
L 1625 4666 
L 1075 1831 
Q 1041 1641 1027 1517 
Q 1013 1394 1013 1300 
Q 1013 869 1253 645 
Q 1494 422 1959 422 
Q 2563 422 2898 753 
Q 3234 1084 3378 1831 
L 3928 4666 
L 4563 4666 
L 4000 1753 
Q 3816 809 3300 359 
Q 2784 -91 1888 -91 
Q 1188 -91 780 261 
Q 372 613 372 1216 
Q 372 1325 387 1461 
Q 403 1597 434 1753 
L 991 4666 
z
" transform="scale(0.015625)"/>
     <path id="DejaVuSans-Oblique-44" d="M 1081 4666 
L 2438 4666 
Q 3519 4666 4070 4208 
Q 4622 3750 4622 2847 
Q 4622 2250 4412 1698 
Q 4203 1147 3834 769 
Q 3463 381 2891 190 
Q 2319 0 1538 0 
L 172 0 
L 1081 4666 
z
M 1613 4147 
L 909 519 
L 1734 519 
Q 2794 519 3375 1128 
Q 3956 1738 3956 2847 
Q 3956 3519 3581 3833 
Q 3206 4147 2406 4147 
L 1613 4147 
z
" transform="scale(0.015625)"/>
     <path id="DejaVuSans-Oblique-45" d="M 1081 4666 
L 4031 4666 
L 3928 4134 
L 1606 4134 
L 1338 2753 
L 3566 2753 
L 3463 2222 
L 1234 2222 
L 909 531 
L 3284 531 
L 3181 0 
L 172 0 
L 1081 4666 
z
" transform="scale(0.015625)"/>
     <path id="DejaVuSans-Oblique-53" d="M 3859 4513 
L 3738 3897 
Q 3422 4066 3111 4152 
Q 2800 4238 2509 4238 
Q 1944 4238 1609 3991 
Q 1275 3744 1275 3334 
Q 1275 3109 1398 2989 
Q 1522 2869 2034 2731 
L 2413 2638 
Q 3053 2472 3303 2217 
Q 3553 1963 3553 1503 
Q 3553 797 2998 353 
Q 2444 -91 1538 -91 
Q 1166 -91 791 -17 
Q 416 56 38 206 
L 166 856 
Q 513 641 861 531 
Q 1209 422 1556 422 
Q 2147 422 2503 684 
Q 2859 947 2859 1369 
Q 2859 1650 2717 1795 
Q 2575 1941 2106 2059 
L 1728 2156 
Q 1081 2325 845 2545 
Q 609 2766 609 3163 
Q 609 3859 1145 4304 
Q 1681 4750 2541 4750 
Q 2875 4750 3203 4690 
Q 3531 4631 3859 4513 
z
" transform="scale(0.015625)"/>
     <path id="DejaVuSans-2f" d="M 1625 4666 
L 2156 4666 
L 531 -594 
L 0 -594 
L 1625 4666 
z
" transform="scale(0.015625)"/>
     <path id="DejaVuSans-Oblique-48" d="M 1081 4666 
L 1716 4666 
L 1344 2753 
L 3634 2753 
L 4006 4666 
L 4641 4666 
L 3731 0 
L 3097 0 
L 3531 2222 
L 1241 2222 
L 806 0 
L 172 0 
L 1081 4666 
z
" transform="scale(0.015625)"/>
     <path id="DejaVuSans-Oblique-5a" d="M 838 4666 
L 4500 4666 
L 4409 4184 
L 794 531 
L 3769 531 
L 3669 0 
L -141 0 
L -50 481 
L 3566 4134 
L 738 4134 
L 838 4666 
z
" transform="scale(0.015625)"/>
    </defs>
    <use xlink:href="#DejaVuSans-50" transform="translate(0 0.765625)"/>
    <use xlink:href="#DejaVuSans-53" transform="translate(60.302734 0.765625)"/>
    <use xlink:href="#DejaVuSans-44" transform="translate(123.779297 0.765625)"/>
    <use xlink:href="#DejaVuSans-20" transform="translate(200.78125 0.765625)"/>
    <use xlink:href="#DejaVuSans-28" transform="translate(232.568359 0.765625)"/>
    <use xlink:href="#DejaVuSans-Oblique-41" transform="translate(271.582031 0.765625)"/>
    <use xlink:href="#DejaVuSans-Oblique-4d" transform="translate(339.990234 0.765625)"/>
    <use xlink:href="#DejaVuSans-Oblique-50" transform="translate(426.269531 0.765625)"/>
    <use xlink:href="#DejaVuSans-Oblique-4c" transform="translate(486.572266 0.765625)"/>
    <use xlink:href="#DejaVuSans-Oblique-49" transform="translate(542.285156 0.765625)"/>
    <use xlink:href="#DejaVuSans-Oblique-54" transform="translate(571.777344 0.765625)"/>
    <use xlink:href="#DejaVuSans-Oblique-55" transform="translate(632.861328 0.765625)"/>
    <use xlink:href="#DejaVuSans-Oblique-44" transform="translate(706.054688 0.765625)"/>
    <use xlink:href="#DejaVuSans-Oblique-45" transform="translate(783.056641 0.765625)"/>
    <use xlink:href="#DejaVuSans-32" transform="translate(853.257005 39.046875) scale(0.7)"/>
    <use xlink:href="#DejaVuSans-Oblique-53" transform="translate(846.240234 -26.578125) scale(0.7)"/>
    <use xlink:href="#DejaVuSans-2f" transform="translate(900.527513 0.765625)"/>
    <use xlink:href="#DejaVuSans-Oblique-48" transform="translate(932.468919 0.765625)"/>
    <use xlink:href="#DejaVuSans-Oblique-5a" transform="translate(1007.664232 0.765625)"/>
    <use xlink:href="#DejaVuSans-29" transform="translate(1076.170091 0.765625)"/>
   </g>
  </g>
  <g id="text_18">
   <!-- PERIOD (HOUR) -->
   <g transform="translate(181.386562 495.216563) scale(0.18 -0.18)">
    <defs>
     <path id="DejaVuSans-49" d="M 628 4666 
L 1259 4666 
L 1259 0 
L 628 0 
L 628 4666 
z
" transform="scale(0.015625)"/>
    </defs>
    <use xlink:href="#DejaVuSans-50"/>
    <use xlink:href="#DejaVuSans-45" x="60.302734"/>
    <use xlink:href="#DejaVuSans-52" x="123.486328"/>
    <use xlink:href="#DejaVuSans-49" x="192.96875"/>
    <use xlink:href="#DejaVuSans-4f" x="222.460938"/>
    <use xlink:href="#DejaVuSans-44" x="301.171875"/>
    <use xlink:href="#DejaVuSans-20" x="378.173828"/>
    <use xlink:href="#DejaVuSans-28" x="409.960938"/>
    <use xlink:href="#DejaVuSans-48" x="448.974609"/>
    <use xlink:href="#DejaVuSans-4f" x="524.169922"/>
    <use xlink:href="#DejaVuSans-55" x="602.880859"/>
    <use xlink:href="#DejaVuSans-52" x="676.074219"/>
    <use xlink:href="#DejaVuSans-29" x="745.556641"/>
   </g>
  </g>
  <g id="text_19">
   <!-- PERIODOGRAM OF CONTINUOUS - 2 SQUARE 01 -->
   <g transform="translate(59.82125 22.2375) scale(0.16 -0.16)">
    <defs>
     <path id="DejaVuSans-47" d="M 3809 666 
L 3809 1919 
L 2778 1919 
L 2778 2438 
L 4434 2438 
L 4434 434 
Q 4069 175 3628 42 
Q 3188 -91 2688 -91 
Q 1594 -91 976 548 
Q 359 1188 359 2328 
Q 359 3472 976 4111 
Q 1594 4750 2688 4750 
Q 3144 4750 3555 4637 
Q 3966 4525 4313 4306 
L 4313 3634 
Q 3963 3931 3569 4081 
Q 3175 4231 2741 4231 
Q 1884 4231 1454 3753 
Q 1025 3275 1025 2328 
Q 1025 1384 1454 906 
Q 1884 428 2741 428 
Q 3075 428 3337 486 
Q 3600 544 3809 666 
z
" transform="scale(0.015625)"/>
     <path id="DejaVuSans-4d" d="M 628 4666 
L 1569 4666 
L 2759 1491 
L 3956 4666 
L 4897 4666 
L 4897 0 
L 4281 0 
L 4281 4097 
L 3078 897 
L 2444 897 
L 1241 4097 
L 1241 0 
L 628 0 
L 628 4666 
z
" transform="scale(0.015625)"/>
     <path id="DejaVuSans-46" d="M 628 4666 
L 3309 4666 
L 3309 4134 
L 1259 4134 
L 1259 2759 
L 3109 2759 
L 3109 2228 
L 1259 2228 
L 1259 0 
L 628 0 
L 628 4666 
z
" transform="scale(0.015625)"/>
     <path id="DejaVuSans-43" d="M 4122 4306 
L 4122 3641 
Q 3803 3938 3442 4084 
Q 3081 4231 2675 4231 
Q 1875 4231 1450 3742 
Q 1025 3253 1025 2328 
Q 1025 1406 1450 917 
Q 1875 428 2675 428 
Q 3081 428 3442 575 
Q 3803 722 4122 1019 
L 4122 359 
Q 3791 134 3420 21 
Q 3050 -91 2638 -91 
Q 1578 -91 968 557 
Q 359 1206 359 2328 
Q 359 3453 968 4101 
Q 1578 4750 2638 4750 
Q 3056 4750 3426 4639 
Q 3797 4528 4122 4306 
z
" transform="scale(0.015625)"/>
     <path id="DejaVuSans-54" d="M -19 4666 
L 3928 4666 
L 3928 4134 
L 2272 4134 
L 2272 0 
L 1638 0 
L 1638 4134 
L -19 4134 
L -19 4666 
z
" transform="scale(0.015625)"/>
     <path id="DejaVuSans-2d" d="M 313 2009 
L 1997 2009 
L 1997 1497 
L 313 1497 
L 313 2009 
z
" transform="scale(0.015625)"/>
     <path id="DejaVuSans-51" d="M 2522 4238 
Q 1834 4238 1429 3725 
Q 1025 3213 1025 2328 
Q 1025 1447 1429 934 
Q 1834 422 2522 422 
Q 3209 422 3611 934 
Q 4013 1447 4013 2328 
Q 4013 3213 3611 3725 
Q 3209 4238 2522 4238 
z
M 3406 84 
L 4238 -825 
L 3475 -825 
L 2784 -78 
Q 2681 -84 2626 -87 
Q 2572 -91 2522 -91 
Q 1538 -91 948 567 
Q 359 1225 359 2328 
Q 359 3434 948 4092 
Q 1538 4750 2522 4750 
Q 3503 4750 4090 4092 
Q 4678 3434 4678 2328 
Q 4678 1516 4351 937 
Q 4025 359 3406 84 
z
" transform="scale(0.015625)"/>
    </defs>
    <use xlink:href="#DejaVuSans-50"/>
    <use xlink:href="#DejaVuSans-45" x="60.302734"/>
    <use xlink:href="#DejaVuSans-52" x="123.486328"/>
    <use xlink:href="#DejaVuSans-49" x="192.96875"/>
    <use xlink:href="#DejaVuSans-4f" x="222.460938"/>
    <use xlink:href="#DejaVuSans-44" x="301.171875"/>
    <use xlink:href="#DejaVuSans-4f" x="378.173828"/>
    <use xlink:href="#DejaVuSans-47" x="456.884766"/>
    <use xlink:href="#DejaVuSans-52" x="534.375"/>
    <use xlink:href="#DejaVuSans-41" x="599.857422"/>
    <use xlink:href="#DejaVuSans-4d" x="668.265625"/>
    <use xlink:href="#DejaVuSans-20" x="754.544922"/>
    <use xlink:href="#DejaVuSans-4f" x="786.332031"/>
    <use xlink:href="#DejaVuSans-46" x="865.042969"/>
    <use xlink:href="#DejaVuSans-20" x="922.5625"/>
    <use xlink:href="#DejaVuSans-43" x="954.349609"/>
    <use xlink:href="#DejaVuSans-4f" x="1024.173828"/>
    <use xlink:href="#DejaVuSans-4e" x="1102.884766"/>
    <use xlink:href="#DejaVuSans-54" x="1177.689453"/>
    <use xlink:href="#DejaVuSans-49" x="1238.773438"/>
    <use xlink:href="#DejaVuSans-4e" x="1268.265625"/>
    <use xlink:href="#DejaVuSans-55" x="1343.070312"/>
    <use xlink:href="#DejaVuSans-4f" x="1416.263672"/>
    <use xlink:href="#DejaVuSans-55" x="1494.974609"/>
    <use xlink:href="#DejaVuSans-53" x="1568.167969"/>
    <use xlink:href="#DejaVuSans-20" x="1631.644531"/>
    <use xlink:href="#DejaVuSans-2d" x="1663.431641"/>
    <use xlink:href="#DejaVuSans-20" x="1699.515625"/>
    <use xlink:href="#DejaVuSans-32" x="1731.302734"/>
    <use xlink:href="#DejaVuSans-20" x="1794.925781"/>
    <use xlink:href="#DejaVuSans-53" x="1826.712891"/>
    <use xlink:href="#DejaVuSans-51" x="1890.189453"/>
    <use xlink:href="#DejaVuSans-55" x="1968.900391"/>
    <use xlink:href="#DejaVuSans-41" x="2042.09375"/>
    <use xlink:href="#DejaVuSans-52" x="2110.501953"/>
    <use xlink:href="#DejaVuSans-45" x="2179.984375"/>
    <use xlink:href="#DejaVuSans-20" x="2243.167969"/>
    <use xlink:href="#DejaVuSans-30" x="2274.955078"/>
    <use xlink:href="#DejaVuSans-31" x="2338.578125"/>
   </g>
  </g>
 </g>
 <defs>
  <clipPath id="p2ab05d73df">
   <rect x="75.544" y="79.56" width="201.678" height="364.88"/>
  </clipPath>
  <clipPath id="pf7f9879f9b">
   <rect x="291.522" y="79.56" width="201.678" height="364.88"/>
  </clipPath>
 </defs>
</svg>
