<?xml version="1.0" encoding="utf-8" standalone="no"?>
<!DOCTYPE svg PUBLIC "-//W3C//DTD SVG 1.1//EN"
  "http://www.w3.org/Graphics/SVG/1.1/DTD/svg11.dtd">
<svg xmlns:xlink="http://www.w3.org/1999/xlink" width="850.32pt" height="141.12pt" viewBox="0 0 850.32 141.12" xmlns="http://www.w3.org/2000/svg" version="1.1">
 <metadata>
  <rdf:RDF xmlns:dc="http://purl.org/dc/elements/1.1/" xmlns:cc="http://creativecommons.org/ns#" xmlns:rdf="http://www.w3.org/1999/02/22-rdf-syntax-ns#">
   <cc:Work>
    <dc:type rdf:resource="http://purl.org/dc/dcmitype/StillImage"/>
    <dc:date>2023-11-07T10:59:06.222673</dc:date>
    <dc:format>image/svg+xml</dc:format>
    <dc:creator>
     <cc:Agent>
      <dc:title>Matplotlib v3.7.1, https://matplotlib.org/</dc:title>
     </cc:Agent>
    </dc:creator>
   </cc:Work>
  </rdf:RDF>
 </metadata>
 <defs>
  <style type="text/css">*{stroke-linejoin: round; stroke-linecap: butt}</style>
 </defs>
 <g id="figure_1">
  <g id="patch_1">
   <path d="M 0 141.12 
L 850.32 141.12 
L 850.32 0 
L 0 0 
z
" style="fill: #ffffff"/>
  </g>
  <g id="axes_1">
   <g id="patch_2">
    <path d="M 47.95 89.48 
L 436.585 89.48 
L 436.585 54.672 
L 47.95 54.672 
z
" style="fill: #ffffff"/>
   </g>
   <g id="patch_3">
    <path d="M 46.322209 86.579333 
L 49.577791 86.579333 
L 49.577791 84.357546 
L 46.322209 84.357546 
z
" clip-path="url(#p02b9f27169)" style="fill: #696969"/>
   </g>
   <g id="patch_4">
    <path d="M 48.356948 86.579333 
L 51.612529 86.579333 
L 51.612529 78.556213 
L 48.356948 78.556213 
z
" clip-path="url(#p02b9f27169)" style="fill: #696969"/>
   </g>
   <g id="patch_5">
    <path d="M 50.391686 86.579333 
L 53.647267 86.579333 
L 53.647267 69.422199 
L 50.391686 69.422199 
z
" clip-path="url(#p02b9f27169)" style="fill: #696969"/>
   </g>
   <g id="patch_6">
    <path d="M 52.426424 86.579333 
L 55.682005 86.579333 
L 55.682005 77.692184 
L 52.426424 77.692184 
z
" clip-path="url(#p02b9f27169)" style="fill: #696969"/>
   </g>
   <g id="patch_7">
    <path d="M 54.461162 86.579333 
L 57.716743 86.579333 
L 57.716743 81.148298 
L 54.461162 81.148298 
z
" clip-path="url(#p02b9f27169)" style="fill: #696969"/>
   </g>
   <g id="patch_8">
    <path d="M 56.495901 86.579333 
L 59.751482 86.579333 
L 59.751482 71.273688 
L 56.495901 71.273688 
z
" clip-path="url(#p02b9f27169)" style="fill: #696969"/>
   </g>
   <g id="patch_9">
    <path d="M 58.530639 86.579333 
L 61.78622 86.579333 
L 61.78622 86.579333 
L 58.530639 86.579333 
z
" clip-path="url(#p02b9f27169)" style="fill: #696969"/>
   </g>
   <g id="patch_10">
    <path d="M 60.565377 86.579333 
L 63.820958 86.579333 
L 63.820958 86.579333 
L 60.565377 86.579333 
z
" clip-path="url(#p02b9f27169)" style="fill: #696969"/>
   </g>
   <g id="patch_11">
    <path d="M 62.600115 86.579333 
L 65.855696 86.579333 
L 65.855696 86.579333 
L 62.600115 86.579333 
z
" clip-path="url(#p02b9f27169)" style="fill: #696969"/>
   </g>
   <g id="patch_12">
    <path d="M 64.634853 86.579333 
L 67.890435 86.579333 
L 67.890435 86.579333 
L 64.634853 86.579333 
z
" clip-path="url(#p02b9f27169)" style="fill: #696969"/>
   </g>
   <g id="patch_13">
    <path d="M 66.669592 86.579333 
L 69.925173 86.579333 
L 69.925173 85.221574 
L 66.669592 85.221574 
z
" clip-path="url(#p02b9f27169)" style="fill: #696969"/>
   </g>
   <g id="patch_14">
    <path d="M 68.70433 86.579333 
L 71.959911 86.579333 
L 71.959911 84.604411 
L 68.70433 84.604411 
z
" clip-path="url(#p02b9f27169)" style="fill: #696969"/>
   </g>
   <g id="patch_15">
    <path d="M 70.739068 86.579333 
L 73.994649 86.579333 
L 73.994649 85.46844 
L 70.739068 85.46844 
z
" clip-path="url(#p02b9f27169)" style="fill: #696969"/>
   </g>
   <g id="patch_16">
    <path d="M 72.773806 86.579333 
L 76.029387 86.579333 
L 76.029387 86.579333 
L 72.773806 86.579333 
z
" clip-path="url(#p02b9f27169)" style="fill: #696969"/>
   </g>
   <g id="patch_17">
    <path d="M 74.808545 86.579333 
L 78.064126 86.579333 
L 78.064126 86.579333 
L 74.808545 86.579333 
z
" clip-path="url(#p02b9f27169)" style="fill: #696969"/>
   </g>
   <g id="patch_18">
    <path d="M 76.843283 86.579333 
L 80.098864 86.579333 
L 80.098864 86.579333 
L 76.843283 86.579333 
z
" clip-path="url(#p02b9f27169)" style="fill: #696969"/>
   </g>
   <g id="patch_19">
    <path d="M 78.878021 86.579333 
L 82.133602 86.579333 
L 82.133602 86.579333 
L 78.878021 86.579333 
z
" clip-path="url(#p02b9f27169)" style="fill: #696969"/>
   </g>
   <g id="patch_20">
    <path d="M 80.912759 86.579333 
L 84.16834 86.579333 
L 84.16834 86.332468 
L 80.912759 86.332468 
z
" clip-path="url(#p02b9f27169)" style="fill: #696969"/>
   </g>
   <g id="patch_21">
    <path d="M 82.947497 86.579333 
L 86.203079 86.579333 
L 86.203079 85.591872 
L 82.947497 85.591872 
z
" clip-path="url(#p02b9f27169)" style="fill: #696969"/>
   </g>
   <g id="patch_22">
    <path d="M 84.982236 86.579333 
L 88.237817 86.579333 
L 88.237817 79.049943 
L 84.982236 79.049943 
z
" clip-path="url(#p02b9f27169)" style="fill: #696969"/>
   </g>
   <g id="patch_23">
    <path d="M 87.016974 86.579333 
L 90.272555 86.579333 
L 90.272555 77.692184 
L 87.016974 77.692184 
z
" clip-path="url(#p02b9f27169)" style="fill: #696969"/>
   </g>
   <g id="patch_24">
    <path d="M 89.051712 86.579333 
L 92.307293 86.579333 
L 92.307293 86.579333 
L 89.051712 86.579333 
z
" clip-path="url(#p02b9f27169)" style="fill: #696969"/>
   </g>
   <g id="patch_25">
    <path d="M 91.08645 86.579333 
L 94.342031 86.579333 
L 94.342031 80.778 
L 91.08645 80.778 
z
" clip-path="url(#p02b9f27169)" style="fill: #696969"/>
   </g>
   <g id="patch_26">
    <path d="M 93.121188 86.579333 
L 96.37677 86.579333 
L 96.37677 79.049943 
L 93.121188 79.049943 
z
" clip-path="url(#p02b9f27169)" style="fill: #696969"/>
   </g>
   <g id="patch_27">
    <path d="M 95.155927 86.579333 
L 98.411508 86.579333 
L 98.411508 83.246652 
L 95.155927 83.246652 
z
" clip-path="url(#p02b9f27169)" style="fill: #696969"/>
   </g>
   <g id="patch_28">
    <path d="M 97.190665 86.579333 
L 100.446246 86.579333 
L 100.446246 80.654567 
L 97.190665 80.654567 
z
" clip-path="url(#p02b9f27169)" style="fill: #696969"/>
   </g>
   <g id="patch_29">
    <path d="M 99.225403 86.579333 
L 102.480984 86.579333 
L 102.480984 86.579333 
L 99.225403 86.579333 
z
" clip-path="url(#p02b9f27169)" style="fill: #696969"/>
   </g>
   <g id="patch_30">
    <path d="M 101.260141 86.579333 
L 104.515723 86.579333 
L 104.515723 83.370085 
L 101.260141 83.370085 
z
" clip-path="url(#p02b9f27169)" style="fill: #696969"/>
   </g>
   <g id="patch_31">
    <path d="M 103.29488 86.579333 
L 106.550461 86.579333 
L 106.550461 81.024865 
L 103.29488 81.024865 
z
" clip-path="url(#p02b9f27169)" style="fill: #696969"/>
   </g>
   <g id="patch_32">
    <path d="M 105.329618 86.579333 
L 108.585199 86.579333 
L 108.585199 80.28427 
L 105.329618 80.28427 
z
" clip-path="url(#p02b9f27169)" style="fill: #696969"/>
   </g>
   <g id="patch_33">
    <path d="M 107.364356 86.579333 
L 110.619937 86.579333 
L 110.619937 82.999787 
L 107.364356 82.999787 
z
" clip-path="url(#p02b9f27169)" style="fill: #696969"/>
   </g>
   <g id="patch_34">
    <path d="M 109.399094 86.579333 
L 112.654675 86.579333 
L 112.654675 73.74234 
L 109.399094 73.74234 
z
" clip-path="url(#p02b9f27169)" style="fill: #696969"/>
   </g>
   <g id="patch_35">
    <path d="M 111.433832 86.579333 
L 114.689414 86.579333 
L 114.689414 78.43278 
L 111.433832 78.43278 
z
" clip-path="url(#p02b9f27169)" style="fill: #696969"/>
   </g>
   <g id="patch_36">
    <path d="M 113.468571 86.579333 
L 116.724152 86.579333 
L 116.724152 68.55817 
L 113.468571 68.55817 
z
" clip-path="url(#p02b9f27169)" style="fill: #696969"/>
   </g>
   <g id="patch_37">
    <path d="M 115.503309 86.579333 
L 118.75889 86.579333 
L 118.75889 75.470397 
L 115.503309 75.470397 
z
" clip-path="url(#p02b9f27169)" style="fill: #696969"/>
   </g>
   <g id="patch_38">
    <path d="M 117.538047 86.579333 
L 120.793628 86.579333 
L 120.793628 83.370085 
L 117.538047 83.370085 
z
" clip-path="url(#p02b9f27169)" style="fill: #696969"/>
   </g>
   <g id="patch_39">
    <path d="M 119.572785 86.579333 
L 122.828366 86.579333 
L 122.828366 72.631447 
L 119.572785 72.631447 
z
" clip-path="url(#p02b9f27169)" style="fill: #696969"/>
   </g>
   <g id="patch_40">
    <path d="M 121.607524 86.579333 
L 124.863105 86.579333 
L 124.863105 72.631447 
L 121.607524 72.631447 
z
" clip-path="url(#p02b9f27169)" style="fill: #696969"/>
   </g>
   <g id="patch_41">
    <path d="M 123.642262 86.579333 
L 126.897843 86.579333 
L 126.897843 64.978624 
L 123.642262 64.978624 
z
" clip-path="url(#p02b9f27169)" style="fill: #696969"/>
   </g>
   <g id="patch_42">
    <path d="M 125.677 86.579333 
L 128.932581 86.579333 
L 128.932581 76.951589 
L 125.677 76.951589 
z
" clip-path="url(#p02b9f27169)" style="fill: #696969"/>
   </g>
   <g id="patch_43">
    <path d="M 127.711738 86.579333 
L 130.967319 86.579333 
L 130.967319 82.752922 
L 127.711738 82.752922 
z
" clip-path="url(#p02b9f27169)" style="fill: #696969"/>
   </g>
   <g id="patch_44">
    <path d="M 129.746476 86.579333 
L 133.002058 86.579333 
L 133.002058 78.43278 
L 129.746476 78.43278 
z
" clip-path="url(#p02b9f27169)" style="fill: #696969"/>
   </g>
   <g id="patch_45">
    <path d="M 131.781215 86.579333 
L 135.036796 86.579333 
L 135.036796 68.187872 
L 131.781215 68.187872 
z
" clip-path="url(#p02b9f27169)" style="fill: #696969"/>
   </g>
   <g id="patch_46">
    <path d="M 133.815953 86.579333 
L 137.071534 86.579333 
L 137.071534 81.148298 
L 133.815953 81.148298 
z
" clip-path="url(#p02b9f27169)" style="fill: #696969"/>
   </g>
   <g id="patch_47">
    <path d="M 135.850691 86.579333 
L 139.106272 86.579333 
L 139.106272 78.185915 
L 135.850691 78.185915 
z
" clip-path="url(#p02b9f27169)" style="fill: #696969"/>
   </g>
   <g id="patch_48">
    <path d="M 137.885429 86.579333 
L 141.14101 86.579333 
L 141.14101 86.579333 
L 137.885429 86.579333 
z
" clip-path="url(#p02b9f27169)" style="fill: #696969"/>
   </g>
   <g id="patch_49">
    <path d="M 139.920168 86.579333 
L 143.175749 86.579333 
L 143.175749 77.692184 
L 139.920168 77.692184 
z
" clip-path="url(#p02b9f27169)" style="fill: #696969"/>
   </g>
   <g id="patch_50">
    <path d="M 141.954906 86.579333 
L 145.210487 86.579333 
L 145.210487 72.754879 
L 141.954906 72.754879 
z
" clip-path="url(#p02b9f27169)" style="fill: #696969"/>
   </g>
   <g id="patch_51">
    <path d="M 143.989644 86.579333 
L 147.245225 86.579333 
L 147.245225 73.495475 
L 143.989644 73.495475 
z
" clip-path="url(#p02b9f27169)" style="fill: #696969"/>
   </g>
   <g id="patch_52">
    <path d="M 146.024382 86.579333 
L 149.279963 86.579333 
L 149.279963 65.472355 
L 146.024382 65.472355 
z
" clip-path="url(#p02b9f27169)" style="fill: #696969"/>
   </g>
   <g id="patch_53">
    <path d="M 148.05912 86.579333 
L 151.314702 86.579333 
L 151.314702 75.223532 
L 148.05912 75.223532 
z
" clip-path="url(#p02b9f27169)" style="fill: #696969"/>
   </g>
   <g id="patch_54">
    <path d="M 150.093859 86.579333 
L 153.34944 86.579333 
L 153.34944 84.357546 
L 150.093859 84.357546 
z
" clip-path="url(#p02b9f27169)" style="fill: #696969"/>
   </g>
   <g id="patch_55">
    <path d="M 152.128597 86.579333 
L 155.384178 86.579333 
L 155.384178 86.579333 
L 152.128597 86.579333 
z
" clip-path="url(#p02b9f27169)" style="fill: #696969"/>
   </g>
   <g id="patch_56">
    <path d="M 154.163335 86.579333 
L 157.418916 86.579333 
L 157.418916 86.579333 
L 154.163335 86.579333 
z
" clip-path="url(#p02b9f27169)" style="fill: #696969"/>
   </g>
   <g id="patch_57">
    <path d="M 156.198073 86.579333 
L 159.453654 86.579333 
L 159.453654 82.999787 
L 156.198073 82.999787 
z
" clip-path="url(#p02b9f27169)" style="fill: #696969"/>
   </g>
   <g id="patch_58">
    <path d="M 158.232812 86.579333 
L 161.488393 86.579333 
L 161.488393 81.888894 
L 158.232812 81.888894 
z
" clip-path="url(#p02b9f27169)" style="fill: #696969"/>
   </g>
   <g id="patch_59">
    <path d="M 160.26755 86.579333 
L 163.523131 86.579333 
L 163.523131 65.842652 
L 160.26755 65.842652 
z
" clip-path="url(#p02b9f27169)" style="fill: #696969"/>
   </g>
   <g id="patch_60">
    <path d="M 162.302288 86.579333 
L 165.557869 86.579333 
L 165.557869 85.96217 
L 162.302288 85.96217 
z
" clip-path="url(#p02b9f27169)" style="fill: #696969"/>
   </g>
   <g id="patch_61">
    <path d="M 164.337026 86.579333 
L 167.592607 86.579333 
L 167.592607 81.27173 
L 164.337026 81.27173 
z
" clip-path="url(#p02b9f27169)" style="fill: #696969"/>
   </g>
   <g id="patch_62">
    <path d="M 166.371764 86.579333 
L 169.627346 86.579333 
L 169.627346 86.579333 
L 166.371764 86.579333 
z
" clip-path="url(#p02b9f27169)" style="fill: #696969"/>
   </g>
   <g id="patch_63">
    <path d="M 168.406503 86.579333 
L 171.662084 86.579333 
L 171.662084 75.717262 
L 168.406503 75.717262 
z
" clip-path="url(#p02b9f27169)" style="fill: #696969"/>
   </g>
   <g id="patch_64">
    <path d="M 170.441241 86.579333 
L 173.696822 86.579333 
L 173.696822 86.579333 
L 170.441241 86.579333 
z
" clip-path="url(#p02b9f27169)" style="fill: #696969"/>
   </g>
   <g id="patch_65">
    <path d="M 172.475979 86.579333 
L 175.73156 86.579333 
L 175.73156 86.579333 
L 172.475979 86.579333 
z
" clip-path="url(#p02b9f27169)" style="fill: #696969"/>
   </g>
   <g id="patch_66">
    <path d="M 174.510717 86.579333 
L 177.766298 86.579333 
L 177.766298 86.455901 
L 174.510717 86.455901 
z
" clip-path="url(#p02b9f27169)" style="fill: #696969"/>
   </g>
   <g id="patch_67">
    <path d="M 176.545455 86.579333 
L 179.801037 86.579333 
L 179.801037 86.579333 
L 176.545455 86.579333 
z
" clip-path="url(#p02b9f27169)" style="fill: #696969"/>
   </g>
   <g id="patch_68">
    <path d="M 178.580194 86.579333 
L 181.835775 86.579333 
L 181.835775 86.579333 
L 178.580194 86.579333 
z
" clip-path="url(#p02b9f27169)" style="fill: #696969"/>
   </g>
   <g id="patch_69">
    <path d="M 180.614932 86.579333 
L 183.870513 86.579333 
L 183.870513 83.493518 
L 180.614932 83.493518 
z
" clip-path="url(#p02b9f27169)" style="fill: #696969"/>
   </g>
   <g id="patch_70">
    <path d="M 182.64967 86.579333 
L 185.905251 86.579333 
L 185.905251 82.752922 
L 182.64967 82.752922 
z
" clip-path="url(#p02b9f27169)" style="fill: #696969"/>
   </g>
   <g id="patch_71">
    <path d="M 184.684408 86.579333 
L 187.93999 86.579333 
L 187.93999 83.61695 
L 184.684408 83.61695 
z
" clip-path="url(#p02b9f27169)" style="fill: #696969"/>
   </g>
   <g id="patch_72">
    <path d="M 186.719147 86.579333 
L 189.974728 86.579333 
L 189.974728 86.579333 
L 186.719147 86.579333 
z
" clip-path="url(#p02b9f27169)" style="fill: #696969"/>
   </g>
   <g id="patch_73">
    <path d="M 188.753885 86.579333 
L 192.009466 86.579333 
L 192.009466 86.579333 
L 188.753885 86.579333 
z
" clip-path="url(#p02b9f27169)" style="fill: #696969"/>
   </g>
   <g id="patch_74">
    <path d="M 190.788623 86.579333 
L 194.044204 86.579333 
L 194.044204 71.767418 
L 190.788623 71.767418 
z
" clip-path="url(#p02b9f27169)" style="fill: #696969"/>
   </g>
   <g id="patch_75">
    <path d="M 192.823361 86.579333 
L 196.078942 86.579333 
L 196.078942 86.579333 
L 192.823361 86.579333 
z
" clip-path="url(#p02b9f27169)" style="fill: #696969"/>
   </g>
   <g id="patch_76">
    <path d="M 194.858099 86.579333 
L 198.113681 86.579333 
L 198.113681 74.359504 
L 194.858099 74.359504 
z
" clip-path="url(#p02b9f27169)" style="fill: #696969"/>
   </g>
   <g id="patch_77">
    <path d="M 196.892838 86.579333 
L 200.148419 86.579333 
L 200.148419 83.61695 
L 196.892838 83.61695 
z
" clip-path="url(#p02b9f27169)" style="fill: #696969"/>
   </g>
   <g id="patch_78">
    <path d="M 198.927576 86.579333 
L 202.183157 86.579333 
L 202.183157 86.579333 
L 198.927576 86.579333 
z
" clip-path="url(#p02b9f27169)" style="fill: #696969"/>
   </g>
   <g id="patch_79">
    <path d="M 200.962314 86.579333 
L 204.217895 86.579333 
L 204.217895 83.863816 
L 200.962314 83.863816 
z
" clip-path="url(#p02b9f27169)" style="fill: #696969"/>
   </g>
   <g id="patch_80">
    <path d="M 202.997052 86.579333 
L 206.252634 86.579333 
L 206.252634 78.679645 
L 202.997052 78.679645 
z
" clip-path="url(#p02b9f27169)" style="fill: #696969"/>
   </g>
   <g id="patch_81">
    <path d="M 205.031791 86.579333 
L 208.287372 86.579333 
L 208.287372 78.185915 
L 205.031791 78.185915 
z
" clip-path="url(#p02b9f27169)" style="fill: #696969"/>
   </g>
   <g id="patch_82">
    <path d="M 207.066529 86.579333 
L 210.32211 86.579333 
L 210.32211 85.591872 
L 207.066529 85.591872 
z
" clip-path="url(#p02b9f27169)" style="fill: #696969"/>
   </g>
   <g id="patch_83">
    <path d="M 209.101267 86.579333 
L 212.356848 86.579333 
L 212.356848 82.752922 
L 209.101267 82.752922 
z
" clip-path="url(#p02b9f27169)" style="fill: #696969"/>
   </g>
   <g id="patch_84">
    <path d="M 211.136005 86.579333 
L 214.391586 86.579333 
L 214.391586 86.579333 
L 211.136005 86.579333 
z
" clip-path="url(#p02b9f27169)" style="fill: #696969"/>
   </g>
   <g id="patch_85">
    <path d="M 213.170743 86.579333 
L 216.426325 86.579333 
L 216.426325 80.407702 
L 213.170743 80.407702 
z
" clip-path="url(#p02b9f27169)" style="fill: #696969"/>
   </g>
   <g id="patch_86">
    <path d="M 215.205482 86.579333 
L 218.461063 86.579333 
L 218.461063 85.96217 
L 215.205482 85.96217 
z
" clip-path="url(#p02b9f27169)" style="fill: #696969"/>
   </g>
   <g id="patch_87">
    <path d="M 217.24022 86.579333 
L 220.495801 86.579333 
L 220.495801 74.606369 
L 217.24022 74.606369 
z
" clip-path="url(#p02b9f27169)" style="fill: #696969"/>
   </g>
   <g id="patch_88">
    <path d="M 219.274958 86.579333 
L 222.530539 86.579333 
L 222.530539 66.336383 
L 219.274958 66.336383 
z
" clip-path="url(#p02b9f27169)" style="fill: #696969"/>
   </g>
   <g id="patch_89">
    <path d="M 221.309696 86.579333 
L 224.565277 86.579333 
L 224.565277 67.200411 
L 221.309696 67.200411 
z
" clip-path="url(#p02b9f27169)" style="fill: #696969"/>
   </g>
   <g id="patch_90">
    <path d="M 223.344435 86.579333 
L 226.600016 86.579333 
L 226.600016 71.643986 
L 223.344435 71.643986 
z
" clip-path="url(#p02b9f27169)" style="fill: #696969"/>
   </g>
   <g id="patch_91">
    <path d="M 225.379173 86.579333 
L 228.634754 86.579333 
L 228.634754 68.187872 
L 225.379173 68.187872 
z
" clip-path="url(#p02b9f27169)" style="fill: #696969"/>
   </g>
   <g id="patch_92">
    <path d="M 227.413911 86.579333 
L 230.669492 86.579333 
L 230.669492 57.572667 
L 227.413911 57.572667 
z
" clip-path="url(#p02b9f27169)" style="fill: #696969"/>
   </g>
   <g id="patch_93">
    <path d="M 229.448649 86.579333 
L 232.70423 86.579333 
L 232.70423 70.90339 
L 229.448649 70.90339 
z
" clip-path="url(#p02b9f27169)" style="fill: #696969"/>
   </g>
   <g id="patch_94">
    <path d="M 231.483387 86.579333 
L 234.738969 86.579333 
L 234.738969 67.076979 
L 231.483387 67.076979 
z
" clip-path="url(#p02b9f27169)" style="fill: #696969"/>
   </g>
   <g id="patch_95">
    <path d="M 233.518126 86.579333 
L 236.773707 86.579333 
L 236.773707 60.905348 
L 233.518126 60.905348 
z
" clip-path="url(#p02b9f27169)" style="fill: #696969"/>
   </g>
   <g id="patch_96">
    <path d="M 235.552864 86.579333 
L 238.808445 86.579333 
L 238.808445 67.200411 
L 235.552864 67.200411 
z
" clip-path="url(#p02b9f27169)" style="fill: #696969"/>
   </g>
   <g id="patch_97">
    <path d="M 237.587602 86.579333 
L 240.843183 86.579333 
L 240.843183 80.160837 
L 237.587602 80.160837 
z
" clip-path="url(#p02b9f27169)" style="fill: #696969"/>
   </g>
   <g id="patch_98">
    <path d="M 239.62234 86.579333 
L 242.877921 86.579333 
L 242.877921 80.160837 
L 239.62234 80.160837 
z
" clip-path="url(#p02b9f27169)" style="fill: #696969"/>
   </g>
   <g id="patch_99">
    <path d="M 241.657079 86.579333 
L 244.91266 86.579333 
L 244.91266 66.953546 
L 241.657079 66.953546 
z
" clip-path="url(#p02b9f27169)" style="fill: #696969"/>
   </g>
   <g id="patch_100">
    <path d="M 243.691817 86.579333 
L 246.947398 86.579333 
L 246.947398 68.06444 
L 243.691817 68.06444 
z
" clip-path="url(#p02b9f27169)" style="fill: #696969"/>
   </g>
   <g id="patch_101">
    <path d="M 245.726555 86.579333 
L 248.982136 86.579333 
L 248.982136 80.037404 
L 245.726555 80.037404 
z
" clip-path="url(#p02b9f27169)" style="fill: #696969"/>
   </g>
   <g id="patch_102">
    <path d="M 247.761293 86.579333 
L 251.016874 86.579333 
L 251.016874 85.715305 
L 247.761293 85.715305 
z
" clip-path="url(#p02b9f27169)" style="fill: #696969"/>
   </g>
   <g id="patch_103">
    <path d="M 249.796031 86.579333 
L 253.051613 86.579333 
L 253.051613 65.966085 
L 249.796031 65.966085 
z
" clip-path="url(#p02b9f27169)" style="fill: #696969"/>
   </g>
   <g id="patch_104">
    <path d="M 251.83077 86.579333 
L 255.086351 86.579333 
L 255.086351 73.865773 
L 251.83077 73.865773 
z
" clip-path="url(#p02b9f27169)" style="fill: #696969"/>
   </g>
   <g id="patch_105">
    <path d="M 253.865508 86.579333 
L 257.121089 86.579333 
L 257.121089 74.729801 
L 253.865508 74.729801 
z
" clip-path="url(#p02b9f27169)" style="fill: #696969"/>
   </g>
   <g id="patch_106">
    <path d="M 255.900246 86.579333 
L 259.155827 86.579333 
L 259.155827 84.480979 
L 255.900246 84.480979 
z
" clip-path="url(#p02b9f27169)" style="fill: #696969"/>
   </g>
   <g id="patch_107">
    <path d="M 257.934984 86.579333 
L 261.190565 86.579333 
L 261.190565 81.148298 
L 257.934984 81.148298 
z
" clip-path="url(#p02b9f27169)" style="fill: #696969"/>
   </g>
   <g id="patch_108">
    <path d="M 259.969723 86.579333 
L 263.225304 86.579333 
L 263.225304 81.148298 
L 259.969723 81.148298 
z
" clip-path="url(#p02b9f27169)" style="fill: #696969"/>
   </g>
   <g id="patch_109">
    <path d="M 262.004461 86.579333 
L 265.260042 86.579333 
L 265.260042 75.964128 
L 262.004461 75.964128 
z
" clip-path="url(#p02b9f27169)" style="fill: #696969"/>
   </g>
   <g id="patch_110">
    <path d="M 264.039199 86.579333 
L 267.29478 86.579333 
L 267.29478 71.150255 
L 264.039199 71.150255 
z
" clip-path="url(#p02b9f27169)" style="fill: #696969"/>
   </g>
   <g id="patch_111">
    <path d="M 266.073937 86.579333 
L 269.329518 86.579333 
L 269.329518 82.012326 
L 266.073937 82.012326 
z
" clip-path="url(#p02b9f27169)" style="fill: #696969"/>
   </g>
   <g id="patch_112">
    <path d="M 268.108675 86.579333 
L 271.364257 86.579333 
L 271.364257 78.803078 
L 268.108675 78.803078 
z
" clip-path="url(#p02b9f27169)" style="fill: #696969"/>
   </g>
   <g id="patch_113">
    <path d="M 270.143414 86.579333 
L 273.398995 86.579333 
L 273.398995 71.520553 
L 270.143414 71.520553 
z
" clip-path="url(#p02b9f27169)" style="fill: #696969"/>
   </g>
   <g id="patch_114">
    <path d="M 272.178152 86.579333 
L 275.433733 86.579333 
L 275.433733 86.579333 
L 272.178152 86.579333 
z
" clip-path="url(#p02b9f27169)" style="fill: #696969"/>
   </g>
   <g id="patch_115">
    <path d="M 274.21289 86.579333 
L 277.468471 86.579333 
L 277.468471 83.370085 
L 274.21289 83.370085 
z
" clip-path="url(#p02b9f27169)" style="fill: #696969"/>
   </g>
   <g id="patch_116">
    <path d="M 276.247628 86.579333 
L 279.503209 86.579333 
L 279.503209 86.579333 
L 276.247628 86.579333 
z
" clip-path="url(#p02b9f27169)" style="fill: #696969"/>
   </g>
   <g id="patch_117">
    <path d="M 278.282366 86.579333 
L 281.537948 86.579333 
L 281.537948 73.989206 
L 278.282366 73.989206 
z
" clip-path="url(#p02b9f27169)" style="fill: #696969"/>
   </g>
   <g id="patch_118">
    <path d="M 280.317105 86.579333 
L 283.572686 86.579333 
L 283.572686 82.999787 
L 280.317105 82.999787 
z
" clip-path="url(#p02b9f27169)" style="fill: #696969"/>
   </g>
   <g id="patch_119">
    <path d="M 282.351843 86.579333 
L 285.607424 86.579333 
L 285.607424 85.96217 
L 282.351843 85.96217 
z
" clip-path="url(#p02b9f27169)" style="fill: #696969"/>
   </g>
   <g id="patch_120">
    <path d="M 284.386581 86.579333 
L 287.642162 86.579333 
L 287.642162 80.654567 
L 284.386581 80.654567 
z
" clip-path="url(#p02b9f27169)" style="fill: #696969"/>
   </g>
   <g id="patch_121">
    <path d="M 286.421319 86.579333 
L 289.676901 86.579333 
L 289.676901 83.370085 
L 286.421319 83.370085 
z
" clip-path="url(#p02b9f27169)" style="fill: #696969"/>
   </g>
   <g id="patch_122">
    <path d="M 288.456058 86.579333 
L 291.711639 86.579333 
L 291.711639 86.579333 
L 288.456058 86.579333 
z
" clip-path="url(#p02b9f27169)" style="fill: #696969"/>
   </g>
   <g id="patch_123">
    <path d="M 290.490796 86.579333 
L 293.746377 86.579333 
L 293.746377 83.61695 
L 290.490796 83.61695 
z
" clip-path="url(#p02b9f27169)" style="fill: #696969"/>
   </g>
   <g id="patch_124">
    <path d="M 292.525534 86.579333 
L 295.781115 86.579333 
L 295.781115 86.579333 
L 292.525534 86.579333 
z
" clip-path="url(#p02b9f27169)" style="fill: #696969"/>
   </g>
   <g id="patch_125">
    <path d="M 294.560272 86.579333 
L 297.815853 86.579333 
L 297.815853 84.851277 
L 294.560272 84.851277 
z
" clip-path="url(#p02b9f27169)" style="fill: #696969"/>
   </g>
   <g id="patch_126">
    <path d="M 296.59501 86.579333 
L 299.850592 86.579333 
L 299.850592 74.853234 
L 296.59501 74.853234 
z
" clip-path="url(#p02b9f27169)" style="fill: #696969"/>
   </g>
   <g id="patch_127">
    <path d="M 298.629749 86.579333 
L 301.88533 86.579333 
L 301.88533 84.234113 
L 298.629749 84.234113 
z
" clip-path="url(#p02b9f27169)" style="fill: #696969"/>
   </g>
   <g id="patch_128">
    <path d="M 300.664487 86.579333 
L 303.920068 86.579333 
L 303.920068 70.779957 
L 300.664487 70.779957 
z
" clip-path="url(#p02b9f27169)" style="fill: #696969"/>
   </g>
   <g id="patch_129">
    <path d="M 302.699225 86.579333 
L 305.954806 86.579333 
L 305.954806 84.234113 
L 302.699225 84.234113 
z
" clip-path="url(#p02b9f27169)" style="fill: #696969"/>
   </g>
   <g id="patch_130">
    <path d="M 304.733963 86.579333 
L 307.989545 86.579333 
L 307.989545 86.455901 
L 304.733963 86.455901 
z
" clip-path="url(#p02b9f27169)" style="fill: #696969"/>
   </g>
   <g id="patch_131">
    <path d="M 306.768702 86.579333 
L 310.024283 86.579333 
L 310.024283 74.359504 
L 306.768702 74.359504 
z
" clip-path="url(#p02b9f27169)" style="fill: #696969"/>
   </g>
   <g id="patch_132">
    <path d="M 308.80344 86.579333 
L 312.059021 86.579333 
L 312.059021 67.323844 
L 308.80344 67.323844 
z
" clip-path="url(#p02b9f27169)" style="fill: #696969"/>
   </g>
   <g id="patch_133">
    <path d="M 310.838178 86.579333 
L 314.093759 86.579333 
L 314.093759 76.951589 
L 310.838178 76.951589 
z
" clip-path="url(#p02b9f27169)" style="fill: #696969"/>
   </g>
   <g id="patch_134">
    <path d="M 312.872916 86.579333 
L 316.128497 86.579333 
L 316.128497 72.261149 
L 312.872916 72.261149 
z
" clip-path="url(#p02b9f27169)" style="fill: #696969"/>
   </g>
   <g id="patch_135">
    <path d="M 314.907654 86.579333 
L 318.163236 86.579333 
L 318.163236 76.334426 
L 314.907654 76.334426 
z
" clip-path="url(#p02b9f27169)" style="fill: #696969"/>
   </g>
   <g id="patch_136">
    <path d="M 316.942393 86.579333 
L 320.197974 86.579333 
L 320.197974 66.336383 
L 316.942393 66.336383 
z
" clip-path="url(#p02b9f27169)" style="fill: #696969"/>
   </g>
   <g id="patch_137">
    <path d="M 318.977131 86.579333 
L 322.232712 86.579333 
L 322.232712 70.779957 
L 318.977131 70.779957 
z
" clip-path="url(#p02b9f27169)" style="fill: #696969"/>
   </g>
   <g id="patch_138">
    <path d="M 321.011869 86.579333 
L 324.26745 86.579333 
L 324.26745 84.480979 
L 321.011869 84.480979 
z
" clip-path="url(#p02b9f27169)" style="fill: #696969"/>
   </g>
   <g id="patch_139">
    <path d="M 323.046607 86.579333 
L 326.302188 86.579333 
L 326.302188 66.953546 
L 323.046607 66.953546 
z
" clip-path="url(#p02b9f27169)" style="fill: #696969"/>
   </g>
   <g id="patch_140">
    <path d="M 325.081346 86.579333 
L 328.336927 86.579333 
L 328.336927 73.24861 
L 325.081346 73.24861 
z
" clip-path="url(#p02b9f27169)" style="fill: #696969"/>
   </g>
   <g id="patch_141">
    <path d="M 327.116084 86.579333 
L 330.371665 86.579333 
L 330.371665 65.472355 
L 327.116084 65.472355 
z
" clip-path="url(#p02b9f27169)" style="fill: #696969"/>
   </g>
   <g id="patch_142">
    <path d="M 329.150822 86.579333 
L 332.406403 86.579333 
L 332.406403 81.395163 
L 329.150822 81.395163 
z
" clip-path="url(#p02b9f27169)" style="fill: #696969"/>
   </g>
   <g id="patch_143">
    <path d="M 331.18556 86.579333 
L 334.441141 86.579333 
L 334.441141 78.556213 
L 331.18556 78.556213 
z
" clip-path="url(#p02b9f27169)" style="fill: #696969"/>
   </g>
   <g id="patch_144">
    <path d="M 333.220298 86.579333 
L 336.47588 86.579333 
L 336.47588 78.062482 
L 333.220298 78.062482 
z
" clip-path="url(#p02b9f27169)" style="fill: #696969"/>
   </g>
   <g id="patch_145">
    <path d="M 335.255037 86.579333 
L 338.510618 86.579333 
L 338.510618 77.692184 
L 335.255037 77.692184 
z
" clip-path="url(#p02b9f27169)" style="fill: #696969"/>
   </g>
   <g id="patch_146">
    <path d="M 337.289775 86.579333 
L 340.545356 86.579333 
L 340.545356 68.55817 
L 337.289775 68.55817 
z
" clip-path="url(#p02b9f27169)" style="fill: #696969"/>
   </g>
   <g id="patch_147">
    <path d="M 339.324513 86.579333 
L 342.580094 86.579333 
L 342.580094 72.384582 
L 339.324513 72.384582 
z
" clip-path="url(#p02b9f27169)" style="fill: #696969"/>
   </g>
   <g id="patch_148">
    <path d="M 341.359251 86.579333 
L 344.614832 86.579333 
L 344.614832 72.754879 
L 341.359251 72.754879 
z
" clip-path="url(#p02b9f27169)" style="fill: #696969"/>
   </g>
   <g id="patch_149">
    <path d="M 343.39399 86.579333 
L 346.649571 86.579333 
L 346.649571 78.679645 
L 343.39399 78.679645 
z
" clip-path="url(#p02b9f27169)" style="fill: #696969"/>
   </g>
   <g id="patch_150">
    <path d="M 345.428728 86.579333 
L 348.684309 86.579333 
L 348.684309 77.198454 
L 345.428728 77.198454 
z
" clip-path="url(#p02b9f27169)" style="fill: #696969"/>
   </g>
   <g id="patch_151">
    <path d="M 347.463466 86.579333 
L 350.719047 86.579333 
L 350.719047 86.332468 
L 347.463466 86.332468 
z
" clip-path="url(#p02b9f27169)" style="fill: #696969"/>
   </g>
   <g id="patch_152">
    <path d="M 349.498204 86.579333 
L 352.753785 86.579333 
L 352.753785 75.470397 
L 349.498204 75.470397 
z
" clip-path="url(#p02b9f27169)" style="fill: #696969"/>
   </g>
   <g id="patch_153">
    <path d="M 351.532942 86.579333 
L 354.788524 86.579333 
L 354.788524 73.865773 
L 351.532942 73.865773 
z
" clip-path="url(#p02b9f27169)" style="fill: #696969"/>
   </g>
   <g id="patch_154">
    <path d="M 353.567681 86.579333 
L 356.823262 86.579333 
L 356.823262 72.878312 
L 353.567681 72.878312 
z
" clip-path="url(#p02b9f27169)" style="fill: #696969"/>
   </g>
   <g id="patch_155">
    <path d="M 355.602419 86.579333 
L 358.858 86.579333 
L 358.858 80.160837 
L 355.602419 80.160837 
z
" clip-path="url(#p02b9f27169)" style="fill: #696969"/>
   </g>
   <g id="patch_156">
    <path d="M 357.637157 86.579333 
L 360.892738 86.579333 
L 360.892738 78.926511 
L 357.637157 78.926511 
z
" clip-path="url(#p02b9f27169)" style="fill: #696969"/>
   </g>
   <g id="patch_157">
    <path d="M 359.671895 86.579333 
L 362.927476 86.579333 
L 362.927476 77.568752 
L 359.671895 77.568752 
z
" clip-path="url(#p02b9f27169)" style="fill: #696969"/>
   </g>
   <g id="patch_158">
    <path d="M 361.706634 86.579333 
L 364.962215 86.579333 
L 364.962215 75.840695 
L 361.706634 75.840695 
z
" clip-path="url(#p02b9f27169)" style="fill: #696969"/>
   </g>
   <g id="patch_159">
    <path d="M 363.741372 86.579333 
L 366.996953 86.579333 
L 366.996953 78.309348 
L 363.741372 78.309348 
z
" clip-path="url(#p02b9f27169)" style="fill: #696969"/>
   </g>
   <g id="patch_160">
    <path d="M 365.77611 86.579333 
L 369.031691 86.579333 
L 369.031691 77.075021 
L 365.77611 77.075021 
z
" clip-path="url(#p02b9f27169)" style="fill: #696969"/>
   </g>
   <g id="patch_161">
    <path d="M 367.810848 86.579333 
L 371.066429 86.579333 
L 371.066429 77.692184 
L 367.810848 77.692184 
z
" clip-path="url(#p02b9f27169)" style="fill: #696969"/>
   </g>
   <g id="patch_162">
    <path d="M 369.845586 86.579333 
L 373.101168 86.579333 
L 373.101168 84.234113 
L 369.845586 84.234113 
z
" clip-path="url(#p02b9f27169)" style="fill: #696969"/>
   </g>
   <g id="patch_163">
    <path d="M 371.880325 86.579333 
L 375.135906 86.579333 
L 375.135906 86.455901 
L 371.880325 86.455901 
z
" clip-path="url(#p02b9f27169)" style="fill: #696969"/>
   </g>
   <g id="patch_164">
    <path d="M 373.915063 86.579333 
L 377.170644 86.579333 
L 377.170644 86.579333 
L 373.915063 86.579333 
z
" clip-path="url(#p02b9f27169)" style="fill: #696969"/>
   </g>
   <g id="patch_165">
    <path d="M 375.949801 86.579333 
L 379.205382 86.579333 
L 379.205382 84.604411 
L 375.949801 84.604411 
z
" clip-path="url(#p02b9f27169)" style="fill: #696969"/>
   </g>
   <g id="patch_166">
    <path d="M 377.984539 86.579333 
L 381.24012 86.579333 
L 381.24012 86.579333 
L 377.984539 86.579333 
z
" clip-path="url(#p02b9f27169)" style="fill: #696969"/>
   </g>
   <g id="patch_167">
    <path d="M 380.019277 86.579333 
L 383.274859 86.579333 
L 383.274859 86.579333 
L 380.019277 86.579333 
z
" clip-path="url(#p02b9f27169)" style="fill: #696969"/>
   </g>
   <g id="patch_168">
    <path d="M 382.054016 86.579333 
L 385.309597 86.579333 
L 385.309597 80.778 
L 382.054016 80.778 
z
" clip-path="url(#p02b9f27169)" style="fill: #696969"/>
   </g>
   <g id="patch_169">
    <path d="M 384.088754 86.579333 
L 387.344335 86.579333 
L 387.344335 86.579333 
L 384.088754 86.579333 
z
" clip-path="url(#p02b9f27169)" style="fill: #696969"/>
   </g>
   <g id="patch_170">
    <path d="M 386.123492 86.579333 
L 389.379073 86.579333 
L 389.379073 81.395163 
L 386.123492 81.395163 
z
" clip-path="url(#p02b9f27169)" style="fill: #696969"/>
   </g>
   <g id="patch_171">
    <path d="M 388.15823 86.579333 
L 391.413812 86.579333 
L 391.413812 86.579333 
L 388.15823 86.579333 
z
" clip-path="url(#p02b9f27169)" style="fill: #696969"/>
   </g>
   <g id="patch_172">
    <path d="M 390.192969 86.579333 
L 393.44855 86.579333 
L 393.44855 75.717262 
L 390.192969 75.717262 
z
" clip-path="url(#p02b9f27169)" style="fill: #696969"/>
   </g>
   <g id="patch_173">
    <path d="M 392.227707 86.579333 
L 395.483288 86.579333 
L 395.483288 86.579333 
L 392.227707 86.579333 
z
" clip-path="url(#p02b9f27169)" style="fill: #696969"/>
   </g>
   <g id="patch_174">
    <path d="M 394.262445 86.579333 
L 397.518026 86.579333 
L 397.518026 86.579333 
L 394.262445 86.579333 
z
" clip-path="url(#p02b9f27169)" style="fill: #696969"/>
   </g>
   <g id="patch_175">
    <path d="M 396.297183 86.579333 
L 399.552764 86.579333 
L 399.552764 71.026823 
L 396.297183 71.026823 
z
" clip-path="url(#p02b9f27169)" style="fill: #696969"/>
   </g>
   <g id="patch_176">
    <path d="M 398.331921 86.579333 
L 401.587503 86.579333 
L 401.587503 86.579333 
L 398.331921 86.579333 
z
" clip-path="url(#p02b9f27169)" style="fill: #696969"/>
   </g>
   <g id="patch_177">
    <path d="M 400.36666 86.579333 
L 403.622241 86.579333 
L 403.622241 70.533092 
L 400.36666 70.533092 
z
" clip-path="url(#p02b9f27169)" style="fill: #696969"/>
   </g>
   <g id="patch_178">
    <path d="M 402.401398 86.579333 
L 405.656979 86.579333 
L 405.656979 86.579333 
L 402.401398 86.579333 
z
" clip-path="url(#p02b9f27169)" style="fill: #696969"/>
   </g>
   <g id="patch_179">
    <path d="M 404.436136 86.579333 
L 407.691717 86.579333 
L 407.691717 85.715305 
L 404.436136 85.715305 
z
" clip-path="url(#p02b9f27169)" style="fill: #696969"/>
   </g>
   <g id="patch_180">
    <path d="M 406.470874 86.579333 
L 409.726455 86.579333 
L 409.726455 82.629489 
L 406.470874 82.629489 
z
" clip-path="url(#p02b9f27169)" style="fill: #696969"/>
   </g>
   <g id="patch_181">
    <path d="M 408.505613 86.579333 
L 411.761194 86.579333 
L 411.761194 73.001745 
L 408.505613 73.001745 
z
" clip-path="url(#p02b9f27169)" style="fill: #696969"/>
   </g>
   <g id="patch_182">
    <path d="M 410.540351 86.579333 
L 413.795932 86.579333 
L 413.795932 86.579333 
L 410.540351 86.579333 
z
" clip-path="url(#p02b9f27169)" style="fill: #696969"/>
   </g>
   <g id="patch_183">
    <path d="M 412.575089 86.579333 
L 415.83067 86.579333 
L 415.83067 84.234113 
L 412.575089 84.234113 
z
" clip-path="url(#p02b9f27169)" style="fill: #696969"/>
   </g>
   <g id="patch_184">
    <path d="M 414.609827 86.579333 
L 417.865408 86.579333 
L 417.865408 82.506057 
L 414.609827 82.506057 
z
" clip-path="url(#p02b9f27169)" style="fill: #696969"/>
   </g>
   <g id="patch_185">
    <path d="M 416.644565 86.579333 
L 419.900147 86.579333 
L 419.900147 75.717262 
L 416.644565 75.717262 
z
" clip-path="url(#p02b9f27169)" style="fill: #696969"/>
   </g>
   <g id="patch_186">
    <path d="M 418.679304 86.579333 
L 421.934885 86.579333 
L 421.934885 82.876355 
L 418.679304 82.876355 
z
" clip-path="url(#p02b9f27169)" style="fill: #696969"/>
   </g>
   <g id="patch_187">
    <path d="M 420.714042 86.579333 
L 423.969623 86.579333 
L 423.969623 67.076979 
L 420.714042 67.076979 
z
" clip-path="url(#p02b9f27169)" style="fill: #696969"/>
   </g>
   <g id="patch_188">
    <path d="M 422.74878 86.579333 
L 426.004361 86.579333 
L 426.004361 76.704723 
L 422.74878 76.704723 
z
" clip-path="url(#p02b9f27169)" style="fill: #696969"/>
   </g>
   <g id="patch_189">
    <path d="M 424.783518 86.579333 
L 428.039099 86.579333 
L 428.039099 70.162794 
L 424.783518 70.162794 
z
" clip-path="url(#p02b9f27169)" style="fill: #696969"/>
   </g>
   <g id="patch_190">
    <path d="M 426.818257 86.579333 
L 430.073838 86.579333 
L 430.073838 81.395163 
L 426.818257 81.395163 
z
" clip-path="url(#p02b9f27169)" style="fill: #696969"/>
   </g>
   <g id="patch_191">
    <path d="M 428.852995 86.579333 
L 432.108576 86.579333 
L 432.108576 80.531135 
L 428.852995 80.531135 
z
" clip-path="url(#p02b9f27169)" style="fill: #696969"/>
   </g>
   <g id="patch_192">
    <path d="M 430.887733 86.579333 
L 434.143314 86.579333 
L 434.143314 70.656525 
L 430.887733 70.656525 
z
" clip-path="url(#p02b9f27169)" style="fill: #696969"/>
   </g>
   <g id="patch_193">
    <path d="M 432.922471 86.579333 
L 436.178052 86.579333 
L 436.178052 79.913972 
L 432.922471 79.913972 
z
" clip-path="url(#p02b9f27169)" style="fill: #696969"/>
   </g>
   <g id="patch_194">
    <path d="M 434.957209 86.579333 
L 438.212791 86.579333 
L 438.212791 86.579333 
L 434.957209 86.579333 
z
" clip-path="url(#p02b9f27169)" style="fill: #696969"/>
   </g>
   <g id="matplotlib.axis_1">
    <g id="xtick_1">
     <g id="line2d_1">
      <defs>
       <path id="md20a3e7261" d="M 0 0 
L 0 3.5 
" style="stroke: #000000; stroke-width: 0.8"/>
      </defs>
      <g>
       <use xlink:href="#md20a3e7261" x="47.95" y="89.48" style="stroke: #000000; stroke-width: 0.8"/>
      </g>
     </g>
     <g id="text_1">
      <!-- 0 -->
      <g transform="translate(44.76875 104.078438) scale(0.1 -0.1)">
       <defs>
        <path id="DejaVuSans-30" d="M 2034 4250 
Q 1547 4250 1301 3770 
Q 1056 3291 1056 2328 
Q 1056 1369 1301 889 
Q 1547 409 2034 409 
Q 2525 409 2770 889 
Q 3016 1369 3016 2328 
Q 3016 3291 2770 3770 
Q 2525 4250 2034 4250 
z
M 2034 4750 
Q 2819 4750 3233 4129 
Q 3647 3509 3647 2328 
Q 3647 1150 3233 529 
Q 2819 -91 2034 -91 
Q 1250 -91 836 529 
Q 422 1150 422 2328 
Q 422 3509 836 4129 
Q 1250 4750 2034 4750 
z
" transform="scale(0.015625)"/>
       </defs>
       <use xlink:href="#DejaVuSans-30"/>
      </g>
     </g>
    </g>
    <g id="xtick_2">
     <g id="line2d_2">
      <g>
       <use xlink:href="#md20a3e7261" x="129.339529" y="89.48" style="stroke: #000000; stroke-width: 0.8"/>
      </g>
     </g>
     <g id="text_2">
      <!-- 20 -->
      <g transform="translate(122.977029 104.078438) scale(0.1 -0.1)">
       <defs>
        <path id="DejaVuSans-32" d="M 1228 531 
L 3431 531 
L 3431 0 
L 469 0 
L 469 531 
Q 828 903 1448 1529 
Q 2069 2156 2228 2338 
Q 2531 2678 2651 2914 
Q 2772 3150 2772 3378 
Q 2772 3750 2511 3984 
Q 2250 4219 1831 4219 
Q 1534 4219 1204 4116 
Q 875 4013 500 3803 
L 500 4441 
Q 881 4594 1212 4672 
Q 1544 4750 1819 4750 
Q 2544 4750 2975 4387 
Q 3406 4025 3406 3419 
Q 3406 3131 3298 2873 
Q 3191 2616 2906 2266 
Q 2828 2175 2409 1742 
Q 1991 1309 1228 531 
z
" transform="scale(0.015625)"/>
       </defs>
       <use xlink:href="#DejaVuSans-32"/>
       <use xlink:href="#DejaVuSans-30" x="63.623047"/>
      </g>
     </g>
    </g>
    <g id="xtick_3">
     <g id="line2d_3">
      <g>
       <use xlink:href="#md20a3e7261" x="210.729058" y="89.48" style="stroke: #000000; stroke-width: 0.8"/>
      </g>
     </g>
     <g id="text_3">
      <!-- 40 -->
      <g transform="translate(204.366558 104.078438) scale(0.1 -0.1)">
       <defs>
        <path id="DejaVuSans-34" d="M 2419 4116 
L 825 1625 
L 2419 1625 
L 2419 4116 
z
M 2253 4666 
L 3047 4666 
L 3047 1625 
L 3713 1625 
L 3713 1100 
L 3047 1100 
L 3047 0 
L 2419 0 
L 2419 1100 
L 313 1100 
L 313 1709 
L 2253 4666 
z
" transform="scale(0.015625)"/>
       </defs>
       <use xlink:href="#DejaVuSans-34"/>
       <use xlink:href="#DejaVuSans-30" x="63.623047"/>
      </g>
     </g>
    </g>
    <g id="xtick_4">
     <g id="line2d_4">
      <g>
       <use xlink:href="#md20a3e7261" x="292.118586" y="89.48" style="stroke: #000000; stroke-width: 0.8"/>
      </g>
     </g>
     <g id="text_4">
      <!-- 60 -->
      <g transform="translate(285.756086 104.078438) scale(0.1 -0.1)">
       <defs>
        <path id="DejaVuSans-36" d="M 2113 2584 
Q 1688 2584 1439 2293 
Q 1191 2003 1191 1497 
Q 1191 994 1439 701 
Q 1688 409 2113 409 
Q 2538 409 2786 701 
Q 3034 994 3034 1497 
Q 3034 2003 2786 2293 
Q 2538 2584 2113 2584 
z
M 3366 4563 
L 3366 3988 
Q 3128 4100 2886 4159 
Q 2644 4219 2406 4219 
Q 1781 4219 1451 3797 
Q 1122 3375 1075 2522 
Q 1259 2794 1537 2939 
Q 1816 3084 2150 3084 
Q 2853 3084 3261 2657 
Q 3669 2231 3669 1497 
Q 3669 778 3244 343 
Q 2819 -91 2113 -91 
Q 1303 -91 875 529 
Q 447 1150 447 2328 
Q 447 3434 972 4092 
Q 1497 4750 2381 4750 
Q 2619 4750 2861 4703 
Q 3103 4656 3366 4563 
z
" transform="scale(0.015625)"/>
       </defs>
       <use xlink:href="#DejaVuSans-36"/>
       <use xlink:href="#DejaVuSans-30" x="63.623047"/>
      </g>
     </g>
    </g>
    <g id="xtick_5">
     <g id="line2d_5">
      <g>
       <use xlink:href="#md20a3e7261" x="373.508115" y="89.48" style="stroke: #000000; stroke-width: 0.8"/>
      </g>
     </g>
     <g id="text_5">
      <!-- 80 -->
      <g transform="translate(367.145615 104.078438) scale(0.1 -0.1)">
       <defs>
        <path id="DejaVuSans-38" d="M 2034 2216 
Q 1584 2216 1326 1975 
Q 1069 1734 1069 1313 
Q 1069 891 1326 650 
Q 1584 409 2034 409 
Q 2484 409 2743 651 
Q 3003 894 3003 1313 
Q 3003 1734 2745 1975 
Q 2488 2216 2034 2216 
z
M 1403 2484 
Q 997 2584 770 2862 
Q 544 3141 544 3541 
Q 544 4100 942 4425 
Q 1341 4750 2034 4750 
Q 2731 4750 3128 4425 
Q 3525 4100 3525 3541 
Q 3525 3141 3298 2862 
Q 3072 2584 2669 2484 
Q 3125 2378 3379 2068 
Q 3634 1759 3634 1313 
Q 3634 634 3220 271 
Q 2806 -91 2034 -91 
Q 1263 -91 848 271 
Q 434 634 434 1313 
Q 434 1759 690 2068 
Q 947 2378 1403 2484 
z
M 1172 3481 
Q 1172 3119 1398 2916 
Q 1625 2713 2034 2713 
Q 2441 2713 2670 2916 
Q 2900 3119 2900 3481 
Q 2900 3844 2670 4047 
Q 2441 4250 2034 4250 
Q 1625 4250 1398 4047 
Q 1172 3844 1172 3481 
z
" transform="scale(0.015625)"/>
       </defs>
       <use xlink:href="#DejaVuSans-38"/>
       <use xlink:href="#DejaVuSans-30" x="63.623047"/>
      </g>
     </g>
    </g>
   </g>
   <g id="matplotlib.axis_2">
    <g id="ytick_1">
     <g id="line2d_6">
      <defs>
       <path id="ma441d4fe73" d="M 0 0 
L -3.5 0 
" style="stroke: #000000; stroke-width: 0.8"/>
      </defs>
      <g>
       <use xlink:href="#ma441d4fe73" x="47.95" y="86.579333" style="stroke: #000000; stroke-width: 0.8"/>
      </g>
     </g>
     <g id="text_6">
      <!-- 0.0 -->
      <g transform="translate(25.046875 90.378552) scale(0.1 -0.1)">
       <defs>
        <path id="DejaVuSans-2e" d="M 684 794 
L 1344 794 
L 1344 0 
L 684 0 
L 684 794 
z
" transform="scale(0.015625)"/>
       </defs>
       <use xlink:href="#DejaVuSans-30"/>
       <use xlink:href="#DejaVuSans-2e" x="63.623047"/>
       <use xlink:href="#DejaVuSans-30" x="95.410156"/>
      </g>
     </g>
    </g>
    <g id="ytick_2">
     <g id="line2d_7">
      <g>
       <use xlink:href="#ma441d4fe73" x="47.95" y="55.721177" style="stroke: #000000; stroke-width: 0.8"/>
      </g>
     </g>
     <g id="text_7">
      <!-- 2.5 -->
      <g transform="translate(25.046875 59.520396) scale(0.1 -0.1)">
       <defs>
        <path id="DejaVuSans-35" d="M 691 4666 
L 3169 4666 
L 3169 4134 
L 1269 4134 
L 1269 2991 
Q 1406 3038 1543 3061 
Q 1681 3084 1819 3084 
Q 2600 3084 3056 2656 
Q 3513 2228 3513 1497 
Q 3513 744 3044 326 
Q 2575 -91 1722 -91 
Q 1428 -91 1123 -41 
Q 819 9 494 109 
L 494 744 
Q 775 591 1075 516 
Q 1375 441 1709 441 
Q 2250 441 2565 725 
Q 2881 1009 2881 1497 
Q 2881 1984 2565 2268 
Q 2250 2553 1709 2553 
Q 1456 2553 1204 2497 
Q 953 2441 691 2322 
L 691 4666 
z
" transform="scale(0.015625)"/>
       </defs>
       <use xlink:href="#DejaVuSans-32"/>
       <use xlink:href="#DejaVuSans-2e" x="63.623047"/>
       <use xlink:href="#DejaVuSans-35" x="95.410156"/>
      </g>
     </g>
    </g>
    <g id="text_8">
     <!-- 1e2 -->
     <g transform="translate(47.95 51.672) scale(0.1 -0.1)">
      <defs>
       <path id="DejaVuSans-31" d="M 794 531 
L 1825 531 
L 1825 4091 
L 703 3866 
L 703 4441 
L 1819 4666 
L 2450 4666 
L 2450 531 
L 3481 531 
L 3481 0 
L 794 0 
L 794 531 
z
" transform="scale(0.015625)"/>
       <path id="DejaVuSans-65" d="M 3597 1894 
L 3597 1613 
L 953 1613 
Q 991 1019 1311 708 
Q 1631 397 2203 397 
Q 2534 397 2845 478 
Q 3156 559 3463 722 
L 3463 178 
Q 3153 47 2828 -22 
Q 2503 -91 2169 -91 
Q 1331 -91 842 396 
Q 353 884 353 1716 
Q 353 2575 817 3079 
Q 1281 3584 2069 3584 
Q 2775 3584 3186 3129 
Q 3597 2675 3597 1894 
z
M 3022 2063 
Q 3016 2534 2758 2815 
Q 2500 3097 2075 3097 
Q 1594 3097 1305 2825 
Q 1016 2553 972 2059 
L 3022 2063 
z
" transform="scale(0.015625)"/>
      </defs>
      <use xlink:href="#DejaVuSans-31"/>
      <use xlink:href="#DejaVuSans-65" x="63.623047"/>
      <use xlink:href="#DejaVuSans-32" x="125.146484"/>
     </g>
    </g>
   </g>
   <g id="line2d_8">
    <path d="M 47.95 77.375263 
L 62.193168 81.750366 
L 66.262644 82.753489 
L 70.33212 83.5234 
L 74.401597 84.012822 
L 78.471073 84.191699 
L 82.54055 84.049048 
L 86.610026 83.593627 
L 90.679503 82.853405 
L 94.748979 81.873835 
L 100.853194 80.090417 
L 113.061623 76.322501 
L 117.131099 75.290382 
L 121.200576 74.483348 
L 125.270052 73.950959 
L 129.339529 73.725908 
L 133.409005 73.822014 
L 137.478482 74.233375 
L 141.547958 74.934732 
L 145.617435 75.883014 
L 151.721649 77.637757 
L 163.930079 81.42433 
L 167.999555 82.484106 
L 172.069031 83.327214 
L 176.138508 83.901879 
L 180.207984 84.172813 
L 184.277461 84.123377 
L 188.346937 83.756608 
L 192.416414 83.095028 
L 196.48589 82.179264 
L 200.555366 81.065552 
L 208.694319 78.525801 
L 214.798534 76.655157 
L 218.86801 75.569098 
L 222.937487 74.691011 
L 227.006963 74.074815 
L 231.07644 73.758351 
L 235.145916 73.761052 
L 239.215393 74.082752 
L 243.284869 74.703697 
L 247.354346 75.585755 
L 251.423822 76.67476 
L 257.528037 78.547531 
L 265.66699 81.085486 
L 269.736466 82.196416 
L 273.805942 83.108345 
L 277.875419 83.765272 
L 281.944895 84.126856 
L 286.014372 84.170892 
L 290.083848 83.894678 
L 294.153325 83.315174 
L 298.222801 82.467968 
L 302.292277 81.405083 
L 308.396492 79.551787 
L 318.570183 76.412975 
L 322.63966 75.365429 
L 326.709136 74.53836 
L 330.778613 73.982557 
L 334.848089 73.732152 
L 338.917565 73.80252 
L 342.987042 74.189341 
L 347.056518 74.868861 
L 351.125995 75.799352 
L 357.230209 77.537297 
L 371.473377 81.891911 
L 375.542853 82.867929 
L 379.61233 83.603709 
L 383.681806 84.054067 
L 387.751283 84.191347 
L 391.820759 84.007121 
L 395.890236 83.5127 
L 399.959712 82.738447 
L 404.029188 81.731906 
L 410.133403 79.924746 
L 420.307094 76.749099 
L 424.376571 75.649142 
L 428.446047 74.75224 
L 432.515524 74.113469 
L 436.585 73.772057 
L 436.585 73.772057 
" clip-path="url(#p02b9f27169)" style="fill: none; stroke: #191970; stroke-width: 3; stroke-linecap: square"/>
   </g>
   <g id="line2d_9">
    <path d="M 130.160023 89.48 
L 130.160023 54.672 
" clip-path="url(#p02b9f27169)" style="fill: none; stroke-dasharray: 7.4,3.2; stroke-dashoffset: 0; stroke: #000000; stroke-opacity: 0.8; stroke-width: 2"/>
   </g>
   <g id="patch_195">
    <path d="M 47.95 89.48 
L 47.95 54.672 
" style="fill: none; stroke: #000000; stroke-width: 0.8; stroke-linejoin: miter; stroke-linecap: square"/>
   </g>
   <g id="patch_196">
    <path d="M 47.95 89.48 
L 436.585 89.48 
" style="fill: none; stroke: #000000; stroke-width: 0.8; stroke-linejoin: miter; stroke-linecap: square"/>
   </g>
   <g id="text_9">
    <!-- 1 -->
    <g transform="translate(239.7225 39.71375) scale(0.08 -0.08)">
     <use xlink:href="#DejaVuSans-31"/>
    </g>
    <!-- (AC: 20.2, PR: 25.29) -->
    <g transform="translate(200.483125 48.672) scale(0.08 -0.08)">
     <defs>
      <path id="DejaVuSans-28" d="M 1984 4856 
Q 1566 4138 1362 3434 
Q 1159 2731 1159 2009 
Q 1159 1288 1364 580 
Q 1569 -128 1984 -844 
L 1484 -844 
Q 1016 -109 783 600 
Q 550 1309 550 2009 
Q 550 2706 781 3412 
Q 1013 4119 1484 4856 
L 1984 4856 
z
" transform="scale(0.015625)"/>
      <path id="DejaVuSans-41" d="M 2188 4044 
L 1331 1722 
L 3047 1722 
L 2188 4044 
z
M 1831 4666 
L 2547 4666 
L 4325 0 
L 3669 0 
L 3244 1197 
L 1141 1197 
L 716 0 
L 50 0 
L 1831 4666 
z
" transform="scale(0.015625)"/>
      <path id="DejaVuSans-43" d="M 4122 4306 
L 4122 3641 
Q 3803 3938 3442 4084 
Q 3081 4231 2675 4231 
Q 1875 4231 1450 3742 
Q 1025 3253 1025 2328 
Q 1025 1406 1450 917 
Q 1875 428 2675 428 
Q 3081 428 3442 575 
Q 3803 722 4122 1019 
L 4122 359 
Q 3791 134 3420 21 
Q 3050 -91 2638 -91 
Q 1578 -91 968 557 
Q 359 1206 359 2328 
Q 359 3453 968 4101 
Q 1578 4750 2638 4750 
Q 3056 4750 3426 4639 
Q 3797 4528 4122 4306 
z
" transform="scale(0.015625)"/>
      <path id="DejaVuSans-3a" d="M 750 794 
L 1409 794 
L 1409 0 
L 750 0 
L 750 794 
z
M 750 3309 
L 1409 3309 
L 1409 2516 
L 750 2516 
L 750 3309 
z
" transform="scale(0.015625)"/>
      <path id="DejaVuSans-20" transform="scale(0.015625)"/>
      <path id="DejaVuSans-2c" d="M 750 794 
L 1409 794 
L 1409 256 
L 897 -744 
L 494 -744 
L 750 256 
L 750 794 
z
" transform="scale(0.015625)"/>
      <path id="DejaVuSans-50" d="M 1259 4147 
L 1259 2394 
L 2053 2394 
Q 2494 2394 2734 2622 
Q 2975 2850 2975 3272 
Q 2975 3691 2734 3919 
Q 2494 4147 2053 4147 
L 1259 4147 
z
M 628 4666 
L 2053 4666 
Q 2838 4666 3239 4311 
Q 3641 3956 3641 3272 
Q 3641 2581 3239 2228 
Q 2838 1875 2053 1875 
L 1259 1875 
L 1259 0 
L 628 0 
L 628 4666 
z
" transform="scale(0.015625)"/>
      <path id="DejaVuSans-52" d="M 2841 2188 
Q 3044 2119 3236 1894 
Q 3428 1669 3622 1275 
L 4263 0 
L 3584 0 
L 2988 1197 
Q 2756 1666 2539 1819 
Q 2322 1972 1947 1972 
L 1259 1972 
L 1259 0 
L 628 0 
L 628 4666 
L 2053 4666 
Q 2853 4666 3247 4331 
Q 3641 3997 3641 3322 
Q 3641 2881 3436 2590 
Q 3231 2300 2841 2188 
z
M 1259 4147 
L 1259 2491 
L 2053 2491 
Q 2509 2491 2742 2702 
Q 2975 2913 2975 3322 
Q 2975 3731 2742 3939 
Q 2509 4147 2053 4147 
L 1259 4147 
z
" transform="scale(0.015625)"/>
      <path id="DejaVuSans-39" d="M 703 97 
L 703 672 
Q 941 559 1184 500 
Q 1428 441 1663 441 
Q 2288 441 2617 861 
Q 2947 1281 2994 2138 
Q 2813 1869 2534 1725 
Q 2256 1581 1919 1581 
Q 1219 1581 811 2004 
Q 403 2428 403 3163 
Q 403 3881 828 4315 
Q 1253 4750 1959 4750 
Q 2769 4750 3195 4129 
Q 3622 3509 3622 2328 
Q 3622 1225 3098 567 
Q 2575 -91 1691 -91 
Q 1453 -91 1209 -44 
Q 966 3 703 97 
z
M 1959 2075 
Q 2384 2075 2632 2365 
Q 2881 2656 2881 3163 
Q 2881 3666 2632 3958 
Q 2384 4250 1959 4250 
Q 1534 4250 1286 3958 
Q 1038 3666 1038 3163 
Q 1038 2656 1286 2365 
Q 1534 2075 1959 2075 
z
" transform="scale(0.015625)"/>
      <path id="DejaVuSans-29" d="M 513 4856 
L 1013 4856 
Q 1481 4119 1714 3412 
Q 1947 2706 1947 2009 
Q 1947 1309 1714 600 
Q 1481 -109 1013 -844 
L 513 -844 
Q 928 -128 1133 580 
Q 1338 1288 1338 2009 
Q 1338 2731 1133 3434 
Q 928 4138 513 4856 
z
" transform="scale(0.015625)"/>
     </defs>
     <use xlink:href="#DejaVuSans-28"/>
     <use xlink:href="#DejaVuSans-41" x="39.013672"/>
     <use xlink:href="#DejaVuSans-43" x="105.671875"/>
     <use xlink:href="#DejaVuSans-3a" x="175.496094"/>
     <use xlink:href="#DejaVuSans-20" x="209.1875"/>
     <use xlink:href="#DejaVuSans-32" x="240.974609"/>
     <use xlink:href="#DejaVuSans-30" x="304.597656"/>
     <use xlink:href="#DejaVuSans-2e" x="368.220703"/>
     <use xlink:href="#DejaVuSans-32" x="400.007812"/>
     <use xlink:href="#DejaVuSans-2c" x="463.630859"/>
     <use xlink:href="#DejaVuSans-20" x="495.417969"/>
     <use xlink:href="#DejaVuSans-50" x="527.205078"/>
     <use xlink:href="#DejaVuSans-52" x="587.507812"/>
     <use xlink:href="#DejaVuSans-3a" x="653.865234"/>
     <use xlink:href="#DejaVuSans-20" x="687.556641"/>
     <use xlink:href="#DejaVuSans-32" x="719.34375"/>
     <use xlink:href="#DejaVuSans-35" x="782.966797"/>
     <use xlink:href="#DejaVuSans-2e" x="846.589844"/>
     <use xlink:href="#DejaVuSans-32" x="878.376953"/>
     <use xlink:href="#DejaVuSans-39" x="942"/>
     <use xlink:href="#DejaVuSans-29" x="1005.623047"/>
    </g>
   </g>
  </g>
  <g id="axes_2">
   <g id="patch_197">
    <path d="M 450.885 89.48 
L 839.52 89.48 
L 839.52 54.672 
L 450.885 54.672 
z
" style="fill: #ffffff"/>
   </g>
   <g id="patch_198">
    <path d="M 448.710818 86.579333 
L 453.059182 86.579333 
L 453.059182 71.026823 
L 448.710818 71.026823 
z
" clip-path="url(#pfa98810763)" style="fill: #696969"/>
   </g>
   <g id="patch_199">
    <path d="M 451.428545 86.579333 
L 455.776909 86.579333 
L 455.776909 60.288184 
L 451.428545 60.288184 
z
" clip-path="url(#pfa98810763)" style="fill: #696969"/>
   </g>
   <g id="patch_200">
    <path d="M 454.146273 86.579333 
L 458.494636 86.579333 
L 458.494636 60.041319 
L 454.146273 60.041319 
z
" clip-path="url(#pfa98810763)" style="fill: #696969"/>
   </g>
   <g id="patch_201">
    <path d="M 456.864 86.579333 
L 461.212364 86.579333 
L 461.212364 86.579333 
L 456.864 86.579333 
z
" clip-path="url(#pfa98810763)" style="fill: #696969"/>
   </g>
   <g id="patch_202">
    <path d="M 459.581727 86.579333 
L 463.930091 86.579333 
L 463.930091 83.987248 
L 459.581727 83.987248 
z
" clip-path="url(#pfa98810763)" style="fill: #696969"/>
   </g>
   <g id="patch_203">
    <path d="M 462.299455 86.579333 
L 466.647818 86.579333 
L 466.647818 67.323844 
L 462.299455 67.323844 
z
" clip-path="url(#pfa98810763)" style="fill: #696969"/>
   </g>
   <g id="patch_204">
    <path d="M 465.017182 86.579333 
L 469.365545 86.579333 
L 469.365545 74.236071 
L 465.017182 74.236071 
z
" clip-path="url(#pfa98810763)" style="fill: #696969"/>
   </g>
   <g id="patch_205">
    <path d="M 467.734909 86.579333 
L 472.083273 86.579333 
L 472.083273 66.336383 
L 467.734909 66.336383 
z
" clip-path="url(#pfa98810763)" style="fill: #696969"/>
   </g>
   <g id="patch_206">
    <path d="M 470.452636 86.579333 
L 474.801 86.579333 
L 474.801 83.12322 
L 470.452636 83.12322 
z
" clip-path="url(#pfa98810763)" style="fill: #696969"/>
   </g>
   <g id="patch_207">
    <path d="M 473.170364 86.579333 
L 477.518727 86.579333 
L 477.518727 83.863816 
L 473.170364 83.863816 
z
" clip-path="url(#pfa98810763)" style="fill: #696969"/>
   </g>
   <g id="patch_208">
    <path d="M 475.888091 86.579333 
L 480.236455 86.579333 
L 480.236455 84.604411 
L 475.888091 84.604411 
z
" clip-path="url(#pfa98810763)" style="fill: #696969"/>
   </g>
   <g id="patch_209">
    <path d="M 478.605818 86.579333 
L 482.954182 86.579333 
L 482.954182 81.148298 
L 478.605818 81.148298 
z
" clip-path="url(#pfa98810763)" style="fill: #696969"/>
   </g>
   <g id="patch_210">
    <path d="M 481.323545 86.579333 
L 485.671909 86.579333 
L 485.671909 78.679645 
L 481.323545 78.679645 
z
" clip-path="url(#pfa98810763)" style="fill: #696969"/>
   </g>
   <g id="patch_211">
    <path d="M 484.041273 86.579333 
L 488.389636 86.579333 
L 488.389636 80.901433 
L 484.041273 80.901433 
z
" clip-path="url(#pfa98810763)" style="fill: #696969"/>
   </g>
   <g id="patch_212">
    <path d="M 486.759 86.579333 
L 491.107364 86.579333 
L 491.107364 80.654567 
L 486.759 80.654567 
z
" clip-path="url(#pfa98810763)" style="fill: #696969"/>
   </g>
   <g id="patch_213">
    <path d="M 489.476727 86.579333 
L 493.825091 86.579333 
L 493.825091 85.098142 
L 489.476727 85.098142 
z
" clip-path="url(#pfa98810763)" style="fill: #696969"/>
   </g>
   <g id="patch_214">
    <path d="M 492.194455 86.579333 
L 496.542818 86.579333 
L 496.542818 80.654567 
L 492.194455 80.654567 
z
" clip-path="url(#pfa98810763)" style="fill: #696969"/>
   </g>
   <g id="patch_215">
    <path d="M 494.912182 86.579333 
L 499.260545 86.579333 
L 499.260545 78.679645 
L 494.912182 78.679645 
z
" clip-path="url(#pfa98810763)" style="fill: #696969"/>
   </g>
   <g id="patch_216">
    <path d="M 497.629909 86.579333 
L 501.978273 86.579333 
L 501.978273 86.579333 
L 497.629909 86.579333 
z
" clip-path="url(#pfa98810763)" style="fill: #696969"/>
   </g>
   <g id="patch_217">
    <path d="M 500.347636 86.579333 
L 504.696 86.579333 
L 504.696 84.234113 
L 500.347636 84.234113 
z
" clip-path="url(#pfa98810763)" style="fill: #696969"/>
   </g>
   <g id="patch_218">
    <path d="M 503.065364 86.579333 
L 507.413727 86.579333 
L 507.413727 77.321887 
L 503.065364 77.321887 
z
" clip-path="url(#pfa98810763)" style="fill: #696969"/>
   </g>
   <g id="patch_219">
    <path d="M 505.783091 86.579333 
L 510.131455 86.579333 
L 510.131455 77.93905 
L 505.783091 77.93905 
z
" clip-path="url(#pfa98810763)" style="fill: #696969"/>
   </g>
   <g id="patch_220">
    <path d="M 508.500818 86.579333 
L 512.849182 86.579333 
L 512.849182 86.579333 
L 508.500818 86.579333 
z
" clip-path="url(#pfa98810763)" style="fill: #696969"/>
   </g>
   <g id="patch_221">
    <path d="M 511.218545 86.579333 
L 515.566909 86.579333 
L 515.566909 77.321887 
L 511.218545 77.321887 
z
" clip-path="url(#pfa98810763)" style="fill: #696969"/>
   </g>
   <g id="patch_222">
    <path d="M 513.936273 86.579333 
L 518.284636 86.579333 
L 518.284636 77.93905 
L 513.936273 77.93905 
z
" clip-path="url(#pfa98810763)" style="fill: #696969"/>
   </g>
   <g id="patch_223">
    <path d="M 516.654 86.579333 
L 521.002364 86.579333 
L 521.002364 80.160837 
L 516.654 80.160837 
z
" clip-path="url(#pfa98810763)" style="fill: #696969"/>
   </g>
   <g id="patch_224">
    <path d="M 519.371727 86.579333 
L 523.720091 86.579333 
L 523.720091 86.579333 
L 519.371727 86.579333 
z
" clip-path="url(#pfa98810763)" style="fill: #696969"/>
   </g>
   <g id="patch_225">
    <path d="M 522.089455 86.579333 
L 526.437818 86.579333 
L 526.437818 86.579333 
L 522.089455 86.579333 
z
" clip-path="url(#pfa98810763)" style="fill: #696969"/>
   </g>
   <g id="patch_226">
    <path d="M 524.807182 86.579333 
L 529.155545 86.579333 
L 529.155545 83.987248 
L 524.807182 83.987248 
z
" clip-path="url(#pfa98810763)" style="fill: #696969"/>
   </g>
   <g id="patch_227">
    <path d="M 527.524909 86.579333 
L 531.873273 86.579333 
L 531.873273 86.085603 
L 527.524909 86.085603 
z
" clip-path="url(#pfa98810763)" style="fill: #696969"/>
   </g>
   <g id="patch_228">
    <path d="M 530.242636 86.579333 
L 534.591 86.579333 
L 534.591 85.838738 
L 530.242636 85.838738 
z
" clip-path="url(#pfa98810763)" style="fill: #696969"/>
   </g>
   <g id="patch_229">
    <path d="M 532.960364 86.579333 
L 537.308727 86.579333 
L 537.308727 84.851277 
L 532.960364 84.851277 
z
" clip-path="url(#pfa98810763)" style="fill: #696969"/>
   </g>
   <g id="patch_230">
    <path d="M 535.678091 86.579333 
L 540.026455 86.579333 
L 540.026455 70.90339 
L 535.678091 70.90339 
z
" clip-path="url(#pfa98810763)" style="fill: #696969"/>
   </g>
   <g id="patch_231">
    <path d="M 538.395818 86.579333 
L 542.744182 86.579333 
L 542.744182 85.221574 
L 538.395818 85.221574 
z
" clip-path="url(#pfa98810763)" style="fill: #696969"/>
   </g>
   <g id="patch_232">
    <path d="M 541.113545 86.579333 
L 545.461909 86.579333 
L 545.461909 78.679645 
L 541.113545 78.679645 
z
" clip-path="url(#pfa98810763)" style="fill: #696969"/>
   </g>
   <g id="patch_233">
    <path d="M 543.831273 86.579333 
L 548.179636 86.579333 
L 548.179636 83.493518 
L 543.831273 83.493518 
z
" clip-path="url(#pfa98810763)" style="fill: #696969"/>
   </g>
   <g id="patch_234">
    <path d="M 546.549 86.579333 
L 550.897364 86.579333 
L 550.897364 71.026823 
L 546.549 71.026823 
z
" clip-path="url(#pfa98810763)" style="fill: #696969"/>
   </g>
   <g id="patch_235">
    <path d="M 549.266727 86.579333 
L 553.615091 86.579333 
L 553.615091 75.223532 
L 549.266727 75.223532 
z
" clip-path="url(#pfa98810763)" style="fill: #696969"/>
   </g>
   <g id="patch_236">
    <path d="M 551.984455 86.579333 
L 556.332818 86.579333 
L 556.332818 73.125177 
L 551.984455 73.125177 
z
" clip-path="url(#pfa98810763)" style="fill: #696969"/>
   </g>
   <g id="patch_237">
    <path d="M 554.702182 86.579333 
L 559.050545 86.579333 
L 559.050545 84.357546 
L 554.702182 84.357546 
z
" clip-path="url(#pfa98810763)" style="fill: #696969"/>
   </g>
   <g id="patch_238">
    <path d="M 557.419909 86.579333 
L 561.768273 86.579333 
L 561.768273 82.876355 
L 557.419909 82.876355 
z
" clip-path="url(#pfa98810763)" style="fill: #696969"/>
   </g>
   <g id="patch_239">
    <path d="M 560.137636 86.579333 
L 564.486 86.579333 
L 564.486 79.420241 
L 560.137636 79.420241 
z
" clip-path="url(#pfa98810763)" style="fill: #696969"/>
   </g>
   <g id="patch_240">
    <path d="M 562.855364 86.579333 
L 567.203727 86.579333 
L 567.203727 64.361461 
L 562.855364 64.361461 
z
" clip-path="url(#pfa98810763)" style="fill: #696969"/>
   </g>
   <g id="patch_241">
    <path d="M 565.573091 86.579333 
L 569.921455 86.579333 
L 569.921455 76.457858 
L 565.573091 76.457858 
z
" clip-path="url(#pfa98810763)" style="fill: #696969"/>
   </g>
   <g id="patch_242">
    <path d="M 568.290818 86.579333 
L 572.639182 86.579333 
L 572.639182 65.472355 
L 568.290818 65.472355 
z
" clip-path="url(#pfa98810763)" style="fill: #696969"/>
   </g>
   <g id="patch_243">
    <path d="M 571.008545 86.579333 
L 575.356909 86.579333 
L 575.356909 79.296809 
L 571.008545 79.296809 
z
" clip-path="url(#pfa98810763)" style="fill: #696969"/>
   </g>
   <g id="patch_244">
    <path d="M 573.726273 86.579333 
L 578.074636 86.579333 
L 578.074636 76.704723 
L 573.726273 76.704723 
z
" clip-path="url(#pfa98810763)" style="fill: #696969"/>
   </g>
   <g id="patch_245">
    <path d="M 576.444 86.579333 
L 580.792364 86.579333 
L 580.792364 70.40966 
L 576.444 70.40966 
z
" clip-path="url(#pfa98810763)" style="fill: #696969"/>
   </g>
   <g id="patch_246">
    <path d="M 579.161727 86.579333 
L 583.510091 86.579333 
L 583.510091 78.062482 
L 579.161727 78.062482 
z
" clip-path="url(#pfa98810763)" style="fill: #696969"/>
   </g>
   <g id="patch_247">
    <path d="M 581.879455 86.579333 
L 586.227818 86.579333 
L 586.227818 63.497433 
L 581.879455 63.497433 
z
" clip-path="url(#pfa98810763)" style="fill: #696969"/>
   </g>
   <g id="patch_248">
    <path d="M 584.597182 86.579333 
L 588.945545 86.579333 
L 588.945545 69.175333 
L 584.597182 69.175333 
z
" clip-path="url(#pfa98810763)" style="fill: #696969"/>
   </g>
   <g id="patch_249">
    <path d="M 587.314909 86.579333 
L 591.663273 86.579333 
L 591.663273 70.533092 
L 587.314909 70.533092 
z
" clip-path="url(#pfa98810763)" style="fill: #696969"/>
   </g>
   <g id="patch_250">
    <path d="M 590.032636 86.579333 
L 594.381 86.579333 
L 594.381 79.049943 
L 590.032636 79.049943 
z
" clip-path="url(#pfa98810763)" style="fill: #696969"/>
   </g>
   <g id="patch_251">
    <path d="M 592.750364 86.579333 
L 597.098727 86.579333 
L 597.098727 73.618908 
L 592.750364 73.618908 
z
" clip-path="url(#pfa98810763)" style="fill: #696969"/>
   </g>
   <g id="patch_252">
    <path d="M 595.468091 86.579333 
L 599.816455 86.579333 
L 599.816455 74.359504 
L 595.468091 74.359504 
z
" clip-path="url(#pfa98810763)" style="fill: #696969"/>
   </g>
   <g id="patch_253">
    <path d="M 598.185818 86.579333 
L 602.534182 86.579333 
L 602.534182 68.805035 
L 598.185818 68.805035 
z
" clip-path="url(#pfa98810763)" style="fill: #696969"/>
   </g>
   <g id="patch_254">
    <path d="M 600.903545 86.579333 
L 605.251909 86.579333 
L 605.251909 74.976667 
L 600.903545 74.976667 
z
" clip-path="url(#pfa98810763)" style="fill: #696969"/>
   </g>
   <g id="patch_255">
    <path d="M 603.621273 86.579333 
L 607.969636 86.579333 
L 607.969636 73.495475 
L 603.621273 73.495475 
z
" clip-path="url(#pfa98810763)" style="fill: #696969"/>
   </g>
   <g id="patch_256">
    <path d="M 606.339 86.579333 
L 610.687364 86.579333 
L 610.687364 69.422199 
L 606.339 69.422199 
z
" clip-path="url(#pfa98810763)" style="fill: #696969"/>
   </g>
   <g id="patch_257">
    <path d="M 609.056727 86.579333 
L 613.405091 86.579333 
L 613.405091 84.234113 
L 609.056727 84.234113 
z
" clip-path="url(#pfa98810763)" style="fill: #696969"/>
   </g>
   <g id="patch_258">
    <path d="M 611.774455 86.579333 
L 616.122818 86.579333 
L 616.122818 72.754879 
L 611.774455 72.754879 
z
" clip-path="url(#pfa98810763)" style="fill: #696969"/>
   </g>
   <g id="patch_259">
    <path d="M 614.492182 86.579333 
L 618.840545 86.579333 
L 618.840545 84.974709 
L 614.492182 84.974709 
z
" clip-path="url(#pfa98810763)" style="fill: #696969"/>
   </g>
   <g id="patch_260">
    <path d="M 617.209909 86.579333 
L 621.558273 86.579333 
L 621.558273 79.173376 
L 617.209909 79.173376 
z
" clip-path="url(#pfa98810763)" style="fill: #696969"/>
   </g>
   <g id="patch_261">
    <path d="M 619.927636 86.579333 
L 624.276 86.579333 
L 624.276 80.901433 
L 619.927636 80.901433 
z
" clip-path="url(#pfa98810763)" style="fill: #696969"/>
   </g>
   <g id="patch_262">
    <path d="M 622.645364 86.579333 
L 626.993727 86.579333 
L 626.993727 71.767418 
L 622.645364 71.767418 
z
" clip-path="url(#pfa98810763)" style="fill: #696969"/>
   </g>
   <g id="patch_263">
    <path d="M 625.363091 86.579333 
L 629.711455 86.579333 
L 629.711455 77.692184 
L 625.363091 77.692184 
z
" clip-path="url(#pfa98810763)" style="fill: #696969"/>
   </g>
   <g id="patch_264">
    <path d="M 628.080818 86.579333 
L 632.429182 86.579333 
L 632.429182 86.579333 
L 628.080818 86.579333 
z
" clip-path="url(#pfa98810763)" style="fill: #696969"/>
   </g>
   <g id="patch_265">
    <path d="M 630.798545 86.579333 
L 635.146909 86.579333 
L 635.146909 86.579333 
L 630.798545 86.579333 
z
" clip-path="url(#pfa98810763)" style="fill: #696969"/>
   </g>
   <g id="patch_266">
    <path d="M 633.516273 86.579333 
L 637.864636 86.579333 
L 637.864636 86.579333 
L 633.516273 86.579333 
z
" clip-path="url(#pfa98810763)" style="fill: #696969"/>
   </g>
   <g id="patch_267">
    <path d="M 636.234 86.579333 
L 640.582364 86.579333 
L 640.582364 86.579333 
L 636.234 86.579333 
z
" clip-path="url(#pfa98810763)" style="fill: #696969"/>
   </g>
   <g id="patch_268">
    <path d="M 638.951727 86.579333 
L 643.300091 86.579333 
L 643.300091 86.579333 
L 638.951727 86.579333 
z
" clip-path="url(#pfa98810763)" style="fill: #696969"/>
   </g>
   <g id="patch_269">
    <path d="M 641.669455 86.579333 
L 646.017818 86.579333 
L 646.017818 70.533092 
L 641.669455 70.533092 
z
" clip-path="url(#pfa98810763)" style="fill: #696969"/>
   </g>
   <g id="patch_270">
    <path d="M 644.387182 86.579333 
L 648.735545 86.579333 
L 648.735545 85.098142 
L 644.387182 85.098142 
z
" clip-path="url(#pfa98810763)" style="fill: #696969"/>
   </g>
   <g id="patch_271">
    <path d="M 647.104909 86.579333 
L 651.453273 86.579333 
L 651.453273 74.606369 
L 647.104909 74.606369 
z
" clip-path="url(#pfa98810763)" style="fill: #696969"/>
   </g>
   <g id="patch_272">
    <path d="M 649.822636 86.579333 
L 654.171 86.579333 
L 654.171 77.445319 
L 649.822636 77.445319 
z
" clip-path="url(#pfa98810763)" style="fill: #696969"/>
   </g>
   <g id="patch_273">
    <path d="M 652.540364 86.579333 
L 656.888727 86.579333 
L 656.888727 86.579333 
L 652.540364 86.579333 
z
" clip-path="url(#pfa98810763)" style="fill: #696969"/>
   </g>
   <g id="patch_274">
    <path d="M 655.258091 86.579333 
L 659.606455 86.579333 
L 659.606455 80.037404 
L 655.258091 80.037404 
z
" clip-path="url(#pfa98810763)" style="fill: #696969"/>
   </g>
   <g id="patch_275">
    <path d="M 657.975818 86.579333 
L 662.324182 86.579333 
L 662.324182 78.309348 
L 657.975818 78.309348 
z
" clip-path="url(#pfa98810763)" style="fill: #696969"/>
   </g>
   <g id="patch_276">
    <path d="M 660.693545 86.579333 
L 665.041909 86.579333 
L 665.041909 83.246652 
L 660.693545 83.246652 
z
" clip-path="url(#pfa98810763)" style="fill: #696969"/>
   </g>
   <g id="patch_277">
    <path d="M 663.411273 86.579333 
L 667.759636 86.579333 
L 667.759636 72.754879 
L 663.411273 72.754879 
z
" clip-path="url(#pfa98810763)" style="fill: #696969"/>
   </g>
   <g id="patch_278">
    <path d="M 666.129 86.579333 
L 670.477364 86.579333 
L 670.477364 86.455901 
L 666.129 86.455901 
z
" clip-path="url(#pfa98810763)" style="fill: #696969"/>
   </g>
   <g id="patch_279">
    <path d="M 668.846727 86.579333 
L 673.195091 86.579333 
L 673.195091 78.43278 
L 668.846727 78.43278 
z
" clip-path="url(#pfa98810763)" style="fill: #696969"/>
   </g>
   <g id="patch_280">
    <path d="M 671.564455 86.579333 
L 675.912818 86.579333 
L 675.912818 67.941007 
L 671.564455 67.941007 
z
" clip-path="url(#pfa98810763)" style="fill: #696969"/>
   </g>
   <g id="patch_281">
    <path d="M 674.282182 86.579333 
L 678.630545 86.579333 
L 678.630545 79.049943 
L 674.282182 79.049943 
z
" clip-path="url(#pfa98810763)" style="fill: #696969"/>
   </g>
   <g id="patch_282">
    <path d="M 676.999909 86.579333 
L 681.348273 86.579333 
L 681.348273 70.90339 
L 676.999909 70.90339 
z
" clip-path="url(#pfa98810763)" style="fill: #696969"/>
   </g>
   <g id="patch_283">
    <path d="M 679.717636 86.579333 
L 684.066 86.579333 
L 684.066 86.579333 
L 679.717636 86.579333 
z
" clip-path="url(#pfa98810763)" style="fill: #696969"/>
   </g>
   <g id="patch_284">
    <path d="M 682.435364 86.579333 
L 686.783727 86.579333 
L 686.783727 82.999787 
L 682.435364 82.999787 
z
" clip-path="url(#pfa98810763)" style="fill: #696969"/>
   </g>
   <g id="patch_285">
    <path d="M 685.153091 86.579333 
L 689.501455 86.579333 
L 689.501455 80.654567 
L 685.153091 80.654567 
z
" clip-path="url(#pfa98810763)" style="fill: #696969"/>
   </g>
   <g id="patch_286">
    <path d="M 687.870818 86.579333 
L 692.219182 86.579333 
L 692.219182 81.395163 
L 687.870818 81.395163 
z
" clip-path="url(#pfa98810763)" style="fill: #696969"/>
   </g>
   <g id="patch_287">
    <path d="M 690.588545 86.579333 
L 694.936909 86.579333 
L 694.936909 85.098142 
L 690.588545 85.098142 
z
" clip-path="url(#pfa98810763)" style="fill: #696969"/>
   </g>
   <g id="patch_288">
    <path d="M 693.306273 86.579333 
L 697.654636 86.579333 
L 697.654636 72.878312 
L 693.306273 72.878312 
z
" clip-path="url(#pfa98810763)" style="fill: #696969"/>
   </g>
   <g id="patch_289">
    <path d="M 696.024 86.579333 
L 700.372364 86.579333 
L 700.372364 74.482936 
L 696.024 74.482936 
z
" clip-path="url(#pfa98810763)" style="fill: #696969"/>
   </g>
   <g id="patch_290">
    <path d="M 698.741727 86.579333 
L 703.090091 86.579333 
L 703.090091 76.210993 
L 698.741727 76.210993 
z
" clip-path="url(#pfa98810763)" style="fill: #696969"/>
   </g>
   <g id="patch_291">
    <path d="M 701.459455 86.579333 
L 705.807818 86.579333 
L 705.807818 63.991163 
L 701.459455 63.991163 
z
" clip-path="url(#pfa98810763)" style="fill: #696969"/>
   </g>
   <g id="patch_292">
    <path d="M 704.177182 86.579333 
L 708.525545 86.579333 
L 708.525545 81.395163 
L 704.177182 81.395163 
z
" clip-path="url(#pfa98810763)" style="fill: #696969"/>
   </g>
   <g id="patch_293">
    <path d="M 706.894909 86.579333 
L 711.243273 86.579333 
L 711.243273 77.321887 
L 706.894909 77.321887 
z
" clip-path="url(#pfa98810763)" style="fill: #696969"/>
   </g>
   <g id="patch_294">
    <path d="M 709.612636 86.579333 
L 713.961 86.579333 
L 713.961 70.039362 
L 709.612636 70.039362 
z
" clip-path="url(#pfa98810763)" style="fill: #696969"/>
   </g>
   <g id="patch_295">
    <path d="M 712.330364 86.579333 
L 716.678727 86.579333 
L 716.678727 69.175333 
L 712.330364 69.175333 
z
" clip-path="url(#pfa98810763)" style="fill: #696969"/>
   </g>
   <g id="patch_296">
    <path d="M 715.048091 86.579333 
L 719.396455 86.579333 
L 719.396455 62.756837 
L 715.048091 62.756837 
z
" clip-path="url(#pfa98810763)" style="fill: #696969"/>
   </g>
   <g id="patch_297">
    <path d="M 717.765818 86.579333 
L 722.114182 86.579333 
L 722.114182 63.620865 
L 717.765818 63.620865 
z
" clip-path="url(#pfa98810763)" style="fill: #696969"/>
   </g>
   <g id="patch_298">
    <path d="M 720.483545 86.579333 
L 724.831909 86.579333 
L 724.831909 61.522511 
L 720.483545 61.522511 
z
" clip-path="url(#pfa98810763)" style="fill: #696969"/>
   </g>
   <g id="patch_299">
    <path d="M 723.201273 86.579333 
L 727.549636 86.579333 
L 727.549636 86.579333 
L 723.201273 86.579333 
z
" clip-path="url(#pfa98810763)" style="fill: #696969"/>
   </g>
   <g id="patch_300">
    <path d="M 725.919 86.579333 
L 730.267364 86.579333 
L 730.267364 70.40966 
L 725.919 70.40966 
z
" clip-path="url(#pfa98810763)" style="fill: #696969"/>
   </g>
   <g id="patch_301">
    <path d="M 728.636727 86.579333 
L 732.985091 86.579333 
L 732.985091 86.579333 
L 728.636727 86.579333 
z
" clip-path="url(#pfa98810763)" style="fill: #696969"/>
   </g>
   <g id="patch_302">
    <path d="M 731.354455 86.579333 
L 735.702818 86.579333 
L 735.702818 86.579333 
L 731.354455 86.579333 
z
" clip-path="url(#pfa98810763)" style="fill: #696969"/>
   </g>
   <g id="patch_303">
    <path d="M 734.072182 86.579333 
L 738.420545 86.579333 
L 738.420545 78.679645 
L 734.072182 78.679645 
z
" clip-path="url(#pfa98810763)" style="fill: #696969"/>
   </g>
   <g id="patch_304">
    <path d="M 736.789909 86.579333 
L 741.138273 86.579333 
L 741.138273 75.717262 
L 736.789909 75.717262 
z
" clip-path="url(#pfa98810763)" style="fill: #696969"/>
   </g>
   <g id="patch_305">
    <path d="M 739.507636 86.579333 
L 743.856 86.579333 
L 743.856 83.246652 
L 739.507636 83.246652 
z
" clip-path="url(#pfa98810763)" style="fill: #696969"/>
   </g>
   <g id="patch_306">
    <path d="M 742.225364 86.579333 
L 746.573727 86.579333 
L 746.573727 79.173376 
L 742.225364 79.173376 
z
" clip-path="url(#pfa98810763)" style="fill: #696969"/>
   </g>
   <g id="patch_307">
    <path d="M 744.943091 86.579333 
L 749.291455 86.579333 
L 749.291455 82.259191 
L 744.943091 82.259191 
z
" clip-path="url(#pfa98810763)" style="fill: #696969"/>
   </g>
   <g id="patch_308">
    <path d="M 747.660818 86.579333 
L 752.009182 86.579333 
L 752.009182 86.579333 
L 747.660818 86.579333 
z
" clip-path="url(#pfa98810763)" style="fill: #696969"/>
   </g>
   <g id="patch_309">
    <path d="M 750.378545 86.579333 
L 754.726909 86.579333 
L 754.726909 86.579333 
L 750.378545 86.579333 
z
" clip-path="url(#pfa98810763)" style="fill: #696969"/>
   </g>
   <g id="patch_310">
    <path d="M 753.096273 86.579333 
L 757.444636 86.579333 
L 757.444636 79.049943 
L 753.096273 79.049943 
z
" clip-path="url(#pfa98810763)" style="fill: #696969"/>
   </g>
   <g id="patch_311">
    <path d="M 755.814 86.579333 
L 760.162364 86.579333 
L 760.162364 80.901433 
L 755.814 80.901433 
z
" clip-path="url(#pfa98810763)" style="fill: #696969"/>
   </g>
   <g id="patch_312">
    <path d="M 758.531727 86.579333 
L 762.880091 86.579333 
L 762.880091 77.568752 
L 758.531727 77.568752 
z
" clip-path="url(#pfa98810763)" style="fill: #696969"/>
   </g>
   <g id="patch_313">
    <path d="M 761.249455 86.579333 
L 765.597818 86.579333 
L 765.597818 85.96217 
L 761.249455 85.96217 
z
" clip-path="url(#pfa98810763)" style="fill: #696969"/>
   </g>
   <g id="patch_314">
    <path d="M 763.967182 86.579333 
L 768.315545 86.579333 
L 768.315545 86.579333 
L 763.967182 86.579333 
z
" clip-path="url(#pfa98810763)" style="fill: #696969"/>
   </g>
   <g id="patch_315">
    <path d="M 766.684909 86.579333 
L 771.033273 86.579333 
L 771.033273 86.579333 
L 766.684909 86.579333 
z
" clip-path="url(#pfa98810763)" style="fill: #696969"/>
   </g>
   <g id="patch_316">
    <path d="M 769.402636 86.579333 
L 773.751 86.579333 
L 773.751 86.579333 
L 769.402636 86.579333 
z
" clip-path="url(#pfa98810763)" style="fill: #696969"/>
   </g>
   <g id="patch_317">
    <path d="M 772.120364 86.579333 
L 776.468727 86.579333 
L 776.468727 83.370085 
L 772.120364 83.370085 
z
" clip-path="url(#pfa98810763)" style="fill: #696969"/>
   </g>
   <g id="patch_318">
    <path d="M 774.838091 86.579333 
L 779.186455 86.579333 
L 779.186455 86.579333 
L 774.838091 86.579333 
z
" clip-path="url(#pfa98810763)" style="fill: #696969"/>
   </g>
   <g id="patch_319">
    <path d="M 777.555818 86.579333 
L 781.904182 86.579333 
L 781.904182 86.579333 
L 777.555818 86.579333 
z
" clip-path="url(#pfa98810763)" style="fill: #696969"/>
   </g>
   <g id="patch_320">
    <path d="M 780.273545 86.579333 
L 784.621909 86.579333 
L 784.621909 86.579333 
L 780.273545 86.579333 
z
" clip-path="url(#pfa98810763)" style="fill: #696969"/>
   </g>
   <g id="patch_321">
    <path d="M 782.991273 86.579333 
L 787.339636 86.579333 
L 787.339636 85.96217 
L 782.991273 85.96217 
z
" clip-path="url(#pfa98810763)" style="fill: #696969"/>
   </g>
   <g id="patch_322">
    <path d="M 785.709 86.579333 
L 790.057364 86.579333 
L 790.057364 86.579333 
L 785.709 86.579333 
z
" clip-path="url(#pfa98810763)" style="fill: #696969"/>
   </g>
   <g id="patch_323">
    <path d="M 788.426727 86.579333 
L 792.775091 86.579333 
L 792.775091 77.075021 
L 788.426727 77.075021 
z
" clip-path="url(#pfa98810763)" style="fill: #696969"/>
   </g>
   <g id="patch_324">
    <path d="M 791.144455 86.579333 
L 795.492818 86.579333 
L 795.492818 86.579333 
L 791.144455 86.579333 
z
" clip-path="url(#pfa98810763)" style="fill: #696969"/>
   </g>
   <g id="patch_325">
    <path d="M 793.862182 86.579333 
L 798.210545 86.579333 
L 798.210545 86.579333 
L 793.862182 86.579333 
z
" clip-path="url(#pfa98810763)" style="fill: #696969"/>
   </g>
   <g id="patch_326">
    <path d="M 796.579909 86.579333 
L 800.928273 86.579333 
L 800.928273 86.579333 
L 796.579909 86.579333 
z
" clip-path="url(#pfa98810763)" style="fill: #696969"/>
   </g>
   <g id="patch_327">
    <path d="M 799.297636 86.579333 
L 803.646 86.579333 
L 803.646 74.853234 
L 799.297636 74.853234 
z
" clip-path="url(#pfa98810763)" style="fill: #696969"/>
   </g>
   <g id="patch_328">
    <path d="M 802.015364 86.579333 
L 806.363727 86.579333 
L 806.363727 86.579333 
L 802.015364 86.579333 
z
" clip-path="url(#pfa98810763)" style="fill: #696969"/>
   </g>
   <g id="patch_329">
    <path d="M 804.733091 86.579333 
L 809.081455 86.579333 
L 809.081455 79.420241 
L 804.733091 79.420241 
z
" clip-path="url(#pfa98810763)" style="fill: #696969"/>
   </g>
   <g id="patch_330">
    <path d="M 807.450818 86.579333 
L 811.799182 86.579333 
L 811.799182 68.928468 
L 807.450818 68.928468 
z
" clip-path="url(#pfa98810763)" style="fill: #696969"/>
   </g>
   <g id="patch_331">
    <path d="M 810.168545 86.579333 
L 814.516909 86.579333 
L 814.516909 84.604411 
L 810.168545 84.604411 
z
" clip-path="url(#pfa98810763)" style="fill: #696969"/>
   </g>
   <g id="patch_332">
    <path d="M 812.886273 86.579333 
L 817.234636 86.579333 
L 817.234636 84.851277 
L 812.886273 84.851277 
z
" clip-path="url(#pfa98810763)" style="fill: #696969"/>
   </g>
   <g id="patch_333">
    <path d="M 815.604 86.579333 
L 819.952364 86.579333 
L 819.952364 85.098142 
L 815.604 85.098142 
z
" clip-path="url(#pfa98810763)" style="fill: #696969"/>
   </g>
   <g id="patch_334">
    <path d="M 818.321727 86.579333 
L 822.670091 86.579333 
L 822.670091 70.162794 
L 818.321727 70.162794 
z
" clip-path="url(#pfa98810763)" style="fill: #696969"/>
   </g>
   <g id="patch_335">
    <path d="M 821.039455 86.579333 
L 825.387818 86.579333 
L 825.387818 69.422199 
L 821.039455 69.422199 
z
" clip-path="url(#pfa98810763)" style="fill: #696969"/>
   </g>
   <g id="patch_336">
    <path d="M 823.757182 86.579333 
L 828.105545 86.579333 
L 828.105545 73.989206 
L 823.757182 73.989206 
z
" clip-path="url(#pfa98810763)" style="fill: #696969"/>
   </g>
   <g id="patch_337">
    <path d="M 826.474909 86.579333 
L 830.823273 86.579333 
L 830.823273 65.595787 
L 826.474909 65.595787 
z
" clip-path="url(#pfa98810763)" style="fill: #696969"/>
   </g>
   <g id="patch_338">
    <path d="M 829.192636 86.579333 
L 833.541 86.579333 
L 833.541 86.579333 
L 829.192636 86.579333 
z
" clip-path="url(#pfa98810763)" style="fill: #696969"/>
   </g>
   <g id="patch_339">
    <path d="M 831.910364 86.579333 
L 836.258727 86.579333 
L 836.258727 65.102057 
L 831.910364 65.102057 
z
" clip-path="url(#pfa98810763)" style="fill: #696969"/>
   </g>
   <g id="patch_340">
    <path d="M 834.628091 86.579333 
L 838.976455 86.579333 
L 838.976455 75.717262 
L 834.628091 75.717262 
z
" clip-path="url(#pfa98810763)" style="fill: #696969"/>
   </g>
   <g id="patch_341">
    <path d="M 837.345818 86.579333 
L 841.694182 86.579333 
L 841.694182 74.976667 
L 837.345818 74.976667 
z
" clip-path="url(#pfa98810763)" style="fill: #696969"/>
   </g>
   <g id="matplotlib.axis_3">
    <g id="xtick_6">
     <g id="line2d_10">
      <g>
       <use xlink:href="#md20a3e7261" x="472.626818" y="89.48" style="stroke: #000000; stroke-width: 0.8"/>
      </g>
     </g>
     <g id="text_10">
      <!-- 100 -->
      <g transform="translate(463.083068 104.078438) scale(0.1 -0.1)">
       <use xlink:href="#DejaVuSans-31"/>
       <use xlink:href="#DejaVuSans-30" x="63.623047"/>
       <use xlink:href="#DejaVuSans-30" x="127.246094"/>
      </g>
     </g>
    </g>
    <g id="xtick_7">
     <g id="line2d_11">
      <g>
       <use xlink:href="#md20a3e7261" x="526.981364" y="89.48" style="stroke: #000000; stroke-width: 0.8"/>
      </g>
     </g>
     <g id="text_11">
      <!-- 110 -->
      <g transform="translate(517.437614 104.078438) scale(0.1 -0.1)">
       <use xlink:href="#DejaVuSans-31"/>
       <use xlink:href="#DejaVuSans-31" x="63.623047"/>
       <use xlink:href="#DejaVuSans-30" x="127.246094"/>
      </g>
     </g>
    </g>
    <g id="xtick_8">
     <g id="line2d_12">
      <g>
       <use xlink:href="#md20a3e7261" x="581.335909" y="89.48" style="stroke: #000000; stroke-width: 0.8"/>
      </g>
     </g>
     <g id="text_12">
      <!-- 120 -->
      <g transform="translate(571.792159 104.078438) scale(0.1 -0.1)">
       <use xlink:href="#DejaVuSans-31"/>
       <use xlink:href="#DejaVuSans-32" x="63.623047"/>
       <use xlink:href="#DejaVuSans-30" x="127.246094"/>
      </g>
     </g>
    </g>
    <g id="xtick_9">
     <g id="line2d_13">
      <g>
       <use xlink:href="#md20a3e7261" x="635.690455" y="89.48" style="stroke: #000000; stroke-width: 0.8"/>
      </g>
     </g>
     <g id="text_13">
      <!-- 130 -->
      <g transform="translate(626.146705 104.078438) scale(0.1 -0.1)">
       <defs>
        <path id="DejaVuSans-33" d="M 2597 2516 
Q 3050 2419 3304 2112 
Q 3559 1806 3559 1356 
Q 3559 666 3084 287 
Q 2609 -91 1734 -91 
Q 1441 -91 1130 -33 
Q 819 25 488 141 
L 488 750 
Q 750 597 1062 519 
Q 1375 441 1716 441 
Q 2309 441 2620 675 
Q 2931 909 2931 1356 
Q 2931 1769 2642 2001 
Q 2353 2234 1838 2234 
L 1294 2234 
L 1294 2753 
L 1863 2753 
Q 2328 2753 2575 2939 
Q 2822 3125 2822 3475 
Q 2822 3834 2567 4026 
Q 2313 4219 1838 4219 
Q 1578 4219 1281 4162 
Q 984 4106 628 3988 
L 628 4550 
Q 988 4650 1302 4700 
Q 1616 4750 1894 4750 
Q 2613 4750 3031 4423 
Q 3450 4097 3450 3541 
Q 3450 3153 3228 2886 
Q 3006 2619 2597 2516 
z
" transform="scale(0.015625)"/>
       </defs>
       <use xlink:href="#DejaVuSans-31"/>
       <use xlink:href="#DejaVuSans-33" x="63.623047"/>
       <use xlink:href="#DejaVuSans-30" x="127.246094"/>
      </g>
     </g>
    </g>
    <g id="xtick_10">
     <g id="line2d_14">
      <g>
       <use xlink:href="#md20a3e7261" x="690.045" y="89.48" style="stroke: #000000; stroke-width: 0.8"/>
      </g>
     </g>
     <g id="text_14">
      <!-- 140 -->
      <g transform="translate(680.50125 104.078438) scale(0.1 -0.1)">
       <use xlink:href="#DejaVuSans-31"/>
       <use xlink:href="#DejaVuSans-34" x="63.623047"/>
       <use xlink:href="#DejaVuSans-30" x="127.246094"/>
      </g>
     </g>
    </g>
    <g id="xtick_11">
     <g id="line2d_15">
      <g>
       <use xlink:href="#md20a3e7261" x="744.399545" y="89.48" style="stroke: #000000; stroke-width: 0.8"/>
      </g>
     </g>
     <g id="text_15">
      <!-- 150 -->
      <g transform="translate(734.855795 104.078438) scale(0.1 -0.1)">
       <use xlink:href="#DejaVuSans-31"/>
       <use xlink:href="#DejaVuSans-35" x="63.623047"/>
       <use xlink:href="#DejaVuSans-30" x="127.246094"/>
      </g>
     </g>
    </g>
    <g id="xtick_12">
     <g id="line2d_16">
      <g>
       <use xlink:href="#md20a3e7261" x="798.754091" y="89.48" style="stroke: #000000; stroke-width: 0.8"/>
      </g>
     </g>
     <g id="text_16">
      <!-- 160 -->
      <g transform="translate(789.210341 104.078438) scale(0.1 -0.1)">
       <use xlink:href="#DejaVuSans-31"/>
       <use xlink:href="#DejaVuSans-36" x="63.623047"/>
       <use xlink:href="#DejaVuSans-30" x="127.246094"/>
      </g>
     </g>
    </g>
   </g>
   <g id="matplotlib.axis_4">
    <g id="ytick_3">
     <g id="line2d_17">
      <g>
       <use xlink:href="#ma441d4fe73" x="450.885" y="86.579333" style="stroke: #000000; stroke-width: 0.8"/>
      </g>
     </g>
    </g>
    <g id="ytick_4">
     <g id="line2d_18">
      <g>
       <use xlink:href="#ma441d4fe73" x="450.885" y="55.721177" style="stroke: #000000; stroke-width: 0.8"/>
      </g>
     </g>
    </g>
   </g>
   <g id="line2d_19">
    <path d="M 450.885 72.966064 
L 456.320455 73.328256 
L 461.755909 74.037758 
L 467.191364 75.046971 
L 472.626818 76.288188 
L 483.497727 79.123574 
L 491.650909 81.184221 
L 497.086364 82.351949 
L 502.521818 83.261604 
L 507.957273 83.85216 
L 513.392727 84.083998 
L 518.828182 83.941565 
L 524.263636 83.434415 
L 529.699091 82.596573 
L 535.134545 81.484247 
L 543.287727 79.468165 
L 556.876364 75.94777 
L 562.311818 74.759369 
L 567.747273 73.822267 
L 573.182727 73.199332 
L 578.618182 72.932357 
L 584.053636 73.039251 
L 589.489091 73.512843 
L 594.924545 74.321362 
L 600.36 75.410565 
L 608.513182 77.406842 
L 622.101818 80.939407 
L 627.537273 82.147758 
L 632.972727 83.111736 
L 638.408182 83.766669 
L 643.843636 84.06862 
L 649.279091 83.99733 
L 654.714545 83.557583 
L 660.15 82.778881 
L 665.585455 81.713464 
L 671.020909 80.43281 
L 692.762727 74.968058 
L 698.198182 73.977791 
L 703.633636 73.291257 
L 709.069091 72.954516 
L 714.504545 72.990157 
L 719.94 73.395791 
L 725.375455 74.144203 
L 730.810909 75.185185 
L 736.246364 76.448899 
L 757.988182 81.934698 
L 763.423636 82.950651 
L 768.859091 83.668366 
L 774.294545 84.039694 
L 779.73 84.039722 
L 785.165455 83.668449 
L 790.600909 82.950783 
L 796.036364 81.934869 
L 801.471818 80.688865 
L 812.342727 77.85078 
L 820.495909 75.794402 
L 825.931364 74.632234 
L 831.366818 73.729894 
L 836.802273 73.147919 
L 839.52 72.990191 
L 839.52 72.990191 
" clip-path="url(#pfa98810763)" style="fill: none; stroke: #191970; stroke-width: 3; stroke-linecap: square"/>
   </g>
   <g id="line2d_20">
    <path d="M 53.852631 89.48 
L 53.852631 54.672 
" clip-path="url(#pfa98810763)" style="fill: none; stroke-dasharray: 7.4,3.2; stroke-dashoffset: 0; stroke: #000000; stroke-opacity: 0.8; stroke-width: 2"/>
   </g>
   <g id="patch_342">
    <path d="M 450.885 89.48 
L 450.885 54.672 
" style="fill: none; stroke: #000000; stroke-width: 0.8; stroke-linejoin: miter; stroke-linecap: square"/>
   </g>
   <g id="patch_343">
    <path d="M 450.885 89.48 
L 839.52 89.48 
" style="fill: none; stroke: #000000; stroke-width: 0.8; stroke-linejoin: miter; stroke-linecap: square"/>
   </g>
   <g id="text_17">
    <!-- 2 -->
    <g transform="translate(642.6575 39.71375) scale(0.08 -0.08)">
     <use xlink:href="#DejaVuSans-32"/>
    </g>
    <!-- (AC: 22.96, PR: 24.19 - NS) -->
    <g transform="translate(591.355625 48.672) scale(0.08 -0.08)">
     <defs>
      <path id="DejaVuSans-2d" d="M 313 2009 
L 1997 2009 
L 1997 1497 
L 313 1497 
L 313 2009 
z
" transform="scale(0.015625)"/>
      <path id="DejaVuSans-4e" d="M 628 4666 
L 1478 4666 
L 3547 763 
L 3547 4666 
L 4159 4666 
L 4159 0 
L 3309 0 
L 1241 3903 
L 1241 0 
L 628 0 
L 628 4666 
z
" transform="scale(0.015625)"/>
      <path id="DejaVuSans-53" d="M 3425 4513 
L 3425 3897 
Q 3066 4069 2747 4153 
Q 2428 4238 2131 4238 
Q 1616 4238 1336 4038 
Q 1056 3838 1056 3469 
Q 1056 3159 1242 3001 
Q 1428 2844 1947 2747 
L 2328 2669 
Q 3034 2534 3370 2195 
Q 3706 1856 3706 1288 
Q 3706 609 3251 259 
Q 2797 -91 1919 -91 
Q 1588 -91 1214 -16 
Q 841 59 441 206 
L 441 856 
Q 825 641 1194 531 
Q 1563 422 1919 422 
Q 2459 422 2753 634 
Q 3047 847 3047 1241 
Q 3047 1584 2836 1778 
Q 2625 1972 2144 2069 
L 1759 2144 
Q 1053 2284 737 2584 
Q 422 2884 422 3419 
Q 422 4038 858 4394 
Q 1294 4750 2059 4750 
Q 2388 4750 2728 4690 
Q 3069 4631 3425 4513 
z
" transform="scale(0.015625)"/>
     </defs>
     <use xlink:href="#DejaVuSans-28"/>
     <use xlink:href="#DejaVuSans-41" x="39.013672"/>
     <use xlink:href="#DejaVuSans-43" x="105.671875"/>
     <use xlink:href="#DejaVuSans-3a" x="175.496094"/>
     <use xlink:href="#DejaVuSans-20" x="209.1875"/>
     <use xlink:href="#DejaVuSans-32" x="240.974609"/>
     <use xlink:href="#DejaVuSans-32" x="304.597656"/>
     <use xlink:href="#DejaVuSans-2e" x="368.220703"/>
     <use xlink:href="#DejaVuSans-39" x="400.007812"/>
     <use xlink:href="#DejaVuSans-36" x="463.630859"/>
     <use xlink:href="#DejaVuSans-2c" x="527.253906"/>
     <use xlink:href="#DejaVuSans-20" x="559.041016"/>
     <use xlink:href="#DejaVuSans-50" x="590.828125"/>
     <use xlink:href="#DejaVuSans-52" x="651.130859"/>
     <use xlink:href="#DejaVuSans-3a" x="717.488281"/>
     <use xlink:href="#DejaVuSans-20" x="751.179688"/>
     <use xlink:href="#DejaVuSans-32" x="782.966797"/>
     <use xlink:href="#DejaVuSans-34" x="846.589844"/>
     <use xlink:href="#DejaVuSans-2e" x="910.212891"/>
     <use xlink:href="#DejaVuSans-31" x="942"/>
     <use xlink:href="#DejaVuSans-39" x="1005.623047"/>
     <use xlink:href="#DejaVuSans-20" x="1069.246094"/>
     <use xlink:href="#DejaVuSans-2d" x="1101.033203"/>
     <use xlink:href="#DejaVuSans-20" x="1137.117188"/>
     <use xlink:href="#DejaVuSans-4e" x="1168.904297"/>
     <use xlink:href="#DejaVuSans-53" x="1243.708984"/>
     <use xlink:href="#DejaVuSans-29" x="1307.185547"/>
    </g>
   </g>
  </g>
  <g id="text_18">
   <!-- COSINOR MODEL - 0 SINE 0.5 -->
   <g transform="translate(336.715313 11.940525) scale(0.12 -0.12)">
    <defs>
     <path id="DejaVuSans-4f" d="M 2522 4238 
Q 1834 4238 1429 3725 
Q 1025 3213 1025 2328 
Q 1025 1447 1429 934 
Q 1834 422 2522 422 
Q 3209 422 3611 934 
Q 4013 1447 4013 2328 
Q 4013 3213 3611 3725 
Q 3209 4238 2522 4238 
z
M 2522 4750 
Q 3503 4750 4090 4092 
Q 4678 3434 4678 2328 
Q 4678 1225 4090 567 
Q 3503 -91 2522 -91 
Q 1538 -91 948 565 
Q 359 1222 359 2328 
Q 359 3434 948 4092 
Q 1538 4750 2522 4750 
z
" transform="scale(0.015625)"/>
     <path id="DejaVuSans-49" d="M 628 4666 
L 1259 4666 
L 1259 0 
L 628 0 
L 628 4666 
z
" transform="scale(0.015625)"/>
     <path id="DejaVuSans-4d" d="M 628 4666 
L 1569 4666 
L 2759 1491 
L 3956 4666 
L 4897 4666 
L 4897 0 
L 4281 0 
L 4281 4097 
L 3078 897 
L 2444 897 
L 1241 4097 
L 1241 0 
L 628 0 
L 628 4666 
z
" transform="scale(0.015625)"/>
     <path id="DejaVuSans-44" d="M 1259 4147 
L 1259 519 
L 2022 519 
Q 2988 519 3436 956 
Q 3884 1394 3884 2338 
Q 3884 3275 3436 3711 
Q 2988 4147 2022 4147 
L 1259 4147 
z
M 628 4666 
L 1925 4666 
Q 3281 4666 3915 4102 
Q 4550 3538 4550 2338 
Q 4550 1131 3912 565 
Q 3275 0 1925 0 
L 628 0 
L 628 4666 
z
" transform="scale(0.015625)"/>
     <path id="DejaVuSans-45" d="M 628 4666 
L 3578 4666 
L 3578 4134 
L 1259 4134 
L 1259 2753 
L 3481 2753 
L 3481 2222 
L 1259 2222 
L 1259 531 
L 3634 531 
L 3634 0 
L 628 0 
L 628 4666 
z
" transform="scale(0.015625)"/>
     <path id="DejaVuSans-4c" d="M 628 4666 
L 1259 4666 
L 1259 531 
L 3531 531 
L 3531 0 
L 628 0 
L 628 4666 
z
" transform="scale(0.015625)"/>
    </defs>
    <use xlink:href="#DejaVuSans-43"/>
    <use xlink:href="#DejaVuSans-4f" x="69.824219"/>
    <use xlink:href="#DejaVuSans-53" x="148.535156"/>
    <use xlink:href="#DejaVuSans-49" x="212.011719"/>
    <use xlink:href="#DejaVuSans-4e" x="241.503906"/>
    <use xlink:href="#DejaVuSans-4f" x="316.308594"/>
    <use xlink:href="#DejaVuSans-52" x="395.019531"/>
    <use xlink:href="#DejaVuSans-20" x="464.501953"/>
    <use xlink:href="#DejaVuSans-4d" x="496.289062"/>
    <use xlink:href="#DejaVuSans-4f" x="582.568359"/>
    <use xlink:href="#DejaVuSans-44" x="661.279297"/>
    <use xlink:href="#DejaVuSans-45" x="738.28125"/>
    <use xlink:href="#DejaVuSans-4c" x="801.464844"/>
    <use xlink:href="#DejaVuSans-20" x="857.177734"/>
    <use xlink:href="#DejaVuSans-2d" x="888.964844"/>
    <use xlink:href="#DejaVuSans-20" x="925.048828"/>
    <use xlink:href="#DejaVuSans-30" x="956.835938"/>
    <use xlink:href="#DejaVuSans-20" x="1020.458984"/>
    <use xlink:href="#DejaVuSans-53" x="1052.246094"/>
    <use xlink:href="#DejaVuSans-49" x="1115.722656"/>
    <use xlink:href="#DejaVuSans-4e" x="1145.214844"/>
    <use xlink:href="#DejaVuSans-45" x="1220.019531"/>
    <use xlink:href="#DejaVuSans-20" x="1283.203125"/>
    <use xlink:href="#DejaVuSans-30" x="1314.990234"/>
    <use xlink:href="#DejaVuSans-2e" x="1378.613281"/>
    <use xlink:href="#DejaVuSans-35" x="1410.400391"/>
   </g>
  </g>
  <g id="text_19">
   <!-- TIME (HOURS FROM START OF PROTOCOL) -->
   <g transform="translate(297.576563 137.213175) scale(0.12 -0.12)">
    <defs>
     <path id="DejaVuSans-54" d="M -19 4666 
L 3928 4666 
L 3928 4134 
L 2272 4134 
L 2272 0 
L 1638 0 
L 1638 4134 
L -19 4134 
L -19 4666 
z
" transform="scale(0.015625)"/>
     <path id="DejaVuSans-48" d="M 628 4666 
L 1259 4666 
L 1259 2753 
L 3553 2753 
L 3553 4666 
L 4184 4666 
L 4184 0 
L 3553 0 
L 3553 2222 
L 1259 2222 
L 1259 0 
L 628 0 
L 628 4666 
z
" transform="scale(0.015625)"/>
     <path id="DejaVuSans-55" d="M 556 4666 
L 1191 4666 
L 1191 1831 
Q 1191 1081 1462 751 
Q 1734 422 2344 422 
Q 2950 422 3222 751 
Q 3494 1081 3494 1831 
L 3494 4666 
L 4128 4666 
L 4128 1753 
Q 4128 841 3676 375 
Q 3225 -91 2344 -91 
Q 1459 -91 1007 375 
Q 556 841 556 1753 
L 556 4666 
z
" transform="scale(0.015625)"/>
     <path id="DejaVuSans-46" d="M 628 4666 
L 3309 4666 
L 3309 4134 
L 1259 4134 
L 1259 2759 
L 3109 2759 
L 3109 2228 
L 1259 2228 
L 1259 0 
L 628 0 
L 628 4666 
z
" transform="scale(0.015625)"/>
    </defs>
    <use xlink:href="#DejaVuSans-54"/>
    <use xlink:href="#DejaVuSans-49" x="61.083984"/>
    <use xlink:href="#DejaVuSans-4d" x="90.576172"/>
    <use xlink:href="#DejaVuSans-45" x="176.855469"/>
    <use xlink:href="#DejaVuSans-20" x="240.039062"/>
    <use xlink:href="#DejaVuSans-28" x="271.826172"/>
    <use xlink:href="#DejaVuSans-48" x="310.839844"/>
    <use xlink:href="#DejaVuSans-4f" x="386.035156"/>
    <use xlink:href="#DejaVuSans-55" x="464.746094"/>
    <use xlink:href="#DejaVuSans-52" x="537.939453"/>
    <use xlink:href="#DejaVuSans-53" x="607.421875"/>
    <use xlink:href="#DejaVuSans-20" x="670.898438"/>
    <use xlink:href="#DejaVuSans-46" x="702.685547"/>
    <use xlink:href="#DejaVuSans-52" x="760.205078"/>
    <use xlink:href="#DejaVuSans-4f" x="829.6875"/>
    <use xlink:href="#DejaVuSans-4d" x="908.398438"/>
    <use xlink:href="#DejaVuSans-20" x="994.677734"/>
    <use xlink:href="#DejaVuSans-53" x="1026.464844"/>
    <use xlink:href="#DejaVuSans-54" x="1089.941406"/>
    <use xlink:href="#DejaVuSans-41" x="1143.275391"/>
    <use xlink:href="#DejaVuSans-52" x="1211.683594"/>
    <use xlink:href="#DejaVuSans-54" x="1273.916016"/>
    <use xlink:href="#DejaVuSans-20" x="1335"/>
    <use xlink:href="#DejaVuSans-4f" x="1366.787109"/>
    <use xlink:href="#DejaVuSans-46" x="1445.498047"/>
    <use xlink:href="#DejaVuSans-20" x="1503.017578"/>
    <use xlink:href="#DejaVuSans-50" x="1534.804688"/>
    <use xlink:href="#DejaVuSans-52" x="1595.107422"/>
    <use xlink:href="#DejaVuSans-4f" x="1664.589844"/>
    <use xlink:href="#DejaVuSans-54" x="1743.300781"/>
    <use xlink:href="#DejaVuSans-4f" x="1804.384766"/>
    <use xlink:href="#DejaVuSans-43" x="1883.095703"/>
    <use xlink:href="#DejaVuSans-4f" x="1952.919922"/>
    <use xlink:href="#DejaVuSans-4c" x="2031.630859"/>
    <use xlink:href="#DejaVuSans-29" x="2087.34375"/>
   </g>
  </g>
  <g id="text_20">
   <!-- AMPLITUDE -->
   <g transform="translate(26.124525 105.039375) rotate(-90) scale(0.12 -0.12)">
    <use xlink:href="#DejaVuSans-41"/>
    <use xlink:href="#DejaVuSans-4d" x="68.408203"/>
    <use xlink:href="#DejaVuSans-50" x="154.6875"/>
    <use xlink:href="#DejaVuSans-4c" x="214.990234"/>
    <use xlink:href="#DejaVuSans-49" x="270.703125"/>
    <use xlink:href="#DejaVuSans-54" x="300.195312"/>
    <use xlink:href="#DejaVuSans-55" x="361.279297"/>
    <use xlink:href="#DejaVuSans-44" x="434.472656"/>
    <use xlink:href="#DejaVuSans-45" x="511.474609"/>
   </g>
  </g>
 </g>
 <defs>
  <clipPath id="p02b9f27169">
   <rect x="47.95" y="54.672" width="388.635" height="34.808"/>
  </clipPath>
  <clipPath id="pfa98810763">
   <rect x="450.885" y="54.672" width="388.635" height="34.808"/>
  </clipPath>
 </defs>
</svg>
