<?xml version="1.0" encoding="utf-8" standalone="no"?>
<!DOCTYPE svg PUBLIC "-//W3C//DTD SVG 1.1//EN"
  "http://www.w3.org/Graphics/SVG/1.1/DTD/svg11.dtd">
<svg xmlns:xlink="http://www.w3.org/1999/xlink" width="504pt" height="504pt" viewBox="0 0 504 504" xmlns="http://www.w3.org/2000/svg" version="1.1">
 <metadata>
  <rdf:RDF xmlns:dc="http://purl.org/dc/elements/1.1/" xmlns:cc="http://creativecommons.org/ns#" xmlns:rdf="http://www.w3.org/1999/02/22-rdf-syntax-ns#">
   <cc:Work>
    <dc:type rdf:resource="http://purl.org/dc/dcmitype/StillImage"/>
    <dc:date>2023-11-27T20:46:27.117522</dc:date>
    <dc:format>image/svg+xml</dc:format>
    <dc:creator>
     <cc:Agent>
      <dc:title>Matplotlib v3.7.4, https://matplotlib.org/</dc:title>
     </cc:Agent>
    </dc:creator>
   </cc:Work>
  </rdf:RDF>
 </metadata>
 <defs>
  <style type="text/css">*{stroke-linejoin: round; stroke-linecap: butt}</style>
 </defs>
 <g id="figure_1">
  <g id="patch_1">
   <path d="M 0 504 
L 504 504 
L 504 0 
L 0 0 
z
" style="fill: #ffffff"/>
  </g>
  <g id="axes_1">
   <g id="patch_2">
    <path d="M 75.454 444.44 
L 277.177 444.44 
L 277.177 79.56 
L 75.454 79.56 
z
" style="fill: #ffffff"/>
   </g>
   <g id="matplotlib.axis_1">
    <g id="xtick_1">
     <g id="line2d_1">
      <defs>
       <path id="m832432c293" d="M 0 0 
L 0 3.5 
" style="stroke: #000000; stroke-width: 0.8"/>
      </defs>
      <g>
       <use xlink:href="#m832432c293" x="80.721428" y="444.44" style="stroke: #000000; stroke-width: 0.8"/>
      </g>
     </g>
     <g id="text_1">
      <!-- 0 -->
      <g transform="translate(76.267678 462.077812) scale(0.14 -0.14)">
       <defs>
        <path id="DejaVuSans-30" d="M 2034 4250 
Q 1547 4250 1301 3770 
Q 1056 3291 1056 2328 
Q 1056 1369 1301 889 
Q 1547 409 2034 409 
Q 2525 409 2770 889 
Q 3016 1369 3016 2328 
Q 3016 3291 2770 3770 
Q 2525 4250 2034 4250 
z
M 2034 4750 
Q 2819 4750 3233 4129 
Q 3647 3509 3647 2328 
Q 3647 1150 3233 529 
Q 2819 -91 2034 -91 
Q 1250 -91 836 529 
Q 422 1150 422 2328 
Q 422 3509 836 4129 
Q 1250 4750 2034 4750 
z
" transform="scale(0.015625)"/>
       </defs>
       <use xlink:href="#DejaVuSans-30"/>
      </g>
     </g>
    </g>
    <g id="xtick_2">
     <g id="line2d_2">
      <g>
       <use xlink:href="#m832432c293" x="158.757405" y="444.44" style="stroke: #000000; stroke-width: 0.8"/>
      </g>
     </g>
     <g id="text_2">
      <!-- 20 -->
      <g transform="translate(149.849905 462.077812) scale(0.14 -0.14)">
       <defs>
        <path id="DejaVuSans-32" d="M 1228 531 
L 3431 531 
L 3431 0 
L 469 0 
L 469 531 
Q 828 903 1448 1529 
Q 2069 2156 2228 2338 
Q 2531 2678 2651 2914 
Q 2772 3150 2772 3378 
Q 2772 3750 2511 3984 
Q 2250 4219 1831 4219 
Q 1534 4219 1204 4116 
Q 875 4013 500 3803 
L 500 4441 
Q 881 4594 1212 4672 
Q 1544 4750 1819 4750 
Q 2544 4750 2975 4387 
Q 3406 4025 3406 3419 
Q 3406 3131 3298 2873 
Q 3191 2616 2906 2266 
Q 2828 2175 2409 1742 
Q 1991 1309 1228 531 
z
" transform="scale(0.015625)"/>
       </defs>
       <use xlink:href="#DejaVuSans-32"/>
       <use xlink:href="#DejaVuSans-30" x="63.623047"/>
      </g>
     </g>
    </g>
    <g id="xtick_3">
     <g id="line2d_3">
      <g>
       <use xlink:href="#m832432c293" x="236.793382" y="444.44" style="stroke: #000000; stroke-width: 0.8"/>
      </g>
     </g>
     <g id="text_3">
      <!-- 40 -->
      <g transform="translate(227.885882 462.077812) scale(0.14 -0.14)">
       <defs>
        <path id="DejaVuSans-34" d="M 2419 4116 
L 825 1625 
L 2419 1625 
L 2419 4116 
z
M 2253 4666 
L 3047 4666 
L 3047 1625 
L 3713 1625 
L 3713 1100 
L 3047 1100 
L 3047 0 
L 2419 0 
L 2419 1100 
L 313 1100 
L 313 1709 
L 2253 4666 
z
" transform="scale(0.015625)"/>
       </defs>
       <use xlink:href="#DejaVuSans-34"/>
       <use xlink:href="#DejaVuSans-30" x="63.623047"/>
      </g>
     </g>
    </g>
   </g>
   <g id="matplotlib.axis_2">
    <g id="ytick_1">
     <g id="line2d_4">
      <defs>
       <path id="md7b5e7f969" d="M 0 0 
L -3.5 0 
" style="stroke: #000000; stroke-width: 0.8"/>
      </defs>
      <g>
       <use xlink:href="#md7b5e7f969" x="75.454" y="427.872997" style="stroke: #000000; stroke-width: 0.8"/>
      </g>
     </g>
     <g id="text_4">
      <!-- 0.0 -->
      <g transform="translate(46.189625 433.191903) scale(0.14 -0.14)">
       <defs>
        <path id="DejaVuSans-2e" d="M 684 794 
L 1344 794 
L 1344 0 
L 684 0 
L 684 794 
z
" transform="scale(0.015625)"/>
       </defs>
       <use xlink:href="#DejaVuSans-30"/>
       <use xlink:href="#DejaVuSans-2e" x="63.623047"/>
       <use xlink:href="#DejaVuSans-30" x="95.410156"/>
      </g>
     </g>
    </g>
    <g id="ytick_2">
     <g id="line2d_5">
      <g>
       <use xlink:href="#md7b5e7f969" x="75.454" y="362.833507" style="stroke: #000000; stroke-width: 0.8"/>
      </g>
     </g>
     <g id="text_5">
      <!-- 0.2 -->
      <g transform="translate(46.189625 368.152413) scale(0.14 -0.14)">
       <use xlink:href="#DejaVuSans-30"/>
       <use xlink:href="#DejaVuSans-2e" x="63.623047"/>
       <use xlink:href="#DejaVuSans-32" x="95.410156"/>
      </g>
     </g>
    </g>
    <g id="ytick_3">
     <g id="line2d_6">
      <g>
       <use xlink:href="#md7b5e7f969" x="75.454" y="297.794017" style="stroke: #000000; stroke-width: 0.8"/>
      </g>
     </g>
     <g id="text_6">
      <!-- 0.4 -->
      <g transform="translate(46.189625 303.112923) scale(0.14 -0.14)">
       <use xlink:href="#DejaVuSans-30"/>
       <use xlink:href="#DejaVuSans-2e" x="63.623047"/>
       <use xlink:href="#DejaVuSans-34" x="95.410156"/>
      </g>
     </g>
    </g>
    <g id="ytick_4">
     <g id="line2d_7">
      <g>
       <use xlink:href="#md7b5e7f969" x="75.454" y="232.754527" style="stroke: #000000; stroke-width: 0.8"/>
      </g>
     </g>
     <g id="text_7">
      <!-- 0.6 -->
      <g transform="translate(46.189625 238.073433) scale(0.14 -0.14)">
       <defs>
        <path id="DejaVuSans-36" d="M 2113 2584 
Q 1688 2584 1439 2293 
Q 1191 2003 1191 1497 
Q 1191 994 1439 701 
Q 1688 409 2113 409 
Q 2538 409 2786 701 
Q 3034 994 3034 1497 
Q 3034 2003 2786 2293 
Q 2538 2584 2113 2584 
z
M 3366 4563 
L 3366 3988 
Q 3128 4100 2886 4159 
Q 2644 4219 2406 4219 
Q 1781 4219 1451 3797 
Q 1122 3375 1075 2522 
Q 1259 2794 1537 2939 
Q 1816 3084 2150 3084 
Q 2853 3084 3261 2657 
Q 3669 2231 3669 1497 
Q 3669 778 3244 343 
Q 2819 -91 2113 -91 
Q 1303 -91 875 529 
Q 447 1150 447 2328 
Q 447 3434 972 4092 
Q 1497 4750 2381 4750 
Q 2619 4750 2861 4703 
Q 3103 4656 3366 4563 
z
" transform="scale(0.015625)"/>
       </defs>
       <use xlink:href="#DejaVuSans-30"/>
       <use xlink:href="#DejaVuSans-2e" x="63.623047"/>
       <use xlink:href="#DejaVuSans-36" x="95.410156"/>
      </g>
     </g>
    </g>
    <g id="ytick_5">
     <g id="line2d_8">
      <g>
       <use xlink:href="#md7b5e7f969" x="75.454" y="167.715036" style="stroke: #000000; stroke-width: 0.8"/>
      </g>
     </g>
     <g id="text_8">
      <!-- 0.8 -->
      <g transform="translate(46.189625 173.033943) scale(0.14 -0.14)">
       <defs>
        <path id="DejaVuSans-38" d="M 2034 2216 
Q 1584 2216 1326 1975 
Q 1069 1734 1069 1313 
Q 1069 891 1326 650 
Q 1584 409 2034 409 
Q 2484 409 2743 651 
Q 3003 894 3003 1313 
Q 3003 1734 2745 1975 
Q 2488 2216 2034 2216 
z
M 1403 2484 
Q 997 2584 770 2862 
Q 544 3141 544 3541 
Q 544 4100 942 4425 
Q 1341 4750 2034 4750 
Q 2731 4750 3128 4425 
Q 3525 4100 3525 3541 
Q 3525 3141 3298 2862 
Q 3072 2584 2669 2484 
Q 3125 2378 3379 2068 
Q 3634 1759 3634 1313 
Q 3634 634 3220 271 
Q 2806 -91 2034 -91 
Q 1263 -91 848 271 
Q 434 634 434 1313 
Q 434 1759 690 2068 
Q 947 2378 1403 2484 
z
M 1172 3481 
Q 1172 3119 1398 2916 
Q 1625 2713 2034 2713 
Q 2441 2713 2670 2916 
Q 2900 3119 2900 3481 
Q 2900 3844 2670 4047 
Q 2441 4250 2034 4250 
Q 1625 4250 1398 4047 
Q 1172 3844 1172 3481 
z
" transform="scale(0.015625)"/>
       </defs>
       <use xlink:href="#DejaVuSans-30"/>
       <use xlink:href="#DejaVuSans-2e" x="63.623047"/>
       <use xlink:href="#DejaVuSans-38" x="95.410156"/>
      </g>
     </g>
    </g>
    <g id="ytick_6">
     <g id="line2d_9">
      <g>
       <use xlink:href="#md7b5e7f969" x="75.454" y="102.675546" style="stroke: #000000; stroke-width: 0.8"/>
      </g>
     </g>
     <g id="text_9">
      <!-- 1.0 -->
      <g transform="translate(46.189625 107.994452) scale(0.14 -0.14)">
       <defs>
        <path id="DejaVuSans-31" d="M 794 531 
L 1825 531 
L 1825 4091 
L 703 3866 
L 703 4441 
L 1819 4666 
L 2450 4666 
L 2450 531 
L 3481 531 
L 3481 0 
L 794 0 
L 794 531 
z
" transform="scale(0.015625)"/>
       </defs>
       <use xlink:href="#DejaVuSans-31"/>
       <use xlink:href="#DejaVuSans-2e" x="63.623047"/>
       <use xlink:href="#DejaVuSans-30" x="95.410156"/>
      </g>
     </g>
    </g>
    <g id="text_10">
     <!-- 1e5 -->
     <g transform="translate(75.454 76.56) scale(0.1 -0.1)">
      <defs>
       <path id="DejaVuSans-65" d="M 3597 1894 
L 3597 1613 
L 953 1613 
Q 991 1019 1311 708 
Q 1631 397 2203 397 
Q 2534 397 2845 478 
Q 3156 559 3463 722 
L 3463 178 
Q 3153 47 2828 -22 
Q 2503 -91 2169 -91 
Q 1331 -91 842 396 
Q 353 884 353 1716 
Q 353 2575 817 3079 
Q 1281 3584 2069 3584 
Q 2775 3584 3186 3129 
Q 3597 2675 3597 1894 
z
M 3022 2063 
Q 3016 2534 2758 2815 
Q 2500 3097 2075 3097 
Q 1594 3097 1305 2825 
Q 1016 2553 972 2059 
L 3022 2063 
z
" transform="scale(0.015625)"/>
       <path id="DejaVuSans-35" d="M 691 4666 
L 3169 4666 
L 3169 4134 
L 1269 4134 
L 1269 2991 
Q 1406 3038 1543 3061 
Q 1681 3084 1819 3084 
Q 2600 3084 3056 2656 
Q 3513 2228 3513 1497 
Q 3513 744 3044 326 
Q 2575 -91 1722 -91 
Q 1428 -91 1123 -41 
Q 819 9 494 109 
L 494 744 
Q 775 591 1075 516 
Q 1375 441 1709 441 
Q 2250 441 2565 725 
Q 2881 1009 2881 1497 
Q 2881 1984 2565 2268 
Q 2250 2553 1709 2553 
Q 1456 2553 1204 2497 
Q 953 2441 691 2322 
L 691 4666 
z
" transform="scale(0.015625)"/>
      </defs>
      <use xlink:href="#DejaVuSans-31"/>
      <use xlink:href="#DejaVuSans-65" x="63.623047"/>
      <use xlink:href="#DejaVuSans-35" x="125.146484"/>
     </g>
    </g>
   </g>
   <g id="line2d_10">
    <path d="M 84.623227 384.668859 
L 249.279138 384.668859 
" clip-path="url(#p1483a12f11)" style="fill: none; stroke-dasharray: 7.4,3.2; stroke-dashoffset: 0; stroke: #696969; stroke-width: 2"/>
   </g>
   <g id="line2d_11">
    <path d="M 249.279138 424.642234 
L 221.186187 427.854545 
L 201.119793 425.480804 
L 186.069997 397.057462 
L 174.364601 96.145455 
L 165.000283 291.027762 
L 157.338569 426.742633 
L 150.953808 424.241119 
L 145.551317 419.435819 
L 140.920611 417.394073 
L 136.907332 424.815523 
L 133.395713 427.620011 
L 130.297225 427.75415 
L 127.543015 421.828185 
L 125.078721 424.169335 
L 122.860856 415.654313 
L 120.854216 421.259441 
L 119.029999 414.997667 
L 117.364409 407.698563 
L 115.837618 425.807559 
L 114.43297 427.624826 
L 113.136373 427.826791 
L 111.935819 427.823927 
L 110.821019 426.187007 
L 109.783103 425.172122 
L 108.81438 427.347029 
L 107.908156 421.393823 
L 107.058571 403.774748 
L 106.260475 405.050894 
L 105.509327 423.391021 
L 104.801101 422.176603 
L 104.132221 425.062236 
L 103.499497 423.934265 
L 102.900074 407.457009 
L 102.331391 417.212043 
L 101.791142 424.171251 
L 101.277247 426.026945 
L 100.787822 415.016086 
L 100.321162 425.466261 
L 99.875714 414.88001 
L 99.450063 419.585246 
L 99.042919 421.688844 
L 98.6531 412.106553 
L 98.279523 410.530898 
L 97.921195 425.870392 
L 97.577199 421.034013 
L 97.246694 419.857223 
L 96.928901 424.362445 
L 96.623099 424.79297 
L 96.328624 413.770768 
L 96.044857 410.209381 
L 95.771224 417.119349 
L 95.507192 396.316121 
L 95.252265 397.907319 
L 95.00598 395.479606 
L 94.537634 427.366161 
L 94.314792 422.726398 
L 94.099024 425.760085 
L 93.89 426.027163 
L 93.687406 415.703942 
L 93.490952 417.886757 
L 93.300362 426.9008 
L 92.935755 419.9839 
L 92.761265 427.729094 
L 92.426825 426.219347 
L 92.266477 422.294289 
L 92.110463 412.459631 
L 91.810751 425.533972 
L 91.666734 427.444689 
L 91.389638 425.565795 
L 91.126225 417.803469 
L 90.999338 424.986113 
L 90.875507 419.62702 
L 90.754625 407.073136 
L 90.636588 411.181903 
L 90.408653 422.528816 
L 90.298571 422.820634 
L 90.190963 427.203571 
L 89.982841 420.233042 
L 89.783671 426.148284 
L 89.592887 407.257263 
L 89.40997 417.375159 
L 89.321312 427.544941 
L 89.234444 425.557478 
L 89.149314 427.715406 
L 89.06587 427.219844 
L 88.984061 426.824545 
L 88.903842 427.729232 
L 88.747986 416.759805 
L 88.672264 423.595176 
L 88.597957 422.649111 
L 88.525026 424.873013 
L 88.453433 422.467337 
L 88.314118 409.850937 
L 88.246326 422.161313 
L 88.179734 411.657659 
L 88.11431 415.289865 
L 88.050025 425.054492 
L 87.986847 419.733755 
L 87.863704 426.939357 
L 87.803685 425.780629 
L 87.744666 421.469306 
L 87.686623 421.60232 
L 87.629531 427.224536 
L 87.573368 424.03029 
L 87.51811 424.091942 
L 87.410226 417.264067 
L 87.357559 426.632123 
L 87.305714 412.748549 
L 87.254673 421.438513 
L 87.204417 426.293316 
L 87.154929 420.9031 
L 87.10619 418.836458 
L 87.010895 427.840537 
L 86.964307 424.142187 
L 86.918403 423.811428 
L 86.87317 419.927541 
L 86.828592 422.221936 
L 86.784655 423.615031 
L 86.698652 412.019758 
L 86.656559 427.7009 
L 86.615055 417.222908 
L 86.574127 415.788248 
L 86.533763 427.797961 
L 86.454684 423.475062 
L 86.415946 427.708027 
L 86.377727 424.759265 
L 86.340019 414.907265 
L 86.30281 418.438578 
L 86.26609 427.488329 
L 86.194081 426.906809 
L 86.055533 395.248201 
L 86.021985 415.466338 
L 85.988857 416.366517 
L 85.860383 426.468374 
L 85.798468 422.145467 
L 85.768066 423.118094 
L 85.738027 426.53501 
L 85.708343 425.305352 
L 85.621362 413.423607 
L 85.593039 418.916245 
L 85.565041 419.578094 
L 85.537363 415.887342 
L 85.51 421.303458 
L 85.482946 426.994758 
L 85.429744 421.20948 
L 85.352135 417.063819 
L 85.301801 399.033847 
L 85.277042 417.76957 
L 85.25255 417.45125 
L 85.228319 423.714301 
L 85.204346 413.612362 
L 85.157158 418.710904 
L 85.110952 426.590971 
L 85.065699 402.250744 
L 84.935371 426.851683 
L 84.914406 426.185885 
L 84.893649 412.428017 
L 84.812635 425.316939 
L 84.792871 419.957869 
L 84.75391 427.038807 
L 84.696846 423.282212 
L 84.678182 419.373994 
L 84.623227 425.900586 
L 84.623227 425.900586 
" clip-path="url(#p1483a12f11)" style="fill: none; stroke: #191970; stroke-width: 2; stroke-linecap: square"/>
   </g>
   <g id="patch_3">
    <path d="M 75.454 444.44 
L 75.454 79.56 
" style="fill: none; stroke: #000000; stroke-width: 0.8; stroke-linejoin: miter; stroke-linecap: square"/>
   </g>
   <g id="patch_4">
    <path d="M 75.454 444.44 
L 277.177 444.44 
" style="fill: none; stroke: #000000; stroke-width: 0.8; stroke-linejoin: miter; stroke-linecap: square"/>
   </g>
   <g id="text_11">
    <!-- 1 -->
    <g transform="translate(171.86175 47.284625) scale(0.14 -0.14)">
     <use xlink:href="#DejaVuSans-31"/>
    </g>
    <!-- (PEAK ON 24.00 HOURS) -->
    <g transform="translate(90.164094 62.961563) scale(0.14 -0.14)">
     <defs>
      <path id="DejaVuSans-28" d="M 1984 4856 
Q 1566 4138 1362 3434 
Q 1159 2731 1159 2009 
Q 1159 1288 1364 580 
Q 1569 -128 1984 -844 
L 1484 -844 
Q 1016 -109 783 600 
Q 550 1309 550 2009 
Q 550 2706 781 3412 
Q 1013 4119 1484 4856 
L 1984 4856 
z
" transform="scale(0.015625)"/>
      <path id="DejaVuSans-50" d="M 1259 4147 
L 1259 2394 
L 2053 2394 
Q 2494 2394 2734 2622 
Q 2975 2850 2975 3272 
Q 2975 3691 2734 3919 
Q 2494 4147 2053 4147 
L 1259 4147 
z
M 628 4666 
L 2053 4666 
Q 2838 4666 3239 4311 
Q 3641 3956 3641 3272 
Q 3641 2581 3239 2228 
Q 2838 1875 2053 1875 
L 1259 1875 
L 1259 0 
L 628 0 
L 628 4666 
z
" transform="scale(0.015625)"/>
      <path id="DejaVuSans-45" d="M 628 4666 
L 3578 4666 
L 3578 4134 
L 1259 4134 
L 1259 2753 
L 3481 2753 
L 3481 2222 
L 1259 2222 
L 1259 531 
L 3634 531 
L 3634 0 
L 628 0 
L 628 4666 
z
" transform="scale(0.015625)"/>
      <path id="DejaVuSans-41" d="M 2188 4044 
L 1331 1722 
L 3047 1722 
L 2188 4044 
z
M 1831 4666 
L 2547 4666 
L 4325 0 
L 3669 0 
L 3244 1197 
L 1141 1197 
L 716 0 
L 50 0 
L 1831 4666 
z
" transform="scale(0.015625)"/>
      <path id="DejaVuSans-4b" d="M 628 4666 
L 1259 4666 
L 1259 2694 
L 3353 4666 
L 4166 4666 
L 1850 2491 
L 4331 0 
L 3500 0 
L 1259 2247 
L 1259 0 
L 628 0 
L 628 4666 
z
" transform="scale(0.015625)"/>
      <path id="DejaVuSans-20" transform="scale(0.015625)"/>
      <path id="DejaVuSans-4f" d="M 2522 4238 
Q 1834 4238 1429 3725 
Q 1025 3213 1025 2328 
Q 1025 1447 1429 934 
Q 1834 422 2522 422 
Q 3209 422 3611 934 
Q 4013 1447 4013 2328 
Q 4013 3213 3611 3725 
Q 3209 4238 2522 4238 
z
M 2522 4750 
Q 3503 4750 4090 4092 
Q 4678 3434 4678 2328 
Q 4678 1225 4090 567 
Q 3503 -91 2522 -91 
Q 1538 -91 948 565 
Q 359 1222 359 2328 
Q 359 3434 948 4092 
Q 1538 4750 2522 4750 
z
" transform="scale(0.015625)"/>
      <path id="DejaVuSans-4e" d="M 628 4666 
L 1478 4666 
L 3547 763 
L 3547 4666 
L 4159 4666 
L 4159 0 
L 3309 0 
L 1241 3903 
L 1241 0 
L 628 0 
L 628 4666 
z
" transform="scale(0.015625)"/>
      <path id="DejaVuSans-48" d="M 628 4666 
L 1259 4666 
L 1259 2753 
L 3553 2753 
L 3553 4666 
L 4184 4666 
L 4184 0 
L 3553 0 
L 3553 2222 
L 1259 2222 
L 1259 0 
L 628 0 
L 628 4666 
z
" transform="scale(0.015625)"/>
      <path id="DejaVuSans-55" d="M 556 4666 
L 1191 4666 
L 1191 1831 
Q 1191 1081 1462 751 
Q 1734 422 2344 422 
Q 2950 422 3222 751 
Q 3494 1081 3494 1831 
L 3494 4666 
L 4128 4666 
L 4128 1753 
Q 4128 841 3676 375 
Q 3225 -91 2344 -91 
Q 1459 -91 1007 375 
Q 556 841 556 1753 
L 556 4666 
z
" transform="scale(0.015625)"/>
      <path id="DejaVuSans-52" d="M 2841 2188 
Q 3044 2119 3236 1894 
Q 3428 1669 3622 1275 
L 4263 0 
L 3584 0 
L 2988 1197 
Q 2756 1666 2539 1819 
Q 2322 1972 1947 1972 
L 1259 1972 
L 1259 0 
L 628 0 
L 628 4666 
L 2053 4666 
Q 2853 4666 3247 4331 
Q 3641 3997 3641 3322 
Q 3641 2881 3436 2590 
Q 3231 2300 2841 2188 
z
M 1259 4147 
L 1259 2491 
L 2053 2491 
Q 2509 2491 2742 2702 
Q 2975 2913 2975 3322 
Q 2975 3731 2742 3939 
Q 2509 4147 2053 4147 
L 1259 4147 
z
" transform="scale(0.015625)"/>
      <path id="DejaVuSans-53" d="M 3425 4513 
L 3425 3897 
Q 3066 4069 2747 4153 
Q 2428 4238 2131 4238 
Q 1616 4238 1336 4038 
Q 1056 3838 1056 3469 
Q 1056 3159 1242 3001 
Q 1428 2844 1947 2747 
L 2328 2669 
Q 3034 2534 3370 2195 
Q 3706 1856 3706 1288 
Q 3706 609 3251 259 
Q 2797 -91 1919 -91 
Q 1588 -91 1214 -16 
Q 841 59 441 206 
L 441 856 
Q 825 641 1194 531 
Q 1563 422 1919 422 
Q 2459 422 2753 634 
Q 3047 847 3047 1241 
Q 3047 1584 2836 1778 
Q 2625 1972 2144 2069 
L 1759 2144 
Q 1053 2284 737 2584 
Q 422 2884 422 3419 
Q 422 4038 858 4394 
Q 1294 4750 2059 4750 
Q 2388 4750 2728 4690 
Q 3069 4631 3425 4513 
z
" transform="scale(0.015625)"/>
      <path id="DejaVuSans-29" d="M 513 4856 
L 1013 4856 
Q 1481 4119 1714 3412 
Q 1947 2706 1947 2009 
Q 1947 1309 1714 600 
Q 1481 -109 1013 -844 
L 513 -844 
Q 928 -128 1133 580 
Q 1338 1288 1338 2009 
Q 1338 2731 1133 3434 
Q 928 4138 513 4856 
z
" transform="scale(0.015625)"/>
     </defs>
     <use xlink:href="#DejaVuSans-28"/>
     <use xlink:href="#DejaVuSans-50" x="39.013672"/>
     <use xlink:href="#DejaVuSans-45" x="99.316406"/>
     <use xlink:href="#DejaVuSans-41" x="162.5"/>
     <use xlink:href="#DejaVuSans-4b" x="230.908203"/>
     <use xlink:href="#DejaVuSans-20" x="296.484375"/>
     <use xlink:href="#DejaVuSans-4f" x="328.271484"/>
     <use xlink:href="#DejaVuSans-4e" x="406.982422"/>
     <use xlink:href="#DejaVuSans-20" x="481.787109"/>
     <use xlink:href="#DejaVuSans-32" x="513.574219"/>
     <use xlink:href="#DejaVuSans-34" x="577.197266"/>
     <use xlink:href="#DejaVuSans-2e" x="640.820312"/>
     <use xlink:href="#DejaVuSans-30" x="672.607422"/>
     <use xlink:href="#DejaVuSans-30" x="736.230469"/>
     <use xlink:href="#DejaVuSans-20" x="799.853516"/>
     <use xlink:href="#DejaVuSans-48" x="831.640625"/>
     <use xlink:href="#DejaVuSans-4f" x="906.835938"/>
     <use xlink:href="#DejaVuSans-55" x="985.546875"/>
     <use xlink:href="#DejaVuSans-52" x="1058.740234"/>
     <use xlink:href="#DejaVuSans-53" x="1128.222656"/>
     <use xlink:href="#DejaVuSans-29" x="1191.699219"/>
    </g>
   </g>
  </g>
  <g id="axes_2">
   <g id="patch_5">
    <path d="M 291.477 444.44 
L 493.2 444.44 
L 493.2 79.56 
L 291.477 79.56 
z
" style="fill: #ffffff"/>
   </g>
   <g id="matplotlib.axis_3">
    <g id="xtick_4">
     <g id="line2d_12">
      <g>
       <use xlink:href="#m832432c293" x="296.744428" y="444.44" style="stroke: #000000; stroke-width: 0.8"/>
      </g>
     </g>
     <g id="text_12">
      <!-- 0 -->
      <g transform="translate(292.290678 462.077812) scale(0.14 -0.14)">
       <use xlink:href="#DejaVuSans-30"/>
      </g>
     </g>
    </g>
    <g id="xtick_5">
     <g id="line2d_13">
      <g>
       <use xlink:href="#m832432c293" x="374.780405" y="444.44" style="stroke: #000000; stroke-width: 0.8"/>
      </g>
     </g>
     <g id="text_13">
      <!-- 20 -->
      <g transform="translate(365.872905 462.077812) scale(0.14 -0.14)">
       <use xlink:href="#DejaVuSans-32"/>
       <use xlink:href="#DejaVuSans-30" x="63.623047"/>
      </g>
     </g>
    </g>
    <g id="xtick_6">
     <g id="line2d_14">
      <g>
       <use xlink:href="#m832432c293" x="452.816382" y="444.44" style="stroke: #000000; stroke-width: 0.8"/>
      </g>
     </g>
     <g id="text_14">
      <!-- 40 -->
      <g transform="translate(443.908882 462.077812) scale(0.14 -0.14)">
       <use xlink:href="#DejaVuSans-34"/>
       <use xlink:href="#DejaVuSans-30" x="63.623047"/>
      </g>
     </g>
    </g>
   </g>
   <g id="matplotlib.axis_4">
    <g id="ytick_7">
     <g id="line2d_15">
      <g>
       <use xlink:href="#md7b5e7f969" x="291.477" y="427.872997" style="stroke: #000000; stroke-width: 0.8"/>
      </g>
     </g>
    </g>
    <g id="ytick_8">
     <g id="line2d_16">
      <g>
       <use xlink:href="#md7b5e7f969" x="291.477" y="362.833507" style="stroke: #000000; stroke-width: 0.8"/>
      </g>
     </g>
    </g>
    <g id="ytick_9">
     <g id="line2d_17">
      <g>
       <use xlink:href="#md7b5e7f969" x="291.477" y="297.794017" style="stroke: #000000; stroke-width: 0.8"/>
      </g>
     </g>
    </g>
    <g id="ytick_10">
     <g id="line2d_18">
      <g>
       <use xlink:href="#md7b5e7f969" x="291.477" y="232.754527" style="stroke: #000000; stroke-width: 0.8"/>
      </g>
     </g>
    </g>
    <g id="ytick_11">
     <g id="line2d_19">
      <g>
       <use xlink:href="#md7b5e7f969" x="291.477" y="167.715036" style="stroke: #000000; stroke-width: 0.8"/>
      </g>
     </g>
    </g>
    <g id="ytick_12">
     <g id="line2d_20">
      <g>
       <use xlink:href="#md7b5e7f969" x="291.477" y="102.675546" style="stroke: #000000; stroke-width: 0.8"/>
      </g>
     </g>
    </g>
   </g>
   <g id="line2d_21">
    <path d="M 300.646227 382.703787 
L 484.030773 382.703787 
" clip-path="url(#p58f96dd2c5)" style="fill: none; stroke-dasharray: 7.4,3.2; stroke-dashoffset: 0; stroke: #696969; stroke-width: 2"/>
   </g>
   <g id="line2d_22">
    <path d="M 484.030773 422.109141 
L 446.573504 419.090248 
L 421.601991 392.818915 
L 403.765197 423.993525 
L 390.387601 102.167726 
L 379.982804 101.281758 
L 371.658966 416.913226 
L 364.848554 426.749927 
L 359.17321 425.673542 
L 354.370996 423.028037 
L 350.254813 427.070055 
L 346.687454 424.119471 
L 343.566015 418.120307 
L 340.811804 426.893271 
L 338.363616 425.369455 
L 336.173132 415.09533 
L 334.201697 414.158368 
L 332.418018 426.548163 
L 330.796491 427.579142 
L 329.315967 427.413138 
L 327.958819 425.070738 
L 326.710244 421.625932 
L 325.557712 411.504884 
L 324.490554 415.757111 
L 323.49962 424.022444 
L 322.577028 426.103338 
L 321.715941 427.64729 
L 320.910408 424.03797 
L 320.155221 415.365424 
L 319.445803 423.826998 
L 318.778116 422.350741 
L 318.148582 423.346672 
L 317.554022 425.14618 
L 316.991601 424.044743 
L 316.45878 421.369515 
L 315.953284 426.449372 
L 315.473063 408.995836 
L 315.016267 415.290698 
L 314.581223 415.013372 
L 314.166414 416.19263 
L 313.77046 426.035908 
L 313.392103 426.284854 
L 312.683692 413.556948 
L 312.351624 425.843389 
L 312.03311 426.799141 
L 311.727336 426.720654 
L 311.433553 422.736547 
L 311.15107 422.834305 
L 310.879247 423.870396 
L 310.617491 426.951187 
L 310.365253 424.631592 
L 310.122024 417.976371 
L 309.88733 421.365911 
L 309.660728 421.888387 
L 309.441808 417.775758 
L 309.230185 405.787682 
L 309.0255 423.393319 
L 308.827418 423.174043 
L 308.635625 421.888973 
L 308.269742 427.62437 
L 308.095116 421.114248 
L 307.925703 426.658629 
L 307.761272 413.150991 
L 307.601608 410.936952 
L 307.446505 424.974403 
L 307.295772 423.828839 
L 307.149225 423.621806 
L 307.006694 426.767661 
L 306.868015 423.648595 
L 306.733033 424.072924 
L 306.601604 426.13465 
L 306.473589 423.891068 
L 306.348856 427.763208 
L 305.993137 425.603168 
L 305.880348 424.417571 
L 305.770276 427.822551 
L 305.557903 424.433338 
L 305.455421 426.012481 
L 305.355295 425.017737 
L 305.257444 407.34445 
L 305.068266 426.487271 
L 304.976795 425.916171 
L 304.887313 421.75114 
L 304.71406 400.374093 
L 304.548026 420.610617 
L 304.467577 427.07923 
L 304.388769 404.390154 
L 304.235882 427.384251 
L 304.161709 425.249989 
L 304.088991 427.173317 
L 303.947749 420.202075 
L 303.879146 401.690876 
L 303.811838 412.777716 
L 303.68096 427.313675 
L 303.554841 417.466773 
L 303.433226 396.376579 
L 303.374034 419.005205 
L 303.315879 415.606194 
L 303.258736 403.524847 
L 303.202578 407.141853 
L 303.039768 427.204977 
L 302.935713 422.605394 
L 302.884964 413.885518 
L 302.835041 420.489567 
L 302.737591 418.257795 
L 302.690027 420.396683 
L 302.643211 407.641644 
L 302.597127 414.450824 
L 302.551757 427.841936 
L 302.507085 426.299518 
L 302.463095 414.812372 
L 302.419772 422.527546 
L 302.293653 427.459722 
L 302.173018 422.063278 
L 302.133964 415.146269 
L 302.095467 422.061307 
L 302.057516 425.296659 
L 302.0201 417.913987 
L 301.946827 422.129059 
L 301.910948 420.137802 
L 301.840655 427.671643 
L 301.806222 425.03118 
L 301.738731 416.747122 
L 301.705656 423.461437 
L 301.673016 426.611347 
L 301.609009 422.114322 
L 301.577624 411.293156 
L 301.516055 421.971313 
L 301.485855 421.760702 
L 301.456035 417.326953 
L 301.426587 421.826801 
L 301.397505 425.860636 
L 301.340412 419.571433 
L 301.312388 415.322421 
L 301.284703 426.682072 
L 301.230329 427.556282 
L 301.203627 425.252237 
L 301.125396 401.930926 
L 301.099925 417.515146 
L 300.976888 427.404417 
L 300.95311 427.204115 
L 300.929598 427.262486 
L 300.860612 411.809584 
L 300.815871 420.820284 
L 300.793863 426.688384 
L 300.750553 413.421077 
L 300.687299 426.154123 
L 300.646227 427.791529 
L 300.646227 427.791529 
" clip-path="url(#p58f96dd2c5)" style="fill: none; stroke: #191970; stroke-width: 2; stroke-linecap: square"/>
   </g>
   <g id="patch_6">
    <path d="M 291.477 444.44 
L 291.477 79.56 
" style="fill: none; stroke: #000000; stroke-width: 0.8; stroke-linejoin: miter; stroke-linecap: square"/>
   </g>
   <g id="patch_7">
    <path d="M 291.477 444.44 
L 493.2 444.44 
" style="fill: none; stroke: #000000; stroke-width: 0.8; stroke-linejoin: miter; stroke-linecap: square"/>
   </g>
   <g id="text_15">
    <!-- 2 -->
    <g transform="translate(387.88475 57.883063) scale(0.14 -0.14)">
     <use xlink:href="#DejaVuSans-32"/>
    </g>
    <!-- (PEAK ON 21.33 HOURS) -->
    <g transform="translate(306.187094 73.56) scale(0.14 -0.14)">
     <defs>
      <path id="DejaVuSans-33" d="M 2597 2516 
Q 3050 2419 3304 2112 
Q 3559 1806 3559 1356 
Q 3559 666 3084 287 
Q 2609 -91 1734 -91 
Q 1441 -91 1130 -33 
Q 819 25 488 141 
L 488 750 
Q 750 597 1062 519 
Q 1375 441 1716 441 
Q 2309 441 2620 675 
Q 2931 909 2931 1356 
Q 2931 1769 2642 2001 
Q 2353 2234 1838 2234 
L 1294 2234 
L 1294 2753 
L 1863 2753 
Q 2328 2753 2575 2939 
Q 2822 3125 2822 3475 
Q 2822 3834 2567 4026 
Q 2313 4219 1838 4219 
Q 1578 4219 1281 4162 
Q 984 4106 628 3988 
L 628 4550 
Q 988 4650 1302 4700 
Q 1616 4750 1894 4750 
Q 2613 4750 3031 4423 
Q 3450 4097 3450 3541 
Q 3450 3153 3228 2886 
Q 3006 2619 2597 2516 
z
" transform="scale(0.015625)"/>
     </defs>
     <use xlink:href="#DejaVuSans-28"/>
     <use xlink:href="#DejaVuSans-50" x="39.013672"/>
     <use xlink:href="#DejaVuSans-45" x="99.316406"/>
     <use xlink:href="#DejaVuSans-41" x="162.5"/>
     <use xlink:href="#DejaVuSans-4b" x="230.908203"/>
     <use xlink:href="#DejaVuSans-20" x="296.484375"/>
     <use xlink:href="#DejaVuSans-4f" x="328.271484"/>
     <use xlink:href="#DejaVuSans-4e" x="406.982422"/>
     <use xlink:href="#DejaVuSans-20" x="481.787109"/>
     <use xlink:href="#DejaVuSans-32" x="513.574219"/>
     <use xlink:href="#DejaVuSans-31" x="577.197266"/>
     <use xlink:href="#DejaVuSans-2e" x="640.820312"/>
     <use xlink:href="#DejaVuSans-33" x="672.607422"/>
     <use xlink:href="#DejaVuSans-33" x="736.230469"/>
     <use xlink:href="#DejaVuSans-20" x="799.853516"/>
     <use xlink:href="#DejaVuSans-48" x="831.640625"/>
     <use xlink:href="#DejaVuSans-4f" x="906.835938"/>
     <use xlink:href="#DejaVuSans-55" x="985.546875"/>
     <use xlink:href="#DejaVuSans-52" x="1058.740234"/>
     <use xlink:href="#DejaVuSans-53" x="1128.222656"/>
     <use xlink:href="#DejaVuSans-29" x="1191.699219"/>
    </g>
   </g>
  </g>
  <g id="text_16">
   <!-- PSD $(AMPLITUDE_{S}^{2}/HZ)$ -->
   <g transform="translate(26.46 352.44) rotate(-90) scale(0.18 -0.18)">
    <defs>
     <path id="DejaVuSans-44" d="M 1259 4147 
L 1259 519 
L 2022 519 
Q 2988 519 3436 956 
Q 3884 1394 3884 2338 
Q 3884 3275 3436 3711 
Q 2988 4147 2022 4147 
L 1259 4147 
z
M 628 4666 
L 1925 4666 
Q 3281 4666 3915 4102 
Q 4550 3538 4550 2338 
Q 4550 1131 3912 565 
Q 3275 0 1925 0 
L 628 0 
L 628 4666 
z
" transform="scale(0.015625)"/>
     <path id="DejaVuSans-Oblique-41" d="M 2356 4666 
L 3072 4666 
L 3938 0 
L 3278 0 
L 3084 1197 
L 984 1197 
L 325 0 
L -341 0 
L 2356 4666 
z
M 2584 4044 
L 1275 1722 
L 2988 1722 
L 2584 4044 
z
" transform="scale(0.015625)"/>
     <path id="DejaVuSans-Oblique-4d" d="M 1081 4666 
L 2028 4666 
L 2572 1522 
L 4378 4666 
L 5350 4666 
L 4441 0 
L 3828 0 
L 4622 4091 
L 2791 897 
L 2175 897 
L 1581 4103 
L 788 0 
L 172 0 
L 1081 4666 
z
" transform="scale(0.015625)"/>
     <path id="DejaVuSans-Oblique-50" d="M 1081 4666 
L 2541 4666 
Q 3178 4666 3512 4369 
Q 3847 4072 3847 3500 
Q 3847 2731 3353 2303 
Q 2859 1875 1966 1875 
L 1172 1875 
L 806 0 
L 172 0 
L 1081 4666 
z
M 1613 4147 
L 1275 2394 
L 2069 2394 
Q 2606 2394 2893 2669 
Q 3181 2944 3181 3456 
Q 3181 3784 2986 3965 
Q 2791 4147 2438 4147 
L 1613 4147 
z
" transform="scale(0.015625)"/>
     <path id="DejaVuSans-Oblique-4c" d="M 1075 4666 
L 1709 4666 
L 909 525 
L 3181 525 
L 3078 0 
L 172 0 
L 1075 4666 
z
" transform="scale(0.015625)"/>
     <path id="DejaVuSans-Oblique-49" d="M 1081 4666 
L 1716 4666 
L 806 0 
L 172 0 
L 1081 4666 
z
" transform="scale(0.015625)"/>
     <path id="DejaVuSans-Oblique-54" d="M 378 4666 
L 4325 4666 
L 4225 4134 
L 2559 4134 
L 1759 0 
L 1125 0 
L 1925 4134 
L 275 4134 
L 378 4666 
z
" transform="scale(0.015625)"/>
     <path id="DejaVuSans-Oblique-55" d="M 991 4666 
L 1625 4666 
L 1075 1831 
Q 1041 1641 1027 1517 
Q 1013 1394 1013 1300 
Q 1013 869 1253 645 
Q 1494 422 1959 422 
Q 2563 422 2898 753 
Q 3234 1084 3378 1831 
L 3928 4666 
L 4563 4666 
L 4000 1753 
Q 3816 809 3300 359 
Q 2784 -91 1888 -91 
Q 1188 -91 780 261 
Q 372 613 372 1216 
Q 372 1325 387 1461 
Q 403 1597 434 1753 
L 991 4666 
z
" transform="scale(0.015625)"/>
     <path id="DejaVuSans-Oblique-44" d="M 1081 4666 
L 2438 4666 
Q 3519 4666 4070 4208 
Q 4622 3750 4622 2847 
Q 4622 2250 4412 1698 
Q 4203 1147 3834 769 
Q 3463 381 2891 190 
Q 2319 0 1538 0 
L 172 0 
L 1081 4666 
z
M 1613 4147 
L 909 519 
L 1734 519 
Q 2794 519 3375 1128 
Q 3956 1738 3956 2847 
Q 3956 3519 3581 3833 
Q 3206 4147 2406 4147 
L 1613 4147 
z
" transform="scale(0.015625)"/>
     <path id="DejaVuSans-Oblique-45" d="M 1081 4666 
L 4031 4666 
L 3928 4134 
L 1606 4134 
L 1338 2753 
L 3566 2753 
L 3463 2222 
L 1234 2222 
L 909 531 
L 3284 531 
L 3181 0 
L 172 0 
L 1081 4666 
z
" transform="scale(0.015625)"/>
     <path id="DejaVuSans-Oblique-53" d="M 3859 4513 
L 3738 3897 
Q 3422 4066 3111 4152 
Q 2800 4238 2509 4238 
Q 1944 4238 1609 3991 
Q 1275 3744 1275 3334 
Q 1275 3109 1398 2989 
Q 1522 2869 2034 2731 
L 2413 2638 
Q 3053 2472 3303 2217 
Q 3553 1963 3553 1503 
Q 3553 797 2998 353 
Q 2444 -91 1538 -91 
Q 1166 -91 791 -17 
Q 416 56 38 206 
L 166 856 
Q 513 641 861 531 
Q 1209 422 1556 422 
Q 2147 422 2503 684 
Q 2859 947 2859 1369 
Q 2859 1650 2717 1795 
Q 2575 1941 2106 2059 
L 1728 2156 
Q 1081 2325 845 2545 
Q 609 2766 609 3163 
Q 609 3859 1145 4304 
Q 1681 4750 2541 4750 
Q 2875 4750 3203 4690 
Q 3531 4631 3859 4513 
z
" transform="scale(0.015625)"/>
     <path id="DejaVuSans-2f" d="M 1625 4666 
L 2156 4666 
L 531 -594 
L 0 -594 
L 1625 4666 
z
" transform="scale(0.015625)"/>
     <path id="DejaVuSans-Oblique-48" d="M 1081 4666 
L 1716 4666 
L 1344 2753 
L 3634 2753 
L 4006 4666 
L 4641 4666 
L 3731 0 
L 3097 0 
L 3531 2222 
L 1241 2222 
L 806 0 
L 172 0 
L 1081 4666 
z
" transform="scale(0.015625)"/>
     <path id="DejaVuSans-Oblique-5a" d="M 838 4666 
L 4500 4666 
L 4409 4184 
L 794 531 
L 3769 531 
L 3669 0 
L -141 0 
L -50 481 
L 3566 4134 
L 738 4134 
L 838 4666 
z
" transform="scale(0.015625)"/>
    </defs>
    <use xlink:href="#DejaVuSans-50" transform="translate(0 0.765625)"/>
    <use xlink:href="#DejaVuSans-53" transform="translate(60.302734 0.765625)"/>
    <use xlink:href="#DejaVuSans-44" transform="translate(123.779297 0.765625)"/>
    <use xlink:href="#DejaVuSans-20" transform="translate(200.78125 0.765625)"/>
    <use xlink:href="#DejaVuSans-28" transform="translate(232.568359 0.765625)"/>
    <use xlink:href="#DejaVuSans-Oblique-41" transform="translate(271.582031 0.765625)"/>
    <use xlink:href="#DejaVuSans-Oblique-4d" transform="translate(339.990234 0.765625)"/>
    <use xlink:href="#DejaVuSans-Oblique-50" transform="translate(426.269531 0.765625)"/>
    <use xlink:href="#DejaVuSans-Oblique-4c" transform="translate(486.572266 0.765625)"/>
    <use xlink:href="#DejaVuSans-Oblique-49" transform="translate(542.285156 0.765625)"/>
    <use xlink:href="#DejaVuSans-Oblique-54" transform="translate(571.777344 0.765625)"/>
    <use xlink:href="#DejaVuSans-Oblique-55" transform="translate(632.861328 0.765625)"/>
    <use xlink:href="#DejaVuSans-Oblique-44" transform="translate(706.054688 0.765625)"/>
    <use xlink:href="#DejaVuSans-Oblique-45" transform="translate(783.056641 0.765625)"/>
    <use xlink:href="#DejaVuSans-32" transform="translate(853.257005 39.046875) scale(0.7)"/>
    <use xlink:href="#DejaVuSans-Oblique-53" transform="translate(846.240234 -26.578125) scale(0.7)"/>
    <use xlink:href="#DejaVuSans-2f" transform="translate(900.527513 0.765625)"/>
    <use xlink:href="#DejaVuSans-Oblique-48" transform="translate(932.468919 0.765625)"/>
    <use xlink:href="#DejaVuSans-Oblique-5a" transform="translate(1007.664232 0.765625)"/>
    <use xlink:href="#DejaVuSans-29" transform="translate(1076.170091 0.765625)"/>
   </g>
  </g>
  <g id="text_17">
   <!-- PERIOD (HOUR) -->
   <g transform="translate(181.386562 495.216563) scale(0.18 -0.18)">
    <defs>
     <path id="DejaVuSans-49" d="M 628 4666 
L 1259 4666 
L 1259 0 
L 628 0 
L 628 4666 
z
" transform="scale(0.015625)"/>
    </defs>
    <use xlink:href="#DejaVuSans-50"/>
    <use xlink:href="#DejaVuSans-45" x="60.302734"/>
    <use xlink:href="#DejaVuSans-52" x="123.486328"/>
    <use xlink:href="#DejaVuSans-49" x="192.96875"/>
    <use xlink:href="#DejaVuSans-4f" x="222.460938"/>
    <use xlink:href="#DejaVuSans-44" x="301.171875"/>
    <use xlink:href="#DejaVuSans-20" x="378.173828"/>
    <use xlink:href="#DejaVuSans-28" x="409.960938"/>
    <use xlink:href="#DejaVuSans-48" x="448.974609"/>
    <use xlink:href="#DejaVuSans-4f" x="524.169922"/>
    <use xlink:href="#DejaVuSans-55" x="602.880859"/>
    <use xlink:href="#DejaVuSans-52" x="676.074219"/>
    <use xlink:href="#DejaVuSans-29" x="745.556641"/>
   </g>
  </g>
  <g id="text_18">
   <!-- PERIODOGRAM OF CONTINUOUS - 7 SINE 0.5 -->
   <g transform="translate(72.1175 22.2375) scale(0.16 -0.16)">
    <defs>
     <path id="DejaVuSans-47" d="M 3809 666 
L 3809 1919 
L 2778 1919 
L 2778 2438 
L 4434 2438 
L 4434 434 
Q 4069 175 3628 42 
Q 3188 -91 2688 -91 
Q 1594 -91 976 548 
Q 359 1188 359 2328 
Q 359 3472 976 4111 
Q 1594 4750 2688 4750 
Q 3144 4750 3555 4637 
Q 3966 4525 4313 4306 
L 4313 3634 
Q 3963 3931 3569 4081 
Q 3175 4231 2741 4231 
Q 1884 4231 1454 3753 
Q 1025 3275 1025 2328 
Q 1025 1384 1454 906 
Q 1884 428 2741 428 
Q 3075 428 3337 486 
Q 3600 544 3809 666 
z
" transform="scale(0.015625)"/>
     <path id="DejaVuSans-4d" d="M 628 4666 
L 1569 4666 
L 2759 1491 
L 3956 4666 
L 4897 4666 
L 4897 0 
L 4281 0 
L 4281 4097 
L 3078 897 
L 2444 897 
L 1241 4097 
L 1241 0 
L 628 0 
L 628 4666 
z
" transform="scale(0.015625)"/>
     <path id="DejaVuSans-46" d="M 628 4666 
L 3309 4666 
L 3309 4134 
L 1259 4134 
L 1259 2759 
L 3109 2759 
L 3109 2228 
L 1259 2228 
L 1259 0 
L 628 0 
L 628 4666 
z
" transform="scale(0.015625)"/>
     <path id="DejaVuSans-43" d="M 4122 4306 
L 4122 3641 
Q 3803 3938 3442 4084 
Q 3081 4231 2675 4231 
Q 1875 4231 1450 3742 
Q 1025 3253 1025 2328 
Q 1025 1406 1450 917 
Q 1875 428 2675 428 
Q 3081 428 3442 575 
Q 3803 722 4122 1019 
L 4122 359 
Q 3791 134 3420 21 
Q 3050 -91 2638 -91 
Q 1578 -91 968 557 
Q 359 1206 359 2328 
Q 359 3453 968 4101 
Q 1578 4750 2638 4750 
Q 3056 4750 3426 4639 
Q 3797 4528 4122 4306 
z
" transform="scale(0.015625)"/>
     <path id="DejaVuSans-54" d="M -19 4666 
L 3928 4666 
L 3928 4134 
L 2272 4134 
L 2272 0 
L 1638 0 
L 1638 4134 
L -19 4134 
L -19 4666 
z
" transform="scale(0.015625)"/>
     <path id="DejaVuSans-2d" d="M 313 2009 
L 1997 2009 
L 1997 1497 
L 313 1497 
L 313 2009 
z
" transform="scale(0.015625)"/>
     <path id="DejaVuSans-37" d="M 525 4666 
L 3525 4666 
L 3525 4397 
L 1831 0 
L 1172 0 
L 2766 4134 
L 525 4134 
L 525 4666 
z
" transform="scale(0.015625)"/>
    </defs>
    <use xlink:href="#DejaVuSans-50"/>
    <use xlink:href="#DejaVuSans-45" x="60.302734"/>
    <use xlink:href="#DejaVuSans-52" x="123.486328"/>
    <use xlink:href="#DejaVuSans-49" x="192.96875"/>
    <use xlink:href="#DejaVuSans-4f" x="222.460938"/>
    <use xlink:href="#DejaVuSans-44" x="301.171875"/>
    <use xlink:href="#DejaVuSans-4f" x="378.173828"/>
    <use xlink:href="#DejaVuSans-47" x="456.884766"/>
    <use xlink:href="#DejaVuSans-52" x="534.375"/>
    <use xlink:href="#DejaVuSans-41" x="599.857422"/>
    <use xlink:href="#DejaVuSans-4d" x="668.265625"/>
    <use xlink:href="#DejaVuSans-20" x="754.544922"/>
    <use xlink:href="#DejaVuSans-4f" x="786.332031"/>
    <use xlink:href="#DejaVuSans-46" x="865.042969"/>
    <use xlink:href="#DejaVuSans-20" x="922.5625"/>
    <use xlink:href="#DejaVuSans-43" x="954.349609"/>
    <use xlink:href="#DejaVuSans-4f" x="1024.173828"/>
    <use xlink:href="#DejaVuSans-4e" x="1102.884766"/>
    <use xlink:href="#DejaVuSans-54" x="1177.689453"/>
    <use xlink:href="#DejaVuSans-49" x="1238.773438"/>
    <use xlink:href="#DejaVuSans-4e" x="1268.265625"/>
    <use xlink:href="#DejaVuSans-55" x="1343.070312"/>
    <use xlink:href="#DejaVuSans-4f" x="1416.263672"/>
    <use xlink:href="#DejaVuSans-55" x="1494.974609"/>
    <use xlink:href="#DejaVuSans-53" x="1568.167969"/>
    <use xlink:href="#DejaVuSans-20" x="1631.644531"/>
    <use xlink:href="#DejaVuSans-2d" x="1663.431641"/>
    <use xlink:href="#DejaVuSans-20" x="1699.515625"/>
    <use xlink:href="#DejaVuSans-37" x="1731.302734"/>
    <use xlink:href="#DejaVuSans-20" x="1794.925781"/>
    <use xlink:href="#DejaVuSans-53" x="1826.712891"/>
    <use xlink:href="#DejaVuSans-49" x="1890.189453"/>
    <use xlink:href="#DejaVuSans-4e" x="1919.681641"/>
    <use xlink:href="#DejaVuSans-45" x="1994.486328"/>
    <use xlink:href="#DejaVuSans-20" x="2057.669922"/>
    <use xlink:href="#DejaVuSans-30" x="2089.457031"/>
    <use xlink:href="#DejaVuSans-2e" x="2153.080078"/>
    <use xlink:href="#DejaVuSans-35" x="2184.867188"/>
   </g>
  </g>
 </g>
 <defs>
  <clipPath id="p1483a12f11">
   <rect x="75.454" y="79.56" width="201.723" height="364.88"/>
  </clipPath>
  <clipPath id="p58f96dd2c5">
   <rect x="291.477" y="79.56" width="201.723" height="364.88"/>
  </clipPath>
 </defs>
</svg>
