<?xml version="1.0" encoding="utf-8" standalone="no"?>
<!DOCTYPE svg PUBLIC "-//W3C//DTD SVG 1.1//EN"
  "http://www.w3.org/Graphics/SVG/1.1/DTD/svg11.dtd">
<svg xmlns:xlink="http://www.w3.org/1999/xlink" width="864pt" height="360pt" viewBox="0 0 864 360" xmlns="http://www.w3.org/2000/svg" version="1.1">
 <metadata>
  <rdf:RDF xmlns:dc="http://purl.org/dc/elements/1.1/" xmlns:cc="http://creativecommons.org/ns#" xmlns:rdf="http://www.w3.org/1999/02/22-rdf-syntax-ns#">
   <cc:Work>
    <dc:type rdf:resource="http://purl.org/dc/dcmitype/StillImage"/>
    <dc:date>2023-11-07T10:59:53.152119</dc:date>
    <dc:format>image/svg+xml</dc:format>
    <dc:creator>
     <cc:Agent>
      <dc:title>Matplotlib v3.7.1, https://matplotlib.org/</dc:title>
     </cc:Agent>
    </dc:creator>
   </cc:Work>
  </rdf:RDF>
 </metadata>
 <defs>
  <style type="text/css">*{stroke-linejoin: round; stroke-linecap: butt}</style>
 </defs>
 <g id="figure_1">
  <g id="patch_1">
   <path d="M 0 360 
L 864 360 
L 864 0 
L 0 0 
z
" style="fill: #ffffff"/>
  </g>
  <g id="axes_1">
   <g id="patch_2">
    <path d="M 108 320.4 
L 777.6 320.4 
L 777.6 43.2 
L 108 43.2 
z
" style="fill: #ffffff"/>
   </g>
   <g id="matplotlib.axis_1">
    <g id="xtick_1">
     <g id="line2d_1">
      <defs>
       <path id="m29ef488c85" d="M 0 0 
L 0 3.5 
" style="stroke: #000000; stroke-width: 0.8"/>
      </defs>
      <g>
       <use xlink:href="#m29ef488c85" x="138.436364" y="320.4" style="stroke: #000000; stroke-width: 0.8"/>
      </g>
     </g>
     <g id="text_1">
      <!-- 2022-01-01 -->
      <g transform="translate(109.378551 334.998438) scale(0.1 -0.1)">
       <defs>
        <path id="DejaVuSans-32" d="M 1228 531 
L 3431 531 
L 3431 0 
L 469 0 
L 469 531 
Q 828 903 1448 1529 
Q 2069 2156 2228 2338 
Q 2531 2678 2651 2914 
Q 2772 3150 2772 3378 
Q 2772 3750 2511 3984 
Q 2250 4219 1831 4219 
Q 1534 4219 1204 4116 
Q 875 4013 500 3803 
L 500 4441 
Q 881 4594 1212 4672 
Q 1544 4750 1819 4750 
Q 2544 4750 2975 4387 
Q 3406 4025 3406 3419 
Q 3406 3131 3298 2873 
Q 3191 2616 2906 2266 
Q 2828 2175 2409 1742 
Q 1991 1309 1228 531 
z
" transform="scale(0.015625)"/>
        <path id="DejaVuSans-30" d="M 2034 4250 
Q 1547 4250 1301 3770 
Q 1056 3291 1056 2328 
Q 1056 1369 1301 889 
Q 1547 409 2034 409 
Q 2525 409 2770 889 
Q 3016 1369 3016 2328 
Q 3016 3291 2770 3770 
Q 2525 4250 2034 4250 
z
M 2034 4750 
Q 2819 4750 3233 4129 
Q 3647 3509 3647 2328 
Q 3647 1150 3233 529 
Q 2819 -91 2034 -91 
Q 1250 -91 836 529 
Q 422 1150 422 2328 
Q 422 3509 836 4129 
Q 1250 4750 2034 4750 
z
" transform="scale(0.015625)"/>
        <path id="DejaVuSans-2d" d="M 313 2009 
L 1997 2009 
L 1997 1497 
L 313 1497 
L 313 2009 
z
" transform="scale(0.015625)"/>
        <path id="DejaVuSans-31" d="M 794 531 
L 1825 531 
L 1825 4091 
L 703 3866 
L 703 4441 
L 1819 4666 
L 2450 4666 
L 2450 531 
L 3481 531 
L 3481 0 
L 794 0 
L 794 531 
z
" transform="scale(0.015625)"/>
       </defs>
       <use xlink:href="#DejaVuSans-32"/>
       <use xlink:href="#DejaVuSans-30" x="63.623047"/>
       <use xlink:href="#DejaVuSans-32" x="127.246094"/>
       <use xlink:href="#DejaVuSans-32" x="190.869141"/>
       <use xlink:href="#DejaVuSans-2d" x="254.492188"/>
       <use xlink:href="#DejaVuSans-30" x="290.576172"/>
       <use xlink:href="#DejaVuSans-31" x="354.199219"/>
       <use xlink:href="#DejaVuSans-2d" x="417.822266"/>
       <use xlink:href="#DejaVuSans-30" x="453.90625"/>
       <use xlink:href="#DejaVuSans-31" x="517.529297"/>
      </g>
     </g>
    </g>
    <g id="xtick_2">
     <g id="line2d_2">
      <g>
       <use xlink:href="#m29ef488c85" x="219.712884" y="320.4" style="stroke: #000000; stroke-width: 0.8"/>
      </g>
     </g>
     <g id="text_2">
      <!-- 2022-01-03 -->
      <g transform="translate(190.655072 334.998438) scale(0.1 -0.1)">
       <defs>
        <path id="DejaVuSans-33" d="M 2597 2516 
Q 3050 2419 3304 2112 
Q 3559 1806 3559 1356 
Q 3559 666 3084 287 
Q 2609 -91 1734 -91 
Q 1441 -91 1130 -33 
Q 819 25 488 141 
L 488 750 
Q 750 597 1062 519 
Q 1375 441 1716 441 
Q 2309 441 2620 675 
Q 2931 909 2931 1356 
Q 2931 1769 2642 2001 
Q 2353 2234 1838 2234 
L 1294 2234 
L 1294 2753 
L 1863 2753 
Q 2328 2753 2575 2939 
Q 2822 3125 2822 3475 
Q 2822 3834 2567 4026 
Q 2313 4219 1838 4219 
Q 1578 4219 1281 4162 
Q 984 4106 628 3988 
L 628 4550 
Q 988 4650 1302 4700 
Q 1616 4750 1894 4750 
Q 2613 4750 3031 4423 
Q 3450 4097 3450 3541 
Q 3450 3153 3228 2886 
Q 3006 2619 2597 2516 
z
" transform="scale(0.015625)"/>
       </defs>
       <use xlink:href="#DejaVuSans-32"/>
       <use xlink:href="#DejaVuSans-30" x="63.623047"/>
       <use xlink:href="#DejaVuSans-32" x="127.246094"/>
       <use xlink:href="#DejaVuSans-32" x="190.869141"/>
       <use xlink:href="#DejaVuSans-2d" x="254.492188"/>
       <use xlink:href="#DejaVuSans-30" x="290.576172"/>
       <use xlink:href="#DejaVuSans-31" x="354.199219"/>
       <use xlink:href="#DejaVuSans-2d" x="417.822266"/>
       <use xlink:href="#DejaVuSans-30" x="453.90625"/>
       <use xlink:href="#DejaVuSans-33" x="517.529297"/>
      </g>
     </g>
    </g>
    <g id="xtick_3">
     <g id="line2d_3">
      <g>
       <use xlink:href="#m29ef488c85" x="300.989404" y="320.4" style="stroke: #000000; stroke-width: 0.8"/>
      </g>
     </g>
     <g id="text_3">
      <!-- 2022-01-05 -->
      <g transform="translate(271.931592 334.998438) scale(0.1 -0.1)">
       <defs>
        <path id="DejaVuSans-35" d="M 691 4666 
L 3169 4666 
L 3169 4134 
L 1269 4134 
L 1269 2991 
Q 1406 3038 1543 3061 
Q 1681 3084 1819 3084 
Q 2600 3084 3056 2656 
Q 3513 2228 3513 1497 
Q 3513 744 3044 326 
Q 2575 -91 1722 -91 
Q 1428 -91 1123 -41 
Q 819 9 494 109 
L 494 744 
Q 775 591 1075 516 
Q 1375 441 1709 441 
Q 2250 441 2565 725 
Q 2881 1009 2881 1497 
Q 2881 1984 2565 2268 
Q 2250 2553 1709 2553 
Q 1456 2553 1204 2497 
Q 953 2441 691 2322 
L 691 4666 
z
" transform="scale(0.015625)"/>
       </defs>
       <use xlink:href="#DejaVuSans-32"/>
       <use xlink:href="#DejaVuSans-30" x="63.623047"/>
       <use xlink:href="#DejaVuSans-32" x="127.246094"/>
       <use xlink:href="#DejaVuSans-32" x="190.869141"/>
       <use xlink:href="#DejaVuSans-2d" x="254.492188"/>
       <use xlink:href="#DejaVuSans-30" x="290.576172"/>
       <use xlink:href="#DejaVuSans-31" x="354.199219"/>
       <use xlink:href="#DejaVuSans-2d" x="417.822266"/>
       <use xlink:href="#DejaVuSans-30" x="453.90625"/>
       <use xlink:href="#DejaVuSans-35" x="517.529297"/>
      </g>
     </g>
    </g>
    <g id="xtick_4">
     <g id="line2d_4">
      <g>
       <use xlink:href="#m29ef488c85" x="382.265925" y="320.4" style="stroke: #000000; stroke-width: 0.8"/>
      </g>
     </g>
     <g id="text_4">
      <!-- 2022-01-07 -->
      <g transform="translate(353.208112 334.998438) scale(0.1 -0.1)">
       <defs>
        <path id="DejaVuSans-37" d="M 525 4666 
L 3525 4666 
L 3525 4397 
L 1831 0 
L 1172 0 
L 2766 4134 
L 525 4134 
L 525 4666 
z
" transform="scale(0.015625)"/>
       </defs>
       <use xlink:href="#DejaVuSans-32"/>
       <use xlink:href="#DejaVuSans-30" x="63.623047"/>
       <use xlink:href="#DejaVuSans-32" x="127.246094"/>
       <use xlink:href="#DejaVuSans-32" x="190.869141"/>
       <use xlink:href="#DejaVuSans-2d" x="254.492188"/>
       <use xlink:href="#DejaVuSans-30" x="290.576172"/>
       <use xlink:href="#DejaVuSans-31" x="354.199219"/>
       <use xlink:href="#DejaVuSans-2d" x="417.822266"/>
       <use xlink:href="#DejaVuSans-30" x="453.90625"/>
       <use xlink:href="#DejaVuSans-37" x="517.529297"/>
      </g>
     </g>
    </g>
    <g id="xtick_5">
     <g id="line2d_5">
      <g>
       <use xlink:href="#m29ef488c85" x="463.542445" y="320.4" style="stroke: #000000; stroke-width: 0.8"/>
      </g>
     </g>
     <g id="text_5">
      <!-- 2022-01-09 -->
      <g transform="translate(434.484633 334.998438) scale(0.1 -0.1)">
       <defs>
        <path id="DejaVuSans-39" d="M 703 97 
L 703 672 
Q 941 559 1184 500 
Q 1428 441 1663 441 
Q 2288 441 2617 861 
Q 2947 1281 2994 2138 
Q 2813 1869 2534 1725 
Q 2256 1581 1919 1581 
Q 1219 1581 811 2004 
Q 403 2428 403 3163 
Q 403 3881 828 4315 
Q 1253 4750 1959 4750 
Q 2769 4750 3195 4129 
Q 3622 3509 3622 2328 
Q 3622 1225 3098 567 
Q 2575 -91 1691 -91 
Q 1453 -91 1209 -44 
Q 966 3 703 97 
z
M 1959 2075 
Q 2384 2075 2632 2365 
Q 2881 2656 2881 3163 
Q 2881 3666 2632 3958 
Q 2384 4250 1959 4250 
Q 1534 4250 1286 3958 
Q 1038 3666 1038 3163 
Q 1038 2656 1286 2365 
Q 1534 2075 1959 2075 
z
" transform="scale(0.015625)"/>
       </defs>
       <use xlink:href="#DejaVuSans-32"/>
       <use xlink:href="#DejaVuSans-30" x="63.623047"/>
       <use xlink:href="#DejaVuSans-32" x="127.246094"/>
       <use xlink:href="#DejaVuSans-32" x="190.869141"/>
       <use xlink:href="#DejaVuSans-2d" x="254.492188"/>
       <use xlink:href="#DejaVuSans-30" x="290.576172"/>
       <use xlink:href="#DejaVuSans-31" x="354.199219"/>
       <use xlink:href="#DejaVuSans-2d" x="417.822266"/>
       <use xlink:href="#DejaVuSans-30" x="453.90625"/>
       <use xlink:href="#DejaVuSans-39" x="517.529297"/>
      </g>
     </g>
    </g>
    <g id="xtick_6">
     <g id="line2d_6">
      <g>
       <use xlink:href="#m29ef488c85" x="544.818966" y="320.4" style="stroke: #000000; stroke-width: 0.8"/>
      </g>
     </g>
     <g id="text_6">
      <!-- 2022-01-11 -->
      <g transform="translate(515.761153 334.998438) scale(0.1 -0.1)">
       <use xlink:href="#DejaVuSans-32"/>
       <use xlink:href="#DejaVuSans-30" x="63.623047"/>
       <use xlink:href="#DejaVuSans-32" x="127.246094"/>
       <use xlink:href="#DejaVuSans-32" x="190.869141"/>
       <use xlink:href="#DejaVuSans-2d" x="254.492188"/>
       <use xlink:href="#DejaVuSans-30" x="290.576172"/>
       <use xlink:href="#DejaVuSans-31" x="354.199219"/>
       <use xlink:href="#DejaVuSans-2d" x="417.822266"/>
       <use xlink:href="#DejaVuSans-31" x="453.90625"/>
       <use xlink:href="#DejaVuSans-31" x="517.529297"/>
      </g>
     </g>
    </g>
    <g id="xtick_7">
     <g id="line2d_7">
      <g>
       <use xlink:href="#m29ef488c85" x="626.095486" y="320.4" style="stroke: #000000; stroke-width: 0.8"/>
      </g>
     </g>
     <g id="text_7">
      <!-- 2022-01-13 -->
      <g transform="translate(597.037674 334.998438) scale(0.1 -0.1)">
       <use xlink:href="#DejaVuSans-32"/>
       <use xlink:href="#DejaVuSans-30" x="63.623047"/>
       <use xlink:href="#DejaVuSans-32" x="127.246094"/>
       <use xlink:href="#DejaVuSans-32" x="190.869141"/>
       <use xlink:href="#DejaVuSans-2d" x="254.492188"/>
       <use xlink:href="#DejaVuSans-30" x="290.576172"/>
       <use xlink:href="#DejaVuSans-31" x="354.199219"/>
       <use xlink:href="#DejaVuSans-2d" x="417.822266"/>
       <use xlink:href="#DejaVuSans-31" x="453.90625"/>
       <use xlink:href="#DejaVuSans-33" x="517.529297"/>
      </g>
     </g>
    </g>
    <g id="xtick_8">
     <g id="line2d_8">
      <g>
       <use xlink:href="#m29ef488c85" x="707.372007" y="320.4" style="stroke: #000000; stroke-width: 0.8"/>
      </g>
     </g>
     <g id="text_8">
      <!-- 2022-01-15 -->
      <g transform="translate(678.314194 334.998438) scale(0.1 -0.1)">
       <use xlink:href="#DejaVuSans-32"/>
       <use xlink:href="#DejaVuSans-30" x="63.623047"/>
       <use xlink:href="#DejaVuSans-32" x="127.246094"/>
       <use xlink:href="#DejaVuSans-32" x="190.869141"/>
       <use xlink:href="#DejaVuSans-2d" x="254.492188"/>
       <use xlink:href="#DejaVuSans-30" x="290.576172"/>
       <use xlink:href="#DejaVuSans-31" x="354.199219"/>
       <use xlink:href="#DejaVuSans-2d" x="417.822266"/>
       <use xlink:href="#DejaVuSans-31" x="453.90625"/>
       <use xlink:href="#DejaVuSans-35" x="517.529297"/>
      </g>
     </g>
    </g>
    <g id="text_9">
     <!-- TIME (DAYS) -->
     <g transform="translate(412.283594 348.676562) scale(0.1 -0.1)">
      <defs>
       <path id="DejaVuSans-54" d="M -19 4666 
L 3928 4666 
L 3928 4134 
L 2272 4134 
L 2272 0 
L 1638 0 
L 1638 4134 
L -19 4134 
L -19 4666 
z
" transform="scale(0.015625)"/>
       <path id="DejaVuSans-49" d="M 628 4666 
L 1259 4666 
L 1259 0 
L 628 0 
L 628 4666 
z
" transform="scale(0.015625)"/>
       <path id="DejaVuSans-4d" d="M 628 4666 
L 1569 4666 
L 2759 1491 
L 3956 4666 
L 4897 4666 
L 4897 0 
L 4281 0 
L 4281 4097 
L 3078 897 
L 2444 897 
L 1241 4097 
L 1241 0 
L 628 0 
L 628 4666 
z
" transform="scale(0.015625)"/>
       <path id="DejaVuSans-45" d="M 628 4666 
L 3578 4666 
L 3578 4134 
L 1259 4134 
L 1259 2753 
L 3481 2753 
L 3481 2222 
L 1259 2222 
L 1259 531 
L 3634 531 
L 3634 0 
L 628 0 
L 628 4666 
z
" transform="scale(0.015625)"/>
       <path id="DejaVuSans-20" transform="scale(0.015625)"/>
       <path id="DejaVuSans-28" d="M 1984 4856 
Q 1566 4138 1362 3434 
Q 1159 2731 1159 2009 
Q 1159 1288 1364 580 
Q 1569 -128 1984 -844 
L 1484 -844 
Q 1016 -109 783 600 
Q 550 1309 550 2009 
Q 550 2706 781 3412 
Q 1013 4119 1484 4856 
L 1984 4856 
z
" transform="scale(0.015625)"/>
       <path id="DejaVuSans-44" d="M 1259 4147 
L 1259 519 
L 2022 519 
Q 2988 519 3436 956 
Q 3884 1394 3884 2338 
Q 3884 3275 3436 3711 
Q 2988 4147 2022 4147 
L 1259 4147 
z
M 628 4666 
L 1925 4666 
Q 3281 4666 3915 4102 
Q 4550 3538 4550 2338 
Q 4550 1131 3912 565 
Q 3275 0 1925 0 
L 628 0 
L 628 4666 
z
" transform="scale(0.015625)"/>
       <path id="DejaVuSans-41" d="M 2188 4044 
L 1331 1722 
L 3047 1722 
L 2188 4044 
z
M 1831 4666 
L 2547 4666 
L 4325 0 
L 3669 0 
L 3244 1197 
L 1141 1197 
L 716 0 
L 50 0 
L 1831 4666 
z
" transform="scale(0.015625)"/>
       <path id="DejaVuSans-59" d="M -13 4666 
L 666 4666 
L 1959 2747 
L 3244 4666 
L 3922 4666 
L 2272 2222 
L 2272 0 
L 1638 0 
L 1638 2222 
L -13 4666 
z
" transform="scale(0.015625)"/>
       <path id="DejaVuSans-53" d="M 3425 4513 
L 3425 3897 
Q 3066 4069 2747 4153 
Q 2428 4238 2131 4238 
Q 1616 4238 1336 4038 
Q 1056 3838 1056 3469 
Q 1056 3159 1242 3001 
Q 1428 2844 1947 2747 
L 2328 2669 
Q 3034 2534 3370 2195 
Q 3706 1856 3706 1288 
Q 3706 609 3251 259 
Q 2797 -91 1919 -91 
Q 1588 -91 1214 -16 
Q 841 59 441 206 
L 441 856 
Q 825 641 1194 531 
Q 1563 422 1919 422 
Q 2459 422 2753 634 
Q 3047 847 3047 1241 
Q 3047 1584 2836 1778 
Q 2625 1972 2144 2069 
L 1759 2144 
Q 1053 2284 737 2584 
Q 422 2884 422 3419 
Q 422 4038 858 4394 
Q 1294 4750 2059 4750 
Q 2388 4750 2728 4690 
Q 3069 4631 3425 4513 
z
" transform="scale(0.015625)"/>
       <path id="DejaVuSans-29" d="M 513 4856 
L 1013 4856 
Q 1481 4119 1714 3412 
Q 1947 2706 1947 2009 
Q 1947 1309 1714 600 
Q 1481 -109 1013 -844 
L 513 -844 
Q 928 -128 1133 580 
Q 1338 1288 1338 2009 
Q 1338 2731 1133 3434 
Q 928 4138 513 4856 
z
" transform="scale(0.015625)"/>
      </defs>
      <use xlink:href="#DejaVuSans-54"/>
      <use xlink:href="#DejaVuSans-49" x="61.083984"/>
      <use xlink:href="#DejaVuSans-4d" x="90.576172"/>
      <use xlink:href="#DejaVuSans-45" x="176.855469"/>
      <use xlink:href="#DejaVuSans-20" x="240.039062"/>
      <use xlink:href="#DejaVuSans-28" x="271.826172"/>
      <use xlink:href="#DejaVuSans-44" x="310.839844"/>
      <use xlink:href="#DejaVuSans-41" x="386.091797"/>
      <use xlink:href="#DejaVuSans-59" x="446.75"/>
      <use xlink:href="#DejaVuSans-53" x="507.833984"/>
      <use xlink:href="#DejaVuSans-29" x="571.310547"/>
     </g>
    </g>
   </g>
   <g id="matplotlib.axis_2">
    <g id="ytick_1">
     <g id="line2d_9">
      <defs>
       <path id="m70385c4b18" d="M 0 0 
L -3.5 0 
" style="stroke: #000000; stroke-width: 0.8"/>
      </defs>
      <g>
       <use xlink:href="#m70385c4b18" x="108" y="307.8" style="stroke: #000000; stroke-width: 0.8"/>
      </g>
     </g>
     <g id="text_10">
      <!-- 0 -->
      <g transform="translate(94.6375 311.599219) scale(0.1 -0.1)">
       <use xlink:href="#DejaVuSans-30"/>
      </g>
     </g>
    </g>
    <g id="ytick_2">
     <g id="line2d_10">
      <g>
       <use xlink:href="#m70385c4b18" x="108" y="258.772763" style="stroke: #000000; stroke-width: 0.8"/>
      </g>
     </g>
     <g id="text_11">
      <!-- 50 -->
      <g transform="translate(88.275 262.571981) scale(0.1 -0.1)">
       <use xlink:href="#DejaVuSans-35"/>
       <use xlink:href="#DejaVuSans-30" x="63.623047"/>
      </g>
     </g>
    </g>
    <g id="ytick_3">
     <g id="line2d_11">
      <g>
       <use xlink:href="#m70385c4b18" x="108" y="209.745525" style="stroke: #000000; stroke-width: 0.8"/>
      </g>
     </g>
     <g id="text_12">
      <!-- 100 -->
      <g transform="translate(81.9125 213.544744) scale(0.1 -0.1)">
       <use xlink:href="#DejaVuSans-31"/>
       <use xlink:href="#DejaVuSans-30" x="63.623047"/>
       <use xlink:href="#DejaVuSans-30" x="127.246094"/>
      </g>
     </g>
    </g>
    <g id="ytick_4">
     <g id="line2d_12">
      <g>
       <use xlink:href="#m70385c4b18" x="108" y="160.718288" style="stroke: #000000; stroke-width: 0.8"/>
      </g>
     </g>
     <g id="text_13">
      <!-- 150 -->
      <g transform="translate(81.9125 164.517507) scale(0.1 -0.1)">
       <use xlink:href="#DejaVuSans-31"/>
       <use xlink:href="#DejaVuSans-35" x="63.623047"/>
       <use xlink:href="#DejaVuSans-30" x="127.246094"/>
      </g>
     </g>
    </g>
    <g id="ytick_5">
     <g id="line2d_13">
      <g>
       <use xlink:href="#m70385c4b18" x="108" y="111.691051" style="stroke: #000000; stroke-width: 0.8"/>
      </g>
     </g>
     <g id="text_14">
      <!-- 200 -->
      <g transform="translate(81.9125 115.490269) scale(0.1 -0.1)">
       <use xlink:href="#DejaVuSans-32"/>
       <use xlink:href="#DejaVuSans-30" x="63.623047"/>
       <use xlink:href="#DejaVuSans-30" x="127.246094"/>
      </g>
     </g>
    </g>
    <g id="ytick_6">
     <g id="line2d_14">
      <g>
       <use xlink:href="#m70385c4b18" x="108" y="62.663813" style="stroke: #000000; stroke-width: 0.8"/>
      </g>
     </g>
     <g id="text_15">
      <!-- 250 -->
      <g transform="translate(81.9125 66.463032) scale(0.1 -0.1)">
       <use xlink:href="#DejaVuSans-32"/>
       <use xlink:href="#DejaVuSans-35" x="63.623047"/>
       <use xlink:href="#DejaVuSans-30" x="127.246094"/>
      </g>
     </g>
    </g>
    <g id="text_16">
     <!-- AMPLITUDE -->
     <g transform="translate(75.832812 210.532812) rotate(-90) scale(0.1 -0.1)">
      <defs>
       <path id="DejaVuSans-50" d="M 1259 4147 
L 1259 2394 
L 2053 2394 
Q 2494 2394 2734 2622 
Q 2975 2850 2975 3272 
Q 2975 3691 2734 3919 
Q 2494 4147 2053 4147 
L 1259 4147 
z
M 628 4666 
L 2053 4666 
Q 2838 4666 3239 4311 
Q 3641 3956 3641 3272 
Q 3641 2581 3239 2228 
Q 2838 1875 2053 1875 
L 1259 1875 
L 1259 0 
L 628 0 
L 628 4666 
z
" transform="scale(0.015625)"/>
       <path id="DejaVuSans-4c" d="M 628 4666 
L 1259 4666 
L 1259 531 
L 3531 531 
L 3531 0 
L 628 0 
L 628 4666 
z
" transform="scale(0.015625)"/>
       <path id="DejaVuSans-55" d="M 556 4666 
L 1191 4666 
L 1191 1831 
Q 1191 1081 1462 751 
Q 1734 422 2344 422 
Q 2950 422 3222 751 
Q 3494 1081 3494 1831 
L 3494 4666 
L 4128 4666 
L 4128 1753 
Q 4128 841 3676 375 
Q 3225 -91 2344 -91 
Q 1459 -91 1007 375 
Q 556 841 556 1753 
L 556 4666 
z
" transform="scale(0.015625)"/>
      </defs>
      <use xlink:href="#DejaVuSans-41"/>
      <use xlink:href="#DejaVuSans-4d" x="68.408203"/>
      <use xlink:href="#DejaVuSans-50" x="154.6875"/>
      <use xlink:href="#DejaVuSans-4c" x="214.990234"/>
      <use xlink:href="#DejaVuSans-49" x="270.703125"/>
      <use xlink:href="#DejaVuSans-54" x="300.195312"/>
      <use xlink:href="#DejaVuSans-55" x="361.279297"/>
      <use xlink:href="#DejaVuSans-44" x="434.472656"/>
      <use xlink:href="#DejaVuSans-45" x="511.474609"/>
     </g>
    </g>
   </g>
   <g id="line2d_15">
    <path d="M 138.436364 219.550973 
L 139.282994 307.8 
L 140.129624 307.8 
L 140.976255 288.189105 
L 141.822885 282.305837 
L 142.669516 230.336965 
L 143.516146 307.8 
L 144.362777 307.8 
L 145.209407 296.033463 
L 146.056037 307.8 
L 146.902668 285.247471 
L 147.749298 307.8 
L 148.595929 288.189105 
L 149.442559 287.20856 
L 150.28919 307.8 
L 151.13582 307.8 
L 151.98245 288.189105 
L 152.829081 260.733852 
L 153.675711 307.8 
L 154.522342 260.733852 
L 155.368972 307.8 
L 157.062233 307.8 
L 157.908863 273.480934 
L 158.755494 178.368093 
L 159.602124 307.8 
L 160.448755 237.200778 
L 161.295385 191.115175 
L 162.142015 265.636576 
L 162.988646 221.512062 
L 163.835276 277.403113 
L 164.681907 217.589883 
L 165.528537 78.352529 
L 166.375168 192.09572 
L 167.221798 204.842802 
L 168.068428 128.360311 
L 168.915059 262.694942 
L 169.761689 213.667704 
L 170.60832 254.850584 
L 171.45495 289.16965 
L 172.30158 166.601556 
L 173.148211 200.920623 
L 173.994841 223.473152 
L 174.841472 220.531518 
L 175.688102 212.68716 
L 177.381363 249.94786 
L 178.227993 298.975097 
L 179.074624 269.558755 
L 179.921254 249.94786 
L 180.767885 242.103502 
L 181.614515 281.325292 
L 182.461146 175.426459 
L 183.307776 299.955642 
L 184.154406 269.558755 
L 185.001037 268.57821 
L 185.847667 307.8 
L 186.694298 307.8 
L 187.540928 254.850584 
L 188.387558 307.8 
L 189.234189 260.733852 
L 190.080819 307.8 
L 190.92745 290.150195 
L 191.77408 307.8 
L 192.620711 307.8 
L 193.467341 304.858366 
L 194.313971 260.733852 
L 195.160602 275.442023 
L 196.007232 307.8 
L 196.853863 266.617121 
L 197.700493 279.364202 
L 198.547124 217.589883 
L 199.393754 275.442023 
L 200.240384 80.313619 
L 201.933645 293.091829 
L 202.780276 234.259144 
L 203.626906 154.835019 
L 204.473536 199.940078 
L 205.320167 219.550973 
L 206.166797 179.348638 
L 207.013428 231.31751 
L 207.860058 232.298054 
L 208.706689 307.8 
L 209.553319 207.784436 
L 210.399949 289.16965 
L 211.24658 222.492607 
L 212.09321 237.200778 
L 212.939841 257.792218 
L 213.786471 258.772763 
L 214.633102 204.842802 
L 215.479732 202.881712 
L 216.326362 109.729961 
L 217.172993 307.8 
L 218.019623 234.259144 
L 218.866254 307.8 
L 219.712884 243.084047 
L 220.559514 134.24358 
L 221.406145 276.422568 
L 222.252775 307.8 
L 223.099406 307.8 
L 223.946036 304.858366 
L 224.792667 261.714397 
L 225.639297 307.8 
L 228.179188 307.8 
L 229.025819 304.858366 
L 229.872449 307.8 
L 230.71908 273.480934 
L 231.56571 307.8 
L 232.41234 289.16965 
L 234.105601 307.8 
L 237.492123 307.8 
L 238.338753 267.597665 
L 239.185384 272.500389 
L 240.032014 307.8 
L 240.878645 218.570428 
L 241.725275 219.550973 
L 242.571905 245.045136 
L 243.418536 229.35642 
L 244.265166 219.550973 
L 245.111797 213.667704 
L 245.958427 230.336965 
L 246.805058 203.862257 
L 247.651688 130.321401 
L 248.498318 236.220233 
L 249.344949 148.951751 
L 250.191579 207.784436 
L 251.03821 184.251362 
L 251.88484 112.671595 
L 252.73147 278.383658 
L 254.424731 133.263035 
L 255.271362 240.142412 
L 256.117992 131.301946 
L 256.964623 234.259144 
L 257.811253 307.8 
L 258.657883 212.68716 
L 259.504514 295.052918 
L 260.351144 242.103502 
L 261.197775 298.975097 
L 262.044405 199.940078 
L 262.891036 204.842802 
L 263.737666 252.889494 
L 265.430927 288.189105 
L 266.277557 264.656031 
L 267.124188 307.8 
L 267.970818 270.5393 
L 268.817448 219.550973 
L 269.664079 271.519844 
L 270.510709 238.181323 
L 271.35734 307.8 
L 272.20397 290.150195 
L 273.897231 280.344747 
L 274.743861 307.8 
L 275.590492 238.181323 
L 276.437122 307.8 
L 277.283753 269.558755 
L 278.130383 282.305837 
L 278.977014 254.850584 
L 279.823644 307.8 
L 280.670274 307.8 
L 281.516905 244.064591 
L 282.363535 251.908949 
L 283.210166 231.31751 
L 284.056796 307.8 
L 284.903426 183.270817 
L 285.750057 262.694942 
L 286.596687 136.204669 
L 287.443318 127.379767 
L 288.289948 191.115175 
L 289.136579 307.8 
L 289.983209 307.8 
L 290.829839 193.076265 
L 291.67647 163.659922 
L 292.5231 291.130739 
L 293.369731 223.473152 
L 294.216361 191.115175 
L 295.062992 275.442023 
L 295.909622 210.72607 
L 296.756252 168.562646 
L 297.602883 229.35642 
L 298.449513 192.09572 
L 299.296144 236.220233 
L 300.142774 168.562646 
L 300.989404 271.519844 
L 301.836035 261.714397 
L 302.682665 236.220233 
L 303.529296 265.636576 
L 304.375926 304.858366 
L 305.222557 219.550973 
L 306.069187 299.955642 
L 306.915817 221.512062 
L 307.762448 274.461479 
L 308.609078 210.72607 
L 309.455709 209.745525 
L 310.302339 307.8 
L 311.14897 283.286381 
L 311.9956 307.8 
L 312.84223 298.975097 
L 313.688861 307.8 
L 315.382122 307.8 
L 316.228752 300.936187 
L 317.075382 252.889494 
L 317.922013 290.150195 
L 318.768643 307.8 
L 319.615274 221.512062 
L 321.308535 307.8 
L 322.155165 281.325292 
L 323.001795 265.636576 
L 323.848426 288.189105 
L 324.695056 235.239689 
L 325.541687 141.107393 
L 326.388317 139.146304 
L 327.234948 307.8 
L 328.081578 278.383658 
L 328.928208 288.189105 
L 329.774839 152.87393 
L 330.621469 186.212451 
L 331.4681 307.8 
L 332.31473 139.146304 
L 333.16136 123.457588 
L 334.007991 134.24358 
L 334.854621 214.648249 
L 335.701252 307.8 
L 336.547882 307.8 
L 337.394513 235.239689 
L 338.241143 194.056809 
L 339.087773 138.165759 
L 339.934404 255.831128 
L 340.781034 249.94786 
L 341.627665 130.321401 
L 343.320926 307.8 
L 344.167556 104.827237 
L 345.014186 285.247471 
L 345.860817 307.8 
L 346.707447 267.597665 
L 347.554078 307.8 
L 348.400708 211.706615 
L 349.247338 307.8 
L 350.940599 307.8 
L 351.78723 218.570428 
L 352.63386 285.247471 
L 353.480491 307.8 
L 355.173751 307.8 
L 356.020382 291.130739 
L 356.867012 229.35642 
L 358.560273 264.656031 
L 359.406904 307.8 
L 361.100164 307.8 
L 361.946795 266.617121 
L 362.793425 235.239689 
L 363.640056 231.31751 
L 364.486686 242.103502 
L 365.333316 196.017899 
L 366.179947 307.8 
L 367.026577 301.916732 
L 367.873208 272.500389 
L 368.719838 307.8 
L 369.566469 216.609339 
L 370.413099 160.718288 
L 371.259729 201.901167 
L 372.10636 278.383658 
L 372.95299 144.049027 
L 373.799621 275.442023 
L 374.646251 220.531518 
L 375.492882 244.064591 
L 376.339512 255.831128 
L 377.186142 188.173541 
L 378.032773 257.792218 
L 378.879403 167.582101 
L 379.726034 307.8 
L 380.572664 269.558755 
L 381.419294 306.819455 
L 382.265925 223.473152 
L 383.112555 235.239689 
L 383.959186 270.5393 
L 384.805816 236.220233 
L 385.652447 307.8 
L 386.499077 307.8 
L 387.345707 196.017899 
L 388.192338 267.597665 
L 389.038968 281.325292 
L 389.885599 302.897276 
L 390.732229 287.20856 
L 391.57886 276.422568 
L 392.42549 242.103502 
L 393.27212 307.8 
L 396.658642 307.8 
L 397.505272 213.667704 
L 398.351903 307.8 
L 399.198533 285.247471 
L 400.045164 307.8 
L 400.891794 229.35642 
L 401.738425 307.8 
L 402.585055 226.414786 
L 403.431685 232.298054 
L 404.278316 250.928405 
L 405.124946 254.850584 
L 405.971577 305.838911 
L 406.818207 215.628794 
L 407.664838 305.838911 
L 408.511468 293.091829 
L 409.358098 271.519844 
L 410.204729 240.142412 
L 411.051359 193.076265 
L 411.89799 292.111284 
L 412.74462 300.936187 
L 413.59125 197.978988 
L 414.437881 196.017899 
L 415.284511 94.041245 
L 416.131142 218.570428 
L 416.977772 275.442023 
L 417.824403 218.570428 
L 418.671033 288.189105 
L 419.517663 307.8 
L 420.364294 303.877821 
L 421.210924 211.706615 
L 422.057555 255.831128 
L 422.904185 227.395331 
L 423.750816 307.8 
L 424.597446 218.570428 
L 425.444076 209.745525 
L 426.290707 192.09572 
L 427.137337 307.8 
L 427.983968 183.270817 
L 428.830598 239.161868 
L 429.677228 221.512062 
L 430.523859 273.480934 
L 431.370489 307.8 
L 432.21712 305.838911 
L 433.06375 307.8 
L 433.910381 190.13463 
L 434.757011 300.936187 
L 435.603641 307.8 
L 436.450272 279.364202 
L 437.296902 307.8 
L 438.143533 304.858366 
L 438.990163 258.772763 
L 439.836794 239.161868 
L 440.683424 307.8 
L 441.530054 307.8 
L 442.376685 258.772763 
L 443.223315 307.8 
L 444.069946 305.838911 
L 444.916576 249.94786 
L 445.763206 307.8 
L 446.609837 228.375875 
L 447.456467 97.963424 
L 448.303098 212.68716 
L 449.149728 217.589883 
L 449.996359 263.675486 
L 450.842989 206.803891 
L 451.689619 222.492607 
L 452.53625 196.017899 
L 453.38288 307.8 
L 455.076141 158.757198 
L 455.922772 137.185214 
L 456.769402 307.8 
L 458.462663 207.784436 
L 459.309293 184.251362 
L 460.155924 207.784436 
L 461.002554 137.185214 
L 461.849184 219.550973 
L 462.695815 187.192996 
L 463.542445 253.870039 
L 464.389076 260.733852 
L 465.235706 287.20856 
L 466.082337 285.247471 
L 466.928967 208.764981 
L 467.775597 291.130739 
L 468.622228 270.5393 
L 469.468858 289.16965 
L 470.315489 278.383658 
L 471.162119 241.122957 
L 472.00875 307.8 
L 472.85538 193.076265 
L 473.70201 233.278599 
L 474.548641 304.858366 
L 475.395271 273.480934 
L 476.241902 307.8 
L 477.088532 232.298054 
L 477.935162 307.8 
L 480.475054 307.8 
L 481.321684 218.570428 
L 482.168315 307.8 
L 483.014945 260.733852 
L 483.861575 297.994553 
L 484.708206 209.745525 
L 485.554836 289.16965 
L 486.401467 187.192996 
L 487.248097 307.8 
L 488.094728 266.617121 
L 488.941358 246.025681 
L 489.787988 177.387549 
L 490.634619 280.344747 
L 491.481249 307.8 
L 492.32788 272.500389 
L 493.17451 279.364202 
L 494.02114 220.531518 
L 494.867771 221.512062 
L 495.714401 195.037354 
L 496.561032 193.076265 
L 497.407662 55.8 
L 498.254293 122.477043 
L 499.100923 295.052918 
L 499.947553 193.076265 
L 500.794184 292.111284 
L 501.640814 256.811673 
L 502.487445 238.181323 
L 503.334075 196.998444 
L 504.180706 251.908949 
L 505.027336 196.017899 
L 505.873966 132.28249 
L 506.720597 193.076265 
L 507.567227 291.130739 
L 508.413858 260.733852 
L 509.260488 250.928405 
L 510.107118 296.033463 
L 510.953749 307.8 
L 511.800379 307.8 
L 512.64701 180.329183 
L 513.49364 307.8 
L 514.340271 220.531518 
L 515.186901 280.344747 
L 516.033531 307.8 
L 518.573423 307.8 
L 519.420053 300.936187 
L 520.266684 307.8 
L 521.113314 248.967315 
L 521.959944 307.8 
L 522.806575 307.8 
L 523.653205 296.033463 
L 524.499836 297.994553 
L 525.346466 242.103502 
L 526.193096 307.8 
L 527.039727 307.8 
L 527.886357 185.231907 
L 528.732988 256.811673 
L 529.579618 190.13463 
L 530.426249 184.251362 
L 531.272879 215.628794 
L 532.119509 240.142412 
L 532.96614 292.111284 
L 533.81277 233.278599 
L 534.659401 235.239689 
L 535.506031 146.010117 
L 536.352662 281.325292 
L 537.199292 260.733852 
L 538.045922 287.20856 
L 538.892553 163.659922 
L 539.739183 237.200778 
L 540.585814 156.796109 
L 541.432444 187.192996 
L 542.279074 293.091829 
L 543.125705 184.251362 
L 543.972335 228.375875 
L 544.818966 230.336965 
L 545.665596 189.154086 
L 546.512227 277.403113 
L 547.358857 251.908949 
L 548.205487 206.803891 
L 549.052118 218.570428 
L 549.898748 251.908949 
L 550.745379 240.142412 
L 551.592009 307.8 
L 552.43864 307.8 
L 553.28527 280.344747 
L 554.1319 219.550973 
L 554.978531 266.617121 
L 555.825161 291.130739 
L 556.671792 284.266926 
L 557.518422 241.122957 
L 558.365052 269.558755 
L 559.211683 307.8 
L 560.904944 307.8 
L 561.751574 286.228016 
L 562.598205 248.967315 
L 563.444835 256.811673 
L 564.291465 297.994553 
L 565.138096 227.395331 
L 565.984726 213.667704 
L 566.831357 232.298054 
L 567.677987 238.181323 
L 568.524618 179.348638 
L 569.371248 244.064591 
L 570.217878 289.16965 
L 571.064509 307.8 
L 571.911139 262.694942 
L 572.75777 307.8 
L 573.6044 294.072374 
L 574.45103 259.753307 
L 575.297661 181.309728 
L 576.144291 245.045136 
L 576.990922 268.57821 
L 577.837552 202.881712 
L 578.684183 104.827237 
L 579.530813 288.189105 
L 580.377443 181.309728 
L 581.224074 279.364202 
L 582.070704 118.554864 
L 582.917335 187.192996 
L 583.763965 238.181323 
L 584.610596 226.414786 
L 585.457226 299.955642 
L 586.303856 86.196887 
L 587.150487 215.628794 
L 587.997117 196.017899 
L 588.843748 209.745525 
L 589.690378 202.881712 
L 590.537008 303.877821 
L 591.383639 281.325292 
L 592.230269 286.228016 
L 593.0769 307.8 
L 594.770161 161.698833 
L 595.616791 258.772763 
L 596.463421 300.936187 
L 597.310052 288.189105 
L 598.156682 307.8 
L 599.003313 194.056809 
L 599.849943 307.8 
L 600.696574 268.57821 
L 601.543204 241.122957 
L 602.389834 307.8 
L 603.236465 307.8 
L 604.083095 276.422568 
L 604.929726 307.8 
L 605.776356 307.8 
L 606.622986 264.656031 
L 607.469617 265.636576 
L 608.316247 307.8 
L 610.009508 307.8 
L 610.856139 295.052918 
L 611.702769 284.266926 
L 612.549399 307.8 
L 613.39603 307.8 
L 614.24266 139.146304 
L 615.089291 307.8 
L 615.935921 225.434241 
L 616.782552 285.247471 
L 617.629182 269.558755 
L 618.475812 262.694942 
L 619.322443 307.8 
L 620.169073 248.967315 
L 621.015704 253.870039 
L 621.862334 227.395331 
L 622.708964 146.990661 
L 623.555595 95.02179 
L 624.402225 118.554864 
L 625.248856 119.535409 
L 626.095486 175.426459 
L 626.942117 147.971206 
L 627.788747 160.718288 
L 628.635377 256.811673 
L 629.482008 278.383658 
L 630.328638 307.8 
L 631.175269 174.445914 
L 632.021899 253.870039 
L 632.86853 105.807782 
L 633.71516 307.8 
L 634.56179 235.239689 
L 635.408421 206.803891 
L 636.255051 264.656031 
L 637.101682 246.025681 
L 637.948312 203.862257 
L 638.794942 282.305837 
L 639.641573 244.064591 
L 640.488203 258.772763 
L 641.334834 246.025681 
L 642.181464 293.091829 
L 643.028095 307.8 
L 643.874725 250.928405 
L 644.721355 239.161868 
L 645.567986 307.8 
L 646.414616 249.94786 
L 647.261247 282.305837 
L 648.107877 307.8 
L 648.954508 307.8 
L 649.801138 253.870039 
L 650.647768 227.395331 
L 651.494399 307.8 
L 652.341029 273.480934 
L 653.18766 307.8 
L 654.03429 204.842802 
L 654.88092 277.403113 
L 655.727551 307.8 
L 656.574181 262.694942 
L 657.420812 261.714397 
L 658.267442 303.877821 
L 659.114073 307.8 
L 659.960703 307.8 
L 660.807333 212.68716 
L 661.653964 229.35642 
L 662.500594 266.617121 
L 663.347225 275.442023 
L 664.193855 223.473152 
L 665.040486 201.901167 
L 665.887116 105.807782 
L 666.733746 145.029572 
L 667.580377 307.8 
L 668.427007 144.049027 
L 669.273638 281.325292 
L 670.120268 239.161868 
L 670.966898 191.115175 
L 671.813529 164.640467 
L 673.50679 275.442023 
L 674.35342 234.259144 
L 675.200051 255.831128 
L 676.046681 264.656031 
L 676.893311 213.667704 
L 677.739942 245.045136 
L 678.586572 195.037354 
L 679.433203 168.562646 
L 680.279833 183.270817 
L 681.126464 254.850584 
L 681.973094 241.122957 
L 682.819724 307.8 
L 688.746137 307.8 
L 689.592768 290.150195 
L 691.286029 307.8 
L 692.132659 302.897276 
L 692.979289 268.57821 
L 693.82592 307.8 
L 694.67255 299.955642 
L 695.519181 307.8 
L 696.365811 208.764981 
L 697.212442 307.8 
L 698.059072 246.025681 
L 698.905702 125.418677 
L 699.752333 202.881712 
L 700.598963 181.309728 
L 701.445594 256.811673 
L 702.292224 203.862257 
L 703.138854 226.414786 
L 703.985485 148.951751 
L 704.832115 182.290272 
L 705.678746 261.714397 
L 706.525376 224.453696 
L 707.372007 218.570428 
L 708.218637 175.426459 
L 709.065267 154.835019 
L 709.911898 106.788327 
L 710.758528 165.621012 
L 711.605159 270.5393 
L 712.451789 254.850584 
L 713.29842 166.601556 
L 714.14505 238.181323 
L 714.99168 292.111284 
L 715.838311 184.251362 
L 716.684941 169.543191 
L 717.531572 94.041245 
L 718.378202 252.889494 
L 719.224832 249.94786 
L 720.071463 215.628794 
L 720.918093 272.500389 
L 721.764724 279.364202 
L 722.611354 230.336965 
L 723.457985 256.811673 
L 724.304615 307.8 
L 725.151245 307.8 
L 725.997876 266.617121 
L 726.844506 307.8 
L 727.691137 307.8 
L 728.537767 247.006226 
L 729.384398 307.8 
L 730.231028 307.8 
L 731.077658 297.014008 
L 731.924289 307.8 
L 732.770919 295.052918 
L 733.61755 285.247471 
L 734.46418 249.94786 
L 735.31081 246.025681 
L 736.157441 297.994553 
L 737.004071 222.492607 
L 737.850702 307.8 
L 738.697332 307.8 
L 739.543963 298.975097 
L 740.390593 307.8 
L 741.237223 307.8 
L 742.083854 239.161868 
L 742.930484 261.714397 
L 743.777115 270.5393 
L 744.623745 228.375875 
L 745.470376 173.46537 
L 746.317006 239.161868 
L 747.163636 192.09572 
L 747.163636 192.09572 
" clip-path="url(#p41a466a0cf)" style="fill: none; stroke: #191970; stroke-width: 2; stroke-linecap: square"/>
   </g>
   <g id="patch_3">
    <path d="M 108 320.4 
L 108 43.2 
" style="fill: none; stroke: #000000; stroke-width: 0.8; stroke-linejoin: miter; stroke-linecap: square"/>
   </g>
   <g id="patch_4">
    <path d="M 777.6 320.4 
L 777.6 43.2 
" style="fill: none; stroke: #000000; stroke-width: 0.8; stroke-linejoin: miter; stroke-linecap: square"/>
   </g>
   <g id="patch_5">
    <path d="M 108 320.4 
L 777.6 320.4 
" style="fill: none; stroke: #000000; stroke-width: 0.8; stroke-linejoin: miter; stroke-linecap: square"/>
   </g>
   <g id="patch_6">
    <path d="M 108 43.2 
L 777.6 43.2 
" style="fill: none; stroke: #000000; stroke-width: 0.8; stroke-linejoin: miter; stroke-linecap: square"/>
   </g>
   <g id="text_17">
    <!-- TIME SERIES -->
    <g transform="translate(405.350625 37.2) scale(0.12 -0.12)">
     <defs>
      <path id="DejaVuSans-52" d="M 2841 2188 
Q 3044 2119 3236 1894 
Q 3428 1669 3622 1275 
L 4263 0 
L 3584 0 
L 2988 1197 
Q 2756 1666 2539 1819 
Q 2322 1972 1947 1972 
L 1259 1972 
L 1259 0 
L 628 0 
L 628 4666 
L 2053 4666 
Q 2853 4666 3247 4331 
Q 3641 3997 3641 3322 
Q 3641 2881 3436 2590 
Q 3231 2300 2841 2188 
z
M 1259 4147 
L 1259 2491 
L 2053 2491 
Q 2509 2491 2742 2702 
Q 2975 2913 2975 3322 
Q 2975 3731 2742 3939 
Q 2509 4147 2053 4147 
L 1259 4147 
z
" transform="scale(0.015625)"/>
     </defs>
     <use xlink:href="#DejaVuSans-54"/>
     <use xlink:href="#DejaVuSans-49" x="61.083984"/>
     <use xlink:href="#DejaVuSans-4d" x="90.576172"/>
     <use xlink:href="#DejaVuSans-45" x="176.855469"/>
     <use xlink:href="#DejaVuSans-20" x="240.039062"/>
     <use xlink:href="#DejaVuSans-53" x="271.826172"/>
     <use xlink:href="#DejaVuSans-45" x="335.302734"/>
     <use xlink:href="#DejaVuSans-52" x="398.486328"/>
     <use xlink:href="#DejaVuSans-49" x="467.96875"/>
     <use xlink:href="#DejaVuSans-45" x="497.460938"/>
     <use xlink:href="#DejaVuSans-53" x="560.644531"/>
    </g>
   </g>
  </g>
 </g>
 <defs>
  <clipPath id="p41a466a0cf">
   <rect x="108" y="43.2" width="669.6" height="277.2"/>
  </clipPath>
 </defs>
</svg>
