<?xml version="1.0" encoding="utf-8" standalone="no"?>
<!DOCTYPE svg PUBLIC "-//W3C//DTD SVG 1.1//EN"
  "http://www.w3.org/Graphics/SVG/1.1/DTD/svg11.dtd">
<svg xmlns:xlink="http://www.w3.org/1999/xlink" width="864pt" height="360pt" viewBox="0 0 864 360" xmlns="http://www.w3.org/2000/svg" version="1.1">
 <metadata>
  <rdf:RDF xmlns:dc="http://purl.org/dc/elements/1.1/" xmlns:cc="http://creativecommons.org/ns#" xmlns:rdf="http://www.w3.org/1999/02/22-rdf-syntax-ns#">
   <cc:Work>
    <dc:type rdf:resource="http://purl.org/dc/dcmitype/StillImage"/>
    <dc:date>2023-11-07T11:05:10.734001</dc:date>
    <dc:format>image/svg+xml</dc:format>
    <dc:creator>
     <cc:Agent>
      <dc:title>Matplotlib v3.7.1, https://matplotlib.org/</dc:title>
     </cc:Agent>
    </dc:creator>
   </cc:Work>
  </rdf:RDF>
 </metadata>
 <defs>
  <style type="text/css">*{stroke-linejoin: round; stroke-linecap: butt}</style>
 </defs>
 <g id="figure_1">
  <g id="patch_1">
   <path d="M 0 360 
L 864 360 
L 864 0 
L 0 0 
z
" style="fill: #ffffff"/>
  </g>
  <g id="axes_1">
   <g id="patch_2">
    <path d="M 108 320.4 
L 777.6 320.4 
L 777.6 43.2 
L 108 43.2 
z
" style="fill: #ffffff"/>
   </g>
   <g id="matplotlib.axis_1">
    <g id="xtick_1">
     <g id="line2d_1">
      <defs>
       <path id="maf0b1178cb" d="M 0 0 
L 0 3.5 
" style="stroke: #000000; stroke-width: 0.8"/>
      </defs>
      <g>
       <use xlink:href="#maf0b1178cb" x="138.436364" y="320.4" style="stroke: #000000; stroke-width: 0.8"/>
      </g>
     </g>
     <g id="text_1">
      <!-- 2022-01-01 -->
      <g transform="translate(109.378551 334.998438) scale(0.1 -0.1)">
       <defs>
        <path id="DejaVuSans-32" d="M 1228 531 
L 3431 531 
L 3431 0 
L 469 0 
L 469 531 
Q 828 903 1448 1529 
Q 2069 2156 2228 2338 
Q 2531 2678 2651 2914 
Q 2772 3150 2772 3378 
Q 2772 3750 2511 3984 
Q 2250 4219 1831 4219 
Q 1534 4219 1204 4116 
Q 875 4013 500 3803 
L 500 4441 
Q 881 4594 1212 4672 
Q 1544 4750 1819 4750 
Q 2544 4750 2975 4387 
Q 3406 4025 3406 3419 
Q 3406 3131 3298 2873 
Q 3191 2616 2906 2266 
Q 2828 2175 2409 1742 
Q 1991 1309 1228 531 
z
" transform="scale(0.015625)"/>
        <path id="DejaVuSans-30" d="M 2034 4250 
Q 1547 4250 1301 3770 
Q 1056 3291 1056 2328 
Q 1056 1369 1301 889 
Q 1547 409 2034 409 
Q 2525 409 2770 889 
Q 3016 1369 3016 2328 
Q 3016 3291 2770 3770 
Q 2525 4250 2034 4250 
z
M 2034 4750 
Q 2819 4750 3233 4129 
Q 3647 3509 3647 2328 
Q 3647 1150 3233 529 
Q 2819 -91 2034 -91 
Q 1250 -91 836 529 
Q 422 1150 422 2328 
Q 422 3509 836 4129 
Q 1250 4750 2034 4750 
z
" transform="scale(0.015625)"/>
        <path id="DejaVuSans-2d" d="M 313 2009 
L 1997 2009 
L 1997 1497 
L 313 1497 
L 313 2009 
z
" transform="scale(0.015625)"/>
        <path id="DejaVuSans-31" d="M 794 531 
L 1825 531 
L 1825 4091 
L 703 3866 
L 703 4441 
L 1819 4666 
L 2450 4666 
L 2450 531 
L 3481 531 
L 3481 0 
L 794 0 
L 794 531 
z
" transform="scale(0.015625)"/>
       </defs>
       <use xlink:href="#DejaVuSans-32"/>
       <use xlink:href="#DejaVuSans-30" x="63.623047"/>
       <use xlink:href="#DejaVuSans-32" x="127.246094"/>
       <use xlink:href="#DejaVuSans-32" x="190.869141"/>
       <use xlink:href="#DejaVuSans-2d" x="254.492188"/>
       <use xlink:href="#DejaVuSans-30" x="290.576172"/>
       <use xlink:href="#DejaVuSans-31" x="354.199219"/>
       <use xlink:href="#DejaVuSans-2d" x="417.822266"/>
       <use xlink:href="#DejaVuSans-30" x="453.90625"/>
       <use xlink:href="#DejaVuSans-31" x="517.529297"/>
      </g>
     </g>
    </g>
    <g id="xtick_2">
     <g id="line2d_2">
      <g>
       <use xlink:href="#maf0b1178cb" x="219.712884" y="320.4" style="stroke: #000000; stroke-width: 0.8"/>
      </g>
     </g>
     <g id="text_2">
      <!-- 2022-01-03 -->
      <g transform="translate(190.655072 334.998438) scale(0.1 -0.1)">
       <defs>
        <path id="DejaVuSans-33" d="M 2597 2516 
Q 3050 2419 3304 2112 
Q 3559 1806 3559 1356 
Q 3559 666 3084 287 
Q 2609 -91 1734 -91 
Q 1441 -91 1130 -33 
Q 819 25 488 141 
L 488 750 
Q 750 597 1062 519 
Q 1375 441 1716 441 
Q 2309 441 2620 675 
Q 2931 909 2931 1356 
Q 2931 1769 2642 2001 
Q 2353 2234 1838 2234 
L 1294 2234 
L 1294 2753 
L 1863 2753 
Q 2328 2753 2575 2939 
Q 2822 3125 2822 3475 
Q 2822 3834 2567 4026 
Q 2313 4219 1838 4219 
Q 1578 4219 1281 4162 
Q 984 4106 628 3988 
L 628 4550 
Q 988 4650 1302 4700 
Q 1616 4750 1894 4750 
Q 2613 4750 3031 4423 
Q 3450 4097 3450 3541 
Q 3450 3153 3228 2886 
Q 3006 2619 2597 2516 
z
" transform="scale(0.015625)"/>
       </defs>
       <use xlink:href="#DejaVuSans-32"/>
       <use xlink:href="#DejaVuSans-30" x="63.623047"/>
       <use xlink:href="#DejaVuSans-32" x="127.246094"/>
       <use xlink:href="#DejaVuSans-32" x="190.869141"/>
       <use xlink:href="#DejaVuSans-2d" x="254.492188"/>
       <use xlink:href="#DejaVuSans-30" x="290.576172"/>
       <use xlink:href="#DejaVuSans-31" x="354.199219"/>
       <use xlink:href="#DejaVuSans-2d" x="417.822266"/>
       <use xlink:href="#DejaVuSans-30" x="453.90625"/>
       <use xlink:href="#DejaVuSans-33" x="517.529297"/>
      </g>
     </g>
    </g>
    <g id="xtick_3">
     <g id="line2d_3">
      <g>
       <use xlink:href="#maf0b1178cb" x="300.989404" y="320.4" style="stroke: #000000; stroke-width: 0.8"/>
      </g>
     </g>
     <g id="text_3">
      <!-- 2022-01-05 -->
      <g transform="translate(271.931592 334.998438) scale(0.1 -0.1)">
       <defs>
        <path id="DejaVuSans-35" d="M 691 4666 
L 3169 4666 
L 3169 4134 
L 1269 4134 
L 1269 2991 
Q 1406 3038 1543 3061 
Q 1681 3084 1819 3084 
Q 2600 3084 3056 2656 
Q 3513 2228 3513 1497 
Q 3513 744 3044 326 
Q 2575 -91 1722 -91 
Q 1428 -91 1123 -41 
Q 819 9 494 109 
L 494 744 
Q 775 591 1075 516 
Q 1375 441 1709 441 
Q 2250 441 2565 725 
Q 2881 1009 2881 1497 
Q 2881 1984 2565 2268 
Q 2250 2553 1709 2553 
Q 1456 2553 1204 2497 
Q 953 2441 691 2322 
L 691 4666 
z
" transform="scale(0.015625)"/>
       </defs>
       <use xlink:href="#DejaVuSans-32"/>
       <use xlink:href="#DejaVuSans-30" x="63.623047"/>
       <use xlink:href="#DejaVuSans-32" x="127.246094"/>
       <use xlink:href="#DejaVuSans-32" x="190.869141"/>
       <use xlink:href="#DejaVuSans-2d" x="254.492188"/>
       <use xlink:href="#DejaVuSans-30" x="290.576172"/>
       <use xlink:href="#DejaVuSans-31" x="354.199219"/>
       <use xlink:href="#DejaVuSans-2d" x="417.822266"/>
       <use xlink:href="#DejaVuSans-30" x="453.90625"/>
       <use xlink:href="#DejaVuSans-35" x="517.529297"/>
      </g>
     </g>
    </g>
    <g id="xtick_4">
     <g id="line2d_4">
      <g>
       <use xlink:href="#maf0b1178cb" x="382.265925" y="320.4" style="stroke: #000000; stroke-width: 0.8"/>
      </g>
     </g>
     <g id="text_4">
      <!-- 2022-01-07 -->
      <g transform="translate(353.208112 334.998438) scale(0.1 -0.1)">
       <defs>
        <path id="DejaVuSans-37" d="M 525 4666 
L 3525 4666 
L 3525 4397 
L 1831 0 
L 1172 0 
L 2766 4134 
L 525 4134 
L 525 4666 
z
" transform="scale(0.015625)"/>
       </defs>
       <use xlink:href="#DejaVuSans-32"/>
       <use xlink:href="#DejaVuSans-30" x="63.623047"/>
       <use xlink:href="#DejaVuSans-32" x="127.246094"/>
       <use xlink:href="#DejaVuSans-32" x="190.869141"/>
       <use xlink:href="#DejaVuSans-2d" x="254.492188"/>
       <use xlink:href="#DejaVuSans-30" x="290.576172"/>
       <use xlink:href="#DejaVuSans-31" x="354.199219"/>
       <use xlink:href="#DejaVuSans-2d" x="417.822266"/>
       <use xlink:href="#DejaVuSans-30" x="453.90625"/>
       <use xlink:href="#DejaVuSans-37" x="517.529297"/>
      </g>
     </g>
    </g>
    <g id="xtick_5">
     <g id="line2d_5">
      <g>
       <use xlink:href="#maf0b1178cb" x="463.542445" y="320.4" style="stroke: #000000; stroke-width: 0.8"/>
      </g>
     </g>
     <g id="text_5">
      <!-- 2022-01-09 -->
      <g transform="translate(434.484633 334.998438) scale(0.1 -0.1)">
       <defs>
        <path id="DejaVuSans-39" d="M 703 97 
L 703 672 
Q 941 559 1184 500 
Q 1428 441 1663 441 
Q 2288 441 2617 861 
Q 2947 1281 2994 2138 
Q 2813 1869 2534 1725 
Q 2256 1581 1919 1581 
Q 1219 1581 811 2004 
Q 403 2428 403 3163 
Q 403 3881 828 4315 
Q 1253 4750 1959 4750 
Q 2769 4750 3195 4129 
Q 3622 3509 3622 2328 
Q 3622 1225 3098 567 
Q 2575 -91 1691 -91 
Q 1453 -91 1209 -44 
Q 966 3 703 97 
z
M 1959 2075 
Q 2384 2075 2632 2365 
Q 2881 2656 2881 3163 
Q 2881 3666 2632 3958 
Q 2384 4250 1959 4250 
Q 1534 4250 1286 3958 
Q 1038 3666 1038 3163 
Q 1038 2656 1286 2365 
Q 1534 2075 1959 2075 
z
" transform="scale(0.015625)"/>
       </defs>
       <use xlink:href="#DejaVuSans-32"/>
       <use xlink:href="#DejaVuSans-30" x="63.623047"/>
       <use xlink:href="#DejaVuSans-32" x="127.246094"/>
       <use xlink:href="#DejaVuSans-32" x="190.869141"/>
       <use xlink:href="#DejaVuSans-2d" x="254.492188"/>
       <use xlink:href="#DejaVuSans-30" x="290.576172"/>
       <use xlink:href="#DejaVuSans-31" x="354.199219"/>
       <use xlink:href="#DejaVuSans-2d" x="417.822266"/>
       <use xlink:href="#DejaVuSans-30" x="453.90625"/>
       <use xlink:href="#DejaVuSans-39" x="517.529297"/>
      </g>
     </g>
    </g>
    <g id="xtick_6">
     <g id="line2d_6">
      <g>
       <use xlink:href="#maf0b1178cb" x="544.818966" y="320.4" style="stroke: #000000; stroke-width: 0.8"/>
      </g>
     </g>
     <g id="text_6">
      <!-- 2022-01-11 -->
      <g transform="translate(515.761153 334.998438) scale(0.1 -0.1)">
       <use xlink:href="#DejaVuSans-32"/>
       <use xlink:href="#DejaVuSans-30" x="63.623047"/>
       <use xlink:href="#DejaVuSans-32" x="127.246094"/>
       <use xlink:href="#DejaVuSans-32" x="190.869141"/>
       <use xlink:href="#DejaVuSans-2d" x="254.492188"/>
       <use xlink:href="#DejaVuSans-30" x="290.576172"/>
       <use xlink:href="#DejaVuSans-31" x="354.199219"/>
       <use xlink:href="#DejaVuSans-2d" x="417.822266"/>
       <use xlink:href="#DejaVuSans-31" x="453.90625"/>
       <use xlink:href="#DejaVuSans-31" x="517.529297"/>
      </g>
     </g>
    </g>
    <g id="xtick_7">
     <g id="line2d_7">
      <g>
       <use xlink:href="#maf0b1178cb" x="626.095486" y="320.4" style="stroke: #000000; stroke-width: 0.8"/>
      </g>
     </g>
     <g id="text_7">
      <!-- 2022-01-13 -->
      <g transform="translate(597.037674 334.998438) scale(0.1 -0.1)">
       <use xlink:href="#DejaVuSans-32"/>
       <use xlink:href="#DejaVuSans-30" x="63.623047"/>
       <use xlink:href="#DejaVuSans-32" x="127.246094"/>
       <use xlink:href="#DejaVuSans-32" x="190.869141"/>
       <use xlink:href="#DejaVuSans-2d" x="254.492188"/>
       <use xlink:href="#DejaVuSans-30" x="290.576172"/>
       <use xlink:href="#DejaVuSans-31" x="354.199219"/>
       <use xlink:href="#DejaVuSans-2d" x="417.822266"/>
       <use xlink:href="#DejaVuSans-31" x="453.90625"/>
       <use xlink:href="#DejaVuSans-33" x="517.529297"/>
      </g>
     </g>
    </g>
    <g id="xtick_8">
     <g id="line2d_8">
      <g>
       <use xlink:href="#maf0b1178cb" x="707.372007" y="320.4" style="stroke: #000000; stroke-width: 0.8"/>
      </g>
     </g>
     <g id="text_8">
      <!-- 2022-01-15 -->
      <g transform="translate(678.314194 334.998438) scale(0.1 -0.1)">
       <use xlink:href="#DejaVuSans-32"/>
       <use xlink:href="#DejaVuSans-30" x="63.623047"/>
       <use xlink:href="#DejaVuSans-32" x="127.246094"/>
       <use xlink:href="#DejaVuSans-32" x="190.869141"/>
       <use xlink:href="#DejaVuSans-2d" x="254.492188"/>
       <use xlink:href="#DejaVuSans-30" x="290.576172"/>
       <use xlink:href="#DejaVuSans-31" x="354.199219"/>
       <use xlink:href="#DejaVuSans-2d" x="417.822266"/>
       <use xlink:href="#DejaVuSans-31" x="453.90625"/>
       <use xlink:href="#DejaVuSans-35" x="517.529297"/>
      </g>
     </g>
    </g>
    <g id="text_9">
     <!-- TIME (DAYS) -->
     <g transform="translate(412.283594 348.676562) scale(0.1 -0.1)">
      <defs>
       <path id="DejaVuSans-54" d="M -19 4666 
L 3928 4666 
L 3928 4134 
L 2272 4134 
L 2272 0 
L 1638 0 
L 1638 4134 
L -19 4134 
L -19 4666 
z
" transform="scale(0.015625)"/>
       <path id="DejaVuSans-49" d="M 628 4666 
L 1259 4666 
L 1259 0 
L 628 0 
L 628 4666 
z
" transform="scale(0.015625)"/>
       <path id="DejaVuSans-4d" d="M 628 4666 
L 1569 4666 
L 2759 1491 
L 3956 4666 
L 4897 4666 
L 4897 0 
L 4281 0 
L 4281 4097 
L 3078 897 
L 2444 897 
L 1241 4097 
L 1241 0 
L 628 0 
L 628 4666 
z
" transform="scale(0.015625)"/>
       <path id="DejaVuSans-45" d="M 628 4666 
L 3578 4666 
L 3578 4134 
L 1259 4134 
L 1259 2753 
L 3481 2753 
L 3481 2222 
L 1259 2222 
L 1259 531 
L 3634 531 
L 3634 0 
L 628 0 
L 628 4666 
z
" transform="scale(0.015625)"/>
       <path id="DejaVuSans-20" transform="scale(0.015625)"/>
       <path id="DejaVuSans-28" d="M 1984 4856 
Q 1566 4138 1362 3434 
Q 1159 2731 1159 2009 
Q 1159 1288 1364 580 
Q 1569 -128 1984 -844 
L 1484 -844 
Q 1016 -109 783 600 
Q 550 1309 550 2009 
Q 550 2706 781 3412 
Q 1013 4119 1484 4856 
L 1984 4856 
z
" transform="scale(0.015625)"/>
       <path id="DejaVuSans-44" d="M 1259 4147 
L 1259 519 
L 2022 519 
Q 2988 519 3436 956 
Q 3884 1394 3884 2338 
Q 3884 3275 3436 3711 
Q 2988 4147 2022 4147 
L 1259 4147 
z
M 628 4666 
L 1925 4666 
Q 3281 4666 3915 4102 
Q 4550 3538 4550 2338 
Q 4550 1131 3912 565 
Q 3275 0 1925 0 
L 628 0 
L 628 4666 
z
" transform="scale(0.015625)"/>
       <path id="DejaVuSans-41" d="M 2188 4044 
L 1331 1722 
L 3047 1722 
L 2188 4044 
z
M 1831 4666 
L 2547 4666 
L 4325 0 
L 3669 0 
L 3244 1197 
L 1141 1197 
L 716 0 
L 50 0 
L 1831 4666 
z
" transform="scale(0.015625)"/>
       <path id="DejaVuSans-59" d="M -13 4666 
L 666 4666 
L 1959 2747 
L 3244 4666 
L 3922 4666 
L 2272 2222 
L 2272 0 
L 1638 0 
L 1638 2222 
L -13 4666 
z
" transform="scale(0.015625)"/>
       <path id="DejaVuSans-53" d="M 3425 4513 
L 3425 3897 
Q 3066 4069 2747 4153 
Q 2428 4238 2131 4238 
Q 1616 4238 1336 4038 
Q 1056 3838 1056 3469 
Q 1056 3159 1242 3001 
Q 1428 2844 1947 2747 
L 2328 2669 
Q 3034 2534 3370 2195 
Q 3706 1856 3706 1288 
Q 3706 609 3251 259 
Q 2797 -91 1919 -91 
Q 1588 -91 1214 -16 
Q 841 59 441 206 
L 441 856 
Q 825 641 1194 531 
Q 1563 422 1919 422 
Q 2459 422 2753 634 
Q 3047 847 3047 1241 
Q 3047 1584 2836 1778 
Q 2625 1972 2144 2069 
L 1759 2144 
Q 1053 2284 737 2584 
Q 422 2884 422 3419 
Q 422 4038 858 4394 
Q 1294 4750 2059 4750 
Q 2388 4750 2728 4690 
Q 3069 4631 3425 4513 
z
" transform="scale(0.015625)"/>
       <path id="DejaVuSans-29" d="M 513 4856 
L 1013 4856 
Q 1481 4119 1714 3412 
Q 1947 2706 1947 2009 
Q 1947 1309 1714 600 
Q 1481 -109 1013 -844 
L 513 -844 
Q 928 -128 1133 580 
Q 1338 1288 1338 2009 
Q 1338 2731 1133 3434 
Q 928 4138 513 4856 
z
" transform="scale(0.015625)"/>
      </defs>
      <use xlink:href="#DejaVuSans-54"/>
      <use xlink:href="#DejaVuSans-49" x="61.083984"/>
      <use xlink:href="#DejaVuSans-4d" x="90.576172"/>
      <use xlink:href="#DejaVuSans-45" x="176.855469"/>
      <use xlink:href="#DejaVuSans-20" x="240.039062"/>
      <use xlink:href="#DejaVuSans-28" x="271.826172"/>
      <use xlink:href="#DejaVuSans-44" x="310.839844"/>
      <use xlink:href="#DejaVuSans-41" x="386.091797"/>
      <use xlink:href="#DejaVuSans-59" x="446.75"/>
      <use xlink:href="#DejaVuSans-53" x="507.833984"/>
      <use xlink:href="#DejaVuSans-29" x="571.310547"/>
     </g>
    </g>
   </g>
   <g id="matplotlib.axis_2">
    <g id="ytick_1">
     <g id="line2d_9">
      <defs>
       <path id="mdf90427abf" d="M 0 0 
L -3.5 0 
" style="stroke: #000000; stroke-width: 0.8"/>
      </defs>
      <g>
       <use xlink:href="#mdf90427abf" x="108" y="307.8" style="stroke: #000000; stroke-width: 0.8"/>
      </g>
     </g>
     <g id="text_10">
      <!-- 0 -->
      <g transform="translate(94.6375 311.599219) scale(0.1 -0.1)">
       <use xlink:href="#DejaVuSans-30"/>
      </g>
     </g>
    </g>
    <g id="ytick_2">
     <g id="line2d_10">
      <g>
       <use xlink:href="#mdf90427abf" x="108" y="274.422517" style="stroke: #000000; stroke-width: 0.8"/>
      </g>
     </g>
     <g id="text_11">
      <!-- 20 -->
      <g transform="translate(88.275 278.221735) scale(0.1 -0.1)">
       <use xlink:href="#DejaVuSans-32"/>
       <use xlink:href="#DejaVuSans-30" x="63.623047"/>
      </g>
     </g>
    </g>
    <g id="ytick_3">
     <g id="line2d_11">
      <g>
       <use xlink:href="#mdf90427abf" x="108" y="241.045033" style="stroke: #000000; stroke-width: 0.8"/>
      </g>
     </g>
     <g id="text_12">
      <!-- 40 -->
      <g transform="translate(88.275 244.844252) scale(0.1 -0.1)">
       <defs>
        <path id="DejaVuSans-34" d="M 2419 4116 
L 825 1625 
L 2419 1625 
L 2419 4116 
z
M 2253 4666 
L 3047 4666 
L 3047 1625 
L 3713 1625 
L 3713 1100 
L 3047 1100 
L 3047 0 
L 2419 0 
L 2419 1100 
L 313 1100 
L 313 1709 
L 2253 4666 
z
" transform="scale(0.015625)"/>
       </defs>
       <use xlink:href="#DejaVuSans-34"/>
       <use xlink:href="#DejaVuSans-30" x="63.623047"/>
      </g>
     </g>
    </g>
    <g id="ytick_4">
     <g id="line2d_12">
      <g>
       <use xlink:href="#mdf90427abf" x="108" y="207.66755" style="stroke: #000000; stroke-width: 0.8"/>
      </g>
     </g>
     <g id="text_13">
      <!-- 60 -->
      <g transform="translate(88.275 211.466768) scale(0.1 -0.1)">
       <defs>
        <path id="DejaVuSans-36" d="M 2113 2584 
Q 1688 2584 1439 2293 
Q 1191 2003 1191 1497 
Q 1191 994 1439 701 
Q 1688 409 2113 409 
Q 2538 409 2786 701 
Q 3034 994 3034 1497 
Q 3034 2003 2786 2293 
Q 2538 2584 2113 2584 
z
M 3366 4563 
L 3366 3988 
Q 3128 4100 2886 4159 
Q 2644 4219 2406 4219 
Q 1781 4219 1451 3797 
Q 1122 3375 1075 2522 
Q 1259 2794 1537 2939 
Q 1816 3084 2150 3084 
Q 2853 3084 3261 2657 
Q 3669 2231 3669 1497 
Q 3669 778 3244 343 
Q 2819 -91 2113 -91 
Q 1303 -91 875 529 
Q 447 1150 447 2328 
Q 447 3434 972 4092 
Q 1497 4750 2381 4750 
Q 2619 4750 2861 4703 
Q 3103 4656 3366 4563 
z
" transform="scale(0.015625)"/>
       </defs>
       <use xlink:href="#DejaVuSans-36"/>
       <use xlink:href="#DejaVuSans-30" x="63.623047"/>
      </g>
     </g>
    </g>
    <g id="ytick_5">
     <g id="line2d_13">
      <g>
       <use xlink:href="#mdf90427abf" x="108" y="174.290066" style="stroke: #000000; stroke-width: 0.8"/>
      </g>
     </g>
     <g id="text_14">
      <!-- 80 -->
      <g transform="translate(88.275 178.089285) scale(0.1 -0.1)">
       <defs>
        <path id="DejaVuSans-38" d="M 2034 2216 
Q 1584 2216 1326 1975 
Q 1069 1734 1069 1313 
Q 1069 891 1326 650 
Q 1584 409 2034 409 
Q 2484 409 2743 651 
Q 3003 894 3003 1313 
Q 3003 1734 2745 1975 
Q 2488 2216 2034 2216 
z
M 1403 2484 
Q 997 2584 770 2862 
Q 544 3141 544 3541 
Q 544 4100 942 4425 
Q 1341 4750 2034 4750 
Q 2731 4750 3128 4425 
Q 3525 4100 3525 3541 
Q 3525 3141 3298 2862 
Q 3072 2584 2669 2484 
Q 3125 2378 3379 2068 
Q 3634 1759 3634 1313 
Q 3634 634 3220 271 
Q 2806 -91 2034 -91 
Q 1263 -91 848 271 
Q 434 634 434 1313 
Q 434 1759 690 2068 
Q 947 2378 1403 2484 
z
M 1172 3481 
Q 1172 3119 1398 2916 
Q 1625 2713 2034 2713 
Q 2441 2713 2670 2916 
Q 2900 3119 2900 3481 
Q 2900 3844 2670 4047 
Q 2441 4250 2034 4250 
Q 1625 4250 1398 4047 
Q 1172 3844 1172 3481 
z
" transform="scale(0.015625)"/>
       </defs>
       <use xlink:href="#DejaVuSans-38"/>
       <use xlink:href="#DejaVuSans-30" x="63.623047"/>
      </g>
     </g>
    </g>
    <g id="ytick_6">
     <g id="line2d_14">
      <g>
       <use xlink:href="#mdf90427abf" x="108" y="140.912583" style="stroke: #000000; stroke-width: 0.8"/>
      </g>
     </g>
     <g id="text_15">
      <!-- 100 -->
      <g transform="translate(81.9125 144.711802) scale(0.1 -0.1)">
       <use xlink:href="#DejaVuSans-31"/>
       <use xlink:href="#DejaVuSans-30" x="63.623047"/>
       <use xlink:href="#DejaVuSans-30" x="127.246094"/>
      </g>
     </g>
    </g>
    <g id="ytick_7">
     <g id="line2d_15">
      <g>
       <use xlink:href="#mdf90427abf" x="108" y="107.535099" style="stroke: #000000; stroke-width: 0.8"/>
      </g>
     </g>
     <g id="text_16">
      <!-- 120 -->
      <g transform="translate(81.9125 111.334318) scale(0.1 -0.1)">
       <use xlink:href="#DejaVuSans-31"/>
       <use xlink:href="#DejaVuSans-32" x="63.623047"/>
       <use xlink:href="#DejaVuSans-30" x="127.246094"/>
      </g>
     </g>
    </g>
    <g id="ytick_8">
     <g id="line2d_16">
      <g>
       <use xlink:href="#mdf90427abf" x="108" y="74.157616" style="stroke: #000000; stroke-width: 0.8"/>
      </g>
     </g>
     <g id="text_17">
      <!-- 140 -->
      <g transform="translate(81.9125 77.956835) scale(0.1 -0.1)">
       <use xlink:href="#DejaVuSans-31"/>
       <use xlink:href="#DejaVuSans-34" x="63.623047"/>
       <use xlink:href="#DejaVuSans-30" x="127.246094"/>
      </g>
     </g>
    </g>
    <g id="text_18">
     <!-- AMPLITUDE -->
     <g transform="translate(75.832812 210.532812) rotate(-90) scale(0.1 -0.1)">
      <defs>
       <path id="DejaVuSans-50" d="M 1259 4147 
L 1259 2394 
L 2053 2394 
Q 2494 2394 2734 2622 
Q 2975 2850 2975 3272 
Q 2975 3691 2734 3919 
Q 2494 4147 2053 4147 
L 1259 4147 
z
M 628 4666 
L 2053 4666 
Q 2838 4666 3239 4311 
Q 3641 3956 3641 3272 
Q 3641 2581 3239 2228 
Q 2838 1875 2053 1875 
L 1259 1875 
L 1259 0 
L 628 0 
L 628 4666 
z
" transform="scale(0.015625)"/>
       <path id="DejaVuSans-4c" d="M 628 4666 
L 1259 4666 
L 1259 531 
L 3531 531 
L 3531 0 
L 628 0 
L 628 4666 
z
" transform="scale(0.015625)"/>
       <path id="DejaVuSans-55" d="M 556 4666 
L 1191 4666 
L 1191 1831 
Q 1191 1081 1462 751 
Q 1734 422 2344 422 
Q 2950 422 3222 751 
Q 3494 1081 3494 1831 
L 3494 4666 
L 4128 4666 
L 4128 1753 
Q 4128 841 3676 375 
Q 3225 -91 2344 -91 
Q 1459 -91 1007 375 
Q 556 841 556 1753 
L 556 4666 
z
" transform="scale(0.015625)"/>
      </defs>
      <use xlink:href="#DejaVuSans-41"/>
      <use xlink:href="#DejaVuSans-4d" x="68.408203"/>
      <use xlink:href="#DejaVuSans-50" x="154.6875"/>
      <use xlink:href="#DejaVuSans-4c" x="214.990234"/>
      <use xlink:href="#DejaVuSans-49" x="270.703125"/>
      <use xlink:href="#DejaVuSans-54" x="300.195312"/>
      <use xlink:href="#DejaVuSans-55" x="361.279297"/>
      <use xlink:href="#DejaVuSans-44" x="434.472656"/>
      <use xlink:href="#DejaVuSans-45" x="511.474609"/>
     </g>
    </g>
   </g>
   <g id="line2d_17">
    <path d="M 138.436364 244.382781 
L 139.282994 277.760265 
L 140.129624 261.071523 
L 140.976255 229.362914 
L 141.822885 277.760265 
L 142.669516 284.435762 
L 143.516146 289.442384 
L 144.362777 281.098013 
L 145.209407 299.455629 
L 146.056037 307.8 
L 150.28919 307.8 
L 151.13582 301.124503 
L 151.98245 307.8 
L 152.829081 249.389404 
L 153.675711 272.753642 
L 154.522342 277.760265 
L 155.368972 277.760265 
L 156.215602 214.343046 
L 157.062233 209.336424 
L 157.908863 239.376159 
L 158.755494 221.018543 
L 159.602124 221.018543 
L 160.448755 170.952318 
L 161.295385 189.309934 
L 162.142015 222.687417 
L 162.988646 159.270199 
L 163.835276 229.362914 
L 164.681907 124.223841 
L 165.528537 135.90596 
L 166.375168 132.568212 
L 167.221798 110.872848 
L 168.068428 145.919205 
L 168.915059 55.8 
L 169.761689 155.93245 
L 170.60832 104.197351 
L 171.45495 132.568212 
L 172.30158 192.647682 
L 173.148211 154.263576 
L 173.994841 124.223841 
L 174.841472 189.309934 
L 175.688102 160.939073 
L 176.534733 155.93245 
L 177.381363 159.270199 
L 178.227993 104.197351 
L 179.074624 239.376159 
L 179.921254 190.978808 
L 180.767885 229.362914 
L 181.614515 222.687417 
L 182.461146 237.707285 
L 183.307776 249.389404 
L 185.001037 269.415894 
L 185.847667 269.415894 
L 186.694298 302.793377 
L 187.540928 287.77351 
L 188.387558 291.111258 
L 189.234189 307.8 
L 190.080819 251.058278 
L 190.92745 307.8 
L 191.77408 307.8 
L 192.620711 234.369536 
L 193.467341 301.124503 
L 194.313971 304.462252 
L 195.160602 284.435762 
L 196.007232 307.8 
L 196.853863 269.415894 
L 197.700493 247.72053 
L 198.547124 204.329801 
L 199.393754 232.700662 
L 200.240384 254.396026 
L 201.087015 184.303311 
L 201.933645 222.687417 
L 202.780276 194.316556 
L 203.626906 190.978808 
L 204.473536 120.886093 
L 205.320167 184.303311 
L 206.166797 157.601325 
L 207.013428 192.647682 
L 207.860058 132.568212 
L 208.706689 147.588079 
L 209.553319 149.256954 
L 210.399949 142.581457 
L 211.24658 164.276821 
L 212.09321 170.952318 
L 212.939841 180.965563 
L 213.786471 192.647682 
L 214.633102 100.859603 
L 216.326362 190.978808 
L 217.172993 119.217219 
L 218.019623 207.66755 
L 218.866254 214.343046 
L 219.712884 199.323179 
L 220.559514 177.627815 
L 221.406145 259.402649 
L 222.252775 284.435762 
L 223.099406 287.77351 
L 223.946036 261.071523 
L 224.792667 307.8 
L 225.639297 287.77351 
L 226.485927 307.8 
L 227.332558 307.8 
L 228.179188 244.382781 
L 229.025819 301.124503 
L 229.872449 282.766887 
L 230.71908 286.104636 
L 231.56571 307.8 
L 233.258971 307.8 
L 234.105601 302.793377 
L 234.952232 292.780132 
L 235.798862 266.078146 
L 236.645492 307.8 
L 237.492123 304.462252 
L 238.338753 184.303311 
L 239.185384 254.396026 
L 240.032014 239.376159 
L 240.878645 187.64106 
L 241.725275 199.323179 
L 242.571905 214.343046 
L 243.418536 179.296689 
L 244.265166 190.978808 
L 245.111797 234.369536 
L 245.958427 205.998675 
L 246.805058 125.892715 
L 247.651688 175.95894 
L 248.498318 135.90596 
L 249.344949 129.230464 
L 250.191579 182.634437 
L 251.03821 97.521854 
L 251.88484 167.61457 
L 252.73147 189.309934 
L 253.578101 157.601325 
L 254.424731 157.601325 
L 255.271362 180.965563 
L 256.117992 185.972185 
L 256.964623 135.90596 
L 257.811253 165.945695 
L 258.657883 249.389404 
L 259.504514 226.025166 
L 260.351144 195.98543 
L 261.197775 174.290066 
L 262.044405 221.018543 
L 262.891036 184.303311 
L 263.737666 236.038411 
L 264.584296 227.69404 
L 265.430927 246.051656 
L 266.277557 307.8 
L 267.124188 272.753642 
L 267.970818 281.098013 
L 268.817448 307.8 
L 270.510709 307.8 
L 271.35734 301.124503 
L 272.20397 287.77351 
L 273.050601 307.8 
L 273.897231 262.740397 
L 274.743861 287.77351 
L 275.590492 281.098013 
L 276.437122 269.415894 
L 277.283753 259.402649 
L 278.130383 291.111258 
L 278.977014 271.084768 
L 279.823644 216.011921 
L 280.670274 271.084768 
L 281.516905 227.69404 
L 282.363535 242.713907 
L 283.210166 232.700662 
L 284.056796 144.250331 
L 284.903426 187.64106 
L 285.750057 207.66755 
L 286.596687 189.309934 
L 287.443318 137.574834 
L 288.289948 152.594702 
L 289.136579 180.965563 
L 289.983209 122.554967 
L 290.829839 149.256954 
L 291.67647 165.945695 
L 292.5231 117.548344 
L 293.369731 134.237086 
L 294.216361 139.243709 
L 295.062992 154.263576 
L 295.909622 197.654305 
L 296.756252 180.965563 
L 297.602883 135.90596 
L 298.449513 120.886093 
L 299.296144 222.687417 
L 300.142774 145.919205 
L 300.989404 164.276821 
L 301.836035 259.402649 
L 302.682665 175.95894 
L 303.529296 195.98543 
L 304.375926 224.356291 
L 305.222557 267.74702 
L 306.069187 274.422517 
L 306.915817 244.382781 
L 307.762448 307.8 
L 308.609078 251.058278 
L 309.455709 284.435762 
L 310.302339 307.8 
L 311.14897 306.131126 
L 311.9956 307.8 
L 312.84223 252.727152 
L 313.688861 307.8 
L 314.535491 301.124503 
L 315.382122 307.8 
L 316.228752 272.753642 
L 317.075382 266.078146 
L 317.922013 307.8 
L 318.768643 269.415894 
L 319.615274 274.422517 
L 320.461904 254.396026 
L 321.308535 247.72053 
L 322.155165 266.078146 
L 323.001795 269.415894 
L 323.848426 236.038411 
L 324.695056 229.362914 
L 325.541687 216.011921 
L 326.388317 187.64106 
L 327.234948 167.61457 
L 328.081578 144.250331 
L 328.928208 211.005298 
L 329.774839 214.343046 
L 330.621469 125.892715 
L 331.4681 207.66755 
L 332.31473 125.892715 
L 333.16136 150.925828 
L 334.007991 159.270199 
L 334.854621 150.925828 
L 335.701252 130.899338 
L 336.547882 152.594702 
L 337.394513 209.336424 
L 338.241143 147.588079 
L 339.087773 192.647682 
L 339.934404 185.972185 
L 340.781034 237.707285 
L 341.627665 192.647682 
L 342.474295 160.939073 
L 343.320926 222.687417 
L 344.167556 274.422517 
L 345.014186 294.449007 
L 345.860817 229.362914 
L 346.707447 286.104636 
L 347.554078 251.058278 
L 348.400708 272.753642 
L 349.247338 307.8 
L 350.093969 307.8 
L 350.940599 271.084768 
L 351.78723 264.409272 
L 352.63386 307.8 
L 353.480491 274.422517 
L 354.327121 271.084768 
L 355.173751 307.8 
L 356.020382 307.8 
L 356.867012 306.131126 
L 357.713643 307.8 
L 358.560273 307.8 
L 359.406904 292.780132 
L 360.253534 269.415894 
L 361.100164 276.091391 
L 361.946795 244.382781 
L 362.793425 307.8 
L 363.640056 211.005298 
L 364.486686 229.362914 
L 365.333316 192.647682 
L 366.179947 169.283444 
L 367.026577 75.82649 
L 367.873208 155.93245 
L 368.719838 189.309934 
L 369.566469 194.316556 
L 370.413099 134.237086 
L 371.259729 169.283444 
L 372.10636 115.87947 
L 372.95299 139.243709 
L 373.799621 174.290066 
L 374.646251 129.230464 
L 375.492882 184.303311 
L 376.339512 122.554967 
L 377.186142 129.230464 
L 378.032773 125.892715 
L 378.879403 142.581457 
L 379.726034 189.309934 
L 380.572664 172.621192 
L 381.419294 221.018543 
L 382.265925 165.945695 
L 383.112555 214.343046 
L 383.959186 184.303311 
L 384.805816 277.760265 
L 385.652447 221.018543 
L 386.499077 266.078146 
L 387.345707 232.700662 
L 388.192338 306.131126 
L 389.038968 299.455629 
L 389.885599 221.018543 
L 390.732229 279.429139 
L 391.57886 289.442384 
L 392.42549 282.766887 
L 393.27212 262.740397 
L 394.118751 297.786755 
L 394.965381 262.740397 
L 395.812012 254.396026 
L 396.658642 307.8 
L 399.198533 307.8 
L 400.045164 301.124503 
L 400.891794 227.69404 
L 401.738425 261.071523 
L 402.585055 259.402649 
L 403.431685 282.766887 
L 404.278316 199.323179 
L 405.124946 200.992053 
L 406.818207 269.415894 
L 407.664838 152.594702 
L 408.511468 132.568212 
L 409.358098 209.336424 
L 410.204729 130.899338 
L 411.051359 177.627815 
L 411.89799 112.541722 
L 412.74462 174.290066 
L 413.59125 157.601325 
L 414.437881 135.90596 
L 415.284511 152.594702 
L 416.131142 117.548344 
L 416.977772 172.621192 
L 417.824403 129.230464 
L 418.671033 102.528477 
L 419.517663 140.912583 
L 420.364294 134.237086 
L 421.210924 159.270199 
L 422.057555 179.296689 
L 424.597446 139.243709 
L 425.444076 140.912583 
L 426.290707 222.687417 
L 427.137337 147.588079 
L 427.983968 190.978808 
L 428.830598 281.098013 
L 429.677228 307.8 
L 430.523859 302.793377 
L 431.370489 272.753642 
L 432.21712 307.8 
L 433.06375 307.8 
L 433.910381 269.415894 
L 434.757011 282.766887 
L 435.603641 307.8 
L 436.450272 237.707285 
L 437.296902 307.8 
L 438.143533 287.77351 
L 438.990163 259.402649 
L 439.836794 274.422517 
L 440.683424 257.733775 
L 441.530054 269.415894 
L 442.376685 256.064901 
L 443.223315 306.131126 
L 444.069946 202.660927 
L 444.916576 232.700662 
L 445.763206 212.674172 
L 446.609837 224.356291 
L 447.456467 179.296689 
L 448.303098 185.972185 
L 449.149728 149.256954 
L 449.996359 142.581457 
L 450.842989 174.290066 
L 451.689619 132.568212 
L 452.53625 212.674172 
L 453.38288 159.270199 
L 454.229511 157.601325 
L 455.076141 95.85298 
L 455.922772 167.61457 
L 456.769402 165.945695 
L 457.616032 189.309934 
L 458.462663 162.607947 
L 459.309293 195.98543 
L 460.155924 159.270199 
L 461.002554 167.61457 
L 461.849184 157.601325 
L 462.695815 180.965563 
L 463.542445 144.250331 
L 464.389076 177.627815 
L 465.235706 202.660927 
L 466.082337 154.263576 
L 466.928967 194.316556 
L 467.775597 241.045033 
L 468.622228 211.005298 
L 469.468858 282.766887 
L 470.315489 294.449007 
L 471.162119 197.654305 
L 472.00875 272.753642 
L 472.85538 269.415894 
L 473.70201 301.124503 
L 474.548641 307.8 
L 476.241902 307.8 
L 477.088532 274.422517 
L 477.935162 294.449007 
L 478.781793 291.111258 
L 479.628423 307.8 
L 480.475054 292.780132 
L 481.321684 301.124503 
L 482.168315 261.071523 
L 483.014945 299.455629 
L 483.861575 249.389404 
L 484.708206 266.078146 
L 485.554836 234.369536 
L 486.401467 266.078146 
L 487.248097 247.72053 
L 488.094728 200.992053 
L 488.941358 199.323179 
L 489.787988 159.270199 
L 490.634619 199.323179 
L 491.481249 172.621192 
L 492.32788 177.627815 
L 493.17451 170.952318 
L 494.02114 122.554967 
L 494.867771 177.627815 
L 495.714401 207.66755 
L 497.407662 90.846358 
L 498.254293 167.61457 
L 499.100923 192.647682 
L 499.947553 67.482119 
L 501.640814 195.98543 
L 502.487445 195.98543 
L 503.334075 152.594702 
L 504.180706 177.627815 
L 505.027336 100.859603 
L 505.873966 177.627815 
L 506.720597 182.634437 
L 507.567227 234.369536 
L 508.413858 175.95894 
L 509.260488 241.045033 
L 510.107118 261.071523 
L 510.953749 216.011921 
L 511.800379 227.69404 
L 512.64701 249.389404 
L 513.49364 289.442384 
L 514.340271 249.389404 
L 515.186901 307.8 
L 516.033531 307.8 
L 516.880162 292.780132 
L 517.726792 289.442384 
L 518.573423 282.766887 
L 519.420053 307.8 
L 520.266684 282.766887 
L 521.113314 262.740397 
L 521.959944 221.018543 
L 522.806575 281.098013 
L 523.653205 267.74702 
L 524.499836 269.415894 
L 525.346466 231.031788 
L 526.193096 277.760265 
L 527.039727 257.733775 
L 527.886357 232.700662 
L 528.732988 269.415894 
L 529.579618 252.727152 
L 530.426249 266.078146 
L 531.272879 237.707285 
L 532.119509 217.680795 
L 532.96614 209.336424 
L 533.81277 125.892715 
L 534.659401 169.283444 
L 535.506031 137.574834 
L 536.352662 149.256954 
L 537.199292 129.230464 
L 538.045922 152.594702 
L 538.892553 117.548344 
L 539.739183 135.90596 
L 540.585814 149.256954 
L 541.432444 145.919205 
L 542.279074 69.150993 
L 543.125705 192.647682 
L 543.972335 154.263576 
L 544.818966 107.535099 
L 545.665596 127.561589 
L 546.512227 124.223841 
L 547.358857 149.256954 
L 548.205487 226.025166 
L 549.052118 169.283444 
L 549.898748 189.309934 
L 550.745379 219.349669 
L 551.592009 224.356291 
L 552.43864 187.64106 
L 554.1319 232.700662 
L 554.978531 252.727152 
L 555.825161 236.038411 
L 556.671792 287.77351 
L 557.518422 259.402649 
L 558.365052 277.760265 
L 559.211683 277.760265 
L 560.058313 307.8 
L 560.904944 291.111258 
L 561.751574 307.8 
L 562.598205 269.415894 
L 563.444835 307.8 
L 564.291465 306.131126 
L 565.138096 266.078146 
L 565.984726 272.753642 
L 566.831357 304.462252 
L 567.677987 287.77351 
L 568.524618 291.111258 
L 569.371248 237.707285 
L 570.217878 247.72053 
L 571.064509 237.707285 
L 571.911139 139.243709 
L 572.75777 227.69404 
L 573.6044 204.329801 
L 574.45103 185.972185 
L 575.297661 214.343046 
L 576.144291 152.594702 
L 576.990922 167.61457 
L 577.837552 150.925828 
L 579.530813 130.899338 
L 580.377443 179.296689 
L 581.224074 207.66755 
L 582.070704 140.912583 
L 582.917335 107.535099 
L 583.763965 154.263576 
L 584.610596 130.899338 
L 585.457226 159.270199 
L 586.303856 169.283444 
L 587.997117 127.561589 
L 588.843748 117.548344 
L 589.690378 140.912583 
L 590.537008 167.61457 
L 591.383639 185.972185 
L 592.230269 172.621192 
L 593.0769 237.707285 
L 593.92353 199.323179 
L 594.770161 266.078146 
L 595.616791 299.455629 
L 596.463421 236.038411 
L 597.310052 307.8 
L 598.156682 291.111258 
L 599.003313 307.8 
L 599.849943 257.733775 
L 600.696574 307.8 
L 601.543204 307.8 
L 602.389834 259.402649 
L 603.236465 307.8 
L 604.083095 307.8 
L 604.929726 297.786755 
L 605.776356 292.780132 
L 606.622986 246.051656 
L 607.469617 307.8 
L 608.316247 289.442384 
L 609.162878 296.117881 
L 610.009508 259.402649 
L 610.856139 296.117881 
L 611.702769 286.104636 
L 612.549399 301.124503 
L 613.39603 205.998675 
L 614.24266 282.766887 
L 615.089291 202.660927 
L 615.935921 222.687417 
L 616.782552 169.283444 
L 617.629182 197.654305 
L 618.475812 212.674172 
L 619.322443 189.309934 
L 620.169073 157.601325 
L 621.015704 207.66755 
L 621.862334 231.031788 
L 622.708964 145.919205 
L 624.402225 179.296689 
L 625.248856 125.892715 
L 626.095486 154.263576 
L 626.942117 132.568212 
L 627.788747 174.290066 
L 628.635377 180.965563 
L 629.482008 154.263576 
L 630.328638 162.607947 
L 631.175269 216.011921 
L 632.021899 200.992053 
L 632.86853 227.69404 
L 633.71516 167.61457 
L 634.56179 252.727152 
L 635.408421 226.025166 
L 636.255051 231.031788 
L 637.101682 252.727152 
L 637.948312 266.078146 
L 638.794942 252.727152 
L 639.641573 282.766887 
L 640.488203 259.402649 
L 641.334834 276.091391 
L 642.181464 299.455629 
L 643.028095 307.8 
L 643.874725 281.098013 
L 644.721355 264.409272 
L 645.567986 306.131126 
L 646.414616 307.8 
L 647.261247 307.8 
L 648.107877 301.124503 
L 648.954508 282.766887 
L 649.801138 307.8 
L 650.647768 307.8 
L 651.494399 249.389404 
L 652.341029 219.349669 
L 653.18766 277.760265 
L 654.03429 244.382781 
L 654.88092 291.111258 
L 655.727551 307.8 
L 656.574181 229.362914 
L 657.420812 251.058278 
L 658.267442 242.713907 
L 659.114073 167.61457 
L 659.960703 194.316556 
L 660.807333 144.250331 
L 661.653964 222.687417 
L 662.500594 184.303311 
L 663.347225 172.621192 
L 664.193855 142.581457 
L 665.040486 165.945695 
L 665.887116 214.343046 
L 666.733746 172.621192 
L 667.580377 139.243709 
L 668.427007 94.184106 
L 669.273638 170.952318 
L 670.120268 187.64106 
L 670.966898 144.250331 
L 671.813529 117.548344 
L 672.660159 125.892715 
L 673.50679 117.548344 
L 674.35342 127.561589 
L 675.200051 135.90596 
L 676.046681 202.660927 
L 676.893311 145.919205 
L 677.739942 224.356291 
L 678.586572 177.627815 
L 679.433203 257.733775 
L 680.279833 185.972185 
L 681.126464 229.362914 
L 681.973094 307.8 
L 682.819724 307.8 
L 683.666355 241.045033 
L 684.512985 304.462252 
L 685.359616 307.8 
L 686.206246 262.740397 
L 687.052876 307.8 
L 687.899507 307.8 
L 688.746137 269.415894 
L 689.592768 252.727152 
L 690.439398 257.733775 
L 691.286029 304.462252 
L 692.132659 291.111258 
L 692.979289 259.402649 
L 693.82592 274.422517 
L 694.67255 286.104636 
L 695.519181 224.356291 
L 696.365811 307.8 
L 697.212442 284.435762 
L 698.059072 209.336424 
L 698.905702 227.69404 
L 699.752333 261.071523 
L 700.598963 239.376159 
L 701.445594 157.601325 
L 702.292224 204.329801 
L 703.138854 199.323179 
L 703.985485 229.362914 
L 704.832115 189.309934 
L 705.678746 109.203974 
L 706.525376 157.601325 
L 707.372007 107.535099 
L 708.218637 162.607947 
L 709.065267 145.919205 
L 709.911898 115.87947 
L 710.758528 137.574834 
L 711.605159 167.61457 
L 712.451789 192.647682 
L 713.29842 165.945695 
L 714.14505 102.528477 
L 714.99168 177.627815 
L 715.838311 137.574834 
L 716.684941 202.660927 
L 717.531572 159.270199 
L 719.224832 169.283444 
L 720.071463 170.952318 
L 720.918093 160.939073 
L 721.764724 257.733775 
L 722.611354 272.753642 
L 723.457985 297.786755 
L 724.304615 246.051656 
L 725.151245 269.415894 
L 725.997876 307.8 
L 726.844506 282.766887 
L 727.691137 267.74702 
L 728.537767 307.8 
L 730.231028 307.8 
L 731.077658 237.707285 
L 731.924289 259.402649 
L 732.770919 307.8 
L 735.31081 307.8 
L 736.157441 264.409272 
L 737.004071 307.8 
L 737.850702 246.051656 
L 738.697332 297.786755 
L 739.543963 261.071523 
L 740.390593 264.409272 
L 741.237223 217.680795 
L 742.083854 264.409272 
L 742.930484 237.707285 
L 744.623745 234.369536 
L 745.470376 219.349669 
L 746.317006 200.992053 
L 747.163636 144.250331 
L 747.163636 144.250331 
" clip-path="url(#p916d607565)" style="fill: none; stroke: #191970; stroke-width: 2; stroke-linecap: square"/>
   </g>
   <g id="patch_3">
    <path d="M 108 320.4 
L 108 43.2 
" style="fill: none; stroke: #000000; stroke-width: 0.8; stroke-linejoin: miter; stroke-linecap: square"/>
   </g>
   <g id="patch_4">
    <path d="M 777.6 320.4 
L 777.6 43.2 
" style="fill: none; stroke: #000000; stroke-width: 0.8; stroke-linejoin: miter; stroke-linecap: square"/>
   </g>
   <g id="patch_5">
    <path d="M 108 320.4 
L 777.6 320.4 
" style="fill: none; stroke: #000000; stroke-width: 0.8; stroke-linejoin: miter; stroke-linecap: square"/>
   </g>
   <g id="patch_6">
    <path d="M 108 43.2 
L 777.6 43.2 
" style="fill: none; stroke: #000000; stroke-width: 0.8; stroke-linejoin: miter; stroke-linecap: square"/>
   </g>
   <g id="text_19">
    <!-- TIME SERIES -->
    <g transform="translate(405.350625 37.2) scale(0.12 -0.12)">
     <defs>
      <path id="DejaVuSans-52" d="M 2841 2188 
Q 3044 2119 3236 1894 
Q 3428 1669 3622 1275 
L 4263 0 
L 3584 0 
L 2988 1197 
Q 2756 1666 2539 1819 
Q 2322 1972 1947 1972 
L 1259 1972 
L 1259 0 
L 628 0 
L 628 4666 
L 2053 4666 
Q 2853 4666 3247 4331 
Q 3641 3997 3641 3322 
Q 3641 2881 3436 2590 
Q 3231 2300 2841 2188 
z
M 1259 4147 
L 1259 2491 
L 2053 2491 
Q 2509 2491 2742 2702 
Q 2975 2913 2975 3322 
Q 2975 3731 2742 3939 
Q 2509 4147 2053 4147 
L 1259 4147 
z
" transform="scale(0.015625)"/>
     </defs>
     <use xlink:href="#DejaVuSans-54"/>
     <use xlink:href="#DejaVuSans-49" x="61.083984"/>
     <use xlink:href="#DejaVuSans-4d" x="90.576172"/>
     <use xlink:href="#DejaVuSans-45" x="176.855469"/>
     <use xlink:href="#DejaVuSans-20" x="240.039062"/>
     <use xlink:href="#DejaVuSans-53" x="271.826172"/>
     <use xlink:href="#DejaVuSans-45" x="335.302734"/>
     <use xlink:href="#DejaVuSans-52" x="398.486328"/>
     <use xlink:href="#DejaVuSans-49" x="467.96875"/>
     <use xlink:href="#DejaVuSans-45" x="497.460938"/>
     <use xlink:href="#DejaVuSans-53" x="560.644531"/>
    </g>
   </g>
  </g>
 </g>
 <defs>
  <clipPath id="p916d607565">
   <rect x="108" y="43.2" width="669.6" height="277.2"/>
  </clipPath>
 </defs>
</svg>
