<?xml version="1.0" encoding="utf-8" standalone="no"?>
<!DOCTYPE svg PUBLIC "-//W3C//DTD SVG 1.1//EN"
  "http://www.w3.org/Graphics/SVG/1.1/DTD/svg11.dtd">
<svg xmlns:xlink="http://www.w3.org/1999/xlink" width="460.8pt" height="345.6pt" viewBox="0 0 460.8 345.6" xmlns="http://www.w3.org/2000/svg" version="1.1">
 <metadata>
  <rdf:RDF xmlns:dc="http://purl.org/dc/elements/1.1/" xmlns:cc="http://creativecommons.org/ns#" xmlns:rdf="http://www.w3.org/1999/02/22-rdf-syntax-ns#">
   <cc:Work>
    <dc:type rdf:resource="http://purl.org/dc/dcmitype/StillImage"/>
    <dc:date>2023-11-28T13:56:20.409504</dc:date>
    <dc:format>image/svg+xml</dc:format>
    <dc:creator>
     <cc:Agent>
      <dc:title>Matplotlib v3.7.4, https://matplotlib.org/</dc:title>
     </cc:Agent>
    </dc:creator>
   </cc:Work>
  </rdf:RDF>
 </metadata>
 <defs>
  <style type="text/css">*{stroke-linejoin: round; stroke-linecap: butt}</style>
 </defs>
 <g id="figure_1">
  <g id="patch_1">
   <path d="M 0 345.6 
L 460.8 345.6 
L 460.8 0 
L 0 0 
z
" style="fill: #ffffff"/>
  </g>
  <g id="axes_1">
   <g id="patch_2">
    <path d="M 102.134 295 
L 450 295 
L 450 58.0224 
L 102.134 58.0224 
z
" style="fill: #ffffff"/>
   </g>
   <g id="patch_3">
    <path d="M 117.946091 176.5112 
L 134.303426 176.5112 
L 134.303426 168.631695 
L 117.946091 168.631695 
z
" clip-path="url(#p8b7822c870)" style="fill: #808080"/>
   </g>
   <g id="patch_4">
    <path d="M 226.994994 176.5112 
L 243.352329 176.5112 
L 243.352329 176.5112 
L 226.994994 176.5112 
z
" clip-path="url(#p8b7822c870)" style="fill: #808080"/>
   </g>
   <g id="patch_5">
    <path d="M 336.043897 176.5112 
L 352.401232 176.5112 
L 352.401232 173.845202 
L 336.043897 173.845202 
z
" clip-path="url(#p8b7822c870)" style="fill: #808080"/>
   </g>
   <g id="patch_6">
    <path d="M 134.303426 176.5112 
L 150.660762 176.5112 
L 150.660762 174.970846 
L 134.303426 174.970846 
z
" clip-path="url(#p8b7822c870)" style="fill: #a9a9a9"/>
   </g>
   <g id="patch_7">
    <path d="M 243.352329 176.5112 
L 259.709665 176.5112 
L 259.709665 165.491742 
L 243.352329 165.491742 
z
" clip-path="url(#p8b7822c870)" style="fill: #a9a9a9"/>
   </g>
   <g id="patch_8">
    <path d="M 352.401232 176.5112 
L 368.758567 176.5112 
L 368.758567 167.861518 
L 352.401232 167.861518 
z
" clip-path="url(#p8b7822c870)" style="fill: #a9a9a9"/>
   </g>
   <g id="patch_9">
    <path d="M 150.660762 176.5112 
L 167.018097 176.5112 
L 167.018097 167.446807 
L 150.660762 167.446807 
z
" clip-path="url(#p8b7822c870)" style="fill: #b0c4de"/>
   </g>
   <g id="patch_10">
    <path d="M 259.709665 176.5112 
L 276.067 176.5112 
L 276.067 170.705249 
L 259.709665 170.705249 
z
" clip-path="url(#p8b7822c870)" style="fill: #b0c4de"/>
   </g>
   <g id="patch_11">
    <path d="M 368.758567 176.5112 
L 385.115903 176.5112 
L 385.115903 163.773654 
L 368.758567 163.773654 
z
" clip-path="url(#p8b7822c870)" style="fill: #b0c4de"/>
   </g>
   <g id="patch_12">
    <path d="M 167.018097 176.5112 
L 183.375433 176.5112 
L 183.375433 169.283383 
L 167.018097 169.283383 
z
" clip-path="url(#p8b7822c870)" style="fill: #6495ed"/>
   </g>
   <g id="patch_13">
    <path d="M 276.067 176.5112 
L 292.424335 176.5112 
L 292.424335 154.82775 
L 276.067 154.82775 
z
" clip-path="url(#p8b7822c870)" style="fill: #6495ed"/>
   </g>
   <g id="patch_14">
    <path d="M 385.115903 176.5112 
L 401.473238 176.5112 
L 401.473238 172.897292 
L 385.115903 172.897292 
z
" clip-path="url(#p8b7822c870)" style="fill: #6495ed"/>
   </g>
   <g id="patch_15">
    <path d="M 183.375433 176.5112 
L 199.732768 176.5112 
L 199.732768 171.475426 
L 183.375433 171.475426 
z
" clip-path="url(#p8b7822c870)" style="fill: #4169e1"/>
   </g>
   <g id="patch_16">
    <path d="M 292.424335 176.5112 
L 308.781671 176.5112 
L 308.781671 171.890137 
L 292.424335 171.890137 
z
" clip-path="url(#p8b7822c870)" style="fill: #4169e1"/>
   </g>
   <g id="patch_17">
    <path d="M 401.473238 176.5112 
L 417.830574 176.5112 
L 417.830574 169.046406 
L 401.473238 169.046406 
z
" clip-path="url(#p8b7822c870)" style="fill: #4169e1"/>
   </g>
   <g id="patch_18">
    <path d="M 199.732768 176.5112 
L 216.090103 176.5112 
L 216.090103 172.541825 
L 199.732768 172.541825 
z
" clip-path="url(#p8b7822c870)" style="fill: #191970"/>
   </g>
   <g id="patch_19">
    <path d="M 308.781671 176.5112 
L 325.139006 176.5112 
L 325.139006 173.489736 
L 308.781671 173.489736 
z
" clip-path="url(#p8b7822c870)" style="fill: #191970"/>
   </g>
   <g id="patch_20">
    <path d="M 417.830574 176.5112 
L 434.187909 176.5112 
L 434.187909 173.667469 
L 417.830574 173.667469 
z
" clip-path="url(#p8b7822c870)" style="fill: #191970"/>
   </g>
   <g id="matplotlib.axis_1">
    <g id="xtick_1">
     <g id="line2d_1">
      <defs>
       <path id="mb0415da1e0" d="M 0 0 
L 0 3.5 
" style="stroke: #000000; stroke-width: 0.8"/>
      </defs>
      <g>
       <use xlink:href="#mb0415da1e0" x="158.839429" y="295" style="stroke: #000000; stroke-width: 0.8"/>
      </g>
     </g>
     <g id="text_1">
      <!-- SAWTOOTH -->
      <g transform="translate(112.284429 314.1575) scale(0.16 -0.16)">
       <defs>
        <path id="DejaVuSans-53" d="M 3425 4513 
L 3425 3897 
Q 3066 4069 2747 4153 
Q 2428 4238 2131 4238 
Q 1616 4238 1336 4038 
Q 1056 3838 1056 3469 
Q 1056 3159 1242 3001 
Q 1428 2844 1947 2747 
L 2328 2669 
Q 3034 2534 3370 2195 
Q 3706 1856 3706 1288 
Q 3706 609 3251 259 
Q 2797 -91 1919 -91 
Q 1588 -91 1214 -16 
Q 841 59 441 206 
L 441 856 
Q 825 641 1194 531 
Q 1563 422 1919 422 
Q 2459 422 2753 634 
Q 3047 847 3047 1241 
Q 3047 1584 2836 1778 
Q 2625 1972 2144 2069 
L 1759 2144 
Q 1053 2284 737 2584 
Q 422 2884 422 3419 
Q 422 4038 858 4394 
Q 1294 4750 2059 4750 
Q 2388 4750 2728 4690 
Q 3069 4631 3425 4513 
z
" transform="scale(0.015625)"/>
        <path id="DejaVuSans-41" d="M 2188 4044 
L 1331 1722 
L 3047 1722 
L 2188 4044 
z
M 1831 4666 
L 2547 4666 
L 4325 0 
L 3669 0 
L 3244 1197 
L 1141 1197 
L 716 0 
L 50 0 
L 1831 4666 
z
" transform="scale(0.015625)"/>
        <path id="DejaVuSans-57" d="M 213 4666 
L 850 4666 
L 1831 722 
L 2809 4666 
L 3519 4666 
L 4500 722 
L 5478 4666 
L 6119 4666 
L 4947 0 
L 4153 0 
L 3169 4050 
L 2175 0 
L 1381 0 
L 213 4666 
z
" transform="scale(0.015625)"/>
        <path id="DejaVuSans-54" d="M -19 4666 
L 3928 4666 
L 3928 4134 
L 2272 4134 
L 2272 0 
L 1638 0 
L 1638 4134 
L -19 4134 
L -19 4666 
z
" transform="scale(0.015625)"/>
        <path id="DejaVuSans-4f" d="M 2522 4238 
Q 1834 4238 1429 3725 
Q 1025 3213 1025 2328 
Q 1025 1447 1429 934 
Q 1834 422 2522 422 
Q 3209 422 3611 934 
Q 4013 1447 4013 2328 
Q 4013 3213 3611 3725 
Q 3209 4238 2522 4238 
z
M 2522 4750 
Q 3503 4750 4090 4092 
Q 4678 3434 4678 2328 
Q 4678 1225 4090 567 
Q 3503 -91 2522 -91 
Q 1538 -91 948 565 
Q 359 1222 359 2328 
Q 359 3434 948 4092 
Q 1538 4750 2522 4750 
z
" transform="scale(0.015625)"/>
        <path id="DejaVuSans-48" d="M 628 4666 
L 1259 4666 
L 1259 2753 
L 3553 2753 
L 3553 4666 
L 4184 4666 
L 4184 0 
L 3553 0 
L 3553 2222 
L 1259 2222 
L 1259 0 
L 628 0 
L 628 4666 
z
" transform="scale(0.015625)"/>
       </defs>
       <use xlink:href="#DejaVuSans-53"/>
       <use xlink:href="#DejaVuSans-41" x="65.351562"/>
       <use xlink:href="#DejaVuSans-57" x="128.259766"/>
       <use xlink:href="#DejaVuSans-54" x="227.136719"/>
       <use xlink:href="#DejaVuSans-4f" x="288.220703"/>
       <use xlink:href="#DejaVuSans-4f" x="366.931641"/>
       <use xlink:href="#DejaVuSans-54" x="445.642578"/>
       <use xlink:href="#DejaVuSans-48" x="506.726562"/>
      </g>
     </g>
    </g>
    <g id="xtick_2">
     <g id="line2d_2">
      <g>
       <use xlink:href="#mb0415da1e0" x="267.888332" y="295" style="stroke: #000000; stroke-width: 0.8"/>
      </g>
     </g>
     <g id="text_2">
      <!-- SINE -->
      <g transform="translate(249.409582 314.1575) scale(0.16 -0.16)">
       <defs>
        <path id="DejaVuSans-49" d="M 628 4666 
L 1259 4666 
L 1259 0 
L 628 0 
L 628 4666 
z
" transform="scale(0.015625)"/>
        <path id="DejaVuSans-4e" d="M 628 4666 
L 1478 4666 
L 3547 763 
L 3547 4666 
L 4159 4666 
L 4159 0 
L 3309 0 
L 1241 3903 
L 1241 0 
L 628 0 
L 628 4666 
z
" transform="scale(0.015625)"/>
        <path id="DejaVuSans-45" d="M 628 4666 
L 3578 4666 
L 3578 4134 
L 1259 4134 
L 1259 2753 
L 3481 2753 
L 3481 2222 
L 1259 2222 
L 1259 531 
L 3634 531 
L 3634 0 
L 628 0 
L 628 4666 
z
" transform="scale(0.015625)"/>
       </defs>
       <use xlink:href="#DejaVuSans-53"/>
       <use xlink:href="#DejaVuSans-49" x="63.476562"/>
       <use xlink:href="#DejaVuSans-4e" x="92.96875"/>
       <use xlink:href="#DejaVuSans-45" x="167.773438"/>
      </g>
     </g>
    </g>
    <g id="xtick_3">
     <g id="line2d_3">
      <g>
       <use xlink:href="#mb0415da1e0" x="376.937235" y="295" style="stroke: #000000; stroke-width: 0.8"/>
      </g>
     </g>
     <g id="text_3">
      <!-- SQUARE -->
      <g transform="translate(343.619735 314.1575) scale(0.16 -0.16)">
       <defs>
        <path id="DejaVuSans-51" d="M 2522 4238 
Q 1834 4238 1429 3725 
Q 1025 3213 1025 2328 
Q 1025 1447 1429 934 
Q 1834 422 2522 422 
Q 3209 422 3611 934 
Q 4013 1447 4013 2328 
Q 4013 3213 3611 3725 
Q 3209 4238 2522 4238 
z
M 3406 84 
L 4238 -825 
L 3475 -825 
L 2784 -78 
Q 2681 -84 2626 -87 
Q 2572 -91 2522 -91 
Q 1538 -91 948 567 
Q 359 1225 359 2328 
Q 359 3434 948 4092 
Q 1538 4750 2522 4750 
Q 3503 4750 4090 4092 
Q 4678 3434 4678 2328 
Q 4678 1516 4351 937 
Q 4025 359 3406 84 
z
" transform="scale(0.015625)"/>
        <path id="DejaVuSans-55" d="M 556 4666 
L 1191 4666 
L 1191 1831 
Q 1191 1081 1462 751 
Q 1734 422 2344 422 
Q 2950 422 3222 751 
Q 3494 1081 3494 1831 
L 3494 4666 
L 4128 4666 
L 4128 1753 
Q 4128 841 3676 375 
Q 3225 -91 2344 -91 
Q 1459 -91 1007 375 
Q 556 841 556 1753 
L 556 4666 
z
" transform="scale(0.015625)"/>
        <path id="DejaVuSans-52" d="M 2841 2188 
Q 3044 2119 3236 1894 
Q 3428 1669 3622 1275 
L 4263 0 
L 3584 0 
L 2988 1197 
Q 2756 1666 2539 1819 
Q 2322 1972 1947 1972 
L 1259 1972 
L 1259 0 
L 628 0 
L 628 4666 
L 2053 4666 
Q 2853 4666 3247 4331 
Q 3641 3997 3641 3322 
Q 3641 2881 3436 2590 
Q 3231 2300 2841 2188 
z
M 1259 4147 
L 1259 2491 
L 2053 2491 
Q 2509 2491 2742 2702 
Q 2975 2913 2975 3322 
Q 2975 3731 2742 3939 
Q 2509 4147 2053 4147 
L 1259 4147 
z
" transform="scale(0.015625)"/>
       </defs>
       <use xlink:href="#DejaVuSans-53"/>
       <use xlink:href="#DejaVuSans-51" x="63.476562"/>
       <use xlink:href="#DejaVuSans-55" x="142.1875"/>
       <use xlink:href="#DejaVuSans-41" x="215.380859"/>
       <use xlink:href="#DejaVuSans-52" x="283.789062"/>
       <use xlink:href="#DejaVuSans-45" x="353.271484"/>
      </g>
     </g>
    </g>
    <g id="text_4">
     <!-- SIGNAL SHAPE -->
     <g transform="translate(217.52575 333.6425) scale(0.16 -0.16)">
      <defs>
       <path id="DejaVuSans-47" d="M 3809 666 
L 3809 1919 
L 2778 1919 
L 2778 2438 
L 4434 2438 
L 4434 434 
Q 4069 175 3628 42 
Q 3188 -91 2688 -91 
Q 1594 -91 976 548 
Q 359 1188 359 2328 
Q 359 3472 976 4111 
Q 1594 4750 2688 4750 
Q 3144 4750 3555 4637 
Q 3966 4525 4313 4306 
L 4313 3634 
Q 3963 3931 3569 4081 
Q 3175 4231 2741 4231 
Q 1884 4231 1454 3753 
Q 1025 3275 1025 2328 
Q 1025 1384 1454 906 
Q 1884 428 2741 428 
Q 3075 428 3337 486 
Q 3600 544 3809 666 
z
" transform="scale(0.015625)"/>
       <path id="DejaVuSans-4c" d="M 628 4666 
L 1259 4666 
L 1259 531 
L 3531 531 
L 3531 0 
L 628 0 
L 628 4666 
z
" transform="scale(0.015625)"/>
       <path id="DejaVuSans-20" transform="scale(0.015625)"/>
       <path id="DejaVuSans-50" d="M 1259 4147 
L 1259 2394 
L 2053 2394 
Q 2494 2394 2734 2622 
Q 2975 2850 2975 3272 
Q 2975 3691 2734 3919 
Q 2494 4147 2053 4147 
L 1259 4147 
z
M 628 4666 
L 2053 4666 
Q 2838 4666 3239 4311 
Q 3641 3956 3641 3272 
Q 3641 2581 3239 2228 
Q 2838 1875 2053 1875 
L 1259 1875 
L 1259 0 
L 628 0 
L 628 4666 
z
" transform="scale(0.015625)"/>
      </defs>
      <use xlink:href="#DejaVuSans-53"/>
      <use xlink:href="#DejaVuSans-49" x="63.476562"/>
      <use xlink:href="#DejaVuSans-47" x="92.96875"/>
      <use xlink:href="#DejaVuSans-4e" x="170.458984"/>
      <use xlink:href="#DejaVuSans-41" x="245.263672"/>
      <use xlink:href="#DejaVuSans-4c" x="313.671875"/>
      <use xlink:href="#DejaVuSans-20" x="369.384766"/>
      <use xlink:href="#DejaVuSans-53" x="401.171875"/>
      <use xlink:href="#DejaVuSans-48" x="464.648438"/>
      <use xlink:href="#DejaVuSans-41" x="539.84375"/>
      <use xlink:href="#DejaVuSans-50" x="608.251953"/>
      <use xlink:href="#DejaVuSans-45" x="668.554688"/>
     </g>
    </g>
   </g>
   <g id="matplotlib.axis_2">
    <g id="ytick_1">
     <g id="line2d_4">
      <defs>
       <path id="mc975c9fe85" d="M 0 0 
L -3.5 0 
" style="stroke: #000000; stroke-width: 0.8"/>
      </defs>
      <g>
       <use xlink:href="#mc975c9fe85" x="102.134" y="295" style="stroke: #000000; stroke-width: 0.8"/>
      </g>
     </g>
     <g id="text_5">
      <!-- −1.0 -->
      <g transform="translate(56.2815 301.07875) scale(0.16 -0.16)">
       <defs>
        <path id="DejaVuSans-2212" d="M 678 2272 
L 4684 2272 
L 4684 1741 
L 678 1741 
L 678 2272 
z
" transform="scale(0.015625)"/>
        <path id="DejaVuSans-31" d="M 794 531 
L 1825 531 
L 1825 4091 
L 703 3866 
L 703 4441 
L 1819 4666 
L 2450 4666 
L 2450 531 
L 3481 531 
L 3481 0 
L 794 0 
L 794 531 
z
" transform="scale(0.015625)"/>
        <path id="DejaVuSans-2e" d="M 684 794 
L 1344 794 
L 1344 0 
L 684 0 
L 684 794 
z
" transform="scale(0.015625)"/>
        <path id="DejaVuSans-30" d="M 2034 4250 
Q 1547 4250 1301 3770 
Q 1056 3291 1056 2328 
Q 1056 1369 1301 889 
Q 1547 409 2034 409 
Q 2525 409 2770 889 
Q 3016 1369 3016 2328 
Q 3016 3291 2770 3770 
Q 2525 4250 2034 4250 
z
M 2034 4750 
Q 2819 4750 3233 4129 
Q 3647 3509 3647 2328 
Q 3647 1150 3233 529 
Q 2819 -91 2034 -91 
Q 1250 -91 836 529 
Q 422 1150 422 2328 
Q 422 3509 836 4129 
Q 1250 4750 2034 4750 
z
" transform="scale(0.015625)"/>
       </defs>
       <use xlink:href="#DejaVuSans-2212"/>
       <use xlink:href="#DejaVuSans-31" x="83.789062"/>
       <use xlink:href="#DejaVuSans-2e" x="147.412109"/>
       <use xlink:href="#DejaVuSans-30" x="179.199219"/>
      </g>
     </g>
    </g>
    <g id="ytick_2">
     <g id="line2d_5">
      <g>
       <use xlink:href="#mc975c9fe85" x="102.134" y="235.7556" style="stroke: #000000; stroke-width: 0.8"/>
      </g>
     </g>
     <g id="text_6">
      <!-- −0.5 -->
      <g transform="translate(56.2815 241.83435) scale(0.16 -0.16)">
       <defs>
        <path id="DejaVuSans-35" d="M 691 4666 
L 3169 4666 
L 3169 4134 
L 1269 4134 
L 1269 2991 
Q 1406 3038 1543 3061 
Q 1681 3084 1819 3084 
Q 2600 3084 3056 2656 
Q 3513 2228 3513 1497 
Q 3513 744 3044 326 
Q 2575 -91 1722 -91 
Q 1428 -91 1123 -41 
Q 819 9 494 109 
L 494 744 
Q 775 591 1075 516 
Q 1375 441 1709 441 
Q 2250 441 2565 725 
Q 2881 1009 2881 1497 
Q 2881 1984 2565 2268 
Q 2250 2553 1709 2553 
Q 1456 2553 1204 2497 
Q 953 2441 691 2322 
L 691 4666 
z
" transform="scale(0.015625)"/>
       </defs>
       <use xlink:href="#DejaVuSans-2212"/>
       <use xlink:href="#DejaVuSans-30" x="83.789062"/>
       <use xlink:href="#DejaVuSans-2e" x="147.412109"/>
       <use xlink:href="#DejaVuSans-35" x="179.199219"/>
      </g>
     </g>
    </g>
    <g id="ytick_3">
     <g id="line2d_6">
      <g>
       <use xlink:href="#mc975c9fe85" x="102.134" y="176.5112" style="stroke: #000000; stroke-width: 0.8"/>
      </g>
     </g>
     <g id="text_7">
      <!-- 0.0 -->
      <g transform="translate(69.689 182.58995) scale(0.16 -0.16)">
       <use xlink:href="#DejaVuSans-30"/>
       <use xlink:href="#DejaVuSans-2e" x="63.623047"/>
       <use xlink:href="#DejaVuSans-30" x="95.410156"/>
      </g>
     </g>
    </g>
    <g id="ytick_4">
     <g id="line2d_7">
      <g>
       <use xlink:href="#mc975c9fe85" x="102.134" y="117.2668" style="stroke: #000000; stroke-width: 0.8"/>
      </g>
     </g>
     <g id="text_8">
      <!-- 0.5 -->
      <g transform="translate(69.689 123.34555) scale(0.16 -0.16)">
       <use xlink:href="#DejaVuSans-30"/>
       <use xlink:href="#DejaVuSans-2e" x="63.623047"/>
       <use xlink:href="#DejaVuSans-35" x="95.410156"/>
      </g>
     </g>
    </g>
    <g id="ytick_5">
     <g id="line2d_8">
      <g>
       <use xlink:href="#mc975c9fe85" x="102.134" y="58.0224" style="stroke: #000000; stroke-width: 0.8"/>
      </g>
     </g>
     <g id="text_9">
      <!-- 1.0 -->
      <g transform="translate(69.689 64.10115) scale(0.16 -0.16)">
       <use xlink:href="#DejaVuSans-31"/>
       <use xlink:href="#DejaVuSans-2e" x="63.623047"/>
       <use xlink:href="#DejaVuSans-30" x="95.410156"/>
      </g>
     </g>
    </g>
    <g id="text_10">
     <!-- ERROR IN HOURS -->
     <g transform="translate(31.0375 246.7762) rotate(-90) scale(0.16 -0.16)">
      <use xlink:href="#DejaVuSans-45"/>
      <use xlink:href="#DejaVuSans-52" x="63.183594"/>
      <use xlink:href="#DejaVuSans-52" x="132.666016"/>
      <use xlink:href="#DejaVuSans-4f" x="202.148438"/>
      <use xlink:href="#DejaVuSans-52" x="280.859375"/>
      <use xlink:href="#DejaVuSans-20" x="350.341797"/>
      <use xlink:href="#DejaVuSans-49" x="382.128906"/>
      <use xlink:href="#DejaVuSans-4e" x="411.621094"/>
      <use xlink:href="#DejaVuSans-20" x="486.425781"/>
      <use xlink:href="#DejaVuSans-48" x="518.212891"/>
      <use xlink:href="#DejaVuSans-4f" x="593.408203"/>
      <use xlink:href="#DejaVuSans-55" x="672.119141"/>
      <use xlink:href="#DejaVuSans-52" x="745.3125"/>
      <use xlink:href="#DejaVuSans-53" x="814.794922"/>
     </g>
     <!-- (CIRCADIPY - GROUND TRUTH) -->
     <g transform="translate(48.954 298.7387) rotate(-90) scale(0.16 -0.16)">
      <defs>
       <path id="DejaVuSans-28" d="M 1984 4856 
Q 1566 4138 1362 3434 
Q 1159 2731 1159 2009 
Q 1159 1288 1364 580 
Q 1569 -128 1984 -844 
L 1484 -844 
Q 1016 -109 783 600 
Q 550 1309 550 2009 
Q 550 2706 781 3412 
Q 1013 4119 1484 4856 
L 1984 4856 
z
" transform="scale(0.015625)"/>
       <path id="DejaVuSans-43" d="M 4122 4306 
L 4122 3641 
Q 3803 3938 3442 4084 
Q 3081 4231 2675 4231 
Q 1875 4231 1450 3742 
Q 1025 3253 1025 2328 
Q 1025 1406 1450 917 
Q 1875 428 2675 428 
Q 3081 428 3442 575 
Q 3803 722 4122 1019 
L 4122 359 
Q 3791 134 3420 21 
Q 3050 -91 2638 -91 
Q 1578 -91 968 557 
Q 359 1206 359 2328 
Q 359 3453 968 4101 
Q 1578 4750 2638 4750 
Q 3056 4750 3426 4639 
Q 3797 4528 4122 4306 
z
" transform="scale(0.015625)"/>
       <path id="DejaVuSans-44" d="M 1259 4147 
L 1259 519 
L 2022 519 
Q 2988 519 3436 956 
Q 3884 1394 3884 2338 
Q 3884 3275 3436 3711 
Q 2988 4147 2022 4147 
L 1259 4147 
z
M 628 4666 
L 1925 4666 
Q 3281 4666 3915 4102 
Q 4550 3538 4550 2338 
Q 4550 1131 3912 565 
Q 3275 0 1925 0 
L 628 0 
L 628 4666 
z
" transform="scale(0.015625)"/>
       <path id="DejaVuSans-59" d="M -13 4666 
L 666 4666 
L 1959 2747 
L 3244 4666 
L 3922 4666 
L 2272 2222 
L 2272 0 
L 1638 0 
L 1638 2222 
L -13 4666 
z
" transform="scale(0.015625)"/>
       <path id="DejaVuSans-2d" d="M 313 2009 
L 1997 2009 
L 1997 1497 
L 313 1497 
L 313 2009 
z
" transform="scale(0.015625)"/>
       <path id="DejaVuSans-29" d="M 513 4856 
L 1013 4856 
Q 1481 4119 1714 3412 
Q 1947 2706 1947 2009 
Q 1947 1309 1714 600 
Q 1481 -109 1013 -844 
L 513 -844 
Q 928 -128 1133 580 
Q 1338 1288 1338 2009 
Q 1338 2731 1133 3434 
Q 928 4138 513 4856 
z
" transform="scale(0.015625)"/>
      </defs>
      <use xlink:href="#DejaVuSans-28"/>
      <use xlink:href="#DejaVuSans-43" x="39.013672"/>
      <use xlink:href="#DejaVuSans-49" x="108.837891"/>
      <use xlink:href="#DejaVuSans-52" x="138.330078"/>
      <use xlink:href="#DejaVuSans-43" x="202.8125"/>
      <use xlink:href="#DejaVuSans-41" x="272.636719"/>
      <use xlink:href="#DejaVuSans-44" x="341.044922"/>
      <use xlink:href="#DejaVuSans-49" x="418.046875"/>
      <use xlink:href="#DejaVuSans-50" x="447.539062"/>
      <use xlink:href="#DejaVuSans-59" x="505.591797"/>
      <use xlink:href="#DejaVuSans-20" x="566.675781"/>
      <use xlink:href="#DejaVuSans-2d" x="598.462891"/>
      <use xlink:href="#DejaVuSans-20" x="634.546875"/>
      <use xlink:href="#DejaVuSans-47" x="666.333984"/>
      <use xlink:href="#DejaVuSans-52" x="743.824219"/>
      <use xlink:href="#DejaVuSans-4f" x="813.306641"/>
      <use xlink:href="#DejaVuSans-55" x="892.017578"/>
      <use xlink:href="#DejaVuSans-4e" x="965.210938"/>
      <use xlink:href="#DejaVuSans-44" x="1040.015625"/>
      <use xlink:href="#DejaVuSans-20" x="1117.017578"/>
      <use xlink:href="#DejaVuSans-54" x="1148.804688"/>
      <use xlink:href="#DejaVuSans-52" x="1209.888672"/>
      <use xlink:href="#DejaVuSans-55" x="1279.371094"/>
      <use xlink:href="#DejaVuSans-54" x="1352.564453"/>
      <use xlink:href="#DejaVuSans-48" x="1413.648438"/>
      <use xlink:href="#DejaVuSans-29" x="1488.84375"/>
     </g>
    </g>
   </g>
   <g id="LineCollection_1">
    <path d="M 126.124759 192.738488 
L 126.124759 144.524902 
" clip-path="url(#p8b7822c870)" style="fill: none; stroke: #000000; stroke-width: 1.5"/>
    <path d="M 235.173661 176.5112 
L 235.173661 176.5112 
" clip-path="url(#p8b7822c870)" style="fill: none; stroke: #000000; stroke-width: 1.5"/>
    <path d="M 344.222564 184.173967 
L 344.222564 163.516437 
" clip-path="url(#p8b7822c870)" style="fill: none; stroke: #000000; stroke-width: 1.5"/>
   </g>
   <g id="line2d_9">
    <defs>
     <path id="m7d9273e4c7" d="M 3 0 
L -3 -0 
" style="stroke: #000000"/>
    </defs>
    <g clip-path="url(#p8b7822c870)">
     <use xlink:href="#m7d9273e4c7" x="126.124759" y="192.738488" style="stroke: #000000"/>
     <use xlink:href="#m7d9273e4c7" x="235.173661" y="176.5112" style="stroke: #000000"/>
     <use xlink:href="#m7d9273e4c7" x="344.222564" y="184.173967" style="stroke: #000000"/>
    </g>
   </g>
   <g id="line2d_10">
    <g clip-path="url(#p8b7822c870)">
     <use xlink:href="#m7d9273e4c7" x="126.124759" y="144.524902" style="stroke: #000000"/>
     <use xlink:href="#m7d9273e4c7" x="235.173661" y="176.5112" style="stroke: #000000"/>
     <use xlink:href="#m7d9273e4c7" x="344.222564" y="163.516437" style="stroke: #000000"/>
    </g>
   </g>
   <g id="LineCollection_2">
    <path d="M 142.482094 240.098848 
L 142.482094 109.842843 
" clip-path="url(#p8b7822c870)" style="fill: none; stroke: #000000; stroke-width: 1.5"/>
    <path d="M 251.530997 215.206372 
L 251.530997 115.777111 
" clip-path="url(#p8b7822c870)" style="fill: none; stroke: #000000; stroke-width: 1.5"/>
    <path d="M 360.5799 220.230484 
L 360.5799 115.492551 
" clip-path="url(#p8b7822c870)" style="fill: none; stroke: #000000; stroke-width: 1.5"/>
   </g>
   <g id="line2d_11">
    <g clip-path="url(#p8b7822c870)">
     <use xlink:href="#m7d9273e4c7" x="142.482094" y="240.098848" style="stroke: #000000"/>
     <use xlink:href="#m7d9273e4c7" x="251.530997" y="215.206372" style="stroke: #000000"/>
     <use xlink:href="#m7d9273e4c7" x="360.5799" y="220.230484" style="stroke: #000000"/>
    </g>
   </g>
   <g id="line2d_12">
    <g clip-path="url(#p8b7822c870)">
     <use xlink:href="#m7d9273e4c7" x="142.482094" y="109.842843" style="stroke: #000000"/>
     <use xlink:href="#m7d9273e4c7" x="251.530997" y="115.777111" style="stroke: #000000"/>
     <use xlink:href="#m7d9273e4c7" x="360.5799" y="115.492551" style="stroke: #000000"/>
    </g>
   </g>
   <g id="LineCollection_3">
    <path d="M 158.839429 221.176317 
L 158.839429 113.717296 
" clip-path="url(#p8b7822c870)" style="fill: none; stroke: #000000; stroke-width: 1.5"/>
    <path d="M 267.888332 197.474017 
L 267.888332 143.936481 
" clip-path="url(#p8b7822c870)" style="fill: none; stroke: #000000; stroke-width: 1.5"/>
    <path d="M 376.937235 201.48005 
L 376.937235 126.067258 
" clip-path="url(#p8b7822c870)" style="fill: none; stroke: #000000; stroke-width: 1.5"/>
   </g>
   <g id="line2d_13">
    <g clip-path="url(#p8b7822c870)">
     <use xlink:href="#m7d9273e4c7" x="158.839429" y="221.176317" style="stroke: #000000"/>
     <use xlink:href="#m7d9273e4c7" x="267.888332" y="197.474017" style="stroke: #000000"/>
     <use xlink:href="#m7d9273e4c7" x="376.937235" y="201.48005" style="stroke: #000000"/>
    </g>
   </g>
   <g id="line2d_14">
    <g clip-path="url(#p8b7822c870)">
     <use xlink:href="#m7d9273e4c7" x="158.839429" y="113.717296" style="stroke: #000000"/>
     <use xlink:href="#m7d9273e4c7" x="267.888332" y="143.936481" style="stroke: #000000"/>
     <use xlink:href="#m7d9273e4c7" x="376.937235" y="126.067258" style="stroke: #000000"/>
    </g>
   </g>
   <g id="LineCollection_4">
    <path d="M 175.196765 207.410089 
L 175.196765 131.156677 
" clip-path="url(#p8b7822c870)" style="fill: none; stroke: #000000; stroke-width: 1.5"/>
    <path d="M 284.245668 192.212985 
L 284.245668 117.442515 
" clip-path="url(#p8b7822c870)" style="fill: none; stroke: #000000; stroke-width: 1.5"/>
    <path d="M 393.294571 204.74737 
L 393.294571 141.047213 
" clip-path="url(#p8b7822c870)" style="fill: none; stroke: #000000; stroke-width: 1.5"/>
   </g>
   <g id="line2d_15">
    <g clip-path="url(#p8b7822c870)">
     <use xlink:href="#m7d9273e4c7" x="175.196765" y="207.410089" style="stroke: #000000"/>
     <use xlink:href="#m7d9273e4c7" x="284.245668" y="192.212985" style="stroke: #000000"/>
     <use xlink:href="#m7d9273e4c7" x="393.294571" y="204.74737" style="stroke: #000000"/>
    </g>
   </g>
   <g id="line2d_16">
    <g clip-path="url(#p8b7822c870)">
     <use xlink:href="#m7d9273e4c7" x="175.196765" y="131.156677" style="stroke: #000000"/>
     <use xlink:href="#m7d9273e4c7" x="284.245668" y="117.442515" style="stroke: #000000"/>
     <use xlink:href="#m7d9273e4c7" x="393.294571" y="141.047213" style="stroke: #000000"/>
    </g>
   </g>
   <g id="LineCollection_5">
    <path d="M 191.5541 206.337874 
L 191.5541 136.612978 
" clip-path="url(#p8b7822c870)" style="fill: none; stroke: #000000; stroke-width: 1.5"/>
    <path d="M 300.603003 197.509213 
L 300.603003 146.271061 
" clip-path="url(#p8b7822c870)" style="fill: none; stroke: #000000; stroke-width: 1.5"/>
    <path d="M 409.651906 198.181402 
L 409.651906 139.91141 
" clip-path="url(#p8b7822c870)" style="fill: none; stroke: #000000; stroke-width: 1.5"/>
   </g>
   <g id="line2d_17">
    <g clip-path="url(#p8b7822c870)">
     <use xlink:href="#m7d9273e4c7" x="191.5541" y="206.337874" style="stroke: #000000"/>
     <use xlink:href="#m7d9273e4c7" x="300.603003" y="197.509213" style="stroke: #000000"/>
     <use xlink:href="#m7d9273e4c7" x="409.651906" y="198.181402" style="stroke: #000000"/>
    </g>
   </g>
   <g id="line2d_18">
    <g clip-path="url(#p8b7822c870)">
     <use xlink:href="#m7d9273e4c7" x="191.5541" y="136.612978" style="stroke: #000000"/>
     <use xlink:href="#m7d9273e4c7" x="300.603003" y="146.271061" style="stroke: #000000"/>
     <use xlink:href="#m7d9273e4c7" x="409.651906" y="139.91141" style="stroke: #000000"/>
    </g>
   </g>
   <g id="LineCollection_6">
    <path d="M 207.911436 203.998928 
L 207.911436 141.084722 
" clip-path="url(#p8b7822c870)" style="fill: none; stroke: #000000; stroke-width: 1.5"/>
    <path d="M 316.960339 193.610079 
L 316.960339 153.369392 
" clip-path="url(#p8b7822c870)" style="fill: none; stroke: #000000; stroke-width: 1.5"/>
    <path d="M 426.009241 187.952128 
L 426.009241 159.38281 
" clip-path="url(#p8b7822c870)" style="fill: none; stroke: #000000; stroke-width: 1.5"/>
   </g>
   <g id="line2d_19">
    <g clip-path="url(#p8b7822c870)">
     <use xlink:href="#m7d9273e4c7" x="207.911436" y="203.998928" style="stroke: #000000"/>
     <use xlink:href="#m7d9273e4c7" x="316.960339" y="193.610079" style="stroke: #000000"/>
     <use xlink:href="#m7d9273e4c7" x="426.009241" y="187.952128" style="stroke: #000000"/>
    </g>
   </g>
   <g id="line2d_20">
    <g clip-path="url(#p8b7822c870)">
     <use xlink:href="#m7d9273e4c7" x="207.911436" y="141.084722" style="stroke: #000000"/>
     <use xlink:href="#m7d9273e4c7" x="316.960339" y="153.369392" style="stroke: #000000"/>
     <use xlink:href="#m7d9273e4c7" x="426.009241" y="159.38281" style="stroke: #000000"/>
    </g>
   </g>
   <g id="patch_21">
    <path d="M 102.134 295 
L 102.134 58.0224 
" style="fill: none; stroke: #000000; stroke-width: 0.8; stroke-linejoin: miter; stroke-linecap: square"/>
   </g>
   <g id="patch_22">
    <path d="M 450 295 
L 450 58.0224 
" style="fill: none; stroke: #000000; stroke-width: 0.8; stroke-linejoin: miter; stroke-linecap: square"/>
   </g>
   <g id="patch_23">
    <path d="M 102.134 295 
L 450 295 
" style="fill: none; stroke: #000000; stroke-width: 0.8; stroke-linejoin: miter; stroke-linecap: square"/>
   </g>
   <g id="patch_24">
    <path d="M 102.134 58.0224 
L 450 58.0224 
" style="fill: none; stroke: #000000; stroke-width: 0.8; stroke-linejoin: miter; stroke-linecap: square"/>
   </g>
   <g id="legend_1">
    <g id="patch_25">
     <path d="M 126.642625 30.545005 
L 150.642625 30.545005 
L 150.642625 22.145005 
L 126.642625 22.145005 
z
" style="fill: #808080"/>
    </g>
    <g id="text_11">
     <!-- Without Noise -->
     <g transform="translate(160.242625 30.545005) scale(0.12 -0.12)">
      <defs>
       <path id="DejaVuSans-69" d="M 603 3500 
L 1178 3500 
L 1178 0 
L 603 0 
L 603 3500 
z
M 603 4863 
L 1178 4863 
L 1178 4134 
L 603 4134 
L 603 4863 
z
" transform="scale(0.015625)"/>
       <path id="DejaVuSans-74" d="M 1172 4494 
L 1172 3500 
L 2356 3500 
L 2356 3053 
L 1172 3053 
L 1172 1153 
Q 1172 725 1289 603 
Q 1406 481 1766 481 
L 2356 481 
L 2356 0 
L 1766 0 
Q 1100 0 847 248 
Q 594 497 594 1153 
L 594 3053 
L 172 3053 
L 172 3500 
L 594 3500 
L 594 4494 
L 1172 4494 
z
" transform="scale(0.015625)"/>
       <path id="DejaVuSans-68" d="M 3513 2113 
L 3513 0 
L 2938 0 
L 2938 2094 
Q 2938 2591 2744 2837 
Q 2550 3084 2163 3084 
Q 1697 3084 1428 2787 
Q 1159 2491 1159 1978 
L 1159 0 
L 581 0 
L 581 4863 
L 1159 4863 
L 1159 2956 
Q 1366 3272 1645 3428 
Q 1925 3584 2291 3584 
Q 2894 3584 3203 3211 
Q 3513 2838 3513 2113 
z
" transform="scale(0.015625)"/>
       <path id="DejaVuSans-6f" d="M 1959 3097 
Q 1497 3097 1228 2736 
Q 959 2375 959 1747 
Q 959 1119 1226 758 
Q 1494 397 1959 397 
Q 2419 397 2687 759 
Q 2956 1122 2956 1747 
Q 2956 2369 2687 2733 
Q 2419 3097 1959 3097 
z
M 1959 3584 
Q 2709 3584 3137 3096 
Q 3566 2609 3566 1747 
Q 3566 888 3137 398 
Q 2709 -91 1959 -91 
Q 1206 -91 779 398 
Q 353 888 353 1747 
Q 353 2609 779 3096 
Q 1206 3584 1959 3584 
z
" transform="scale(0.015625)"/>
       <path id="DejaVuSans-75" d="M 544 1381 
L 544 3500 
L 1119 3500 
L 1119 1403 
Q 1119 906 1312 657 
Q 1506 409 1894 409 
Q 2359 409 2629 706 
Q 2900 1003 2900 1516 
L 2900 3500 
L 3475 3500 
L 3475 0 
L 2900 0 
L 2900 538 
Q 2691 219 2414 64 
Q 2138 -91 1772 -91 
Q 1169 -91 856 284 
Q 544 659 544 1381 
z
M 1991 3584 
L 1991 3584 
z
" transform="scale(0.015625)"/>
       <path id="DejaVuSans-73" d="M 2834 3397 
L 2834 2853 
Q 2591 2978 2328 3040 
Q 2066 3103 1784 3103 
Q 1356 3103 1142 2972 
Q 928 2841 928 2578 
Q 928 2378 1081 2264 
Q 1234 2150 1697 2047 
L 1894 2003 
Q 2506 1872 2764 1633 
Q 3022 1394 3022 966 
Q 3022 478 2636 193 
Q 2250 -91 1575 -91 
Q 1294 -91 989 -36 
Q 684 19 347 128 
L 347 722 
Q 666 556 975 473 
Q 1284 391 1588 391 
Q 1994 391 2212 530 
Q 2431 669 2431 922 
Q 2431 1156 2273 1281 
Q 2116 1406 1581 1522 
L 1381 1569 
Q 847 1681 609 1914 
Q 372 2147 372 2553 
Q 372 3047 722 3315 
Q 1072 3584 1716 3584 
Q 2034 3584 2315 3537 
Q 2597 3491 2834 3397 
z
" transform="scale(0.015625)"/>
       <path id="DejaVuSans-65" d="M 3597 1894 
L 3597 1613 
L 953 1613 
Q 991 1019 1311 708 
Q 1631 397 2203 397 
Q 2534 397 2845 478 
Q 3156 559 3463 722 
L 3463 178 
Q 3153 47 2828 -22 
Q 2503 -91 2169 -91 
Q 1331 -91 842 396 
Q 353 884 353 1716 
Q 353 2575 817 3079 
Q 1281 3584 2069 3584 
Q 2775 3584 3186 3129 
Q 3597 2675 3597 1894 
z
M 3022 2063 
Q 3016 2534 2758 2815 
Q 2500 3097 2075 3097 
Q 1594 3097 1305 2825 
Q 1016 2553 972 2059 
L 3022 2063 
z
" transform="scale(0.015625)"/>
      </defs>
      <use xlink:href="#DejaVuSans-57"/>
      <use xlink:href="#DejaVuSans-69" x="96.626953"/>
      <use xlink:href="#DejaVuSans-74" x="124.410156"/>
      <use xlink:href="#DejaVuSans-68" x="163.619141"/>
      <use xlink:href="#DejaVuSans-6f" x="226.998047"/>
      <use xlink:href="#DejaVuSans-75" x="288.179688"/>
      <use xlink:href="#DejaVuSans-74" x="351.558594"/>
      <use xlink:href="#DejaVuSans-20" x="390.767578"/>
      <use xlink:href="#DejaVuSans-4e" x="422.554688"/>
      <use xlink:href="#DejaVuSans-6f" x="497.359375"/>
      <use xlink:href="#DejaVuSans-69" x="558.541016"/>
      <use xlink:href="#DejaVuSans-73" x="586.324219"/>
      <use xlink:href="#DejaVuSans-65" x="638.423828"/>
     </g>
    </g>
    <g id="patch_26">
     <path d="M 126.642625 48.158755 
L 150.642625 48.158755 
L 150.642625 39.758755 
L 126.642625 39.758755 
z
" style="fill: #a9a9a9"/>
    </g>
    <g id="text_12">
     <!-- 0.1dB -->
     <g transform="translate(160.242625 48.158755) scale(0.12 -0.12)">
      <defs>
       <path id="DejaVuSans-64" d="M 2906 2969 
L 2906 4863 
L 3481 4863 
L 3481 0 
L 2906 0 
L 2906 525 
Q 2725 213 2448 61 
Q 2172 -91 1784 -91 
Q 1150 -91 751 415 
Q 353 922 353 1747 
Q 353 2572 751 3078 
Q 1150 3584 1784 3584 
Q 2172 3584 2448 3432 
Q 2725 3281 2906 2969 
z
M 947 1747 
Q 947 1113 1208 752 
Q 1469 391 1925 391 
Q 2381 391 2643 752 
Q 2906 1113 2906 1747 
Q 2906 2381 2643 2742 
Q 2381 3103 1925 3103 
Q 1469 3103 1208 2742 
Q 947 2381 947 1747 
z
" transform="scale(0.015625)"/>
       <path id="DejaVuSans-42" d="M 1259 2228 
L 1259 519 
L 2272 519 
Q 2781 519 3026 730 
Q 3272 941 3272 1375 
Q 3272 1813 3026 2020 
Q 2781 2228 2272 2228 
L 1259 2228 
z
M 1259 4147 
L 1259 2741 
L 2194 2741 
Q 2656 2741 2882 2914 
Q 3109 3088 3109 3444 
Q 3109 3797 2882 3972 
Q 2656 4147 2194 4147 
L 1259 4147 
z
M 628 4666 
L 2241 4666 
Q 2963 4666 3353 4366 
Q 3744 4066 3744 3513 
Q 3744 3084 3544 2831 
Q 3344 2578 2956 2516 
Q 3422 2416 3680 2098 
Q 3938 1781 3938 1306 
Q 3938 681 3513 340 
Q 3088 0 2303 0 
L 628 0 
L 628 4666 
z
" transform="scale(0.015625)"/>
      </defs>
      <use xlink:href="#DejaVuSans-30"/>
      <use xlink:href="#DejaVuSans-2e" x="63.623047"/>
      <use xlink:href="#DejaVuSans-31" x="95.410156"/>
      <use xlink:href="#DejaVuSans-64" x="159.033203"/>
      <use xlink:href="#DejaVuSans-42" x="222.509766"/>
     </g>
    </g>
    <g id="patch_27">
     <path d="M 268.235125 30.545005 
L 292.235125 30.545005 
L 292.235125 22.145005 
L 268.235125 22.145005 
z
" style="fill: #b0c4de"/>
    </g>
    <g id="text_13">
     <!-- 0.5dB -->
     <g transform="translate(301.835125 30.545005) scale(0.12 -0.12)">
      <use xlink:href="#DejaVuSans-30"/>
      <use xlink:href="#DejaVuSans-2e" x="63.623047"/>
      <use xlink:href="#DejaVuSans-35" x="95.410156"/>
      <use xlink:href="#DejaVuSans-64" x="159.033203"/>
      <use xlink:href="#DejaVuSans-42" x="222.509766"/>
     </g>
    </g>
    <g id="patch_28">
     <path d="M 268.235125 48.158755 
L 292.235125 48.158755 
L 292.235125 39.758755 
L 268.235125 39.758755 
z
" style="fill: #6495ed"/>
    </g>
    <g id="text_14">
     <!-- 1dB -->
     <g transform="translate(301.835125 48.158755) scale(0.12 -0.12)">
      <use xlink:href="#DejaVuSans-31"/>
      <use xlink:href="#DejaVuSans-64" x="63.623047"/>
      <use xlink:href="#DejaVuSans-42" x="127.099609"/>
     </g>
    </g>
    <g id="patch_29">
     <path d="M 360.770125 30.545005 
L 384.770125 30.545005 
L 384.770125 22.145005 
L 360.770125 22.145005 
z
" style="fill: #4169e1"/>
    </g>
    <g id="text_15">
     <!-- 5dB -->
     <g transform="translate(394.370125 30.545005) scale(0.12 -0.12)">
      <use xlink:href="#DejaVuSans-35"/>
      <use xlink:href="#DejaVuSans-64" x="63.623047"/>
      <use xlink:href="#DejaVuSans-42" x="127.099609"/>
     </g>
    </g>
    <g id="patch_30">
     <path d="M 360.770125 48.158755 
L 384.770125 48.158755 
L 384.770125 39.758755 
L 360.770125 39.758755 
z
" style="fill: #191970"/>
    </g>
    <g id="text_16">
     <!-- 10dB -->
     <g transform="translate(394.370125 48.158755) scale(0.12 -0.12)">
      <use xlink:href="#DejaVuSans-31"/>
      <use xlink:href="#DejaVuSans-30" x="63.623047"/>
      <use xlink:href="#DejaVuSans-64" x="127.246094"/>
      <use xlink:href="#DejaVuSans-42" x="190.722656"/>
     </g>
    </g>
   </g>
  </g>
 </g>
 <defs>
  <clipPath id="p8b7822c870">
   <rect x="102.134" y="58.0224" width="347.866" height="236.9776"/>
  </clipPath>
 </defs>
</svg>
