<?xml version="1.0" encoding="utf-8" standalone="no"?>
<!DOCTYPE svg PUBLIC "-//W3C//DTD SVG 1.1//EN"
  "http://www.w3.org/Graphics/SVG/1.1/DTD/svg11.dtd">
<svg xmlns:xlink="http://www.w3.org/1999/xlink" width="432pt" height="576pt" viewBox="0 0 432 576" xmlns="http://www.w3.org/2000/svg" version="1.1">
 <metadata>
  <rdf:RDF xmlns:dc="http://purl.org/dc/elements/1.1/" xmlns:cc="http://creativecommons.org/ns#" xmlns:rdf="http://www.w3.org/1999/02/22-rdf-syntax-ns#">
   <cc:Work>
    <dc:type rdf:resource="http://purl.org/dc/dcmitype/StillImage"/>
    <dc:date>2024-07-08T15:39:53.176432</dc:date>
    <dc:format>image/svg+xml</dc:format>
    <dc:creator>
     <cc:Agent>
      <dc:title>Matplotlib v3.6.2, https://matplotlib.org/</dc:title>
     </cc:Agent>
    </dc:creator>
   </cc:Work>
  </rdf:RDF>
 </metadata>
 <defs>
  <style type="text/css">*{stroke-linejoin: round; stroke-linecap: butt}</style>
 </defs>
 <g id="figure_1">
  <g id="patch_1">
   <path d="M 0 576 
L 432 576 
L 432 0 
L 0 0 
z
" style="fill: #ffffff"/>
  </g>
  <g id="axes_1">
   <g id="patch_2">
    <path d="M 57.62 254.16 
L 410.380413 254.16 
L 410.380413 27.6 
L 57.62 27.6 
z
" style="fill: #ffffff"/>
   </g>
   <g id="patch_3">
    <path d="M 174.263595 254.16 
L 174.263595 27.6 
L 186.839724 27.6 
L 186.839724 254.16 
z
" clip-path="url(#p77b9695930)" style="fill: #800000; opacity: 0.1; stroke: #800000; stroke-linejoin: miter"/>
   </g>
   <g id="patch_4">
    <path d="M 224.56811 254.16 
L 224.56811 27.6 
L 237.144239 27.6 
L 237.144239 254.16 
z
" clip-path="url(#p77b9695930)" style="fill: #800000; opacity: 0.1; stroke: #800000; stroke-linejoin: miter"/>
   </g>
   <g id="patch_5">
    <path d="M 268.584561 254.16 
L 268.584561 27.6 
L 281.16069 27.6 
L 281.16069 254.16 
z
" clip-path="url(#p77b9695930)" style="fill: #800000; opacity: 0.1; stroke: #800000; stroke-linejoin: miter"/>
   </g>
   <g id="patch_6">
    <path d="M 362.905527 254.16 
L 362.905527 27.6 
L 394.345849 27.6 
L 394.345849 254.16 
z
" clip-path="url(#p77b9695930)" style="fill: #191970; opacity: 0.1; stroke: #191970; stroke-linejoin: miter"/>
   </g>
   <g id="matplotlib.axis_1">
    <g id="xtick_1">
     <g id="line2d_1">
      <defs>
       <path id="m43c3166c0d" d="M 0 0 
L 0 3.5 
" style="stroke: #000000; stroke-width: 0.8"/>
      </defs>
      <g>
       <use xlink:href="#m43c3166c0d" x="73.654564" y="254.16" style="stroke: #000000; stroke-width: 0.8"/>
      </g>
     </g>
     <g id="text_1">
      <!-- 0 -->
      <g transform="translate(69.837064 270.278125) scale(0.12 -0.12)">
       <defs>
        <path id="DejaVuSans-30" d="M 2034 4250 
Q 1547 4250 1301 3770 
Q 1056 3291 1056 2328 
Q 1056 1369 1301 889 
Q 1547 409 2034 409 
Q 2525 409 2770 889 
Q 3016 1369 3016 2328 
Q 3016 3291 2770 3770 
Q 2525 4250 2034 4250 
z
M 2034 4750 
Q 2819 4750 3233 4129 
Q 3647 3509 3647 2328 
Q 3647 1150 3233 529 
Q 2819 -91 2034 -91 
Q 1250 -91 836 529 
Q 422 1150 422 2328 
Q 422 3509 836 4129 
Q 1250 4750 2034 4750 
z
" transform="scale(0.015625)"/>
       </defs>
       <use xlink:href="#DejaVuSans-30"/>
      </g>
     </g>
    </g>
    <g id="xtick_2">
     <g id="line2d_2">
      <g>
       <use xlink:href="#m43c3166c0d" x="136.535208" y="254.16" style="stroke: #000000; stroke-width: 0.8"/>
      </g>
     </g>
     <g id="text_2">
      <!-- 5 -->
      <g transform="translate(132.717708 270.278125) scale(0.12 -0.12)">
       <defs>
        <path id="DejaVuSans-35" d="M 691 4666 
L 3169 4666 
L 3169 4134 
L 1269 4134 
L 1269 2991 
Q 1406 3038 1543 3061 
Q 1681 3084 1819 3084 
Q 2600 3084 3056 2656 
Q 3513 2228 3513 1497 
Q 3513 744 3044 326 
Q 2575 -91 1722 -91 
Q 1428 -91 1123 -41 
Q 819 9 494 109 
L 494 744 
Q 775 591 1075 516 
Q 1375 441 1709 441 
Q 2250 441 2565 725 
Q 2881 1009 2881 1497 
Q 2881 1984 2565 2268 
Q 2250 2553 1709 2553 
Q 1456 2553 1204 2497 
Q 953 2441 691 2322 
L 691 4666 
z
" transform="scale(0.015625)"/>
       </defs>
       <use xlink:href="#DejaVuSans-35"/>
      </g>
     </g>
    </g>
    <g id="xtick_3">
     <g id="line2d_3">
      <g>
       <use xlink:href="#m43c3166c0d" x="199.415852" y="254.16" style="stroke: #000000; stroke-width: 0.8"/>
      </g>
     </g>
     <g id="text_3">
      <!-- 10 -->
      <g transform="translate(191.780852 270.278125) scale(0.12 -0.12)">
       <defs>
        <path id="DejaVuSans-31" d="M 794 531 
L 1825 531 
L 1825 4091 
L 703 3866 
L 703 4441 
L 1819 4666 
L 2450 4666 
L 2450 531 
L 3481 531 
L 3481 0 
L 794 0 
L 794 531 
z
" transform="scale(0.015625)"/>
       </defs>
       <use xlink:href="#DejaVuSans-31"/>
       <use xlink:href="#DejaVuSans-30" x="63.623047"/>
      </g>
     </g>
    </g>
    <g id="xtick_4">
     <g id="line2d_4">
      <g>
       <use xlink:href="#m43c3166c0d" x="262.296497" y="254.16" style="stroke: #000000; stroke-width: 0.8"/>
      </g>
     </g>
     <g id="text_4">
      <!-- 15 -->
      <g transform="translate(254.661497 270.278125) scale(0.12 -0.12)">
       <use xlink:href="#DejaVuSans-31"/>
       <use xlink:href="#DejaVuSans-35" x="63.623047"/>
      </g>
     </g>
    </g>
    <g id="xtick_5">
     <g id="line2d_5">
      <g>
       <use xlink:href="#m43c3166c0d" x="325.177141" y="254.16" style="stroke: #000000; stroke-width: 0.8"/>
      </g>
     </g>
     <g id="text_5">
      <!-- 20 -->
      <g transform="translate(317.542141 270.278125) scale(0.12 -0.12)">
       <defs>
        <path id="DejaVuSans-32" d="M 1228 531 
L 3431 531 
L 3431 0 
L 469 0 
L 469 531 
Q 828 903 1448 1529 
Q 2069 2156 2228 2338 
Q 2531 2678 2651 2914 
Q 2772 3150 2772 3378 
Q 2772 3750 2511 3984 
Q 2250 4219 1831 4219 
Q 1534 4219 1204 4116 
Q 875 4013 500 3803 
L 500 4441 
Q 881 4594 1212 4672 
Q 1544 4750 1819 4750 
Q 2544 4750 2975 4387 
Q 3406 4025 3406 3419 
Q 3406 3131 3298 2873 
Q 3191 2616 2906 2266 
Q 2828 2175 2409 1742 
Q 1991 1309 1228 531 
z
" transform="scale(0.015625)"/>
       </defs>
       <use xlink:href="#DejaVuSans-32"/>
       <use xlink:href="#DejaVuSans-30" x="63.623047"/>
      </g>
     </g>
    </g>
    <g id="xtick_6">
     <g id="line2d_6">
      <g>
       <use xlink:href="#m43c3166c0d" x="388.057785" y="254.16" style="stroke: #000000; stroke-width: 0.8"/>
      </g>
     </g>
     <g id="text_6">
      <!-- 25 -->
      <g transform="translate(380.422785 270.278125) scale(0.12 -0.12)">
       <use xlink:href="#DejaVuSans-32"/>
       <use xlink:href="#DejaVuSans-35" x="63.623047"/>
      </g>
     </g>
    </g>
   </g>
   <g id="matplotlib.axis_2">
    <g id="ytick_1">
     <g id="line2d_7">
      <defs>
       <path id="m6b72152b61" d="M 0 0 
L -3.5 0 
" style="stroke: #000000; stroke-width: 0.8"/>
      </defs>
      <g>
       <use xlink:href="#m6b72152b61" x="57.62" y="236.632898" style="stroke: #000000; stroke-width: 0.8"/>
      </g>
     </g>
     <g id="text_7">
      <!-- 0 -->
      <g transform="translate(42.985 241.191961) scale(0.12 -0.12)">
       <use xlink:href="#DejaVuSans-30"/>
      </g>
     </g>
    </g>
    <g id="ytick_2">
     <g id="line2d_8">
      <g>
       <use xlink:href="#m6b72152b61" x="57.62" y="207.555679" style="stroke: #000000; stroke-width: 0.8"/>
      </g>
     </g>
     <g id="text_8">
      <!-- 20 -->
      <g transform="translate(35.35 212.114742) scale(0.12 -0.12)">
       <use xlink:href="#DejaVuSans-32"/>
       <use xlink:href="#DejaVuSans-30" x="63.623047"/>
      </g>
     </g>
    </g>
    <g id="ytick_3">
     <g id="line2d_9">
      <g>
       <use xlink:href="#m6b72152b61" x="57.62" y="178.47846" style="stroke: #000000; stroke-width: 0.8"/>
      </g>
     </g>
     <g id="text_9">
      <!-- 40 -->
      <g transform="translate(35.35 183.037522) scale(0.12 -0.12)">
       <defs>
        <path id="DejaVuSans-34" d="M 2419 4116 
L 825 1625 
L 2419 1625 
L 2419 4116 
z
M 2253 4666 
L 3047 4666 
L 3047 1625 
L 3713 1625 
L 3713 1100 
L 3047 1100 
L 3047 0 
L 2419 0 
L 2419 1100 
L 313 1100 
L 313 1709 
L 2253 4666 
z
" transform="scale(0.015625)"/>
       </defs>
       <use xlink:href="#DejaVuSans-34"/>
       <use xlink:href="#DejaVuSans-30" x="63.623047"/>
      </g>
     </g>
    </g>
    <g id="ytick_4">
     <g id="line2d_10">
      <g>
       <use xlink:href="#m6b72152b61" x="57.62" y="149.401241" style="stroke: #000000; stroke-width: 0.8"/>
      </g>
     </g>
     <g id="text_10">
      <!-- 60 -->
      <g transform="translate(35.35 153.960303) scale(0.12 -0.12)">
       <defs>
        <path id="DejaVuSans-36" d="M 2113 2584 
Q 1688 2584 1439 2293 
Q 1191 2003 1191 1497 
Q 1191 994 1439 701 
Q 1688 409 2113 409 
Q 2538 409 2786 701 
Q 3034 994 3034 1497 
Q 3034 2003 2786 2293 
Q 2538 2584 2113 2584 
z
M 3366 4563 
L 3366 3988 
Q 3128 4100 2886 4159 
Q 2644 4219 2406 4219 
Q 1781 4219 1451 3797 
Q 1122 3375 1075 2522 
Q 1259 2794 1537 2939 
Q 1816 3084 2150 3084 
Q 2853 3084 3261 2657 
Q 3669 2231 3669 1497 
Q 3669 778 3244 343 
Q 2819 -91 2113 -91 
Q 1303 -91 875 529 
Q 447 1150 447 2328 
Q 447 3434 972 4092 
Q 1497 4750 2381 4750 
Q 2619 4750 2861 4703 
Q 3103 4656 3366 4563 
z
" transform="scale(0.015625)"/>
       </defs>
       <use xlink:href="#DejaVuSans-36"/>
       <use xlink:href="#DejaVuSans-30" x="63.623047"/>
      </g>
     </g>
    </g>
    <g id="ytick_5">
     <g id="line2d_11">
      <g>
       <use xlink:href="#m6b72152b61" x="57.62" y="120.324021" style="stroke: #000000; stroke-width: 0.8"/>
      </g>
     </g>
     <g id="text_11">
      <!-- 80 -->
      <g transform="translate(35.35 124.883084) scale(0.12 -0.12)">
       <defs>
        <path id="DejaVuSans-38" d="M 2034 2216 
Q 1584 2216 1326 1975 
Q 1069 1734 1069 1313 
Q 1069 891 1326 650 
Q 1584 409 2034 409 
Q 2484 409 2743 651 
Q 3003 894 3003 1313 
Q 3003 1734 2745 1975 
Q 2488 2216 2034 2216 
z
M 1403 2484 
Q 997 2584 770 2862 
Q 544 3141 544 3541 
Q 544 4100 942 4425 
Q 1341 4750 2034 4750 
Q 2731 4750 3128 4425 
Q 3525 4100 3525 3541 
Q 3525 3141 3298 2862 
Q 3072 2584 2669 2484 
Q 3125 2378 3379 2068 
Q 3634 1759 3634 1313 
Q 3634 634 3220 271 
Q 2806 -91 2034 -91 
Q 1263 -91 848 271 
Q 434 634 434 1313 
Q 434 1759 690 2068 
Q 947 2378 1403 2484 
z
M 1172 3481 
Q 1172 3119 1398 2916 
Q 1625 2713 2034 2713 
Q 2441 2713 2670 2916 
Q 2900 3119 2900 3481 
Q 2900 3844 2670 4047 
Q 2441 4250 2034 4250 
Q 1625 4250 1398 4047 
Q 1172 3844 1172 3481 
z
" transform="scale(0.015625)"/>
       </defs>
       <use xlink:href="#DejaVuSans-38"/>
       <use xlink:href="#DejaVuSans-30" x="63.623047"/>
      </g>
     </g>
    </g>
    <g id="ytick_6">
     <g id="line2d_12">
      <g>
       <use xlink:href="#m6b72152b61" x="57.62" y="91.246802" style="stroke: #000000; stroke-width: 0.8"/>
      </g>
     </g>
     <g id="text_12">
      <!-- 100 -->
      <g transform="translate(27.715 95.805865) scale(0.12 -0.12)">
       <use xlink:href="#DejaVuSans-31"/>
       <use xlink:href="#DejaVuSans-30" x="63.623047"/>
       <use xlink:href="#DejaVuSans-30" x="127.246094"/>
      </g>
     </g>
    </g>
    <g id="ytick_7">
     <g id="line2d_13">
      <g>
       <use xlink:href="#m6b72152b61" x="57.62" y="62.169583" style="stroke: #000000; stroke-width: 0.8"/>
      </g>
     </g>
     <g id="text_13">
      <!-- 120 -->
      <g transform="translate(27.715 66.728645) scale(0.12 -0.12)">
       <use xlink:href="#DejaVuSans-31"/>
       <use xlink:href="#DejaVuSans-32" x="63.623047"/>
       <use xlink:href="#DejaVuSans-30" x="127.246094"/>
      </g>
     </g>
    </g>
    <g id="ytick_8">
     <g id="line2d_14">
      <g>
       <use xlink:href="#m6b72152b61" x="57.62" y="33.092364" style="stroke: #000000; stroke-width: 0.8"/>
      </g>
     </g>
     <g id="text_14">
      <!-- 140 -->
      <g transform="translate(27.715 37.651426) scale(0.12 -0.12)">
       <use xlink:href="#DejaVuSans-31"/>
       <use xlink:href="#DejaVuSans-34" x="63.623047"/>
       <use xlink:href="#DejaVuSans-30" x="127.246094"/>
      </g>
     </g>
    </g>
    <g id="text_15">
     <!-- MEASUREMENT -->
     <g style="fill: #696969" transform="translate(21.219375 187.234688) rotate(-90) scale(0.12 -0.12)">
      <defs>
       <path id="DejaVuSans-4d" d="M 628 4666 
L 1569 4666 
L 2759 1491 
L 3956 4666 
L 4897 4666 
L 4897 0 
L 4281 0 
L 4281 4097 
L 3078 897 
L 2444 897 
L 1241 4097 
L 1241 0 
L 628 0 
L 628 4666 
z
" transform="scale(0.015625)"/>
       <path id="DejaVuSans-45" d="M 628 4666 
L 3578 4666 
L 3578 4134 
L 1259 4134 
L 1259 2753 
L 3481 2753 
L 3481 2222 
L 1259 2222 
L 1259 531 
L 3634 531 
L 3634 0 
L 628 0 
L 628 4666 
z
" transform="scale(0.015625)"/>
       <path id="DejaVuSans-41" d="M 2188 4044 
L 1331 1722 
L 3047 1722 
L 2188 4044 
z
M 1831 4666 
L 2547 4666 
L 4325 0 
L 3669 0 
L 3244 1197 
L 1141 1197 
L 716 0 
L 50 0 
L 1831 4666 
z
" transform="scale(0.015625)"/>
       <path id="DejaVuSans-53" d="M 3425 4513 
L 3425 3897 
Q 3066 4069 2747 4153 
Q 2428 4238 2131 4238 
Q 1616 4238 1336 4038 
Q 1056 3838 1056 3469 
Q 1056 3159 1242 3001 
Q 1428 2844 1947 2747 
L 2328 2669 
Q 3034 2534 3370 2195 
Q 3706 1856 3706 1288 
Q 3706 609 3251 259 
Q 2797 -91 1919 -91 
Q 1588 -91 1214 -16 
Q 841 59 441 206 
L 441 856 
Q 825 641 1194 531 
Q 1563 422 1919 422 
Q 2459 422 2753 634 
Q 3047 847 3047 1241 
Q 3047 1584 2836 1778 
Q 2625 1972 2144 2069 
L 1759 2144 
Q 1053 2284 737 2584 
Q 422 2884 422 3419 
Q 422 4038 858 4394 
Q 1294 4750 2059 4750 
Q 2388 4750 2728 4690 
Q 3069 4631 3425 4513 
z
" transform="scale(0.015625)"/>
       <path id="DejaVuSans-55" d="M 556 4666 
L 1191 4666 
L 1191 1831 
Q 1191 1081 1462 751 
Q 1734 422 2344 422 
Q 2950 422 3222 751 
Q 3494 1081 3494 1831 
L 3494 4666 
L 4128 4666 
L 4128 1753 
Q 4128 841 3676 375 
Q 3225 -91 2344 -91 
Q 1459 -91 1007 375 
Q 556 841 556 1753 
L 556 4666 
z
" transform="scale(0.015625)"/>
       <path id="DejaVuSans-52" d="M 2841 2188 
Q 3044 2119 3236 1894 
Q 3428 1669 3622 1275 
L 4263 0 
L 3584 0 
L 2988 1197 
Q 2756 1666 2539 1819 
Q 2322 1972 1947 1972 
L 1259 1972 
L 1259 0 
L 628 0 
L 628 4666 
L 2053 4666 
Q 2853 4666 3247 4331 
Q 3641 3997 3641 3322 
Q 3641 2881 3436 2590 
Q 3231 2300 2841 2188 
z
M 1259 4147 
L 1259 2491 
L 2053 2491 
Q 2509 2491 2742 2702 
Q 2975 2913 2975 3322 
Q 2975 3731 2742 3939 
Q 2509 4147 2053 4147 
L 1259 4147 
z
" transform="scale(0.015625)"/>
       <path id="DejaVuSans-4e" d="M 628 4666 
L 1478 4666 
L 3547 763 
L 3547 4666 
L 4159 4666 
L 4159 0 
L 3309 0 
L 1241 3903 
L 1241 0 
L 628 0 
L 628 4666 
z
" transform="scale(0.015625)"/>
       <path id="DejaVuSans-54" d="M -19 4666 
L 3928 4666 
L 3928 4134 
L 2272 4134 
L 2272 0 
L 1638 0 
L 1638 4134 
L -19 4134 
L -19 4666 
z
" transform="scale(0.015625)"/>
      </defs>
      <use xlink:href="#DejaVuSans-4d"/>
      <use xlink:href="#DejaVuSans-45" x="86.279297"/>
      <use xlink:href="#DejaVuSans-41" x="149.462891"/>
      <use xlink:href="#DejaVuSans-53" x="217.871094"/>
      <use xlink:href="#DejaVuSans-55" x="281.347656"/>
      <use xlink:href="#DejaVuSans-52" x="354.541016"/>
      <use xlink:href="#DejaVuSans-45" x="424.023438"/>
      <use xlink:href="#DejaVuSans-4d" x="487.207031"/>
      <use xlink:href="#DejaVuSans-45" x="573.486328"/>
      <use xlink:href="#DejaVuSans-4e" x="636.669922"/>
      <use xlink:href="#DejaVuSans-54" x="711.474609"/>
     </g>
    </g>
   </g>
   <g id="line2d_15">
    <path d="M 73.654564 226.375102 
L 79.942629 226.375102 
L 86.230693 218.298096 
L 92.518757 208.20184 
L 98.806822 200.367144 
L 105.094886 194.30939 
L 111.382951 184.213134 
L 117.671015 177.751529 
L 123.95908 172.178396 
L 130.247144 161.435979 
L 136.535208 153.116663 
L 142.823273 141.970396 
L 149.111337 133.00492 
L 155.399402 123.070203 
L 161.687466 118.95093 
L 167.97553 112.327786 
L 174.263595 102.312299 
L 180.551659 92.862203 
L 186.839724 85.108278 
L 193.127788 76.223572 
L 199.415852 80.100535 
L 205.703917 82.200556 
L 211.991981 84.704428 
L 218.280046 81.877476 
L 224.56811 83.815957 
L 230.856175 80.262075 
L 237.144239 87.69292 
L 243.432303 93.023743 
L 249.720368 99.566118 
L 256.008432 110.712385 
L 262.296497 122.100963 
L 268.584561 132.035679 
L 274.872625 138.658824 
L 281.16069 143.585797 
L 287.448754 153.682053 
L 293.736819 164.828321 
L 300.024883 173.389947 
L 306.312947 182.193882 
L 312.601012 186.393925 
L 318.889076 190.513198 
L 325.177141 194.06708 
L 331.465205 202.628706 
L 337.75327 210.786481 
L 344.041334 218.459636 
L 350.329398 218.459636 
L 356.617463 221.609668 
" clip-path="url(#p77b9695930)" style="fill: none; stroke: #696969; stroke-width: 0.5; stroke-linecap: square"/>
   </g>
   <g id="line2d_16">
    <path d="M 73.654564 222.336599 
L 79.942629 215.874995 
L 86.230693 215.874995 
L 92.518757 214.259594 
L 98.806822 206.263358 
L 105.094886 203.113326 
L 111.382951 201.901775 
L 117.671015 201.174845 
L 123.95908 189.140107 
L 130.247144 181.790032 
L 136.535208 172.663016 
L 142.823273 166.524492 
L 149.111337 160.951358 
L 155.399402 159.335957 
L 161.687466 150.047401 
L 167.97553 146.574289 
L 174.263595 138.497283 
L 180.551659 133.97416 
L 186.839724 129.854888 
L 193.127788 132.60107 
L 199.415852 123.958674 
L 205.703917 120.324021 
L 211.991981 116.850909 
L 218.280046 115.720128 
L 224.56811 108.289283 
L 230.856175 98.758417 
L 237.144239 102.150759 
L 243.432303 103.84693 
L 249.720368 103.28154 
L 256.008432 108.046973 
L 262.296497 114.993198 
L 268.584561 114.508578 
L 274.872625 123.797134 
L 281.16069 126.301005 
L 287.448754 133.24723 
L 293.736819 137.204963 
L 300.024883 142.374246 
L 306.312947 140.354995 
L 312.601012 148.99739 
L 318.889076 154.247444 
L 325.177141 165.716791 
L 331.465205 171.693775 
L 337.75327 180.820791 
L 344.041334 189.705497 
L 350.329398 192.370909 
L 356.617463 198.105583 
L 362.905527 207.717219 
L 369.193592 209.25185 
L 375.481656 209.655701 
" clip-path="url(#p77b9695930)" style="fill: none; stroke: #696969; stroke-width: 0.5; stroke-linecap: square"/>
   </g>
   <g id="line2d_17">
    <path d="M 73.654564 212.078802 
L 79.942629 209.57493 
L 86.230693 211.432642 
L 92.518757 210.948021 
L 98.806822 211.432642 
L 105.094886 205.455658 
L 111.382951 203.759487 
L 117.671015 191.724749 
L 123.95908 188.009326 
L 130.247144 182.759273 
L 136.535208 173.551487 
L 142.823273 168.947594 
L 149.111337 166.039872 
L 155.399402 165.151401 
L 161.687466 154.489754 
L 167.97553 145.362738 
L 174.263595 144.393497 
L 180.551659 136.558802 
L 186.839724 124.847144 
L 193.127788 123.716364 
L 199.415852 114.912428 
L 205.703917 107.966203 
L 211.991981 102.71615 
L 218.280046 107.320043 
L 224.56811 109.258524 
L 230.856175 111.439316 
L 237.144239 108.046973 
L 243.432303 110.712385 
L 249.720368 112.489326 
L 256.008432 117.093219 
L 262.296497 121.374032 
L 268.584561 128.562567 
L 274.872625 139.062674 
L 281.16069 148.27046 
L 287.448754 150.532021 
L 293.736819 158.366717 
L 300.024883 170.078374 
L 306.312947 172.259166 
L 312.601012 182.516963 
L 318.889076 191.078588 
L 325.177141 196.651722 
L 331.465205 198.024813 
L 337.75327 203.517176 
L 344.041334 213.371123 
L 350.329398 219.509647 
L 356.617463 222.094289 
" clip-path="url(#p77b9695930)" style="fill: none; stroke: #696969; stroke-width: 0.5; stroke-linecap: square"/>
   </g>
   <g id="line2d_18">
    <path d="M 73.654564 226.698182 
L 79.942629 221.125048 
L 86.230693 214.340364 
L 92.518757 214.421134 
L 98.806822 210.705711 
L 105.094886 210.705711 
L 111.382951 208.44415 
L 117.671015 205.617198 
L 123.95908 199.720984 
L 130.247144 195.601711 
L 136.535208 186.636235 
L 142.823273 180.416941 
L 149.111337 174.278417 
L 155.399402 160.062888 
L 161.687466 152.147422 
L 167.97553 144.070417 
L 174.263595 129.127957 
L 180.551659 116.447059 
L 186.839724 112.166246 
L 193.127788 107.562353 
L 199.415852 103.44308 
L 205.703917 98.031487 
L 211.991981 91.650652 
L 218.280046 76.869733 
L 224.56811 69.681198 
L 230.856175 62.169583 
L 237.144239 60.877262 
L 243.432303 56.515679 
L 249.720368 55.061818 
L 256.008432 57.16184 
L 262.296497 62.169583 
L 268.584561 75.981262 
L 274.872625 79.050524 
L 281.16069 87.046759 
L 287.448754 102.95846 
L 293.736819 115.639358 
L 300.024883 122.747123 
L 306.312947 132.92415 
L 312.601012 143.262717 
L 318.889076 148.67431 
L 325.177141 152.551273 
L 331.465205 167.332193 
L 337.75327 179.20539 
L 344.041334 188.574717 
L 350.329398 195.763251 
L 356.617463 203.274866 
L 362.905527 213.451893 
L 369.193592 216.036535 
L 375.481656 219.186567 
L 381.76972 219.267337 
L 388.057785 219.348107 
" clip-path="url(#p77b9695930)" style="fill: none; stroke: #696969; stroke-width: 0.5; stroke-linecap: square"/>
   </g>
   <g id="line2d_19">
    <path d="M 73.654564 219.428877 
L 79.942629 218.298096 
L 86.230693 217.167316 
L 92.518757 207.878759 
L 98.806822 206.747979 
L 105.094886 202.305626 
L 111.382951 192.693989 
L 117.671015 193.82477 
L 123.95908 183.970824 
L 130.247144 170.159144 
L 136.535208 167.089882 
L 142.823273 160.224428 
L 149.111337 157.235936 
L 155.399402 148.91662 
L 161.687466 139.708834 
L 167.97553 132.92415 
L 174.263595 126.139465 
L 180.551659 127.189476 
L 186.839724 114.750888 
L 193.127788 102.95846 
L 199.415852 97.143016 
L 205.703917 93.992984 
L 211.991981 88.58139 
L 218.280046 78.404364 
L 224.56811 82.362096 
L 230.856175 77.435123 
L 237.144239 81.796706 
L 243.432303 87.93523 
L 249.720368 87.046759 
L 256.008432 93.912214 
L 262.296497 99.323807 
L 268.584561 107.885433 
L 274.872625 117.093219 
L 281.16069 117.90092 
L 287.448754 119.516321 
L 293.736819 123.231743 
L 300.024883 135.670332 
L 306.312947 148.59354 
L 312.601012 151.501262 
L 318.889076 163.93985 
L 325.177141 170.482225 
L 331.465205 185.666995 
L 337.75327 186.797775 
L 344.041334 196.974802 
L 350.329398 202.467166 
L 356.617463 202.709476 
L 362.905527 207.394139 
L 369.193592 207.394139 
L 375.481656 207.394139 
L 381.76972 205.859508 
L 388.057785 205.536428 
L 394.345849 211.190332 
" clip-path="url(#p77b9695930)" style="fill: none; stroke: #696969; stroke-width: 0.5; stroke-linecap: square"/>
   </g>
   <g id="line2d_20">
    <path d="M 180.551659 254.16 
L 180.551659 27.6 
" clip-path="url(#p77b9695930)" style="fill: none; stroke-dasharray: 3.7,1.6; stroke-dashoffset: 0; stroke: #800000"/>
   </g>
   <g id="line2d_21">
    <path d="M 230.856175 254.16 
L 230.856175 27.6 
" clip-path="url(#p77b9695930)" style="fill: none; stroke-dasharray: 3.7,1.6; stroke-dashoffset: 0; stroke: #800000"/>
   </g>
   <g id="line2d_22">
    <path d="M 281.16069 254.16 
L 281.16069 27.6 
" clip-path="url(#p77b9695930)" style="fill: none; stroke-dasharray: 3.7,1.6; stroke-dashoffset: 0; stroke: #800000"/>
   </g>
   <g id="line2d_23">
    <path d="M 381.76972 254.16 
L 381.76972 27.6 
" clip-path="url(#p77b9695930)" style="fill: none; stroke-dasharray: 3.7,1.6; stroke-dashoffset: 0; stroke: #191970"/>
   </g>
   <g id="patch_7">
    <path d="M 57.62 254.16 
L 57.62 27.6 
" style="fill: none; stroke: #000000; stroke-width: 0.8; stroke-linejoin: miter; stroke-linecap: square"/>
   </g>
   <g id="patch_8">
    <path d="M 410.380413 254.16 
L 410.380413 27.6 
" style="fill: none; stroke: #000000; stroke-width: 0.8; stroke-linejoin: miter; stroke-linecap: square"/>
   </g>
   <g id="patch_9">
    <path d="M 57.62 254.16 
L 410.380413 254.16 
" style="fill: none; stroke: #000000; stroke-width: 0.8; stroke-linejoin: miter; stroke-linecap: square"/>
   </g>
   <g id="patch_10">
    <path d="M 57.62 27.6 
L 410.380413 27.6 
" style="fill: none; stroke: #000000; stroke-width: 0.8; stroke-linejoin: miter; stroke-linecap: square"/>
   </g>
   <g id="text_16">
    <!-- t25 -->
    <g transform="translate(182.536801 46.48) scale(0.12 -0.12)">
     <defs>
      <path id="DejaVuSans-74" d="M 1172 4494 
L 1172 3500 
L 2356 3500 
L 2356 3053 
L 1172 3053 
L 1172 1153 
Q 1172 725 1289 603 
Q 1406 481 1766 481 
L 2356 481 
L 2356 0 
L 1766 0 
Q 1100 0 847 248 
Q 594 497 594 1153 
L 594 3053 
L 172 3053 
L 172 3500 
L 594 3500 
L 594 4494 
L 1172 4494 
z
" transform="scale(0.015625)"/>
     </defs>
     <use xlink:href="#DejaVuSans-74"/>
     <use xlink:href="#DejaVuSans-32" x="39.208984"/>
     <use xlink:href="#DejaVuSans-35" x="102.832031"/>
    </g>
   </g>
   <g id="text_17">
    <!-- t50 -->
    <g transform="translate(232.841316 46.48) scale(0.12 -0.12)">
     <use xlink:href="#DejaVuSans-74"/>
     <use xlink:href="#DejaVuSans-35" x="39.208984"/>
     <use xlink:href="#DejaVuSans-30" x="102.832031"/>
    </g>
   </g>
   <g id="text_18">
    <!-- t75 -->
    <g transform="translate(283.145832 46.48) scale(0.12 -0.12)">
     <defs>
      <path id="DejaVuSans-37" d="M 525 4666 
L 3525 4666 
L 3525 4397 
L 1831 0 
L 1172 0 
L 2766 4134 
L 525 4134 
L 525 4666 
z
" transform="scale(0.015625)"/>
     </defs>
     <use xlink:href="#DejaVuSans-74"/>
     <use xlink:href="#DejaVuSans-37" x="39.208984"/>
     <use xlink:href="#DejaVuSans-35" x="102.832031"/>
    </g>
   </g>
   <g id="text_19">
    <!-- Period -->
    <g transform="translate(383.754862 46.48) scale(0.12 -0.12)">
     <defs>
      <path id="DejaVuSans-50" d="M 1259 4147 
L 1259 2394 
L 2053 2394 
Q 2494 2394 2734 2622 
Q 2975 2850 2975 3272 
Q 2975 3691 2734 3919 
Q 2494 4147 2053 4147 
L 1259 4147 
z
M 628 4666 
L 2053 4666 
Q 2838 4666 3239 4311 
Q 3641 3956 3641 3272 
Q 3641 2581 3239 2228 
Q 2838 1875 2053 1875 
L 1259 1875 
L 1259 0 
L 628 0 
L 628 4666 
z
" transform="scale(0.015625)"/>
      <path id="DejaVuSans-65" d="M 3597 1894 
L 3597 1613 
L 953 1613 
Q 991 1019 1311 708 
Q 1631 397 2203 397 
Q 2534 397 2845 478 
Q 3156 559 3463 722 
L 3463 178 
Q 3153 47 2828 -22 
Q 2503 -91 2169 -91 
Q 1331 -91 842 396 
Q 353 884 353 1716 
Q 353 2575 817 3079 
Q 1281 3584 2069 3584 
Q 2775 3584 3186 3129 
Q 3597 2675 3597 1894 
z
M 3022 2063 
Q 3016 2534 2758 2815 
Q 2500 3097 2075 3097 
Q 1594 3097 1305 2825 
Q 1016 2553 972 2059 
L 3022 2063 
z
" transform="scale(0.015625)"/>
      <path id="DejaVuSans-72" d="M 2631 2963 
Q 2534 3019 2420 3045 
Q 2306 3072 2169 3072 
Q 1681 3072 1420 2755 
Q 1159 2438 1159 1844 
L 1159 0 
L 581 0 
L 581 3500 
L 1159 3500 
L 1159 2956 
Q 1341 3275 1631 3429 
Q 1922 3584 2338 3584 
Q 2397 3584 2469 3576 
Q 2541 3569 2628 3553 
L 2631 2963 
z
" transform="scale(0.015625)"/>
      <path id="DejaVuSans-69" d="M 603 3500 
L 1178 3500 
L 1178 0 
L 603 0 
L 603 3500 
z
M 603 4863 
L 1178 4863 
L 1178 4134 
L 603 4134 
L 603 4863 
z
" transform="scale(0.015625)"/>
      <path id="DejaVuSans-6f" d="M 1959 3097 
Q 1497 3097 1228 2736 
Q 959 2375 959 1747 
Q 959 1119 1226 758 
Q 1494 397 1959 397 
Q 2419 397 2687 759 
Q 2956 1122 2956 1747 
Q 2956 2369 2687 2733 
Q 2419 3097 1959 3097 
z
M 1959 3584 
Q 2709 3584 3137 3096 
Q 3566 2609 3566 1747 
Q 3566 888 3137 398 
Q 2709 -91 1959 -91 
Q 1206 -91 779 398 
Q 353 888 353 1747 
Q 353 2609 779 3096 
Q 1206 3584 1959 3584 
z
" transform="scale(0.015625)"/>
      <path id="DejaVuSans-64" d="M 2906 2969 
L 2906 4863 
L 3481 4863 
L 3481 0 
L 2906 0 
L 2906 525 
Q 2725 213 2448 61 
Q 2172 -91 1784 -91 
Q 1150 -91 751 415 
Q 353 922 353 1747 
Q 353 2572 751 3078 
Q 1150 3584 1784 3584 
Q 2172 3584 2448 3432 
Q 2725 3281 2906 2969 
z
M 947 1747 
Q 947 1113 1208 752 
Q 1469 391 1925 391 
Q 2381 391 2643 752 
Q 2906 1113 2906 1747 
Q 2906 2381 2643 2742 
Q 2381 3103 1925 3103 
Q 1469 3103 1208 2742 
Q 947 2381 947 1747 
z
" transform="scale(0.015625)"/>
     </defs>
     <use xlink:href="#DejaVuSans-50"/>
     <use xlink:href="#DejaVuSans-65" x="56.677734"/>
     <use xlink:href="#DejaVuSans-72" x="118.201172"/>
     <use xlink:href="#DejaVuSans-69" x="159.314453"/>
     <use xlink:href="#DejaVuSans-6f" x="187.097656"/>
     <use xlink:href="#DejaVuSans-64" x="248.279297"/>
    </g>
   </g>
   <g id="text_20">
    <!-- 1 -->
    <g transform="translate(229.546457 21.6) scale(0.14 -0.14)">
     <use xlink:href="#DejaVuSans-31"/>
    </g>
   </g>
  </g>
  <g id="axes_2">
   <g id="patch_11">
    <path d="M 57.62 528.28 
L 410.380413 528.28 
L 410.380413 301.72 
L 57.62 301.72 
z
" style="fill: #ffffff"/>
   </g>
   <g id="patch_12">
    <path d="M 185.267708 528.28 
L 185.267708 301.72 
L 186.839724 301.72 
L 186.839724 528.28 
z
" clip-path="url(#p1a32125752)" style="fill: #800000; opacity: 0.1; stroke: #800000; stroke-linejoin: miter"/>
   </g>
   <g id="patch_13">
    <path d="M 230.856175 528.28 
L 230.856175 301.72 
L 232.428191 301.72 
L 232.428191 528.28 
z
" clip-path="url(#p1a32125752)" style="fill: #800000; opacity: 0.1; stroke: #800000; stroke-linejoin: miter"/>
   </g>
   <g id="patch_14">
    <path d="M 274.872625 528.28 
L 274.872625 301.72 
L 276.444642 301.72 
L 276.444642 528.28 
z
" clip-path="url(#p1a32125752)" style="fill: #800000; opacity: 0.1; stroke: #800000; stroke-linejoin: miter"/>
   </g>
   <g id="patch_15">
    <path d="M 372.337624 528.28 
L 372.337624 301.72 
L 386.485769 301.72 
L 386.485769 528.28 
z
" clip-path="url(#p1a32125752)" style="fill: #191970; opacity: 0.1; stroke: #191970; stroke-linejoin: miter"/>
   </g>
   <g id="matplotlib.axis_3">
    <g id="xtick_7">
     <g id="line2d_24">
      <g>
       <use xlink:href="#m43c3166c0d" x="73.654564" y="528.28" style="stroke: #000000; stroke-width: 0.8"/>
      </g>
     </g>
     <g id="text_21">
      <!-- 0 -->
      <g transform="translate(69.837064 544.398125) scale(0.12 -0.12)">
       <use xlink:href="#DejaVuSans-30"/>
      </g>
     </g>
    </g>
    <g id="xtick_8">
     <g id="line2d_25">
      <g>
       <use xlink:href="#m43c3166c0d" x="136.535208" y="528.28" style="stroke: #000000; stroke-width: 0.8"/>
      </g>
     </g>
     <g id="text_22">
      <!-- 5 -->
      <g transform="translate(132.717708 544.398125) scale(0.12 -0.12)">
       <use xlink:href="#DejaVuSans-35"/>
      </g>
     </g>
    </g>
    <g id="xtick_9">
     <g id="line2d_26">
      <g>
       <use xlink:href="#m43c3166c0d" x="199.415852" y="528.28" style="stroke: #000000; stroke-width: 0.8"/>
      </g>
     </g>
     <g id="text_23">
      <!-- 10 -->
      <g transform="translate(191.780852 544.398125) scale(0.12 -0.12)">
       <use xlink:href="#DejaVuSans-31"/>
       <use xlink:href="#DejaVuSans-30" x="63.623047"/>
      </g>
     </g>
    </g>
    <g id="xtick_10">
     <g id="line2d_27">
      <g>
       <use xlink:href="#m43c3166c0d" x="262.296497" y="528.28" style="stroke: #000000; stroke-width: 0.8"/>
      </g>
     </g>
     <g id="text_24">
      <!-- 15 -->
      <g transform="translate(254.661497 544.398125) scale(0.12 -0.12)">
       <use xlink:href="#DejaVuSans-31"/>
       <use xlink:href="#DejaVuSans-35" x="63.623047"/>
      </g>
     </g>
    </g>
    <g id="xtick_11">
     <g id="line2d_28">
      <g>
       <use xlink:href="#m43c3166c0d" x="325.177141" y="528.28" style="stroke: #000000; stroke-width: 0.8"/>
      </g>
     </g>
     <g id="text_25">
      <!-- 20 -->
      <g transform="translate(317.542141 544.398125) scale(0.12 -0.12)">
       <use xlink:href="#DejaVuSans-32"/>
       <use xlink:href="#DejaVuSans-30" x="63.623047"/>
      </g>
     </g>
    </g>
    <g id="xtick_12">
     <g id="line2d_29">
      <g>
       <use xlink:href="#m43c3166c0d" x="388.057785" y="528.28" style="stroke: #000000; stroke-width: 0.8"/>
      </g>
     </g>
     <g id="text_26">
      <!-- 25 -->
      <g transform="translate(380.422785 544.398125) scale(0.12 -0.12)">
       <use xlink:href="#DejaVuSans-32"/>
       <use xlink:href="#DejaVuSans-35" x="63.623047"/>
      </g>
     </g>
    </g>
    <g id="text_27">
     <!-- TIME (HOURS) -->
     <g transform="translate(191.403957 560.011875) scale(0.12 -0.12)">
      <defs>
       <path id="DejaVuSans-49" d="M 628 4666 
L 1259 4666 
L 1259 0 
L 628 0 
L 628 4666 
z
" transform="scale(0.015625)"/>
       <path id="DejaVuSans-20" transform="scale(0.015625)"/>
       <path id="DejaVuSans-28" d="M 1984 4856 
Q 1566 4138 1362 3434 
Q 1159 2731 1159 2009 
Q 1159 1288 1364 580 
Q 1569 -128 1984 -844 
L 1484 -844 
Q 1016 -109 783 600 
Q 550 1309 550 2009 
Q 550 2706 781 3412 
Q 1013 4119 1484 4856 
L 1984 4856 
z
" transform="scale(0.015625)"/>
       <path id="DejaVuSans-48" d="M 628 4666 
L 1259 4666 
L 1259 2753 
L 3553 2753 
L 3553 4666 
L 4184 4666 
L 4184 0 
L 3553 0 
L 3553 2222 
L 1259 2222 
L 1259 0 
L 628 0 
L 628 4666 
z
" transform="scale(0.015625)"/>
       <path id="DejaVuSans-4f" d="M 2522 4238 
Q 1834 4238 1429 3725 
Q 1025 3213 1025 2328 
Q 1025 1447 1429 934 
Q 1834 422 2522 422 
Q 3209 422 3611 934 
Q 4013 1447 4013 2328 
Q 4013 3213 3611 3725 
Q 3209 4238 2522 4238 
z
M 2522 4750 
Q 3503 4750 4090 4092 
Q 4678 3434 4678 2328 
Q 4678 1225 4090 567 
Q 3503 -91 2522 -91 
Q 1538 -91 948 565 
Q 359 1222 359 2328 
Q 359 3434 948 4092 
Q 1538 4750 2522 4750 
z
" transform="scale(0.015625)"/>
       <path id="DejaVuSans-29" d="M 513 4856 
L 1013 4856 
Q 1481 4119 1714 3412 
Q 1947 2706 1947 2009 
Q 1947 1309 1714 600 
Q 1481 -109 1013 -844 
L 513 -844 
Q 928 -128 1133 580 
Q 1338 1288 1338 2009 
Q 1338 2731 1133 3434 
Q 928 4138 513 4856 
z
" transform="scale(0.015625)"/>
      </defs>
      <use xlink:href="#DejaVuSans-54"/>
      <use xlink:href="#DejaVuSans-49" x="61.083984"/>
      <use xlink:href="#DejaVuSans-4d" x="90.576172"/>
      <use xlink:href="#DejaVuSans-45" x="176.855469"/>
      <use xlink:href="#DejaVuSans-20" x="240.039062"/>
      <use xlink:href="#DejaVuSans-28" x="271.826172"/>
      <use xlink:href="#DejaVuSans-48" x="310.839844"/>
      <use xlink:href="#DejaVuSans-4f" x="386.035156"/>
      <use xlink:href="#DejaVuSans-55" x="464.746094"/>
      <use xlink:href="#DejaVuSans-52" x="537.939453"/>
      <use xlink:href="#DejaVuSans-53" x="607.421875"/>
      <use xlink:href="#DejaVuSans-29" x="670.898438"/>
     </g>
    </g>
   </g>
   <g id="matplotlib.axis_4">
    <g id="ytick_9">
     <g id="line2d_30">
      <g>
       <use xlink:href="#m6b72152b61" x="57.62" y="514.55288" style="stroke: #000000; stroke-width: 0.8"/>
      </g>
     </g>
     <g id="text_28">
      <!-- 0 -->
      <g transform="translate(42.985 519.111942) scale(0.12 -0.12)">
       <use xlink:href="#DejaVuSans-30"/>
      </g>
     </g>
    </g>
    <g id="ytick_10">
     <g id="line2d_31">
      <g>
       <use xlink:href="#m6b72152b61" x="57.62" y="480.45294" style="stroke: #000000; stroke-width: 0.8"/>
      </g>
     </g>
     <g id="text_29">
      <!-- 20 -->
      <g transform="translate(35.35 485.012002) scale(0.12 -0.12)">
       <use xlink:href="#DejaVuSans-32"/>
       <use xlink:href="#DejaVuSans-30" x="63.623047"/>
      </g>
     </g>
    </g>
    <g id="ytick_11">
     <g id="line2d_32">
      <g>
       <use xlink:href="#m6b72152b61" x="57.62" y="446.353" style="stroke: #000000; stroke-width: 0.8"/>
      </g>
     </g>
     <g id="text_30">
      <!-- 40 -->
      <g transform="translate(35.35 450.912063) scale(0.12 -0.12)">
       <use xlink:href="#DejaVuSans-34"/>
       <use xlink:href="#DejaVuSans-30" x="63.623047"/>
      </g>
     </g>
    </g>
    <g id="ytick_12">
     <g id="line2d_33">
      <g>
       <use xlink:href="#m6b72152b61" x="57.62" y="412.25306" style="stroke: #000000; stroke-width: 0.8"/>
      </g>
     </g>
     <g id="text_31">
      <!-- 60 -->
      <g transform="translate(35.35 416.812123) scale(0.12 -0.12)">
       <use xlink:href="#DejaVuSans-36"/>
       <use xlink:href="#DejaVuSans-30" x="63.623047"/>
      </g>
     </g>
    </g>
    <g id="ytick_13">
     <g id="line2d_34">
      <g>
       <use xlink:href="#m6b72152b61" x="57.62" y="378.153121" style="stroke: #000000; stroke-width: 0.8"/>
      </g>
     </g>
     <g id="text_32">
      <!-- 80 -->
      <g transform="translate(35.35 382.712183) scale(0.12 -0.12)">
       <use xlink:href="#DejaVuSans-38"/>
       <use xlink:href="#DejaVuSans-30" x="63.623047"/>
      </g>
     </g>
    </g>
    <g id="ytick_14">
     <g id="line2d_35">
      <g>
       <use xlink:href="#m6b72152b61" x="57.62" y="344.053181" style="stroke: #000000; stroke-width: 0.8"/>
      </g>
     </g>
     <g id="text_33">
      <!-- 100 -->
      <g transform="translate(27.715 348.612243) scale(0.12 -0.12)">
       <use xlink:href="#DejaVuSans-31"/>
       <use xlink:href="#DejaVuSans-30" x="63.623047"/>
       <use xlink:href="#DejaVuSans-30" x="127.246094"/>
      </g>
     </g>
    </g>
    <g id="ytick_15">
     <g id="line2d_36">
      <g>
       <use xlink:href="#m6b72152b61" x="57.62" y="309.953241" style="stroke: #000000; stroke-width: 0.8"/>
      </g>
     </g>
     <g id="text_34">
      <!-- 120 -->
      <g transform="translate(27.715 314.512304) scale(0.12 -0.12)">
       <use xlink:href="#DejaVuSans-31"/>
       <use xlink:href="#DejaVuSans-32" x="63.623047"/>
       <use xlink:href="#DejaVuSans-30" x="127.246094"/>
      </g>
     </g>
    </g>
    <g id="text_35">
     <!-- MEASUREMENT -->
     <g style="fill: #696969" transform="translate(21.219375 461.354687) rotate(-90) scale(0.12 -0.12)">
      <use xlink:href="#DejaVuSans-4d"/>
      <use xlink:href="#DejaVuSans-45" x="86.279297"/>
      <use xlink:href="#DejaVuSans-41" x="149.462891"/>
      <use xlink:href="#DejaVuSans-53" x="217.871094"/>
      <use xlink:href="#DejaVuSans-55" x="281.347656"/>
      <use xlink:href="#DejaVuSans-52" x="354.541016"/>
      <use xlink:href="#DejaVuSans-45" x="424.023438"/>
      <use xlink:href="#DejaVuSans-4d" x="487.207031"/>
      <use xlink:href="#DejaVuSans-45" x="573.486328"/>
      <use xlink:href="#DejaVuSans-4e" x="636.669922"/>
      <use xlink:href="#DejaVuSans-54" x="711.474609"/>
     </g>
    </g>
   </g>
   <g id="line2d_37">
    <path d="M 73.654564 487.36765 
L 79.942629 483.294602 
L 86.230693 476.379892 
L 92.518757 476.379892 
L 98.806822 476.379892 
L 105.094886 476.379892 
L 111.382951 475.716837 
L 117.671015 470.79129 
L 123.95908 458.003813 
L 130.247144 446.353 
L 136.535208 445.974112 
L 142.823273 436.21774 
L 149.111337 434.039133 
L 155.399402 421.630544 
L 161.687466 410.926952 
L 167.97553 400.128637 
L 174.263595 389.898655 
L 180.551659 389.140879 
L 186.839724 378.058399 
L 193.127788 371.806743 
L 199.415852 366.786474 
L 205.703917 359.303432 
L 211.991981 350.115392 
L 218.280046 340.737909 
L 224.56811 334.107365 
L 230.856175 331.739314 
L 237.144239 338.180413 
L 243.432303 337.612081 
L 249.720368 341.874574 
L 256.008432 343.674293 
L 262.296497 333.917921 
L 268.584561 346.32651 
L 274.872625 357.030102 
L 281.16069 367.54425 
L 287.448754 376.448124 
L 293.736819 384.499498 
L 300.024883 396.529199 
L 306.312947 406.285571 
L 312.601012 413.389725 
L 318.889076 416.420831 
L 325.177141 425.60887 
L 331.465205 434.986354 
L 337.75327 437.354405 
L 344.041334 447.110777 
L 350.329398 453.457154 
L 356.617463 464.066024 
L 362.905527 463.687136 
L 369.193592 474.864339 
L 375.481656 488.599037 
" clip-path="url(#p1a32125752)" style="fill: none; stroke: #696969; stroke-width: 0.5; stroke-linecap: square"/>
   </g>
   <g id="line2d_38">
    <path d="M 73.654564 488.599037 
L 79.942629 488.599037 
L 86.230693 486.609874 
L 92.518757 486.230985 
L 98.806822 482.347381 
L 105.094886 481.400161 
L 111.382951 477.516556 
L 117.671015 474.390728 
L 123.95908 471.359623 
L 130.247144 457.340759 
L 136.535208 447.205499 
L 142.823273 438.869958 
L 149.111337 430.155529 
L 155.399402 425.893036 
L 161.687466 416.515553 
L 167.97553 408.180012 
L 174.263595 392.361429 
L 180.551659 376.25868 
L 186.839724 361.860927 
L 193.127788 346.610676 
L 199.415852 345.758178 
L 205.703917 345.663456 
L 211.991981 338.748746 
L 218.280046 339.695966 
L 224.56811 334.770419 
L 230.856175 329.560706 
L 237.144239 329.181818 
L 243.432303 334.959864 
L 249.720368 336.19125 
L 256.008432 343.390126 
L 262.296497 348.126229 
L 268.584561 352.388722 
L 274.872625 362.145093 
L 281.16069 373.890628 
L 287.448754 389.709211 
L 293.736819 403.254465 
L 300.024883 417.652218 
L 306.312947 427.976922 
L 312.601012 431.102749 
L 318.889076 427.787477 
L 325.177141 438.585792 
L 331.465205 437.449127 
L 337.75327 444.837447 
L 344.041334 458.003813 
L 350.329398 465.865744 
L 356.617463 474.106562 
L 362.905527 483.010435 
L 369.193592 489.072647 
" clip-path="url(#p1a32125752)" style="fill: none; stroke: #696969; stroke-width: 0.5; stroke-linecap: square"/>
   </g>
   <g id="line2d_39">
    <path d="M 73.654564 489.830423 
L 79.942629 486.136263 
L 86.230693 488.030704 
L 92.518757 488.030704 
L 98.806822 488.030704 
L 105.094886 481.305438 
L 111.382951 467.854907 
L 117.671015 463.213526 
L 123.95908 449.668272 
L 130.247144 453.172988 
L 136.535208 446.731888 
L 142.823273 440.006623 
L 149.111337 432.04997 
L 155.399402 422.483042 
L 161.687466 410.074453 
L 167.97553 397.571142 
L 174.263595 391.414208 
L 180.551659 382.699779 
L 186.839724 377.111178 
L 193.127788 372.848686 
L 199.415852 360.818985 
L 205.703917 350.115392 
L 211.991981 340.453743 
L 218.280046 338.93819 
L 224.56811 342.821794 
L 230.856175 345.8529 
L 237.144239 344.147903 
L 243.432303 338.46458 
L 249.720368 336.19125 
L 256.008432 340.359021 
L 262.296497 350.304836 
L 268.584561 359.871764 
L 274.872625 372.280353 
L 281.16069 384.783664 
L 287.448754 388.383103 
L 293.736819 397.097532 
L 300.024883 405.906683 
L 306.312947 413.579169 
L 312.601012 424.093317 
L 318.889076 434.796909 
L 325.177141 436.691351 
L 331.465205 449.005218 
L 337.75327 458.572145 
L 344.041334 465.107967 
L 350.329398 480.358218 
L 356.617463 488.693759 
L 362.905527 497.408188 
L 369.193592 500.628738 
L 375.481656 500.628738 
L 381.76972 500.628738 
L 388.057785 498.260686 
L 394.345849 498.260686 
" clip-path="url(#p1a32125752)" style="fill: none; stroke: #696969; stroke-width: 0.5; stroke-linecap: square"/>
   </g>
   <g id="line2d_40">
    <path d="M 73.654564 500.818182 
L 79.942629 496.460967 
L 86.230693 486.89404 
L 92.518757 487.178206 
L 98.806822 477.137668 
L 105.094886 466.718242 
L 111.382951 467.09713 
L 117.671015 466.244632 
L 123.95908 459.803532 
L 130.247144 455.919928 
L 136.535208 444.363837 
L 142.823273 439.154124 
L 149.111337 429.966085 
L 155.399402 418.125828 
L 161.687466 409.221955 
L 167.97553 397.95003 
L 174.263595 390.940598 
L 180.551659 382.605057 
L 186.839724 373.795906 
L 193.127788 361.860927 
L 199.415852 362.997592 
L 205.703917 344.716235 
L 211.991981 343.579571 
L 218.280046 348.126229 
L 224.56811 343.390126 
L 230.856175 337.327915 
L 237.144239 343.769015 
L 243.432303 343.295404 
L 249.720368 353.335942 
L 256.008432 353.904275 
L 262.296497 362.145093 
L 268.584561 374.45896 
L 274.872625 378.910897 
L 281.16069 390.182822 
L 287.448754 399.560305 
L 293.736819 398.897251 
L 300.024883 406.190849 
L 306.312947 420.588601 
L 312.601012 429.018864 
L 318.889076 440.859121 
L 325.177141 454.214931 
L 331.465205 458.761589 
L 337.75327 465.297411 
L 344.041334 472.212121 
L 350.329398 469.749348 
L 356.617463 474.106562 
" clip-path="url(#p1a32125752)" style="fill: none; stroke: #696969; stroke-width: 0.5; stroke-linecap: square"/>
   </g>
   <g id="line2d_41">
    <path d="M 186.839724 528.28 
L 186.839724 301.72 
" clip-path="url(#p1a32125752)" style="fill: none; stroke-dasharray: 3.7,1.6; stroke-dashoffset: 0; stroke: #800000"/>
   </g>
   <g id="line2d_42">
    <path d="M 230.856175 528.28 
L 230.856175 301.72 
" clip-path="url(#p1a32125752)" style="fill: none; stroke-dasharray: 3.7,1.6; stroke-dashoffset: 0; stroke: #800000"/>
   </g>
   <g id="line2d_43">
    <path d="M 274.872625 528.28 
L 274.872625 301.72 
" clip-path="url(#p1a32125752)" style="fill: none; stroke-dasharray: 3.7,1.6; stroke-dashoffset: 0; stroke: #800000"/>
   </g>
   <g id="line2d_44">
    <path d="M 378.625688 528.28 
L 378.625688 301.72 
" clip-path="url(#p1a32125752)" style="fill: none; stroke-dasharray: 3.7,1.6; stroke-dashoffset: 0; stroke: #191970"/>
   </g>
   <g id="patch_16">
    <path d="M 57.62 528.28 
L 57.62 301.72 
" style="fill: none; stroke: #000000; stroke-width: 0.8; stroke-linejoin: miter; stroke-linecap: square"/>
   </g>
   <g id="patch_17">
    <path d="M 410.380413 528.28 
L 410.380413 301.72 
" style="fill: none; stroke: #000000; stroke-width: 0.8; stroke-linejoin: miter; stroke-linecap: square"/>
   </g>
   <g id="patch_18">
    <path d="M 57.62 528.28 
L 410.380413 528.28 
" style="fill: none; stroke: #000000; stroke-width: 0.8; stroke-linejoin: miter; stroke-linecap: square"/>
   </g>
   <g id="patch_19">
    <path d="M 57.62 301.72 
L 410.380413 301.72 
" style="fill: none; stroke: #000000; stroke-width: 0.8; stroke-linejoin: miter; stroke-linecap: square"/>
   </g>
   <g id="text_36">
    <!-- t25 -->
    <g transform="translate(188.492856 320.6) scale(0.12 -0.12)">
     <use xlink:href="#DejaVuSans-74"/>
     <use xlink:href="#DejaVuSans-32" x="39.208984"/>
     <use xlink:href="#DejaVuSans-35" x="102.832031"/>
    </g>
   </g>
   <g id="text_37">
    <!-- t50 -->
    <g transform="translate(232.509307 320.6) scale(0.12 -0.12)">
     <use xlink:href="#DejaVuSans-74"/>
     <use xlink:href="#DejaVuSans-35" x="39.208984"/>
     <use xlink:href="#DejaVuSans-30" x="102.832031"/>
    </g>
   </g>
   <g id="text_38">
    <!-- t75 -->
    <g transform="translate(276.525758 320.6) scale(0.12 -0.12)">
     <use xlink:href="#DejaVuSans-74"/>
     <use xlink:href="#DejaVuSans-37" x="39.208984"/>
     <use xlink:href="#DejaVuSans-35" x="102.832031"/>
    </g>
   </g>
   <g id="text_39">
    <!-- Period -->
    <g transform="translate(380.27882 320.6) scale(0.12 -0.12)">
     <use xlink:href="#DejaVuSans-50"/>
     <use xlink:href="#DejaVuSans-65" x="56.677734"/>
     <use xlink:href="#DejaVuSans-72" x="118.201172"/>
     <use xlink:href="#DejaVuSans-69" x="159.314453"/>
     <use xlink:href="#DejaVuSans-6f" x="187.097656"/>
     <use xlink:href="#DejaVuSans-64" x="248.279297"/>
    </g>
   </g>
   <g id="text_40">
    <!-- 2 -->
    <g transform="translate(229.546457 295.72) scale(0.14 -0.14)">
     <use xlink:href="#DejaVuSans-32"/>
    </g>
   </g>
  </g>
 </g>
 <defs>
  <clipPath id="p77b9695930">
   <rect x="57.62" y="27.6" width="352.760413" height="226.56"/>
  </clipPath>
  <clipPath id="p1a32125752">
   <rect x="57.62" y="301.72" width="352.760413" height="226.56"/>
  </clipPath>
 </defs>
</svg>
