<?xml version="1.0" encoding="utf-8" standalone="no"?>
<!DOCTYPE svg PUBLIC "-//W3C//DTD SVG 1.1//EN"
  "http://www.w3.org/Graphics/SVG/1.1/DTD/svg11.dtd">
<svg xmlns:xlink="http://www.w3.org/1999/xlink" width="864pt" height="360pt" viewBox="0 0 864 360" xmlns="http://www.w3.org/2000/svg" version="1.1">
 <metadata>
  <rdf:RDF xmlns:dc="http://purl.org/dc/elements/1.1/" xmlns:cc="http://creativecommons.org/ns#" xmlns:rdf="http://www.w3.org/1999/02/22-rdf-syntax-ns#">
   <cc:Work>
    <dc:type rdf:resource="http://purl.org/dc/dcmitype/StillImage"/>
    <dc:date>2023-11-27T20:26:43.162080</dc:date>
    <dc:format>image/svg+xml</dc:format>
    <dc:creator>
     <cc:Agent>
      <dc:title>Matplotlib v3.7.4, https://matplotlib.org/</dc:title>
     </cc:Agent>
    </dc:creator>
   </cc:Work>
  </rdf:RDF>
 </metadata>
 <defs>
  <style type="text/css">*{stroke-linejoin: round; stroke-linecap: butt}</style>
 </defs>
 <g id="figure_1">
  <g id="patch_1">
   <path d="M 0 360 
L 864 360 
L 864 0 
L 0 0 
z
" style="fill: #ffffff"/>
  </g>
  <g id="axes_1">
   <g id="patch_2">
    <path d="M 108 320.4 
L 777.6 320.4 
L 777.6 43.2 
L 108 43.2 
z
" style="fill: #ffffff"/>
   </g>
   <g id="matplotlib.axis_1">
    <g id="xtick_1">
     <g id="line2d_1">
      <defs>
       <path id="mf575c9af05" d="M 0 0 
L 0 3.5 
" style="stroke: #000000; stroke-width: 0.8"/>
      </defs>
      <g>
       <use xlink:href="#mf575c9af05" x="138.436364" y="320.4" style="stroke: #000000; stroke-width: 0.8"/>
      </g>
     </g>
     <g id="text_1">
      <!-- 2022-01-01 -->
      <g transform="translate(103.566989 336.518125) scale(0.12 -0.12)">
       <defs>
        <path id="DejaVuSans-32" d="M 1228 531 
L 3431 531 
L 3431 0 
L 469 0 
L 469 531 
Q 828 903 1448 1529 
Q 2069 2156 2228 2338 
Q 2531 2678 2651 2914 
Q 2772 3150 2772 3378 
Q 2772 3750 2511 3984 
Q 2250 4219 1831 4219 
Q 1534 4219 1204 4116 
Q 875 4013 500 3803 
L 500 4441 
Q 881 4594 1212 4672 
Q 1544 4750 1819 4750 
Q 2544 4750 2975 4387 
Q 3406 4025 3406 3419 
Q 3406 3131 3298 2873 
Q 3191 2616 2906 2266 
Q 2828 2175 2409 1742 
Q 1991 1309 1228 531 
z
" transform="scale(0.015625)"/>
        <path id="DejaVuSans-30" d="M 2034 4250 
Q 1547 4250 1301 3770 
Q 1056 3291 1056 2328 
Q 1056 1369 1301 889 
Q 1547 409 2034 409 
Q 2525 409 2770 889 
Q 3016 1369 3016 2328 
Q 3016 3291 2770 3770 
Q 2525 4250 2034 4250 
z
M 2034 4750 
Q 2819 4750 3233 4129 
Q 3647 3509 3647 2328 
Q 3647 1150 3233 529 
Q 2819 -91 2034 -91 
Q 1250 -91 836 529 
Q 422 1150 422 2328 
Q 422 3509 836 4129 
Q 1250 4750 2034 4750 
z
" transform="scale(0.015625)"/>
        <path id="DejaVuSans-2d" d="M 313 2009 
L 1997 2009 
L 1997 1497 
L 313 1497 
L 313 2009 
z
" transform="scale(0.015625)"/>
        <path id="DejaVuSans-31" d="M 794 531 
L 1825 531 
L 1825 4091 
L 703 3866 
L 703 4441 
L 1819 4666 
L 2450 4666 
L 2450 531 
L 3481 531 
L 3481 0 
L 794 0 
L 794 531 
z
" transform="scale(0.015625)"/>
       </defs>
       <use xlink:href="#DejaVuSans-32"/>
       <use xlink:href="#DejaVuSans-30" x="63.623047"/>
       <use xlink:href="#DejaVuSans-32" x="127.246094"/>
       <use xlink:href="#DejaVuSans-32" x="190.869141"/>
       <use xlink:href="#DejaVuSans-2d" x="254.492188"/>
       <use xlink:href="#DejaVuSans-30" x="290.576172"/>
       <use xlink:href="#DejaVuSans-31" x="354.199219"/>
       <use xlink:href="#DejaVuSans-2d" x="417.822266"/>
       <use xlink:href="#DejaVuSans-30" x="453.90625"/>
       <use xlink:href="#DejaVuSans-31" x="517.529297"/>
      </g>
     </g>
    </g>
    <g id="xtick_2">
     <g id="line2d_2">
      <g>
       <use xlink:href="#mf575c9af05" x="214.626479" y="320.4" style="stroke: #000000; stroke-width: 0.8"/>
      </g>
     </g>
     <g id="text_2">
      <!-- 2022-01-03 -->
      <g transform="translate(179.757104 336.518125) scale(0.12 -0.12)">
       <defs>
        <path id="DejaVuSans-33" d="M 2597 2516 
Q 3050 2419 3304 2112 
Q 3559 1806 3559 1356 
Q 3559 666 3084 287 
Q 2609 -91 1734 -91 
Q 1441 -91 1130 -33 
Q 819 25 488 141 
L 488 750 
Q 750 597 1062 519 
Q 1375 441 1716 441 
Q 2309 441 2620 675 
Q 2931 909 2931 1356 
Q 2931 1769 2642 2001 
Q 2353 2234 1838 2234 
L 1294 2234 
L 1294 2753 
L 1863 2753 
Q 2328 2753 2575 2939 
Q 2822 3125 2822 3475 
Q 2822 3834 2567 4026 
Q 2313 4219 1838 4219 
Q 1578 4219 1281 4162 
Q 984 4106 628 3988 
L 628 4550 
Q 988 4650 1302 4700 
Q 1616 4750 1894 4750 
Q 2613 4750 3031 4423 
Q 3450 4097 3450 3541 
Q 3450 3153 3228 2886 
Q 3006 2619 2597 2516 
z
" transform="scale(0.015625)"/>
       </defs>
       <use xlink:href="#DejaVuSans-32"/>
       <use xlink:href="#DejaVuSans-30" x="63.623047"/>
       <use xlink:href="#DejaVuSans-32" x="127.246094"/>
       <use xlink:href="#DejaVuSans-32" x="190.869141"/>
       <use xlink:href="#DejaVuSans-2d" x="254.492188"/>
       <use xlink:href="#DejaVuSans-30" x="290.576172"/>
       <use xlink:href="#DejaVuSans-31" x="354.199219"/>
       <use xlink:href="#DejaVuSans-2d" x="417.822266"/>
       <use xlink:href="#DejaVuSans-30" x="453.90625"/>
       <use xlink:href="#DejaVuSans-33" x="517.529297"/>
      </g>
     </g>
    </g>
    <g id="xtick_3">
     <g id="line2d_3">
      <g>
       <use xlink:href="#mf575c9af05" x="290.816594" y="320.4" style="stroke: #000000; stroke-width: 0.8"/>
      </g>
     </g>
     <g id="text_3">
      <!-- 2022-01-05 -->
      <g transform="translate(255.947219 336.518125) scale(0.12 -0.12)">
       <defs>
        <path id="DejaVuSans-35" d="M 691 4666 
L 3169 4666 
L 3169 4134 
L 1269 4134 
L 1269 2991 
Q 1406 3038 1543 3061 
Q 1681 3084 1819 3084 
Q 2600 3084 3056 2656 
Q 3513 2228 3513 1497 
Q 3513 744 3044 326 
Q 2575 -91 1722 -91 
Q 1428 -91 1123 -41 
Q 819 9 494 109 
L 494 744 
Q 775 591 1075 516 
Q 1375 441 1709 441 
Q 2250 441 2565 725 
Q 2881 1009 2881 1497 
Q 2881 1984 2565 2268 
Q 2250 2553 1709 2553 
Q 1456 2553 1204 2497 
Q 953 2441 691 2322 
L 691 4666 
z
" transform="scale(0.015625)"/>
       </defs>
       <use xlink:href="#DejaVuSans-32"/>
       <use xlink:href="#DejaVuSans-30" x="63.623047"/>
       <use xlink:href="#DejaVuSans-32" x="127.246094"/>
       <use xlink:href="#DejaVuSans-32" x="190.869141"/>
       <use xlink:href="#DejaVuSans-2d" x="254.492188"/>
       <use xlink:href="#DejaVuSans-30" x="290.576172"/>
       <use xlink:href="#DejaVuSans-31" x="354.199219"/>
       <use xlink:href="#DejaVuSans-2d" x="417.822266"/>
       <use xlink:href="#DejaVuSans-30" x="453.90625"/>
       <use xlink:href="#DejaVuSans-35" x="517.529297"/>
      </g>
     </g>
    </g>
    <g id="xtick_4">
     <g id="line2d_4">
      <g>
       <use xlink:href="#mf575c9af05" x="367.006709" y="320.4" style="stroke: #000000; stroke-width: 0.8"/>
      </g>
     </g>
     <g id="text_4">
      <!-- 2022-01-07 -->
      <g transform="translate(332.137334 336.518125) scale(0.12 -0.12)">
       <defs>
        <path id="DejaVuSans-37" d="M 525 4666 
L 3525 4666 
L 3525 4397 
L 1831 0 
L 1172 0 
L 2766 4134 
L 525 4134 
L 525 4666 
z
" transform="scale(0.015625)"/>
       </defs>
       <use xlink:href="#DejaVuSans-32"/>
       <use xlink:href="#DejaVuSans-30" x="63.623047"/>
       <use xlink:href="#DejaVuSans-32" x="127.246094"/>
       <use xlink:href="#DejaVuSans-32" x="190.869141"/>
       <use xlink:href="#DejaVuSans-2d" x="254.492188"/>
       <use xlink:href="#DejaVuSans-30" x="290.576172"/>
       <use xlink:href="#DejaVuSans-31" x="354.199219"/>
       <use xlink:href="#DejaVuSans-2d" x="417.822266"/>
       <use xlink:href="#DejaVuSans-30" x="453.90625"/>
       <use xlink:href="#DejaVuSans-37" x="517.529297"/>
      </g>
     </g>
    </g>
    <g id="xtick_5">
     <g id="line2d_5">
      <g>
       <use xlink:href="#mf575c9af05" x="443.196824" y="320.4" style="stroke: #000000; stroke-width: 0.8"/>
      </g>
     </g>
     <g id="text_5">
      <!-- 2022-01-09 -->
      <g transform="translate(408.327449 336.518125) scale(0.12 -0.12)">
       <defs>
        <path id="DejaVuSans-39" d="M 703 97 
L 703 672 
Q 941 559 1184 500 
Q 1428 441 1663 441 
Q 2288 441 2617 861 
Q 2947 1281 2994 2138 
Q 2813 1869 2534 1725 
Q 2256 1581 1919 1581 
Q 1219 1581 811 2004 
Q 403 2428 403 3163 
Q 403 3881 828 4315 
Q 1253 4750 1959 4750 
Q 2769 4750 3195 4129 
Q 3622 3509 3622 2328 
Q 3622 1225 3098 567 
Q 2575 -91 1691 -91 
Q 1453 -91 1209 -44 
Q 966 3 703 97 
z
M 1959 2075 
Q 2384 2075 2632 2365 
Q 2881 2656 2881 3163 
Q 2881 3666 2632 3958 
Q 2384 4250 1959 4250 
Q 1534 4250 1286 3958 
Q 1038 3666 1038 3163 
Q 1038 2656 1286 2365 
Q 1534 2075 1959 2075 
z
" transform="scale(0.015625)"/>
       </defs>
       <use xlink:href="#DejaVuSans-32"/>
       <use xlink:href="#DejaVuSans-30" x="63.623047"/>
       <use xlink:href="#DejaVuSans-32" x="127.246094"/>
       <use xlink:href="#DejaVuSans-32" x="190.869141"/>
       <use xlink:href="#DejaVuSans-2d" x="254.492188"/>
       <use xlink:href="#DejaVuSans-30" x="290.576172"/>
       <use xlink:href="#DejaVuSans-31" x="354.199219"/>
       <use xlink:href="#DejaVuSans-2d" x="417.822266"/>
       <use xlink:href="#DejaVuSans-30" x="453.90625"/>
       <use xlink:href="#DejaVuSans-39" x="517.529297"/>
      </g>
     </g>
    </g>
    <g id="xtick_6">
     <g id="line2d_6">
      <g>
       <use xlink:href="#mf575c9af05" x="519.386938" y="320.4" style="stroke: #000000; stroke-width: 0.8"/>
      </g>
     </g>
     <g id="text_6">
      <!-- 2022-01-11 -->
      <g transform="translate(484.517563 336.518125) scale(0.12 -0.12)">
       <use xlink:href="#DejaVuSans-32"/>
       <use xlink:href="#DejaVuSans-30" x="63.623047"/>
       <use xlink:href="#DejaVuSans-32" x="127.246094"/>
       <use xlink:href="#DejaVuSans-32" x="190.869141"/>
       <use xlink:href="#DejaVuSans-2d" x="254.492188"/>
       <use xlink:href="#DejaVuSans-30" x="290.576172"/>
       <use xlink:href="#DejaVuSans-31" x="354.199219"/>
       <use xlink:href="#DejaVuSans-2d" x="417.822266"/>
       <use xlink:href="#DejaVuSans-31" x="453.90625"/>
       <use xlink:href="#DejaVuSans-31" x="517.529297"/>
      </g>
     </g>
    </g>
    <g id="xtick_7">
     <g id="line2d_7">
      <g>
       <use xlink:href="#mf575c9af05" x="595.577053" y="320.4" style="stroke: #000000; stroke-width: 0.8"/>
      </g>
     </g>
     <g id="text_7">
      <!-- 2022-01-13 -->
      <g transform="translate(560.707678 336.518125) scale(0.12 -0.12)">
       <use xlink:href="#DejaVuSans-32"/>
       <use xlink:href="#DejaVuSans-30" x="63.623047"/>
       <use xlink:href="#DejaVuSans-32" x="127.246094"/>
       <use xlink:href="#DejaVuSans-32" x="190.869141"/>
       <use xlink:href="#DejaVuSans-2d" x="254.492188"/>
       <use xlink:href="#DejaVuSans-30" x="290.576172"/>
       <use xlink:href="#DejaVuSans-31" x="354.199219"/>
       <use xlink:href="#DejaVuSans-2d" x="417.822266"/>
       <use xlink:href="#DejaVuSans-31" x="453.90625"/>
       <use xlink:href="#DejaVuSans-33" x="517.529297"/>
      </g>
     </g>
    </g>
    <g id="xtick_8">
     <g id="line2d_8">
      <g>
       <use xlink:href="#mf575c9af05" x="671.767168" y="320.4" style="stroke: #000000; stroke-width: 0.8"/>
      </g>
     </g>
     <g id="text_8">
      <!-- 2022-01-15 -->
      <g transform="translate(636.897793 336.518125) scale(0.12 -0.12)">
       <use xlink:href="#DejaVuSans-32"/>
       <use xlink:href="#DejaVuSans-30" x="63.623047"/>
       <use xlink:href="#DejaVuSans-32" x="127.246094"/>
       <use xlink:href="#DejaVuSans-32" x="190.869141"/>
       <use xlink:href="#DejaVuSans-2d" x="254.492188"/>
       <use xlink:href="#DejaVuSans-30" x="290.576172"/>
       <use xlink:href="#DejaVuSans-31" x="354.199219"/>
       <use xlink:href="#DejaVuSans-2d" x="417.822266"/>
       <use xlink:href="#DejaVuSans-31" x="453.90625"/>
       <use xlink:href="#DejaVuSans-35" x="517.529297"/>
      </g>
     </g>
    </g>
    <g id="xtick_9">
     <g id="line2d_9">
      <g>
       <use xlink:href="#mf575c9af05" x="747.957283" y="320.4" style="stroke: #000000; stroke-width: 0.8"/>
      </g>
     </g>
     <g id="text_9">
      <!-- 2022-01-17 -->
      <g transform="translate(713.087908 336.518125) scale(0.12 -0.12)">
       <use xlink:href="#DejaVuSans-32"/>
       <use xlink:href="#DejaVuSans-30" x="63.623047"/>
       <use xlink:href="#DejaVuSans-32" x="127.246094"/>
       <use xlink:href="#DejaVuSans-32" x="190.869141"/>
       <use xlink:href="#DejaVuSans-2d" x="254.492188"/>
       <use xlink:href="#DejaVuSans-30" x="290.576172"/>
       <use xlink:href="#DejaVuSans-31" x="354.199219"/>
       <use xlink:href="#DejaVuSans-2d" x="417.822266"/>
       <use xlink:href="#DejaVuSans-31" x="453.90625"/>
       <use xlink:href="#DejaVuSans-37" x="517.529297"/>
      </g>
     </g>
    </g>
    <g id="text_10">
     <!-- TIME (DAYS) -->
     <g transform="translate(393.97375 355.17125) scale(0.16 -0.16)">
      <defs>
       <path id="DejaVuSans-54" d="M -19 4666 
L 3928 4666 
L 3928 4134 
L 2272 4134 
L 2272 0 
L 1638 0 
L 1638 4134 
L -19 4134 
L -19 4666 
z
" transform="scale(0.015625)"/>
       <path id="DejaVuSans-49" d="M 628 4666 
L 1259 4666 
L 1259 0 
L 628 0 
L 628 4666 
z
" transform="scale(0.015625)"/>
       <path id="DejaVuSans-4d" d="M 628 4666 
L 1569 4666 
L 2759 1491 
L 3956 4666 
L 4897 4666 
L 4897 0 
L 4281 0 
L 4281 4097 
L 3078 897 
L 2444 897 
L 1241 4097 
L 1241 0 
L 628 0 
L 628 4666 
z
" transform="scale(0.015625)"/>
       <path id="DejaVuSans-45" d="M 628 4666 
L 3578 4666 
L 3578 4134 
L 1259 4134 
L 1259 2753 
L 3481 2753 
L 3481 2222 
L 1259 2222 
L 1259 531 
L 3634 531 
L 3634 0 
L 628 0 
L 628 4666 
z
" transform="scale(0.015625)"/>
       <path id="DejaVuSans-20" transform="scale(0.015625)"/>
       <path id="DejaVuSans-28" d="M 1984 4856 
Q 1566 4138 1362 3434 
Q 1159 2731 1159 2009 
Q 1159 1288 1364 580 
Q 1569 -128 1984 -844 
L 1484 -844 
Q 1016 -109 783 600 
Q 550 1309 550 2009 
Q 550 2706 781 3412 
Q 1013 4119 1484 4856 
L 1984 4856 
z
" transform="scale(0.015625)"/>
       <path id="DejaVuSans-44" d="M 1259 4147 
L 1259 519 
L 2022 519 
Q 2988 519 3436 956 
Q 3884 1394 3884 2338 
Q 3884 3275 3436 3711 
Q 2988 4147 2022 4147 
L 1259 4147 
z
M 628 4666 
L 1925 4666 
Q 3281 4666 3915 4102 
Q 4550 3538 4550 2338 
Q 4550 1131 3912 565 
Q 3275 0 1925 0 
L 628 0 
L 628 4666 
z
" transform="scale(0.015625)"/>
       <path id="DejaVuSans-41" d="M 2188 4044 
L 1331 1722 
L 3047 1722 
L 2188 4044 
z
M 1831 4666 
L 2547 4666 
L 4325 0 
L 3669 0 
L 3244 1197 
L 1141 1197 
L 716 0 
L 50 0 
L 1831 4666 
z
" transform="scale(0.015625)"/>
       <path id="DejaVuSans-59" d="M -13 4666 
L 666 4666 
L 1959 2747 
L 3244 4666 
L 3922 4666 
L 2272 2222 
L 2272 0 
L 1638 0 
L 1638 2222 
L -13 4666 
z
" transform="scale(0.015625)"/>
       <path id="DejaVuSans-53" d="M 3425 4513 
L 3425 3897 
Q 3066 4069 2747 4153 
Q 2428 4238 2131 4238 
Q 1616 4238 1336 4038 
Q 1056 3838 1056 3469 
Q 1056 3159 1242 3001 
Q 1428 2844 1947 2747 
L 2328 2669 
Q 3034 2534 3370 2195 
Q 3706 1856 3706 1288 
Q 3706 609 3251 259 
Q 2797 -91 1919 -91 
Q 1588 -91 1214 -16 
Q 841 59 441 206 
L 441 856 
Q 825 641 1194 531 
Q 1563 422 1919 422 
Q 2459 422 2753 634 
Q 3047 847 3047 1241 
Q 3047 1584 2836 1778 
Q 2625 1972 2144 2069 
L 1759 2144 
Q 1053 2284 737 2584 
Q 422 2884 422 3419 
Q 422 4038 858 4394 
Q 1294 4750 2059 4750 
Q 2388 4750 2728 4690 
Q 3069 4631 3425 4513 
z
" transform="scale(0.015625)"/>
       <path id="DejaVuSans-29" d="M 513 4856 
L 1013 4856 
Q 1481 4119 1714 3412 
Q 1947 2706 1947 2009 
Q 1947 1309 1714 600 
Q 1481 -109 1013 -844 
L 513 -844 
Q 928 -128 1133 580 
Q 1338 1288 1338 2009 
Q 1338 2731 1133 3434 
Q 928 4138 513 4856 
z
" transform="scale(0.015625)"/>
      </defs>
      <use xlink:href="#DejaVuSans-54"/>
      <use xlink:href="#DejaVuSans-49" x="61.083984"/>
      <use xlink:href="#DejaVuSans-4d" x="90.576172"/>
      <use xlink:href="#DejaVuSans-45" x="176.855469"/>
      <use xlink:href="#DejaVuSans-20" x="240.039062"/>
      <use xlink:href="#DejaVuSans-28" x="271.826172"/>
      <use xlink:href="#DejaVuSans-44" x="310.839844"/>
      <use xlink:href="#DejaVuSans-41" x="386.091797"/>
      <use xlink:href="#DejaVuSans-59" x="446.75"/>
      <use xlink:href="#DejaVuSans-53" x="507.833984"/>
      <use xlink:href="#DejaVuSans-29" x="571.310547"/>
     </g>
    </g>
   </g>
   <g id="matplotlib.axis_2">
    <g id="ytick_1">
     <g id="line2d_10">
      <defs>
       <path id="m314ab846ad" d="M 0 0 
L -3.5 0 
" style="stroke: #000000; stroke-width: 0.8"/>
      </defs>
      <g>
       <use xlink:href="#m314ab846ad" x="108" y="307.8" style="stroke: #000000; stroke-width: 0.8"/>
      </g>
     </g>
     <g id="text_11">
      <!-- 0 -->
      <g transform="translate(93.365 312.359062) scale(0.12 -0.12)">
       <use xlink:href="#DejaVuSans-30"/>
      </g>
     </g>
    </g>
    <g id="ytick_2">
     <g id="line2d_11">
      <g>
       <use xlink:href="#m314ab846ad" x="108" y="249.868966" style="stroke: #000000; stroke-width: 0.8"/>
      </g>
     </g>
     <g id="text_12">
      <!-- 20 -->
      <g transform="translate(85.73 254.428028) scale(0.12 -0.12)">
       <use xlink:href="#DejaVuSans-32"/>
       <use xlink:href="#DejaVuSans-30" x="63.623047"/>
      </g>
     </g>
    </g>
    <g id="ytick_3">
     <g id="line2d_12">
      <g>
       <use xlink:href="#m314ab846ad" x="108" y="191.937931" style="stroke: #000000; stroke-width: 0.8"/>
      </g>
     </g>
     <g id="text_13">
      <!-- 40 -->
      <g transform="translate(85.73 196.496994) scale(0.12 -0.12)">
       <defs>
        <path id="DejaVuSans-34" d="M 2419 4116 
L 825 1625 
L 2419 1625 
L 2419 4116 
z
M 2253 4666 
L 3047 4666 
L 3047 1625 
L 3713 1625 
L 3713 1100 
L 3047 1100 
L 3047 0 
L 2419 0 
L 2419 1100 
L 313 1100 
L 313 1709 
L 2253 4666 
z
" transform="scale(0.015625)"/>
       </defs>
       <use xlink:href="#DejaVuSans-34"/>
       <use xlink:href="#DejaVuSans-30" x="63.623047"/>
      </g>
     </g>
    </g>
    <g id="ytick_4">
     <g id="line2d_13">
      <g>
       <use xlink:href="#m314ab846ad" x="108" y="134.006897" style="stroke: #000000; stroke-width: 0.8"/>
      </g>
     </g>
     <g id="text_14">
      <!-- 60 -->
      <g transform="translate(85.73 138.565959) scale(0.12 -0.12)">
       <defs>
        <path id="DejaVuSans-36" d="M 2113 2584 
Q 1688 2584 1439 2293 
Q 1191 2003 1191 1497 
Q 1191 994 1439 701 
Q 1688 409 2113 409 
Q 2538 409 2786 701 
Q 3034 994 3034 1497 
Q 3034 2003 2786 2293 
Q 2538 2584 2113 2584 
z
M 3366 4563 
L 3366 3988 
Q 3128 4100 2886 4159 
Q 2644 4219 2406 4219 
Q 1781 4219 1451 3797 
Q 1122 3375 1075 2522 
Q 1259 2794 1537 2939 
Q 1816 3084 2150 3084 
Q 2853 3084 3261 2657 
Q 3669 2231 3669 1497 
Q 3669 778 3244 343 
Q 2819 -91 2113 -91 
Q 1303 -91 875 529 
Q 447 1150 447 2328 
Q 447 3434 972 4092 
Q 1497 4750 2381 4750 
Q 2619 4750 2861 4703 
Q 3103 4656 3366 4563 
z
" transform="scale(0.015625)"/>
       </defs>
       <use xlink:href="#DejaVuSans-36"/>
       <use xlink:href="#DejaVuSans-30" x="63.623047"/>
      </g>
     </g>
    </g>
    <g id="ytick_5">
     <g id="line2d_14">
      <g>
       <use xlink:href="#m314ab846ad" x="108" y="76.075862" style="stroke: #000000; stroke-width: 0.8"/>
      </g>
     </g>
     <g id="text_15">
      <!-- 80 -->
      <g transform="translate(85.73 80.634925) scale(0.12 -0.12)">
       <defs>
        <path id="DejaVuSans-38" d="M 2034 2216 
Q 1584 2216 1326 1975 
Q 1069 1734 1069 1313 
Q 1069 891 1326 650 
Q 1584 409 2034 409 
Q 2484 409 2743 651 
Q 3003 894 3003 1313 
Q 3003 1734 2745 1975 
Q 2488 2216 2034 2216 
z
M 1403 2484 
Q 997 2584 770 2862 
Q 544 3141 544 3541 
Q 544 4100 942 4425 
Q 1341 4750 2034 4750 
Q 2731 4750 3128 4425 
Q 3525 4100 3525 3541 
Q 3525 3141 3298 2862 
Q 3072 2584 2669 2484 
Q 3125 2378 3379 2068 
Q 3634 1759 3634 1313 
Q 3634 634 3220 271 
Q 2806 -91 2034 -91 
Q 1263 -91 848 271 
Q 434 634 434 1313 
Q 434 1759 690 2068 
Q 947 2378 1403 2484 
z
M 1172 3481 
Q 1172 3119 1398 2916 
Q 1625 2713 2034 2713 
Q 2441 2713 2670 2916 
Q 2900 3119 2900 3481 
Q 2900 3844 2670 4047 
Q 2441 4250 2034 4250 
Q 1625 4250 1398 4047 
Q 1172 3844 1172 3481 
z
" transform="scale(0.015625)"/>
       </defs>
       <use xlink:href="#DejaVuSans-38"/>
       <use xlink:href="#DejaVuSans-30" x="63.623047"/>
      </g>
     </g>
    </g>
    <g id="text_16">
     <!-- SIMULATED -->
     <g transform="translate(60.486 227.5875) rotate(-90) scale(0.16 -0.16)">
      <defs>
       <path id="DejaVuSans-55" d="M 556 4666 
L 1191 4666 
L 1191 1831 
Q 1191 1081 1462 751 
Q 1734 422 2344 422 
Q 2950 422 3222 751 
Q 3494 1081 3494 1831 
L 3494 4666 
L 4128 4666 
L 4128 1753 
Q 4128 841 3676 375 
Q 3225 -91 2344 -91 
Q 1459 -91 1007 375 
Q 556 841 556 1753 
L 556 4666 
z
" transform="scale(0.015625)"/>
       <path id="DejaVuSans-4c" d="M 628 4666 
L 1259 4666 
L 1259 531 
L 3531 531 
L 3531 0 
L 628 0 
L 628 4666 
z
" transform="scale(0.015625)"/>
      </defs>
      <use xlink:href="#DejaVuSans-53"/>
      <use xlink:href="#DejaVuSans-49" x="63.476562"/>
      <use xlink:href="#DejaVuSans-4d" x="92.96875"/>
      <use xlink:href="#DejaVuSans-55" x="179.248047"/>
      <use xlink:href="#DejaVuSans-4c" x="252.441406"/>
      <use xlink:href="#DejaVuSans-41" x="310.404297"/>
      <use xlink:href="#DejaVuSans-54" x="371.0625"/>
      <use xlink:href="#DejaVuSans-45" x="432.146484"/>
      <use xlink:href="#DejaVuSans-44" x="495.330078"/>
     </g>
     <!-- AMPLITUDE -->
     <g transform="translate(78.4025 227.7725) rotate(-90) scale(0.16 -0.16)">
      <defs>
       <path id="DejaVuSans-50" d="M 1259 4147 
L 1259 2394 
L 2053 2394 
Q 2494 2394 2734 2622 
Q 2975 2850 2975 3272 
Q 2975 3691 2734 3919 
Q 2494 4147 2053 4147 
L 1259 4147 
z
M 628 4666 
L 2053 4666 
Q 2838 4666 3239 4311 
Q 3641 3956 3641 3272 
Q 3641 2581 3239 2228 
Q 2838 1875 2053 1875 
L 1259 1875 
L 1259 0 
L 628 0 
L 628 4666 
z
" transform="scale(0.015625)"/>
      </defs>
      <use xlink:href="#DejaVuSans-41"/>
      <use xlink:href="#DejaVuSans-4d" x="68.408203"/>
      <use xlink:href="#DejaVuSans-50" x="154.6875"/>
      <use xlink:href="#DejaVuSans-4c" x="214.990234"/>
      <use xlink:href="#DejaVuSans-49" x="270.703125"/>
      <use xlink:href="#DejaVuSans-54" x="300.195312"/>
      <use xlink:href="#DejaVuSans-55" x="361.279297"/>
      <use xlink:href="#DejaVuSans-44" x="434.472656"/>
      <use xlink:href="#DejaVuSans-45" x="511.474609"/>
     </g>
    </g>
   </g>
   <g id="line2d_15">
    <path d="M 138.436364 307.8 
L 139.230011 142.696552 
L 140.023658 189.041379 
L 140.817305 212.213793 
L 141.610952 299.110345 
L 142.404599 206.42069 
L 143.198246 180.351724 
L 143.991893 307.8 
L 144.78554 267.248276 
L 145.579187 281.731034 
L 146.372834 226.696552 
L 147.166481 307.8 
L 148.753775 307.8 
L 149.547422 284.627586 
L 150.341069 307.8 
L 151.134716 258.558621 
L 151.928363 261.455172 
L 153.515657 180.351724 
L 154.309304 270.144828 
L 155.102951 194.834483 
L 155.896598 191.937931 
L 156.690245 307.8 
L 158.277539 307.8 
L 159.071186 302.006897 
L 159.864833 249.868966 
L 160.658481 229.593103 
L 161.452128 307.8 
L 162.245775 255.662069 
L 163.039422 287.524138 
L 163.833069 304.903448 
L 164.626716 307.8 
L 165.420363 246.972414 
L 166.21401 284.627586 
L 167.007657 307.8 
L 167.801304 261.455172 
L 168.594951 307.8 
L 170.182245 307.8 
L 170.975892 244.075862 
L 171.769539 307.8 
L 172.563186 273.041379 
L 173.356833 307.8 
L 174.15048 165.868966 
L 174.944127 270.144828 
L 175.737774 125.317241 
L 176.531421 238.282759 
L 177.325068 307.8 
L 178.912362 235.386207 
L 179.706009 261.455172 
L 180.499656 307.8 
L 182.08695 307.8 
L 182.880597 206.42069 
L 183.674244 278.834483 
L 184.467891 307.8 
L 185.261538 209.317241 
L 186.055185 241.17931 
L 186.848833 290.42069 
L 187.64248 241.17931 
L 188.436127 246.972414 
L 189.229774 278.834483 
L 190.023421 226.696552 
L 190.817068 162.972414 
L 191.610715 304.903448 
L 192.404362 302.006897 
L 193.198009 264.351724 
L 193.991656 246.972414 
L 194.785303 304.903448 
L 195.57895 255.662069 
L 196.372597 290.42069 
L 197.166244 307.8 
L 198.753538 307.8 
L 199.547185 264.351724 
L 200.340832 281.731034 
L 201.134479 296.213793 
L 201.928126 307.8 
L 202.721773 191.937931 
L 203.51542 307.8 
L 205.896361 307.8 
L 206.690008 246.972414 
L 207.483655 261.455172 
L 208.277302 307.8 
L 209.070949 307.8 
L 209.864596 131.110345 
L 210.658243 215.110345 
L 211.45189 189.041379 
L 212.245538 177.455172 
L 213.039185 238.282759 
L 213.832832 307.8 
L 214.626479 296.213793 
L 215.420126 307.8 
L 216.213773 261.455172 
L 217.00742 304.903448 
L 217.801067 200.627586 
L 218.594714 307.8 
L 219.388361 267.248276 
L 220.182008 194.834483 
L 220.975655 278.834483 
L 221.769302 209.317241 
L 222.562949 290.42069 
L 223.356596 212.213793 
L 224.150243 209.317241 
L 224.94389 218.006897 
L 225.737537 203.524138 
L 226.531184 168.765517 
L 227.324831 270.144828 
L 228.118478 307.8 
L 228.912125 189.041379 
L 229.705772 270.144828 
L 230.499419 307.8 
L 232.086713 307.8 
L 232.88036 215.110345 
L 233.674007 284.627586 
L 234.467654 307.8 
L 235.261301 307.8 
L 236.054948 255.662069 
L 236.848595 307.8 
L 237.642243 307.8 
L 238.43589 273.041379 
L 239.229537 307.8 
L 240.023184 304.903448 
L 240.816831 223.8 
L 241.610478 307.8 
L 243.991419 307.8 
L 244.785066 194.834483 
L 245.578713 229.593103 
L 246.37236 270.144828 
L 247.166007 296.213793 
L 247.959654 168.765517 
L 248.753301 235.386207 
L 249.546948 290.42069 
L 250.340595 307.8 
L 251.134242 287.524138 
L 251.927889 287.524138 
L 252.721536 307.8 
L 253.515183 307.8 
L 254.30883 229.593103 
L 255.102477 278.834483 
L 255.896124 304.903448 
L 256.689771 307.8 
L 257.483418 244.075862 
L 258.277065 307.8 
L 259.070712 255.662069 
L 259.864359 157.17931 
L 260.658006 264.351724 
L 261.451653 168.765517 
L 262.2453 218.006897 
L 263.038947 290.42069 
L 263.832595 307.8 
L 266.213536 307.8 
L 267.007183 304.903448 
L 267.80083 284.627586 
L 268.594477 267.248276 
L 269.388124 209.317241 
L 270.181771 275.937931 
L 270.975418 287.524138 
L 271.769065 267.248276 
L 272.562712 307.8 
L 273.356359 261.455172 
L 274.150006 307.8 
L 274.943653 235.386207 
L 275.7373 226.696552 
L 276.530947 287.524138 
L 277.324594 275.937931 
L 278.118241 293.317241 
L 278.911888 275.937931 
L 279.705535 307.8 
L 280.499182 189.041379 
L 281.292829 134.006897 
L 282.086476 157.17931 
L 282.880123 246.972414 
L 283.67377 273.041379 
L 284.467417 293.317241 
L 285.261064 307.8 
L 286.054711 307.8 
L 286.848358 267.248276 
L 287.642005 296.213793 
L 288.435652 284.627586 
L 289.2293 299.110345 
L 290.022947 290.42069 
L 290.816594 307.8 
L 291.610241 299.110345 
L 292.403888 220.903448 
L 293.197535 255.662069 
L 293.991182 223.8 
L 294.784829 162.972414 
L 295.578476 215.110345 
L 296.372123 246.972414 
L 297.16577 203.524138 
L 297.959417 307.8 
L 298.753064 275.937931 
L 299.546711 258.558621 
L 300.340358 307.8 
L 302.721299 307.8 
L 303.514946 246.972414 
L 304.308593 307.8 
L 305.10224 307.8 
L 305.895887 302.006897 
L 306.689534 290.42069 
L 307.483181 258.558621 
L 309.070475 307.8 
L 310.657769 307.8 
L 311.451416 261.455172 
L 312.245063 307.8 
L 313.03871 255.662069 
L 313.832357 293.317241 
L 314.626005 307.8 
L 315.419652 307.8 
L 316.213299 220.903448 
L 317.006946 174.558621 
L 317.800593 206.42069 
L 318.59424 212.213793 
L 319.387887 244.075862 
L 320.181534 241.17931 
L 320.975181 252.765517 
L 321.768828 177.455172 
L 322.562475 296.213793 
L 323.356122 296.213793 
L 324.149769 229.593103 
L 324.943416 290.42069 
L 325.737063 307.8 
L 326.53071 226.696552 
L 327.324357 307.8 
L 328.118004 307.8 
L 328.911651 232.489655 
L 329.705298 273.041379 
L 330.498945 128.213793 
L 331.292592 246.972414 
L 332.879886 194.834483 
L 333.673533 287.524138 
L 334.46718 284.627586 
L 335.260827 302.006897 
L 336.054474 255.662069 
L 336.848121 307.8 
L 337.641768 307.8 
L 338.435415 206.42069 
L 339.229062 299.110345 
L 340.022709 218.006897 
L 340.816357 307.8 
L 341.610004 209.317241 
L 342.403651 307.8 
L 345.578239 307.8 
L 346.371886 264.351724 
L 347.165533 307.8 
L 347.95918 307.8 
L 348.752827 304.903448 
L 349.546474 307.8 
L 350.340121 304.903448 
L 351.133768 203.524138 
L 351.927415 174.558621 
L 352.721062 238.282759 
L 353.514709 244.075862 
L 354.308356 168.765517 
L 356.689297 307.8 
L 359.070238 307.8 
L 359.863885 267.248276 
L 360.657532 290.42069 
L 361.451179 223.8 
L 362.244826 183.248276 
L 363.038473 307.8 
L 363.83212 296.213793 
L 364.625767 212.213793 
L 365.419414 287.524138 
L 366.213062 229.593103 
L 367.006709 264.351724 
L 367.800356 113.731034 
L 368.594003 148.489655 
L 369.38765 258.558621 
L 370.181297 246.972414 
L 370.974944 307.8 
L 372.562238 307.8 
L 373.355885 302.006897 
L 374.149532 220.903448 
L 374.943179 307.8 
L 376.530473 307.8 
L 377.32412 296.213793 
L 378.117767 258.558621 
L 378.911414 307.8 
L 380.498708 307.8 
L 381.292355 273.041379 
L 382.086002 307.8 
L 382.879649 304.903448 
L 383.673296 307.8 
L 384.466943 287.524138 
L 385.26059 241.17931 
L 386.054237 307.8 
L 386.847884 151.386207 
L 387.641531 249.868966 
L 388.435178 270.144828 
L 390.022472 226.696552 
L 390.816119 284.627586 
L 391.609767 264.351724 
L 393.197061 304.903448 
L 393.990708 307.8 
L 394.784355 284.627586 
L 395.578002 278.834483 
L 396.371649 307.8 
L 397.958943 307.8 
L 398.75259 290.42069 
L 399.546237 183.248276 
L 400.339884 212.213793 
L 401.133531 293.317241 
L 401.927178 165.868966 
L 402.720825 307.8 
L 403.514472 186.144828 
L 404.308119 307.8 
L 405.101766 307.8 
L 405.895413 267.248276 
L 406.68906 278.834483 
L 407.482707 246.972414 
L 408.276354 307.8 
L 409.070001 275.937931 
L 409.863648 307.8 
L 410.657295 307.8 
L 411.450942 244.075862 
L 412.244589 307.8 
L 413.038236 302.006897 
L 413.831883 307.8 
L 414.62553 293.317241 
L 415.419177 307.8 
L 416.212824 249.868966 
L 417.006471 180.351724 
L 417.800119 299.110345 
L 418.593766 293.317241 
L 419.387413 290.42069 
L 420.18106 307.8 
L 420.974707 223.8 
L 421.768354 293.317241 
L 422.562001 235.386207 
L 423.355648 160.075862 
L 424.942942 220.903448 
L 425.736589 252.765517 
L 426.530236 226.696552 
L 427.323883 281.731034 
L 428.11753 278.834483 
L 428.911177 307.8 
L 429.704824 284.627586 
L 430.498471 307.8 
L 431.292118 307.8 
L 432.085765 287.524138 
L 432.879412 307.8 
L 433.673059 267.248276 
L 434.466706 307.8 
L 435.260353 275.937931 
L 436.054 307.8 
L 436.847647 249.868966 
L 437.641294 177.455172 
L 438.434941 191.937931 
L 439.228588 55.8 
L 440.022235 307.8 
L 440.815882 296.213793 
L 441.609529 307.8 
L 442.403176 275.937931 
L 443.196824 307.8 
L 443.990471 307.8 
L 444.784118 255.662069 
L 445.577765 290.42069 
L 446.371412 212.213793 
L 447.165059 307.8 
L 448.752353 307.8 
L 449.546 267.248276 
L 450.339647 307.8 
L 451.133294 264.351724 
L 451.926941 267.248276 
L 452.720588 307.8 
L 453.514235 307.8 
L 454.307882 203.524138 
L 455.101529 307.8 
L 455.895176 307.8 
L 456.688823 296.213793 
L 457.48247 197.731034 
L 458.276117 128.213793 
L 459.069764 203.524138 
L 459.863411 238.282759 
L 460.657058 154.282759 
L 461.450705 307.8 
L 462.244352 223.8 
L 463.037999 290.42069 
L 463.831646 307.8 
L 465.41894 307.8 
L 466.212587 290.42069 
L 467.006234 296.213793 
L 467.799881 281.731034 
L 468.593529 287.524138 
L 469.387176 307.8 
L 470.180823 307.8 
L 470.97447 296.213793 
L 471.768117 113.731034 
L 472.561764 203.524138 
L 473.355411 189.041379 
L 474.149058 151.386207 
L 474.942705 186.144828 
L 475.736352 246.972414 
L 476.529999 258.558621 
L 477.323646 307.8 
L 478.117293 258.558621 
L 478.91094 258.558621 
L 479.704587 249.868966 
L 480.498234 290.42069 
L 481.291881 307.8 
L 482.879175 307.8 
L 483.672822 220.903448 
L 484.466469 235.386207 
L 485.260116 307.8 
L 486.053763 299.110345 
L 486.84741 264.351724 
L 487.641057 307.8 
L 492.402939 307.8 
L 493.196586 267.248276 
L 493.990233 307.8 
L 494.783881 134.006897 
L 495.577528 142.696552 
L 496.371175 160.075862 
L 497.164822 165.868966 
L 497.958469 235.386207 
L 498.752116 278.834483 
L 499.545763 307.8 
L 500.33941 261.455172 
L 501.133057 307.8 
L 501.926704 296.213793 
L 502.720351 270.144828 
L 503.513998 307.8 
L 505.101292 307.8 
L 505.894939 261.455172 
L 506.688586 270.144828 
L 507.482233 241.17931 
L 508.27588 241.17931 
L 509.069527 151.386207 
L 509.863174 232.489655 
L 510.656821 148.489655 
L 511.450468 162.972414 
L 513.037762 307.8 
L 513.831409 278.834483 
L 514.625056 307.8 
L 515.418703 258.558621 
L 516.21235 232.489655 
L 517.005997 194.834483 
L 518.593291 290.42069 
L 519.386938 307.8 
L 520.180586 264.351724 
L 520.974233 307.8 
L 521.76788 307.8 
L 522.561527 299.110345 
L 523.355174 307.8 
L 524.148821 273.041379 
L 524.942468 307.8 
L 525.736115 261.455172 
L 526.529762 284.627586 
L 527.323409 258.558621 
L 528.117056 307.8 
L 528.910703 281.731034 
L 529.70435 307.8 
L 530.497997 212.213793 
L 531.291644 177.455172 
L 532.085291 252.765517 
L 532.878938 249.868966 
L 533.672585 220.903448 
L 534.466232 275.937931 
L 535.259879 304.903448 
L 536.053526 165.868966 
L 536.847173 307.8 
L 537.64082 273.041379 
L 538.434467 307.8 
L 539.228114 255.662069 
L 540.021761 261.455172 
L 540.815408 258.558621 
L 541.609055 252.765517 
L 542.402702 307.8 
L 543.196349 307.8 
L 543.989996 244.075862 
L 544.783643 197.731034 
L 545.577291 270.144828 
L 546.370938 194.834483 
L 547.164585 186.144828 
L 547.958232 162.972414 
L 549.545526 290.42069 
L 550.339173 299.110345 
L 551.13282 287.524138 
L 551.926467 307.8 
L 554.307408 307.8 
L 555.101055 261.455172 
L 555.894702 191.937931 
L 556.688349 307.8 
L 559.06929 307.8 
L 559.862937 281.731034 
L 560.656584 299.110345 
L 561.450231 307.8 
L 562.243878 299.110345 
L 563.037525 307.8 
L 563.831172 302.006897 
L 564.624819 307.8 
L 565.418466 307.8 
L 566.212113 302.006897 
L 567.00576 304.903448 
L 567.799407 125.317241 
L 568.593054 220.903448 
L 569.386701 194.834483 
L 570.180348 307.8 
L 570.973995 307.8 
L 571.767643 255.662069 
L 572.56129 220.903448 
L 573.354937 209.317241 
L 574.148584 307.8 
L 574.942231 252.765517 
L 575.735878 307.8 
L 578.116819 307.8 
L 578.910466 287.524138 
L 579.704113 261.455172 
L 580.49776 307.8 
L 581.291407 200.627586 
L 582.085054 246.972414 
L 582.878701 229.593103 
L 583.672348 252.765517 
L 584.465995 105.041379 
L 585.259642 189.041379 
L 586.053289 307.8 
L 586.846936 252.765517 
L 587.640583 307.8 
L 589.227877 307.8 
L 590.021524 302.006897 
L 590.815171 307.8 
L 591.608818 287.524138 
L 592.402465 307.8 
L 593.196112 194.834483 
L 594.783406 307.8 
L 595.577053 307.8 
L 596.3707 278.834483 
L 597.164348 307.8 
L 597.957995 293.317241 
L 598.751642 235.386207 
L 599.545289 307.8 
L 601.132583 307.8 
L 601.92623 270.144828 
L 602.719877 293.317241 
L 603.513524 302.006897 
L 604.307171 180.351724 
L 605.100818 229.593103 
L 605.894465 226.696552 
L 606.688112 194.834483 
L 607.481759 232.489655 
L 608.275406 264.351724 
L 609.069053 307.8 
L 609.8627 218.006897 
L 610.656347 296.213793 
L 611.449994 307.8 
L 613.037288 307.8 
L 614.624582 241.17931 
L 615.418229 287.524138 
L 616.211876 270.144828 
L 617.005523 264.351724 
L 617.79917 235.386207 
L 618.592817 307.8 
L 619.386464 246.972414 
L 620.180111 287.524138 
L 620.973758 168.765517 
L 621.767405 200.627586 
L 622.561053 264.351724 
L 623.3547 307.8 
L 624.148347 290.42069 
L 624.941994 307.8 
L 625.735641 307.8 
L 626.529288 290.42069 
L 627.322935 232.489655 
L 628.116582 307.8 
L 628.910229 307.8 
L 629.703876 278.834483 
L 630.497523 307.8 
L 631.29117 307.8 
L 632.084817 304.903448 
L 632.878464 284.627586 
L 633.672111 307.8 
L 634.465758 299.110345 
L 635.259405 307.8 
L 636.053052 278.834483 
L 636.846699 287.524138 
L 637.640346 307.8 
L 640.021287 307.8 
L 640.814934 194.834483 
L 641.608581 241.17931 
L 642.402228 162.972414 
L 643.195875 304.903448 
L 643.989522 229.593103 
L 644.783169 212.213793 
L 645.576816 307.8 
L 646.370463 293.317241 
L 647.16411 287.524138 
L 647.957757 307.8 
L 648.751405 307.8 
L 649.545052 293.317241 
L 650.338699 307.8 
L 651.132346 307.8 
L 651.925993 284.627586 
L 652.71964 307.8 
L 653.513287 307.8 
L 654.306934 249.868966 
L 655.100581 275.937931 
L 655.894228 223.8 
L 656.687875 203.524138 
L 657.481522 154.282759 
L 658.275169 131.110345 
L 659.068816 307.8 
L 659.862463 307.8 
L 660.65611 287.524138 
L 661.449757 278.834483 
L 662.243404 287.524138 
L 663.037051 255.662069 
L 663.830698 307.8 
L 665.417992 307.8 
L 666.211639 249.868966 
L 667.005286 307.8 
L 667.798933 235.386207 
L 668.59258 264.351724 
L 669.386227 235.386207 
L 670.179874 307.8 
L 670.973521 296.213793 
L 671.767168 249.868966 
L 672.560815 302.006897 
L 673.354462 281.731034 
L 674.14811 215.110345 
L 674.941757 293.317241 
L 675.735404 307.8 
L 676.529051 255.662069 
L 677.322698 177.455172 
L 678.116345 235.386207 
L 678.909992 157.17931 
L 680.497286 304.903448 
L 681.290933 267.248276 
L 682.08458 273.041379 
L 682.878227 307.8 
L 683.671874 232.489655 
L 684.465521 307.8 
L 685.259168 304.903448 
L 686.052815 307.8 
L 686.846462 307.8 
L 687.640109 252.765517 
L 688.433756 270.144828 
L 689.227403 226.696552 
L 690.02105 278.834483 
L 690.814697 255.662069 
L 691.608344 293.317241 
L 692.401991 258.558621 
L 693.195638 122.42069 
L 693.989285 226.696552 
L 694.782932 183.248276 
L 695.576579 203.524138 
L 696.370226 281.731034 
L 697.163873 307.8 
L 697.95752 296.213793 
L 698.751167 299.110345 
L 699.544815 307.8 
L 700.338462 307.8 
L 701.132109 249.868966 
L 701.925756 307.8 
L 702.719403 293.317241 
L 703.51305 307.8 
L 704.306697 307.8 
L 705.100344 290.42069 
L 705.893991 307.8 
L 706.687638 307.8 
L 707.481285 278.834483 
L 708.274932 261.455172 
L 709.068579 273.041379 
L 709.862226 296.213793 
L 710.655873 290.42069 
L 711.44952 304.903448 
L 712.243167 226.696552 
L 713.036814 267.248276 
L 713.830461 246.972414 
L 714.624108 218.006897 
L 715.417755 261.455172 
L 716.211402 180.351724 
L 717.005049 232.489655 
L 717.798696 241.17931 
L 718.592343 241.17931 
L 719.38599 307.8 
L 720.179637 307.8 
L 720.973284 290.42069 
L 721.766931 307.8 
L 723.354225 307.8 
L 724.147872 275.937931 
L 724.941519 307.8 
L 725.735167 296.213793 
L 727.322461 307.8 
L 728.116108 189.041379 
L 728.909755 249.868966 
L 729.703402 232.489655 
L 730.497049 189.041379 
L 731.290696 180.351724 
L 732.084343 209.317241 
L 732.87799 290.42069 
L 733.671637 261.455172 
L 734.465284 307.8 
L 735.258931 307.8 
L 736.052578 223.8 
L 736.846225 307.8 
L 739.227166 307.8 
L 740.020813 255.662069 
L 740.81446 278.834483 
L 741.608107 307.8 
L 742.401754 281.731034 
L 743.195401 275.937931 
L 743.989048 273.041379 
L 744.782695 255.662069 
L 745.576342 296.213793 
L 746.369989 223.8 
L 747.163636 299.110345 
L 747.163636 299.110345 
" clip-path="url(#pd3e23b7604)" style="fill: none; stroke: #191970; stroke-width: 2; stroke-linecap: square"/>
   </g>
   <g id="patch_3">
    <path d="M 108 320.4 
L 108 43.2 
" style="fill: none; stroke: #000000; stroke-width: 0.8; stroke-linejoin: miter; stroke-linecap: square"/>
   </g>
   <g id="patch_4">
    <path d="M 777.6 320.4 
L 777.6 43.2 
" style="fill: none; stroke: #000000; stroke-width: 0.8; stroke-linejoin: miter; stroke-linecap: square"/>
   </g>
   <g id="patch_5">
    <path d="M 108 320.4 
L 777.6 320.4 
" style="fill: none; stroke: #000000; stroke-width: 0.8; stroke-linejoin: miter; stroke-linecap: square"/>
   </g>
   <g id="patch_6">
    <path d="M 108 43.2 
L 777.6 43.2 
" style="fill: none; stroke: #000000; stroke-width: 0.8; stroke-linejoin: miter; stroke-linecap: square"/>
   </g>
   <g id="text_17">
    <!-- TIME SERIES -->
    <g transform="translate(386.625938 37.2) scale(0.18 -0.18)">
     <defs>
      <path id="DejaVuSans-52" d="M 2841 2188 
Q 3044 2119 3236 1894 
Q 3428 1669 3622 1275 
L 4263 0 
L 3584 0 
L 2988 1197 
Q 2756 1666 2539 1819 
Q 2322 1972 1947 1972 
L 1259 1972 
L 1259 0 
L 628 0 
L 628 4666 
L 2053 4666 
Q 2853 4666 3247 4331 
Q 3641 3997 3641 3322 
Q 3641 2881 3436 2590 
Q 3231 2300 2841 2188 
z
M 1259 4147 
L 1259 2491 
L 2053 2491 
Q 2509 2491 2742 2702 
Q 2975 2913 2975 3322 
Q 2975 3731 2742 3939 
Q 2509 4147 2053 4147 
L 1259 4147 
z
" transform="scale(0.015625)"/>
     </defs>
     <use xlink:href="#DejaVuSans-54"/>
     <use xlink:href="#DejaVuSans-49" x="61.083984"/>
     <use xlink:href="#DejaVuSans-4d" x="90.576172"/>
     <use xlink:href="#DejaVuSans-45" x="176.855469"/>
     <use xlink:href="#DejaVuSans-20" x="240.039062"/>
     <use xlink:href="#DejaVuSans-53" x="271.826172"/>
     <use xlink:href="#DejaVuSans-45" x="335.302734"/>
     <use xlink:href="#DejaVuSans-52" x="398.486328"/>
     <use xlink:href="#DejaVuSans-49" x="467.96875"/>
     <use xlink:href="#DejaVuSans-45" x="497.460938"/>
     <use xlink:href="#DejaVuSans-53" x="560.644531"/>
    </g>
   </g>
  </g>
 </g>
 <defs>
  <clipPath id="pd3e23b7604">
   <rect x="108" y="43.2" width="669.6" height="277.2"/>
  </clipPath>
 </defs>
</svg>
