<?xml version="1.0" encoding="utf-8" standalone="no"?>
<!DOCTYPE svg PUBLIC "-//W3C//DTD SVG 1.1//EN"
  "http://www.w3.org/Graphics/SVG/1.1/DTD/svg11.dtd">
<svg xmlns:xlink="http://www.w3.org/1999/xlink" width="864pt" height="360pt" viewBox="0 0 864 360" xmlns="http://www.w3.org/2000/svg" version="1.1">
 <metadata>
  <rdf:RDF xmlns:dc="http://purl.org/dc/elements/1.1/" xmlns:cc="http://creativecommons.org/ns#" xmlns:rdf="http://www.w3.org/1999/02/22-rdf-syntax-ns#">
   <cc:Work>
    <dc:type rdf:resource="http://purl.org/dc/dcmitype/StillImage"/>
    <dc:date>2023-11-07T10:53:11.043433</dc:date>
    <dc:format>image/svg+xml</dc:format>
    <dc:creator>
     <cc:Agent>
      <dc:title>Matplotlib v3.7.1, https://matplotlib.org/</dc:title>
     </cc:Agent>
    </dc:creator>
   </cc:Work>
  </rdf:RDF>
 </metadata>
 <defs>
  <style type="text/css">*{stroke-linejoin: round; stroke-linecap: butt}</style>
 </defs>
 <g id="figure_1">
  <g id="patch_1">
   <path d="M 0 360 
L 864 360 
L 864 0 
L 0 0 
z
" style="fill: #ffffff"/>
  </g>
  <g id="axes_1">
   <g id="patch_2">
    <path d="M 108 320.4 
L 777.6 320.4 
L 777.6 43.2 
L 108 43.2 
z
" style="fill: #ffffff"/>
   </g>
   <g id="matplotlib.axis_1">
    <g id="xtick_1">
     <g id="line2d_1">
      <defs>
       <path id="m461a23cbee" d="M 0 0 
L 0 3.5 
" style="stroke: #000000; stroke-width: 0.8"/>
      </defs>
      <g>
       <use xlink:href="#m461a23cbee" x="138.436364" y="320.4" style="stroke: #000000; stroke-width: 0.8"/>
      </g>
     </g>
     <g id="text_1">
      <!-- 2022-01-01 -->
      <g transform="translate(109.378551 334.998438) scale(0.1 -0.1)">
       <defs>
        <path id="DejaVuSans-32" d="M 1228 531 
L 3431 531 
L 3431 0 
L 469 0 
L 469 531 
Q 828 903 1448 1529 
Q 2069 2156 2228 2338 
Q 2531 2678 2651 2914 
Q 2772 3150 2772 3378 
Q 2772 3750 2511 3984 
Q 2250 4219 1831 4219 
Q 1534 4219 1204 4116 
Q 875 4013 500 3803 
L 500 4441 
Q 881 4594 1212 4672 
Q 1544 4750 1819 4750 
Q 2544 4750 2975 4387 
Q 3406 4025 3406 3419 
Q 3406 3131 3298 2873 
Q 3191 2616 2906 2266 
Q 2828 2175 2409 1742 
Q 1991 1309 1228 531 
z
" transform="scale(0.015625)"/>
        <path id="DejaVuSans-30" d="M 2034 4250 
Q 1547 4250 1301 3770 
Q 1056 3291 1056 2328 
Q 1056 1369 1301 889 
Q 1547 409 2034 409 
Q 2525 409 2770 889 
Q 3016 1369 3016 2328 
Q 3016 3291 2770 3770 
Q 2525 4250 2034 4250 
z
M 2034 4750 
Q 2819 4750 3233 4129 
Q 3647 3509 3647 2328 
Q 3647 1150 3233 529 
Q 2819 -91 2034 -91 
Q 1250 -91 836 529 
Q 422 1150 422 2328 
Q 422 3509 836 4129 
Q 1250 4750 2034 4750 
z
" transform="scale(0.015625)"/>
        <path id="DejaVuSans-2d" d="M 313 2009 
L 1997 2009 
L 1997 1497 
L 313 1497 
L 313 2009 
z
" transform="scale(0.015625)"/>
        <path id="DejaVuSans-31" d="M 794 531 
L 1825 531 
L 1825 4091 
L 703 3866 
L 703 4441 
L 1819 4666 
L 2450 4666 
L 2450 531 
L 3481 531 
L 3481 0 
L 794 0 
L 794 531 
z
" transform="scale(0.015625)"/>
       </defs>
       <use xlink:href="#DejaVuSans-32"/>
       <use xlink:href="#DejaVuSans-30" x="63.623047"/>
       <use xlink:href="#DejaVuSans-32" x="127.246094"/>
       <use xlink:href="#DejaVuSans-32" x="190.869141"/>
       <use xlink:href="#DejaVuSans-2d" x="254.492188"/>
       <use xlink:href="#DejaVuSans-30" x="290.576172"/>
       <use xlink:href="#DejaVuSans-31" x="354.199219"/>
       <use xlink:href="#DejaVuSans-2d" x="417.822266"/>
       <use xlink:href="#DejaVuSans-30" x="453.90625"/>
       <use xlink:href="#DejaVuSans-31" x="517.529297"/>
      </g>
     </g>
    </g>
    <g id="xtick_2">
     <g id="line2d_2">
      <g>
       <use xlink:href="#m461a23cbee" x="225.527002" y="320.4" style="stroke: #000000; stroke-width: 0.8"/>
      </g>
     </g>
     <g id="text_2">
      <!-- 2022-01-03 -->
      <g transform="translate(196.469189 334.998438) scale(0.1 -0.1)">
       <defs>
        <path id="DejaVuSans-33" d="M 2597 2516 
Q 3050 2419 3304 2112 
Q 3559 1806 3559 1356 
Q 3559 666 3084 287 
Q 2609 -91 1734 -91 
Q 1441 -91 1130 -33 
Q 819 25 488 141 
L 488 750 
Q 750 597 1062 519 
Q 1375 441 1716 441 
Q 2309 441 2620 675 
Q 2931 909 2931 1356 
Q 2931 1769 2642 2001 
Q 2353 2234 1838 2234 
L 1294 2234 
L 1294 2753 
L 1863 2753 
Q 2328 2753 2575 2939 
Q 2822 3125 2822 3475 
Q 2822 3834 2567 4026 
Q 2313 4219 1838 4219 
Q 1578 4219 1281 4162 
Q 984 4106 628 3988 
L 628 4550 
Q 988 4650 1302 4700 
Q 1616 4750 1894 4750 
Q 2613 4750 3031 4423 
Q 3450 4097 3450 3541 
Q 3450 3153 3228 2886 
Q 3006 2619 2597 2516 
z
" transform="scale(0.015625)"/>
       </defs>
       <use xlink:href="#DejaVuSans-32"/>
       <use xlink:href="#DejaVuSans-30" x="63.623047"/>
       <use xlink:href="#DejaVuSans-32" x="127.246094"/>
       <use xlink:href="#DejaVuSans-32" x="190.869141"/>
       <use xlink:href="#DejaVuSans-2d" x="254.492188"/>
       <use xlink:href="#DejaVuSans-30" x="290.576172"/>
       <use xlink:href="#DejaVuSans-31" x="354.199219"/>
       <use xlink:href="#DejaVuSans-2d" x="417.822266"/>
       <use xlink:href="#DejaVuSans-30" x="453.90625"/>
       <use xlink:href="#DejaVuSans-33" x="517.529297"/>
      </g>
     </g>
    </g>
    <g id="xtick_3">
     <g id="line2d_3">
      <g>
       <use xlink:href="#m461a23cbee" x="312.61764" y="320.4" style="stroke: #000000; stroke-width: 0.8"/>
      </g>
     </g>
     <g id="text_3">
      <!-- 2022-01-05 -->
      <g transform="translate(283.559827 334.998438) scale(0.1 -0.1)">
       <defs>
        <path id="DejaVuSans-35" d="M 691 4666 
L 3169 4666 
L 3169 4134 
L 1269 4134 
L 1269 2991 
Q 1406 3038 1543 3061 
Q 1681 3084 1819 3084 
Q 2600 3084 3056 2656 
Q 3513 2228 3513 1497 
Q 3513 744 3044 326 
Q 2575 -91 1722 -91 
Q 1428 -91 1123 -41 
Q 819 9 494 109 
L 494 744 
Q 775 591 1075 516 
Q 1375 441 1709 441 
Q 2250 441 2565 725 
Q 2881 1009 2881 1497 
Q 2881 1984 2565 2268 
Q 2250 2553 1709 2553 
Q 1456 2553 1204 2497 
Q 953 2441 691 2322 
L 691 4666 
z
" transform="scale(0.015625)"/>
       </defs>
       <use xlink:href="#DejaVuSans-32"/>
       <use xlink:href="#DejaVuSans-30" x="63.623047"/>
       <use xlink:href="#DejaVuSans-32" x="127.246094"/>
       <use xlink:href="#DejaVuSans-32" x="190.869141"/>
       <use xlink:href="#DejaVuSans-2d" x="254.492188"/>
       <use xlink:href="#DejaVuSans-30" x="290.576172"/>
       <use xlink:href="#DejaVuSans-31" x="354.199219"/>
       <use xlink:href="#DejaVuSans-2d" x="417.822266"/>
       <use xlink:href="#DejaVuSans-30" x="453.90625"/>
       <use xlink:href="#DejaVuSans-35" x="517.529297"/>
      </g>
     </g>
    </g>
    <g id="xtick_4">
     <g id="line2d_4">
      <g>
       <use xlink:href="#m461a23cbee" x="399.708278" y="320.4" style="stroke: #000000; stroke-width: 0.8"/>
      </g>
     </g>
     <g id="text_4">
      <!-- 2022-01-07 -->
      <g transform="translate(370.650466 334.998438) scale(0.1 -0.1)">
       <defs>
        <path id="DejaVuSans-37" d="M 525 4666 
L 3525 4666 
L 3525 4397 
L 1831 0 
L 1172 0 
L 2766 4134 
L 525 4134 
L 525 4666 
z
" transform="scale(0.015625)"/>
       </defs>
       <use xlink:href="#DejaVuSans-32"/>
       <use xlink:href="#DejaVuSans-30" x="63.623047"/>
       <use xlink:href="#DejaVuSans-32" x="127.246094"/>
       <use xlink:href="#DejaVuSans-32" x="190.869141"/>
       <use xlink:href="#DejaVuSans-2d" x="254.492188"/>
       <use xlink:href="#DejaVuSans-30" x="290.576172"/>
       <use xlink:href="#DejaVuSans-31" x="354.199219"/>
       <use xlink:href="#DejaVuSans-2d" x="417.822266"/>
       <use xlink:href="#DejaVuSans-30" x="453.90625"/>
       <use xlink:href="#DejaVuSans-37" x="517.529297"/>
      </g>
     </g>
    </g>
    <g id="xtick_5">
     <g id="line2d_5">
      <g>
       <use xlink:href="#m461a23cbee" x="486.798916" y="320.4" style="stroke: #000000; stroke-width: 0.8"/>
      </g>
     </g>
     <g id="text_5">
      <!-- 2022-01-09 -->
      <g transform="translate(457.741104 334.998438) scale(0.1 -0.1)">
       <defs>
        <path id="DejaVuSans-39" d="M 703 97 
L 703 672 
Q 941 559 1184 500 
Q 1428 441 1663 441 
Q 2288 441 2617 861 
Q 2947 1281 2994 2138 
Q 2813 1869 2534 1725 
Q 2256 1581 1919 1581 
Q 1219 1581 811 2004 
Q 403 2428 403 3163 
Q 403 3881 828 4315 
Q 1253 4750 1959 4750 
Q 2769 4750 3195 4129 
Q 3622 3509 3622 2328 
Q 3622 1225 3098 567 
Q 2575 -91 1691 -91 
Q 1453 -91 1209 -44 
Q 966 3 703 97 
z
M 1959 2075 
Q 2384 2075 2632 2365 
Q 2881 2656 2881 3163 
Q 2881 3666 2632 3958 
Q 2384 4250 1959 4250 
Q 1534 4250 1286 3958 
Q 1038 3666 1038 3163 
Q 1038 2656 1286 2365 
Q 1534 2075 1959 2075 
z
" transform="scale(0.015625)"/>
       </defs>
       <use xlink:href="#DejaVuSans-32"/>
       <use xlink:href="#DejaVuSans-30" x="63.623047"/>
       <use xlink:href="#DejaVuSans-32" x="127.246094"/>
       <use xlink:href="#DejaVuSans-32" x="190.869141"/>
       <use xlink:href="#DejaVuSans-2d" x="254.492188"/>
       <use xlink:href="#DejaVuSans-30" x="290.576172"/>
       <use xlink:href="#DejaVuSans-31" x="354.199219"/>
       <use xlink:href="#DejaVuSans-2d" x="417.822266"/>
       <use xlink:href="#DejaVuSans-30" x="453.90625"/>
       <use xlink:href="#DejaVuSans-39" x="517.529297"/>
      </g>
     </g>
    </g>
    <g id="xtick_6">
     <g id="line2d_6">
      <g>
       <use xlink:href="#m461a23cbee" x="573.889554" y="320.4" style="stroke: #000000; stroke-width: 0.8"/>
      </g>
     </g>
     <g id="text_6">
      <!-- 2022-01-11 -->
      <g transform="translate(544.831742 334.998438) scale(0.1 -0.1)">
       <use xlink:href="#DejaVuSans-32"/>
       <use xlink:href="#DejaVuSans-30" x="63.623047"/>
       <use xlink:href="#DejaVuSans-32" x="127.246094"/>
       <use xlink:href="#DejaVuSans-32" x="190.869141"/>
       <use xlink:href="#DejaVuSans-2d" x="254.492188"/>
       <use xlink:href="#DejaVuSans-30" x="290.576172"/>
       <use xlink:href="#DejaVuSans-31" x="354.199219"/>
       <use xlink:href="#DejaVuSans-2d" x="417.822266"/>
       <use xlink:href="#DejaVuSans-31" x="453.90625"/>
       <use xlink:href="#DejaVuSans-31" x="517.529297"/>
      </g>
     </g>
    </g>
    <g id="xtick_7">
     <g id="line2d_7">
      <g>
       <use xlink:href="#m461a23cbee" x="660.980192" y="320.4" style="stroke: #000000; stroke-width: 0.8"/>
      </g>
     </g>
     <g id="text_7">
      <!-- 2022-01-13 -->
      <g transform="translate(631.92238 334.998438) scale(0.1 -0.1)">
       <use xlink:href="#DejaVuSans-32"/>
       <use xlink:href="#DejaVuSans-30" x="63.623047"/>
       <use xlink:href="#DejaVuSans-32" x="127.246094"/>
       <use xlink:href="#DejaVuSans-32" x="190.869141"/>
       <use xlink:href="#DejaVuSans-2d" x="254.492188"/>
       <use xlink:href="#DejaVuSans-30" x="290.576172"/>
       <use xlink:href="#DejaVuSans-31" x="354.199219"/>
       <use xlink:href="#DejaVuSans-2d" x="417.822266"/>
       <use xlink:href="#DejaVuSans-31" x="453.90625"/>
       <use xlink:href="#DejaVuSans-33" x="517.529297"/>
      </g>
     </g>
    </g>
    <g id="xtick_8">
     <g id="line2d_8">
      <g>
       <use xlink:href="#m461a23cbee" x="748.070831" y="320.4" style="stroke: #000000; stroke-width: 0.8"/>
      </g>
     </g>
     <g id="text_8">
      <!-- 2022-01-15 -->
      <g transform="translate(719.013018 334.998438) scale(0.1 -0.1)">
       <use xlink:href="#DejaVuSans-32"/>
       <use xlink:href="#DejaVuSans-30" x="63.623047"/>
       <use xlink:href="#DejaVuSans-32" x="127.246094"/>
       <use xlink:href="#DejaVuSans-32" x="190.869141"/>
       <use xlink:href="#DejaVuSans-2d" x="254.492188"/>
       <use xlink:href="#DejaVuSans-30" x="290.576172"/>
       <use xlink:href="#DejaVuSans-31" x="354.199219"/>
       <use xlink:href="#DejaVuSans-2d" x="417.822266"/>
       <use xlink:href="#DejaVuSans-31" x="453.90625"/>
       <use xlink:href="#DejaVuSans-35" x="517.529297"/>
      </g>
     </g>
    </g>
    <g id="text_9">
     <!-- TIME (DAYS) -->
     <g transform="translate(412.283594 348.676562) scale(0.1 -0.1)">
      <defs>
       <path id="DejaVuSans-54" d="M -19 4666 
L 3928 4666 
L 3928 4134 
L 2272 4134 
L 2272 0 
L 1638 0 
L 1638 4134 
L -19 4134 
L -19 4666 
z
" transform="scale(0.015625)"/>
       <path id="DejaVuSans-49" d="M 628 4666 
L 1259 4666 
L 1259 0 
L 628 0 
L 628 4666 
z
" transform="scale(0.015625)"/>
       <path id="DejaVuSans-4d" d="M 628 4666 
L 1569 4666 
L 2759 1491 
L 3956 4666 
L 4897 4666 
L 4897 0 
L 4281 0 
L 4281 4097 
L 3078 897 
L 2444 897 
L 1241 4097 
L 1241 0 
L 628 0 
L 628 4666 
z
" transform="scale(0.015625)"/>
       <path id="DejaVuSans-45" d="M 628 4666 
L 3578 4666 
L 3578 4134 
L 1259 4134 
L 1259 2753 
L 3481 2753 
L 3481 2222 
L 1259 2222 
L 1259 531 
L 3634 531 
L 3634 0 
L 628 0 
L 628 4666 
z
" transform="scale(0.015625)"/>
       <path id="DejaVuSans-20" transform="scale(0.015625)"/>
       <path id="DejaVuSans-28" d="M 1984 4856 
Q 1566 4138 1362 3434 
Q 1159 2731 1159 2009 
Q 1159 1288 1364 580 
Q 1569 -128 1984 -844 
L 1484 -844 
Q 1016 -109 783 600 
Q 550 1309 550 2009 
Q 550 2706 781 3412 
Q 1013 4119 1484 4856 
L 1984 4856 
z
" transform="scale(0.015625)"/>
       <path id="DejaVuSans-44" d="M 1259 4147 
L 1259 519 
L 2022 519 
Q 2988 519 3436 956 
Q 3884 1394 3884 2338 
Q 3884 3275 3436 3711 
Q 2988 4147 2022 4147 
L 1259 4147 
z
M 628 4666 
L 1925 4666 
Q 3281 4666 3915 4102 
Q 4550 3538 4550 2338 
Q 4550 1131 3912 565 
Q 3275 0 1925 0 
L 628 0 
L 628 4666 
z
" transform="scale(0.015625)"/>
       <path id="DejaVuSans-41" d="M 2188 4044 
L 1331 1722 
L 3047 1722 
L 2188 4044 
z
M 1831 4666 
L 2547 4666 
L 4325 0 
L 3669 0 
L 3244 1197 
L 1141 1197 
L 716 0 
L 50 0 
L 1831 4666 
z
" transform="scale(0.015625)"/>
       <path id="DejaVuSans-59" d="M -13 4666 
L 666 4666 
L 1959 2747 
L 3244 4666 
L 3922 4666 
L 2272 2222 
L 2272 0 
L 1638 0 
L 1638 2222 
L -13 4666 
z
" transform="scale(0.015625)"/>
       <path id="DejaVuSans-53" d="M 3425 4513 
L 3425 3897 
Q 3066 4069 2747 4153 
Q 2428 4238 2131 4238 
Q 1616 4238 1336 4038 
Q 1056 3838 1056 3469 
Q 1056 3159 1242 3001 
Q 1428 2844 1947 2747 
L 2328 2669 
Q 3034 2534 3370 2195 
Q 3706 1856 3706 1288 
Q 3706 609 3251 259 
Q 2797 -91 1919 -91 
Q 1588 -91 1214 -16 
Q 841 59 441 206 
L 441 856 
Q 825 641 1194 531 
Q 1563 422 1919 422 
Q 2459 422 2753 634 
Q 3047 847 3047 1241 
Q 3047 1584 2836 1778 
Q 2625 1972 2144 2069 
L 1759 2144 
Q 1053 2284 737 2584 
Q 422 2884 422 3419 
Q 422 4038 858 4394 
Q 1294 4750 2059 4750 
Q 2388 4750 2728 4690 
Q 3069 4631 3425 4513 
z
" transform="scale(0.015625)"/>
       <path id="DejaVuSans-29" d="M 513 4856 
L 1013 4856 
Q 1481 4119 1714 3412 
Q 1947 2706 1947 2009 
Q 1947 1309 1714 600 
Q 1481 -109 1013 -844 
L 513 -844 
Q 928 -128 1133 580 
Q 1338 1288 1338 2009 
Q 1338 2731 1133 3434 
Q 928 4138 513 4856 
z
" transform="scale(0.015625)"/>
      </defs>
      <use xlink:href="#DejaVuSans-54"/>
      <use xlink:href="#DejaVuSans-49" x="61.083984"/>
      <use xlink:href="#DejaVuSans-4d" x="90.576172"/>
      <use xlink:href="#DejaVuSans-45" x="176.855469"/>
      <use xlink:href="#DejaVuSans-20" x="240.039062"/>
      <use xlink:href="#DejaVuSans-28" x="271.826172"/>
      <use xlink:href="#DejaVuSans-44" x="310.839844"/>
      <use xlink:href="#DejaVuSans-41" x="386.091797"/>
      <use xlink:href="#DejaVuSans-59" x="446.75"/>
      <use xlink:href="#DejaVuSans-53" x="507.833984"/>
      <use xlink:href="#DejaVuSans-29" x="571.310547"/>
     </g>
    </g>
   </g>
   <g id="matplotlib.axis_2">
    <g id="ytick_1">
     <g id="line2d_9">
      <defs>
       <path id="m8acb6ca183" d="M 0 0 
L -3.5 0 
" style="stroke: #000000; stroke-width: 0.8"/>
      </defs>
      <g>
       <use xlink:href="#m8acb6ca183" x="108" y="307.8" style="stroke: #000000; stroke-width: 0.8"/>
      </g>
     </g>
     <g id="text_10">
      <!-- 0 -->
      <g transform="translate(94.6375 311.599219) scale(0.1 -0.1)">
       <use xlink:href="#DejaVuSans-30"/>
      </g>
     </g>
    </g>
    <g id="ytick_2">
     <g id="line2d_10">
      <g>
       <use xlink:href="#m8acb6ca183" x="108" y="265.088136" style="stroke: #000000; stroke-width: 0.8"/>
      </g>
     </g>
     <g id="text_11">
      <!-- 10 -->
      <g transform="translate(88.275 268.887354) scale(0.1 -0.1)">
       <use xlink:href="#DejaVuSans-31"/>
       <use xlink:href="#DejaVuSans-30" x="63.623047"/>
      </g>
     </g>
    </g>
    <g id="ytick_3">
     <g id="line2d_11">
      <g>
       <use xlink:href="#m8acb6ca183" x="108" y="222.376271" style="stroke: #000000; stroke-width: 0.8"/>
      </g>
     </g>
     <g id="text_12">
      <!-- 20 -->
      <g transform="translate(88.275 226.17549) scale(0.1 -0.1)">
       <use xlink:href="#DejaVuSans-32"/>
       <use xlink:href="#DejaVuSans-30" x="63.623047"/>
      </g>
     </g>
    </g>
    <g id="ytick_4">
     <g id="line2d_12">
      <g>
       <use xlink:href="#m8acb6ca183" x="108" y="179.664407" style="stroke: #000000; stroke-width: 0.8"/>
      </g>
     </g>
     <g id="text_13">
      <!-- 30 -->
      <g transform="translate(88.275 183.463626) scale(0.1 -0.1)">
       <use xlink:href="#DejaVuSans-33"/>
       <use xlink:href="#DejaVuSans-30" x="63.623047"/>
      </g>
     </g>
    </g>
    <g id="ytick_5">
     <g id="line2d_13">
      <g>
       <use xlink:href="#m8acb6ca183" x="108" y="136.952542" style="stroke: #000000; stroke-width: 0.8"/>
      </g>
     </g>
     <g id="text_14">
      <!-- 40 -->
      <g transform="translate(88.275 140.751761) scale(0.1 -0.1)">
       <defs>
        <path id="DejaVuSans-34" d="M 2419 4116 
L 825 1625 
L 2419 1625 
L 2419 4116 
z
M 2253 4666 
L 3047 4666 
L 3047 1625 
L 3713 1625 
L 3713 1100 
L 3047 1100 
L 3047 0 
L 2419 0 
L 2419 1100 
L 313 1100 
L 313 1709 
L 2253 4666 
z
" transform="scale(0.015625)"/>
       </defs>
       <use xlink:href="#DejaVuSans-34"/>
       <use xlink:href="#DejaVuSans-30" x="63.623047"/>
      </g>
     </g>
    </g>
    <g id="ytick_6">
     <g id="line2d_14">
      <g>
       <use xlink:href="#m8acb6ca183" x="108" y="94.240678" style="stroke: #000000; stroke-width: 0.8"/>
      </g>
     </g>
     <g id="text_15">
      <!-- 50 -->
      <g transform="translate(88.275 98.039897) scale(0.1 -0.1)">
       <use xlink:href="#DejaVuSans-35"/>
       <use xlink:href="#DejaVuSans-30" x="63.623047"/>
      </g>
     </g>
    </g>
    <g id="ytick_7">
     <g id="line2d_15">
      <g>
       <use xlink:href="#m8acb6ca183" x="108" y="51.528814" style="stroke: #000000; stroke-width: 0.8"/>
      </g>
     </g>
     <g id="text_16">
      <!-- 60 -->
      <g transform="translate(88.275 55.328032) scale(0.1 -0.1)">
       <defs>
        <path id="DejaVuSans-36" d="M 2113 2584 
Q 1688 2584 1439 2293 
Q 1191 2003 1191 1497 
Q 1191 994 1439 701 
Q 1688 409 2113 409 
Q 2538 409 2786 701 
Q 3034 994 3034 1497 
Q 3034 2003 2786 2293 
Q 2538 2584 2113 2584 
z
M 3366 4563 
L 3366 3988 
Q 3128 4100 2886 4159 
Q 2644 4219 2406 4219 
Q 1781 4219 1451 3797 
Q 1122 3375 1075 2522 
Q 1259 2794 1537 2939 
Q 1816 3084 2150 3084 
Q 2853 3084 3261 2657 
Q 3669 2231 3669 1497 
Q 3669 778 3244 343 
Q 2819 -91 2113 -91 
Q 1303 -91 875 529 
Q 447 1150 447 2328 
Q 447 3434 972 4092 
Q 1497 4750 2381 4750 
Q 2619 4750 2861 4703 
Q 3103 4656 3366 4563 
z
" transform="scale(0.015625)"/>
       </defs>
       <use xlink:href="#DejaVuSans-36"/>
       <use xlink:href="#DejaVuSans-30" x="63.623047"/>
      </g>
     </g>
    </g>
    <g id="text_17">
     <!-- AMPLITUDE -->
     <g transform="translate(82.195312 210.532812) rotate(-90) scale(0.1 -0.1)">
      <defs>
       <path id="DejaVuSans-50" d="M 1259 4147 
L 1259 2394 
L 2053 2394 
Q 2494 2394 2734 2622 
Q 2975 2850 2975 3272 
Q 2975 3691 2734 3919 
Q 2494 4147 2053 4147 
L 1259 4147 
z
M 628 4666 
L 2053 4666 
Q 2838 4666 3239 4311 
Q 3641 3956 3641 3272 
Q 3641 2581 3239 2228 
Q 2838 1875 2053 1875 
L 1259 1875 
L 1259 0 
L 628 0 
L 628 4666 
z
" transform="scale(0.015625)"/>
       <path id="DejaVuSans-4c" d="M 628 4666 
L 1259 4666 
L 1259 531 
L 3531 531 
L 3531 0 
L 628 0 
L 628 4666 
z
" transform="scale(0.015625)"/>
       <path id="DejaVuSans-55" d="M 556 4666 
L 1191 4666 
L 1191 1831 
Q 1191 1081 1462 751 
Q 1734 422 2344 422 
Q 2950 422 3222 751 
Q 3494 1081 3494 1831 
L 3494 4666 
L 4128 4666 
L 4128 1753 
Q 4128 841 3676 375 
Q 3225 -91 2344 -91 
Q 1459 -91 1007 375 
Q 556 841 556 1753 
L 556 4666 
z
" transform="scale(0.015625)"/>
      </defs>
      <use xlink:href="#DejaVuSans-41"/>
      <use xlink:href="#DejaVuSans-4d" x="68.408203"/>
      <use xlink:href="#DejaVuSans-50" x="154.6875"/>
      <use xlink:href="#DejaVuSans-4c" x="214.990234"/>
      <use xlink:href="#DejaVuSans-49" x="270.703125"/>
      <use xlink:href="#DejaVuSans-54" x="300.195312"/>
      <use xlink:href="#DejaVuSans-55" x="361.279297"/>
      <use xlink:href="#DejaVuSans-44" x="434.472656"/>
      <use xlink:href="#DejaVuSans-45" x="511.474609"/>
     </g>
    </g>
   </g>
   <g id="line2d_16">
    <path d="M 138.436364 239.461017 
L 139.343558 145.494915 
L 140.250752 192.477966 
L 141.157946 171.122034 
L 142.06514 162.579661 
L 142.972334 218.105085 
L 143.879529 205.291525 
L 144.786723 218.105085 
L 145.693917 282.172881 
L 146.601111 230.918644 
L 147.508305 303.528814 
L 148.415499 260.816949 
L 149.322693 282.172881 
L 150.229888 290.715254 
L 151.137082 307.8 
L 152.044276 290.715254 
L 152.95147 286.444068 
L 153.858664 265.088136 
L 154.765858 252.274576 
L 155.673052 260.816949 
L 156.580247 188.20678 
L 157.487441 192.477966 
L 158.394635 235.189831 
L 159.301829 166.850847 
L 160.209023 77.155932 
L 161.116217 102.783051 
L 162.023411 286.444068 
L 162.930606 307.8 
L 163.8378 277.901695 
L 164.744994 282.172881 
L 165.652188 222.376271 
L 166.559382 307.8 
L 167.466576 218.105085 
L 168.37377 307.8 
L 169.280965 307.8 
L 170.188159 299.257627 
L 171.095353 277.901695 
L 172.002547 307.8 
L 172.909741 299.257627 
L 173.816935 307.8 
L 174.72413 269.359322 
L 175.631324 277.901695 
L 176.538518 307.8 
L 178.352906 307.8 
L 179.2601 239.461017 
L 180.167294 307.8 
L 181.074489 307.8 
L 181.981683 213.833898 
L 182.888877 273.630508 
L 183.796071 307.8 
L 184.703265 307.8 
L 185.610459 102.783051 
L 186.517653 107.054237 
L 187.424848 162.579661 
L 188.332042 171.122034 
L 189.239236 273.630508 
L 190.14643 218.105085 
L 191.053624 269.359322 
L 191.960818 307.8 
L 193.775207 307.8 
L 194.682401 265.088136 
L 195.589595 265.088136 
L 197.403983 273.630508 
L 198.311177 307.8 
L 199.218371 260.816949 
L 201.03276 243.732203 
L 201.939954 307.8 
L 202.847148 222.376271 
L 203.754342 277.901695 
L 204.661536 213.833898 
L 207.383119 94.240678 
L 208.290313 81.427119 
L 209.197507 307.8 
L 210.104701 260.816949 
L 211.011895 294.986441 
L 211.91909 286.444068 
L 212.826284 307.8 
L 213.733478 299.257627 
L 214.640672 307.8 
L 215.547866 307.8 
L 216.45506 277.901695 
L 217.362254 307.8 
L 218.269449 307.8 
L 219.176643 294.986441 
L 220.083837 307.8 
L 222.805419 307.8 
L 223.712613 218.105085 
L 224.619808 256.545763 
L 225.527002 307.8 
L 226.434196 307.8 
L 227.34139 226.647458 
L 228.248584 290.715254 
L 229.155778 307.8 
L 230.062972 307.8 
L 230.970167 294.986441 
L 231.877361 307.8 
L 232.784555 166.850847 
L 233.691749 119.867797 
L 234.598943 171.122034 
L 235.506137 213.833898 
L 236.413332 188.20678 
L 238.22772 269.359322 
L 239.134914 213.833898 
L 240.042108 235.189831 
L 240.949302 307.8 
L 244.578079 307.8 
L 245.485273 269.359322 
L 246.392467 307.8 
L 247.299661 235.189831 
L 248.206855 294.986441 
L 249.11405 303.528814 
L 250.021244 149.766102 
L 250.928438 166.850847 
L 251.835632 243.732203 
L 252.742826 222.376271 
L 253.65002 119.867797 
L 254.557214 145.494915 
L 255.464409 98.511864 
L 256.371603 286.444068 
L 257.278797 307.8 
L 258.185991 256.545763 
L 259.093185 294.986441 
L 260.000379 299.257627 
L 260.907573 307.8 
L 264.53635 307.8 
L 265.443544 277.901695 
L 266.350738 307.8 
L 267.257933 286.444068 
L 268.165127 307.8 
L 269.072321 265.088136 
L 269.979515 307.8 
L 270.886709 307.8 
L 271.793903 273.630508 
L 272.701097 307.8 
L 273.608292 273.630508 
L 274.515486 307.8 
L 275.42268 307.8 
L 276.329874 294.986441 
L 277.237068 307.8 
L 279.051456 307.8 
L 279.958651 154.037288 
L 280.865845 77.155932 
L 281.773039 141.223729 
L 282.680233 141.223729 
L 283.587427 145.494915 
L 284.494621 209.562712 
L 285.401815 235.189831 
L 286.30901 307.8 
L 287.216204 256.545763 
L 288.123398 273.630508 
L 289.030592 307.8 
L 291.752175 307.8 
L 292.659369 277.901695 
L 293.566563 307.8 
L 294.473757 265.088136 
L 295.380951 286.444068 
L 296.288145 209.562712 
L 297.195339 205.291525 
L 298.102534 175.39322 
L 299.009728 235.189831 
L 299.916922 128.410169 
L 300.824116 145.494915 
L 301.73131 115.59661 
L 302.638504 98.511864 
L 303.545698 286.444068 
L 304.452893 230.918644 
L 305.360087 307.8 
L 306.267281 282.172881 
L 307.174475 307.8 
L 308.988863 299.257627 
L 309.896057 265.088136 
L 310.803252 307.8 
L 311.710446 252.274576 
L 312.61764 256.545763 
L 313.524834 269.359322 
L 314.432028 307.8 
L 315.339222 307.8 
L 316.246416 273.630508 
L 317.153611 252.274576 
L 318.060805 307.8 
L 318.967999 303.528814 
L 319.875193 307.8 
L 320.782387 226.647458 
L 321.689581 286.444068 
L 322.596776 299.257627 
L 323.50397 307.8 
L 325.318358 307.8 
L 326.225552 77.155932 
L 327.132746 136.952542 
L 328.03994 154.037288 
L 328.947135 252.274576 
L 329.854329 192.477966 
L 330.761523 171.122034 
L 331.668717 269.359322 
L 332.575911 303.528814 
L 333.483105 307.8 
L 334.390299 294.986441 
L 335.297494 252.274576 
L 336.204688 307.8 
L 337.111882 299.257627 
L 338.019076 243.732203 
L 338.92627 299.257627 
L 339.833464 307.8 
L 340.740658 307.8 
L 341.647853 205.291525 
L 342.555047 239.461017 
L 343.462241 196.749153 
L 344.369435 162.579661 
L 345.276629 196.749153 
L 346.183823 171.122034 
L 347.091017 119.867797 
L 347.998212 89.969492 
L 348.905406 68.613559 
L 349.8126 294.986441 
L 350.719794 307.8 
L 352.534182 307.8 
L 353.441377 205.291525 
L 354.348571 307.8 
L 358.884541 307.8 
L 359.791736 256.545763 
L 360.69893 307.8 
L 362.513318 307.8 
L 363.420512 273.630508 
L 364.327706 248.00339 
L 365.2349 286.444068 
L 366.142095 307.8 
L 367.049289 294.986441 
L 367.956483 307.8 
L 368.863677 230.918644 
L 369.770871 243.732203 
L 370.678065 286.444068 
L 371.585259 282.172881 
L 372.492454 286.444068 
L 373.399648 77.155932 
L 374.306842 85.698305 
L 375.214036 205.291525 
L 376.12123 141.223729 
L 377.028424 132.681356 
L 377.935618 201.020339 
L 378.842813 294.986441 
L 379.750007 260.816949 
L 380.657201 290.715254 
L 381.564395 307.8 
L 382.471589 299.257627 
L 383.378783 307.8 
L 384.285978 282.172881 
L 385.193172 282.172881 
L 386.100366 265.088136 
L 387.00756 277.901695 
L 387.914754 273.630508 
L 388.821948 286.444068 
L 389.729142 230.918644 
L 390.636337 226.647458 
L 391.543531 265.088136 
L 392.450725 171.122034 
L 393.357919 145.494915 
L 394.265113 115.59661 
L 395.172307 132.681356 
L 396.079501 115.59661 
L 396.986696 307.8 
L 397.89389 307.8 
L 398.801084 277.901695 
L 399.708278 307.8 
L 401.522666 307.8 
L 402.42986 213.833898 
L 403.337055 239.461017 
L 404.244249 286.444068 
L 405.151443 307.8 
L 406.058637 307.8 
L 406.965831 290.715254 
L 407.873025 290.715254 
L 408.780219 179.664407 
L 409.687414 277.901695 
L 410.594608 303.528814 
L 411.501802 303.528814 
L 412.408996 307.8 
L 413.31619 307.8 
L 414.223384 294.986441 
L 415.130579 303.528814 
L 416.037773 307.8 
L 417.852161 307.8 
L 418.759355 303.528814 
L 419.666549 277.901695 
L 420.573743 179.664407 
L 421.480938 55.8 
L 422.388132 256.545763 
L 423.295326 196.749153 
L 424.20252 201.020339 
L 425.109714 179.664407 
L 426.016908 260.816949 
L 426.924102 307.8 
L 427.831297 256.545763 
L 428.738491 303.528814 
L 429.645685 286.444068 
L 430.552879 307.8 
L 431.460073 290.715254 
L 432.367267 307.8 
L 433.274461 307.8 
L 434.181656 269.359322 
L 435.08885 243.732203 
L 435.996044 235.189831 
L 436.903238 230.918644 
L 437.810432 303.528814 
L 438.717626 303.528814 
L 439.62482 226.647458 
L 440.532015 162.579661 
L 441.439209 149.766102 
L 442.346403 124.138983 
L 443.253597 81.427119 
L 444.160791 294.986441 
L 445.067985 277.901695 
L 445.97518 307.8 
L 446.882374 286.444068 
L 447.789568 239.461017 
L 448.696762 307.8 
L 450.51115 307.8 
L 451.418344 299.257627 
L 452.325539 307.8 
L 453.232733 294.986441 
L 454.139927 294.986441 
L 455.047121 307.8 
L 457.768703 307.8 
L 458.675898 230.918644 
L 459.583092 307.8 
L 460.490286 307.8 
L 461.39748 218.105085 
L 462.304674 307.8 
L 463.211868 260.816949 
L 464.119062 307.8 
L 465.026257 307.8 
L 465.933451 303.528814 
L 466.840645 307.8 
L 467.747839 77.155932 
L 468.655033 94.240678 
L 469.562227 171.122034 
L 470.469421 115.59661 
L 471.376616 175.39322 
L 472.28381 226.647458 
L 473.191004 226.647458 
L 474.098198 235.189831 
L 475.005392 222.376271 
L 475.912586 260.816949 
L 476.819781 277.901695 
L 477.726975 243.732203 
L 478.634169 307.8 
L 481.355751 307.8 
L 482.262945 260.816949 
L 483.17014 307.8 
L 484.077334 286.444068 
L 484.984528 307.8 
L 485.891722 282.172881 
L 486.798916 175.39322 
L 488.613304 175.39322 
L 489.520499 111.325424 
L 490.427693 307.8 
L 493.149275 307.8 
L 494.056469 230.918644 
L 494.963663 307.8 
L 495.870858 307.8 
L 496.778052 299.257627 
L 497.685246 230.918644 
L 498.59244 286.444068 
L 499.499634 299.257627 
L 500.406828 307.8 
L 502.221217 307.8 
L 503.128411 269.359322 
L 504.035605 307.8 
L 505.849993 307.8 
L 506.757187 303.528814 
L 507.664382 307.8 
L 508.571576 307.8 
L 509.47877 282.172881 
L 510.385964 260.816949 
L 511.293158 307.8 
L 512.200352 303.528814 
L 513.107546 307.8 
L 514.014741 81.427119 
L 514.921935 111.325424 
L 515.829129 230.918644 
L 516.736323 154.037288 
L 517.643517 192.477966 
L 518.550711 239.461017 
L 519.457905 277.901695 
L 520.3651 252.274576 
L 521.272294 290.715254 
L 522.179488 307.8 
L 523.086682 294.986441 
L 523.993876 307.8 
L 524.90107 307.8 
L 525.808264 277.901695 
L 526.715459 307.8 
L 527.622653 286.444068 
L 528.529847 222.376271 
L 529.437041 282.172881 
L 530.344235 282.172881 
L 531.251429 286.444068 
L 532.158623 183.935593 
L 533.065818 154.037288 
L 533.973012 226.647458 
L 534.880206 98.511864 
L 535.7874 141.223729 
L 536.694594 162.579661 
L 537.601788 286.444068 
L 538.508983 299.257627 
L 539.416177 307.8 
L 540.323371 230.918644 
L 542.137759 307.8 
L 543.044953 273.630508 
L 543.952147 269.359322 
L 544.859342 307.8 
L 547.580924 307.8 
L 548.488118 299.257627 
L 549.395312 282.172881 
L 550.302506 307.8 
L 551.209701 286.444068 
L 552.116895 307.8 
L 553.024089 286.444068 
L 553.931283 269.359322 
L 554.838477 307.8 
L 555.745671 307.8 
L 556.652865 252.274576 
L 557.56006 307.8 
L 558.467254 256.545763 
L 559.374448 307.8 
L 560.281642 282.172881 
L 561.188836 94.240678 
L 562.09603 162.579661 
L 563.003224 243.732203 
L 563.910419 175.39322 
L 564.817613 201.020339 
L 565.724807 149.766102 
L 566.632001 209.562712 
L 567.539195 218.105085 
L 568.446389 243.732203 
L 569.353584 307.8 
L 570.260778 256.545763 
L 571.167972 307.8 
L 572.075166 252.274576 
L 572.98236 307.8 
L 576.611137 307.8 
L 577.518331 299.257627 
L 578.425525 192.477966 
L 579.332719 230.918644 
L 580.239913 175.39322 
L 581.147107 141.223729 
L 582.054302 209.562712 
L 582.961496 141.223729 
L 583.86869 307.8 
L 584.775884 307.8 
L 585.683078 256.545763 
L 586.590272 307.8 
L 587.497466 273.630508 
L 588.404661 248.00339 
L 589.311855 282.172881 
L 590.219049 307.8 
L 591.126243 307.8 
L 592.033437 235.189831 
L 592.940631 282.172881 
L 593.847825 307.8 
L 597.476602 307.8 
L 598.383796 277.901695 
L 599.29099 290.715254 
L 600.198185 294.986441 
L 601.105379 307.8 
L 602.012573 222.376271 
L 602.919767 307.8 
L 603.826961 124.138983 
L 604.734155 81.427119 
L 605.641349 222.376271 
L 606.548544 205.291525 
L 607.455738 175.39322 
L 608.362932 303.528814 
L 609.270126 213.833898 
L 610.17732 218.105085 
L 611.084514 294.986441 
L 611.991708 307.8 
L 612.898903 294.986441 
L 613.806097 307.8 
L 614.713291 307.8 
L 615.620485 265.088136 
L 616.527679 277.901695 
L 617.434873 307.8 
L 618.342067 235.189831 
L 619.249262 252.274576 
L 620.156456 273.630508 
L 621.06365 243.732203 
L 621.970844 149.766102 
L 622.878038 136.952542 
L 623.785232 77.155932 
L 624.692427 307.8 
L 625.599621 294.986441 
L 626.506815 303.528814 
L 627.414009 307.8 
L 629.228397 307.8 
L 630.135591 265.088136 
L 631.94998 299.257627 
L 632.857174 307.8 
L 633.764368 307.8 
L 634.671562 260.816949 
L 635.578756 307.8 
L 636.48595 307.8 
L 637.393145 243.732203 
L 638.300339 307.8 
L 639.207533 269.359322 
L 640.114727 303.528814 
L 641.021921 307.8 
L 641.929115 299.257627 
L 642.836309 307.8 
L 643.743504 307.8 
L 644.650698 72.884746 
L 645.557892 136.952542 
L 646.465086 179.664407 
L 647.37228 136.952542 
L 648.279474 60.071186 
L 649.186668 307.8 
L 650.093863 243.732203 
L 651.001057 307.8 
L 651.908251 307.8 
L 652.815445 269.359322 
L 653.722639 299.257627 
L 654.629833 299.257627 
L 655.537028 269.359322 
L 656.444222 277.901695 
L 657.351416 307.8 
L 658.25861 294.986441 
L 659.165804 248.00339 
L 660.072998 243.732203 
L 660.980192 192.477966 
L 661.887387 149.766102 
L 662.794581 175.39322 
L 663.701775 111.325424 
L 664.608969 273.630508 
L 665.516163 307.8 
L 668.237746 307.8 
L 669.14494 252.274576 
L 670.052134 307.8 
L 670.959328 209.562712 
L 671.866522 307.8 
L 672.773716 307.8 
L 673.68091 282.172881 
L 674.588105 260.816949 
L 675.495299 307.8 
L 676.402493 294.986441 
L 677.309687 307.8 
L 678.216881 303.528814 
L 679.124075 307.8 
L 680.031269 307.8 
L 680.938464 260.816949 
L 681.845658 307.8 
L 682.752852 235.189831 
L 683.660046 294.986441 
L 684.56724 77.155932 
L 685.474434 128.410169 
L 686.381629 201.020339 
L 687.288823 141.223729 
L 688.196017 201.020339 
L 689.103211 205.291525 
L 690.917599 299.257627 
L 691.824793 307.8 
L 693.639182 307.8 
L 694.546376 252.274576 
L 695.45357 307.8 
L 696.360764 307.8 
L 697.267958 188.20678 
L 698.175152 307.8 
L 699.082347 239.461017 
L 700.896735 230.918644 
L 701.803929 166.850847 
L 702.711123 166.850847 
L 703.618317 81.427119 
L 704.525511 183.935593 
L 705.432706 252.274576 
L 706.3399 307.8 
L 707.247094 265.088136 
L 708.154288 282.172881 
L 709.061482 290.715254 
L 709.968676 307.8 
L 711.783065 307.8 
L 712.690259 294.986441 
L 713.597453 307.8 
L 714.504647 307.8 
L 715.411841 299.257627 
L 716.319035 303.528814 
L 717.22623 290.715254 
L 718.133424 307.8 
L 719.040618 307.8 
L 719.947812 226.647458 
L 720.855006 307.8 
L 721.7622 290.715254 
L 722.669394 307.8 
L 723.576589 260.816949 
L 724.483783 307.8 
L 725.390977 166.850847 
L 726.298171 171.122034 
L 727.205365 252.274576 
L 728.112559 188.20678 
L 729.019753 256.545763 
L 729.926948 183.935593 
L 730.834142 260.816949 
L 731.741336 299.257627 
L 732.64853 307.8 
L 735.370112 307.8 
L 736.277307 260.816949 
L 737.184501 230.918644 
L 738.998889 230.918644 
L 739.906083 175.39322 
L 740.813277 222.376271 
L 741.720471 209.562712 
L 742.627666 218.105085 
L 743.53486 205.291525 
L 744.442054 115.59661 
L 745.349248 307.8 
L 746.256442 307.8 
L 747.163636 299.257627 
L 747.163636 299.257627 
" clip-path="url(#p9684447418)" style="fill: none; stroke: #191970; stroke-width: 2; stroke-linecap: square"/>
   </g>
   <g id="patch_3">
    <path d="M 108 320.4 
L 108 43.2 
" style="fill: none; stroke: #000000; stroke-width: 0.8; stroke-linejoin: miter; stroke-linecap: square"/>
   </g>
   <g id="patch_4">
    <path d="M 777.6 320.4 
L 777.6 43.2 
" style="fill: none; stroke: #000000; stroke-width: 0.8; stroke-linejoin: miter; stroke-linecap: square"/>
   </g>
   <g id="patch_5">
    <path d="M 108 320.4 
L 777.6 320.4 
" style="fill: none; stroke: #000000; stroke-width: 0.8; stroke-linejoin: miter; stroke-linecap: square"/>
   </g>
   <g id="patch_6">
    <path d="M 108 43.2 
L 777.6 43.2 
" style="fill: none; stroke: #000000; stroke-width: 0.8; stroke-linejoin: miter; stroke-linecap: square"/>
   </g>
   <g id="text_18">
    <!-- TIME SERIES -->
    <g transform="translate(405.350625 37.2) scale(0.12 -0.12)">
     <defs>
      <path id="DejaVuSans-52" d="M 2841 2188 
Q 3044 2119 3236 1894 
Q 3428 1669 3622 1275 
L 4263 0 
L 3584 0 
L 2988 1197 
Q 2756 1666 2539 1819 
Q 2322 1972 1947 1972 
L 1259 1972 
L 1259 0 
L 628 0 
L 628 4666 
L 2053 4666 
Q 2853 4666 3247 4331 
Q 3641 3997 3641 3322 
Q 3641 2881 3436 2590 
Q 3231 2300 2841 2188 
z
M 1259 4147 
L 1259 2491 
L 2053 2491 
Q 2509 2491 2742 2702 
Q 2975 2913 2975 3322 
Q 2975 3731 2742 3939 
Q 2509 4147 2053 4147 
L 1259 4147 
z
" transform="scale(0.015625)"/>
     </defs>
     <use xlink:href="#DejaVuSans-54"/>
     <use xlink:href="#DejaVuSans-49" x="61.083984"/>
     <use xlink:href="#DejaVuSans-4d" x="90.576172"/>
     <use xlink:href="#DejaVuSans-45" x="176.855469"/>
     <use xlink:href="#DejaVuSans-20" x="240.039062"/>
     <use xlink:href="#DejaVuSans-53" x="271.826172"/>
     <use xlink:href="#DejaVuSans-45" x="335.302734"/>
     <use xlink:href="#DejaVuSans-52" x="398.486328"/>
     <use xlink:href="#DejaVuSans-49" x="467.96875"/>
     <use xlink:href="#DejaVuSans-45" x="497.460938"/>
     <use xlink:href="#DejaVuSans-53" x="560.644531"/>
    </g>
   </g>
  </g>
 </g>
 <defs>
  <clipPath id="p9684447418">
   <rect x="108" y="43.2" width="669.6" height="277.2"/>
  </clipPath>
 </defs>
</svg>
