<?xml version="1.0" encoding="utf-8" standalone="no"?>
<!DOCTYPE svg PUBLIC "-//W3C//DTD SVG 1.1//EN"
  "http://www.w3.org/Graphics/SVG/1.1/DTD/svg11.dtd">
<svg xmlns:xlink="http://www.w3.org/1999/xlink" width="864pt" height="360pt" viewBox="0 0 864 360" xmlns="http://www.w3.org/2000/svg" version="1.1">
 <metadata>
  <rdf:RDF xmlns:dc="http://purl.org/dc/elements/1.1/" xmlns:cc="http://creativecommons.org/ns#" xmlns:rdf="http://www.w3.org/1999/02/22-rdf-syntax-ns#">
   <cc:Work>
    <dc:type rdf:resource="http://purl.org/dc/dcmitype/StillImage"/>
    <dc:date>2023-11-27T20:36:19.979036</dc:date>
    <dc:format>image/svg+xml</dc:format>
    <dc:creator>
     <cc:Agent>
      <dc:title>Matplotlib v3.7.4, https://matplotlib.org/</dc:title>
     </cc:Agent>
    </dc:creator>
   </cc:Work>
  </rdf:RDF>
 </metadata>
 <defs>
  <style type="text/css">*{stroke-linejoin: round; stroke-linecap: butt}</style>
 </defs>
 <g id="figure_1">
  <g id="patch_1">
   <path d="M 0 360 
L 864 360 
L 864 0 
L 0 0 
z
" style="fill: #ffffff"/>
  </g>
  <g id="axes_1">
   <g id="patch_2">
    <path d="M 108 320.4 
L 777.6 320.4 
L 777.6 43.2 
L 108 43.2 
z
" style="fill: #ffffff"/>
   </g>
   <g id="matplotlib.axis_1">
    <g id="xtick_1">
     <g id="line2d_1">
      <defs>
       <path id="me2594063db" d="M 0 0 
L 0 3.5 
" style="stroke: #000000; stroke-width: 0.8"/>
      </defs>
      <g>
       <use xlink:href="#me2594063db" x="138.436364" y="320.4" style="stroke: #000000; stroke-width: 0.8"/>
      </g>
     </g>
     <g id="text_1">
      <!-- 2022-01-01 -->
      <g transform="translate(103.566989 336.518125) scale(0.12 -0.12)">
       <defs>
        <path id="DejaVuSans-32" d="M 1228 531 
L 3431 531 
L 3431 0 
L 469 0 
L 469 531 
Q 828 903 1448 1529 
Q 2069 2156 2228 2338 
Q 2531 2678 2651 2914 
Q 2772 3150 2772 3378 
Q 2772 3750 2511 3984 
Q 2250 4219 1831 4219 
Q 1534 4219 1204 4116 
Q 875 4013 500 3803 
L 500 4441 
Q 881 4594 1212 4672 
Q 1544 4750 1819 4750 
Q 2544 4750 2975 4387 
Q 3406 4025 3406 3419 
Q 3406 3131 3298 2873 
Q 3191 2616 2906 2266 
Q 2828 2175 2409 1742 
Q 1991 1309 1228 531 
z
" transform="scale(0.015625)"/>
        <path id="DejaVuSans-30" d="M 2034 4250 
Q 1547 4250 1301 3770 
Q 1056 3291 1056 2328 
Q 1056 1369 1301 889 
Q 1547 409 2034 409 
Q 2525 409 2770 889 
Q 3016 1369 3016 2328 
Q 3016 3291 2770 3770 
Q 2525 4250 2034 4250 
z
M 2034 4750 
Q 2819 4750 3233 4129 
Q 3647 3509 3647 2328 
Q 3647 1150 3233 529 
Q 2819 -91 2034 -91 
Q 1250 -91 836 529 
Q 422 1150 422 2328 
Q 422 3509 836 4129 
Q 1250 4750 2034 4750 
z
" transform="scale(0.015625)"/>
        <path id="DejaVuSans-2d" d="M 313 2009 
L 1997 2009 
L 1997 1497 
L 313 1497 
L 313 2009 
z
" transform="scale(0.015625)"/>
        <path id="DejaVuSans-31" d="M 794 531 
L 1825 531 
L 1825 4091 
L 703 3866 
L 703 4441 
L 1819 4666 
L 2450 4666 
L 2450 531 
L 3481 531 
L 3481 0 
L 794 0 
L 794 531 
z
" transform="scale(0.015625)"/>
       </defs>
       <use xlink:href="#DejaVuSans-32"/>
       <use xlink:href="#DejaVuSans-30" x="63.623047"/>
       <use xlink:href="#DejaVuSans-32" x="127.246094"/>
       <use xlink:href="#DejaVuSans-32" x="190.869141"/>
       <use xlink:href="#DejaVuSans-2d" x="254.492188"/>
       <use xlink:href="#DejaVuSans-30" x="290.576172"/>
       <use xlink:href="#DejaVuSans-31" x="354.199219"/>
       <use xlink:href="#DejaVuSans-2d" x="417.822266"/>
       <use xlink:href="#DejaVuSans-30" x="453.90625"/>
       <use xlink:href="#DejaVuSans-31" x="517.529297"/>
      </g>
     </g>
    </g>
    <g id="xtick_2">
     <g id="line2d_2">
      <g>
       <use xlink:href="#me2594063db" x="214.626479" y="320.4" style="stroke: #000000; stroke-width: 0.8"/>
      </g>
     </g>
     <g id="text_2">
      <!-- 2022-01-03 -->
      <g transform="translate(179.757104 336.518125) scale(0.12 -0.12)">
       <defs>
        <path id="DejaVuSans-33" d="M 2597 2516 
Q 3050 2419 3304 2112 
Q 3559 1806 3559 1356 
Q 3559 666 3084 287 
Q 2609 -91 1734 -91 
Q 1441 -91 1130 -33 
Q 819 25 488 141 
L 488 750 
Q 750 597 1062 519 
Q 1375 441 1716 441 
Q 2309 441 2620 675 
Q 2931 909 2931 1356 
Q 2931 1769 2642 2001 
Q 2353 2234 1838 2234 
L 1294 2234 
L 1294 2753 
L 1863 2753 
Q 2328 2753 2575 2939 
Q 2822 3125 2822 3475 
Q 2822 3834 2567 4026 
Q 2313 4219 1838 4219 
Q 1578 4219 1281 4162 
Q 984 4106 628 3988 
L 628 4550 
Q 988 4650 1302 4700 
Q 1616 4750 1894 4750 
Q 2613 4750 3031 4423 
Q 3450 4097 3450 3541 
Q 3450 3153 3228 2886 
Q 3006 2619 2597 2516 
z
" transform="scale(0.015625)"/>
       </defs>
       <use xlink:href="#DejaVuSans-32"/>
       <use xlink:href="#DejaVuSans-30" x="63.623047"/>
       <use xlink:href="#DejaVuSans-32" x="127.246094"/>
       <use xlink:href="#DejaVuSans-32" x="190.869141"/>
       <use xlink:href="#DejaVuSans-2d" x="254.492188"/>
       <use xlink:href="#DejaVuSans-30" x="290.576172"/>
       <use xlink:href="#DejaVuSans-31" x="354.199219"/>
       <use xlink:href="#DejaVuSans-2d" x="417.822266"/>
       <use xlink:href="#DejaVuSans-30" x="453.90625"/>
       <use xlink:href="#DejaVuSans-33" x="517.529297"/>
      </g>
     </g>
    </g>
    <g id="xtick_3">
     <g id="line2d_3">
      <g>
       <use xlink:href="#me2594063db" x="290.816594" y="320.4" style="stroke: #000000; stroke-width: 0.8"/>
      </g>
     </g>
     <g id="text_3">
      <!-- 2022-01-05 -->
      <g transform="translate(255.947219 336.518125) scale(0.12 -0.12)">
       <defs>
        <path id="DejaVuSans-35" d="M 691 4666 
L 3169 4666 
L 3169 4134 
L 1269 4134 
L 1269 2991 
Q 1406 3038 1543 3061 
Q 1681 3084 1819 3084 
Q 2600 3084 3056 2656 
Q 3513 2228 3513 1497 
Q 3513 744 3044 326 
Q 2575 -91 1722 -91 
Q 1428 -91 1123 -41 
Q 819 9 494 109 
L 494 744 
Q 775 591 1075 516 
Q 1375 441 1709 441 
Q 2250 441 2565 725 
Q 2881 1009 2881 1497 
Q 2881 1984 2565 2268 
Q 2250 2553 1709 2553 
Q 1456 2553 1204 2497 
Q 953 2441 691 2322 
L 691 4666 
z
" transform="scale(0.015625)"/>
       </defs>
       <use xlink:href="#DejaVuSans-32"/>
       <use xlink:href="#DejaVuSans-30" x="63.623047"/>
       <use xlink:href="#DejaVuSans-32" x="127.246094"/>
       <use xlink:href="#DejaVuSans-32" x="190.869141"/>
       <use xlink:href="#DejaVuSans-2d" x="254.492188"/>
       <use xlink:href="#DejaVuSans-30" x="290.576172"/>
       <use xlink:href="#DejaVuSans-31" x="354.199219"/>
       <use xlink:href="#DejaVuSans-2d" x="417.822266"/>
       <use xlink:href="#DejaVuSans-30" x="453.90625"/>
       <use xlink:href="#DejaVuSans-35" x="517.529297"/>
      </g>
     </g>
    </g>
    <g id="xtick_4">
     <g id="line2d_4">
      <g>
       <use xlink:href="#me2594063db" x="367.006709" y="320.4" style="stroke: #000000; stroke-width: 0.8"/>
      </g>
     </g>
     <g id="text_4">
      <!-- 2022-01-07 -->
      <g transform="translate(332.137334 336.518125) scale(0.12 -0.12)">
       <defs>
        <path id="DejaVuSans-37" d="M 525 4666 
L 3525 4666 
L 3525 4397 
L 1831 0 
L 1172 0 
L 2766 4134 
L 525 4134 
L 525 4666 
z
" transform="scale(0.015625)"/>
       </defs>
       <use xlink:href="#DejaVuSans-32"/>
       <use xlink:href="#DejaVuSans-30" x="63.623047"/>
       <use xlink:href="#DejaVuSans-32" x="127.246094"/>
       <use xlink:href="#DejaVuSans-32" x="190.869141"/>
       <use xlink:href="#DejaVuSans-2d" x="254.492188"/>
       <use xlink:href="#DejaVuSans-30" x="290.576172"/>
       <use xlink:href="#DejaVuSans-31" x="354.199219"/>
       <use xlink:href="#DejaVuSans-2d" x="417.822266"/>
       <use xlink:href="#DejaVuSans-30" x="453.90625"/>
       <use xlink:href="#DejaVuSans-37" x="517.529297"/>
      </g>
     </g>
    </g>
    <g id="xtick_5">
     <g id="line2d_5">
      <g>
       <use xlink:href="#me2594063db" x="443.196824" y="320.4" style="stroke: #000000; stroke-width: 0.8"/>
      </g>
     </g>
     <g id="text_5">
      <!-- 2022-01-09 -->
      <g transform="translate(408.327449 336.518125) scale(0.12 -0.12)">
       <defs>
        <path id="DejaVuSans-39" d="M 703 97 
L 703 672 
Q 941 559 1184 500 
Q 1428 441 1663 441 
Q 2288 441 2617 861 
Q 2947 1281 2994 2138 
Q 2813 1869 2534 1725 
Q 2256 1581 1919 1581 
Q 1219 1581 811 2004 
Q 403 2428 403 3163 
Q 403 3881 828 4315 
Q 1253 4750 1959 4750 
Q 2769 4750 3195 4129 
Q 3622 3509 3622 2328 
Q 3622 1225 3098 567 
Q 2575 -91 1691 -91 
Q 1453 -91 1209 -44 
Q 966 3 703 97 
z
M 1959 2075 
Q 2384 2075 2632 2365 
Q 2881 2656 2881 3163 
Q 2881 3666 2632 3958 
Q 2384 4250 1959 4250 
Q 1534 4250 1286 3958 
Q 1038 3666 1038 3163 
Q 1038 2656 1286 2365 
Q 1534 2075 1959 2075 
z
" transform="scale(0.015625)"/>
       </defs>
       <use xlink:href="#DejaVuSans-32"/>
       <use xlink:href="#DejaVuSans-30" x="63.623047"/>
       <use xlink:href="#DejaVuSans-32" x="127.246094"/>
       <use xlink:href="#DejaVuSans-32" x="190.869141"/>
       <use xlink:href="#DejaVuSans-2d" x="254.492188"/>
       <use xlink:href="#DejaVuSans-30" x="290.576172"/>
       <use xlink:href="#DejaVuSans-31" x="354.199219"/>
       <use xlink:href="#DejaVuSans-2d" x="417.822266"/>
       <use xlink:href="#DejaVuSans-30" x="453.90625"/>
       <use xlink:href="#DejaVuSans-39" x="517.529297"/>
      </g>
     </g>
    </g>
    <g id="xtick_6">
     <g id="line2d_6">
      <g>
       <use xlink:href="#me2594063db" x="519.386938" y="320.4" style="stroke: #000000; stroke-width: 0.8"/>
      </g>
     </g>
     <g id="text_6">
      <!-- 2022-01-11 -->
      <g transform="translate(484.517563 336.518125) scale(0.12 -0.12)">
       <use xlink:href="#DejaVuSans-32"/>
       <use xlink:href="#DejaVuSans-30" x="63.623047"/>
       <use xlink:href="#DejaVuSans-32" x="127.246094"/>
       <use xlink:href="#DejaVuSans-32" x="190.869141"/>
       <use xlink:href="#DejaVuSans-2d" x="254.492188"/>
       <use xlink:href="#DejaVuSans-30" x="290.576172"/>
       <use xlink:href="#DejaVuSans-31" x="354.199219"/>
       <use xlink:href="#DejaVuSans-2d" x="417.822266"/>
       <use xlink:href="#DejaVuSans-31" x="453.90625"/>
       <use xlink:href="#DejaVuSans-31" x="517.529297"/>
      </g>
     </g>
    </g>
    <g id="xtick_7">
     <g id="line2d_7">
      <g>
       <use xlink:href="#me2594063db" x="595.577053" y="320.4" style="stroke: #000000; stroke-width: 0.8"/>
      </g>
     </g>
     <g id="text_7">
      <!-- 2022-01-13 -->
      <g transform="translate(560.707678 336.518125) scale(0.12 -0.12)">
       <use xlink:href="#DejaVuSans-32"/>
       <use xlink:href="#DejaVuSans-30" x="63.623047"/>
       <use xlink:href="#DejaVuSans-32" x="127.246094"/>
       <use xlink:href="#DejaVuSans-32" x="190.869141"/>
       <use xlink:href="#DejaVuSans-2d" x="254.492188"/>
       <use xlink:href="#DejaVuSans-30" x="290.576172"/>
       <use xlink:href="#DejaVuSans-31" x="354.199219"/>
       <use xlink:href="#DejaVuSans-2d" x="417.822266"/>
       <use xlink:href="#DejaVuSans-31" x="453.90625"/>
       <use xlink:href="#DejaVuSans-33" x="517.529297"/>
      </g>
     </g>
    </g>
    <g id="xtick_8">
     <g id="line2d_8">
      <g>
       <use xlink:href="#me2594063db" x="671.767168" y="320.4" style="stroke: #000000; stroke-width: 0.8"/>
      </g>
     </g>
     <g id="text_8">
      <!-- 2022-01-15 -->
      <g transform="translate(636.897793 336.518125) scale(0.12 -0.12)">
       <use xlink:href="#DejaVuSans-32"/>
       <use xlink:href="#DejaVuSans-30" x="63.623047"/>
       <use xlink:href="#DejaVuSans-32" x="127.246094"/>
       <use xlink:href="#DejaVuSans-32" x="190.869141"/>
       <use xlink:href="#DejaVuSans-2d" x="254.492188"/>
       <use xlink:href="#DejaVuSans-30" x="290.576172"/>
       <use xlink:href="#DejaVuSans-31" x="354.199219"/>
       <use xlink:href="#DejaVuSans-2d" x="417.822266"/>
       <use xlink:href="#DejaVuSans-31" x="453.90625"/>
       <use xlink:href="#DejaVuSans-35" x="517.529297"/>
      </g>
     </g>
    </g>
    <g id="xtick_9">
     <g id="line2d_9">
      <g>
       <use xlink:href="#me2594063db" x="747.957283" y="320.4" style="stroke: #000000; stroke-width: 0.8"/>
      </g>
     </g>
     <g id="text_9">
      <!-- 2022-01-17 -->
      <g transform="translate(713.087908 336.518125) scale(0.12 -0.12)">
       <use xlink:href="#DejaVuSans-32"/>
       <use xlink:href="#DejaVuSans-30" x="63.623047"/>
       <use xlink:href="#DejaVuSans-32" x="127.246094"/>
       <use xlink:href="#DejaVuSans-32" x="190.869141"/>
       <use xlink:href="#DejaVuSans-2d" x="254.492188"/>
       <use xlink:href="#DejaVuSans-30" x="290.576172"/>
       <use xlink:href="#DejaVuSans-31" x="354.199219"/>
       <use xlink:href="#DejaVuSans-2d" x="417.822266"/>
       <use xlink:href="#DejaVuSans-31" x="453.90625"/>
       <use xlink:href="#DejaVuSans-37" x="517.529297"/>
      </g>
     </g>
    </g>
    <g id="text_10">
     <!-- TIME (DAYS) -->
     <g transform="translate(393.97375 355.17125) scale(0.16 -0.16)">
      <defs>
       <path id="DejaVuSans-54" d="M -19 4666 
L 3928 4666 
L 3928 4134 
L 2272 4134 
L 2272 0 
L 1638 0 
L 1638 4134 
L -19 4134 
L -19 4666 
z
" transform="scale(0.015625)"/>
       <path id="DejaVuSans-49" d="M 628 4666 
L 1259 4666 
L 1259 0 
L 628 0 
L 628 4666 
z
" transform="scale(0.015625)"/>
       <path id="DejaVuSans-4d" d="M 628 4666 
L 1569 4666 
L 2759 1491 
L 3956 4666 
L 4897 4666 
L 4897 0 
L 4281 0 
L 4281 4097 
L 3078 897 
L 2444 897 
L 1241 4097 
L 1241 0 
L 628 0 
L 628 4666 
z
" transform="scale(0.015625)"/>
       <path id="DejaVuSans-45" d="M 628 4666 
L 3578 4666 
L 3578 4134 
L 1259 4134 
L 1259 2753 
L 3481 2753 
L 3481 2222 
L 1259 2222 
L 1259 531 
L 3634 531 
L 3634 0 
L 628 0 
L 628 4666 
z
" transform="scale(0.015625)"/>
       <path id="DejaVuSans-20" transform="scale(0.015625)"/>
       <path id="DejaVuSans-28" d="M 1984 4856 
Q 1566 4138 1362 3434 
Q 1159 2731 1159 2009 
Q 1159 1288 1364 580 
Q 1569 -128 1984 -844 
L 1484 -844 
Q 1016 -109 783 600 
Q 550 1309 550 2009 
Q 550 2706 781 3412 
Q 1013 4119 1484 4856 
L 1984 4856 
z
" transform="scale(0.015625)"/>
       <path id="DejaVuSans-44" d="M 1259 4147 
L 1259 519 
L 2022 519 
Q 2988 519 3436 956 
Q 3884 1394 3884 2338 
Q 3884 3275 3436 3711 
Q 2988 4147 2022 4147 
L 1259 4147 
z
M 628 4666 
L 1925 4666 
Q 3281 4666 3915 4102 
Q 4550 3538 4550 2338 
Q 4550 1131 3912 565 
Q 3275 0 1925 0 
L 628 0 
L 628 4666 
z
" transform="scale(0.015625)"/>
       <path id="DejaVuSans-41" d="M 2188 4044 
L 1331 1722 
L 3047 1722 
L 2188 4044 
z
M 1831 4666 
L 2547 4666 
L 4325 0 
L 3669 0 
L 3244 1197 
L 1141 1197 
L 716 0 
L 50 0 
L 1831 4666 
z
" transform="scale(0.015625)"/>
       <path id="DejaVuSans-59" d="M -13 4666 
L 666 4666 
L 1959 2747 
L 3244 4666 
L 3922 4666 
L 2272 2222 
L 2272 0 
L 1638 0 
L 1638 2222 
L -13 4666 
z
" transform="scale(0.015625)"/>
       <path id="DejaVuSans-53" d="M 3425 4513 
L 3425 3897 
Q 3066 4069 2747 4153 
Q 2428 4238 2131 4238 
Q 1616 4238 1336 4038 
Q 1056 3838 1056 3469 
Q 1056 3159 1242 3001 
Q 1428 2844 1947 2747 
L 2328 2669 
Q 3034 2534 3370 2195 
Q 3706 1856 3706 1288 
Q 3706 609 3251 259 
Q 2797 -91 1919 -91 
Q 1588 -91 1214 -16 
Q 841 59 441 206 
L 441 856 
Q 825 641 1194 531 
Q 1563 422 1919 422 
Q 2459 422 2753 634 
Q 3047 847 3047 1241 
Q 3047 1584 2836 1778 
Q 2625 1972 2144 2069 
L 1759 2144 
Q 1053 2284 737 2584 
Q 422 2884 422 3419 
Q 422 4038 858 4394 
Q 1294 4750 2059 4750 
Q 2388 4750 2728 4690 
Q 3069 4631 3425 4513 
z
" transform="scale(0.015625)"/>
       <path id="DejaVuSans-29" d="M 513 4856 
L 1013 4856 
Q 1481 4119 1714 3412 
Q 1947 2706 1947 2009 
Q 1947 1309 1714 600 
Q 1481 -109 1013 -844 
L 513 -844 
Q 928 -128 1133 580 
Q 1338 1288 1338 2009 
Q 1338 2731 1133 3434 
Q 928 4138 513 4856 
z
" transform="scale(0.015625)"/>
      </defs>
      <use xlink:href="#DejaVuSans-54"/>
      <use xlink:href="#DejaVuSans-49" x="61.083984"/>
      <use xlink:href="#DejaVuSans-4d" x="90.576172"/>
      <use xlink:href="#DejaVuSans-45" x="176.855469"/>
      <use xlink:href="#DejaVuSans-20" x="240.039062"/>
      <use xlink:href="#DejaVuSans-28" x="271.826172"/>
      <use xlink:href="#DejaVuSans-44" x="310.839844"/>
      <use xlink:href="#DejaVuSans-41" x="386.091797"/>
      <use xlink:href="#DejaVuSans-59" x="446.75"/>
      <use xlink:href="#DejaVuSans-53" x="507.833984"/>
      <use xlink:href="#DejaVuSans-29" x="571.310547"/>
     </g>
    </g>
   </g>
   <g id="matplotlib.axis_2">
    <g id="ytick_1">
     <g id="line2d_10">
      <defs>
       <path id="m2a10d1f55a" d="M 0 0 
L -3.5 0 
" style="stroke: #000000; stroke-width: 0.8"/>
      </defs>
      <g>
       <use xlink:href="#m2a10d1f55a" x="108" y="307.8" style="stroke: #000000; stroke-width: 0.8"/>
      </g>
     </g>
     <g id="text_11">
      <!-- 0 -->
      <g transform="translate(93.365 312.359062) scale(0.12 -0.12)">
       <use xlink:href="#DejaVuSans-30"/>
      </g>
     </g>
    </g>
    <g id="ytick_2">
     <g id="line2d_11">
      <g>
       <use xlink:href="#m2a10d1f55a" x="108" y="275.492308" style="stroke: #000000; stroke-width: 0.8"/>
      </g>
     </g>
     <g id="text_12">
      <!-- 10 -->
      <g transform="translate(85.73 280.05137) scale(0.12 -0.12)">
       <use xlink:href="#DejaVuSans-31"/>
       <use xlink:href="#DejaVuSans-30" x="63.623047"/>
      </g>
     </g>
    </g>
    <g id="ytick_3">
     <g id="line2d_12">
      <g>
       <use xlink:href="#m2a10d1f55a" x="108" y="243.184615" style="stroke: #000000; stroke-width: 0.8"/>
      </g>
     </g>
     <g id="text_13">
      <!-- 20 -->
      <g transform="translate(85.73 247.743678) scale(0.12 -0.12)">
       <use xlink:href="#DejaVuSans-32"/>
       <use xlink:href="#DejaVuSans-30" x="63.623047"/>
      </g>
     </g>
    </g>
    <g id="ytick_4">
     <g id="line2d_13">
      <g>
       <use xlink:href="#m2a10d1f55a" x="108" y="210.876923" style="stroke: #000000; stroke-width: 0.8"/>
      </g>
     </g>
     <g id="text_14">
      <!-- 30 -->
      <g transform="translate(85.73 215.435986) scale(0.12 -0.12)">
       <use xlink:href="#DejaVuSans-33"/>
       <use xlink:href="#DejaVuSans-30" x="63.623047"/>
      </g>
     </g>
    </g>
    <g id="ytick_5">
     <g id="line2d_14">
      <g>
       <use xlink:href="#m2a10d1f55a" x="108" y="178.569231" style="stroke: #000000; stroke-width: 0.8"/>
      </g>
     </g>
     <g id="text_15">
      <!-- 40 -->
      <g transform="translate(85.73 183.128293) scale(0.12 -0.12)">
       <defs>
        <path id="DejaVuSans-34" d="M 2419 4116 
L 825 1625 
L 2419 1625 
L 2419 4116 
z
M 2253 4666 
L 3047 4666 
L 3047 1625 
L 3713 1625 
L 3713 1100 
L 3047 1100 
L 3047 0 
L 2419 0 
L 2419 1100 
L 313 1100 
L 313 1709 
L 2253 4666 
z
" transform="scale(0.015625)"/>
       </defs>
       <use xlink:href="#DejaVuSans-34"/>
       <use xlink:href="#DejaVuSans-30" x="63.623047"/>
      </g>
     </g>
    </g>
    <g id="ytick_6">
     <g id="line2d_15">
      <g>
       <use xlink:href="#m2a10d1f55a" x="108" y="146.261538" style="stroke: #000000; stroke-width: 0.8"/>
      </g>
     </g>
     <g id="text_16">
      <!-- 50 -->
      <g transform="translate(85.73 150.820601) scale(0.12 -0.12)">
       <use xlink:href="#DejaVuSans-35"/>
       <use xlink:href="#DejaVuSans-30" x="63.623047"/>
      </g>
     </g>
    </g>
    <g id="ytick_7">
     <g id="line2d_16">
      <g>
       <use xlink:href="#m2a10d1f55a" x="108" y="113.953846" style="stroke: #000000; stroke-width: 0.8"/>
      </g>
     </g>
     <g id="text_17">
      <!-- 60 -->
      <g transform="translate(85.73 118.512909) scale(0.12 -0.12)">
       <defs>
        <path id="DejaVuSans-36" d="M 2113 2584 
Q 1688 2584 1439 2293 
Q 1191 2003 1191 1497 
Q 1191 994 1439 701 
Q 1688 409 2113 409 
Q 2538 409 2786 701 
Q 3034 994 3034 1497 
Q 3034 2003 2786 2293 
Q 2538 2584 2113 2584 
z
M 3366 4563 
L 3366 3988 
Q 3128 4100 2886 4159 
Q 2644 4219 2406 4219 
Q 1781 4219 1451 3797 
Q 1122 3375 1075 2522 
Q 1259 2794 1537 2939 
Q 1816 3084 2150 3084 
Q 2853 3084 3261 2657 
Q 3669 2231 3669 1497 
Q 3669 778 3244 343 
Q 2819 -91 2113 -91 
Q 1303 -91 875 529 
Q 447 1150 447 2328 
Q 447 3434 972 4092 
Q 1497 4750 2381 4750 
Q 2619 4750 2861 4703 
Q 3103 4656 3366 4563 
z
" transform="scale(0.015625)"/>
       </defs>
       <use xlink:href="#DejaVuSans-36"/>
       <use xlink:href="#DejaVuSans-30" x="63.623047"/>
      </g>
     </g>
    </g>
    <g id="ytick_8">
     <g id="line2d_17">
      <g>
       <use xlink:href="#m2a10d1f55a" x="108" y="81.646154" style="stroke: #000000; stroke-width: 0.8"/>
      </g>
     </g>
     <g id="text_18">
      <!-- 70 -->
      <g transform="translate(85.73 86.205216) scale(0.12 -0.12)">
       <use xlink:href="#DejaVuSans-37"/>
       <use xlink:href="#DejaVuSans-30" x="63.623047"/>
      </g>
     </g>
    </g>
    <g id="ytick_9">
     <g id="line2d_18">
      <g>
       <use xlink:href="#m2a10d1f55a" x="108" y="49.338462" style="stroke: #000000; stroke-width: 0.8"/>
      </g>
     </g>
     <g id="text_19">
      <!-- 80 -->
      <g transform="translate(85.73 53.897524) scale(0.12 -0.12)">
       <defs>
        <path id="DejaVuSans-38" d="M 2034 2216 
Q 1584 2216 1326 1975 
Q 1069 1734 1069 1313 
Q 1069 891 1326 650 
Q 1584 409 2034 409 
Q 2484 409 2743 651 
Q 3003 894 3003 1313 
Q 3003 1734 2745 1975 
Q 2488 2216 2034 2216 
z
M 1403 2484 
Q 997 2584 770 2862 
Q 544 3141 544 3541 
Q 544 4100 942 4425 
Q 1341 4750 2034 4750 
Q 2731 4750 3128 4425 
Q 3525 4100 3525 3541 
Q 3525 3141 3298 2862 
Q 3072 2584 2669 2484 
Q 3125 2378 3379 2068 
Q 3634 1759 3634 1313 
Q 3634 634 3220 271 
Q 2806 -91 2034 -91 
Q 1263 -91 848 271 
Q 434 634 434 1313 
Q 434 1759 690 2068 
Q 947 2378 1403 2484 
z
M 1172 3481 
Q 1172 3119 1398 2916 
Q 1625 2713 2034 2713 
Q 2441 2713 2670 2916 
Q 2900 3119 2900 3481 
Q 2900 3844 2670 4047 
Q 2441 4250 2034 4250 
Q 1625 4250 1398 4047 
Q 1172 3844 1172 3481 
z
" transform="scale(0.015625)"/>
       </defs>
       <use xlink:href="#DejaVuSans-38"/>
       <use xlink:href="#DejaVuSans-30" x="63.623047"/>
      </g>
     </g>
    </g>
    <g id="text_20">
     <!-- SIMULATED -->
     <g transform="translate(60.486 227.5875) rotate(-90) scale(0.16 -0.16)">
      <defs>
       <path id="DejaVuSans-55" d="M 556 4666 
L 1191 4666 
L 1191 1831 
Q 1191 1081 1462 751 
Q 1734 422 2344 422 
Q 2950 422 3222 751 
Q 3494 1081 3494 1831 
L 3494 4666 
L 4128 4666 
L 4128 1753 
Q 4128 841 3676 375 
Q 3225 -91 2344 -91 
Q 1459 -91 1007 375 
Q 556 841 556 1753 
L 556 4666 
z
" transform="scale(0.015625)"/>
       <path id="DejaVuSans-4c" d="M 628 4666 
L 1259 4666 
L 1259 531 
L 3531 531 
L 3531 0 
L 628 0 
L 628 4666 
z
" transform="scale(0.015625)"/>
      </defs>
      <use xlink:href="#DejaVuSans-53"/>
      <use xlink:href="#DejaVuSans-49" x="63.476562"/>
      <use xlink:href="#DejaVuSans-4d" x="92.96875"/>
      <use xlink:href="#DejaVuSans-55" x="179.248047"/>
      <use xlink:href="#DejaVuSans-4c" x="252.441406"/>
      <use xlink:href="#DejaVuSans-41" x="310.404297"/>
      <use xlink:href="#DejaVuSans-54" x="371.0625"/>
      <use xlink:href="#DejaVuSans-45" x="432.146484"/>
      <use xlink:href="#DejaVuSans-44" x="495.330078"/>
     </g>
     <!-- AMPLITUDE -->
     <g transform="translate(78.4025 227.7725) rotate(-90) scale(0.16 -0.16)">
      <defs>
       <path id="DejaVuSans-50" d="M 1259 4147 
L 1259 2394 
L 2053 2394 
Q 2494 2394 2734 2622 
Q 2975 2850 2975 3272 
Q 2975 3691 2734 3919 
Q 2494 4147 2053 4147 
L 1259 4147 
z
M 628 4666 
L 2053 4666 
Q 2838 4666 3239 4311 
Q 3641 3956 3641 3272 
Q 3641 2581 3239 2228 
Q 2838 1875 2053 1875 
L 1259 1875 
L 1259 0 
L 628 0 
L 628 4666 
z
" transform="scale(0.015625)"/>
      </defs>
      <use xlink:href="#DejaVuSans-41"/>
      <use xlink:href="#DejaVuSans-4d" x="68.408203"/>
      <use xlink:href="#DejaVuSans-50" x="154.6875"/>
      <use xlink:href="#DejaVuSans-4c" x="214.990234"/>
      <use xlink:href="#DejaVuSans-49" x="270.703125"/>
      <use xlink:href="#DejaVuSans-54" x="300.195312"/>
      <use xlink:href="#DejaVuSans-55" x="361.279297"/>
      <use xlink:href="#DejaVuSans-44" x="434.472656"/>
      <use xlink:href="#DejaVuSans-45" x="511.474609"/>
     </g>
    </g>
   </g>
   <g id="line2d_19">
    <path d="M 138.436364 304.569231 
L 139.230011 55.8 
L 140.023658 130.107692 
L 140.817305 181.8 
L 141.610952 269.030769 
L 142.404599 294.876923 
L 143.198246 210.876923 
L 143.991893 230.261538 
L 144.78554 307.8 
L 145.579187 269.030769 
L 146.372834 307.8 
L 147.166481 304.569231 
L 147.960128 307.8 
L 149.547422 307.8 
L 150.341069 301.338462 
L 151.134716 307.8 
L 151.928363 262.569231 
L 152.72201 249.646154 
L 153.515657 249.646154 
L 154.309304 168.876923 
L 155.102951 220.569231 
L 155.896598 162.415385 
L 156.690245 188.261538 
L 157.483892 155.953846 
L 158.277539 307.8 
L 163.039422 307.8 
L 163.833069 288.415385 
L 164.626716 288.415385 
L 165.420363 307.8 
L 166.21401 304.569231 
L 167.007657 256.107692 
L 167.801304 301.338462 
L 168.594951 275.492308 
L 170.182245 307.8 
L 177.325068 307.8 
L 178.912362 139.8 
L 179.706009 227.030769 
L 180.499656 168.876923 
L 181.293303 201.184615 
L 182.08695 278.723077 
L 182.880597 220.569231 
L 183.674244 275.492308 
L 184.467891 291.646154 
L 185.261538 278.723077 
L 186.055185 304.569231 
L 186.848833 307.8 
L 187.64248 272.261538 
L 188.436127 262.569231 
L 189.229774 294.876923 
L 190.023421 285.184615 
L 190.817068 288.415385 
L 191.610715 285.184615 
L 192.404362 307.8 
L 193.198009 275.492308 
L 193.991656 220.569231 
L 194.785303 236.723077 
L 195.57895 207.646154 
L 196.372597 220.569231 
L 197.166244 214.107692 
L 197.959891 301.338462 
L 198.753538 307.8 
L 199.547185 294.876923 
L 200.340832 307.8 
L 201.134479 307.8 
L 201.928126 243.184615 
L 202.721773 307.8 
L 205.102714 307.8 
L 205.896361 288.415385 
L 206.690008 307.8 
L 207.483655 294.876923 
L 208.277302 278.723077 
L 209.070949 236.723077 
L 209.864596 265.8 
L 210.658243 285.184615 
L 211.45189 275.492308 
L 212.245538 288.415385 
L 213.039185 307.8 
L 215.420126 307.8 
L 216.213773 288.415385 
L 217.00742 298.107692 
L 217.801067 149.492308 
L 218.594714 126.876923 
L 219.388361 217.338462 
L 220.182008 275.492308 
L 220.975655 227.030769 
L 221.769302 239.953846 
L 222.562949 259.338462 
L 223.356596 220.569231 
L 224.150243 249.646154 
L 224.94389 301.338462 
L 225.737537 278.723077 
L 226.531184 304.569231 
L 227.324831 294.876923 
L 228.118478 307.8 
L 229.705772 307.8 
L 231.293066 239.953846 
L 232.086713 291.646154 
L 232.88036 298.107692 
L 233.674007 307.8 
L 234.467654 207.646154 
L 235.261301 172.107692 
L 236.054948 88.107692 
L 236.848595 152.723077 
L 237.642243 307.8 
L 238.43589 307.8 
L 239.229537 281.953846 
L 240.023184 301.338462 
L 240.816831 272.261538 
L 241.610478 307.8 
L 242.404125 307.8 
L 243.197772 298.107692 
L 243.991419 281.953846 
L 244.785066 298.107692 
L 245.578713 307.8 
L 246.37236 304.569231 
L 247.166007 307.8 
L 247.959654 298.107692 
L 248.753301 307.8 
L 250.340595 307.8 
L 251.134242 291.646154 
L 251.927889 307.8 
L 253.515183 307.8 
L 254.30883 275.492308 
L 255.102477 294.876923 
L 255.896124 269.030769 
L 256.689771 307.8 
L 257.483418 133.338462 
L 259.864359 233.492308 
L 260.658006 236.723077 
L 261.451653 230.261538 
L 262.2453 281.953846 
L 263.038947 204.415385 
L 263.832595 294.876923 
L 264.626242 294.876923 
L 265.419889 278.723077 
L 266.213536 307.8 
L 268.594477 307.8 
L 269.388124 298.107692 
L 270.181771 285.184615 
L 270.975418 307.8 
L 271.769065 288.415385 
L 272.562712 291.646154 
L 273.356359 233.492308 
L 274.150006 256.107692 
L 274.943653 230.261538 
L 275.7373 217.338462 
L 276.530947 165.646154 
L 277.324594 307.8 
L 279.705535 307.8 
L 280.499182 265.8 
L 281.292829 307.8 
L 283.67377 307.8 
L 284.467417 278.723077 
L 285.261064 288.415385 
L 286.054711 288.415385 
L 286.848358 307.8 
L 288.435652 307.8 
L 290.022947 294.876923 
L 290.816594 307.8 
L 291.610241 307.8 
L 292.403888 285.184615 
L 293.197535 307.8 
L 293.991182 301.338462 
L 294.784829 307.8 
L 295.578476 307.8 
L 296.372123 256.107692 
L 297.16577 194.723077 
L 297.959417 162.415385 
L 298.753064 172.107692 
L 299.546711 204.415385 
L 300.340358 204.415385 
L 301.134005 252.876923 
L 301.927652 201.184615 
L 302.721299 304.569231 
L 303.514946 307.8 
L 304.308593 230.261538 
L 305.10224 307.8 
L 305.895887 249.646154 
L 306.689534 307.8 
L 307.483181 307.8 
L 308.276828 294.876923 
L 309.070475 304.569231 
L 309.864122 275.492308 
L 310.657769 298.107692 
L 311.451416 272.261538 
L 312.245063 204.415385 
L 313.03871 201.184615 
L 313.832357 175.338462 
L 314.626005 230.261538 
L 315.419652 133.338462 
L 316.213299 155.953846 
L 317.006946 278.723077 
L 317.800593 307.8 
L 318.59424 265.8 
L 319.387887 307.8 
L 320.181534 307.8 
L 320.975181 281.953846 
L 321.768828 307.8 
L 322.562475 272.261538 
L 323.356122 307.8 
L 324.149769 288.415385 
L 324.943416 307.8 
L 325.737063 291.646154 
L 326.53071 307.8 
L 327.324357 307.8 
L 328.118004 291.646154 
L 328.911651 304.569231 
L 329.705298 307.8 
L 330.498945 291.646154 
L 331.292592 236.723077 
L 332.086239 307.8 
L 333.673533 307.8 
L 334.46718 275.492308 
L 335.260827 307.8 
L 336.054474 269.030769 
L 336.848121 123.646154 
L 337.641768 155.953846 
L 338.435415 236.723077 
L 339.229062 188.261538 
L 340.022709 269.030769 
L 340.816357 204.415385 
L 341.610004 210.876923 
L 342.403651 243.184615 
L 343.197298 307.8 
L 343.990945 307.8 
L 344.784592 298.107692 
L 345.578239 272.261538 
L 346.371886 307.8 
L 347.165533 291.646154 
L 347.95918 307.8 
L 348.752827 307.8 
L 349.546474 304.569231 
L 350.340121 259.338462 
L 351.133768 243.184615 
L 351.927415 307.8 
L 352.721062 227.030769 
L 353.514709 236.723077 
L 354.308356 165.646154 
L 355.102003 113.953846 
L 355.89565 152.723077 
L 356.689297 291.646154 
L 357.482944 307.8 
L 358.276591 304.569231 
L 359.070238 307.8 
L 359.863885 298.107692 
L 360.657532 291.646154 
L 361.451179 307.8 
L 362.244826 249.646154 
L 363.038473 307.8 
L 363.83212 301.338462 
L 364.625767 288.415385 
L 365.419414 294.876923 
L 366.213062 307.8 
L 367.006709 307.8 
L 367.800356 281.953846 
L 368.594003 307.8 
L 370.181297 307.8 
L 370.974944 294.876923 
L 371.768591 307.8 
L 375.736826 307.8 
L 376.530473 126.876923 
L 377.32412 172.107692 
L 378.117767 175.338462 
L 378.911414 197.953846 
L 379.705061 217.338462 
L 380.498708 249.646154 
L 381.292355 275.492308 
L 382.086002 275.492308 
L 382.879649 246.415385 
L 383.673296 307.8 
L 386.054237 307.8 
L 386.847884 272.261538 
L 387.641531 304.569231 
L 388.435178 307.8 
L 389.228825 294.876923 
L 390.022472 278.723077 
L 390.816119 288.415385 
L 391.609767 262.569231 
L 393.197061 181.8 
L 393.990708 191.492308 
L 394.784355 165.646154 
L 395.578002 133.338462 
L 396.371649 291.646154 
L 397.165296 275.492308 
L 397.958943 307.8 
L 398.75259 304.569231 
L 399.546237 307.8 
L 400.339884 291.646154 
L 401.133531 307.8 
L 401.927178 291.646154 
L 402.720825 272.261538 
L 403.514472 285.184615 
L 404.308119 307.8 
L 405.101766 307.8 
L 405.895413 304.569231 
L 406.68906 269.030769 
L 407.482707 278.723077 
L 408.276354 307.8 
L 409.070001 307.8 
L 409.863648 294.876923 
L 410.657295 239.953846 
L 411.450942 307.8 
L 412.244589 285.184615 
L 413.038236 307.8 
L 413.831883 298.107692 
L 414.62553 307.8 
L 416.212824 307.8 
L 417.006471 126.876923 
L 417.800119 204.415385 
L 418.593766 233.492308 
L 419.387413 236.723077 
L 420.18106 249.646154 
L 420.974707 307.8 
L 421.768354 259.338462 
L 422.562001 291.646154 
L 423.355648 307.8 
L 424.149295 291.646154 
L 424.942942 281.953846 
L 425.736589 265.8 
L 426.530236 307.8 
L 427.323883 288.415385 
L 428.11753 301.338462 
L 428.911177 291.646154 
L 429.704824 259.338462 
L 430.498471 301.338462 
L 431.292118 230.261538 
L 432.085765 239.953846 
L 432.879412 194.723077 
L 433.673059 210.876923 
L 434.466706 107.492308 
L 435.260353 149.492308 
L 436.054 307.8 
L 436.847647 307.8 
L 437.641294 291.646154 
L 438.434941 307.8 
L 440.022235 307.8 
L 440.815882 298.107692 
L 441.609529 304.569231 
L 442.403176 307.8 
L 443.196824 298.107692 
L 443.990471 307.8 
L 444.784118 307.8 
L 445.577765 304.569231 
L 446.371412 304.569231 
L 447.165059 256.107692 
L 447.958706 307.8 
L 450.339647 307.8 
L 451.133294 304.569231 
L 451.926941 307.8 
L 452.720588 285.184615 
L 453.514235 265.8 
L 454.307882 307.8 
L 455.101529 120.415385 
L 455.895176 188.261538 
L 456.688823 168.876923 
L 457.48247 214.107692 
L 458.276117 220.569231 
L 459.069764 233.492308 
L 459.863411 249.646154 
L 460.657058 307.8 
L 461.450705 298.107692 
L 462.244352 307.8 
L 463.037999 288.415385 
L 463.831646 233.492308 
L 464.625293 307.8 
L 465.41894 307.8 
L 466.212587 288.415385 
L 467.006234 259.338462 
L 467.799881 269.030769 
L 468.593529 294.876923 
L 469.387176 227.030769 
L 470.180823 217.338462 
L 470.97447 194.723077 
L 471.768117 204.415385 
L 472.561764 181.8 
L 473.355411 201.184615 
L 474.149058 307.8 
L 474.942705 281.953846 
L 475.736352 236.723077 
L 476.529999 288.415385 
L 477.323646 307.8 
L 478.117293 288.415385 
L 478.91094 307.8 
L 479.704587 265.8 
L 480.498234 256.107692 
L 481.291881 288.415385 
L 482.085528 285.184615 
L 482.879175 307.8 
L 483.672822 301.338462 
L 484.466469 307.8 
L 485.260116 307.8 
L 486.84741 288.415385 
L 487.641057 307.8 
L 488.434704 307.8 
L 489.228351 246.415385 
L 490.021998 307.8 
L 491.609292 307.8 
L 492.402939 275.492308 
L 493.196586 146.261538 
L 493.990233 217.338462 
L 494.783881 188.261538 
L 495.577528 194.723077 
L 497.164822 262.569231 
L 497.958469 288.415385 
L 498.752116 256.107692 
L 499.545763 288.415385 
L 500.33941 307.8 
L 501.133057 294.876923 
L 501.926704 269.030769 
L 502.720351 307.8 
L 503.513998 230.261538 
L 504.307645 307.8 
L 505.101292 307.8 
L 505.894939 281.953846 
L 506.688586 307.8 
L 507.482233 301.338462 
L 508.27588 236.723077 
L 509.069527 197.953846 
L 509.863174 165.646154 
L 510.656821 178.569231 
L 511.450468 159.184615 
L 512.244115 301.338462 
L 513.037762 307.8 
L 513.831409 307.8 
L 514.625056 285.184615 
L 515.418703 285.184615 
L 516.21235 307.8 
L 517.005997 307.8 
L 517.799644 275.492308 
L 518.593291 288.415385 
L 519.386938 275.492308 
L 520.180586 239.953846 
L 520.974233 236.723077 
L 521.76788 307.8 
L 522.561527 307.8 
L 523.355174 281.953846 
L 524.148821 307.8 
L 524.942468 298.107692 
L 525.736115 307.8 
L 526.529762 304.569231 
L 527.323409 307.8 
L 528.117056 304.569231 
L 528.910703 307.8 
L 529.70435 307.8 
L 530.497997 288.415385 
L 531.291644 117.184615 
L 532.085291 223.8 
L 533.672585 197.953846 
L 534.466232 281.953846 
L 535.259879 233.492308 
L 536.053526 252.876923 
L 536.847173 262.569231 
L 537.64082 307.8 
L 538.434467 294.876923 
L 539.228114 278.723077 
L 540.021761 256.107692 
L 540.815408 301.338462 
L 541.609055 278.723077 
L 542.402702 301.338462 
L 543.196349 307.8 
L 543.989996 304.569231 
L 544.783643 272.261538 
L 545.577291 246.415385 
L 547.164585 307.8 
L 547.958232 217.338462 
L 548.751879 159.184615 
L 549.545526 191.492308 
L 550.339173 304.569231 
L 551.13282 291.646154 
L 551.926467 307.8 
L 552.720114 301.338462 
L 553.513761 307.8 
L 554.307408 298.107692 
L 555.101055 262.569231 
L 555.894702 307.8 
L 556.688349 307.8 
L 557.481996 294.876923 
L 558.275643 307.8 
L 559.06929 298.107692 
L 559.862937 304.569231 
L 560.656584 269.030769 
L 561.450231 307.8 
L 562.243878 281.953846 
L 563.037525 307.8 
L 563.831172 272.261538 
L 564.624819 298.107692 
L 565.418466 307.8 
L 566.212113 307.8 
L 567.00576 304.569231 
L 567.799407 294.876923 
L 568.593054 307.8 
L 569.386701 172.107692 
L 570.180348 194.723077 
L 570.973995 243.184615 
L 571.767643 227.030769 
L 572.56129 204.415385 
L 573.354937 246.415385 
L 574.148584 246.415385 
L 574.942231 294.876923 
L 575.735878 275.492308 
L 576.529525 307.8 
L 577.323172 307.8 
L 578.116819 281.953846 
L 578.910466 307.8 
L 579.704113 307.8 
L 580.49776 269.030769 
L 581.291407 281.953846 
L 582.085054 301.338462 
L 583.672348 252.876923 
L 584.465995 194.723077 
L 585.259642 217.338462 
L 586.053289 185.030769 
L 586.846936 162.415385 
L 587.640583 194.723077 
L 588.43423 285.184615 
L 589.227877 304.569231 
L 590.021524 307.8 
L 593.196112 307.8 
L 593.989759 252.876923 
L 594.783406 307.8 
L 595.577053 272.261538 
L 596.3707 307.8 
L 597.164348 272.261538 
L 597.957995 288.415385 
L 598.751642 307.8 
L 599.545289 307.8 
L 600.338936 272.261538 
L 601.132583 307.8 
L 601.92623 249.646154 
L 602.719877 307.8 
L 604.307171 307.8 
L 605.100818 288.415385 
L 605.894465 307.8 
L 606.688112 307.8 
L 607.481759 117.184615 
L 608.275406 185.030769 
L 609.069053 214.107692 
L 609.8627 236.723077 
L 610.656347 252.876923 
L 611.449994 230.261538 
L 612.243641 304.569231 
L 613.037288 288.415385 
L 613.830935 307.8 
L 614.624582 307.8 
L 615.418229 298.107692 
L 616.211876 307.8 
L 617.005523 252.876923 
L 617.79917 307.8 
L 618.592817 304.569231 
L 619.386464 298.107692 
L 620.180111 281.953846 
L 620.973758 294.876923 
L 621.767405 223.8 
L 622.561053 223.8 
L 623.3547 210.876923 
L 624.148347 159.184615 
L 624.941994 175.338462 
L 625.735641 175.338462 
L 626.529288 307.8 
L 627.322935 249.646154 
L 628.116582 307.8 
L 628.910229 307.8 
L 629.703876 275.492308 
L 630.497523 307.8 
L 633.672111 307.8 
L 634.465758 252.876923 
L 635.259405 307.8 
L 636.846699 307.8 
L 637.640346 281.953846 
L 638.433993 304.569231 
L 639.22764 294.876923 
L 640.021287 304.569231 
L 640.814934 294.876923 
L 641.608581 307.8 
L 642.402228 288.415385 
L 643.195875 307.8 
L 644.783169 307.8 
L 645.576816 123.646154 
L 646.370463 181.8 
L 647.16411 162.415385 
L 647.957757 165.646154 
L 648.751405 249.646154 
L 649.545052 281.953846 
L 650.338699 288.415385 
L 651.132346 307.8 
L 651.925993 233.492308 
L 652.71964 288.415385 
L 653.513287 307.8 
L 654.306934 307.8 
L 655.100581 272.261538 
L 655.894228 288.415385 
L 656.687875 239.953846 
L 657.481522 236.723077 
L 658.275169 285.184615 
L 659.068816 249.646154 
L 659.862463 298.107692 
L 660.65611 207.646154 
L 661.449757 259.338462 
L 662.243404 162.415385 
L 663.037051 230.261538 
L 663.830698 175.338462 
L 665.417992 307.8 
L 667.005286 307.8 
L 667.798933 275.492308 
L 668.59258 272.261538 
L 669.386227 307.8 
L 670.973521 307.8 
L 671.767168 272.261538 
L 672.560815 307.8 
L 673.354462 307.8 
L 674.14811 269.030769 
L 674.941757 307.8 
L 675.735404 269.030769 
L 676.529051 307.8 
L 677.322698 307.8 
L 678.116345 291.646154 
L 678.909992 307.8 
L 679.703639 288.415385 
L 681.290933 307.8 
L 682.878227 307.8 
L 683.671874 162.415385 
L 684.465521 201.184615 
L 685.259168 191.492308 
L 686.052815 230.261538 
L 686.846462 298.107692 
L 687.640109 259.338462 
L 688.433756 256.107692 
L 689.227403 298.107692 
L 690.02105 307.8 
L 690.814697 256.107692 
L 691.608344 307.8 
L 692.401991 307.8 
L 693.195638 259.338462 
L 693.989285 259.338462 
L 694.782932 301.338462 
L 695.576579 307.8 
L 696.370226 249.646154 
L 697.163873 307.8 
L 697.95752 210.876923 
L 698.751167 252.876923 
L 699.544815 188.261538 
L 700.338462 172.107692 
L 701.132109 162.415385 
L 701.925756 136.569231 
L 702.719403 288.415385 
L 703.51305 307.8 
L 704.306697 288.415385 
L 705.100344 307.8 
L 705.893991 307.8 
L 706.687638 298.107692 
L 707.481285 307.8 
L 708.274932 285.184615 
L 709.068579 291.646154 
L 709.862226 307.8 
L 710.655873 304.569231 
L 711.44952 307.8 
L 712.243167 304.569231 
L 713.036814 307.8 
L 715.417755 307.8 
L 716.211402 256.107692 
L 717.005049 307.8 
L 717.798696 304.569231 
L 718.592343 272.261538 
L 719.38599 307.8 
L 720.179637 256.107692 
L 720.973284 307.8 
L 721.766931 178.569231 
L 722.560578 178.569231 
L 723.354225 214.107692 
L 724.147872 188.261538 
L 724.941519 256.107692 
L 725.735167 223.8 
L 726.528814 239.953846 
L 727.322461 243.184615 
L 728.116108 285.184615 
L 728.909755 307.8 
L 729.703402 272.261538 
L 730.497049 307.8 
L 731.290696 281.953846 
L 732.084343 291.646154 
L 733.671637 298.107692 
L 734.465284 262.569231 
L 735.258931 307.8 
L 736.052578 304.569231 
L 736.846225 230.261538 
L 737.639872 194.723077 
L 738.433519 152.723077 
L 739.227166 275.492308 
L 740.020813 159.184615 
L 740.81446 307.8 
L 742.401754 307.8 
L 743.195401 298.107692 
L 743.989048 272.261538 
L 744.782695 307.8 
L 746.369989 307.8 
L 747.163636 269.030769 
L 747.163636 269.030769 
" clip-path="url(#p8fe4e8f834)" style="fill: none; stroke: #191970; stroke-width: 2; stroke-linecap: square"/>
   </g>
   <g id="patch_3">
    <path d="M 108 320.4 
L 108 43.2 
" style="fill: none; stroke: #000000; stroke-width: 0.8; stroke-linejoin: miter; stroke-linecap: square"/>
   </g>
   <g id="patch_4">
    <path d="M 777.6 320.4 
L 777.6 43.2 
" style="fill: none; stroke: #000000; stroke-width: 0.8; stroke-linejoin: miter; stroke-linecap: square"/>
   </g>
   <g id="patch_5">
    <path d="M 108 320.4 
L 777.6 320.4 
" style="fill: none; stroke: #000000; stroke-width: 0.8; stroke-linejoin: miter; stroke-linecap: square"/>
   </g>
   <g id="patch_6">
    <path d="M 108 43.2 
L 777.6 43.2 
" style="fill: none; stroke: #000000; stroke-width: 0.8; stroke-linejoin: miter; stroke-linecap: square"/>
   </g>
   <g id="text_21">
    <!-- TIME SERIES -->
    <g transform="translate(386.625938 37.2) scale(0.18 -0.18)">
     <defs>
      <path id="DejaVuSans-52" d="M 2841 2188 
Q 3044 2119 3236 1894 
Q 3428 1669 3622 1275 
L 4263 0 
L 3584 0 
L 2988 1197 
Q 2756 1666 2539 1819 
Q 2322 1972 1947 1972 
L 1259 1972 
L 1259 0 
L 628 0 
L 628 4666 
L 2053 4666 
Q 2853 4666 3247 4331 
Q 3641 3997 3641 3322 
Q 3641 2881 3436 2590 
Q 3231 2300 2841 2188 
z
M 1259 4147 
L 1259 2491 
L 2053 2491 
Q 2509 2491 2742 2702 
Q 2975 2913 2975 3322 
Q 2975 3731 2742 3939 
Q 2509 4147 2053 4147 
L 1259 4147 
z
" transform="scale(0.015625)"/>
     </defs>
     <use xlink:href="#DejaVuSans-54"/>
     <use xlink:href="#DejaVuSans-49" x="61.083984"/>
     <use xlink:href="#DejaVuSans-4d" x="90.576172"/>
     <use xlink:href="#DejaVuSans-45" x="176.855469"/>
     <use xlink:href="#DejaVuSans-20" x="240.039062"/>
     <use xlink:href="#DejaVuSans-53" x="271.826172"/>
     <use xlink:href="#DejaVuSans-45" x="335.302734"/>
     <use xlink:href="#DejaVuSans-52" x="398.486328"/>
     <use xlink:href="#DejaVuSans-49" x="467.96875"/>
     <use xlink:href="#DejaVuSans-45" x="497.460938"/>
     <use xlink:href="#DejaVuSans-53" x="560.644531"/>
    </g>
   </g>
  </g>
 </g>
 <defs>
  <clipPath id="p8fe4e8f834">
   <rect x="108" y="43.2" width="669.6" height="277.2"/>
  </clipPath>
 </defs>
</svg>
