<?xml version="1.0" encoding="utf-8" standalone="no"?>
<!DOCTYPE svg PUBLIC "-//W3C//DTD SVG 1.1//EN"
  "http://www.w3.org/Graphics/SVG/1.1/DTD/svg11.dtd">
<svg xmlns:xlink="http://www.w3.org/1999/xlink" width="864pt" height="360pt" viewBox="0 0 864 360" xmlns="http://www.w3.org/2000/svg" version="1.1">
 <metadata>
  <rdf:RDF xmlns:dc="http://purl.org/dc/elements/1.1/" xmlns:cc="http://creativecommons.org/ns#" xmlns:rdf="http://www.w3.org/1999/02/22-rdf-syntax-ns#">
   <cc:Work>
    <dc:type rdf:resource="http://purl.org/dc/dcmitype/StillImage"/>
    <dc:date>2023-11-27T20:51:49.111847</dc:date>
    <dc:format>image/svg+xml</dc:format>
    <dc:creator>
     <cc:Agent>
      <dc:title>Matplotlib v3.7.4, https://matplotlib.org/</dc:title>
     </cc:Agent>
    </dc:creator>
   </cc:Work>
  </rdf:RDF>
 </metadata>
 <defs>
  <style type="text/css">*{stroke-linejoin: round; stroke-linecap: butt}</style>
 </defs>
 <g id="figure_1">
  <g id="patch_1">
   <path d="M 0 360 
L 864 360 
L 864 0 
L 0 0 
z
" style="fill: #ffffff"/>
  </g>
  <g id="axes_1">
   <g id="patch_2">
    <path d="M 108 320.4 
L 777.6 320.4 
L 777.6 43.2 
L 108 43.2 
z
" style="fill: #ffffff"/>
   </g>
   <g id="matplotlib.axis_1">
    <g id="xtick_1">
     <g id="line2d_1">
      <defs>
       <path id="mc8070bdaf4" d="M 0 0 
L 0 3.5 
" style="stroke: #000000; stroke-width: 0.8"/>
      </defs>
      <g>
       <use xlink:href="#mc8070bdaf4" x="138.436364" y="320.4" style="stroke: #000000; stroke-width: 0.8"/>
      </g>
     </g>
     <g id="text_1">
      <!-- 2022-01-01 -->
      <g transform="translate(103.566989 336.518125) scale(0.12 -0.12)">
       <defs>
        <path id="DejaVuSans-32" d="M 1228 531 
L 3431 531 
L 3431 0 
L 469 0 
L 469 531 
Q 828 903 1448 1529 
Q 2069 2156 2228 2338 
Q 2531 2678 2651 2914 
Q 2772 3150 2772 3378 
Q 2772 3750 2511 3984 
Q 2250 4219 1831 4219 
Q 1534 4219 1204 4116 
Q 875 4013 500 3803 
L 500 4441 
Q 881 4594 1212 4672 
Q 1544 4750 1819 4750 
Q 2544 4750 2975 4387 
Q 3406 4025 3406 3419 
Q 3406 3131 3298 2873 
Q 3191 2616 2906 2266 
Q 2828 2175 2409 1742 
Q 1991 1309 1228 531 
z
" transform="scale(0.015625)"/>
        <path id="DejaVuSans-30" d="M 2034 4250 
Q 1547 4250 1301 3770 
Q 1056 3291 1056 2328 
Q 1056 1369 1301 889 
Q 1547 409 2034 409 
Q 2525 409 2770 889 
Q 3016 1369 3016 2328 
Q 3016 3291 2770 3770 
Q 2525 4250 2034 4250 
z
M 2034 4750 
Q 2819 4750 3233 4129 
Q 3647 3509 3647 2328 
Q 3647 1150 3233 529 
Q 2819 -91 2034 -91 
Q 1250 -91 836 529 
Q 422 1150 422 2328 
Q 422 3509 836 4129 
Q 1250 4750 2034 4750 
z
" transform="scale(0.015625)"/>
        <path id="DejaVuSans-2d" d="M 313 2009 
L 1997 2009 
L 1997 1497 
L 313 1497 
L 313 2009 
z
" transform="scale(0.015625)"/>
        <path id="DejaVuSans-31" d="M 794 531 
L 1825 531 
L 1825 4091 
L 703 3866 
L 703 4441 
L 1819 4666 
L 2450 4666 
L 2450 531 
L 3481 531 
L 3481 0 
L 794 0 
L 794 531 
z
" transform="scale(0.015625)"/>
       </defs>
       <use xlink:href="#DejaVuSans-32"/>
       <use xlink:href="#DejaVuSans-30" x="63.623047"/>
       <use xlink:href="#DejaVuSans-32" x="127.246094"/>
       <use xlink:href="#DejaVuSans-32" x="190.869141"/>
       <use xlink:href="#DejaVuSans-2d" x="254.492188"/>
       <use xlink:href="#DejaVuSans-30" x="290.576172"/>
       <use xlink:href="#DejaVuSans-31" x="354.199219"/>
       <use xlink:href="#DejaVuSans-2d" x="417.822266"/>
       <use xlink:href="#DejaVuSans-30" x="453.90625"/>
       <use xlink:href="#DejaVuSans-31" x="517.529297"/>
      </g>
     </g>
    </g>
    <g id="xtick_2">
     <g id="line2d_2">
      <g>
       <use xlink:href="#mc8070bdaf4" x="232.237035" y="320.4" style="stroke: #000000; stroke-width: 0.8"/>
      </g>
     </g>
     <g id="text_2">
      <!-- 2022-01-03 -->
      <g transform="translate(197.36766 336.518125) scale(0.12 -0.12)">
       <defs>
        <path id="DejaVuSans-33" d="M 2597 2516 
Q 3050 2419 3304 2112 
Q 3559 1806 3559 1356 
Q 3559 666 3084 287 
Q 2609 -91 1734 -91 
Q 1441 -91 1130 -33 
Q 819 25 488 141 
L 488 750 
Q 750 597 1062 519 
Q 1375 441 1716 441 
Q 2309 441 2620 675 
Q 2931 909 2931 1356 
Q 2931 1769 2642 2001 
Q 2353 2234 1838 2234 
L 1294 2234 
L 1294 2753 
L 1863 2753 
Q 2328 2753 2575 2939 
Q 2822 3125 2822 3475 
Q 2822 3834 2567 4026 
Q 2313 4219 1838 4219 
Q 1578 4219 1281 4162 
Q 984 4106 628 3988 
L 628 4550 
Q 988 4650 1302 4700 
Q 1616 4750 1894 4750 
Q 2613 4750 3031 4423 
Q 3450 4097 3450 3541 
Q 3450 3153 3228 2886 
Q 3006 2619 2597 2516 
z
" transform="scale(0.015625)"/>
       </defs>
       <use xlink:href="#DejaVuSans-32"/>
       <use xlink:href="#DejaVuSans-30" x="63.623047"/>
       <use xlink:href="#DejaVuSans-32" x="127.246094"/>
       <use xlink:href="#DejaVuSans-32" x="190.869141"/>
       <use xlink:href="#DejaVuSans-2d" x="254.492188"/>
       <use xlink:href="#DejaVuSans-30" x="290.576172"/>
       <use xlink:href="#DejaVuSans-31" x="354.199219"/>
       <use xlink:href="#DejaVuSans-2d" x="417.822266"/>
       <use xlink:href="#DejaVuSans-30" x="453.90625"/>
       <use xlink:href="#DejaVuSans-33" x="517.529297"/>
      </g>
     </g>
    </g>
    <g id="xtick_3">
     <g id="line2d_3">
      <g>
       <use xlink:href="#mc8070bdaf4" x="326.037706" y="320.4" style="stroke: #000000; stroke-width: 0.8"/>
      </g>
     </g>
     <g id="text_3">
      <!-- 2022-01-05 -->
      <g transform="translate(291.168331 336.518125) scale(0.12 -0.12)">
       <defs>
        <path id="DejaVuSans-35" d="M 691 4666 
L 3169 4666 
L 3169 4134 
L 1269 4134 
L 1269 2991 
Q 1406 3038 1543 3061 
Q 1681 3084 1819 3084 
Q 2600 3084 3056 2656 
Q 3513 2228 3513 1497 
Q 3513 744 3044 326 
Q 2575 -91 1722 -91 
Q 1428 -91 1123 -41 
Q 819 9 494 109 
L 494 744 
Q 775 591 1075 516 
Q 1375 441 1709 441 
Q 2250 441 2565 725 
Q 2881 1009 2881 1497 
Q 2881 1984 2565 2268 
Q 2250 2553 1709 2553 
Q 1456 2553 1204 2497 
Q 953 2441 691 2322 
L 691 4666 
z
" transform="scale(0.015625)"/>
       </defs>
       <use xlink:href="#DejaVuSans-32"/>
       <use xlink:href="#DejaVuSans-30" x="63.623047"/>
       <use xlink:href="#DejaVuSans-32" x="127.246094"/>
       <use xlink:href="#DejaVuSans-32" x="190.869141"/>
       <use xlink:href="#DejaVuSans-2d" x="254.492188"/>
       <use xlink:href="#DejaVuSans-30" x="290.576172"/>
       <use xlink:href="#DejaVuSans-31" x="354.199219"/>
       <use xlink:href="#DejaVuSans-2d" x="417.822266"/>
       <use xlink:href="#DejaVuSans-30" x="453.90625"/>
       <use xlink:href="#DejaVuSans-35" x="517.529297"/>
      </g>
     </g>
    </g>
    <g id="xtick_4">
     <g id="line2d_4">
      <g>
       <use xlink:href="#mc8070bdaf4" x="419.838377" y="320.4" style="stroke: #000000; stroke-width: 0.8"/>
      </g>
     </g>
     <g id="text_4">
      <!-- 2022-01-07 -->
      <g transform="translate(384.969002 336.518125) scale(0.12 -0.12)">
       <defs>
        <path id="DejaVuSans-37" d="M 525 4666 
L 3525 4666 
L 3525 4397 
L 1831 0 
L 1172 0 
L 2766 4134 
L 525 4134 
L 525 4666 
z
" transform="scale(0.015625)"/>
       </defs>
       <use xlink:href="#DejaVuSans-32"/>
       <use xlink:href="#DejaVuSans-30" x="63.623047"/>
       <use xlink:href="#DejaVuSans-32" x="127.246094"/>
       <use xlink:href="#DejaVuSans-32" x="190.869141"/>
       <use xlink:href="#DejaVuSans-2d" x="254.492188"/>
       <use xlink:href="#DejaVuSans-30" x="290.576172"/>
       <use xlink:href="#DejaVuSans-31" x="354.199219"/>
       <use xlink:href="#DejaVuSans-2d" x="417.822266"/>
       <use xlink:href="#DejaVuSans-30" x="453.90625"/>
       <use xlink:href="#DejaVuSans-37" x="517.529297"/>
      </g>
     </g>
    </g>
    <g id="xtick_5">
     <g id="line2d_5">
      <g>
       <use xlink:href="#mc8070bdaf4" x="513.639049" y="320.4" style="stroke: #000000; stroke-width: 0.8"/>
      </g>
     </g>
     <g id="text_5">
      <!-- 2022-01-09 -->
      <g transform="translate(478.769674 336.518125) scale(0.12 -0.12)">
       <defs>
        <path id="DejaVuSans-39" d="M 703 97 
L 703 672 
Q 941 559 1184 500 
Q 1428 441 1663 441 
Q 2288 441 2617 861 
Q 2947 1281 2994 2138 
Q 2813 1869 2534 1725 
Q 2256 1581 1919 1581 
Q 1219 1581 811 2004 
Q 403 2428 403 3163 
Q 403 3881 828 4315 
Q 1253 4750 1959 4750 
Q 2769 4750 3195 4129 
Q 3622 3509 3622 2328 
Q 3622 1225 3098 567 
Q 2575 -91 1691 -91 
Q 1453 -91 1209 -44 
Q 966 3 703 97 
z
M 1959 2075 
Q 2384 2075 2632 2365 
Q 2881 2656 2881 3163 
Q 2881 3666 2632 3958 
Q 2384 4250 1959 4250 
Q 1534 4250 1286 3958 
Q 1038 3666 1038 3163 
Q 1038 2656 1286 2365 
Q 1534 2075 1959 2075 
z
" transform="scale(0.015625)"/>
       </defs>
       <use xlink:href="#DejaVuSans-32"/>
       <use xlink:href="#DejaVuSans-30" x="63.623047"/>
       <use xlink:href="#DejaVuSans-32" x="127.246094"/>
       <use xlink:href="#DejaVuSans-32" x="190.869141"/>
       <use xlink:href="#DejaVuSans-2d" x="254.492188"/>
       <use xlink:href="#DejaVuSans-30" x="290.576172"/>
       <use xlink:href="#DejaVuSans-31" x="354.199219"/>
       <use xlink:href="#DejaVuSans-2d" x="417.822266"/>
       <use xlink:href="#DejaVuSans-30" x="453.90625"/>
       <use xlink:href="#DejaVuSans-39" x="517.529297"/>
      </g>
     </g>
    </g>
    <g id="xtick_6">
     <g id="line2d_6">
      <g>
       <use xlink:href="#mc8070bdaf4" x="607.43972" y="320.4" style="stroke: #000000; stroke-width: 0.8"/>
      </g>
     </g>
     <g id="text_6">
      <!-- 2022-01-11 -->
      <g transform="translate(572.570345 336.518125) scale(0.12 -0.12)">
       <use xlink:href="#DejaVuSans-32"/>
       <use xlink:href="#DejaVuSans-30" x="63.623047"/>
       <use xlink:href="#DejaVuSans-32" x="127.246094"/>
       <use xlink:href="#DejaVuSans-32" x="190.869141"/>
       <use xlink:href="#DejaVuSans-2d" x="254.492188"/>
       <use xlink:href="#DejaVuSans-30" x="290.576172"/>
       <use xlink:href="#DejaVuSans-31" x="354.199219"/>
       <use xlink:href="#DejaVuSans-2d" x="417.822266"/>
       <use xlink:href="#DejaVuSans-31" x="453.90625"/>
       <use xlink:href="#DejaVuSans-31" x="517.529297"/>
      </g>
     </g>
    </g>
    <g id="xtick_7">
     <g id="line2d_7">
      <g>
       <use xlink:href="#mc8070bdaf4" x="701.240391" y="320.4" style="stroke: #000000; stroke-width: 0.8"/>
      </g>
     </g>
     <g id="text_7">
      <!-- 2022-01-13 -->
      <g transform="translate(666.371016 336.518125) scale(0.12 -0.12)">
       <use xlink:href="#DejaVuSans-32"/>
       <use xlink:href="#DejaVuSans-30" x="63.623047"/>
       <use xlink:href="#DejaVuSans-32" x="127.246094"/>
       <use xlink:href="#DejaVuSans-32" x="190.869141"/>
       <use xlink:href="#DejaVuSans-2d" x="254.492188"/>
       <use xlink:href="#DejaVuSans-30" x="290.576172"/>
       <use xlink:href="#DejaVuSans-31" x="354.199219"/>
       <use xlink:href="#DejaVuSans-2d" x="417.822266"/>
       <use xlink:href="#DejaVuSans-31" x="453.90625"/>
       <use xlink:href="#DejaVuSans-33" x="517.529297"/>
      </g>
     </g>
    </g>
    <g id="text_8">
     <!-- TIME (DAYS) -->
     <g transform="translate(393.97375 355.17125) scale(0.16 -0.16)">
      <defs>
       <path id="DejaVuSans-54" d="M -19 4666 
L 3928 4666 
L 3928 4134 
L 2272 4134 
L 2272 0 
L 1638 0 
L 1638 4134 
L -19 4134 
L -19 4666 
z
" transform="scale(0.015625)"/>
       <path id="DejaVuSans-49" d="M 628 4666 
L 1259 4666 
L 1259 0 
L 628 0 
L 628 4666 
z
" transform="scale(0.015625)"/>
       <path id="DejaVuSans-4d" d="M 628 4666 
L 1569 4666 
L 2759 1491 
L 3956 4666 
L 4897 4666 
L 4897 0 
L 4281 0 
L 4281 4097 
L 3078 897 
L 2444 897 
L 1241 4097 
L 1241 0 
L 628 0 
L 628 4666 
z
" transform="scale(0.015625)"/>
       <path id="DejaVuSans-45" d="M 628 4666 
L 3578 4666 
L 3578 4134 
L 1259 4134 
L 1259 2753 
L 3481 2753 
L 3481 2222 
L 1259 2222 
L 1259 531 
L 3634 531 
L 3634 0 
L 628 0 
L 628 4666 
z
" transform="scale(0.015625)"/>
       <path id="DejaVuSans-20" transform="scale(0.015625)"/>
       <path id="DejaVuSans-28" d="M 1984 4856 
Q 1566 4138 1362 3434 
Q 1159 2731 1159 2009 
Q 1159 1288 1364 580 
Q 1569 -128 1984 -844 
L 1484 -844 
Q 1016 -109 783 600 
Q 550 1309 550 2009 
Q 550 2706 781 3412 
Q 1013 4119 1484 4856 
L 1984 4856 
z
" transform="scale(0.015625)"/>
       <path id="DejaVuSans-44" d="M 1259 4147 
L 1259 519 
L 2022 519 
Q 2988 519 3436 956 
Q 3884 1394 3884 2338 
Q 3884 3275 3436 3711 
Q 2988 4147 2022 4147 
L 1259 4147 
z
M 628 4666 
L 1925 4666 
Q 3281 4666 3915 4102 
Q 4550 3538 4550 2338 
Q 4550 1131 3912 565 
Q 3275 0 1925 0 
L 628 0 
L 628 4666 
z
" transform="scale(0.015625)"/>
       <path id="DejaVuSans-41" d="M 2188 4044 
L 1331 1722 
L 3047 1722 
L 2188 4044 
z
M 1831 4666 
L 2547 4666 
L 4325 0 
L 3669 0 
L 3244 1197 
L 1141 1197 
L 716 0 
L 50 0 
L 1831 4666 
z
" transform="scale(0.015625)"/>
       <path id="DejaVuSans-59" d="M -13 4666 
L 666 4666 
L 1959 2747 
L 3244 4666 
L 3922 4666 
L 2272 2222 
L 2272 0 
L 1638 0 
L 1638 2222 
L -13 4666 
z
" transform="scale(0.015625)"/>
       <path id="DejaVuSans-53" d="M 3425 4513 
L 3425 3897 
Q 3066 4069 2747 4153 
Q 2428 4238 2131 4238 
Q 1616 4238 1336 4038 
Q 1056 3838 1056 3469 
Q 1056 3159 1242 3001 
Q 1428 2844 1947 2747 
L 2328 2669 
Q 3034 2534 3370 2195 
Q 3706 1856 3706 1288 
Q 3706 609 3251 259 
Q 2797 -91 1919 -91 
Q 1588 -91 1214 -16 
Q 841 59 441 206 
L 441 856 
Q 825 641 1194 531 
Q 1563 422 1919 422 
Q 2459 422 2753 634 
Q 3047 847 3047 1241 
Q 3047 1584 2836 1778 
Q 2625 1972 2144 2069 
L 1759 2144 
Q 1053 2284 737 2584 
Q 422 2884 422 3419 
Q 422 4038 858 4394 
Q 1294 4750 2059 4750 
Q 2388 4750 2728 4690 
Q 3069 4631 3425 4513 
z
" transform="scale(0.015625)"/>
       <path id="DejaVuSans-29" d="M 513 4856 
L 1013 4856 
Q 1481 4119 1714 3412 
Q 1947 2706 1947 2009 
Q 1947 1309 1714 600 
Q 1481 -109 1013 -844 
L 513 -844 
Q 928 -128 1133 580 
Q 1338 1288 1338 2009 
Q 1338 2731 1133 3434 
Q 928 4138 513 4856 
z
" transform="scale(0.015625)"/>
      </defs>
      <use xlink:href="#DejaVuSans-54"/>
      <use xlink:href="#DejaVuSans-49" x="61.083984"/>
      <use xlink:href="#DejaVuSans-4d" x="90.576172"/>
      <use xlink:href="#DejaVuSans-45" x="176.855469"/>
      <use xlink:href="#DejaVuSans-20" x="240.039062"/>
      <use xlink:href="#DejaVuSans-28" x="271.826172"/>
      <use xlink:href="#DejaVuSans-44" x="310.839844"/>
      <use xlink:href="#DejaVuSans-41" x="386.091797"/>
      <use xlink:href="#DejaVuSans-59" x="446.75"/>
      <use xlink:href="#DejaVuSans-53" x="507.833984"/>
      <use xlink:href="#DejaVuSans-29" x="571.310547"/>
     </g>
    </g>
   </g>
   <g id="matplotlib.axis_2">
    <g id="ytick_1">
     <g id="line2d_8">
      <defs>
       <path id="m78c967a725" d="M 0 0 
L -3.5 0 
" style="stroke: #000000; stroke-width: 0.8"/>
      </defs>
      <g>
       <use xlink:href="#m78c967a725" x="108" y="307.8" style="stroke: #000000; stroke-width: 0.8"/>
      </g>
     </g>
     <g id="text_9">
      <!-- 0 -->
      <g transform="translate(93.365 312.359062) scale(0.12 -0.12)">
       <use xlink:href="#DejaVuSans-30"/>
      </g>
     </g>
    </g>
    <g id="ytick_2">
     <g id="line2d_9">
      <g>
       <use xlink:href="#m78c967a725" x="108" y="271.593103" style="stroke: #000000; stroke-width: 0.8"/>
      </g>
     </g>
     <g id="text_10">
      <!-- 25 -->
      <g transform="translate(85.73 276.152166) scale(0.12 -0.12)">
       <use xlink:href="#DejaVuSans-32"/>
       <use xlink:href="#DejaVuSans-35" x="63.623047"/>
      </g>
     </g>
    </g>
    <g id="ytick_3">
     <g id="line2d_10">
      <g>
       <use xlink:href="#m78c967a725" x="108" y="235.386207" style="stroke: #000000; stroke-width: 0.8"/>
      </g>
     </g>
     <g id="text_11">
      <!-- 50 -->
      <g transform="translate(85.73 239.945269) scale(0.12 -0.12)">
       <use xlink:href="#DejaVuSans-35"/>
       <use xlink:href="#DejaVuSans-30" x="63.623047"/>
      </g>
     </g>
    </g>
    <g id="ytick_4">
     <g id="line2d_11">
      <g>
       <use xlink:href="#m78c967a725" x="108" y="199.17931" style="stroke: #000000; stroke-width: 0.8"/>
      </g>
     </g>
     <g id="text_12">
      <!-- 75 -->
      <g transform="translate(85.73 203.738373) scale(0.12 -0.12)">
       <use xlink:href="#DejaVuSans-37"/>
       <use xlink:href="#DejaVuSans-35" x="63.623047"/>
      </g>
     </g>
    </g>
    <g id="ytick_5">
     <g id="line2d_12">
      <g>
       <use xlink:href="#m78c967a725" x="108" y="162.972414" style="stroke: #000000; stroke-width: 0.8"/>
      </g>
     </g>
     <g id="text_13">
      <!-- 100 -->
      <g transform="translate(78.095 167.531476) scale(0.12 -0.12)">
       <use xlink:href="#DejaVuSans-31"/>
       <use xlink:href="#DejaVuSans-30" x="63.623047"/>
       <use xlink:href="#DejaVuSans-30" x="127.246094"/>
      </g>
     </g>
    </g>
    <g id="ytick_6">
     <g id="line2d_13">
      <g>
       <use xlink:href="#m78c967a725" x="108" y="126.765517" style="stroke: #000000; stroke-width: 0.8"/>
      </g>
     </g>
     <g id="text_14">
      <!-- 125 -->
      <g transform="translate(78.095 131.32458) scale(0.12 -0.12)">
       <use xlink:href="#DejaVuSans-31"/>
       <use xlink:href="#DejaVuSans-32" x="63.623047"/>
       <use xlink:href="#DejaVuSans-35" x="127.246094"/>
      </g>
     </g>
    </g>
    <g id="ytick_7">
     <g id="line2d_14">
      <g>
       <use xlink:href="#m78c967a725" x="108" y="90.558621" style="stroke: #000000; stroke-width: 0.8"/>
      </g>
     </g>
     <g id="text_15">
      <!-- 150 -->
      <g transform="translate(78.095 95.117683) scale(0.12 -0.12)">
       <use xlink:href="#DejaVuSans-31"/>
       <use xlink:href="#DejaVuSans-35" x="63.623047"/>
       <use xlink:href="#DejaVuSans-30" x="127.246094"/>
      </g>
     </g>
    </g>
    <g id="ytick_8">
     <g id="line2d_15">
      <g>
       <use xlink:href="#m78c967a725" x="108" y="54.351724" style="stroke: #000000; stroke-width: 0.8"/>
      </g>
     </g>
     <g id="text_16">
      <!-- 175 -->
      <g transform="translate(78.095 58.910787) scale(0.12 -0.12)">
       <use xlink:href="#DejaVuSans-31"/>
       <use xlink:href="#DejaVuSans-37" x="63.623047"/>
       <use xlink:href="#DejaVuSans-35" x="127.246094"/>
      </g>
     </g>
    </g>
    <g id="text_17">
     <!-- SIMULATED -->
     <g transform="translate(52.851 227.5875) rotate(-90) scale(0.16 -0.16)">
      <defs>
       <path id="DejaVuSans-55" d="M 556 4666 
L 1191 4666 
L 1191 1831 
Q 1191 1081 1462 751 
Q 1734 422 2344 422 
Q 2950 422 3222 751 
Q 3494 1081 3494 1831 
L 3494 4666 
L 4128 4666 
L 4128 1753 
Q 4128 841 3676 375 
Q 3225 -91 2344 -91 
Q 1459 -91 1007 375 
Q 556 841 556 1753 
L 556 4666 
z
" transform="scale(0.015625)"/>
       <path id="DejaVuSans-4c" d="M 628 4666 
L 1259 4666 
L 1259 531 
L 3531 531 
L 3531 0 
L 628 0 
L 628 4666 
z
" transform="scale(0.015625)"/>
      </defs>
      <use xlink:href="#DejaVuSans-53"/>
      <use xlink:href="#DejaVuSans-49" x="63.476562"/>
      <use xlink:href="#DejaVuSans-4d" x="92.96875"/>
      <use xlink:href="#DejaVuSans-55" x="179.248047"/>
      <use xlink:href="#DejaVuSans-4c" x="252.441406"/>
      <use xlink:href="#DejaVuSans-41" x="310.404297"/>
      <use xlink:href="#DejaVuSans-54" x="371.0625"/>
      <use xlink:href="#DejaVuSans-45" x="432.146484"/>
      <use xlink:href="#DejaVuSans-44" x="495.330078"/>
     </g>
     <!-- AMPLITUDE -->
     <g transform="translate(70.7675 227.7725) rotate(-90) scale(0.16 -0.16)">
      <defs>
       <path id="DejaVuSans-50" d="M 1259 4147 
L 1259 2394 
L 2053 2394 
Q 2494 2394 2734 2622 
Q 2975 2850 2975 3272 
Q 2975 3691 2734 3919 
Q 2494 4147 2053 4147 
L 1259 4147 
z
M 628 4666 
L 2053 4666 
Q 2838 4666 3239 4311 
Q 3641 3956 3641 3272 
Q 3641 2581 3239 2228 
Q 2838 1875 2053 1875 
L 1259 1875 
L 1259 0 
L 628 0 
L 628 4666 
z
" transform="scale(0.015625)"/>
      </defs>
      <use xlink:href="#DejaVuSans-41"/>
      <use xlink:href="#DejaVuSans-4d" x="68.408203"/>
      <use xlink:href="#DejaVuSans-50" x="154.6875"/>
      <use xlink:href="#DejaVuSans-4c" x="214.990234"/>
      <use xlink:href="#DejaVuSans-49" x="270.703125"/>
      <use xlink:href="#DejaVuSans-54" x="300.195312"/>
      <use xlink:href="#DejaVuSans-55" x="361.279297"/>
      <use xlink:href="#DejaVuSans-44" x="434.472656"/>
      <use xlink:href="#DejaVuSans-45" x="511.474609"/>
     </g>
    </g>
   </g>
   <g id="line2d_16">
    <path d="M 138.436364 262.903448 
L 139.413454 232.489655 
L 140.390544 258.558621 
L 141.367635 307.8 
L 142.344725 164.42069 
L 143.321815 307.8 
L 144.298906 212.213793 
L 145.275996 307.8 
L 146.253086 307.8 
L 147.230177 233.937931 
L 148.207267 307.8 
L 149.184357 303.455172 
L 150.161448 300.558621 
L 151.138538 307.8 
L 152.115628 231.041379 
L 154.069809 307.8 
L 155.046899 273.041379 
L 156.023989 273.041379 
L 157.00108 296.213793 
L 157.97817 307.8 
L 158.95526 260.006897 
L 159.932351 251.317241 
L 160.909441 264.351724 
L 161.886531 255.662069 
L 162.863622 181.8 
L 163.840712 180.351724 
L 164.817802 231.041379 
L 165.794893 155.731034 
L 166.771983 118.075862 
L 167.749073 184.696552 
L 168.726164 123.868966 
L 169.703254 134.006897 
L 170.680344 71.731034 
L 171.657435 239.731034 
L 172.634525 109.386207 
L 173.611615 148.489655 
L 174.588706 109.386207 
L 175.565796 99.248276 
L 176.542886 171.662069 
L 177.519977 281.731034 
L 178.497067 191.937931 
L 179.474157 161.524138 
L 180.451248 167.317241 
L 181.428338 138.351724 
L 182.405428 248.42069 
L 183.382519 212.213793 
L 184.359609 255.662069 
L 185.336699 246.972414 
L 186.31379 218.006897 
L 187.29088 306.351724 
L 188.26797 245.524138 
L 189.245061 226.696552 
L 190.222151 307.8 
L 191.199241 242.627586 
L 192.176332 302.006897 
L 193.153422 261.455172 
L 194.130512 270.144828 
L 195.107603 241.17931 
L 196.084693 307.8 
L 197.061783 300.558621 
L 198.038873 299.110345 
L 199.015964 233.937931 
L 199.993054 245.524138 
L 200.970144 307.8 
L 201.947235 288.972414 
L 202.924325 260.006897 
L 203.901415 145.593103 
L 204.878506 281.731034 
L 205.855596 235.386207 
L 206.832686 284.627586 
L 207.809777 283.17931 
L 208.786867 220.903448 
L 209.763957 222.351724 
L 210.741048 178.903448 
L 211.718138 232.489655 
L 212.695228 273.041379 
L 213.672319 158.627586 
L 214.649409 142.696552 
L 215.626499 207.868966 
L 216.60359 103.593103 
L 217.58068 141.248276 
L 218.55777 107.937931 
L 219.534861 186.144828 
L 220.511951 223.8 
L 221.489041 202.075862 
L 222.466132 112.282759 
L 223.443222 170.213793 
L 224.420312 139.8 
L 225.397403 197.731034 
L 226.374493 218.006897 
L 227.351583 206.42069 
L 228.328674 235.386207 
L 229.305764 233.937931 
L 230.282854 167.317241 
L 231.259945 270.144828 
L 232.237035 168.765517 
L 233.214125 231.041379 
L 234.191216 225.248276 
L 235.168306 189.041379 
L 236.145396 248.42069 
L 237.122487 257.110345 
L 239.076667 189.041379 
L 240.053757 307.8 
L 241.030848 284.627586 
L 242.007938 216.558621 
L 242.985028 307.8 
L 243.962119 249.868966 
L 244.939209 307.8 
L 245.916299 235.386207 
L 246.89339 299.110345 
L 247.87048 307.8 
L 248.84757 307.8 
L 249.824661 291.868966 
L 250.801751 283.17931 
L 251.778841 307.8 
L 252.755932 284.627586 
L 253.733022 233.937931 
L 254.710112 242.627586 
L 255.687203 189.041379 
L 256.664293 216.558621 
L 257.641383 138.351724 
L 258.618474 228.144828 
L 259.595564 139.8 
L 260.572654 218.006897 
L 261.549745 178.903448 
L 262.526835 131.110345 
L 263.503925 165.868966 
L 264.481016 158.627586 
L 265.458106 83.317241 
L 266.435196 173.110345 
L 267.412287 168.765517 
L 268.389377 138.351724 
L 269.366467 223.8 
L 270.343558 158.627586 
L 272.297738 197.731034 
L 273.274829 210.765517 
L 274.251919 162.972414 
L 275.229009 288.972414 
L 276.2061 255.662069 
L 277.18319 270.144828 
L 278.16028 238.282759 
L 279.13737 225.248276 
L 280.114461 181.8 
L 281.091551 203.524138 
L 282.068641 294.765517 
L 283.045732 139.8 
L 284.022822 242.627586 
L 284.999912 307.8 
L 287.931183 307.8 
L 288.908274 246.972414 
L 289.885364 286.075862 
L 290.862454 258.558621 
L 291.839545 307.8 
L 292.816635 307.8 
L 293.793725 200.627586 
L 294.770816 307.8 
L 295.747906 238.282759 
L 296.724996 261.455172 
L 297.702087 270.144828 
L 298.679177 307.8 
L 299.656267 207.868966 
L 300.633358 148.489655 
L 301.610448 210.765517 
L 302.587538 165.868966 
L 303.564629 141.248276 
L 304.541719 77.524138 
L 305.518809 257.110345 
L 306.4959 174.558621 
L 307.47299 141.248276 
L 308.45008 196.282759 
L 310.404261 97.8 
L 312.358442 200.627586 
L 314.312622 76.075862 
L 315.289713 210.765517 
L 316.266803 160.075862 
L 317.243893 187.593103 
L 318.220984 207.868966 
L 319.198074 178.903448 
L 321.152254 246.972414 
L 322.129345 183.248276 
L 323.106435 241.17931 
L 324.083525 215.110345 
L 325.060616 283.17931 
L 326.037706 302.006897 
L 327.014796 249.868966 
L 327.991887 293.317241 
L 328.968977 170.213793 
L 330.923158 307.8 
L 331.900248 307.8 
L 332.877338 296.213793 
L 333.854429 307.8 
L 335.808609 307.8 
L 336.7857 290.42069 
L 337.76279 307.8 
L 338.73988 264.351724 
L 339.716971 307.8 
L 340.694061 232.489655 
L 341.671151 306.351724 
L 342.648242 307.8 
L 343.625332 254.213793 
L 344.602422 226.696552 
L 345.579513 265.8 
L 346.556603 235.386207 
L 347.533693 273.041379 
L 348.510784 296.213793 
L 349.487874 191.937931 
L 350.464964 165.868966 
L 351.442055 147.041379 
L 352.419145 184.696552 
L 353.396235 161.524138 
L 354.373326 128.213793 
L 355.350416 186.144828 
L 356.327506 147.041379 
L 357.304597 176.006897 
L 358.281687 157.17931 
L 359.258777 187.593103 
L 360.235868 178.903448 
L 361.212958 139.8 
L 362.190048 307.8 
L 363.167138 110.834483 
L 364.144229 160.075862 
L 365.121319 105.041379 
L 367.0755 273.041379 
L 368.05259 212.213793 
L 369.02968 293.317241 
L 370.006771 162.972414 
L 370.983861 170.213793 
L 371.960951 186.144828 
L 372.938042 199.17931 
L 373.915132 307.8 
L 374.892222 252.765517 
L 375.869313 307.8 
L 376.846403 307.8 
L 377.823493 280.282759 
L 378.800584 307.8 
L 382.708945 307.8 
L 383.686035 281.731034 
L 384.663126 297.662069 
L 385.640216 307.8 
L 386.617306 248.42069 
L 387.594397 287.524138 
L 388.571487 267.248276 
L 389.548577 184.696552 
L 390.525668 296.213793 
L 391.502758 248.42069 
L 392.479848 206.42069 
L 393.456939 229.593103 
L 394.434029 191.937931 
L 395.411119 189.041379 
L 396.38821 284.627586 
L 397.3653 157.17931 
L 398.34239 184.696552 
L 399.319481 260.006897 
L 400.296571 90.558621 
L 401.273661 189.041379 
L 402.250751 149.937931 
L 403.227842 149.937931 
L 404.204932 190.489655 
L 405.182022 123.868966 
L 406.159113 174.558621 
L 407.136203 170.213793 
L 408.113293 189.041379 
L 409.090384 152.834483 
L 410.067474 200.627586 
L 411.044564 204.972414 
L 412.021655 148.489655 
L 412.998745 142.696552 
L 413.975835 174.558621 
L 414.952926 110.834483 
L 415.930016 223.8 
L 416.907106 257.110345 
L 417.884197 105.041379 
L 419.838377 307.8 
L 420.815468 299.110345 
L 421.792558 283.17931 
L 422.769648 299.110345 
L 423.746739 257.110345 
L 424.723829 258.558621 
L 425.700919 307.8 
L 426.67801 307.8 
L 427.6551 297.662069 
L 428.63219 277.386207 
L 429.609281 307.8 
L 430.586371 264.351724 
L 431.563461 262.903448 
L 432.540552 307.8 
L 433.517642 296.213793 
L 434.494732 294.765517 
L 435.471823 251.317241 
L 436.448913 262.903448 
L 437.426003 261.455172 
L 438.403094 245.524138 
L 439.380184 288.972414 
L 440.357274 174.558621 
L 441.334365 165.868966 
L 442.311455 262.903448 
L 443.288545 128.213793 
L 444.265635 307.8 
L 445.242726 125.317241 
L 446.219816 115.17931 
L 447.196906 286.075862 
L 448.173997 222.351724 
L 449.151087 115.17931 
L 450.128177 136.903448 
L 451.105268 141.248276 
L 452.082358 149.937931 
L 453.059448 184.696552 
L 454.036539 170.213793 
L 455.013629 222.351724 
L 455.990719 123.868966 
L 456.96781 74.627586 
L 457.9449 183.248276 
L 458.92199 191.937931 
L 459.899081 183.248276 
L 460.876171 136.903448 
L 461.853261 267.248276 
L 462.830352 220.903448 
L 463.807442 242.627586 
L 464.784532 280.282759 
L 465.761623 281.731034 
L 466.738713 277.386207 
L 467.715803 264.351724 
L 468.692894 280.282759 
L 469.669984 223.8 
L 470.647074 307.8 
L 471.624165 307.8 
L 472.601255 203.524138 
L 473.578345 307.8 
L 474.555436 307.8 
L 475.532526 244.075862 
L 476.509616 260.006897 
L 477.486707 294.765517 
L 478.463797 296.213793 
L 479.440887 307.8 
L 481.395068 307.8 
L 482.372158 196.282759 
L 483.349249 261.455172 
L 484.326339 223.8 
L 485.303429 273.041379 
L 486.280519 154.282759 
L 487.25761 249.868966 
L 488.2347 232.489655 
L 490.188881 186.144828 
L 491.165971 225.248276 
L 492.143061 110.834483 
L 493.120152 184.696552 
L 494.097242 187.593103 
L 495.074332 207.868966 
L 496.051423 174.558621 
L 497.028513 96.351724 
L 498.005603 284.627586 
L 498.982694 220.903448 
L 499.959784 199.17931 
L 500.936874 261.455172 
L 501.913965 100.696552 
L 502.891055 191.937931 
L 503.868145 110.834483 
L 504.845236 97.8 
L 505.822326 213.662069 
L 506.799416 151.386207 
L 507.776507 264.351724 
L 508.753597 162.972414 
L 509.730687 239.731034 
L 510.707778 171.662069 
L 511.684868 212.213793 
L 512.661958 189.041379 
L 513.639049 307.8 
L 514.616139 176.006897 
L 515.593229 307.8 
L 516.57032 246.972414 
L 517.54741 220.903448 
L 518.5245 307.8 
L 519.501591 290.42069 
L 520.478681 287.524138 
L 521.455771 307.8 
L 522.432862 307.8 
L 523.409952 291.868966 
L 524.387042 283.17931 
L 525.364132 261.455172 
L 526.341223 261.455172 
L 527.318313 307.8 
L 528.295403 307.8 
L 529.272494 223.8 
L 530.249584 290.42069 
L 531.226674 242.627586 
L 532.203765 238.282759 
L 533.180855 147.041379 
L 534.157945 297.662069 
L 535.135036 270.144828 
L 536.112126 251.317241 
L 537.089216 144.144828 
L 538.066307 200.627586 
L 540.020487 200.627586 
L 540.997578 180.351724 
L 541.974668 141.248276 
L 542.951758 183.248276 
L 543.928849 100.696552 
L 544.905939 110.834483 
L 545.883029 177.455172 
L 546.86012 97.8 
L 548.8143 134.006897 
L 549.791391 147.041379 
L 550.768481 177.455172 
L 551.745571 55.8 
L 552.722662 157.17931 
L 554.676842 260.006897 
L 555.653933 275.937931 
L 556.631023 160.075862 
L 557.608113 265.8 
L 558.585204 207.868966 
L 559.562294 203.524138 
L 560.539384 238.282759 
L 561.516475 218.006897 
L 562.493565 164.42069 
L 563.470655 296.213793 
L 564.447746 229.593103 
L 565.424836 238.282759 
L 566.401926 307.8 
L 567.379016 307.8 
L 568.356107 302.006897 
L 569.333197 307.8 
L 570.310287 304.903448 
L 571.287378 307.8 
L 573.241558 307.8 
L 574.218649 254.213793 
L 575.195739 307.8 
L 577.14992 307.8 
L 578.12701 154.282759 
L 579.1041 297.662069 
L 580.081191 281.731034 
L 581.058281 307.8 
L 582.035371 181.8 
L 583.012462 200.627586 
L 583.989552 296.213793 
L 584.966642 251.317241 
L 585.943733 184.696552 
L 586.920823 200.627586 
L 587.897913 200.627586 
L 588.875004 210.765517 
L 589.852094 123.868966 
L 590.829184 225.248276 
L 591.806275 131.110345 
L 592.783365 134.006897 
L 593.760455 84.765517 
L 594.737546 186.144828 
L 595.714636 107.937931 
L 596.691726 170.213793 
L 597.668817 170.213793 
L 598.645907 206.42069 
L 599.622997 142.696552 
L 600.600088 161.524138 
L 601.577178 118.075862 
L 602.554268 180.351724 
L 603.531359 204.972414 
L 604.508449 196.282759 
L 605.485539 128.213793 
L 606.46263 200.627586 
L 607.43972 287.524138 
L 608.41681 307.8 
L 609.3939 307.8 
L 610.370991 294.765517 
L 611.348081 307.8 
L 613.302262 307.8 
L 614.279352 200.627586 
L 615.256442 293.317241 
L 616.233533 307.8 
L 617.210623 290.42069 
L 618.187713 241.17931 
L 619.164804 283.17931 
L 620.141894 307.8 
L 621.118984 307.8 
L 622.096075 231.041379 
L 623.073165 216.558621 
L 625.027346 307.8 
L 626.004436 267.248276 
L 626.981526 307.8 
L 627.958617 207.868966 
L 628.935707 251.317241 
L 629.912797 246.972414 
L 630.889888 254.213793 
L 631.866978 135.455172 
L 632.844068 219.455172 
L 633.821159 171.662069 
L 634.798249 63.041379 
L 635.775339 232.489655 
L 636.75243 162.972414 
L 637.72952 162.972414 
L 638.70661 139.8 
L 639.683701 135.455172 
L 640.660791 97.8 
L 641.637881 202.075862 
L 642.614972 174.558621 
L 643.592062 200.627586 
L 644.569152 168.765517 
L 645.546243 157.17931 
L 646.523333 161.524138 
L 647.500423 271.593103 
L 648.477513 257.110345 
L 649.454604 245.524138 
L 650.431694 222.351724 
L 651.408784 307.8 
L 652.385875 233.937931 
L 653.362965 216.558621 
L 654.340055 307.8 
L 658.248417 307.8 
L 659.225507 236.834483 
L 660.202597 278.834483 
L 661.179688 307.8 
L 662.156778 257.110345 
L 663.133868 307.8 
L 664.110959 267.248276 
L 665.088049 303.455172 
L 666.065139 307.8 
L 667.04223 307.8 
L 668.01932 251.317241 
L 668.99641 244.075862 
L 669.973501 307.8 
L 670.950591 275.937931 
L 671.927681 306.351724 
L 672.904772 299.110345 
L 673.881862 238.282759 
L 675.836043 307.8 
L 676.813133 258.558621 
L 677.790223 112.282759 
L 678.767314 148.489655 
L 679.744404 173.110345 
L 680.721494 154.282759 
L 681.698585 203.524138 
L 682.675675 275.937931 
L 683.652765 141.248276 
L 684.629856 223.8 
L 685.606946 187.593103 
L 686.584036 102.144828 
L 687.561127 142.696552 
L 689.515307 181.8 
L 690.492397 132.558621 
L 691.469488 186.144828 
L 692.446578 181.8 
L 693.423668 196.282759 
L 694.400759 245.524138 
L 695.377849 268.696552 
L 696.354939 287.524138 
L 697.33203 218.006897 
L 698.30912 193.386207 
L 699.28621 231.041379 
L 700.263301 223.8 
L 701.240391 202.075862 
L 702.217481 213.662069 
L 703.194572 267.248276 
L 704.171662 307.8 
L 705.148752 284.627586 
L 706.125843 307.8 
L 707.102933 246.972414 
L 708.080023 307.8 
L 709.057114 288.972414 
L 710.034204 307.8 
L 711.011294 275.937931 
L 712.965475 307.8 
L 713.942565 307.8 
L 714.919656 302.006897 
L 715.896746 307.8 
L 716.873836 233.937931 
L 717.850927 257.110345 
L 718.828017 264.351724 
L 719.805107 162.972414 
L 720.782198 223.8 
L 721.759288 136.903448 
L 722.736378 135.455172 
L 723.713469 212.213793 
L 724.690559 255.662069 
L 726.64474 134.006897 
L 727.62183 218.006897 
L 728.59892 190.489655 
L 729.576011 219.455172 
L 730.553101 196.282759 
L 731.530191 109.386207 
L 732.507281 118.075862 
L 733.484372 147.041379 
L 734.461462 206.42069 
L 735.438552 116.627586 
L 736.415643 125.317241 
L 737.392733 186.144828 
L 738.369823 189.041379 
L 739.346914 170.213793 
L 740.324004 186.144828 
L 741.301094 239.731034 
L 742.278185 236.834483 
L 743.255275 307.8 
L 744.232365 267.248276 
L 745.209456 236.834483 
L 746.186546 280.282759 
L 747.163636 307.8 
L 747.163636 307.8 
" clip-path="url(#p3a5d05cb4c)" style="fill: none; stroke: #191970; stroke-width: 2; stroke-linecap: square"/>
   </g>
   <g id="patch_3">
    <path d="M 108 320.4 
L 108 43.2 
" style="fill: none; stroke: #000000; stroke-width: 0.8; stroke-linejoin: miter; stroke-linecap: square"/>
   </g>
   <g id="patch_4">
    <path d="M 777.6 320.4 
L 777.6 43.2 
" style="fill: none; stroke: #000000; stroke-width: 0.8; stroke-linejoin: miter; stroke-linecap: square"/>
   </g>
   <g id="patch_5">
    <path d="M 108 320.4 
L 777.6 320.4 
" style="fill: none; stroke: #000000; stroke-width: 0.8; stroke-linejoin: miter; stroke-linecap: square"/>
   </g>
   <g id="patch_6">
    <path d="M 108 43.2 
L 777.6 43.2 
" style="fill: none; stroke: #000000; stroke-width: 0.8; stroke-linejoin: miter; stroke-linecap: square"/>
   </g>
   <g id="text_18">
    <!-- TIME SERIES -->
    <g transform="translate(386.625938 37.2) scale(0.18 -0.18)">
     <defs>
      <path id="DejaVuSans-52" d="M 2841 2188 
Q 3044 2119 3236 1894 
Q 3428 1669 3622 1275 
L 4263 0 
L 3584 0 
L 2988 1197 
Q 2756 1666 2539 1819 
Q 2322 1972 1947 1972 
L 1259 1972 
L 1259 0 
L 628 0 
L 628 4666 
L 2053 4666 
Q 2853 4666 3247 4331 
Q 3641 3997 3641 3322 
Q 3641 2881 3436 2590 
Q 3231 2300 2841 2188 
z
M 1259 4147 
L 1259 2491 
L 2053 2491 
Q 2509 2491 2742 2702 
Q 2975 2913 2975 3322 
Q 2975 3731 2742 3939 
Q 2509 4147 2053 4147 
L 1259 4147 
z
" transform="scale(0.015625)"/>
     </defs>
     <use xlink:href="#DejaVuSans-54"/>
     <use xlink:href="#DejaVuSans-49" x="61.083984"/>
     <use xlink:href="#DejaVuSans-4d" x="90.576172"/>
     <use xlink:href="#DejaVuSans-45" x="176.855469"/>
     <use xlink:href="#DejaVuSans-20" x="240.039062"/>
     <use xlink:href="#DejaVuSans-53" x="271.826172"/>
     <use xlink:href="#DejaVuSans-45" x="335.302734"/>
     <use xlink:href="#DejaVuSans-52" x="398.486328"/>
     <use xlink:href="#DejaVuSans-49" x="467.96875"/>
     <use xlink:href="#DejaVuSans-45" x="497.460938"/>
     <use xlink:href="#DejaVuSans-53" x="560.644531"/>
    </g>
   </g>
  </g>
 </g>
 <defs>
  <clipPath id="p3a5d05cb4c">
   <rect x="108" y="43.2" width="669.6" height="277.2"/>
  </clipPath>
 </defs>
</svg>
