<?xml version="1.0" encoding="utf-8" standalone="no"?>
<!DOCTYPE svg PUBLIC "-//W3C//DTD SVG 1.1//EN"
  "http://www.w3.org/Graphics/SVG/1.1/DTD/svg11.dtd">
<svg xmlns:xlink="http://www.w3.org/1999/xlink" width="864pt" height="360pt" viewBox="0 0 864 360" xmlns="http://www.w3.org/2000/svg" version="1.1">
 <metadata>
  <rdf:RDF xmlns:dc="http://purl.org/dc/elements/1.1/" xmlns:cc="http://creativecommons.org/ns#" xmlns:rdf="http://www.w3.org/1999/02/22-rdf-syntax-ns#">
   <cc:Work>
    <dc:type rdf:resource="http://purl.org/dc/dcmitype/StillImage"/>
    <dc:date>2023-11-27T20:50:41.990122</dc:date>
    <dc:format>image/svg+xml</dc:format>
    <dc:creator>
     <cc:Agent>
      <dc:title>Matplotlib v3.7.4, https://matplotlib.org/</dc:title>
     </cc:Agent>
    </dc:creator>
   </cc:Work>
  </rdf:RDF>
 </metadata>
 <defs>
  <style type="text/css">*{stroke-linejoin: round; stroke-linecap: butt}</style>
 </defs>
 <g id="figure_1">
  <g id="patch_1">
   <path d="M 0 360 
L 864 360 
L 864 0 
L 0 0 
z
" style="fill: #ffffff"/>
  </g>
  <g id="axes_1">
   <g id="patch_2">
    <path d="M 108 320.4 
L 777.6 320.4 
L 777.6 43.2 
L 108 43.2 
z
" style="fill: #ffffff"/>
   </g>
   <g id="matplotlib.axis_1">
    <g id="xtick_1">
     <g id="line2d_1">
      <defs>
       <path id="me2907b4309" d="M 0 0 
L 0 3.5 
" style="stroke: #000000; stroke-width: 0.8"/>
      </defs>
      <g>
       <use xlink:href="#me2907b4309" x="138.436364" y="320.4" style="stroke: #000000; stroke-width: 0.8"/>
      </g>
     </g>
     <g id="text_1">
      <!-- 2022-01-01 -->
      <g transform="translate(103.566989 336.518125) scale(0.12 -0.12)">
       <defs>
        <path id="DejaVuSans-32" d="M 1228 531 
L 3431 531 
L 3431 0 
L 469 0 
L 469 531 
Q 828 903 1448 1529 
Q 2069 2156 2228 2338 
Q 2531 2678 2651 2914 
Q 2772 3150 2772 3378 
Q 2772 3750 2511 3984 
Q 2250 4219 1831 4219 
Q 1534 4219 1204 4116 
Q 875 4013 500 3803 
L 500 4441 
Q 881 4594 1212 4672 
Q 1544 4750 1819 4750 
Q 2544 4750 2975 4387 
Q 3406 4025 3406 3419 
Q 3406 3131 3298 2873 
Q 3191 2616 2906 2266 
Q 2828 2175 2409 1742 
Q 1991 1309 1228 531 
z
" transform="scale(0.015625)"/>
        <path id="DejaVuSans-30" d="M 2034 4250 
Q 1547 4250 1301 3770 
Q 1056 3291 1056 2328 
Q 1056 1369 1301 889 
Q 1547 409 2034 409 
Q 2525 409 2770 889 
Q 3016 1369 3016 2328 
Q 3016 3291 2770 3770 
Q 2525 4250 2034 4250 
z
M 2034 4750 
Q 2819 4750 3233 4129 
Q 3647 3509 3647 2328 
Q 3647 1150 3233 529 
Q 2819 -91 2034 -91 
Q 1250 -91 836 529 
Q 422 1150 422 2328 
Q 422 3509 836 4129 
Q 1250 4750 2034 4750 
z
" transform="scale(0.015625)"/>
        <path id="DejaVuSans-2d" d="M 313 2009 
L 1997 2009 
L 1997 1497 
L 313 1497 
L 313 2009 
z
" transform="scale(0.015625)"/>
        <path id="DejaVuSans-31" d="M 794 531 
L 1825 531 
L 1825 4091 
L 703 3866 
L 703 4441 
L 1819 4666 
L 2450 4666 
L 2450 531 
L 3481 531 
L 3481 0 
L 794 0 
L 794 531 
z
" transform="scale(0.015625)"/>
       </defs>
       <use xlink:href="#DejaVuSans-32"/>
       <use xlink:href="#DejaVuSans-30" x="63.623047"/>
       <use xlink:href="#DejaVuSans-32" x="127.246094"/>
       <use xlink:href="#DejaVuSans-32" x="190.869141"/>
       <use xlink:href="#DejaVuSans-2d" x="254.492188"/>
       <use xlink:href="#DejaVuSans-30" x="290.576172"/>
       <use xlink:href="#DejaVuSans-31" x="354.199219"/>
       <use xlink:href="#DejaVuSans-2d" x="417.822266"/>
       <use xlink:href="#DejaVuSans-30" x="453.90625"/>
       <use xlink:href="#DejaVuSans-31" x="517.529297"/>
      </g>
     </g>
    </g>
    <g id="xtick_2">
     <g id="line2d_2">
      <g>
       <use xlink:href="#me2907b4309" x="219.712884" y="320.4" style="stroke: #000000; stroke-width: 0.8"/>
      </g>
     </g>
     <g id="text_2">
      <!-- 2022-01-03 -->
      <g transform="translate(184.843509 336.518125) scale(0.12 -0.12)">
       <defs>
        <path id="DejaVuSans-33" d="M 2597 2516 
Q 3050 2419 3304 2112 
Q 3559 1806 3559 1356 
Q 3559 666 3084 287 
Q 2609 -91 1734 -91 
Q 1441 -91 1130 -33 
Q 819 25 488 141 
L 488 750 
Q 750 597 1062 519 
Q 1375 441 1716 441 
Q 2309 441 2620 675 
Q 2931 909 2931 1356 
Q 2931 1769 2642 2001 
Q 2353 2234 1838 2234 
L 1294 2234 
L 1294 2753 
L 1863 2753 
Q 2328 2753 2575 2939 
Q 2822 3125 2822 3475 
Q 2822 3834 2567 4026 
Q 2313 4219 1838 4219 
Q 1578 4219 1281 4162 
Q 984 4106 628 3988 
L 628 4550 
Q 988 4650 1302 4700 
Q 1616 4750 1894 4750 
Q 2613 4750 3031 4423 
Q 3450 4097 3450 3541 
Q 3450 3153 3228 2886 
Q 3006 2619 2597 2516 
z
" transform="scale(0.015625)"/>
       </defs>
       <use xlink:href="#DejaVuSans-32"/>
       <use xlink:href="#DejaVuSans-30" x="63.623047"/>
       <use xlink:href="#DejaVuSans-32" x="127.246094"/>
       <use xlink:href="#DejaVuSans-32" x="190.869141"/>
       <use xlink:href="#DejaVuSans-2d" x="254.492188"/>
       <use xlink:href="#DejaVuSans-30" x="290.576172"/>
       <use xlink:href="#DejaVuSans-31" x="354.199219"/>
       <use xlink:href="#DejaVuSans-2d" x="417.822266"/>
       <use xlink:href="#DejaVuSans-30" x="453.90625"/>
       <use xlink:href="#DejaVuSans-33" x="517.529297"/>
      </g>
     </g>
    </g>
    <g id="xtick_3">
     <g id="line2d_3">
      <g>
       <use xlink:href="#me2907b4309" x="300.989404" y="320.4" style="stroke: #000000; stroke-width: 0.8"/>
      </g>
     </g>
     <g id="text_3">
      <!-- 2022-01-05 -->
      <g transform="translate(266.120029 336.518125) scale(0.12 -0.12)">
       <defs>
        <path id="DejaVuSans-35" d="M 691 4666 
L 3169 4666 
L 3169 4134 
L 1269 4134 
L 1269 2991 
Q 1406 3038 1543 3061 
Q 1681 3084 1819 3084 
Q 2600 3084 3056 2656 
Q 3513 2228 3513 1497 
Q 3513 744 3044 326 
Q 2575 -91 1722 -91 
Q 1428 -91 1123 -41 
Q 819 9 494 109 
L 494 744 
Q 775 591 1075 516 
Q 1375 441 1709 441 
Q 2250 441 2565 725 
Q 2881 1009 2881 1497 
Q 2881 1984 2565 2268 
Q 2250 2553 1709 2553 
Q 1456 2553 1204 2497 
Q 953 2441 691 2322 
L 691 4666 
z
" transform="scale(0.015625)"/>
       </defs>
       <use xlink:href="#DejaVuSans-32"/>
       <use xlink:href="#DejaVuSans-30" x="63.623047"/>
       <use xlink:href="#DejaVuSans-32" x="127.246094"/>
       <use xlink:href="#DejaVuSans-32" x="190.869141"/>
       <use xlink:href="#DejaVuSans-2d" x="254.492188"/>
       <use xlink:href="#DejaVuSans-30" x="290.576172"/>
       <use xlink:href="#DejaVuSans-31" x="354.199219"/>
       <use xlink:href="#DejaVuSans-2d" x="417.822266"/>
       <use xlink:href="#DejaVuSans-30" x="453.90625"/>
       <use xlink:href="#DejaVuSans-35" x="517.529297"/>
      </g>
     </g>
    </g>
    <g id="xtick_4">
     <g id="line2d_4">
      <g>
       <use xlink:href="#me2907b4309" x="382.265925" y="320.4" style="stroke: #000000; stroke-width: 0.8"/>
      </g>
     </g>
     <g id="text_4">
      <!-- 2022-01-07 -->
      <g transform="translate(347.39655 336.518125) scale(0.12 -0.12)">
       <defs>
        <path id="DejaVuSans-37" d="M 525 4666 
L 3525 4666 
L 3525 4397 
L 1831 0 
L 1172 0 
L 2766 4134 
L 525 4134 
L 525 4666 
z
" transform="scale(0.015625)"/>
       </defs>
       <use xlink:href="#DejaVuSans-32"/>
       <use xlink:href="#DejaVuSans-30" x="63.623047"/>
       <use xlink:href="#DejaVuSans-32" x="127.246094"/>
       <use xlink:href="#DejaVuSans-32" x="190.869141"/>
       <use xlink:href="#DejaVuSans-2d" x="254.492188"/>
       <use xlink:href="#DejaVuSans-30" x="290.576172"/>
       <use xlink:href="#DejaVuSans-31" x="354.199219"/>
       <use xlink:href="#DejaVuSans-2d" x="417.822266"/>
       <use xlink:href="#DejaVuSans-30" x="453.90625"/>
       <use xlink:href="#DejaVuSans-37" x="517.529297"/>
      </g>
     </g>
    </g>
    <g id="xtick_5">
     <g id="line2d_5">
      <g>
       <use xlink:href="#me2907b4309" x="463.542445" y="320.4" style="stroke: #000000; stroke-width: 0.8"/>
      </g>
     </g>
     <g id="text_5">
      <!-- 2022-01-09 -->
      <g transform="translate(428.67307 336.518125) scale(0.12 -0.12)">
       <defs>
        <path id="DejaVuSans-39" d="M 703 97 
L 703 672 
Q 941 559 1184 500 
Q 1428 441 1663 441 
Q 2288 441 2617 861 
Q 2947 1281 2994 2138 
Q 2813 1869 2534 1725 
Q 2256 1581 1919 1581 
Q 1219 1581 811 2004 
Q 403 2428 403 3163 
Q 403 3881 828 4315 
Q 1253 4750 1959 4750 
Q 2769 4750 3195 4129 
Q 3622 3509 3622 2328 
Q 3622 1225 3098 567 
Q 2575 -91 1691 -91 
Q 1453 -91 1209 -44 
Q 966 3 703 97 
z
M 1959 2075 
Q 2384 2075 2632 2365 
Q 2881 2656 2881 3163 
Q 2881 3666 2632 3958 
Q 2384 4250 1959 4250 
Q 1534 4250 1286 3958 
Q 1038 3666 1038 3163 
Q 1038 2656 1286 2365 
Q 1534 2075 1959 2075 
z
" transform="scale(0.015625)"/>
       </defs>
       <use xlink:href="#DejaVuSans-32"/>
       <use xlink:href="#DejaVuSans-30" x="63.623047"/>
       <use xlink:href="#DejaVuSans-32" x="127.246094"/>
       <use xlink:href="#DejaVuSans-32" x="190.869141"/>
       <use xlink:href="#DejaVuSans-2d" x="254.492188"/>
       <use xlink:href="#DejaVuSans-30" x="290.576172"/>
       <use xlink:href="#DejaVuSans-31" x="354.199219"/>
       <use xlink:href="#DejaVuSans-2d" x="417.822266"/>
       <use xlink:href="#DejaVuSans-30" x="453.90625"/>
       <use xlink:href="#DejaVuSans-39" x="517.529297"/>
      </g>
     </g>
    </g>
    <g id="xtick_6">
     <g id="line2d_6">
      <g>
       <use xlink:href="#me2907b4309" x="544.818966" y="320.4" style="stroke: #000000; stroke-width: 0.8"/>
      </g>
     </g>
     <g id="text_6">
      <!-- 2022-01-11 -->
      <g transform="translate(509.949591 336.518125) scale(0.12 -0.12)">
       <use xlink:href="#DejaVuSans-32"/>
       <use xlink:href="#DejaVuSans-30" x="63.623047"/>
       <use xlink:href="#DejaVuSans-32" x="127.246094"/>
       <use xlink:href="#DejaVuSans-32" x="190.869141"/>
       <use xlink:href="#DejaVuSans-2d" x="254.492188"/>
       <use xlink:href="#DejaVuSans-30" x="290.576172"/>
       <use xlink:href="#DejaVuSans-31" x="354.199219"/>
       <use xlink:href="#DejaVuSans-2d" x="417.822266"/>
       <use xlink:href="#DejaVuSans-31" x="453.90625"/>
       <use xlink:href="#DejaVuSans-31" x="517.529297"/>
      </g>
     </g>
    </g>
    <g id="xtick_7">
     <g id="line2d_7">
      <g>
       <use xlink:href="#me2907b4309" x="626.095486" y="320.4" style="stroke: #000000; stroke-width: 0.8"/>
      </g>
     </g>
     <g id="text_7">
      <!-- 2022-01-13 -->
      <g transform="translate(591.226111 336.518125) scale(0.12 -0.12)">
       <use xlink:href="#DejaVuSans-32"/>
       <use xlink:href="#DejaVuSans-30" x="63.623047"/>
       <use xlink:href="#DejaVuSans-32" x="127.246094"/>
       <use xlink:href="#DejaVuSans-32" x="190.869141"/>
       <use xlink:href="#DejaVuSans-2d" x="254.492188"/>
       <use xlink:href="#DejaVuSans-30" x="290.576172"/>
       <use xlink:href="#DejaVuSans-31" x="354.199219"/>
       <use xlink:href="#DejaVuSans-2d" x="417.822266"/>
       <use xlink:href="#DejaVuSans-31" x="453.90625"/>
       <use xlink:href="#DejaVuSans-33" x="517.529297"/>
      </g>
     </g>
    </g>
    <g id="xtick_8">
     <g id="line2d_8">
      <g>
       <use xlink:href="#me2907b4309" x="707.372007" y="320.4" style="stroke: #000000; stroke-width: 0.8"/>
      </g>
     </g>
     <g id="text_8">
      <!-- 2022-01-15 -->
      <g transform="translate(672.502632 336.518125) scale(0.12 -0.12)">
       <use xlink:href="#DejaVuSans-32"/>
       <use xlink:href="#DejaVuSans-30" x="63.623047"/>
       <use xlink:href="#DejaVuSans-32" x="127.246094"/>
       <use xlink:href="#DejaVuSans-32" x="190.869141"/>
       <use xlink:href="#DejaVuSans-2d" x="254.492188"/>
       <use xlink:href="#DejaVuSans-30" x="290.576172"/>
       <use xlink:href="#DejaVuSans-31" x="354.199219"/>
       <use xlink:href="#DejaVuSans-2d" x="417.822266"/>
       <use xlink:href="#DejaVuSans-31" x="453.90625"/>
       <use xlink:href="#DejaVuSans-35" x="517.529297"/>
      </g>
     </g>
    </g>
    <g id="text_9">
     <!-- TIME (DAYS) -->
     <g transform="translate(393.97375 355.17125) scale(0.16 -0.16)">
      <defs>
       <path id="DejaVuSans-54" d="M -19 4666 
L 3928 4666 
L 3928 4134 
L 2272 4134 
L 2272 0 
L 1638 0 
L 1638 4134 
L -19 4134 
L -19 4666 
z
" transform="scale(0.015625)"/>
       <path id="DejaVuSans-49" d="M 628 4666 
L 1259 4666 
L 1259 0 
L 628 0 
L 628 4666 
z
" transform="scale(0.015625)"/>
       <path id="DejaVuSans-4d" d="M 628 4666 
L 1569 4666 
L 2759 1491 
L 3956 4666 
L 4897 4666 
L 4897 0 
L 4281 0 
L 4281 4097 
L 3078 897 
L 2444 897 
L 1241 4097 
L 1241 0 
L 628 0 
L 628 4666 
z
" transform="scale(0.015625)"/>
       <path id="DejaVuSans-45" d="M 628 4666 
L 3578 4666 
L 3578 4134 
L 1259 4134 
L 1259 2753 
L 3481 2753 
L 3481 2222 
L 1259 2222 
L 1259 531 
L 3634 531 
L 3634 0 
L 628 0 
L 628 4666 
z
" transform="scale(0.015625)"/>
       <path id="DejaVuSans-20" transform="scale(0.015625)"/>
       <path id="DejaVuSans-28" d="M 1984 4856 
Q 1566 4138 1362 3434 
Q 1159 2731 1159 2009 
Q 1159 1288 1364 580 
Q 1569 -128 1984 -844 
L 1484 -844 
Q 1016 -109 783 600 
Q 550 1309 550 2009 
Q 550 2706 781 3412 
Q 1013 4119 1484 4856 
L 1984 4856 
z
" transform="scale(0.015625)"/>
       <path id="DejaVuSans-44" d="M 1259 4147 
L 1259 519 
L 2022 519 
Q 2988 519 3436 956 
Q 3884 1394 3884 2338 
Q 3884 3275 3436 3711 
Q 2988 4147 2022 4147 
L 1259 4147 
z
M 628 4666 
L 1925 4666 
Q 3281 4666 3915 4102 
Q 4550 3538 4550 2338 
Q 4550 1131 3912 565 
Q 3275 0 1925 0 
L 628 0 
L 628 4666 
z
" transform="scale(0.015625)"/>
       <path id="DejaVuSans-41" d="M 2188 4044 
L 1331 1722 
L 3047 1722 
L 2188 4044 
z
M 1831 4666 
L 2547 4666 
L 4325 0 
L 3669 0 
L 3244 1197 
L 1141 1197 
L 716 0 
L 50 0 
L 1831 4666 
z
" transform="scale(0.015625)"/>
       <path id="DejaVuSans-59" d="M -13 4666 
L 666 4666 
L 1959 2747 
L 3244 4666 
L 3922 4666 
L 2272 2222 
L 2272 0 
L 1638 0 
L 1638 2222 
L -13 4666 
z
" transform="scale(0.015625)"/>
       <path id="DejaVuSans-53" d="M 3425 4513 
L 3425 3897 
Q 3066 4069 2747 4153 
Q 2428 4238 2131 4238 
Q 1616 4238 1336 4038 
Q 1056 3838 1056 3469 
Q 1056 3159 1242 3001 
Q 1428 2844 1947 2747 
L 2328 2669 
Q 3034 2534 3370 2195 
Q 3706 1856 3706 1288 
Q 3706 609 3251 259 
Q 2797 -91 1919 -91 
Q 1588 -91 1214 -16 
Q 841 59 441 206 
L 441 856 
Q 825 641 1194 531 
Q 1563 422 1919 422 
Q 2459 422 2753 634 
Q 3047 847 3047 1241 
Q 3047 1584 2836 1778 
Q 2625 1972 2144 2069 
L 1759 2144 
Q 1053 2284 737 2584 
Q 422 2884 422 3419 
Q 422 4038 858 4394 
Q 1294 4750 2059 4750 
Q 2388 4750 2728 4690 
Q 3069 4631 3425 4513 
z
" transform="scale(0.015625)"/>
       <path id="DejaVuSans-29" d="M 513 4856 
L 1013 4856 
Q 1481 4119 1714 3412 
Q 1947 2706 1947 2009 
Q 1947 1309 1714 600 
Q 1481 -109 1013 -844 
L 513 -844 
Q 928 -128 1133 580 
Q 1338 1288 1338 2009 
Q 1338 2731 1133 3434 
Q 928 4138 513 4856 
z
" transform="scale(0.015625)"/>
      </defs>
      <use xlink:href="#DejaVuSans-54"/>
      <use xlink:href="#DejaVuSans-49" x="61.083984"/>
      <use xlink:href="#DejaVuSans-4d" x="90.576172"/>
      <use xlink:href="#DejaVuSans-45" x="176.855469"/>
      <use xlink:href="#DejaVuSans-20" x="240.039062"/>
      <use xlink:href="#DejaVuSans-28" x="271.826172"/>
      <use xlink:href="#DejaVuSans-44" x="310.839844"/>
      <use xlink:href="#DejaVuSans-41" x="386.091797"/>
      <use xlink:href="#DejaVuSans-59" x="446.75"/>
      <use xlink:href="#DejaVuSans-53" x="507.833984"/>
      <use xlink:href="#DejaVuSans-29" x="571.310547"/>
     </g>
    </g>
   </g>
   <g id="matplotlib.axis_2">
    <g id="ytick_1">
     <g id="line2d_9">
      <defs>
       <path id="mda7465dea3" d="M 0 0 
L -3.5 0 
" style="stroke: #000000; stroke-width: 0.8"/>
      </defs>
      <g>
       <use xlink:href="#mda7465dea3" x="108" y="307.8" style="stroke: #000000; stroke-width: 0.8"/>
      </g>
     </g>
     <g id="text_10">
      <!-- 0 -->
      <g transform="translate(93.365 312.359062) scale(0.12 -0.12)">
       <use xlink:href="#DejaVuSans-30"/>
      </g>
     </g>
    </g>
    <g id="ytick_2">
     <g id="line2d_10">
      <g>
       <use xlink:href="#mda7465dea3" x="108" y="273.745946" style="stroke: #000000; stroke-width: 0.8"/>
      </g>
     </g>
     <g id="text_11">
      <!-- 25 -->
      <g transform="translate(85.73 278.305008) scale(0.12 -0.12)">
       <use xlink:href="#DejaVuSans-32"/>
       <use xlink:href="#DejaVuSans-35" x="63.623047"/>
      </g>
     </g>
    </g>
    <g id="ytick_3">
     <g id="line2d_11">
      <g>
       <use xlink:href="#mda7465dea3" x="108" y="239.691892" style="stroke: #000000; stroke-width: 0.8"/>
      </g>
     </g>
     <g id="text_12">
      <!-- 50 -->
      <g transform="translate(85.73 244.250954) scale(0.12 -0.12)">
       <use xlink:href="#DejaVuSans-35"/>
       <use xlink:href="#DejaVuSans-30" x="63.623047"/>
      </g>
     </g>
    </g>
    <g id="ytick_4">
     <g id="line2d_12">
      <g>
       <use xlink:href="#mda7465dea3" x="108" y="205.637838" style="stroke: #000000; stroke-width: 0.8"/>
      </g>
     </g>
     <g id="text_13">
      <!-- 75 -->
      <g transform="translate(85.73 210.1969) scale(0.12 -0.12)">
       <use xlink:href="#DejaVuSans-37"/>
       <use xlink:href="#DejaVuSans-35" x="63.623047"/>
      </g>
     </g>
    </g>
    <g id="ytick_5">
     <g id="line2d_13">
      <g>
       <use xlink:href="#mda7465dea3" x="108" y="171.583784" style="stroke: #000000; stroke-width: 0.8"/>
      </g>
     </g>
     <g id="text_14">
      <!-- 100 -->
      <g transform="translate(78.095 176.142846) scale(0.12 -0.12)">
       <use xlink:href="#DejaVuSans-31"/>
       <use xlink:href="#DejaVuSans-30" x="63.623047"/>
       <use xlink:href="#DejaVuSans-30" x="127.246094"/>
      </g>
     </g>
    </g>
    <g id="ytick_6">
     <g id="line2d_14">
      <g>
       <use xlink:href="#mda7465dea3" x="108" y="137.52973" style="stroke: #000000; stroke-width: 0.8"/>
      </g>
     </g>
     <g id="text_15">
      <!-- 125 -->
      <g transform="translate(78.095 142.088792) scale(0.12 -0.12)">
       <use xlink:href="#DejaVuSans-31"/>
       <use xlink:href="#DejaVuSans-32" x="63.623047"/>
       <use xlink:href="#DejaVuSans-35" x="127.246094"/>
      </g>
     </g>
    </g>
    <g id="ytick_7">
     <g id="line2d_15">
      <g>
       <use xlink:href="#mda7465dea3" x="108" y="103.475676" style="stroke: #000000; stroke-width: 0.8"/>
      </g>
     </g>
     <g id="text_16">
      <!-- 150 -->
      <g transform="translate(78.095 108.034738) scale(0.12 -0.12)">
       <use xlink:href="#DejaVuSans-31"/>
       <use xlink:href="#DejaVuSans-35" x="63.623047"/>
       <use xlink:href="#DejaVuSans-30" x="127.246094"/>
      </g>
     </g>
    </g>
    <g id="ytick_8">
     <g id="line2d_16">
      <g>
       <use xlink:href="#mda7465dea3" x="108" y="69.421622" style="stroke: #000000; stroke-width: 0.8"/>
      </g>
     </g>
     <g id="text_17">
      <!-- 175 -->
      <g transform="translate(78.095 73.980684) scale(0.12 -0.12)">
       <use xlink:href="#DejaVuSans-31"/>
       <use xlink:href="#DejaVuSans-37" x="63.623047"/>
       <use xlink:href="#DejaVuSans-35" x="127.246094"/>
      </g>
     </g>
    </g>
    <g id="text_18">
     <!-- SIMULATED -->
     <g transform="translate(52.851 227.5875) rotate(-90) scale(0.16 -0.16)">
      <defs>
       <path id="DejaVuSans-55" d="M 556 4666 
L 1191 4666 
L 1191 1831 
Q 1191 1081 1462 751 
Q 1734 422 2344 422 
Q 2950 422 3222 751 
Q 3494 1081 3494 1831 
L 3494 4666 
L 4128 4666 
L 4128 1753 
Q 4128 841 3676 375 
Q 3225 -91 2344 -91 
Q 1459 -91 1007 375 
Q 556 841 556 1753 
L 556 4666 
z
" transform="scale(0.015625)"/>
       <path id="DejaVuSans-4c" d="M 628 4666 
L 1259 4666 
L 1259 531 
L 3531 531 
L 3531 0 
L 628 0 
L 628 4666 
z
" transform="scale(0.015625)"/>
      </defs>
      <use xlink:href="#DejaVuSans-53"/>
      <use xlink:href="#DejaVuSans-49" x="63.476562"/>
      <use xlink:href="#DejaVuSans-4d" x="92.96875"/>
      <use xlink:href="#DejaVuSans-55" x="179.248047"/>
      <use xlink:href="#DejaVuSans-4c" x="252.441406"/>
      <use xlink:href="#DejaVuSans-41" x="310.404297"/>
      <use xlink:href="#DejaVuSans-54" x="371.0625"/>
      <use xlink:href="#DejaVuSans-45" x="432.146484"/>
      <use xlink:href="#DejaVuSans-44" x="495.330078"/>
     </g>
     <!-- AMPLITUDE -->
     <g transform="translate(70.7675 227.7725) rotate(-90) scale(0.16 -0.16)">
      <defs>
       <path id="DejaVuSans-50" d="M 1259 4147 
L 1259 2394 
L 2053 2394 
Q 2494 2394 2734 2622 
Q 2975 2850 2975 3272 
Q 2975 3691 2734 3919 
Q 2494 4147 2053 4147 
L 1259 4147 
z
M 628 4666 
L 2053 4666 
Q 2838 4666 3239 4311 
Q 3641 3956 3641 3272 
Q 3641 2581 3239 2228 
Q 2838 1875 2053 1875 
L 1259 1875 
L 1259 0 
L 628 0 
L 628 4666 
z
" transform="scale(0.015625)"/>
      </defs>
      <use xlink:href="#DejaVuSans-41"/>
      <use xlink:href="#DejaVuSans-4d" x="68.408203"/>
      <use xlink:href="#DejaVuSans-50" x="154.6875"/>
      <use xlink:href="#DejaVuSans-4c" x="214.990234"/>
      <use xlink:href="#DejaVuSans-49" x="270.703125"/>
      <use xlink:href="#DejaVuSans-54" x="300.195312"/>
      <use xlink:href="#DejaVuSans-55" x="361.279297"/>
      <use xlink:href="#DejaVuSans-44" x="434.472656"/>
      <use xlink:href="#DejaVuSans-45" x="511.474609"/>
     </g>
    </g>
   </g>
   <g id="line2d_17">
    <path d="M 138.436364 268.297297 
L 139.282994 215.172973 
L 140.129624 260.124324 
L 140.976255 246.502703 
L 141.822885 198.827027 
L 142.669516 307.8 
L 143.516146 307.8 
L 144.362777 279.194595 
L 145.209407 243.778378 
L 146.056037 226.07027 
L 146.902668 262.848649 
L 147.749298 307.8 
L 148.595929 307.8 
L 149.442559 242.416216 
L 150.28919 307.8 
L 151.98245 307.8 
L 152.829081 300.989189 
L 153.675711 302.351351 
L 154.522342 298.264865 
L 155.368972 276.47027 
L 156.215602 224.708108 
L 157.062233 216.535135 
L 157.908863 236.967568 
L 158.755494 307.8 
L 159.602124 245.140541 
L 160.448755 281.918919 
L 161.295385 245.140541 
L 162.142015 228.794595 
L 162.988646 220.621622 
L 163.835276 220.621622 
L 164.681907 55.8 
L 165.528537 243.778378 
L 166.375168 215.172973 
L 167.221798 85.767568 
L 168.068428 177.032432 
L 168.915059 145.702703 
L 169.761689 106.2 
L 170.60832 166.135135 
L 171.45495 137.52973 
L 172.30158 221.983784 
L 173.148211 221.983784 
L 173.994841 196.102703 
L 174.841472 253.313514 
L 175.688102 198.827027 
L 176.534733 190.654054 
L 177.381363 211.086486 
L 178.227993 223.345946 
L 179.074624 208.362162 
L 179.921254 200.189189 
L 180.767885 258.762162 
L 181.614515 287.367568 
L 182.461146 171.583784 
L 183.307776 307.8 
L 184.154406 266.935135 
L 185.001037 246.502703 
L 185.847667 307.8 
L 186.694298 303.713514 
L 187.540928 253.313514 
L 188.387558 307.8 
L 190.080819 307.8 
L 190.92745 295.540541 
L 191.77408 307.8 
L 192.620711 306.437838 
L 193.467341 286.005405 
L 194.313971 261.486486 
L 195.160602 226.07027 
L 196.007232 307.8 
L 196.853863 224.708108 
L 197.700493 241.054054 
L 198.547124 283.281081 
L 199.393754 235.605405 
L 200.240384 226.07027 
L 201.087015 217.897297 
L 201.933645 272.383784 
L 202.780276 185.205405 
L 203.626906 141.616216 
L 204.473536 163.410811 
L 205.320167 307.8 
L 206.166797 91.216216 
L 207.013428 296.902703 
L 207.860058 162.048649 
L 208.706689 197.464865 
L 209.553319 246.502703 
L 210.399949 151.151351 
L 211.24658 186.567568 
L 212.939841 178.394595 
L 213.786471 230.156757 
L 214.633102 216.535135 
L 215.479732 151.151351 
L 216.326362 96.664865 
L 217.172993 196.102703 
L 218.019623 242.416216 
L 219.712884 190.654054 
L 220.559514 292.816216 
L 221.406145 198.827027 
L 222.252775 279.194595 
L 223.099406 193.378378 
L 223.946036 272.383784 
L 224.792667 300.989189 
L 225.639297 307.8 
L 226.485927 266.935135 
L 227.332558 307.8 
L 228.179188 290.091892 
L 229.025819 303.713514 
L 229.872449 265.572973 
L 230.71908 292.816216 
L 231.56571 303.713514 
L 232.41234 235.605405 
L 233.258971 307.8 
L 234.105601 292.816216 
L 234.952232 239.691892 
L 235.798862 232.881081 
L 236.645492 190.654054 
L 237.492123 307.8 
L 238.338753 292.816216 
L 239.185384 280.556757 
L 240.032014 307.8 
L 240.878645 284.643243 
L 241.725275 209.724324 
L 242.571905 212.448649 
L 243.418536 290.091892 
L 244.265166 186.567568 
L 245.111797 226.07027 
L 245.958427 181.118919 
L 246.805058 212.448649 
L 247.651688 170.221622 
L 248.498318 207 
L 249.344949 217.897297 
L 250.191579 117.097297 
L 251.03821 207 
L 251.88484 208.362162 
L 252.73147 157.962162 
L 253.578101 245.140541 
L 254.424731 181.118919 
L 255.271362 234.243243 
L 256.117992 197.464865 
L 256.964623 245.140541 
L 257.811253 107.562162 
L 258.657883 272.383784 
L 259.504514 166.135135 
L 260.351144 196.102703 
L 261.197775 294.178378 
L 262.044405 306.437838 
L 262.891036 307.8 
L 263.737666 178.394595 
L 264.584296 290.091892 
L 265.430927 273.745946 
L 266.277557 250.589189 
L 267.124188 208.362162 
L 267.970818 296.902703 
L 268.817448 245.140541 
L 269.664079 221.983784 
L 270.510709 277.832432 
L 271.35734 264.210811 
L 272.20397 296.902703 
L 273.050601 307.8 
L 274.743861 307.8 
L 275.590492 273.745946 
L 276.437122 307.8 
L 277.283753 245.140541 
L 278.130383 262.848649 
L 278.977014 234.243243 
L 279.823644 290.091892 
L 281.516905 153.875676 
L 282.363535 194.740541 
L 283.210166 288.72973 
L 284.903426 207 
L 286.596687 300.989189 
L 287.443318 207 
L 288.289948 91.216216 
L 289.136579 194.740541 
L 289.983209 235.605405 
L 290.829839 136.167568 
L 291.67647 157.962162 
L 292.5231 224.708108 
L 293.369731 220.621622 
L 294.216361 171.583784 
L 295.062992 251.951351 
L 295.909622 232.881081 
L 296.756252 202.913514 
L 297.602883 215.172973 
L 298.449513 204.275676 
L 299.296144 275.108108 
L 300.142774 190.654054 
L 300.989404 243.778378 
L 301.836035 212.448649 
L 302.682665 261.486486 
L 303.529296 286.005405 
L 304.375926 211.086486 
L 305.222557 172.945946 
L 306.915817 307.8 
L 307.762448 294.178378 
L 308.609078 307.8 
L 311.14897 307.8 
L 311.9956 269.659459 
L 312.84223 302.351351 
L 313.688861 296.902703 
L 314.535491 307.8 
L 317.075382 307.8 
L 317.922013 279.194595 
L 318.768643 307.8 
L 319.615274 163.410811 
L 320.461904 277.832432 
L 321.308535 230.156757 
L 322.155165 290.091892 
L 323.001795 305.075676 
L 323.848426 257.4 
L 324.695056 181.118919 
L 325.541687 208.362162 
L 326.388317 179.756757 
L 327.234948 221.983784 
L 328.081578 241.054054 
L 328.928208 170.221622 
L 329.774839 219.259459 
L 330.621469 102.113514 
L 331.4681 236.967568 
L 332.31473 179.756757 
L 333.16136 133.443243 
L 334.007991 268.297297 
L 334.854621 174.308108 
L 335.701252 276.47027 
L 336.547882 127.994595 
L 337.394513 168.859459 
L 338.241143 73.508108 
L 339.087773 108.924324 
L 339.934404 211.086486 
L 340.781034 238.32973 
L 341.627665 224.708108 
L 342.474295 171.583784 
L 343.320926 232.881081 
L 344.167556 174.308108 
L 345.014186 303.713514 
L 345.860817 251.951351 
L 346.707447 306.437838 
L 347.554078 265.572973 
L 348.400708 307.8 
L 349.247338 283.281081 
L 350.093969 269.659459 
L 350.940599 217.897297 
L 351.78723 307.8 
L 352.63386 286.005405 
L 353.480491 307.8 
L 354.327121 307.8 
L 355.173751 224.708108 
L 356.020382 281.918919 
L 356.867012 224.708108 
L 357.713643 307.8 
L 358.560273 307.8 
L 359.406904 296.902703 
L 360.253534 307.8 
L 361.100164 307.8 
L 361.946795 291.454054 
L 362.793425 257.4 
L 363.640056 277.832432 
L 364.486686 221.983784 
L 365.333316 198.827027 
L 366.179947 216.535135 
L 367.026577 200.189189 
L 367.873208 223.345946 
L 368.719838 172.945946 
L 369.566469 130.718919 
L 370.413099 196.102703 
L 371.259729 140.254054 
L 372.10636 192.016216 
L 372.95299 185.205405 
L 373.799621 115.735135 
L 374.646251 201.551351 
L 375.492882 77.594595 
L 376.339512 159.324324 
L 377.186142 172.945946 
L 378.032773 85.767568 
L 378.879403 230.156757 
L 379.726034 208.362162 
L 380.572664 181.118919 
L 381.419294 205.637838 
L 382.265925 221.983784 
L 383.112555 227.432432 
L 383.959186 268.297297 
L 384.805816 258.762162 
L 385.652447 307.8 
L 386.499077 215.172973 
L 387.345707 200.189189 
L 388.192338 264.210811 
L 389.038968 281.918919 
L 389.885599 307.8 
L 390.732229 156.6 
L 391.57886 307.8 
L 392.42549 303.713514 
L 393.27212 287.367568 
L 394.118751 279.194595 
L 394.965381 247.864865 
L 395.812012 238.32973 
L 396.658642 306.437838 
L 397.505272 303.713514 
L 398.351903 220.621622 
L 399.198533 307.8 
L 400.045164 307.8 
L 400.891794 280.556757 
L 401.738425 157.962162 
L 402.585055 294.178378 
L 403.431685 178.394595 
L 404.278316 251.951351 
L 405.124946 260.124324 
L 405.971577 254.675676 
L 406.818207 193.378378 
L 407.664838 264.210811 
L 408.511468 231.518919 
L 409.358098 172.945946 
L 410.204729 164.772973 
L 411.051359 300.989189 
L 411.89799 215.172973 
L 412.74462 193.378378 
L 413.59125 211.086486 
L 414.437881 174.308108 
L 415.284511 172.945946 
L 416.131142 219.259459 
L 416.977772 213.810811 
L 417.824403 223.345946 
L 418.671033 197.464865 
L 419.517663 228.794595 
L 420.364294 122.545946 
L 421.210924 167.497297 
L 422.057555 187.92973 
L 422.904185 223.345946 
L 423.750816 207 
L 424.597446 216.535135 
L 425.444076 272.383784 
L 426.290707 104.837838 
L 427.137337 236.967568 
L 427.983968 307.8 
L 428.830598 295.540541 
L 429.677228 231.518919 
L 431.370489 307.8 
L 432.21712 290.091892 
L 433.06375 307.8 
L 433.910381 307.8 
L 434.757011 299.627027 
L 435.603641 260.124324 
L 436.450272 307.8 
L 437.296902 307.8 
L 438.143533 258.762162 
L 438.990163 307.8 
L 439.836794 307.8 
L 440.683424 291.454054 
L 441.530054 245.140541 
L 442.376685 256.037838 
L 443.223315 300.989189 
L 444.069946 307.8 
L 444.916576 200.189189 
L 445.763206 287.367568 
L 446.609837 242.416216 
L 447.456467 238.32973 
L 448.303098 187.92973 
L 449.149728 220.621622 
L 449.996359 277.832432 
L 450.842989 168.859459 
L 451.689619 140.254054 
L 452.53625 155.237838 
L 453.38288 288.72973 
L 454.229511 167.497297 
L 455.076141 127.994595 
L 455.922772 186.567568 
L 456.769402 137.52973 
L 457.616032 100.751351 
L 458.462663 286.005405 
L 460.155924 170.221622 
L 461.002554 197.464865 
L 461.849184 166.135135 
L 462.695815 196.102703 
L 463.542445 211.086486 
L 464.389076 268.297297 
L 465.235706 266.935135 
L 466.082337 290.091892 
L 466.928967 220.621622 
L 467.775597 256.037838 
L 468.622228 253.313514 
L 469.468858 241.054054 
L 470.315489 296.902703 
L 471.162119 171.583784 
L 472.00875 307.8 
L 472.85538 247.864865 
L 473.70201 307.8 
L 474.548641 283.281081 
L 475.395271 290.091892 
L 476.241902 294.178378 
L 477.088532 307.8 
L 477.935162 280.556757 
L 478.781793 307.8 
L 479.628423 288.72973 
L 480.475054 302.351351 
L 481.321684 284.643243 
L 482.168315 307.8 
L 483.014945 272.383784 
L 483.861575 307.8 
L 484.708206 279.194595 
L 485.554836 239.691892 
L 486.401467 156.6 
L 487.248097 306.437838 
L 488.094728 211.086486 
L 488.941358 230.156757 
L 489.787988 236.967568 
L 490.634619 198.827027 
L 491.481249 182.481081 
L 492.32788 179.756757 
L 493.17451 262.848649 
L 494.02114 122.545946 
L 494.867771 223.345946 
L 495.714401 216.535135 
L 496.561032 122.545946 
L 497.407662 168.859459 
L 498.254293 92.578378 
L 499.100923 93.940541 
L 499.947553 224.708108 
L 500.794184 141.616216 
L 501.640814 147.064865 
L 502.487445 198.827027 
L 503.334075 269.659459 
L 504.180706 166.135135 
L 505.027336 145.702703 
L 505.873966 171.583784 
L 506.720597 220.621622 
L 507.567227 182.481081 
L 508.413858 232.881081 
L 509.260488 209.724324 
L 510.107118 264.210811 
L 510.953749 221.983784 
L 511.800379 231.518919 
L 512.64701 307.8 
L 513.49364 291.454054 
L 514.340271 241.054054 
L 515.186901 280.556757 
L 516.033531 292.816216 
L 516.880162 307.8 
L 518.573423 307.8 
L 519.420053 271.021622 
L 520.266684 212.448649 
L 521.113314 307.8 
L 522.806575 307.8 
L 523.653205 286.005405 
L 524.499836 298.264865 
L 525.346466 307.8 
L 527.039727 307.8 
L 527.886357 204.275676 
L 528.732988 223.345946 
L 529.579618 256.037838 
L 530.426249 307.8 
L 531.272879 238.32973 
L 532.119509 186.567568 
L 532.96614 232.881081 
L 533.81277 198.827027 
L 534.659401 231.518919 
L 535.506031 275.108108 
L 536.352662 187.92973 
L 537.199292 200.189189 
L 538.045922 144.340541 
L 538.892553 181.118919 
L 539.739183 162.048649 
L 540.585814 271.021622 
L 541.432444 122.545946 
L 542.279074 174.308108 
L 543.125705 189.291892 
L 543.972335 211.086486 
L 544.818966 189.291892 
L 545.665596 190.654054 
L 546.512227 260.124324 
L 547.358857 296.902703 
L 548.205487 136.167568 
L 549.052118 192.016216 
L 549.898748 205.637838 
L 550.745379 298.264865 
L 551.592009 294.178378 
L 552.43864 257.4 
L 553.28527 275.108108 
L 554.1319 212.448649 
L 554.978531 254.675676 
L 556.671792 175.67027 
L 557.518422 307.8 
L 558.365052 246.502703 
L 559.211683 307.8 
L 560.058313 307.8 
L 560.904944 281.918919 
L 561.751574 275.108108 
L 562.598205 254.675676 
L 563.444835 307.8 
L 564.291465 307.8 
L 565.138096 300.989189 
L 565.984726 265.572973 
L 566.831357 246.502703 
L 567.677987 307.8 
L 568.524618 295.540541 
L 569.371248 257.4 
L 570.217878 178.394595 
L 571.064509 279.194595 
L 571.911139 291.454054 
L 572.75777 262.848649 
L 573.6044 306.437838 
L 574.45103 204.275676 
L 575.297661 231.518919 
L 576.144291 243.778378 
L 576.990922 174.308108 
L 577.837552 272.383784 
L 578.684183 247.864865 
L 579.530813 108.924324 
L 580.377443 145.702703 
L 581.224074 190.654054 
L 582.070704 138.891892 
L 582.917335 167.497297 
L 583.763965 170.221622 
L 584.610596 160.686486 
L 585.457226 178.394595 
L 586.303856 209.724324 
L 587.150487 205.637838 
L 587.997117 178.394595 
L 588.843748 287.367568 
L 589.690378 166.135135 
L 590.537008 155.237838 
L 591.383639 230.156757 
L 592.230269 216.535135 
L 593.0769 243.778378 
L 593.92353 220.621622 
L 594.770161 215.172973 
L 595.616791 251.951351 
L 597.310052 280.556757 
L 598.156682 268.297297 
L 599.849943 307.8 
L 600.696574 307.8 
L 601.543204 281.918919 
L 602.389834 292.816216 
L 603.236465 268.297297 
L 604.083095 292.816216 
L 604.929726 295.540541 
L 605.776356 307.8 
L 606.622986 183.843243 
L 607.469617 307.8 
L 608.316247 305.075676 
L 609.162878 295.540541 
L 610.009508 307.8 
L 610.856139 307.8 
L 611.702769 204.275676 
L 612.549399 215.172973 
L 613.39603 250.589189 
L 614.24266 211.086486 
L 615.089291 262.848649 
L 615.935921 170.221622 
L 616.782552 307.8 
L 618.475812 230.156757 
L 619.322443 226.07027 
L 620.169073 307.8 
L 621.015704 209.724324 
L 621.862334 256.037838 
L 622.708964 98.027027 
L 623.555595 155.237838 
L 624.402225 236.967568 
L 625.248856 196.102703 
L 626.095486 217.897297 
L 626.942117 187.92973 
L 627.788747 211.086486 
L 628.635377 138.891892 
L 629.482008 159.324324 
L 630.328638 182.481081 
L 631.175269 126.632432 
L 632.021899 228.794595 
L 632.86853 129.356757 
L 633.71516 205.637838 
L 634.56179 147.064865 
L 635.408421 207 
L 636.255051 189.291892 
L 637.101682 211.086486 
L 637.948312 183.843243 
L 638.794942 224.708108 
L 639.641573 292.816216 
L 640.488203 272.383784 
L 641.334834 247.864865 
L 642.181464 307.8 
L 643.028095 260.124324 
L 643.874725 273.745946 
L 644.721355 307.8 
L 645.567986 295.540541 
L 646.414616 265.572973 
L 647.261247 215.172973 
L 648.107877 307.8 
L 648.954508 269.659459 
L 649.801138 307.8 
L 650.647768 307.8 
L 651.494399 227.432432 
L 652.341029 273.745946 
L 653.18766 303.713514 
L 654.03429 264.210811 
L 654.88092 307.8 
L 655.727551 230.156757 
L 656.574181 200.189189 
L 657.420812 235.605405 
L 658.267442 258.762162 
L 659.114073 266.935135 
L 659.960703 219.259459 
L 660.807333 159.324324 
L 661.653964 207 
L 662.500594 221.983784 
L 663.347225 211.086486 
L 664.193855 174.308108 
L 665.040486 209.724324 
L 665.887116 239.691892 
L 666.733746 113.010811 
L 667.580377 182.481081 
L 668.427007 170.221622 
L 669.273638 238.32973 
L 670.120268 181.118919 
L 670.966898 174.308108 
L 671.813529 107.562162 
L 672.660159 197.464865 
L 673.50679 234.243243 
L 675.200051 110.286486 
L 676.046681 266.935135 
L 676.893311 167.497297 
L 677.739942 170.221622 
L 678.586572 256.037838 
L 679.433203 265.572973 
L 680.279833 208.362162 
L 681.126464 279.194595 
L 681.973094 250.589189 
L 682.819724 260.124324 
L 683.666355 307.8 
L 684.512985 239.691892 
L 685.359616 286.005405 
L 686.206246 306.437838 
L 687.052876 302.351351 
L 687.899507 219.259459 
L 688.746137 275.108108 
L 689.592768 223.345946 
L 690.439398 279.194595 
L 691.286029 307.8 
L 692.132659 305.075676 
L 692.979289 287.367568 
L 693.82592 307.8 
L 694.67255 279.194595 
L 695.519181 306.437838 
L 696.365811 217.897297 
L 697.212442 151.151351 
L 698.059072 292.816216 
L 698.905702 307.8 
L 699.752333 249.227027 
L 700.598963 200.189189 
L 701.445594 224.708108 
L 702.292224 166.135135 
L 703.138854 266.935135 
L 703.985485 179.756757 
L 704.832115 279.194595 
L 705.678746 156.6 
L 706.525376 254.675676 
L 708.218637 132.081081 
L 709.065267 148.427027 
L 709.911898 155.237838 
L 710.758528 205.637838 
L 711.605159 99.389189 
L 712.451789 197.464865 
L 713.29842 236.967568 
L 714.99168 149.789189 
L 715.838311 126.632432 
L 716.684941 249.227027 
L 717.531572 235.605405 
L 718.378202 129.356757 
L 719.224832 196.102703 
L 720.071463 251.951351 
L 721.764724 305.075676 
L 722.611354 230.156757 
L 723.457985 230.156757 
L 724.304615 269.659459 
L 725.151245 291.454054 
L 725.997876 307.8 
L 726.844506 302.351351 
L 727.691137 307.8 
L 728.537767 307.8 
L 729.384398 287.367568 
L 730.231028 307.8 
L 731.077658 223.345946 
L 731.924289 307.8 
L 732.770919 307.8 
L 733.61755 258.762162 
L 734.46418 250.589189 
L 735.31081 307.8 
L 736.157441 307.8 
L 737.004071 202.913514 
L 737.850702 257.4 
L 738.697332 262.848649 
L 739.543963 231.518919 
L 740.390593 281.918919 
L 741.237223 294.178378 
L 742.083854 265.572973 
L 742.930484 211.086486 
L 743.777115 231.518919 
L 744.623745 177.032432 
L 745.470376 269.659459 
L 746.317006 303.713514 
L 747.163636 213.810811 
L 747.163636 213.810811 
" clip-path="url(#p2f18e7836b)" style="fill: none; stroke: #191970; stroke-width: 2; stroke-linecap: square"/>
   </g>
   <g id="patch_3">
    <path d="M 108 320.4 
L 108 43.2 
" style="fill: none; stroke: #000000; stroke-width: 0.8; stroke-linejoin: miter; stroke-linecap: square"/>
   </g>
   <g id="patch_4">
    <path d="M 777.6 320.4 
L 777.6 43.2 
" style="fill: none; stroke: #000000; stroke-width: 0.8; stroke-linejoin: miter; stroke-linecap: square"/>
   </g>
   <g id="patch_5">
    <path d="M 108 320.4 
L 777.6 320.4 
" style="fill: none; stroke: #000000; stroke-width: 0.8; stroke-linejoin: miter; stroke-linecap: square"/>
   </g>
   <g id="patch_6">
    <path d="M 108 43.2 
L 777.6 43.2 
" style="fill: none; stroke: #000000; stroke-width: 0.8; stroke-linejoin: miter; stroke-linecap: square"/>
   </g>
   <g id="text_19">
    <!-- TIME SERIES -->
    <g transform="translate(386.625938 37.2) scale(0.18 -0.18)">
     <defs>
      <path id="DejaVuSans-52" d="M 2841 2188 
Q 3044 2119 3236 1894 
Q 3428 1669 3622 1275 
L 4263 0 
L 3584 0 
L 2988 1197 
Q 2756 1666 2539 1819 
Q 2322 1972 1947 1972 
L 1259 1972 
L 1259 0 
L 628 0 
L 628 4666 
L 2053 4666 
Q 2853 4666 3247 4331 
Q 3641 3997 3641 3322 
Q 3641 2881 3436 2590 
Q 3231 2300 2841 2188 
z
M 1259 4147 
L 1259 2491 
L 2053 2491 
Q 2509 2491 2742 2702 
Q 2975 2913 2975 3322 
Q 2975 3731 2742 3939 
Q 2509 4147 2053 4147 
L 1259 4147 
z
" transform="scale(0.015625)"/>
     </defs>
     <use xlink:href="#DejaVuSans-54"/>
     <use xlink:href="#DejaVuSans-49" x="61.083984"/>
     <use xlink:href="#DejaVuSans-4d" x="90.576172"/>
     <use xlink:href="#DejaVuSans-45" x="176.855469"/>
     <use xlink:href="#DejaVuSans-20" x="240.039062"/>
     <use xlink:href="#DejaVuSans-53" x="271.826172"/>
     <use xlink:href="#DejaVuSans-45" x="335.302734"/>
     <use xlink:href="#DejaVuSans-52" x="398.486328"/>
     <use xlink:href="#DejaVuSans-49" x="467.96875"/>
     <use xlink:href="#DejaVuSans-45" x="497.460938"/>
     <use xlink:href="#DejaVuSans-53" x="560.644531"/>
    </g>
   </g>
  </g>
 </g>
 <defs>
  <clipPath id="p2f18e7836b">
   <rect x="108" y="43.2" width="669.6" height="277.2"/>
  </clipPath>
 </defs>
</svg>
