<?xml version="1.0" encoding="utf-8" standalone="no"?>
<!DOCTYPE svg PUBLIC "-//W3C//DTD SVG 1.1//EN"
  "http://www.w3.org/Graphics/SVG/1.1/DTD/svg11.dtd">
<svg xmlns:xlink="http://www.w3.org/1999/xlink" width="864pt" height="360pt" viewBox="0 0 864 360" xmlns="http://www.w3.org/2000/svg" version="1.1">
 <metadata>
  <rdf:RDF xmlns:dc="http://purl.org/dc/elements/1.1/" xmlns:cc="http://creativecommons.org/ns#" xmlns:rdf="http://www.w3.org/1999/02/22-rdf-syntax-ns#">
   <cc:Work>
    <dc:type rdf:resource="http://purl.org/dc/dcmitype/StillImage"/>
    <dc:date>2023-11-07T11:03:24.412250</dc:date>
    <dc:format>image/svg+xml</dc:format>
    <dc:creator>
     <cc:Agent>
      <dc:title>Matplotlib v3.7.1, https://matplotlib.org/</dc:title>
     </cc:Agent>
    </dc:creator>
   </cc:Work>
  </rdf:RDF>
 </metadata>
 <defs>
  <style type="text/css">*{stroke-linejoin: round; stroke-linecap: butt}</style>
 </defs>
 <g id="figure_1">
  <g id="patch_1">
   <path d="M 0 360 
L 864 360 
L 864 0 
L 0 0 
z
" style="fill: #ffffff"/>
  </g>
  <g id="axes_1">
   <g id="patch_2">
    <path d="M 108 320.4 
L 777.6 320.4 
L 777.6 43.2 
L 108 43.2 
z
" style="fill: #ffffff"/>
   </g>
   <g id="matplotlib.axis_1">
    <g id="xtick_1">
     <g id="line2d_1">
      <defs>
       <path id="mffe97a49e5" d="M 0 0 
L 0 3.5 
" style="stroke: #000000; stroke-width: 0.8"/>
      </defs>
      <g>
       <use xlink:href="#mffe97a49e5" x="138.436364" y="320.4" style="stroke: #000000; stroke-width: 0.8"/>
      </g>
     </g>
     <g id="text_1">
      <!-- 2022-01-01 -->
      <g transform="translate(109.378551 334.998438) scale(0.1 -0.1)">
       <defs>
        <path id="DejaVuSans-32" d="M 1228 531 
L 3431 531 
L 3431 0 
L 469 0 
L 469 531 
Q 828 903 1448 1529 
Q 2069 2156 2228 2338 
Q 2531 2678 2651 2914 
Q 2772 3150 2772 3378 
Q 2772 3750 2511 3984 
Q 2250 4219 1831 4219 
Q 1534 4219 1204 4116 
Q 875 4013 500 3803 
L 500 4441 
Q 881 4594 1212 4672 
Q 1544 4750 1819 4750 
Q 2544 4750 2975 4387 
Q 3406 4025 3406 3419 
Q 3406 3131 3298 2873 
Q 3191 2616 2906 2266 
Q 2828 2175 2409 1742 
Q 1991 1309 1228 531 
z
" transform="scale(0.015625)"/>
        <path id="DejaVuSans-30" d="M 2034 4250 
Q 1547 4250 1301 3770 
Q 1056 3291 1056 2328 
Q 1056 1369 1301 889 
Q 1547 409 2034 409 
Q 2525 409 2770 889 
Q 3016 1369 3016 2328 
Q 3016 3291 2770 3770 
Q 2525 4250 2034 4250 
z
M 2034 4750 
Q 2819 4750 3233 4129 
Q 3647 3509 3647 2328 
Q 3647 1150 3233 529 
Q 2819 -91 2034 -91 
Q 1250 -91 836 529 
Q 422 1150 422 2328 
Q 422 3509 836 4129 
Q 1250 4750 2034 4750 
z
" transform="scale(0.015625)"/>
        <path id="DejaVuSans-2d" d="M 313 2009 
L 1997 2009 
L 1997 1497 
L 313 1497 
L 313 2009 
z
" transform="scale(0.015625)"/>
        <path id="DejaVuSans-31" d="M 794 531 
L 1825 531 
L 1825 4091 
L 703 3866 
L 703 4441 
L 1819 4666 
L 2450 4666 
L 2450 531 
L 3481 531 
L 3481 0 
L 794 0 
L 794 531 
z
" transform="scale(0.015625)"/>
       </defs>
       <use xlink:href="#DejaVuSans-32"/>
       <use xlink:href="#DejaVuSans-30" x="63.623047"/>
       <use xlink:href="#DejaVuSans-32" x="127.246094"/>
       <use xlink:href="#DejaVuSans-32" x="190.869141"/>
       <use xlink:href="#DejaVuSans-2d" x="254.492188"/>
       <use xlink:href="#DejaVuSans-30" x="290.576172"/>
       <use xlink:href="#DejaVuSans-31" x="354.199219"/>
       <use xlink:href="#DejaVuSans-2d" x="417.822266"/>
       <use xlink:href="#DejaVuSans-30" x="453.90625"/>
       <use xlink:href="#DejaVuSans-31" x="517.529297"/>
      </g>
     </g>
    </g>
    <g id="xtick_2">
     <g id="line2d_2">
      <g>
       <use xlink:href="#mffe97a49e5" x="219.712884" y="320.4" style="stroke: #000000; stroke-width: 0.8"/>
      </g>
     </g>
     <g id="text_2">
      <!-- 2022-01-03 -->
      <g transform="translate(190.655072 334.998438) scale(0.1 -0.1)">
       <defs>
        <path id="DejaVuSans-33" d="M 2597 2516 
Q 3050 2419 3304 2112 
Q 3559 1806 3559 1356 
Q 3559 666 3084 287 
Q 2609 -91 1734 -91 
Q 1441 -91 1130 -33 
Q 819 25 488 141 
L 488 750 
Q 750 597 1062 519 
Q 1375 441 1716 441 
Q 2309 441 2620 675 
Q 2931 909 2931 1356 
Q 2931 1769 2642 2001 
Q 2353 2234 1838 2234 
L 1294 2234 
L 1294 2753 
L 1863 2753 
Q 2328 2753 2575 2939 
Q 2822 3125 2822 3475 
Q 2822 3834 2567 4026 
Q 2313 4219 1838 4219 
Q 1578 4219 1281 4162 
Q 984 4106 628 3988 
L 628 4550 
Q 988 4650 1302 4700 
Q 1616 4750 1894 4750 
Q 2613 4750 3031 4423 
Q 3450 4097 3450 3541 
Q 3450 3153 3228 2886 
Q 3006 2619 2597 2516 
z
" transform="scale(0.015625)"/>
       </defs>
       <use xlink:href="#DejaVuSans-32"/>
       <use xlink:href="#DejaVuSans-30" x="63.623047"/>
       <use xlink:href="#DejaVuSans-32" x="127.246094"/>
       <use xlink:href="#DejaVuSans-32" x="190.869141"/>
       <use xlink:href="#DejaVuSans-2d" x="254.492188"/>
       <use xlink:href="#DejaVuSans-30" x="290.576172"/>
       <use xlink:href="#DejaVuSans-31" x="354.199219"/>
       <use xlink:href="#DejaVuSans-2d" x="417.822266"/>
       <use xlink:href="#DejaVuSans-30" x="453.90625"/>
       <use xlink:href="#DejaVuSans-33" x="517.529297"/>
      </g>
     </g>
    </g>
    <g id="xtick_3">
     <g id="line2d_3">
      <g>
       <use xlink:href="#mffe97a49e5" x="300.989404" y="320.4" style="stroke: #000000; stroke-width: 0.8"/>
      </g>
     </g>
     <g id="text_3">
      <!-- 2022-01-05 -->
      <g transform="translate(271.931592 334.998438) scale(0.1 -0.1)">
       <defs>
        <path id="DejaVuSans-35" d="M 691 4666 
L 3169 4666 
L 3169 4134 
L 1269 4134 
L 1269 2991 
Q 1406 3038 1543 3061 
Q 1681 3084 1819 3084 
Q 2600 3084 3056 2656 
Q 3513 2228 3513 1497 
Q 3513 744 3044 326 
Q 2575 -91 1722 -91 
Q 1428 -91 1123 -41 
Q 819 9 494 109 
L 494 744 
Q 775 591 1075 516 
Q 1375 441 1709 441 
Q 2250 441 2565 725 
Q 2881 1009 2881 1497 
Q 2881 1984 2565 2268 
Q 2250 2553 1709 2553 
Q 1456 2553 1204 2497 
Q 953 2441 691 2322 
L 691 4666 
z
" transform="scale(0.015625)"/>
       </defs>
       <use xlink:href="#DejaVuSans-32"/>
       <use xlink:href="#DejaVuSans-30" x="63.623047"/>
       <use xlink:href="#DejaVuSans-32" x="127.246094"/>
       <use xlink:href="#DejaVuSans-32" x="190.869141"/>
       <use xlink:href="#DejaVuSans-2d" x="254.492188"/>
       <use xlink:href="#DejaVuSans-30" x="290.576172"/>
       <use xlink:href="#DejaVuSans-31" x="354.199219"/>
       <use xlink:href="#DejaVuSans-2d" x="417.822266"/>
       <use xlink:href="#DejaVuSans-30" x="453.90625"/>
       <use xlink:href="#DejaVuSans-35" x="517.529297"/>
      </g>
     </g>
    </g>
    <g id="xtick_4">
     <g id="line2d_4">
      <g>
       <use xlink:href="#mffe97a49e5" x="382.265925" y="320.4" style="stroke: #000000; stroke-width: 0.8"/>
      </g>
     </g>
     <g id="text_4">
      <!-- 2022-01-07 -->
      <g transform="translate(353.208112 334.998438) scale(0.1 -0.1)">
       <defs>
        <path id="DejaVuSans-37" d="M 525 4666 
L 3525 4666 
L 3525 4397 
L 1831 0 
L 1172 0 
L 2766 4134 
L 525 4134 
L 525 4666 
z
" transform="scale(0.015625)"/>
       </defs>
       <use xlink:href="#DejaVuSans-32"/>
       <use xlink:href="#DejaVuSans-30" x="63.623047"/>
       <use xlink:href="#DejaVuSans-32" x="127.246094"/>
       <use xlink:href="#DejaVuSans-32" x="190.869141"/>
       <use xlink:href="#DejaVuSans-2d" x="254.492188"/>
       <use xlink:href="#DejaVuSans-30" x="290.576172"/>
       <use xlink:href="#DejaVuSans-31" x="354.199219"/>
       <use xlink:href="#DejaVuSans-2d" x="417.822266"/>
       <use xlink:href="#DejaVuSans-30" x="453.90625"/>
       <use xlink:href="#DejaVuSans-37" x="517.529297"/>
      </g>
     </g>
    </g>
    <g id="xtick_5">
     <g id="line2d_5">
      <g>
       <use xlink:href="#mffe97a49e5" x="463.542445" y="320.4" style="stroke: #000000; stroke-width: 0.8"/>
      </g>
     </g>
     <g id="text_5">
      <!-- 2022-01-09 -->
      <g transform="translate(434.484633 334.998438) scale(0.1 -0.1)">
       <defs>
        <path id="DejaVuSans-39" d="M 703 97 
L 703 672 
Q 941 559 1184 500 
Q 1428 441 1663 441 
Q 2288 441 2617 861 
Q 2947 1281 2994 2138 
Q 2813 1869 2534 1725 
Q 2256 1581 1919 1581 
Q 1219 1581 811 2004 
Q 403 2428 403 3163 
Q 403 3881 828 4315 
Q 1253 4750 1959 4750 
Q 2769 4750 3195 4129 
Q 3622 3509 3622 2328 
Q 3622 1225 3098 567 
Q 2575 -91 1691 -91 
Q 1453 -91 1209 -44 
Q 966 3 703 97 
z
M 1959 2075 
Q 2384 2075 2632 2365 
Q 2881 2656 2881 3163 
Q 2881 3666 2632 3958 
Q 2384 4250 1959 4250 
Q 1534 4250 1286 3958 
Q 1038 3666 1038 3163 
Q 1038 2656 1286 2365 
Q 1534 2075 1959 2075 
z
" transform="scale(0.015625)"/>
       </defs>
       <use xlink:href="#DejaVuSans-32"/>
       <use xlink:href="#DejaVuSans-30" x="63.623047"/>
       <use xlink:href="#DejaVuSans-32" x="127.246094"/>
       <use xlink:href="#DejaVuSans-32" x="190.869141"/>
       <use xlink:href="#DejaVuSans-2d" x="254.492188"/>
       <use xlink:href="#DejaVuSans-30" x="290.576172"/>
       <use xlink:href="#DejaVuSans-31" x="354.199219"/>
       <use xlink:href="#DejaVuSans-2d" x="417.822266"/>
       <use xlink:href="#DejaVuSans-30" x="453.90625"/>
       <use xlink:href="#DejaVuSans-39" x="517.529297"/>
      </g>
     </g>
    </g>
    <g id="xtick_6">
     <g id="line2d_6">
      <g>
       <use xlink:href="#mffe97a49e5" x="544.818966" y="320.4" style="stroke: #000000; stroke-width: 0.8"/>
      </g>
     </g>
     <g id="text_6">
      <!-- 2022-01-11 -->
      <g transform="translate(515.761153 334.998438) scale(0.1 -0.1)">
       <use xlink:href="#DejaVuSans-32"/>
       <use xlink:href="#DejaVuSans-30" x="63.623047"/>
       <use xlink:href="#DejaVuSans-32" x="127.246094"/>
       <use xlink:href="#DejaVuSans-32" x="190.869141"/>
       <use xlink:href="#DejaVuSans-2d" x="254.492188"/>
       <use xlink:href="#DejaVuSans-30" x="290.576172"/>
       <use xlink:href="#DejaVuSans-31" x="354.199219"/>
       <use xlink:href="#DejaVuSans-2d" x="417.822266"/>
       <use xlink:href="#DejaVuSans-31" x="453.90625"/>
       <use xlink:href="#DejaVuSans-31" x="517.529297"/>
      </g>
     </g>
    </g>
    <g id="xtick_7">
     <g id="line2d_7">
      <g>
       <use xlink:href="#mffe97a49e5" x="626.095486" y="320.4" style="stroke: #000000; stroke-width: 0.8"/>
      </g>
     </g>
     <g id="text_7">
      <!-- 2022-01-13 -->
      <g transform="translate(597.037674 334.998438) scale(0.1 -0.1)">
       <use xlink:href="#DejaVuSans-32"/>
       <use xlink:href="#DejaVuSans-30" x="63.623047"/>
       <use xlink:href="#DejaVuSans-32" x="127.246094"/>
       <use xlink:href="#DejaVuSans-32" x="190.869141"/>
       <use xlink:href="#DejaVuSans-2d" x="254.492188"/>
       <use xlink:href="#DejaVuSans-30" x="290.576172"/>
       <use xlink:href="#DejaVuSans-31" x="354.199219"/>
       <use xlink:href="#DejaVuSans-2d" x="417.822266"/>
       <use xlink:href="#DejaVuSans-31" x="453.90625"/>
       <use xlink:href="#DejaVuSans-33" x="517.529297"/>
      </g>
     </g>
    </g>
    <g id="xtick_8">
     <g id="line2d_8">
      <g>
       <use xlink:href="#mffe97a49e5" x="707.372007" y="320.4" style="stroke: #000000; stroke-width: 0.8"/>
      </g>
     </g>
     <g id="text_8">
      <!-- 2022-01-15 -->
      <g transform="translate(678.314194 334.998438) scale(0.1 -0.1)">
       <use xlink:href="#DejaVuSans-32"/>
       <use xlink:href="#DejaVuSans-30" x="63.623047"/>
       <use xlink:href="#DejaVuSans-32" x="127.246094"/>
       <use xlink:href="#DejaVuSans-32" x="190.869141"/>
       <use xlink:href="#DejaVuSans-2d" x="254.492188"/>
       <use xlink:href="#DejaVuSans-30" x="290.576172"/>
       <use xlink:href="#DejaVuSans-31" x="354.199219"/>
       <use xlink:href="#DejaVuSans-2d" x="417.822266"/>
       <use xlink:href="#DejaVuSans-31" x="453.90625"/>
       <use xlink:href="#DejaVuSans-35" x="517.529297"/>
      </g>
     </g>
    </g>
    <g id="text_9">
     <!-- TIME (DAYS) -->
     <g transform="translate(412.283594 348.676562) scale(0.1 -0.1)">
      <defs>
       <path id="DejaVuSans-54" d="M -19 4666 
L 3928 4666 
L 3928 4134 
L 2272 4134 
L 2272 0 
L 1638 0 
L 1638 4134 
L -19 4134 
L -19 4666 
z
" transform="scale(0.015625)"/>
       <path id="DejaVuSans-49" d="M 628 4666 
L 1259 4666 
L 1259 0 
L 628 0 
L 628 4666 
z
" transform="scale(0.015625)"/>
       <path id="DejaVuSans-4d" d="M 628 4666 
L 1569 4666 
L 2759 1491 
L 3956 4666 
L 4897 4666 
L 4897 0 
L 4281 0 
L 4281 4097 
L 3078 897 
L 2444 897 
L 1241 4097 
L 1241 0 
L 628 0 
L 628 4666 
z
" transform="scale(0.015625)"/>
       <path id="DejaVuSans-45" d="M 628 4666 
L 3578 4666 
L 3578 4134 
L 1259 4134 
L 1259 2753 
L 3481 2753 
L 3481 2222 
L 1259 2222 
L 1259 531 
L 3634 531 
L 3634 0 
L 628 0 
L 628 4666 
z
" transform="scale(0.015625)"/>
       <path id="DejaVuSans-20" transform="scale(0.015625)"/>
       <path id="DejaVuSans-28" d="M 1984 4856 
Q 1566 4138 1362 3434 
Q 1159 2731 1159 2009 
Q 1159 1288 1364 580 
Q 1569 -128 1984 -844 
L 1484 -844 
Q 1016 -109 783 600 
Q 550 1309 550 2009 
Q 550 2706 781 3412 
Q 1013 4119 1484 4856 
L 1984 4856 
z
" transform="scale(0.015625)"/>
       <path id="DejaVuSans-44" d="M 1259 4147 
L 1259 519 
L 2022 519 
Q 2988 519 3436 956 
Q 3884 1394 3884 2338 
Q 3884 3275 3436 3711 
Q 2988 4147 2022 4147 
L 1259 4147 
z
M 628 4666 
L 1925 4666 
Q 3281 4666 3915 4102 
Q 4550 3538 4550 2338 
Q 4550 1131 3912 565 
Q 3275 0 1925 0 
L 628 0 
L 628 4666 
z
" transform="scale(0.015625)"/>
       <path id="DejaVuSans-41" d="M 2188 4044 
L 1331 1722 
L 3047 1722 
L 2188 4044 
z
M 1831 4666 
L 2547 4666 
L 4325 0 
L 3669 0 
L 3244 1197 
L 1141 1197 
L 716 0 
L 50 0 
L 1831 4666 
z
" transform="scale(0.015625)"/>
       <path id="DejaVuSans-59" d="M -13 4666 
L 666 4666 
L 1959 2747 
L 3244 4666 
L 3922 4666 
L 2272 2222 
L 2272 0 
L 1638 0 
L 1638 2222 
L -13 4666 
z
" transform="scale(0.015625)"/>
       <path id="DejaVuSans-53" d="M 3425 4513 
L 3425 3897 
Q 3066 4069 2747 4153 
Q 2428 4238 2131 4238 
Q 1616 4238 1336 4038 
Q 1056 3838 1056 3469 
Q 1056 3159 1242 3001 
Q 1428 2844 1947 2747 
L 2328 2669 
Q 3034 2534 3370 2195 
Q 3706 1856 3706 1288 
Q 3706 609 3251 259 
Q 2797 -91 1919 -91 
Q 1588 -91 1214 -16 
Q 841 59 441 206 
L 441 856 
Q 825 641 1194 531 
Q 1563 422 1919 422 
Q 2459 422 2753 634 
Q 3047 847 3047 1241 
Q 3047 1584 2836 1778 
Q 2625 1972 2144 2069 
L 1759 2144 
Q 1053 2284 737 2584 
Q 422 2884 422 3419 
Q 422 4038 858 4394 
Q 1294 4750 2059 4750 
Q 2388 4750 2728 4690 
Q 3069 4631 3425 4513 
z
" transform="scale(0.015625)"/>
       <path id="DejaVuSans-29" d="M 513 4856 
L 1013 4856 
Q 1481 4119 1714 3412 
Q 1947 2706 1947 2009 
Q 1947 1309 1714 600 
Q 1481 -109 1013 -844 
L 513 -844 
Q 928 -128 1133 580 
Q 1338 1288 1338 2009 
Q 1338 2731 1133 3434 
Q 928 4138 513 4856 
z
" transform="scale(0.015625)"/>
      </defs>
      <use xlink:href="#DejaVuSans-54"/>
      <use xlink:href="#DejaVuSans-49" x="61.083984"/>
      <use xlink:href="#DejaVuSans-4d" x="90.576172"/>
      <use xlink:href="#DejaVuSans-45" x="176.855469"/>
      <use xlink:href="#DejaVuSans-20" x="240.039062"/>
      <use xlink:href="#DejaVuSans-28" x="271.826172"/>
      <use xlink:href="#DejaVuSans-44" x="310.839844"/>
      <use xlink:href="#DejaVuSans-41" x="386.091797"/>
      <use xlink:href="#DejaVuSans-59" x="446.75"/>
      <use xlink:href="#DejaVuSans-53" x="507.833984"/>
      <use xlink:href="#DejaVuSans-29" x="571.310547"/>
     </g>
    </g>
   </g>
   <g id="matplotlib.axis_2">
    <g id="ytick_1">
     <g id="line2d_9">
      <defs>
       <path id="mc0ae62b590" d="M 0 0 
L -3.5 0 
" style="stroke: #000000; stroke-width: 0.8"/>
      </defs>
      <g>
       <use xlink:href="#mc0ae62b590" x="108" y="307.8" style="stroke: #000000; stroke-width: 0.8"/>
      </g>
     </g>
     <g id="text_10">
      <!-- 0 -->
      <g transform="translate(94.6375 311.599219) scale(0.1 -0.1)">
       <use xlink:href="#DejaVuSans-30"/>
      </g>
     </g>
    </g>
    <g id="ytick_2">
     <g id="line2d_10">
      <g>
       <use xlink:href="#mc0ae62b590" x="108" y="275.981818" style="stroke: #000000; stroke-width: 0.8"/>
      </g>
     </g>
     <g id="text_11">
      <!-- 25 -->
      <g transform="translate(88.275 279.781037) scale(0.1 -0.1)">
       <use xlink:href="#DejaVuSans-32"/>
       <use xlink:href="#DejaVuSans-35" x="63.623047"/>
      </g>
     </g>
    </g>
    <g id="ytick_3">
     <g id="line2d_11">
      <g>
       <use xlink:href="#mc0ae62b590" x="108" y="244.163636" style="stroke: #000000; stroke-width: 0.8"/>
      </g>
     </g>
     <g id="text_12">
      <!-- 50 -->
      <g transform="translate(88.275 247.962855) scale(0.1 -0.1)">
       <use xlink:href="#DejaVuSans-35"/>
       <use xlink:href="#DejaVuSans-30" x="63.623047"/>
      </g>
     </g>
    </g>
    <g id="ytick_4">
     <g id="line2d_12">
      <g>
       <use xlink:href="#mc0ae62b590" x="108" y="212.345455" style="stroke: #000000; stroke-width: 0.8"/>
      </g>
     </g>
     <g id="text_13">
      <!-- 75 -->
      <g transform="translate(88.275 216.144673) scale(0.1 -0.1)">
       <use xlink:href="#DejaVuSans-37"/>
       <use xlink:href="#DejaVuSans-35" x="63.623047"/>
      </g>
     </g>
    </g>
    <g id="ytick_5">
     <g id="line2d_13">
      <g>
       <use xlink:href="#mc0ae62b590" x="108" y="180.527273" style="stroke: #000000; stroke-width: 0.8"/>
      </g>
     </g>
     <g id="text_14">
      <!-- 100 -->
      <g transform="translate(81.9125 184.326491) scale(0.1 -0.1)">
       <use xlink:href="#DejaVuSans-31"/>
       <use xlink:href="#DejaVuSans-30" x="63.623047"/>
       <use xlink:href="#DejaVuSans-30" x="127.246094"/>
      </g>
     </g>
    </g>
    <g id="ytick_6">
     <g id="line2d_14">
      <g>
       <use xlink:href="#mc0ae62b590" x="108" y="148.709091" style="stroke: #000000; stroke-width: 0.8"/>
      </g>
     </g>
     <g id="text_15">
      <!-- 125 -->
      <g transform="translate(81.9125 152.50831) scale(0.1 -0.1)">
       <use xlink:href="#DejaVuSans-31"/>
       <use xlink:href="#DejaVuSans-32" x="63.623047"/>
       <use xlink:href="#DejaVuSans-35" x="127.246094"/>
      </g>
     </g>
    </g>
    <g id="ytick_7">
     <g id="line2d_15">
      <g>
       <use xlink:href="#mc0ae62b590" x="108" y="116.890909" style="stroke: #000000; stroke-width: 0.8"/>
      </g>
     </g>
     <g id="text_16">
      <!-- 150 -->
      <g transform="translate(81.9125 120.690128) scale(0.1 -0.1)">
       <use xlink:href="#DejaVuSans-31"/>
       <use xlink:href="#DejaVuSans-35" x="63.623047"/>
       <use xlink:href="#DejaVuSans-30" x="127.246094"/>
      </g>
     </g>
    </g>
    <g id="ytick_8">
     <g id="line2d_16">
      <g>
       <use xlink:href="#mc0ae62b590" x="108" y="85.072727" style="stroke: #000000; stroke-width: 0.8"/>
      </g>
     </g>
     <g id="text_17">
      <!-- 175 -->
      <g transform="translate(81.9125 88.871946) scale(0.1 -0.1)">
       <use xlink:href="#DejaVuSans-31"/>
       <use xlink:href="#DejaVuSans-37" x="63.623047"/>
       <use xlink:href="#DejaVuSans-35" x="127.246094"/>
      </g>
     </g>
    </g>
    <g id="ytick_9">
     <g id="line2d_17">
      <g>
       <use xlink:href="#mc0ae62b590" x="108" y="53.254545" style="stroke: #000000; stroke-width: 0.8"/>
      </g>
     </g>
     <g id="text_18">
      <!-- 200 -->
      <g transform="translate(81.9125 57.053764) scale(0.1 -0.1)">
       <use xlink:href="#DejaVuSans-32"/>
       <use xlink:href="#DejaVuSans-30" x="63.623047"/>
       <use xlink:href="#DejaVuSans-30" x="127.246094"/>
      </g>
     </g>
    </g>
    <g id="text_19">
     <!-- AMPLITUDE -->
     <g transform="translate(75.832812 210.532812) rotate(-90) scale(0.1 -0.1)">
      <defs>
       <path id="DejaVuSans-50" d="M 1259 4147 
L 1259 2394 
L 2053 2394 
Q 2494 2394 2734 2622 
Q 2975 2850 2975 3272 
Q 2975 3691 2734 3919 
Q 2494 4147 2053 4147 
L 1259 4147 
z
M 628 4666 
L 2053 4666 
Q 2838 4666 3239 4311 
Q 3641 3956 3641 3272 
Q 3641 2581 3239 2228 
Q 2838 1875 2053 1875 
L 1259 1875 
L 1259 0 
L 628 0 
L 628 4666 
z
" transform="scale(0.015625)"/>
       <path id="DejaVuSans-4c" d="M 628 4666 
L 1259 4666 
L 1259 531 
L 3531 531 
L 3531 0 
L 628 0 
L 628 4666 
z
" transform="scale(0.015625)"/>
       <path id="DejaVuSans-55" d="M 556 4666 
L 1191 4666 
L 1191 1831 
Q 1191 1081 1462 751 
Q 1734 422 2344 422 
Q 2950 422 3222 751 
Q 3494 1081 3494 1831 
L 3494 4666 
L 4128 4666 
L 4128 1753 
Q 4128 841 3676 375 
Q 3225 -91 2344 -91 
Q 1459 -91 1007 375 
Q 556 841 556 1753 
L 556 4666 
z
" transform="scale(0.015625)"/>
      </defs>
      <use xlink:href="#DejaVuSans-41"/>
      <use xlink:href="#DejaVuSans-4d" x="68.408203"/>
      <use xlink:href="#DejaVuSans-50" x="154.6875"/>
      <use xlink:href="#DejaVuSans-4c" x="214.990234"/>
      <use xlink:href="#DejaVuSans-49" x="270.703125"/>
      <use xlink:href="#DejaVuSans-54" x="300.195312"/>
      <use xlink:href="#DejaVuSans-55" x="361.279297"/>
      <use xlink:href="#DejaVuSans-44" x="434.472656"/>
      <use xlink:href="#DejaVuSans-45" x="511.474609"/>
     </g>
    </g>
   </g>
   <g id="line2d_18">
    <path d="M 138.436364 204.709091 
L 139.282994 240.345455 
L 140.129624 245.436364 
L 140.976255 292.527273 
L 141.822885 291.254545 
L 142.669516 242.890909 
L 143.516146 307.8 
L 144.362777 259.436364 
L 145.209407 300.163636 
L 146.056037 307.8 
L 146.902668 302.709091 
L 147.749298 307.8 
L 148.595929 300.163636 
L 149.442559 272.163636 
L 150.28919 272.163636 
L 151.13582 307.8 
L 151.98245 307.8 
L 152.829081 265.8 
L 153.675711 260.709091 
L 154.522342 307.8 
L 155.368972 307.8 
L 156.215602 221.254545 
L 157.062233 246.709091 
L 157.908863 239.072727 
L 158.755494 287.436364 
L 159.602124 185.618182 
L 160.448755 250.527273 
L 161.295385 228.890909 
L 162.142015 235.254545 
L 162.988646 207.254545 
L 163.835276 225.072727 
L 164.681907 205.981818 
L 165.528537 231.436364 
L 166.375168 218.709091 
L 167.221798 200.890909 
L 168.068428 190.709091 
L 168.915059 216.163636 
L 169.761689 246.709091 
L 170.60832 244.163636 
L 171.45495 197.072727 
L 172.30158 272.163636 
L 173.148211 69.8 
L 173.994841 250.527273 
L 174.841472 232.709091 
L 175.688102 208.527273 
L 176.534733 194.527273 
L 177.381363 205.981818 
L 178.227993 260.709091 
L 179.074624 255.618182 
L 179.921254 307.8 
L 180.767885 228.890909 
L 181.614515 270.890909 
L 182.461146 235.254545 
L 183.307776 307.8 
L 184.154406 302.709091 
L 185.001037 306.527273 
L 185.847667 293.8 
L 186.694298 272.163636 
L 187.540928 239.072727 
L 188.387558 307.8 
L 189.234189 260.709091 
L 190.080819 293.8 
L 190.92745 305.254545 
L 192.620711 307.8 
L 193.467341 287.436364 
L 194.313971 198.345455 
L 195.160602 237.8 
L 196.007232 244.163636 
L 196.853863 269.618182 
L 197.700493 256.890909 
L 198.547124 289.981818 
L 199.393754 193.254545 
L 200.240384 237.8 
L 201.087015 247.981818 
L 201.933645 230.163636 
L 202.780276 221.254545 
L 203.626906 281.072727 
L 204.473536 275.981818 
L 205.320167 133.436364 
L 206.166797 269.618182 
L 207.013428 188.163636 
L 207.860058 146.163636 
L 208.706689 139.8 
L 209.553319 111.8 
L 210.399949 203.436364 
L 211.24658 207.254545 
L 212.09321 190.709091 
L 212.939841 207.254545 
L 213.786471 250.527273 
L 214.633102 74.890909 
L 215.479732 93.981818 
L 216.326362 197.072727 
L 217.172993 55.8 
L 218.019623 231.436364 
L 218.866254 307.8 
L 219.712884 237.8 
L 220.559514 181.8 
L 221.406145 197.072727 
L 222.252775 230.163636 
L 223.099406 307.8 
L 223.946036 231.436364 
L 224.792667 255.618182 
L 225.639297 307.8 
L 227.332558 307.8 
L 228.179188 301.436364 
L 229.025819 286.163636 
L 229.872449 281.072727 
L 230.71908 307.8 
L 234.952232 307.8 
L 235.798862 270.890909 
L 236.645492 270.890909 
L 237.492123 307.8 
L 238.338753 282.345455 
L 239.185384 307.8 
L 240.032014 231.436364 
L 240.878645 268.345455 
L 241.725275 203.436364 
L 242.571905 216.163636 
L 243.418536 175.436364 
L 244.265166 263.254545 
L 245.111797 270.890909 
L 245.958427 265.8 
L 246.805058 88.890909 
L 247.651688 146.163636 
L 248.498318 236.527273 
L 249.344949 180.527273 
L 250.191579 167.8 
L 251.03821 191.981818 
L 251.88484 158.890909 
L 252.73147 134.709091 
L 254.424731 223.8 
L 255.271362 142.345455 
L 256.117992 183.072727 
L 256.964623 195.8 
L 257.811253 165.254545 
L 258.657883 221.254545 
L 259.504514 235.254545 
L 260.351144 227.618182 
L 261.197775 268.345455 
L 262.044405 250.527273 
L 262.891036 297.618182 
L 263.737666 244.163636 
L 264.584296 247.981818 
L 265.430927 303.981818 
L 266.277557 147.436364 
L 267.124188 307.8 
L 267.970818 286.163636 
L 268.817448 307.8 
L 269.664079 300.163636 
L 270.510709 307.8 
L 271.35734 307.8 
L 272.20397 282.345455 
L 273.050601 283.618182 
L 273.897231 307.8 
L 274.743861 307.8 
L 275.590492 306.527273 
L 276.437122 283.618182 
L 277.283753 211.072727 
L 278.130383 272.163636 
L 278.977014 188.163636 
L 279.823644 287.436364 
L 280.670274 265.8 
L 281.516905 194.527273 
L 282.363535 246.709091 
L 283.210166 177.981818 
L 284.056796 204.709091 
L 284.903426 223.8 
L 285.750057 258.163636 
L 286.596687 177.981818 
L 287.443318 275.981818 
L 288.289948 184.345455 
L 289.136579 225.072727 
L 289.983209 217.436364 
L 290.829839 227.618182 
L 291.67647 157.618182 
L 292.5231 199.618182 
L 293.369731 202.163636 
L 294.216361 226.345455 
L 295.062992 207.254545 
L 295.909622 165.254545 
L 296.756252 132.163636 
L 297.602883 158.890909 
L 298.449513 200.890909 
L 299.296144 171.618182 
L 300.142774 123.254545 
L 300.989404 161.436364 
L 301.836035 295.072727 
L 302.682665 258.163636 
L 303.529296 269.618182 
L 304.375926 307.8 
L 305.222557 253.072727 
L 306.069187 306.527273 
L 306.915817 307.8 
L 307.762448 239.072727 
L 308.609078 233.981818 
L 309.455709 307.8 
L 311.14897 307.8 
L 311.9956 235.254545 
L 312.84223 247.981818 
L 313.688861 265.8 
L 314.535491 300.163636 
L 315.382122 282.345455 
L 316.228752 307.8 
L 317.075382 269.618182 
L 317.922013 307.8 
L 318.768643 245.436364 
L 319.615274 291.254545 
L 320.461904 254.345455 
L 321.308535 237.8 
L 322.155165 287.436364 
L 323.001795 203.436364 
L 323.848426 208.527273 
L 324.695056 249.254545 
L 325.541687 228.890909 
L 326.388317 245.436364 
L 327.234948 251.8 
L 328.081578 205.981818 
L 328.928208 233.981818 
L 329.774839 165.254545 
L 330.621469 183.072727 
L 331.4681 177.981818 
L 332.31473 185.618182 
L 333.16136 142.345455 
L 334.007991 109.254545 
L 334.854621 222.527273 
L 335.701252 166.527273 
L 336.547882 205.981818 
L 337.394513 222.527273 
L 338.241143 297.618182 
L 339.087773 184.345455 
L 339.934404 269.618182 
L 340.781034 190.709091 
L 341.627665 185.618182 
L 342.474295 174.163636 
L 343.320926 277.254545 
L 344.167556 191.981818 
L 345.014186 261.981818 
L 345.860817 282.345455 
L 346.707447 261.981818 
L 347.554078 307.8 
L 348.400708 239.072727 
L 349.247338 297.618182 
L 350.093969 300.163636 
L 350.940599 307.8 
L 353.480491 307.8 
L 354.327121 289.981818 
L 355.173751 307.8 
L 356.020382 302.709091 
L 356.867012 288.709091 
L 357.713643 221.254545 
L 358.560273 256.890909 
L 359.406904 237.8 
L 360.253534 307.8 
L 361.100164 258.163636 
L 361.946795 278.527273 
L 362.793425 204.709091 
L 363.640056 233.981818 
L 364.486686 269.618182 
L 365.333316 263.254545 
L 366.179947 255.618182 
L 367.026577 172.890909 
L 367.873208 241.618182 
L 368.719838 209.8 
L 370.413099 171.618182 
L 371.259729 135.981818 
L 372.10636 231.436364 
L 372.95299 190.709091 
L 373.799621 226.345455 
L 374.646251 255.618182 
L 375.492882 163.981818 
L 376.339512 295.072727 
L 377.186142 250.527273 
L 378.032773 273.436364 
L 379.726034 151.254545 
L 380.572664 254.345455 
L 381.419294 269.618182 
L 382.265925 149.981818 
L 383.112555 179.254545 
L 383.959186 297.618182 
L 384.805816 303.981818 
L 385.652447 219.981818 
L 386.499077 242.890909 
L 387.345707 237.8 
L 388.192338 242.890909 
L 389.038968 307.8 
L 389.885599 246.709091 
L 390.732229 212.345455 
L 391.57886 301.436364 
L 392.42549 267.072727 
L 393.27212 300.163636 
L 394.118751 277.254545 
L 394.965381 277.254545 
L 395.812012 281.072727 
L 396.658642 307.8 
L 397.505272 307.8 
L 398.351903 283.618182 
L 399.198533 307.8 
L 400.045164 286.163636 
L 400.891794 286.163636 
L 401.738425 307.8 
L 402.585055 284.890909 
L 403.431685 240.345455 
L 404.278316 260.709091 
L 405.124946 261.981818 
L 405.971577 170.345455 
L 406.818207 283.618182 
L 407.664838 218.709091 
L 408.511468 194.527273 
L 409.358098 232.709091 
L 410.204729 195.8 
L 411.051359 268.345455 
L 411.89799 247.981818 
L 412.74462 259.436364 
L 413.59125 205.981818 
L 414.437881 205.981818 
L 415.284511 180.527273 
L 416.131142 139.8 
L 416.977772 163.981818 
L 417.824403 179.254545 
L 418.671033 205.981818 
L 419.517663 142.345455 
L 420.364294 235.254545 
L 421.210924 208.527273 
L 422.057555 195.8 
L 422.904185 156.345455 
L 423.750816 216.163636 
L 424.597446 176.709091 
L 425.444076 273.436364 
L 426.290707 307.8 
L 427.137337 267.072727 
L 427.983968 296.345455 
L 428.830598 286.163636 
L 429.677228 264.527273 
L 430.523859 307.8 
L 431.370489 292.527273 
L 432.21712 307.8 
L 433.06375 300.163636 
L 433.910381 246.709091 
L 434.757011 307.8 
L 436.450272 307.8 
L 437.296902 273.436364 
L 438.143533 307.8 
L 440.683424 307.8 
L 441.530054 264.527273 
L 442.376685 301.436364 
L 443.223315 302.709091 
L 444.069946 256.890909 
L 444.916576 307.8 
L 445.763206 227.618182 
L 446.609837 250.527273 
L 447.456467 190.709091 
L 448.303098 237.8 
L 449.149728 233.981818 
L 449.996359 217.436364 
L 450.842989 249.254545 
L 451.689619 291.254545 
L 452.53625 141.072727 
L 453.38288 197.072727 
L 454.229511 245.436364 
L 455.076141 151.254545 
L 455.922772 225.072727 
L 456.769402 184.345455 
L 457.616032 78.709091 
L 458.462663 194.527273 
L 459.309293 143.618182 
L 460.155924 282.345455 
L 461.002554 174.163636 
L 461.849184 199.618182 
L 462.695815 254.345455 
L 463.542445 273.436364 
L 464.389076 195.8 
L 466.082337 246.709091 
L 466.928967 274.709091 
L 467.775597 162.709091 
L 469.468858 267.072727 
L 470.315489 307.8 
L 471.162119 212.345455 
L 472.00875 233.981818 
L 472.85538 289.981818 
L 473.70201 297.618182 
L 474.548641 254.345455 
L 475.395271 307.8 
L 476.241902 307.8 
L 477.088532 300.163636 
L 477.935162 296.345455 
L 478.781793 307.8 
L 479.628423 297.618182 
L 480.475054 307.8 
L 481.321684 250.527273 
L 482.168315 307.8 
L 483.014945 297.618182 
L 483.861575 240.345455 
L 484.708206 307.8 
L 485.554836 301.436364 
L 486.401467 305.254545 
L 487.248097 228.890909 
L 488.094728 246.709091 
L 488.941358 205.981818 
L 489.787988 151.254545 
L 490.634619 245.436364 
L 491.481249 218.709091 
L 492.32788 146.163636 
L 493.17451 139.8 
L 494.02114 269.618182 
L 494.867771 149.981818 
L 495.714401 208.527273 
L 496.561032 249.254545 
L 497.407662 218.709091 
L 498.254293 177.981818 
L 499.100923 155.072727 
L 499.947553 203.436364 
L 500.794184 176.709091 
L 501.640814 132.163636 
L 502.487445 162.709091 
L 503.334075 146.163636 
L 504.180706 209.8 
L 505.027336 181.8 
L 505.873966 232.709091 
L 506.720597 217.436364 
L 507.567227 278.527273 
L 508.413858 251.8 
L 509.260488 277.254545 
L 510.107118 251.8 
L 510.953749 221.254545 
L 511.800379 307.8 
L 513.49364 254.345455 
L 514.340271 278.527273 
L 515.186901 268.345455 
L 516.033531 247.981818 
L 516.880162 307.8 
L 517.726792 246.709091 
L 518.573423 265.8 
L 519.420053 307.8 
L 520.266684 307.8 
L 521.113314 292.527273 
L 521.959944 286.163636 
L 522.806575 191.981818 
L 523.653205 307.8 
L 524.499836 307.8 
L 525.346466 298.890909 
L 526.193096 288.709091 
L 527.039727 281.072727 
L 527.886357 293.8 
L 528.732988 218.709091 
L 529.579618 263.254545 
L 530.426249 251.8 
L 531.272879 200.890909 
L 532.119509 277.254545 
L 532.96614 202.163636 
L 533.81277 272.163636 
L 534.659401 161.436364 
L 535.506031 264.527273 
L 536.352662 219.981818 
L 537.199292 211.072727 
L 538.045922 268.345455 
L 538.892553 147.436364 
L 539.739183 165.254545 
L 540.585814 153.8 
L 541.432444 208.527273 
L 542.279074 125.8 
L 543.125705 211.072727 
L 543.972335 165.254545 
L 544.818966 213.618182 
L 545.665596 163.981818 
L 546.512227 241.618182 
L 547.358857 107.981818 
L 548.205487 177.981818 
L 549.052118 180.527273 
L 549.898748 264.527273 
L 550.745379 221.254545 
L 551.592009 287.436364 
L 552.43864 307.8 
L 553.28527 253.072727 
L 554.1319 259.436364 
L 554.978531 291.254545 
L 555.825161 218.709091 
L 556.671792 263.254545 
L 557.518422 254.345455 
L 558.365052 267.072727 
L 559.211683 267.072727 
L 560.058313 307.8 
L 560.904944 291.254545 
L 561.751574 307.8 
L 562.598205 279.8 
L 563.444835 307.8 
L 564.291465 268.345455 
L 565.138096 272.163636 
L 565.984726 307.8 
L 566.831357 249.254545 
L 567.677987 307.8 
L 568.524618 287.436364 
L 569.371248 274.709091 
L 570.217878 307.8 
L 571.911139 307.8 
L 572.75777 247.981818 
L 573.6044 249.254545 
L 574.45103 241.618182 
L 575.297661 167.8 
L 576.144291 259.436364 
L 576.990922 148.709091 
L 577.837552 202.163636 
L 578.684183 104.163636 
L 579.530813 226.345455 
L 580.377443 189.436364 
L 581.224074 190.709091 
L 582.070704 185.618182 
L 582.917335 203.436364 
L 583.763965 183.072727 
L 584.610596 149.981818 
L 585.457226 170.345455 
L 586.303856 209.8 
L 587.150487 99.072727 
L 587.997117 199.618182 
L 588.843748 143.618182 
L 589.690378 212.345455 
L 590.537008 194.527273 
L 591.383639 204.709091 
L 592.230269 169.072727 
L 593.0769 199.618182 
L 593.92353 306.527273 
L 594.770161 225.072727 
L 595.616791 244.163636 
L 596.463421 283.618182 
L 597.310052 303.981818 
L 598.156682 264.527273 
L 599.003313 253.072727 
L 599.849943 246.709091 
L 600.696574 303.981818 
L 601.543204 307.8 
L 602.389834 193.254545 
L 603.236465 307.8 
L 604.083095 307.8 
L 604.929726 228.890909 
L 605.776356 214.890909 
L 606.622986 307.8 
L 607.469617 293.8 
L 608.316247 295.072727 
L 609.162878 307.8 
L 610.009508 251.8 
L 610.856139 231.436364 
L 611.702769 287.436364 
L 612.549399 300.163636 
L 613.39603 286.163636 
L 614.24266 292.527273 
L 615.089291 247.981818 
L 615.935921 166.527273 
L 616.782552 242.890909 
L 617.629182 202.163636 
L 618.475812 246.709091 
L 619.322443 172.890909 
L 620.169073 250.527273 
L 621.015704 249.254545 
L 621.862334 143.618182 
L 622.708964 207.254545 
L 623.555595 228.890909 
L 624.402225 179.254545 
L 625.248856 203.436364 
L 626.095486 216.163636 
L 626.942117 205.981818 
L 627.788747 124.527273 
L 628.635377 217.436364 
L 629.482008 171.618182 
L 630.328638 231.436364 
L 631.175269 282.345455 
L 632.021899 230.163636 
L 632.86853 207.254545 
L 633.71516 167.8 
L 634.56179 193.254545 
L 635.408421 227.618182 
L 636.255051 200.890909 
L 637.101682 307.8 
L 637.948312 264.527273 
L 638.794942 302.709091 
L 639.641573 258.163636 
L 640.488203 307.8 
L 641.334834 227.618182 
L 642.181464 295.072727 
L 643.028095 265.8 
L 643.874725 278.527273 
L 644.721355 297.618182 
L 645.567986 269.618182 
L 646.414616 295.072727 
L 647.261247 282.345455 
L 648.107877 307.8 
L 648.954508 307.8 
L 649.801138 260.709091 
L 650.647768 230.163636 
L 651.494399 228.890909 
L 652.341029 221.254545 
L 653.18766 273.436364 
L 654.03429 232.709091 
L 654.88092 307.8 
L 655.727551 275.981818 
L 656.574181 272.163636 
L 657.420812 307.8 
L 658.267442 245.436364 
L 659.114073 307.8 
L 659.960703 198.345455 
L 660.807333 204.709091 
L 661.653964 208.527273 
L 662.500594 219.981818 
L 663.347225 288.709091 
L 664.193855 214.890909 
L 665.040486 207.254545 
L 665.887116 230.163636 
L 666.733746 230.163636 
L 667.580377 242.890909 
L 668.427007 167.8 
L 669.273638 205.981818 
L 670.120268 223.8 
L 670.966898 109.254545 
L 671.813529 113.072727 
L 672.660159 174.163636 
L 673.50679 188.163636 
L 674.35342 205.981818 
L 675.200051 232.709091 
L 676.046681 174.163636 
L 676.893311 307.8 
L 677.739942 227.618182 
L 678.586572 295.072727 
L 679.433203 284.890909 
L 680.279833 156.345455 
L 681.126464 307.8 
L 681.973094 307.8 
L 683.666355 263.254545 
L 684.512985 249.254545 
L 685.359616 307.8 
L 688.746137 307.8 
L 689.592768 261.981818 
L 690.439398 307.8 
L 692.132659 307.8 
L 692.979289 293.8 
L 693.82592 289.981818 
L 694.67255 279.8 
L 695.519181 179.254545 
L 696.365811 284.890909 
L 697.212442 272.163636 
L 698.059072 265.8 
L 698.905702 222.527273 
L 699.752333 223.8 
L 700.598963 253.072727 
L 701.445594 232.709091 
L 702.292224 292.527273 
L 703.138854 198.345455 
L 703.985485 194.527273 
L 704.832115 200.890909 
L 705.678746 227.618182 
L 706.525376 231.436364 
L 707.372007 190.709091 
L 708.218637 207.254545 
L 709.065267 132.163636 
L 709.911898 163.981818 
L 710.758528 237.8 
L 711.605159 156.345455 
L 712.451789 141.072727 
L 713.29842 171.618182 
L 714.14505 232.709091 
L 714.99168 148.709091 
L 715.838311 208.527273 
L 716.684941 237.8 
L 717.531572 240.345455 
L 718.378202 216.163636 
L 719.224832 242.890909 
L 720.071463 218.709091 
L 720.918093 227.618182 
L 721.764724 240.345455 
L 722.611354 268.345455 
L 723.457985 199.618182 
L 724.304615 307.8 
L 725.151245 298.890909 
L 725.997876 307.8 
L 726.844506 307.8 
L 727.691137 240.345455 
L 728.537767 235.254545 
L 729.384398 289.981818 
L 730.231028 307.8 
L 731.077658 253.072727 
L 731.924289 307.8 
L 732.770919 263.254545 
L 733.61755 305.254545 
L 734.46418 307.8 
L 735.31081 307.8 
L 736.157441 260.709091 
L 737.004071 249.254545 
L 738.697332 183.072727 
L 739.543963 269.618182 
L 740.390593 307.8 
L 741.237223 272.163636 
L 742.083854 230.163636 
L 742.930484 247.981818 
L 744.623745 188.163636 
L 745.470376 163.981818 
L 746.317006 179.254545 
L 747.163636 185.618182 
L 747.163636 185.618182 
" clip-path="url(#p0406535851)" style="fill: none; stroke: #191970; stroke-width: 2; stroke-linecap: square"/>
   </g>
   <g id="patch_3">
    <path d="M 108 320.4 
L 108 43.2 
" style="fill: none; stroke: #000000; stroke-width: 0.8; stroke-linejoin: miter; stroke-linecap: square"/>
   </g>
   <g id="patch_4">
    <path d="M 777.6 320.4 
L 777.6 43.2 
" style="fill: none; stroke: #000000; stroke-width: 0.8; stroke-linejoin: miter; stroke-linecap: square"/>
   </g>
   <g id="patch_5">
    <path d="M 108 320.4 
L 777.6 320.4 
" style="fill: none; stroke: #000000; stroke-width: 0.8; stroke-linejoin: miter; stroke-linecap: square"/>
   </g>
   <g id="patch_6">
    <path d="M 108 43.2 
L 777.6 43.2 
" style="fill: none; stroke: #000000; stroke-width: 0.8; stroke-linejoin: miter; stroke-linecap: square"/>
   </g>
   <g id="text_20">
    <!-- TIME SERIES -->
    <g transform="translate(405.350625 37.2) scale(0.12 -0.12)">
     <defs>
      <path id="DejaVuSans-52" d="M 2841 2188 
Q 3044 2119 3236 1894 
Q 3428 1669 3622 1275 
L 4263 0 
L 3584 0 
L 2988 1197 
Q 2756 1666 2539 1819 
Q 2322 1972 1947 1972 
L 1259 1972 
L 1259 0 
L 628 0 
L 628 4666 
L 2053 4666 
Q 2853 4666 3247 4331 
Q 3641 3997 3641 3322 
Q 3641 2881 3436 2590 
Q 3231 2300 2841 2188 
z
M 1259 4147 
L 1259 2491 
L 2053 2491 
Q 2509 2491 2742 2702 
Q 2975 2913 2975 3322 
Q 2975 3731 2742 3939 
Q 2509 4147 2053 4147 
L 1259 4147 
z
" transform="scale(0.015625)"/>
     </defs>
     <use xlink:href="#DejaVuSans-54"/>
     <use xlink:href="#DejaVuSans-49" x="61.083984"/>
     <use xlink:href="#DejaVuSans-4d" x="90.576172"/>
     <use xlink:href="#DejaVuSans-45" x="176.855469"/>
     <use xlink:href="#DejaVuSans-20" x="240.039062"/>
     <use xlink:href="#DejaVuSans-53" x="271.826172"/>
     <use xlink:href="#DejaVuSans-45" x="335.302734"/>
     <use xlink:href="#DejaVuSans-52" x="398.486328"/>
     <use xlink:href="#DejaVuSans-49" x="467.96875"/>
     <use xlink:href="#DejaVuSans-45" x="497.460938"/>
     <use xlink:href="#DejaVuSans-53" x="560.644531"/>
    </g>
   </g>
  </g>
 </g>
 <defs>
  <clipPath id="p0406535851">
   <rect x="108" y="43.2" width="669.6" height="277.2"/>
  </clipPath>
 </defs>
</svg>
