<?xml version="1.0" encoding="utf-8" standalone="no"?>
<!DOCTYPE svg PUBLIC "-//W3C//DTD SVG 1.1//EN"
  "http://www.w3.org/Graphics/SVG/1.1/DTD/svg11.dtd">
<svg xmlns:xlink="http://www.w3.org/1999/xlink" width="424.8pt" height="141.12pt" viewBox="0 0 424.8 141.12" xmlns="http://www.w3.org/2000/svg" version="1.1">
 <metadata>
  <rdf:RDF xmlns:dc="http://purl.org/dc/elements/1.1/" xmlns:cc="http://creativecommons.org/ns#" xmlns:rdf="http://www.w3.org/1999/02/22-rdf-syntax-ns#">
   <cc:Work>
    <dc:type rdf:resource="http://purl.org/dc/dcmitype/StillImage"/>
    <dc:date>2023-11-28T11:15:28.752749</dc:date>
    <dc:format>image/svg+xml</dc:format>
    <dc:creator>
     <cc:Agent>
      <dc:title>Matplotlib v3.7.4, https://matplotlib.org/</dc:title>
     </cc:Agent>
    </dc:creator>
   </cc:Work>
  </rdf:RDF>
 </metadata>
 <defs>
  <style type="text/css">*{stroke-linejoin: round; stroke-linecap: butt}</style>
 </defs>
 <g id="figure_1">
  <g id="patch_1">
   <path d="M 0 141.12 
L 424.8 141.12 
L 424.8 0 
L 0 0 
z
" style="fill: #ffffff"/>
  </g>
  <g id="axes_1">
   <g id="patch_2">
    <path d="M 74.464 92.36 
L 414 92.36 
L 414 60.144 
L 74.464 60.144 
z
" style="fill: #ffffff"/>
   </g>
   <g id="patch_3">
    <path d="M 71.574332 76.955477 
L 77.353668 76.955477 
L 77.353668 65.236245 
L 71.574332 65.236245 
z
" clip-path="url(#p57a403cea6)" style="fill: #696969"/>
   </g>
   <g id="patch_4">
    <path d="M 78.798502 76.955477 
L 84.577838 76.955477 
L 84.577838 63.139279 
L 78.798502 63.139279 
z
" clip-path="url(#p57a403cea6)" style="fill: #696969"/>
   </g>
   <g id="patch_5">
    <path d="M 86.022672 76.955477 
L 91.802009 76.955477 
L 91.802009 63.601776 
L 86.022672 63.601776 
z
" clip-path="url(#p57a403cea6)" style="fill: #696969"/>
   </g>
   <g id="patch_6">
    <path d="M 93.246843 76.955477 
L 99.026179 76.955477 
L 99.026179 65.036645 
L 93.246843 65.036645 
z
" clip-path="url(#p57a403cea6)" style="fill: #696969"/>
   </g>
   <g id="patch_7">
    <path d="M 100.471013 76.955477 
L 106.250349 76.955477 
L 106.250349 66.138707 
L 100.471013 66.138707 
z
" clip-path="url(#p57a403cea6)" style="fill: #696969"/>
   </g>
   <g id="patch_8">
    <path d="M 107.695183 76.955477 
L 113.474519 76.955477 
L 113.474519 66.815812 
L 107.695183 66.815812 
z
" clip-path="url(#p57a403cea6)" style="fill: #696969"/>
   </g>
   <g id="patch_9">
    <path d="M 114.919353 76.955477 
L 120.698689 76.955477 
L 120.698689 69.651987 
L 114.919353 69.651987 
z
" clip-path="url(#p57a403cea6)" style="fill: #696969"/>
   </g>
   <g id="patch_10">
    <path d="M 122.143523 76.955477 
L 127.92286 76.955477 
L 127.92286 74.938725 
L 122.143523 74.938725 
z
" clip-path="url(#p57a403cea6)" style="fill: #696969"/>
   </g>
   <g id="patch_11">
    <path d="M 129.367694 76.955477 
L 135.14703 76.955477 
L 135.14703 76.835803 
L 129.367694 76.835803 
z
" clip-path="url(#p57a403cea6)" style="fill: #696969"/>
   </g>
   <g id="patch_12">
    <path d="M 136.591864 76.955477 
L 142.3712 76.955477 
L 142.3712 80.535669 
L 136.591864 80.535669 
z
" clip-path="url(#p57a403cea6)" style="fill: #696969"/>
   </g>
   <g id="patch_13">
    <path d="M 143.816034 76.955477 
L 149.59537 76.955477 
L 149.59537 82.24299 
L 143.816034 82.24299 
z
" clip-path="url(#p57a403cea6)" style="fill: #696969"/>
   </g>
   <g id="patch_14">
    <path d="M 151.040204 76.955477 
L 156.81954 76.955477 
L 156.81954 86.377003 
L 151.040204 86.377003 
z
" clip-path="url(#p57a403cea6)" style="fill: #696969"/>
   </g>
   <g id="patch_15">
    <path d="M 158.264374 76.955477 
L 164.043711 76.955477 
L 164.043711 86.859804 
L 158.264374 86.859804 
z
" clip-path="url(#p57a403cea6)" style="fill: #696969"/>
   </g>
   <g id="patch_16">
    <path d="M 165.488545 76.955477 
L 171.267881 76.955477 
L 171.267881 88.563519 
L 165.488545 88.563519 
z
" clip-path="url(#p57a403cea6)" style="fill: #696969"/>
   </g>
   <g id="patch_17">
    <path d="M 172.712715 76.955477 
L 178.492051 76.955477 
L 178.492051 87.009148 
L 172.712715 87.009148 
z
" clip-path="url(#p57a403cea6)" style="fill: #696969"/>
   </g>
   <g id="patch_18">
    <path d="M 179.936885 76.955477 
L 185.716221 76.955477 
L 185.716221 86.794494 
L 179.936885 86.794494 
z
" clip-path="url(#p57a403cea6)" style="fill: #696969"/>
   </g>
   <g id="patch_19">
    <path d="M 187.161055 76.955477 
L 192.940391 76.955477 
L 192.940391 85.715578 
L 187.161055 85.715578 
z
" clip-path="url(#p57a403cea6)" style="fill: #696969"/>
   </g>
   <g id="patch_20">
    <path d="M 194.385226 76.955477 
L 200.164562 76.955477 
L 200.164562 85.153382 
L 194.385226 85.153382 
z
" clip-path="url(#p57a403cea6)" style="fill: #696969"/>
   </g>
   <g id="patch_21">
    <path d="M 201.609396 76.955477 
L 207.388732 76.955477 
L 207.388732 83.057121 
L 201.609396 83.057121 
z
" clip-path="url(#p57a403cea6)" style="fill: #696969"/>
   </g>
   <g id="patch_22">
    <path d="M 208.833566 76.955477 
L 214.612902 76.955477 
L 214.612902 78.546398 
L 208.833566 78.546398 
z
" clip-path="url(#p57a403cea6)" style="fill: #696969"/>
   </g>
   <g id="patch_23">
    <path d="M 216.057736 76.955477 
L 221.837072 76.955477 
L 221.837072 74.861952 
L 216.057736 74.861952 
z
" clip-path="url(#p57a403cea6)" style="fill: #696969"/>
   </g>
   <g id="patch_24">
    <path d="M 223.281906 76.955477 
L 229.061243 76.955477 
L 229.061243 69.954637 
L 223.281906 69.954637 
z
" clip-path="url(#p57a403cea6)" style="fill: #696969"/>
   </g>
   <g id="patch_25">
    <path d="M 230.506077 76.955477 
L 236.285413 76.955477 
L 236.285413 66.928866 
L 230.506077 66.928866 
z
" clip-path="url(#p57a403cea6)" style="fill: #696969"/>
   </g>
   <g id="patch_26">
    <path d="M 237.730247 76.955477 
L 243.509583 76.955477 
L 243.509583 65.173853 
L 237.730247 65.173853 
z
" clip-path="url(#p57a403cea6)" style="fill: #696969"/>
   </g>
   <g id="patch_27">
    <path d="M 244.954417 76.955477 
L 250.733753 76.955477 
L 250.733753 66.389091 
L 244.954417 66.389091 
z
" clip-path="url(#p57a403cea6)" style="fill: #696969"/>
   </g>
   <g id="patch_28">
    <path d="M 252.178587 76.955477 
L 257.957923 76.955477 
L 257.957923 65.636421 
L 252.178587 65.636421 
z
" clip-path="url(#p57a403cea6)" style="fill: #696969"/>
   </g>
   <g id="patch_29">
    <path d="M 259.402757 76.955477 
L 265.182094 76.955477 
L 265.182094 64.809664 
L 259.402757 64.809664 
z
" clip-path="url(#p57a403cea6)" style="fill: #696969"/>
   </g>
   <g id="patch_30">
    <path d="M 266.626928 76.955477 
L 272.406264 76.955477 
L 272.406264 62.828667 
L 266.626928 62.828667 
z
" clip-path="url(#p57a403cea6)" style="fill: #696969"/>
   </g>
   <g id="patch_31">
    <path d="M 273.851098 76.955477 
L 279.630434 76.955477 
L 279.630434 64.132616 
L 273.851098 64.132616 
z
" clip-path="url(#p57a403cea6)" style="fill: #696969"/>
   </g>
   <g id="patch_32">
    <path d="M 281.075268 76.955477 
L 286.854604 76.955477 
L 286.854604 66.631614 
L 281.075268 66.631614 
z
" clip-path="url(#p57a403cea6)" style="fill: #696969"/>
   </g>
   <g id="patch_33">
    <path d="M 288.299438 76.955477 
L 294.078774 76.955477 
L 294.078774 71.883436 
L 288.299438 71.883436 
z
" clip-path="url(#p57a403cea6)" style="fill: #696969"/>
   </g>
   <g id="patch_34">
    <path d="M 295.523609 76.955477 
L 301.302945 76.955477 
L 301.302945 75.31476 
L 295.523609 75.31476 
z
" clip-path="url(#p57a403cea6)" style="fill: #696969"/>
   </g>
   <g id="patch_35">
    <path d="M 302.747779 76.955477 
L 308.527115 76.955477 
L 308.527115 79.208432 
L 302.747779 79.208432 
z
" clip-path="url(#p57a403cea6)" style="fill: #696969"/>
   </g>
   <g id="patch_36">
    <path d="M 309.971949 76.955477 
L 315.751285 76.955477 
L 315.751285 82.626167 
L 309.971949 82.626167 
z
" clip-path="url(#p57a403cea6)" style="fill: #696969"/>
   </g>
   <g id="patch_37">
    <path d="M 317.196119 76.955477 
L 322.975455 76.955477 
L 322.975455 84.014505 
L 317.196119 84.014505 
z
" clip-path="url(#p57a403cea6)" style="fill: #696969"/>
   </g>
   <g id="patch_38">
    <path d="M 324.420289 76.955477 
L 330.199626 76.955477 
L 330.199626 85.045036 
L 324.420289 85.045036 
z
" clip-path="url(#p57a403cea6)" style="fill: #696969"/>
   </g>
   <g id="patch_39">
    <path d="M 331.64446 76.955477 
L 337.423796 76.955477 
L 337.423796 85.82035 
L 331.64446 85.82035 
z
" clip-path="url(#p57a403cea6)" style="fill: #696969"/>
   </g>
   <g id="patch_40">
    <path d="M 338.86863 76.955477 
L 344.647966 76.955477 
L 344.647966 88.37072 
L 338.86863 88.37072 
z
" clip-path="url(#p57a403cea6)" style="fill: #696969"/>
   </g>
   <g id="patch_41">
    <path d="M 346.0928 76.955477 
L 351.872136 76.955477 
L 351.872136 89.675333 
L 346.0928 89.675333 
z
" clip-path="url(#p57a403cea6)" style="fill: #696969"/>
   </g>
   <g id="patch_42">
    <path d="M 353.31697 76.955477 
L 359.096306 76.955477 
L 359.096306 87.825428 
L 353.31697 87.825428 
z
" clip-path="url(#p57a403cea6)" style="fill: #696969"/>
   </g>
   <g id="patch_43">
    <path d="M 360.54114 76.955477 
L 366.320477 76.955477 
L 366.320477 85.14193 
L 360.54114 85.14193 
z
" clip-path="url(#p57a403cea6)" style="fill: #696969"/>
   </g>
   <g id="patch_44">
    <path d="M 367.765311 76.955477 
L 373.544647 76.955477 
L 373.544647 82.047921 
L 367.765311 82.047921 
z
" clip-path="url(#p57a403cea6)" style="fill: #696969"/>
   </g>
   <g id="patch_45">
    <path d="M 374.989481 76.955477 
L 380.768817 76.955477 
L 380.768817 79.188667 
L 374.989481 79.188667 
z
" clip-path="url(#p57a403cea6)" style="fill: #696969"/>
   </g>
   <g id="patch_46">
    <path d="M 382.213651 76.955477 
L 387.992987 76.955477 
L 387.992987 78.84503 
L 382.213651 78.84503 
z
" clip-path="url(#p57a403cea6)" style="fill: #696969"/>
   </g>
   <g id="patch_47">
    <path d="M 389.437821 76.955477 
L 395.217157 76.955477 
L 395.217157 74.602951 
L 389.437821 74.602951 
z
" clip-path="url(#p57a403cea6)" style="fill: #696969"/>
   </g>
   <g id="patch_48">
    <path d="M 396.661991 76.955477 
L 402.441328 76.955477 
L 402.441328 73.196794 
L 396.661991 73.196794 
z
" clip-path="url(#p57a403cea6)" style="fill: #696969"/>
   </g>
   <g id="patch_49">
    <path d="M 403.886162 76.955477 
L 409.665498 76.955477 
L 409.665498 67.95436 
L 403.886162 67.95436 
z
" clip-path="url(#p57a403cea6)" style="fill: #696969"/>
   </g>
   <g id="patch_50">
    <path d="M 411.110332 76.955477 
L 416.889668 76.955477 
L 416.889668 66.513929 
L 411.110332 66.513929 
z
" clip-path="url(#p57a403cea6)" style="fill: #696969"/>
   </g>
   <g id="matplotlib.axis_1">
    <g id="xtick_1">
     <g id="line2d_1">
      <defs>
       <path id="m0050c92f0d" d="M 0 0 
L 0 3.5 
" style="stroke: #000000; stroke-width: 0.8"/>
      </defs>
      <g>
       <use xlink:href="#m0050c92f0d" x="74.464" y="92.36" style="stroke: #000000; stroke-width: 0.8"/>
      </g>
     </g>
     <g id="text_1">
      <!-- 0 -->
      <g transform="translate(71.28275 106.958438) scale(0.1 -0.1)">
       <defs>
        <path id="DejaVuSans-30" d="M 2034 4250 
Q 1547 4250 1301 3770 
Q 1056 3291 1056 2328 
Q 1056 1369 1301 889 
Q 1547 409 2034 409 
Q 2525 409 2770 889 
Q 3016 1369 3016 2328 
Q 3016 3291 2770 3770 
Q 2525 4250 2034 4250 
z
M 2034 4750 
Q 2819 4750 3233 4129 
Q 3647 3509 3647 2328 
Q 3647 1150 3233 529 
Q 2819 -91 2034 -91 
Q 1250 -91 836 529 
Q 422 1150 422 2328 
Q 422 3509 836 4129 
Q 1250 4750 2034 4750 
z
" transform="scale(0.015625)"/>
       </defs>
       <use xlink:href="#DejaVuSans-30"/>
      </g>
     </g>
    </g>
    <g id="xtick_2">
     <g id="line2d_2">
      <g>
       <use xlink:href="#m0050c92f0d" x="146.705702" y="92.36" style="stroke: #000000; stroke-width: 0.8"/>
      </g>
     </g>
     <g id="text_2">
      <!-- 10 -->
      <g transform="translate(140.343202 106.958438) scale(0.1 -0.1)">
       <defs>
        <path id="DejaVuSans-31" d="M 794 531 
L 1825 531 
L 1825 4091 
L 703 3866 
L 703 4441 
L 1819 4666 
L 2450 4666 
L 2450 531 
L 3481 531 
L 3481 0 
L 794 0 
L 794 531 
z
" transform="scale(0.015625)"/>
       </defs>
       <use xlink:href="#DejaVuSans-31"/>
       <use xlink:href="#DejaVuSans-30" x="63.623047"/>
      </g>
     </g>
    </g>
    <g id="xtick_3">
     <g id="line2d_3">
      <g>
       <use xlink:href="#m0050c92f0d" x="218.947404" y="92.36" style="stroke: #000000; stroke-width: 0.8"/>
      </g>
     </g>
     <g id="text_3">
      <!-- 20 -->
      <g transform="translate(212.584904 106.958438) scale(0.1 -0.1)">
       <defs>
        <path id="DejaVuSans-32" d="M 1228 531 
L 3431 531 
L 3431 0 
L 469 0 
L 469 531 
Q 828 903 1448 1529 
Q 2069 2156 2228 2338 
Q 2531 2678 2651 2914 
Q 2772 3150 2772 3378 
Q 2772 3750 2511 3984 
Q 2250 4219 1831 4219 
Q 1534 4219 1204 4116 
Q 875 4013 500 3803 
L 500 4441 
Q 881 4594 1212 4672 
Q 1544 4750 1819 4750 
Q 2544 4750 2975 4387 
Q 3406 4025 3406 3419 
Q 3406 3131 3298 2873 
Q 3191 2616 2906 2266 
Q 2828 2175 2409 1742 
Q 1991 1309 1228 531 
z
" transform="scale(0.015625)"/>
       </defs>
       <use xlink:href="#DejaVuSans-32"/>
       <use xlink:href="#DejaVuSans-30" x="63.623047"/>
      </g>
     </g>
    </g>
    <g id="xtick_4">
     <g id="line2d_4">
      <g>
       <use xlink:href="#m0050c92f0d" x="291.189106" y="92.36" style="stroke: #000000; stroke-width: 0.8"/>
      </g>
     </g>
     <g id="text_4">
      <!-- 30 -->
      <g transform="translate(284.826606 106.958438) scale(0.1 -0.1)">
       <defs>
        <path id="DejaVuSans-33" d="M 2597 2516 
Q 3050 2419 3304 2112 
Q 3559 1806 3559 1356 
Q 3559 666 3084 287 
Q 2609 -91 1734 -91 
Q 1441 -91 1130 -33 
Q 819 25 488 141 
L 488 750 
Q 750 597 1062 519 
Q 1375 441 1716 441 
Q 2309 441 2620 675 
Q 2931 909 2931 1356 
Q 2931 1769 2642 2001 
Q 2353 2234 1838 2234 
L 1294 2234 
L 1294 2753 
L 1863 2753 
Q 2328 2753 2575 2939 
Q 2822 3125 2822 3475 
Q 2822 3834 2567 4026 
Q 2313 4219 1838 4219 
Q 1578 4219 1281 4162 
Q 984 4106 628 3988 
L 628 4550 
Q 988 4650 1302 4700 
Q 1616 4750 1894 4750 
Q 2613 4750 3031 4423 
Q 3450 4097 3450 3541 
Q 3450 3153 3228 2886 
Q 3006 2619 2597 2516 
z
" transform="scale(0.015625)"/>
       </defs>
       <use xlink:href="#DejaVuSans-33"/>
       <use xlink:href="#DejaVuSans-30" x="63.623047"/>
      </g>
     </g>
    </g>
    <g id="xtick_5">
     <g id="line2d_5">
      <g>
       <use xlink:href="#m0050c92f0d" x="363.430809" y="92.36" style="stroke: #000000; stroke-width: 0.8"/>
      </g>
     </g>
     <g id="text_5">
      <!-- 40 -->
      <g transform="translate(357.068309 106.958438) scale(0.1 -0.1)">
       <defs>
        <path id="DejaVuSans-34" d="M 2419 4116 
L 825 1625 
L 2419 1625 
L 2419 4116 
z
M 2253 4666 
L 3047 4666 
L 3047 1625 
L 3713 1625 
L 3713 1100 
L 3047 1100 
L 3047 0 
L 2419 0 
L 2419 1100 
L 313 1100 
L 313 1709 
L 2253 4666 
z
" transform="scale(0.015625)"/>
       </defs>
       <use xlink:href="#DejaVuSans-34"/>
       <use xlink:href="#DejaVuSans-30" x="63.623047"/>
      </g>
     </g>
    </g>
   </g>
   <g id="matplotlib.axis_2">
    <g id="ytick_1">
     <g id="line2d_6">
      <defs>
       <path id="m7670deb000" d="M 0 0 
L -3.5 0 
" style="stroke: #000000; stroke-width: 0.8"/>
      </defs>
      <g>
       <use xlink:href="#m7670deb000" x="74.464" y="90.016138" style="stroke: #000000; stroke-width: 0.8"/>
      </g>
     </g>
     <g id="text_6">
      <!-- −5 -->
      <g transform="translate(52.721812 93.815357) scale(0.1 -0.1)">
       <defs>
        <path id="DejaVuSans-2212" d="M 678 2272 
L 4684 2272 
L 4684 1741 
L 678 1741 
L 678 2272 
z
" transform="scale(0.015625)"/>
        <path id="DejaVuSans-35" d="M 691 4666 
L 3169 4666 
L 3169 4134 
L 1269 4134 
L 1269 2991 
Q 1406 3038 1543 3061 
Q 1681 3084 1819 3084 
Q 2600 3084 3056 2656 
Q 3513 2228 3513 1497 
Q 3513 744 3044 326 
Q 2575 -91 1722 -91 
Q 1428 -91 1123 -41 
Q 819 9 494 109 
L 494 744 
Q 775 591 1075 516 
Q 1375 441 1709 441 
Q 2250 441 2565 725 
Q 2881 1009 2881 1497 
Q 2881 1984 2565 2268 
Q 2250 2553 1709 2553 
Q 1456 2553 1204 2497 
Q 953 2441 691 2322 
L 691 4666 
z
" transform="scale(0.015625)"/>
       </defs>
       <use xlink:href="#DejaVuSans-2212"/>
       <use xlink:href="#DejaVuSans-35" x="83.789062"/>
      </g>
     </g>
    </g>
    <g id="ytick_2">
     <g id="line2d_7">
      <g>
       <use xlink:href="#m7670deb000" x="74.464" y="76.955477" style="stroke: #000000; stroke-width: 0.8"/>
      </g>
     </g>
     <g id="text_7">
      <!-- 0 -->
      <g transform="translate(61.1015 80.754695) scale(0.1 -0.1)">
       <use xlink:href="#DejaVuSans-30"/>
      </g>
     </g>
    </g>
    <g id="ytick_3">
     <g id="line2d_8">
      <g>
       <use xlink:href="#m7670deb000" x="74.464" y="63.894815" style="stroke: #000000; stroke-width: 0.8"/>
      </g>
     </g>
     <g id="text_8">
      <!-- 5 -->
      <g transform="translate(61.1015 67.694034) scale(0.1 -0.1)">
       <use xlink:href="#DejaVuSans-35"/>
      </g>
     </g>
    </g>
   </g>
   <g id="line2d_9">
    <path d="M 74.464 64.993068 
L 81.68817 63.927089 
L 88.91234 63.700148 
L 96.136511 64.327944 
L 103.360681 65.767047 
L 110.584851 67.917908 
L 117.809021 70.631736 
L 125.033191 73.7208 
L 132.257362 76.971411 
L 139.481532 80.158703 
L 146.705702 83.062191 
L 153.929872 85.481024 
L 161.154043 87.247876 
L 168.378213 88.240522 
L 175.602383 88.390295 
L 182.826553 87.686835 
L 190.050723 86.178804 
L 197.274894 83.970522 
L 204.499064 81.21475 
L 211.723234 78.102121 
L 218.947404 74.847955 
L 226.171574 71.677363 
L 233.395745 68.809674 
L 240.619915 66.443264 
L 247.844085 64.741833 
L 255.068255 63.823079 
L 262.292426 63.750558 
L 269.516596 64.529286 
L 276.740766 66.105394 
L 283.964936 68.369853 
L 291.189106 71.166017 
L 298.413277 74.300457 
L 305.637447 77.556344 
L 312.861617 80.70845 
L 320.085787 83.538723 
L 327.309957 85.851375 
L 334.534128 87.486427 
L 341.758298 88.330771 
L 348.982468 88.326 
L 356.206638 87.472442 
L 363.430809 85.829145 
L 370.654979 83.509785 
L 377.879149 80.674806 
L 385.103319 77.520322 
L 392.327489 74.264547 
L 399.55166 71.132705 
L 406.77583 68.341443 
L 414 66.083851 
" clip-path="url(#p57a403cea6)" style="fill: none; stroke: #191970; stroke-width: 3; stroke-linecap: square"/>
   </g>
   <g id="line2d_10">
    <path d="M 87.210647 92.36 
L 87.210647 60.144 
" clip-path="url(#p57a403cea6)" style="fill: none; stroke-dasharray: 7.4,3.2; stroke-dashoffset: 0; stroke: #000000; stroke-opacity: 0.8; stroke-width: 2"/>
   </g>
   <g id="patch_51">
    <path d="M 74.464 92.36 
L 74.464 60.144 
" style="fill: none; stroke: #000000; stroke-width: 0.8; stroke-linejoin: miter; stroke-linecap: square"/>
   </g>
   <g id="patch_52">
    <path d="M 74.464 92.36 
L 414 92.36 
" style="fill: none; stroke: #000000; stroke-width: 0.8; stroke-linejoin: miter; stroke-linecap: square"/>
   </g>
   <g id="text_9">
    <!-- SIMULATION -->
    <g transform="translate(213.472625 42.946187) scale(0.1 -0.1)">
     <defs>
      <path id="DejaVuSans-53" d="M 3425 4513 
L 3425 3897 
Q 3066 4069 2747 4153 
Q 2428 4238 2131 4238 
Q 1616 4238 1336 4038 
Q 1056 3838 1056 3469 
Q 1056 3159 1242 3001 
Q 1428 2844 1947 2747 
L 2328 2669 
Q 3034 2534 3370 2195 
Q 3706 1856 3706 1288 
Q 3706 609 3251 259 
Q 2797 -91 1919 -91 
Q 1588 -91 1214 -16 
Q 841 59 441 206 
L 441 856 
Q 825 641 1194 531 
Q 1563 422 1919 422 
Q 2459 422 2753 634 
Q 3047 847 3047 1241 
Q 3047 1584 2836 1778 
Q 2625 1972 2144 2069 
L 1759 2144 
Q 1053 2284 737 2584 
Q 422 2884 422 3419 
Q 422 4038 858 4394 
Q 1294 4750 2059 4750 
Q 2388 4750 2728 4690 
Q 3069 4631 3425 4513 
z
" transform="scale(0.015625)"/>
      <path id="DejaVuSans-49" d="M 628 4666 
L 1259 4666 
L 1259 0 
L 628 0 
L 628 4666 
z
" transform="scale(0.015625)"/>
      <path id="DejaVuSans-4d" d="M 628 4666 
L 1569 4666 
L 2759 1491 
L 3956 4666 
L 4897 4666 
L 4897 0 
L 4281 0 
L 4281 4097 
L 3078 897 
L 2444 897 
L 1241 4097 
L 1241 0 
L 628 0 
L 628 4666 
z
" transform="scale(0.015625)"/>
      <path id="DejaVuSans-55" d="M 556 4666 
L 1191 4666 
L 1191 1831 
Q 1191 1081 1462 751 
Q 1734 422 2344 422 
Q 2950 422 3222 751 
Q 3494 1081 3494 1831 
L 3494 4666 
L 4128 4666 
L 4128 1753 
Q 4128 841 3676 375 
Q 3225 -91 2344 -91 
Q 1459 -91 1007 375 
Q 556 841 556 1753 
L 556 4666 
z
" transform="scale(0.015625)"/>
      <path id="DejaVuSans-4c" d="M 628 4666 
L 1259 4666 
L 1259 531 
L 3531 531 
L 3531 0 
L 628 0 
L 628 4666 
z
" transform="scale(0.015625)"/>
      <path id="DejaVuSans-41" d="M 2188 4044 
L 1331 1722 
L 3047 1722 
L 2188 4044 
z
M 1831 4666 
L 2547 4666 
L 4325 0 
L 3669 0 
L 3244 1197 
L 1141 1197 
L 716 0 
L 50 0 
L 1831 4666 
z
" transform="scale(0.015625)"/>
      <path id="DejaVuSans-54" d="M -19 4666 
L 3928 4666 
L 3928 4134 
L 2272 4134 
L 2272 0 
L 1638 0 
L 1638 4134 
L -19 4134 
L -19 4666 
z
" transform="scale(0.015625)"/>
      <path id="DejaVuSans-4f" d="M 2522 4238 
Q 1834 4238 1429 3725 
Q 1025 3213 1025 2328 
Q 1025 1447 1429 934 
Q 1834 422 2522 422 
Q 3209 422 3611 934 
Q 4013 1447 4013 2328 
Q 4013 3213 3611 3725 
Q 3209 4238 2522 4238 
z
M 2522 4750 
Q 3503 4750 4090 4092 
Q 4678 3434 4678 2328 
Q 4678 1225 4090 567 
Q 3503 -91 2522 -91 
Q 1538 -91 948 565 
Q 359 1222 359 2328 
Q 359 3434 948 4092 
Q 1538 4750 2522 4750 
z
" transform="scale(0.015625)"/>
      <path id="DejaVuSans-4e" d="M 628 4666 
L 1478 4666 
L 3547 763 
L 3547 4666 
L 4159 4666 
L 4159 0 
L 3309 0 
L 1241 3903 
L 1241 0 
L 628 0 
L 628 4666 
z
" transform="scale(0.015625)"/>
     </defs>
     <use xlink:href="#DejaVuSans-53"/>
     <use xlink:href="#DejaVuSans-49" x="63.476562"/>
     <use xlink:href="#DejaVuSans-4d" x="92.96875"/>
     <use xlink:href="#DejaVuSans-55" x="179.248047"/>
     <use xlink:href="#DejaVuSans-4c" x="252.441406"/>
     <use xlink:href="#DejaVuSans-41" x="310.404297"/>
     <use xlink:href="#DejaVuSans-54" x="371.0625"/>
     <use xlink:href="#DejaVuSans-49" x="432.146484"/>
     <use xlink:href="#DejaVuSans-4f" x="461.638672"/>
     <use xlink:href="#DejaVuSans-4e" x="540.349609"/>
    </g>
    <!-- (AC: 1.76, PR: 23.82) -->
    <g transform="translate(192.001531 54.144) scale(0.1 -0.1)">
     <defs>
      <path id="DejaVuSans-28" d="M 1984 4856 
Q 1566 4138 1362 3434 
Q 1159 2731 1159 2009 
Q 1159 1288 1364 580 
Q 1569 -128 1984 -844 
L 1484 -844 
Q 1016 -109 783 600 
Q 550 1309 550 2009 
Q 550 2706 781 3412 
Q 1013 4119 1484 4856 
L 1984 4856 
z
" transform="scale(0.015625)"/>
      <path id="DejaVuSans-43" d="M 4122 4306 
L 4122 3641 
Q 3803 3938 3442 4084 
Q 3081 4231 2675 4231 
Q 1875 4231 1450 3742 
Q 1025 3253 1025 2328 
Q 1025 1406 1450 917 
Q 1875 428 2675 428 
Q 3081 428 3442 575 
Q 3803 722 4122 1019 
L 4122 359 
Q 3791 134 3420 21 
Q 3050 -91 2638 -91 
Q 1578 -91 968 557 
Q 359 1206 359 2328 
Q 359 3453 968 4101 
Q 1578 4750 2638 4750 
Q 3056 4750 3426 4639 
Q 3797 4528 4122 4306 
z
" transform="scale(0.015625)"/>
      <path id="DejaVuSans-3a" d="M 750 794 
L 1409 794 
L 1409 0 
L 750 0 
L 750 794 
z
M 750 3309 
L 1409 3309 
L 1409 2516 
L 750 2516 
L 750 3309 
z
" transform="scale(0.015625)"/>
      <path id="DejaVuSans-20" transform="scale(0.015625)"/>
      <path id="DejaVuSans-2e" d="M 684 794 
L 1344 794 
L 1344 0 
L 684 0 
L 684 794 
z
" transform="scale(0.015625)"/>
      <path id="DejaVuSans-37" d="M 525 4666 
L 3525 4666 
L 3525 4397 
L 1831 0 
L 1172 0 
L 2766 4134 
L 525 4134 
L 525 4666 
z
" transform="scale(0.015625)"/>
      <path id="DejaVuSans-36" d="M 2113 2584 
Q 1688 2584 1439 2293 
Q 1191 2003 1191 1497 
Q 1191 994 1439 701 
Q 1688 409 2113 409 
Q 2538 409 2786 701 
Q 3034 994 3034 1497 
Q 3034 2003 2786 2293 
Q 2538 2584 2113 2584 
z
M 3366 4563 
L 3366 3988 
Q 3128 4100 2886 4159 
Q 2644 4219 2406 4219 
Q 1781 4219 1451 3797 
Q 1122 3375 1075 2522 
Q 1259 2794 1537 2939 
Q 1816 3084 2150 3084 
Q 2853 3084 3261 2657 
Q 3669 2231 3669 1497 
Q 3669 778 3244 343 
Q 2819 -91 2113 -91 
Q 1303 -91 875 529 
Q 447 1150 447 2328 
Q 447 3434 972 4092 
Q 1497 4750 2381 4750 
Q 2619 4750 2861 4703 
Q 3103 4656 3366 4563 
z
" transform="scale(0.015625)"/>
      <path id="DejaVuSans-2c" d="M 750 794 
L 1409 794 
L 1409 256 
L 897 -744 
L 494 -744 
L 750 256 
L 750 794 
z
" transform="scale(0.015625)"/>
      <path id="DejaVuSans-50" d="M 1259 4147 
L 1259 2394 
L 2053 2394 
Q 2494 2394 2734 2622 
Q 2975 2850 2975 3272 
Q 2975 3691 2734 3919 
Q 2494 4147 2053 4147 
L 1259 4147 
z
M 628 4666 
L 2053 4666 
Q 2838 4666 3239 4311 
Q 3641 3956 3641 3272 
Q 3641 2581 3239 2228 
Q 2838 1875 2053 1875 
L 1259 1875 
L 1259 0 
L 628 0 
L 628 4666 
z
" transform="scale(0.015625)"/>
      <path id="DejaVuSans-52" d="M 2841 2188 
Q 3044 2119 3236 1894 
Q 3428 1669 3622 1275 
L 4263 0 
L 3584 0 
L 2988 1197 
Q 2756 1666 2539 1819 
Q 2322 1972 1947 1972 
L 1259 1972 
L 1259 0 
L 628 0 
L 628 4666 
L 2053 4666 
Q 2853 4666 3247 4331 
Q 3641 3997 3641 3322 
Q 3641 2881 3436 2590 
Q 3231 2300 2841 2188 
z
M 1259 4147 
L 1259 2491 
L 2053 2491 
Q 2509 2491 2742 2702 
Q 2975 2913 2975 3322 
Q 2975 3731 2742 3939 
Q 2509 4147 2053 4147 
L 1259 4147 
z
" transform="scale(0.015625)"/>
      <path id="DejaVuSans-38" d="M 2034 2216 
Q 1584 2216 1326 1975 
Q 1069 1734 1069 1313 
Q 1069 891 1326 650 
Q 1584 409 2034 409 
Q 2484 409 2743 651 
Q 3003 894 3003 1313 
Q 3003 1734 2745 1975 
Q 2488 2216 2034 2216 
z
M 1403 2484 
Q 997 2584 770 2862 
Q 544 3141 544 3541 
Q 544 4100 942 4425 
Q 1341 4750 2034 4750 
Q 2731 4750 3128 4425 
Q 3525 4100 3525 3541 
Q 3525 3141 3298 2862 
Q 3072 2584 2669 2484 
Q 3125 2378 3379 2068 
Q 3634 1759 3634 1313 
Q 3634 634 3220 271 
Q 2806 -91 2034 -91 
Q 1263 -91 848 271 
Q 434 634 434 1313 
Q 434 1759 690 2068 
Q 947 2378 1403 2484 
z
M 1172 3481 
Q 1172 3119 1398 2916 
Q 1625 2713 2034 2713 
Q 2441 2713 2670 2916 
Q 2900 3119 2900 3481 
Q 2900 3844 2670 4047 
Q 2441 4250 2034 4250 
Q 1625 4250 1398 4047 
Q 1172 3844 1172 3481 
z
" transform="scale(0.015625)"/>
      <path id="DejaVuSans-29" d="M 513 4856 
L 1013 4856 
Q 1481 4119 1714 3412 
Q 1947 2706 1947 2009 
Q 1947 1309 1714 600 
Q 1481 -109 1013 -844 
L 513 -844 
Q 928 -128 1133 580 
Q 1338 1288 1338 2009 
Q 1338 2731 1133 3434 
Q 928 4138 513 4856 
z
" transform="scale(0.015625)"/>
     </defs>
     <use xlink:href="#DejaVuSans-28"/>
     <use xlink:href="#DejaVuSans-41" x="39.013672"/>
     <use xlink:href="#DejaVuSans-43" x="105.671875"/>
     <use xlink:href="#DejaVuSans-3a" x="175.496094"/>
     <use xlink:href="#DejaVuSans-20" x="209.1875"/>
     <use xlink:href="#DejaVuSans-31" x="240.974609"/>
     <use xlink:href="#DejaVuSans-2e" x="304.597656"/>
     <use xlink:href="#DejaVuSans-37" x="336.384766"/>
     <use xlink:href="#DejaVuSans-36" x="400.007812"/>
     <use xlink:href="#DejaVuSans-2c" x="463.630859"/>
     <use xlink:href="#DejaVuSans-20" x="495.417969"/>
     <use xlink:href="#DejaVuSans-50" x="527.205078"/>
     <use xlink:href="#DejaVuSans-52" x="587.507812"/>
     <use xlink:href="#DejaVuSans-3a" x="653.865234"/>
     <use xlink:href="#DejaVuSans-20" x="687.556641"/>
     <use xlink:href="#DejaVuSans-32" x="719.34375"/>
     <use xlink:href="#DejaVuSans-33" x="782.966797"/>
     <use xlink:href="#DejaVuSans-2e" x="846.589844"/>
     <use xlink:href="#DejaVuSans-38" x="878.376953"/>
     <use xlink:href="#DejaVuSans-32" x="942"/>
     <use xlink:href="#DejaVuSans-29" x="1005.623047"/>
    </g>
   </g>
  </g>
  <g id="text_10">
   <!-- COSINOR MODEL - SIMULATION 74 -->
   <g transform="translate(108.534375 11.940525) scale(0.12 -0.12)">
    <defs>
     <path id="DejaVuSans-44" d="M 1259 4147 
L 1259 519 
L 2022 519 
Q 2988 519 3436 956 
Q 3884 1394 3884 2338 
Q 3884 3275 3436 3711 
Q 2988 4147 2022 4147 
L 1259 4147 
z
M 628 4666 
L 1925 4666 
Q 3281 4666 3915 4102 
Q 4550 3538 4550 2338 
Q 4550 1131 3912 565 
Q 3275 0 1925 0 
L 628 0 
L 628 4666 
z
" transform="scale(0.015625)"/>
     <path id="DejaVuSans-45" d="M 628 4666 
L 3578 4666 
L 3578 4134 
L 1259 4134 
L 1259 2753 
L 3481 2753 
L 3481 2222 
L 1259 2222 
L 1259 531 
L 3634 531 
L 3634 0 
L 628 0 
L 628 4666 
z
" transform="scale(0.015625)"/>
     <path id="DejaVuSans-2d" d="M 313 2009 
L 1997 2009 
L 1997 1497 
L 313 1497 
L 313 2009 
z
" transform="scale(0.015625)"/>
    </defs>
    <use xlink:href="#DejaVuSans-43"/>
    <use xlink:href="#DejaVuSans-4f" x="69.824219"/>
    <use xlink:href="#DejaVuSans-53" x="148.535156"/>
    <use xlink:href="#DejaVuSans-49" x="212.011719"/>
    <use xlink:href="#DejaVuSans-4e" x="241.503906"/>
    <use xlink:href="#DejaVuSans-4f" x="316.308594"/>
    <use xlink:href="#DejaVuSans-52" x="395.019531"/>
    <use xlink:href="#DejaVuSans-20" x="464.501953"/>
    <use xlink:href="#DejaVuSans-4d" x="496.289062"/>
    <use xlink:href="#DejaVuSans-4f" x="582.568359"/>
    <use xlink:href="#DejaVuSans-44" x="661.279297"/>
    <use xlink:href="#DejaVuSans-45" x="738.28125"/>
    <use xlink:href="#DejaVuSans-4c" x="801.464844"/>
    <use xlink:href="#DejaVuSans-20" x="857.177734"/>
    <use xlink:href="#DejaVuSans-2d" x="888.964844"/>
    <use xlink:href="#DejaVuSans-20" x="925.048828"/>
    <use xlink:href="#DejaVuSans-53" x="956.835938"/>
    <use xlink:href="#DejaVuSans-49" x="1020.3125"/>
    <use xlink:href="#DejaVuSans-4d" x="1049.804688"/>
    <use xlink:href="#DejaVuSans-55" x="1136.083984"/>
    <use xlink:href="#DejaVuSans-4c" x="1209.277344"/>
    <use xlink:href="#DejaVuSans-41" x="1267.240234"/>
    <use xlink:href="#DejaVuSans-54" x="1327.898438"/>
    <use xlink:href="#DejaVuSans-49" x="1388.982422"/>
    <use xlink:href="#DejaVuSans-4f" x="1418.474609"/>
    <use xlink:href="#DejaVuSans-4e" x="1497.185547"/>
    <use xlink:href="#DejaVuSans-20" x="1571.990234"/>
    <use xlink:href="#DejaVuSans-37" x="1603.777344"/>
    <use xlink:href="#DejaVuSans-34" x="1667.400391"/>
   </g>
  </g>
  <g id="text_11">
   <!-- TIME (HOURS FROM START OF PROTOCOL) -->
   <g transform="translate(106.080469 137.629112) scale(0.1 -0.1)">
    <defs>
     <path id="DejaVuSans-48" d="M 628 4666 
L 1259 4666 
L 1259 2753 
L 3553 2753 
L 3553 4666 
L 4184 4666 
L 4184 0 
L 3553 0 
L 3553 2222 
L 1259 2222 
L 1259 0 
L 628 0 
L 628 4666 
z
" transform="scale(0.015625)"/>
     <path id="DejaVuSans-46" d="M 628 4666 
L 3309 4666 
L 3309 4134 
L 1259 4134 
L 1259 2759 
L 3109 2759 
L 3109 2228 
L 1259 2228 
L 1259 0 
L 628 0 
L 628 4666 
z
" transform="scale(0.015625)"/>
    </defs>
    <use xlink:href="#DejaVuSans-54"/>
    <use xlink:href="#DejaVuSans-49" x="61.083984"/>
    <use xlink:href="#DejaVuSans-4d" x="90.576172"/>
    <use xlink:href="#DejaVuSans-45" x="176.855469"/>
    <use xlink:href="#DejaVuSans-20" x="240.039062"/>
    <use xlink:href="#DejaVuSans-28" x="271.826172"/>
    <use xlink:href="#DejaVuSans-48" x="310.839844"/>
    <use xlink:href="#DejaVuSans-4f" x="386.035156"/>
    <use xlink:href="#DejaVuSans-55" x="464.746094"/>
    <use xlink:href="#DejaVuSans-52" x="537.939453"/>
    <use xlink:href="#DejaVuSans-53" x="607.421875"/>
    <use xlink:href="#DejaVuSans-20" x="670.898438"/>
    <use xlink:href="#DejaVuSans-46" x="702.685547"/>
    <use xlink:href="#DejaVuSans-52" x="760.205078"/>
    <use xlink:href="#DejaVuSans-4f" x="829.6875"/>
    <use xlink:href="#DejaVuSans-4d" x="908.398438"/>
    <use xlink:href="#DejaVuSans-20" x="994.677734"/>
    <use xlink:href="#DejaVuSans-53" x="1026.464844"/>
    <use xlink:href="#DejaVuSans-54" x="1089.941406"/>
    <use xlink:href="#DejaVuSans-41" x="1143.275391"/>
    <use xlink:href="#DejaVuSans-52" x="1211.683594"/>
    <use xlink:href="#DejaVuSans-54" x="1273.916016"/>
    <use xlink:href="#DejaVuSans-20" x="1335"/>
    <use xlink:href="#DejaVuSans-4f" x="1366.787109"/>
    <use xlink:href="#DejaVuSans-46" x="1445.498047"/>
    <use xlink:href="#DejaVuSans-20" x="1503.017578"/>
    <use xlink:href="#DejaVuSans-50" x="1534.804688"/>
    <use xlink:href="#DejaVuSans-52" x="1595.107422"/>
    <use xlink:href="#DejaVuSans-4f" x="1664.589844"/>
    <use xlink:href="#DejaVuSans-54" x="1743.300781"/>
    <use xlink:href="#DejaVuSans-4f" x="1804.384766"/>
    <use xlink:href="#DejaVuSans-43" x="1883.095703"/>
    <use xlink:href="#DejaVuSans-4f" x="1952.919922"/>
    <use xlink:href="#DejaVuSans-4c" x="2031.630859"/>
    <use xlink:href="#DejaVuSans-29" x="2087.34375"/>
   </g>
  </g>
  <g id="text_12">
   <!-- SIMULATED -->
   <g transform="translate(16.094438 99.292812) rotate(-90) scale(0.1 -0.1)">
    <use xlink:href="#DejaVuSans-53"/>
    <use xlink:href="#DejaVuSans-49" x="63.476562"/>
    <use xlink:href="#DejaVuSans-4d" x="92.96875"/>
    <use xlink:href="#DejaVuSans-55" x="179.248047"/>
    <use xlink:href="#DejaVuSans-4c" x="252.441406"/>
    <use xlink:href="#DejaVuSans-41" x="310.404297"/>
    <use xlink:href="#DejaVuSans-54" x="371.0625"/>
    <use xlink:href="#DejaVuSans-45" x="432.146484"/>
    <use xlink:href="#DejaVuSans-44" x="495.330078"/>
   </g>
   <!-- AMPLITUDE -->
   <g transform="translate(27.29225 99.292812) rotate(-90) scale(0.1 -0.1)">
    <use xlink:href="#DejaVuSans-41"/>
    <use xlink:href="#DejaVuSans-4d" x="68.408203"/>
    <use xlink:href="#DejaVuSans-50" x="154.6875"/>
    <use xlink:href="#DejaVuSans-4c" x="214.990234"/>
    <use xlink:href="#DejaVuSans-49" x="270.703125"/>
    <use xlink:href="#DejaVuSans-54" x="300.195312"/>
    <use xlink:href="#DejaVuSans-55" x="361.279297"/>
    <use xlink:href="#DejaVuSans-44" x="434.472656"/>
    <use xlink:href="#DejaVuSans-45" x="511.474609"/>
   </g>
  </g>
 </g>
 <defs>
  <clipPath id="p57a403cea6">
   <rect x="74.464" y="60.144" width="339.536" height="32.216"/>
  </clipPath>
 </defs>
</svg>
