<?xml version="1.0" encoding="utf-8" standalone="no"?>
<!DOCTYPE svg PUBLIC "-//W3C//DTD SVG 1.1//EN"
  "http://www.w3.org/Graphics/SVG/1.1/DTD/svg11.dtd">
<svg xmlns:xlink="http://www.w3.org/1999/xlink" width="424.8pt" height="141.12pt" viewBox="0 0 424.8 141.12" xmlns="http://www.w3.org/2000/svg" version="1.1">
 <metadata>
  <rdf:RDF xmlns:dc="http://purl.org/dc/elements/1.1/" xmlns:cc="http://creativecommons.org/ns#" xmlns:rdf="http://www.w3.org/1999/02/22-rdf-syntax-ns#">
   <cc:Work>
    <dc:type rdf:resource="http://purl.org/dc/dcmitype/StillImage"/>
    <dc:date>2023-11-28T11:15:10.601141</dc:date>
    <dc:format>image/svg+xml</dc:format>
    <dc:creator>
     <cc:Agent>
      <dc:title>Matplotlib v3.7.4, https://matplotlib.org/</dc:title>
     </cc:Agent>
    </dc:creator>
   </cc:Work>
  </rdf:RDF>
 </metadata>
 <defs>
  <style type="text/css">*{stroke-linejoin: round; stroke-linecap: butt}</style>
 </defs>
 <g id="figure_1">
  <g id="patch_1">
   <path d="M 0 141.12 
L 424.8 141.12 
L 424.8 0 
L 0 0 
z
" style="fill: #ffffff"/>
  </g>
  <g id="axes_1">
   <g id="patch_2">
    <path d="M 65.014 92.36 
L 414 92.36 
L 414 60.144 
L 65.014 60.144 
z
" style="fill: #ffffff"/>
   </g>
   <g id="patch_3">
    <path d="M 62.043906 76.372995 
L 67.984094 76.372995 
L 67.984094 75.521769 
L 62.043906 75.521769 
z
" clip-path="url(#pf9f7cd36ef)" style="fill: #696969"/>
   </g>
   <g id="patch_4">
    <path d="M 69.46914 76.372995 
L 75.409328 76.372995 
L 75.409328 75.129985 
L 69.46914 75.129985 
z
" clip-path="url(#pf9f7cd36ef)" style="fill: #696969"/>
   </g>
   <g id="patch_5">
    <path d="M 76.894374 76.372995 
L 82.834562 76.372995 
L 82.834562 77.283041 
L 76.894374 77.283041 
z
" clip-path="url(#pf9f7cd36ef)" style="fill: #696969"/>
   </g>
   <g id="patch_6">
    <path d="M 84.319609 76.372995 
L 90.259796 76.372995 
L 90.259796 81.025896 
L 84.319609 81.025896 
z
" clip-path="url(#pf9f7cd36ef)" style="fill: #696969"/>
   </g>
   <g id="patch_7">
    <path d="M 91.744843 76.372995 
L 97.68503 76.372995 
L 97.68503 84.739471 
L 91.744843 84.739471 
z
" clip-path="url(#pf9f7cd36ef)" style="fill: #696969"/>
   </g>
   <g id="patch_8">
    <path d="M 99.170077 76.372995 
L 105.110264 76.372995 
L 105.110264 84.933389 
L 99.170077 84.933389 
z
" clip-path="url(#pf9f7cd36ef)" style="fill: #696969"/>
   </g>
   <g id="patch_9">
    <path d="M 106.595311 76.372995 
L 112.535498 76.372995 
L 112.535498 84.492078 
L 106.595311 84.492078 
z
" clip-path="url(#pf9f7cd36ef)" style="fill: #696969"/>
   </g>
   <g id="patch_10">
    <path d="M 114.020545 76.372995 
L 119.960732 76.372995 
L 119.960732 86.889477 
L 114.020545 86.889477 
z
" clip-path="url(#pf9f7cd36ef)" style="fill: #696969"/>
   </g>
   <g id="patch_11">
    <path d="M 121.445779 76.372995 
L 127.385966 76.372995 
L 127.385966 88.720495 
L 121.445779 88.720495 
z
" clip-path="url(#pf9f7cd36ef)" style="fill: #696969"/>
   </g>
   <g id="patch_12">
    <path d="M 128.871013 76.372995 
L 134.8112 76.372995 
L 134.8112 89.675333 
L 128.871013 89.675333 
z
" clip-path="url(#pf9f7cd36ef)" style="fill: #696969"/>
   </g>
   <g id="patch_13">
    <path d="M 136.296247 76.372995 
L 142.236434 76.372995 
L 142.236434 83.302688 
L 136.296247 83.302688 
z
" clip-path="url(#pf9f7cd36ef)" style="fill: #696969"/>
   </g>
   <g id="patch_14">
    <path d="M 143.721481 76.372995 
L 149.661668 76.372995 
L 149.661668 76.466409 
L 143.721481 76.466409 
z
" clip-path="url(#pf9f7cd36ef)" style="fill: #696969"/>
   </g>
   <g id="patch_15">
    <path d="M 151.146715 76.372995 
L 157.086902 76.372995 
L 157.086902 70.268754 
L 151.146715 70.268754 
z
" clip-path="url(#pf9f7cd36ef)" style="fill: #696969"/>
   </g>
   <g id="patch_16">
    <path d="M 158.571949 76.372995 
L 164.512136 76.372995 
L 164.512136 68.907908 
L 158.571949 68.907908 
z
" clip-path="url(#pf9f7cd36ef)" style="fill: #696969"/>
   </g>
   <g id="patch_17">
    <path d="M 165.997183 76.372995 
L 171.93737 76.372995 
L 171.93737 66.578203 
L 165.997183 66.578203 
z
" clip-path="url(#pf9f7cd36ef)" style="fill: #696969"/>
   </g>
   <g id="patch_18">
    <path d="M 173.422417 76.372995 
L 179.362604 76.372995 
L 179.362604 64.052235 
L 173.422417 64.052235 
z
" clip-path="url(#pf9f7cd36ef)" style="fill: #696969"/>
   </g>
   <g id="patch_19">
    <path d="M 180.847651 76.372995 
L 186.787838 76.372995 
L 186.787838 63.422294 
L 180.847651 63.422294 
z
" clip-path="url(#pf9f7cd36ef)" style="fill: #696969"/>
   </g>
   <g id="patch_20">
    <path d="M 188.272885 76.372995 
L 194.213072 76.372995 
L 194.213072 68.379028 
L 188.272885 68.379028 
z
" clip-path="url(#pf9f7cd36ef)" style="fill: #696969"/>
   </g>
   <g id="patch_21">
    <path d="M 195.698119 76.372995 
L 201.638306 76.372995 
L 201.638306 70.389653 
L 195.698119 70.389653 
z
" clip-path="url(#pf9f7cd36ef)" style="fill: #696969"/>
   </g>
   <g id="patch_22">
    <path d="M 203.123353 76.372995 
L 209.06354 76.372995 
L 209.06354 66.414535 
L 203.123353 66.414535 
z
" clip-path="url(#pf9f7cd36ef)" style="fill: #696969"/>
   </g>
   <g id="patch_23">
    <path d="M 210.548587 76.372995 
L 216.488774 76.372995 
L 216.488774 63.033731 
L 210.548587 63.033731 
z
" clip-path="url(#pf9f7cd36ef)" style="fill: #696969"/>
   </g>
   <g id="patch_24">
    <path d="M 217.973821 76.372995 
L 223.914009 76.372995 
L 223.914009 62.828667 
L 217.973821 62.828667 
z
" clip-path="url(#pf9f7cd36ef)" style="fill: #696969"/>
   </g>
   <g id="patch_25">
    <path d="M 225.399055 76.372995 
L 231.339243 76.372995 
L 231.339243 70.033692 
L 225.399055 70.033692 
z
" clip-path="url(#pf9f7cd36ef)" style="fill: #696969"/>
   </g>
   <g id="patch_26">
    <path d="M 232.824289 76.372995 
L 238.764477 76.372995 
L 238.764477 75.032096 
L 232.824289 75.032096 
z
" clip-path="url(#pf9f7cd36ef)" style="fill: #696969"/>
   </g>
   <g id="patch_27">
    <path d="M 240.249523 76.372995 
L 246.189711 76.372995 
L 246.189711 78.194452 
L 240.249523 78.194452 
z
" clip-path="url(#pf9f7cd36ef)" style="fill: #696969"/>
   </g>
   <g id="patch_28">
    <path d="M 247.674757 76.372995 
L 253.614945 76.372995 
L 253.614945 77.726515 
L 247.674757 77.726515 
z
" clip-path="url(#pf9f7cd36ef)" style="fill: #696969"/>
   </g>
   <g id="patch_29">
    <path d="M 255.099991 76.372995 
L 261.040179 76.372995 
L 261.040179 79.908523 
L 255.099991 79.908523 
z
" clip-path="url(#pf9f7cd36ef)" style="fill: #696969"/>
   </g>
   <g id="patch_30">
    <path d="M 262.525226 76.372995 
L 268.465413 76.372995 
L 268.465413 79.16296 
L 262.525226 79.16296 
z
" clip-path="url(#pf9f7cd36ef)" style="fill: #696969"/>
   </g>
   <g id="patch_31">
    <path d="M 269.95046 76.372995 
L 275.890647 76.372995 
L 275.890647 81.219324 
L 269.95046 81.219324 
z
" clip-path="url(#pf9f7cd36ef)" style="fill: #696969"/>
   </g>
   <g id="patch_32">
    <path d="M 277.375694 76.372995 
L 283.315881 76.372995 
L 283.315881 81.3568 
L 277.375694 81.3568 
z
" clip-path="url(#pf9f7cd36ef)" style="fill: #696969"/>
   </g>
   <g id="patch_33">
    <path d="M 284.800928 76.372995 
L 290.741115 76.372995 
L 290.741115 82.532119 
L 284.800928 82.532119 
z
" clip-path="url(#pf9f7cd36ef)" style="fill: #696969"/>
   </g>
   <g id="patch_34">
    <path d="M 292.226162 76.372995 
L 298.166349 76.372995 
L 298.166349 83.973628 
L 292.226162 83.973628 
z
" clip-path="url(#pf9f7cd36ef)" style="fill: #696969"/>
   </g>
   <g id="patch_35">
    <path d="M 299.651396 76.372995 
L 305.591583 76.372995 
L 305.591583 83.217804 
L 299.651396 83.217804 
z
" clip-path="url(#pf9f7cd36ef)" style="fill: #696969"/>
   </g>
   <g id="patch_36">
    <path d="M 307.07663 76.372995 
L 313.016817 76.372995 
L 313.016817 83.4155 
L 307.07663 83.4155 
z
" clip-path="url(#pf9f7cd36ef)" style="fill: #696969"/>
   </g>
   <g id="patch_37">
    <path d="M 314.501864 76.372995 
L 320.442051 76.372995 
L 320.442051 77.898168 
L 314.501864 77.898168 
z
" clip-path="url(#pf9f7cd36ef)" style="fill: #696969"/>
   </g>
   <g id="patch_38">
    <path d="M 321.927098 76.372995 
L 327.867285 76.372995 
L 327.867285 73.229917 
L 321.927098 73.229917 
z
" clip-path="url(#pf9f7cd36ef)" style="fill: #696969"/>
   </g>
   <g id="patch_39">
    <path d="M 329.352332 76.372995 
L 335.292519 76.372995 
L 335.292519 67.914068 
L 329.352332 67.914068 
z
" clip-path="url(#pf9f7cd36ef)" style="fill: #696969"/>
   </g>
   <g id="patch_40">
    <path d="M 336.777566 76.372995 
L 342.717753 76.372995 
L 342.717753 68.486124 
L 336.777566 68.486124 
z
" clip-path="url(#pf9f7cd36ef)" style="fill: #696969"/>
   </g>
   <g id="patch_41">
    <path d="M 344.2028 76.372995 
L 350.142987 76.372995 
L 350.142987 65.83228 
L 344.2028 65.83228 
z
" clip-path="url(#pf9f7cd36ef)" style="fill: #696969"/>
   </g>
   <g id="patch_42">
    <path d="M 351.628034 76.372995 
L 357.568221 76.372995 
L 357.568221 67.550275 
L 351.628034 67.550275 
z
" clip-path="url(#pf9f7cd36ef)" style="fill: #696969"/>
   </g>
   <g id="patch_43">
    <path d="M 359.053268 76.372995 
L 364.993455 76.372995 
L 364.993455 65.696303 
L 359.053268 65.696303 
z
" clip-path="url(#pf9f7cd36ef)" style="fill: #696969"/>
   </g>
   <g id="patch_44">
    <path d="M 366.478502 76.372995 
L 372.418689 76.372995 
L 372.418689 67.371961 
L 366.478502 67.371961 
z
" clip-path="url(#pf9f7cd36ef)" style="fill: #696969"/>
   </g>
   <g id="patch_45">
    <path d="M 373.903736 76.372995 
L 379.843923 76.372995 
L 379.843923 66.446237 
L 373.903736 66.446237 
z
" clip-path="url(#pf9f7cd36ef)" style="fill: #696969"/>
   </g>
   <g id="patch_46">
    <path d="M 381.32897 76.372995 
L 387.269157 76.372995 
L 387.269157 68.314778 
L 381.32897 68.314778 
z
" clip-path="url(#pf9f7cd36ef)" style="fill: #696969"/>
   </g>
   <g id="patch_47">
    <path d="M 388.754204 76.372995 
L 394.694391 76.372995 
L 394.694391 69.362982 
L 388.754204 69.362982 
z
" clip-path="url(#pf9f7cd36ef)" style="fill: #696969"/>
   </g>
   <g id="patch_48">
    <path d="M 396.179438 76.372995 
L 402.119626 76.372995 
L 402.119626 72.96928 
L 396.179438 72.96928 
z
" clip-path="url(#pf9f7cd36ef)" style="fill: #696969"/>
   </g>
   <g id="patch_49">
    <path d="M 403.604672 76.372995 
L 409.54486 76.372995 
L 409.54486 75.39441 
L 403.604672 75.39441 
z
" clip-path="url(#pf9f7cd36ef)" style="fill: #696969"/>
   </g>
   <g id="patch_50">
    <path d="M 411.029906 76.372995 
L 416.970094 76.372995 
L 416.970094 77.952666 
L 411.029906 77.952666 
z
" clip-path="url(#pf9f7cd36ef)" style="fill: #696969"/>
   </g>
   <g id="matplotlib.axis_1">
    <g id="xtick_1">
     <g id="line2d_1">
      <defs>
       <path id="mecaae51645" d="M 0 0 
L 0 3.5 
" style="stroke: #000000; stroke-width: 0.8"/>
      </defs>
      <g>
       <use xlink:href="#mecaae51645" x="65.014" y="92.36" style="stroke: #000000; stroke-width: 0.8"/>
      </g>
     </g>
     <g id="text_1">
      <!-- 0 -->
      <g transform="translate(61.83275 106.958438) scale(0.1 -0.1)">
       <defs>
        <path id="DejaVuSans-30" d="M 2034 4250 
Q 1547 4250 1301 3770 
Q 1056 3291 1056 2328 
Q 1056 1369 1301 889 
Q 1547 409 2034 409 
Q 2525 409 2770 889 
Q 3016 1369 3016 2328 
Q 3016 3291 2770 3770 
Q 2525 4250 2034 4250 
z
M 2034 4750 
Q 2819 4750 3233 4129 
Q 3647 3509 3647 2328 
Q 3647 1150 3233 529 
Q 2819 -91 2034 -91 
Q 1250 -91 836 529 
Q 422 1150 422 2328 
Q 422 3509 836 4129 
Q 1250 4750 2034 4750 
z
" transform="scale(0.015625)"/>
       </defs>
       <use xlink:href="#DejaVuSans-30"/>
      </g>
     </g>
    </g>
    <g id="xtick_2">
     <g id="line2d_2">
      <g>
       <use xlink:href="#mecaae51645" x="139.26634" y="92.36" style="stroke: #000000; stroke-width: 0.8"/>
      </g>
     </g>
     <g id="text_2">
      <!-- 10 -->
      <g transform="translate(132.90384 106.958438) scale(0.1 -0.1)">
       <defs>
        <path id="DejaVuSans-31" d="M 794 531 
L 1825 531 
L 1825 4091 
L 703 3866 
L 703 4441 
L 1819 4666 
L 2450 4666 
L 2450 531 
L 3481 531 
L 3481 0 
L 794 0 
L 794 531 
z
" transform="scale(0.015625)"/>
       </defs>
       <use xlink:href="#DejaVuSans-31"/>
       <use xlink:href="#DejaVuSans-30" x="63.623047"/>
      </g>
     </g>
    </g>
    <g id="xtick_3">
     <g id="line2d_3">
      <g>
       <use xlink:href="#mecaae51645" x="213.518681" y="92.36" style="stroke: #000000; stroke-width: 0.8"/>
      </g>
     </g>
     <g id="text_3">
      <!-- 20 -->
      <g transform="translate(207.156181 106.958438) scale(0.1 -0.1)">
       <defs>
        <path id="DejaVuSans-32" d="M 1228 531 
L 3431 531 
L 3431 0 
L 469 0 
L 469 531 
Q 828 903 1448 1529 
Q 2069 2156 2228 2338 
Q 2531 2678 2651 2914 
Q 2772 3150 2772 3378 
Q 2772 3750 2511 3984 
Q 2250 4219 1831 4219 
Q 1534 4219 1204 4116 
Q 875 4013 500 3803 
L 500 4441 
Q 881 4594 1212 4672 
Q 1544 4750 1819 4750 
Q 2544 4750 2975 4387 
Q 3406 4025 3406 3419 
Q 3406 3131 3298 2873 
Q 3191 2616 2906 2266 
Q 2828 2175 2409 1742 
Q 1991 1309 1228 531 
z
" transform="scale(0.015625)"/>
       </defs>
       <use xlink:href="#DejaVuSans-32"/>
       <use xlink:href="#DejaVuSans-30" x="63.623047"/>
      </g>
     </g>
    </g>
    <g id="xtick_4">
     <g id="line2d_4">
      <g>
       <use xlink:href="#mecaae51645" x="287.771021" y="92.36" style="stroke: #000000; stroke-width: 0.8"/>
      </g>
     </g>
     <g id="text_4">
      <!-- 30 -->
      <g transform="translate(281.408521 106.958438) scale(0.1 -0.1)">
       <defs>
        <path id="DejaVuSans-33" d="M 2597 2516 
Q 3050 2419 3304 2112 
Q 3559 1806 3559 1356 
Q 3559 666 3084 287 
Q 2609 -91 1734 -91 
Q 1441 -91 1130 -33 
Q 819 25 488 141 
L 488 750 
Q 750 597 1062 519 
Q 1375 441 1716 441 
Q 2309 441 2620 675 
Q 2931 909 2931 1356 
Q 2931 1769 2642 2001 
Q 2353 2234 1838 2234 
L 1294 2234 
L 1294 2753 
L 1863 2753 
Q 2328 2753 2575 2939 
Q 2822 3125 2822 3475 
Q 2822 3834 2567 4026 
Q 2313 4219 1838 4219 
Q 1578 4219 1281 4162 
Q 984 4106 628 3988 
L 628 4550 
Q 988 4650 1302 4700 
Q 1616 4750 1894 4750 
Q 2613 4750 3031 4423 
Q 3450 4097 3450 3541 
Q 3450 3153 3228 2886 
Q 3006 2619 2597 2516 
z
" transform="scale(0.015625)"/>
       </defs>
       <use xlink:href="#DejaVuSans-33"/>
       <use xlink:href="#DejaVuSans-30" x="63.623047"/>
      </g>
     </g>
    </g>
    <g id="xtick_5">
     <g id="line2d_5">
      <g>
       <use xlink:href="#mecaae51645" x="362.023362" y="92.36" style="stroke: #000000; stroke-width: 0.8"/>
      </g>
     </g>
     <g id="text_5">
      <!-- 40 -->
      <g transform="translate(355.660862 106.958438) scale(0.1 -0.1)">
       <defs>
        <path id="DejaVuSans-34" d="M 2419 4116 
L 825 1625 
L 2419 1625 
L 2419 4116 
z
M 2253 4666 
L 3047 4666 
L 3047 1625 
L 3713 1625 
L 3713 1100 
L 3047 1100 
L 3047 0 
L 2419 0 
L 2419 1100 
L 313 1100 
L 313 1709 
L 2253 4666 
z
" transform="scale(0.015625)"/>
       </defs>
       <use xlink:href="#DejaVuSans-34"/>
       <use xlink:href="#DejaVuSans-30" x="63.623047"/>
      </g>
     </g>
    </g>
   </g>
   <g id="matplotlib.axis_2">
    <g id="ytick_1">
     <g id="line2d_6">
      <defs>
       <path id="m5c8cd79af0" d="M 0 0 
L -3.5 0 
" style="stroke: #000000; stroke-width: 0.8"/>
      </defs>
      <g>
       <use xlink:href="#m5c8cd79af0" x="65.014" y="87.077821" style="stroke: #000000; stroke-width: 0.8"/>
      </g>
     </g>
     <g id="text_6">
      <!-- −2.5 -->
      <g transform="translate(33.731188 90.87704) scale(0.1 -0.1)">
       <defs>
        <path id="DejaVuSans-2212" d="M 678 2272 
L 4684 2272 
L 4684 1741 
L 678 1741 
L 678 2272 
z
" transform="scale(0.015625)"/>
        <path id="DejaVuSans-2e" d="M 684 794 
L 1344 794 
L 1344 0 
L 684 0 
L 684 794 
z
" transform="scale(0.015625)"/>
        <path id="DejaVuSans-35" d="M 691 4666 
L 3169 4666 
L 3169 4134 
L 1269 4134 
L 1269 2991 
Q 1406 3038 1543 3061 
Q 1681 3084 1819 3084 
Q 2600 3084 3056 2656 
Q 3513 2228 3513 1497 
Q 3513 744 3044 326 
Q 2575 -91 1722 -91 
Q 1428 -91 1123 -41 
Q 819 9 494 109 
L 494 744 
Q 775 591 1075 516 
Q 1375 441 1709 441 
Q 2250 441 2565 725 
Q 2881 1009 2881 1497 
Q 2881 1984 2565 2268 
Q 2250 2553 1709 2553 
Q 1456 2553 1204 2497 
Q 953 2441 691 2322 
L 691 4666 
z
" transform="scale(0.015625)"/>
       </defs>
       <use xlink:href="#DejaVuSans-2212"/>
       <use xlink:href="#DejaVuSans-32" x="83.789062"/>
       <use xlink:href="#DejaVuSans-2e" x="147.412109"/>
       <use xlink:href="#DejaVuSans-35" x="179.199219"/>
      </g>
     </g>
    </g>
    <g id="ytick_2">
     <g id="line2d_7">
      <g>
       <use xlink:href="#m5c8cd79af0" x="65.014" y="76.372995" style="stroke: #000000; stroke-width: 0.8"/>
      </g>
     </g>
     <g id="text_7">
      <!-- 0.0 -->
      <g transform="translate(42.110875 80.172213) scale(0.1 -0.1)">
       <use xlink:href="#DejaVuSans-30"/>
       <use xlink:href="#DejaVuSans-2e" x="63.623047"/>
       <use xlink:href="#DejaVuSans-30" x="95.410156"/>
      </g>
     </g>
    </g>
    <g id="ytick_3">
     <g id="line2d_8">
      <g>
       <use xlink:href="#m5c8cd79af0" x="65.014" y="65.668169" style="stroke: #000000; stroke-width: 0.8"/>
      </g>
     </g>
     <g id="text_8">
      <!-- 2.5 -->
      <g transform="translate(42.110875 69.467387) scale(0.1 -0.1)">
       <use xlink:href="#DejaVuSans-32"/>
       <use xlink:href="#DejaVuSans-2e" x="63.623047"/>
       <use xlink:href="#DejaVuSans-35" x="95.410156"/>
      </g>
     </g>
    </g>
   </g>
   <g id="line2d_9">
    <path d="M 65.014 72.735158 
L 72.439234 75.558296 
L 79.864468 78.325719 
L 87.289702 80.826015 
L 94.714936 82.868177 
L 102.14017 84.296198 
L 109.565404 85.000987 
L 116.990638 84.928702 
L 124.415872 84.084865 
L 131.841106 82.53394 
L 139.26634 80.394408 
L 146.691574 77.829714 
L 154.116809 75.035784 
L 161.542043 72.226056 
L 168.967277 69.615173 
L 176.392511 67.402592 
L 183.817745 65.757336 
L 191.242979 64.805095 
L 198.668213 64.618611 
L 206.093447 65.212132 
L 213.518681 66.540317 
L 220.943915 68.5017 
L 228.369149 70.946446 
L 235.794383 73.687791 
L 243.219617 76.516316 
L 250.644851 79.215939 
L 258.070085 81.580429 
L 265.495319 83.429152 
L 272.920553 84.620879 
L 280.345787 85.064571 
L 287.771021 84.726331 
L 295.196255 83.632 
L 302.621489 81.865177 
L 310.046723 79.560834 
L 317.471957 76.89501 
L 324.897191 74.071355 
L 332.322426 71.305577 
L 339.74766 68.808965 
L 347.172894 66.772241 
L 354.598128 65.350999 
L 362.023362 64.653811 
L 369.448596 64.733939 
L 376.87383 65.585261 
L 384.299064 67.142742 
L 391.724298 69.287401 
L 399.149532 71.855399 
L 406.574766 74.65056 
L 414 77.45935 
" clip-path="url(#pf9f7cd36ef)" style="fill: none; stroke: #191970; stroke-width: 3; stroke-linecap: square"/>
   </g>
   <g id="line2d_10">
    <path d="M 196.721746 92.36 
L 196.721746 60.144 
" clip-path="url(#pf9f7cd36ef)" style="fill: none; stroke-dasharray: 7.4,3.2; stroke-dashoffset: 0; stroke: #000000; stroke-opacity: 0.8; stroke-width: 2"/>
   </g>
   <g id="patch_51">
    <path d="M 65.014 92.36 
L 65.014 60.144 
" style="fill: none; stroke: #000000; stroke-width: 0.8; stroke-linejoin: miter; stroke-linecap: square"/>
   </g>
   <g id="patch_52">
    <path d="M 65.014 92.36 
L 414 92.36 
" style="fill: none; stroke: #000000; stroke-width: 0.8; stroke-linejoin: miter; stroke-linecap: square"/>
   </g>
   <g id="text_9">
    <!-- SIMULATION -->
    <g transform="translate(208.747625 42.946187) scale(0.1 -0.1)">
     <defs>
      <path id="DejaVuSans-53" d="M 3425 4513 
L 3425 3897 
Q 3066 4069 2747 4153 
Q 2428 4238 2131 4238 
Q 1616 4238 1336 4038 
Q 1056 3838 1056 3469 
Q 1056 3159 1242 3001 
Q 1428 2844 1947 2747 
L 2328 2669 
Q 3034 2534 3370 2195 
Q 3706 1856 3706 1288 
Q 3706 609 3251 259 
Q 2797 -91 1919 -91 
Q 1588 -91 1214 -16 
Q 841 59 441 206 
L 441 856 
Q 825 641 1194 531 
Q 1563 422 1919 422 
Q 2459 422 2753 634 
Q 3047 847 3047 1241 
Q 3047 1584 2836 1778 
Q 2625 1972 2144 2069 
L 1759 2144 
Q 1053 2284 737 2584 
Q 422 2884 422 3419 
Q 422 4038 858 4394 
Q 1294 4750 2059 4750 
Q 2388 4750 2728 4690 
Q 3069 4631 3425 4513 
z
" transform="scale(0.015625)"/>
      <path id="DejaVuSans-49" d="M 628 4666 
L 1259 4666 
L 1259 0 
L 628 0 
L 628 4666 
z
" transform="scale(0.015625)"/>
      <path id="DejaVuSans-4d" d="M 628 4666 
L 1569 4666 
L 2759 1491 
L 3956 4666 
L 4897 4666 
L 4897 0 
L 4281 0 
L 4281 4097 
L 3078 897 
L 2444 897 
L 1241 4097 
L 1241 0 
L 628 0 
L 628 4666 
z
" transform="scale(0.015625)"/>
      <path id="DejaVuSans-55" d="M 556 4666 
L 1191 4666 
L 1191 1831 
Q 1191 1081 1462 751 
Q 1734 422 2344 422 
Q 2950 422 3222 751 
Q 3494 1081 3494 1831 
L 3494 4666 
L 4128 4666 
L 4128 1753 
Q 4128 841 3676 375 
Q 3225 -91 2344 -91 
Q 1459 -91 1007 375 
Q 556 841 556 1753 
L 556 4666 
z
" transform="scale(0.015625)"/>
      <path id="DejaVuSans-4c" d="M 628 4666 
L 1259 4666 
L 1259 531 
L 3531 531 
L 3531 0 
L 628 0 
L 628 4666 
z
" transform="scale(0.015625)"/>
      <path id="DejaVuSans-41" d="M 2188 4044 
L 1331 1722 
L 3047 1722 
L 2188 4044 
z
M 1831 4666 
L 2547 4666 
L 4325 0 
L 3669 0 
L 3244 1197 
L 1141 1197 
L 716 0 
L 50 0 
L 1831 4666 
z
" transform="scale(0.015625)"/>
      <path id="DejaVuSans-54" d="M -19 4666 
L 3928 4666 
L 3928 4134 
L 2272 4134 
L 2272 0 
L 1638 0 
L 1638 4134 
L -19 4134 
L -19 4666 
z
" transform="scale(0.015625)"/>
      <path id="DejaVuSans-4f" d="M 2522 4238 
Q 1834 4238 1429 3725 
Q 1025 3213 1025 2328 
Q 1025 1447 1429 934 
Q 1834 422 2522 422 
Q 3209 422 3611 934 
Q 4013 1447 4013 2328 
Q 4013 3213 3611 3725 
Q 3209 4238 2522 4238 
z
M 2522 4750 
Q 3503 4750 4090 4092 
Q 4678 3434 4678 2328 
Q 4678 1225 4090 567 
Q 3503 -91 2522 -91 
Q 1538 -91 948 565 
Q 359 1222 359 2328 
Q 359 3434 948 4092 
Q 1538 4750 2522 4750 
z
" transform="scale(0.015625)"/>
      <path id="DejaVuSans-4e" d="M 628 4666 
L 1478 4666 
L 3547 763 
L 3547 4666 
L 4159 4666 
L 4159 0 
L 3309 0 
L 1241 3903 
L 1241 0 
L 628 0 
L 628 4666 
z
" transform="scale(0.015625)"/>
     </defs>
     <use xlink:href="#DejaVuSans-53"/>
     <use xlink:href="#DejaVuSans-49" x="63.476562"/>
     <use xlink:href="#DejaVuSans-4d" x="92.96875"/>
     <use xlink:href="#DejaVuSans-55" x="179.248047"/>
     <use xlink:href="#DejaVuSans-4c" x="252.441406"/>
     <use xlink:href="#DejaVuSans-41" x="310.404297"/>
     <use xlink:href="#DejaVuSans-54" x="371.0625"/>
     <use xlink:href="#DejaVuSans-49" x="432.146484"/>
     <use xlink:href="#DejaVuSans-4f" x="461.638672"/>
     <use xlink:href="#DejaVuSans-4e" x="540.349609"/>
    </g>
    <!-- (AC: 17.74, PR: 22.66) -->
    <g transform="translate(184.095281 54.144) scale(0.1 -0.1)">
     <defs>
      <path id="DejaVuSans-28" d="M 1984 4856 
Q 1566 4138 1362 3434 
Q 1159 2731 1159 2009 
Q 1159 1288 1364 580 
Q 1569 -128 1984 -844 
L 1484 -844 
Q 1016 -109 783 600 
Q 550 1309 550 2009 
Q 550 2706 781 3412 
Q 1013 4119 1484 4856 
L 1984 4856 
z
" transform="scale(0.015625)"/>
      <path id="DejaVuSans-43" d="M 4122 4306 
L 4122 3641 
Q 3803 3938 3442 4084 
Q 3081 4231 2675 4231 
Q 1875 4231 1450 3742 
Q 1025 3253 1025 2328 
Q 1025 1406 1450 917 
Q 1875 428 2675 428 
Q 3081 428 3442 575 
Q 3803 722 4122 1019 
L 4122 359 
Q 3791 134 3420 21 
Q 3050 -91 2638 -91 
Q 1578 -91 968 557 
Q 359 1206 359 2328 
Q 359 3453 968 4101 
Q 1578 4750 2638 4750 
Q 3056 4750 3426 4639 
Q 3797 4528 4122 4306 
z
" transform="scale(0.015625)"/>
      <path id="DejaVuSans-3a" d="M 750 794 
L 1409 794 
L 1409 0 
L 750 0 
L 750 794 
z
M 750 3309 
L 1409 3309 
L 1409 2516 
L 750 2516 
L 750 3309 
z
" transform="scale(0.015625)"/>
      <path id="DejaVuSans-20" transform="scale(0.015625)"/>
      <path id="DejaVuSans-37" d="M 525 4666 
L 3525 4666 
L 3525 4397 
L 1831 0 
L 1172 0 
L 2766 4134 
L 525 4134 
L 525 4666 
z
" transform="scale(0.015625)"/>
      <path id="DejaVuSans-2c" d="M 750 794 
L 1409 794 
L 1409 256 
L 897 -744 
L 494 -744 
L 750 256 
L 750 794 
z
" transform="scale(0.015625)"/>
      <path id="DejaVuSans-50" d="M 1259 4147 
L 1259 2394 
L 2053 2394 
Q 2494 2394 2734 2622 
Q 2975 2850 2975 3272 
Q 2975 3691 2734 3919 
Q 2494 4147 2053 4147 
L 1259 4147 
z
M 628 4666 
L 2053 4666 
Q 2838 4666 3239 4311 
Q 3641 3956 3641 3272 
Q 3641 2581 3239 2228 
Q 2838 1875 2053 1875 
L 1259 1875 
L 1259 0 
L 628 0 
L 628 4666 
z
" transform="scale(0.015625)"/>
      <path id="DejaVuSans-52" d="M 2841 2188 
Q 3044 2119 3236 1894 
Q 3428 1669 3622 1275 
L 4263 0 
L 3584 0 
L 2988 1197 
Q 2756 1666 2539 1819 
Q 2322 1972 1947 1972 
L 1259 1972 
L 1259 0 
L 628 0 
L 628 4666 
L 2053 4666 
Q 2853 4666 3247 4331 
Q 3641 3997 3641 3322 
Q 3641 2881 3436 2590 
Q 3231 2300 2841 2188 
z
M 1259 4147 
L 1259 2491 
L 2053 2491 
Q 2509 2491 2742 2702 
Q 2975 2913 2975 3322 
Q 2975 3731 2742 3939 
Q 2509 4147 2053 4147 
L 1259 4147 
z
" transform="scale(0.015625)"/>
      <path id="DejaVuSans-36" d="M 2113 2584 
Q 1688 2584 1439 2293 
Q 1191 2003 1191 1497 
Q 1191 994 1439 701 
Q 1688 409 2113 409 
Q 2538 409 2786 701 
Q 3034 994 3034 1497 
Q 3034 2003 2786 2293 
Q 2538 2584 2113 2584 
z
M 3366 4563 
L 3366 3988 
Q 3128 4100 2886 4159 
Q 2644 4219 2406 4219 
Q 1781 4219 1451 3797 
Q 1122 3375 1075 2522 
Q 1259 2794 1537 2939 
Q 1816 3084 2150 3084 
Q 2853 3084 3261 2657 
Q 3669 2231 3669 1497 
Q 3669 778 3244 343 
Q 2819 -91 2113 -91 
Q 1303 -91 875 529 
Q 447 1150 447 2328 
Q 447 3434 972 4092 
Q 1497 4750 2381 4750 
Q 2619 4750 2861 4703 
Q 3103 4656 3366 4563 
z
" transform="scale(0.015625)"/>
      <path id="DejaVuSans-29" d="M 513 4856 
L 1013 4856 
Q 1481 4119 1714 3412 
Q 1947 2706 1947 2009 
Q 1947 1309 1714 600 
Q 1481 -109 1013 -844 
L 513 -844 
Q 928 -128 1133 580 
Q 1338 1288 1338 2009 
Q 1338 2731 1133 3434 
Q 928 4138 513 4856 
z
" transform="scale(0.015625)"/>
     </defs>
     <use xlink:href="#DejaVuSans-28"/>
     <use xlink:href="#DejaVuSans-41" x="39.013672"/>
     <use xlink:href="#DejaVuSans-43" x="105.671875"/>
     <use xlink:href="#DejaVuSans-3a" x="175.496094"/>
     <use xlink:href="#DejaVuSans-20" x="209.1875"/>
     <use xlink:href="#DejaVuSans-31" x="240.974609"/>
     <use xlink:href="#DejaVuSans-37" x="304.597656"/>
     <use xlink:href="#DejaVuSans-2e" x="368.220703"/>
     <use xlink:href="#DejaVuSans-37" x="400.007812"/>
     <use xlink:href="#DejaVuSans-34" x="463.630859"/>
     <use xlink:href="#DejaVuSans-2c" x="527.253906"/>
     <use xlink:href="#DejaVuSans-20" x="559.041016"/>
     <use xlink:href="#DejaVuSans-50" x="590.828125"/>
     <use xlink:href="#DejaVuSans-52" x="651.130859"/>
     <use xlink:href="#DejaVuSans-3a" x="717.488281"/>
     <use xlink:href="#DejaVuSans-20" x="751.179688"/>
     <use xlink:href="#DejaVuSans-32" x="782.966797"/>
     <use xlink:href="#DejaVuSans-32" x="846.589844"/>
     <use xlink:href="#DejaVuSans-2e" x="910.212891"/>
     <use xlink:href="#DejaVuSans-36" x="942"/>
     <use xlink:href="#DejaVuSans-36" x="1005.623047"/>
     <use xlink:href="#DejaVuSans-29" x="1069.246094"/>
    </g>
   </g>
  </g>
  <g id="text_10">
   <!-- COSINOR MODEL - SIMULATION 71 -->
   <g transform="translate(108.534375 11.940525) scale(0.12 -0.12)">
    <defs>
     <path id="DejaVuSans-44" d="M 1259 4147 
L 1259 519 
L 2022 519 
Q 2988 519 3436 956 
Q 3884 1394 3884 2338 
Q 3884 3275 3436 3711 
Q 2988 4147 2022 4147 
L 1259 4147 
z
M 628 4666 
L 1925 4666 
Q 3281 4666 3915 4102 
Q 4550 3538 4550 2338 
Q 4550 1131 3912 565 
Q 3275 0 1925 0 
L 628 0 
L 628 4666 
z
" transform="scale(0.015625)"/>
     <path id="DejaVuSans-45" d="M 628 4666 
L 3578 4666 
L 3578 4134 
L 1259 4134 
L 1259 2753 
L 3481 2753 
L 3481 2222 
L 1259 2222 
L 1259 531 
L 3634 531 
L 3634 0 
L 628 0 
L 628 4666 
z
" transform="scale(0.015625)"/>
     <path id="DejaVuSans-2d" d="M 313 2009 
L 1997 2009 
L 1997 1497 
L 313 1497 
L 313 2009 
z
" transform="scale(0.015625)"/>
    </defs>
    <use xlink:href="#DejaVuSans-43"/>
    <use xlink:href="#DejaVuSans-4f" x="69.824219"/>
    <use xlink:href="#DejaVuSans-53" x="148.535156"/>
    <use xlink:href="#DejaVuSans-49" x="212.011719"/>
    <use xlink:href="#DejaVuSans-4e" x="241.503906"/>
    <use xlink:href="#DejaVuSans-4f" x="316.308594"/>
    <use xlink:href="#DejaVuSans-52" x="395.019531"/>
    <use xlink:href="#DejaVuSans-20" x="464.501953"/>
    <use xlink:href="#DejaVuSans-4d" x="496.289062"/>
    <use xlink:href="#DejaVuSans-4f" x="582.568359"/>
    <use xlink:href="#DejaVuSans-44" x="661.279297"/>
    <use xlink:href="#DejaVuSans-45" x="738.28125"/>
    <use xlink:href="#DejaVuSans-4c" x="801.464844"/>
    <use xlink:href="#DejaVuSans-20" x="857.177734"/>
    <use xlink:href="#DejaVuSans-2d" x="888.964844"/>
    <use xlink:href="#DejaVuSans-20" x="925.048828"/>
    <use xlink:href="#DejaVuSans-53" x="956.835938"/>
    <use xlink:href="#DejaVuSans-49" x="1020.3125"/>
    <use xlink:href="#DejaVuSans-4d" x="1049.804688"/>
    <use xlink:href="#DejaVuSans-55" x="1136.083984"/>
    <use xlink:href="#DejaVuSans-4c" x="1209.277344"/>
    <use xlink:href="#DejaVuSans-41" x="1267.240234"/>
    <use xlink:href="#DejaVuSans-54" x="1327.898438"/>
    <use xlink:href="#DejaVuSans-49" x="1388.982422"/>
    <use xlink:href="#DejaVuSans-4f" x="1418.474609"/>
    <use xlink:href="#DejaVuSans-4e" x="1497.185547"/>
    <use xlink:href="#DejaVuSans-20" x="1571.990234"/>
    <use xlink:href="#DejaVuSans-37" x="1603.777344"/>
    <use xlink:href="#DejaVuSans-31" x="1667.400391"/>
   </g>
  </g>
  <g id="text_11">
   <!-- TIME (HOURS FROM START OF PROTOCOL) -->
   <g transform="translate(106.080469 137.629112) scale(0.1 -0.1)">
    <defs>
     <path id="DejaVuSans-48" d="M 628 4666 
L 1259 4666 
L 1259 2753 
L 3553 2753 
L 3553 4666 
L 4184 4666 
L 4184 0 
L 3553 0 
L 3553 2222 
L 1259 2222 
L 1259 0 
L 628 0 
L 628 4666 
z
" transform="scale(0.015625)"/>
     <path id="DejaVuSans-46" d="M 628 4666 
L 3309 4666 
L 3309 4134 
L 1259 4134 
L 1259 2759 
L 3109 2759 
L 3109 2228 
L 1259 2228 
L 1259 0 
L 628 0 
L 628 4666 
z
" transform="scale(0.015625)"/>
    </defs>
    <use xlink:href="#DejaVuSans-54"/>
    <use xlink:href="#DejaVuSans-49" x="61.083984"/>
    <use xlink:href="#DejaVuSans-4d" x="90.576172"/>
    <use xlink:href="#DejaVuSans-45" x="176.855469"/>
    <use xlink:href="#DejaVuSans-20" x="240.039062"/>
    <use xlink:href="#DejaVuSans-28" x="271.826172"/>
    <use xlink:href="#DejaVuSans-48" x="310.839844"/>
    <use xlink:href="#DejaVuSans-4f" x="386.035156"/>
    <use xlink:href="#DejaVuSans-55" x="464.746094"/>
    <use xlink:href="#DejaVuSans-52" x="537.939453"/>
    <use xlink:href="#DejaVuSans-53" x="607.421875"/>
    <use xlink:href="#DejaVuSans-20" x="670.898438"/>
    <use xlink:href="#DejaVuSans-46" x="702.685547"/>
    <use xlink:href="#DejaVuSans-52" x="760.205078"/>
    <use xlink:href="#DejaVuSans-4f" x="829.6875"/>
    <use xlink:href="#DejaVuSans-4d" x="908.398438"/>
    <use xlink:href="#DejaVuSans-20" x="994.677734"/>
    <use xlink:href="#DejaVuSans-53" x="1026.464844"/>
    <use xlink:href="#DejaVuSans-54" x="1089.941406"/>
    <use xlink:href="#DejaVuSans-41" x="1143.275391"/>
    <use xlink:href="#DejaVuSans-52" x="1211.683594"/>
    <use xlink:href="#DejaVuSans-54" x="1273.916016"/>
    <use xlink:href="#DejaVuSans-20" x="1335"/>
    <use xlink:href="#DejaVuSans-4f" x="1366.787109"/>
    <use xlink:href="#DejaVuSans-46" x="1445.498047"/>
    <use xlink:href="#DejaVuSans-20" x="1503.017578"/>
    <use xlink:href="#DejaVuSans-50" x="1534.804688"/>
    <use xlink:href="#DejaVuSans-52" x="1595.107422"/>
    <use xlink:href="#DejaVuSans-4f" x="1664.589844"/>
    <use xlink:href="#DejaVuSans-54" x="1743.300781"/>
    <use xlink:href="#DejaVuSans-4f" x="1804.384766"/>
    <use xlink:href="#DejaVuSans-43" x="1883.095703"/>
    <use xlink:href="#DejaVuSans-4f" x="1952.919922"/>
    <use xlink:href="#DejaVuSans-4c" x="2031.630859"/>
    <use xlink:href="#DejaVuSans-29" x="2087.34375"/>
   </g>
  </g>
  <g id="text_12">
   <!-- SIMULATED -->
   <g transform="translate(16.094438 99.292812) rotate(-90) scale(0.1 -0.1)">
    <use xlink:href="#DejaVuSans-53"/>
    <use xlink:href="#DejaVuSans-49" x="63.476562"/>
    <use xlink:href="#DejaVuSans-4d" x="92.96875"/>
    <use xlink:href="#DejaVuSans-55" x="179.248047"/>
    <use xlink:href="#DejaVuSans-4c" x="252.441406"/>
    <use xlink:href="#DejaVuSans-41" x="310.404297"/>
    <use xlink:href="#DejaVuSans-54" x="371.0625"/>
    <use xlink:href="#DejaVuSans-45" x="432.146484"/>
    <use xlink:href="#DejaVuSans-44" x="495.330078"/>
   </g>
   <!-- AMPLITUDE -->
   <g transform="translate(27.29225 99.292812) rotate(-90) scale(0.1 -0.1)">
    <use xlink:href="#DejaVuSans-41"/>
    <use xlink:href="#DejaVuSans-4d" x="68.408203"/>
    <use xlink:href="#DejaVuSans-50" x="154.6875"/>
    <use xlink:href="#DejaVuSans-4c" x="214.990234"/>
    <use xlink:href="#DejaVuSans-49" x="270.703125"/>
    <use xlink:href="#DejaVuSans-54" x="300.195312"/>
    <use xlink:href="#DejaVuSans-55" x="361.279297"/>
    <use xlink:href="#DejaVuSans-44" x="434.472656"/>
    <use xlink:href="#DejaVuSans-45" x="511.474609"/>
   </g>
  </g>
 </g>
 <defs>
  <clipPath id="pf9f7cd36ef">
   <rect x="65.014" y="60.144" width="348.986" height="32.216"/>
  </clipPath>
 </defs>
</svg>
