<?xml version="1.0" encoding="utf-8" standalone="no"?>
<!DOCTYPE svg PUBLIC "-//W3C//DTD SVG 1.1//EN"
  "http://www.w3.org/Graphics/SVG/1.1/DTD/svg11.dtd">
<svg xmlns:xlink="http://www.w3.org/1999/xlink" width="864pt" height="360pt" viewBox="0 0 864 360" xmlns="http://www.w3.org/2000/svg" version="1.1">
 <metadata>
  <rdf:RDF xmlns:dc="http://purl.org/dc/elements/1.1/" xmlns:cc="http://creativecommons.org/ns#" xmlns:rdf="http://www.w3.org/1999/02/22-rdf-syntax-ns#">
   <cc:Work>
    <dc:type rdf:resource="http://purl.org/dc/dcmitype/StillImage"/>
    <dc:date>2023-11-07T11:11:28.422505</dc:date>
    <dc:format>image/svg+xml</dc:format>
    <dc:creator>
     <cc:Agent>
      <dc:title>Matplotlib v3.7.1, https://matplotlib.org/</dc:title>
     </cc:Agent>
    </dc:creator>
   </cc:Work>
  </rdf:RDF>
 </metadata>
 <defs>
  <style type="text/css">*{stroke-linejoin: round; stroke-linecap: butt}</style>
 </defs>
 <g id="figure_1">
  <g id="patch_1">
   <path d="M 0 360 
L 864 360 
L 864 0 
L 0 0 
z
" style="fill: #ffffff"/>
  </g>
  <g id="axes_1">
   <g id="patch_2">
    <path d="M 108 320.4 
L 777.6 320.4 
L 777.6 43.2 
L 108 43.2 
z
" style="fill: #ffffff"/>
   </g>
   <g id="matplotlib.axis_1">
    <g id="xtick_1">
     <g id="line2d_1">
      <defs>
       <path id="m71a32e1007" d="M 0 0 
L 0 3.5 
" style="stroke: #000000; stroke-width: 0.8"/>
      </defs>
      <g>
       <use xlink:href="#m71a32e1007" x="138.436364" y="320.4" style="stroke: #000000; stroke-width: 0.8"/>
      </g>
     </g>
     <g id="text_1">
      <!-- 2022-01-01 -->
      <g transform="translate(109.378551 334.998438) scale(0.1 -0.1)">
       <defs>
        <path id="DejaVuSans-32" d="M 1228 531 
L 3431 531 
L 3431 0 
L 469 0 
L 469 531 
Q 828 903 1448 1529 
Q 2069 2156 2228 2338 
Q 2531 2678 2651 2914 
Q 2772 3150 2772 3378 
Q 2772 3750 2511 3984 
Q 2250 4219 1831 4219 
Q 1534 4219 1204 4116 
Q 875 4013 500 3803 
L 500 4441 
Q 881 4594 1212 4672 
Q 1544 4750 1819 4750 
Q 2544 4750 2975 4387 
Q 3406 4025 3406 3419 
Q 3406 3131 3298 2873 
Q 3191 2616 2906 2266 
Q 2828 2175 2409 1742 
Q 1991 1309 1228 531 
z
" transform="scale(0.015625)"/>
        <path id="DejaVuSans-30" d="M 2034 4250 
Q 1547 4250 1301 3770 
Q 1056 3291 1056 2328 
Q 1056 1369 1301 889 
Q 1547 409 2034 409 
Q 2525 409 2770 889 
Q 3016 1369 3016 2328 
Q 3016 3291 2770 3770 
Q 2525 4250 2034 4250 
z
M 2034 4750 
Q 2819 4750 3233 4129 
Q 3647 3509 3647 2328 
Q 3647 1150 3233 529 
Q 2819 -91 2034 -91 
Q 1250 -91 836 529 
Q 422 1150 422 2328 
Q 422 3509 836 4129 
Q 1250 4750 2034 4750 
z
" transform="scale(0.015625)"/>
        <path id="DejaVuSans-2d" d="M 313 2009 
L 1997 2009 
L 1997 1497 
L 313 1497 
L 313 2009 
z
" transform="scale(0.015625)"/>
        <path id="DejaVuSans-31" d="M 794 531 
L 1825 531 
L 1825 4091 
L 703 3866 
L 703 4441 
L 1819 4666 
L 2450 4666 
L 2450 531 
L 3481 531 
L 3481 0 
L 794 0 
L 794 531 
z
" transform="scale(0.015625)"/>
       </defs>
       <use xlink:href="#DejaVuSans-32"/>
       <use xlink:href="#DejaVuSans-30" x="63.623047"/>
       <use xlink:href="#DejaVuSans-32" x="127.246094"/>
       <use xlink:href="#DejaVuSans-32" x="190.869141"/>
       <use xlink:href="#DejaVuSans-2d" x="254.492188"/>
       <use xlink:href="#DejaVuSans-30" x="290.576172"/>
       <use xlink:href="#DejaVuSans-31" x="354.199219"/>
       <use xlink:href="#DejaVuSans-2d" x="417.822266"/>
       <use xlink:href="#DejaVuSans-30" x="453.90625"/>
       <use xlink:href="#DejaVuSans-31" x="517.529297"/>
      </g>
     </g>
    </g>
    <g id="xtick_2">
     <g id="line2d_2">
      <g>
       <use xlink:href="#m71a32e1007" x="232.237035" y="320.4" style="stroke: #000000; stroke-width: 0.8"/>
      </g>
     </g>
     <g id="text_2">
      <!-- 2022-01-03 -->
      <g transform="translate(203.179222 334.998438) scale(0.1 -0.1)">
       <defs>
        <path id="DejaVuSans-33" d="M 2597 2516 
Q 3050 2419 3304 2112 
Q 3559 1806 3559 1356 
Q 3559 666 3084 287 
Q 2609 -91 1734 -91 
Q 1441 -91 1130 -33 
Q 819 25 488 141 
L 488 750 
Q 750 597 1062 519 
Q 1375 441 1716 441 
Q 2309 441 2620 675 
Q 2931 909 2931 1356 
Q 2931 1769 2642 2001 
Q 2353 2234 1838 2234 
L 1294 2234 
L 1294 2753 
L 1863 2753 
Q 2328 2753 2575 2939 
Q 2822 3125 2822 3475 
Q 2822 3834 2567 4026 
Q 2313 4219 1838 4219 
Q 1578 4219 1281 4162 
Q 984 4106 628 3988 
L 628 4550 
Q 988 4650 1302 4700 
Q 1616 4750 1894 4750 
Q 2613 4750 3031 4423 
Q 3450 4097 3450 3541 
Q 3450 3153 3228 2886 
Q 3006 2619 2597 2516 
z
" transform="scale(0.015625)"/>
       </defs>
       <use xlink:href="#DejaVuSans-32"/>
       <use xlink:href="#DejaVuSans-30" x="63.623047"/>
       <use xlink:href="#DejaVuSans-32" x="127.246094"/>
       <use xlink:href="#DejaVuSans-32" x="190.869141"/>
       <use xlink:href="#DejaVuSans-2d" x="254.492188"/>
       <use xlink:href="#DejaVuSans-30" x="290.576172"/>
       <use xlink:href="#DejaVuSans-31" x="354.199219"/>
       <use xlink:href="#DejaVuSans-2d" x="417.822266"/>
       <use xlink:href="#DejaVuSans-30" x="453.90625"/>
       <use xlink:href="#DejaVuSans-33" x="517.529297"/>
      </g>
     </g>
    </g>
    <g id="xtick_3">
     <g id="line2d_3">
      <g>
       <use xlink:href="#m71a32e1007" x="326.037706" y="320.4" style="stroke: #000000; stroke-width: 0.8"/>
      </g>
     </g>
     <g id="text_3">
      <!-- 2022-01-05 -->
      <g transform="translate(296.979894 334.998438) scale(0.1 -0.1)">
       <defs>
        <path id="DejaVuSans-35" d="M 691 4666 
L 3169 4666 
L 3169 4134 
L 1269 4134 
L 1269 2991 
Q 1406 3038 1543 3061 
Q 1681 3084 1819 3084 
Q 2600 3084 3056 2656 
Q 3513 2228 3513 1497 
Q 3513 744 3044 326 
Q 2575 -91 1722 -91 
Q 1428 -91 1123 -41 
Q 819 9 494 109 
L 494 744 
Q 775 591 1075 516 
Q 1375 441 1709 441 
Q 2250 441 2565 725 
Q 2881 1009 2881 1497 
Q 2881 1984 2565 2268 
Q 2250 2553 1709 2553 
Q 1456 2553 1204 2497 
Q 953 2441 691 2322 
L 691 4666 
z
" transform="scale(0.015625)"/>
       </defs>
       <use xlink:href="#DejaVuSans-32"/>
       <use xlink:href="#DejaVuSans-30" x="63.623047"/>
       <use xlink:href="#DejaVuSans-32" x="127.246094"/>
       <use xlink:href="#DejaVuSans-32" x="190.869141"/>
       <use xlink:href="#DejaVuSans-2d" x="254.492188"/>
       <use xlink:href="#DejaVuSans-30" x="290.576172"/>
       <use xlink:href="#DejaVuSans-31" x="354.199219"/>
       <use xlink:href="#DejaVuSans-2d" x="417.822266"/>
       <use xlink:href="#DejaVuSans-30" x="453.90625"/>
       <use xlink:href="#DejaVuSans-35" x="517.529297"/>
      </g>
     </g>
    </g>
    <g id="xtick_4">
     <g id="line2d_4">
      <g>
       <use xlink:href="#m71a32e1007" x="419.838377" y="320.4" style="stroke: #000000; stroke-width: 0.8"/>
      </g>
     </g>
     <g id="text_4">
      <!-- 2022-01-07 -->
      <g transform="translate(390.780565 334.998438) scale(0.1 -0.1)">
       <defs>
        <path id="DejaVuSans-37" d="M 525 4666 
L 3525 4666 
L 3525 4397 
L 1831 0 
L 1172 0 
L 2766 4134 
L 525 4134 
L 525 4666 
z
" transform="scale(0.015625)"/>
       </defs>
       <use xlink:href="#DejaVuSans-32"/>
       <use xlink:href="#DejaVuSans-30" x="63.623047"/>
       <use xlink:href="#DejaVuSans-32" x="127.246094"/>
       <use xlink:href="#DejaVuSans-32" x="190.869141"/>
       <use xlink:href="#DejaVuSans-2d" x="254.492188"/>
       <use xlink:href="#DejaVuSans-30" x="290.576172"/>
       <use xlink:href="#DejaVuSans-31" x="354.199219"/>
       <use xlink:href="#DejaVuSans-2d" x="417.822266"/>
       <use xlink:href="#DejaVuSans-30" x="453.90625"/>
       <use xlink:href="#DejaVuSans-37" x="517.529297"/>
      </g>
     </g>
    </g>
    <g id="xtick_5">
     <g id="line2d_5">
      <g>
       <use xlink:href="#m71a32e1007" x="513.639049" y="320.4" style="stroke: #000000; stroke-width: 0.8"/>
      </g>
     </g>
     <g id="text_5">
      <!-- 2022-01-09 -->
      <g transform="translate(484.581236 334.998438) scale(0.1 -0.1)">
       <defs>
        <path id="DejaVuSans-39" d="M 703 97 
L 703 672 
Q 941 559 1184 500 
Q 1428 441 1663 441 
Q 2288 441 2617 861 
Q 2947 1281 2994 2138 
Q 2813 1869 2534 1725 
Q 2256 1581 1919 1581 
Q 1219 1581 811 2004 
Q 403 2428 403 3163 
Q 403 3881 828 4315 
Q 1253 4750 1959 4750 
Q 2769 4750 3195 4129 
Q 3622 3509 3622 2328 
Q 3622 1225 3098 567 
Q 2575 -91 1691 -91 
Q 1453 -91 1209 -44 
Q 966 3 703 97 
z
M 1959 2075 
Q 2384 2075 2632 2365 
Q 2881 2656 2881 3163 
Q 2881 3666 2632 3958 
Q 2384 4250 1959 4250 
Q 1534 4250 1286 3958 
Q 1038 3666 1038 3163 
Q 1038 2656 1286 2365 
Q 1534 2075 1959 2075 
z
" transform="scale(0.015625)"/>
       </defs>
       <use xlink:href="#DejaVuSans-32"/>
       <use xlink:href="#DejaVuSans-30" x="63.623047"/>
       <use xlink:href="#DejaVuSans-32" x="127.246094"/>
       <use xlink:href="#DejaVuSans-32" x="190.869141"/>
       <use xlink:href="#DejaVuSans-2d" x="254.492188"/>
       <use xlink:href="#DejaVuSans-30" x="290.576172"/>
       <use xlink:href="#DejaVuSans-31" x="354.199219"/>
       <use xlink:href="#DejaVuSans-2d" x="417.822266"/>
       <use xlink:href="#DejaVuSans-30" x="453.90625"/>
       <use xlink:href="#DejaVuSans-39" x="517.529297"/>
      </g>
     </g>
    </g>
    <g id="xtick_6">
     <g id="line2d_6">
      <g>
       <use xlink:href="#m71a32e1007" x="607.43972" y="320.4" style="stroke: #000000; stroke-width: 0.8"/>
      </g>
     </g>
     <g id="text_6">
      <!-- 2022-01-11 -->
      <g transform="translate(578.381907 334.998438) scale(0.1 -0.1)">
       <use xlink:href="#DejaVuSans-32"/>
       <use xlink:href="#DejaVuSans-30" x="63.623047"/>
       <use xlink:href="#DejaVuSans-32" x="127.246094"/>
       <use xlink:href="#DejaVuSans-32" x="190.869141"/>
       <use xlink:href="#DejaVuSans-2d" x="254.492188"/>
       <use xlink:href="#DejaVuSans-30" x="290.576172"/>
       <use xlink:href="#DejaVuSans-31" x="354.199219"/>
       <use xlink:href="#DejaVuSans-2d" x="417.822266"/>
       <use xlink:href="#DejaVuSans-31" x="453.90625"/>
       <use xlink:href="#DejaVuSans-31" x="517.529297"/>
      </g>
     </g>
    </g>
    <g id="xtick_7">
     <g id="line2d_7">
      <g>
       <use xlink:href="#m71a32e1007" x="701.240391" y="320.4" style="stroke: #000000; stroke-width: 0.8"/>
      </g>
     </g>
     <g id="text_7">
      <!-- 2022-01-13 -->
      <g transform="translate(672.182579 334.998438) scale(0.1 -0.1)">
       <use xlink:href="#DejaVuSans-32"/>
       <use xlink:href="#DejaVuSans-30" x="63.623047"/>
       <use xlink:href="#DejaVuSans-32" x="127.246094"/>
       <use xlink:href="#DejaVuSans-32" x="190.869141"/>
       <use xlink:href="#DejaVuSans-2d" x="254.492188"/>
       <use xlink:href="#DejaVuSans-30" x="290.576172"/>
       <use xlink:href="#DejaVuSans-31" x="354.199219"/>
       <use xlink:href="#DejaVuSans-2d" x="417.822266"/>
       <use xlink:href="#DejaVuSans-31" x="453.90625"/>
       <use xlink:href="#DejaVuSans-33" x="517.529297"/>
      </g>
     </g>
    </g>
    <g id="text_8">
     <!-- TIME (DAYS) -->
     <g transform="translate(412.283594 348.676562) scale(0.1 -0.1)">
      <defs>
       <path id="DejaVuSans-54" d="M -19 4666 
L 3928 4666 
L 3928 4134 
L 2272 4134 
L 2272 0 
L 1638 0 
L 1638 4134 
L -19 4134 
L -19 4666 
z
" transform="scale(0.015625)"/>
       <path id="DejaVuSans-49" d="M 628 4666 
L 1259 4666 
L 1259 0 
L 628 0 
L 628 4666 
z
" transform="scale(0.015625)"/>
       <path id="DejaVuSans-4d" d="M 628 4666 
L 1569 4666 
L 2759 1491 
L 3956 4666 
L 4897 4666 
L 4897 0 
L 4281 0 
L 4281 4097 
L 3078 897 
L 2444 897 
L 1241 4097 
L 1241 0 
L 628 0 
L 628 4666 
z
" transform="scale(0.015625)"/>
       <path id="DejaVuSans-45" d="M 628 4666 
L 3578 4666 
L 3578 4134 
L 1259 4134 
L 1259 2753 
L 3481 2753 
L 3481 2222 
L 1259 2222 
L 1259 531 
L 3634 531 
L 3634 0 
L 628 0 
L 628 4666 
z
" transform="scale(0.015625)"/>
       <path id="DejaVuSans-20" transform="scale(0.015625)"/>
       <path id="DejaVuSans-28" d="M 1984 4856 
Q 1566 4138 1362 3434 
Q 1159 2731 1159 2009 
Q 1159 1288 1364 580 
Q 1569 -128 1984 -844 
L 1484 -844 
Q 1016 -109 783 600 
Q 550 1309 550 2009 
Q 550 2706 781 3412 
Q 1013 4119 1484 4856 
L 1984 4856 
z
" transform="scale(0.015625)"/>
       <path id="DejaVuSans-44" d="M 1259 4147 
L 1259 519 
L 2022 519 
Q 2988 519 3436 956 
Q 3884 1394 3884 2338 
Q 3884 3275 3436 3711 
Q 2988 4147 2022 4147 
L 1259 4147 
z
M 628 4666 
L 1925 4666 
Q 3281 4666 3915 4102 
Q 4550 3538 4550 2338 
Q 4550 1131 3912 565 
Q 3275 0 1925 0 
L 628 0 
L 628 4666 
z
" transform="scale(0.015625)"/>
       <path id="DejaVuSans-41" d="M 2188 4044 
L 1331 1722 
L 3047 1722 
L 2188 4044 
z
M 1831 4666 
L 2547 4666 
L 4325 0 
L 3669 0 
L 3244 1197 
L 1141 1197 
L 716 0 
L 50 0 
L 1831 4666 
z
" transform="scale(0.015625)"/>
       <path id="DejaVuSans-59" d="M -13 4666 
L 666 4666 
L 1959 2747 
L 3244 4666 
L 3922 4666 
L 2272 2222 
L 2272 0 
L 1638 0 
L 1638 2222 
L -13 4666 
z
" transform="scale(0.015625)"/>
       <path id="DejaVuSans-53" d="M 3425 4513 
L 3425 3897 
Q 3066 4069 2747 4153 
Q 2428 4238 2131 4238 
Q 1616 4238 1336 4038 
Q 1056 3838 1056 3469 
Q 1056 3159 1242 3001 
Q 1428 2844 1947 2747 
L 2328 2669 
Q 3034 2534 3370 2195 
Q 3706 1856 3706 1288 
Q 3706 609 3251 259 
Q 2797 -91 1919 -91 
Q 1588 -91 1214 -16 
Q 841 59 441 206 
L 441 856 
Q 825 641 1194 531 
Q 1563 422 1919 422 
Q 2459 422 2753 634 
Q 3047 847 3047 1241 
Q 3047 1584 2836 1778 
Q 2625 1972 2144 2069 
L 1759 2144 
Q 1053 2284 737 2584 
Q 422 2884 422 3419 
Q 422 4038 858 4394 
Q 1294 4750 2059 4750 
Q 2388 4750 2728 4690 
Q 3069 4631 3425 4513 
z
" transform="scale(0.015625)"/>
       <path id="DejaVuSans-29" d="M 513 4856 
L 1013 4856 
Q 1481 4119 1714 3412 
Q 1947 2706 1947 2009 
Q 1947 1309 1714 600 
Q 1481 -109 1013 -844 
L 513 -844 
Q 928 -128 1133 580 
Q 1338 1288 1338 2009 
Q 1338 2731 1133 3434 
Q 928 4138 513 4856 
z
" transform="scale(0.015625)"/>
      </defs>
      <use xlink:href="#DejaVuSans-54"/>
      <use xlink:href="#DejaVuSans-49" x="61.083984"/>
      <use xlink:href="#DejaVuSans-4d" x="90.576172"/>
      <use xlink:href="#DejaVuSans-45" x="176.855469"/>
      <use xlink:href="#DejaVuSans-20" x="240.039062"/>
      <use xlink:href="#DejaVuSans-28" x="271.826172"/>
      <use xlink:href="#DejaVuSans-44" x="310.839844"/>
      <use xlink:href="#DejaVuSans-41" x="386.091797"/>
      <use xlink:href="#DejaVuSans-59" x="446.75"/>
      <use xlink:href="#DejaVuSans-53" x="507.833984"/>
      <use xlink:href="#DejaVuSans-29" x="571.310547"/>
     </g>
    </g>
   </g>
   <g id="matplotlib.axis_2">
    <g id="ytick_1">
     <g id="line2d_8">
      <defs>
       <path id="mb11512c75c" d="M 0 0 
L -3.5 0 
" style="stroke: #000000; stroke-width: 0.8"/>
      </defs>
      <g>
       <use xlink:href="#mb11512c75c" x="108" y="307.8" style="stroke: #000000; stroke-width: 0.8"/>
      </g>
     </g>
     <g id="text_9">
      <!-- 0 -->
      <g transform="translate(94.6375 311.599219) scale(0.1 -0.1)">
       <use xlink:href="#DejaVuSans-30"/>
      </g>
     </g>
    </g>
    <g id="ytick_2">
     <g id="line2d_9">
      <g>
       <use xlink:href="#mb11512c75c" x="108" y="263.744056" style="stroke: #000000; stroke-width: 0.8"/>
      </g>
     </g>
     <g id="text_10">
      <!-- 50 -->
      <g transform="translate(88.275 267.543275) scale(0.1 -0.1)">
       <use xlink:href="#DejaVuSans-35"/>
       <use xlink:href="#DejaVuSans-30" x="63.623047"/>
      </g>
     </g>
    </g>
    <g id="ytick_3">
     <g id="line2d_10">
      <g>
       <use xlink:href="#mb11512c75c" x="108" y="219.688112" style="stroke: #000000; stroke-width: 0.8"/>
      </g>
     </g>
     <g id="text_11">
      <!-- 100 -->
      <g transform="translate(81.9125 223.487331) scale(0.1 -0.1)">
       <use xlink:href="#DejaVuSans-31"/>
       <use xlink:href="#DejaVuSans-30" x="63.623047"/>
       <use xlink:href="#DejaVuSans-30" x="127.246094"/>
      </g>
     </g>
    </g>
    <g id="ytick_4">
     <g id="line2d_11">
      <g>
       <use xlink:href="#mb11512c75c" x="108" y="175.632168" style="stroke: #000000; stroke-width: 0.8"/>
      </g>
     </g>
     <g id="text_12">
      <!-- 150 -->
      <g transform="translate(81.9125 179.431387) scale(0.1 -0.1)">
       <use xlink:href="#DejaVuSans-31"/>
       <use xlink:href="#DejaVuSans-35" x="63.623047"/>
       <use xlink:href="#DejaVuSans-30" x="127.246094"/>
      </g>
     </g>
    </g>
    <g id="ytick_5">
     <g id="line2d_12">
      <g>
       <use xlink:href="#mb11512c75c" x="108" y="131.576224" style="stroke: #000000; stroke-width: 0.8"/>
      </g>
     </g>
     <g id="text_13">
      <!-- 200 -->
      <g transform="translate(81.9125 135.375443) scale(0.1 -0.1)">
       <use xlink:href="#DejaVuSans-32"/>
       <use xlink:href="#DejaVuSans-30" x="63.623047"/>
       <use xlink:href="#DejaVuSans-30" x="127.246094"/>
      </g>
     </g>
    </g>
    <g id="ytick_6">
     <g id="line2d_13">
      <g>
       <use xlink:href="#mb11512c75c" x="108" y="87.52028" style="stroke: #000000; stroke-width: 0.8"/>
      </g>
     </g>
     <g id="text_14">
      <!-- 250 -->
      <g transform="translate(81.9125 91.319498) scale(0.1 -0.1)">
       <use xlink:href="#DejaVuSans-32"/>
       <use xlink:href="#DejaVuSans-35" x="63.623047"/>
       <use xlink:href="#DejaVuSans-30" x="127.246094"/>
      </g>
     </g>
    </g>
    <g id="ytick_7">
     <g id="line2d_14">
      <g>
       <use xlink:href="#mb11512c75c" x="108" y="43.464336" style="stroke: #000000; stroke-width: 0.8"/>
      </g>
     </g>
     <g id="text_15">
      <!-- 300 -->
      <g transform="translate(81.9125 47.263554) scale(0.1 -0.1)">
       <use xlink:href="#DejaVuSans-33"/>
       <use xlink:href="#DejaVuSans-30" x="63.623047"/>
       <use xlink:href="#DejaVuSans-30" x="127.246094"/>
      </g>
     </g>
    </g>
    <g id="text_16">
     <!-- AMPLITUDE -->
     <g transform="translate(75.832812 210.532812) rotate(-90) scale(0.1 -0.1)">
      <defs>
       <path id="DejaVuSans-50" d="M 1259 4147 
L 1259 2394 
L 2053 2394 
Q 2494 2394 2734 2622 
Q 2975 2850 2975 3272 
Q 2975 3691 2734 3919 
Q 2494 4147 2053 4147 
L 1259 4147 
z
M 628 4666 
L 2053 4666 
Q 2838 4666 3239 4311 
Q 3641 3956 3641 3272 
Q 3641 2581 3239 2228 
Q 2838 1875 2053 1875 
L 1259 1875 
L 1259 0 
L 628 0 
L 628 4666 
z
" transform="scale(0.015625)"/>
       <path id="DejaVuSans-4c" d="M 628 4666 
L 1259 4666 
L 1259 531 
L 3531 531 
L 3531 0 
L 628 0 
L 628 4666 
z
" transform="scale(0.015625)"/>
       <path id="DejaVuSans-55" d="M 556 4666 
L 1191 4666 
L 1191 1831 
Q 1191 1081 1462 751 
Q 1734 422 2344 422 
Q 2950 422 3222 751 
Q 3494 1081 3494 1831 
L 3494 4666 
L 4128 4666 
L 4128 1753 
Q 4128 841 3676 375 
Q 3225 -91 2344 -91 
Q 1459 -91 1007 375 
Q 556 841 556 1753 
L 556 4666 
z
" transform="scale(0.015625)"/>
      </defs>
      <use xlink:href="#DejaVuSans-41"/>
      <use xlink:href="#DejaVuSans-4d" x="68.408203"/>
      <use xlink:href="#DejaVuSans-50" x="154.6875"/>
      <use xlink:href="#DejaVuSans-4c" x="214.990234"/>
      <use xlink:href="#DejaVuSans-49" x="270.703125"/>
      <use xlink:href="#DejaVuSans-54" x="300.195312"/>
      <use xlink:href="#DejaVuSans-55" x="361.279297"/>
      <use xlink:href="#DejaVuSans-44" x="434.472656"/>
      <use xlink:href="#DejaVuSans-45" x="511.474609"/>
     </g>
    </g>
   </g>
   <g id="line2d_15">
    <path d="M 138.436364 261.981818 
L 139.413454 272.555245 
L 140.390544 307.8 
L 142.344725 307.8 
L 143.321815 246.121678 
L 144.298906 199.422378 
L 145.275996 301.632168 
L 146.253086 307.8 
L 147.230177 307.8 
L 148.207267 226.737063 
L 149.184357 307.8 
L 150.161448 270.793007 
L 151.138538 268.14965 
L 152.115628 305.156643 
L 153.092719 212.639161 
L 154.069809 302.513287 
L 155.046899 296.345455 
L 156.023989 302.513287 
L 157.00108 189.73007 
L 157.97817 219.688112 
L 158.95526 307.8 
L 159.932351 292.820979 
L 160.909441 269.911888 
L 161.886531 307.8 
L 162.863622 307.8 
L 163.840712 218.806993 
L 164.817802 204.709091 
L 165.794893 194.135664 
L 166.771983 213.52028 
L 167.749073 150.07972 
L 168.726164 307.8 
L 169.703254 230.261538 
L 170.680344 228.499301 
L 171.657435 136.862937 
L 172.634525 224.974825 
L 173.611615 176.513287 
L 174.588706 226.737063 
L 175.565796 150.960839 
L 176.542886 276.07972 
L 177.519977 243.478322 
L 178.497067 285.772028 
L 179.474157 165.058741 
L 180.451248 241.716084 
L 181.428338 230.261538 
L 182.405428 269.030769 
L 183.382519 238.191608 
L 184.359609 134.21958 
L 185.336699 247.002797 
L 186.31379 297.226573 
L 187.29088 110.429371 
L 188.26797 307.8 
L 191.199241 307.8 
L 192.176332 286.653147 
L 193.153422 299.86993 
L 194.130512 245.240559 
L 195.107603 289.296503 
L 196.084693 235.548252 
L 197.061783 307.8 
L 198.038873 303.394406 
L 199.015964 307.8 
L 199.993054 217.044755 
L 200.970144 307.8 
L 201.947235 307.8 
L 202.924325 227.618182 
L 203.901415 233.786014 
L 204.878506 273.436364 
L 205.855596 299.86993 
L 206.832686 307.8 
L 207.809777 237.31049 
L 208.786867 307.8 
L 212.695228 307.8 
L 213.672319 245.240559 
L 214.649409 204.709091 
L 215.626499 187.967832 
L 216.60359 282.247552 
L 217.58068 306.918881 
L 218.55777 275.198601 
L 219.534861 126.28951 
L 220.511951 202.946853 
L 221.489041 267.268531 
L 222.466132 211.758042 
L 223.443222 261.100699 
L 224.420312 265.506294 
L 225.397403 230.261538 
L 226.374493 269.911888 
L 227.351583 244.359441 
L 228.328674 180.037762 
L 229.305764 257.576224 
L 230.282854 232.904895 
L 231.259945 176.513287 
L 232.237035 260.21958 
L 233.214125 186.205594 
L 234.191216 135.981818 
L 235.168306 263.744056 
L 236.145396 172.107692 
L 238.099577 254.051748 
L 239.076667 307.8 
L 241.030848 307.8 
L 242.007938 251.408392 
L 242.985028 261.100699 
L 243.962119 307.8 
L 244.939209 220.569231 
L 245.916299 307.8 
L 246.89339 307.8 
L 247.87048 296.345455 
L 248.84757 307.8 
L 249.824661 260.21958 
L 250.801751 307.8 
L 251.778841 260.21958 
L 252.755932 307.8 
L 253.733022 272.555245 
L 254.710112 307.8 
L 255.687203 306.918881 
L 256.664293 307.8 
L 260.572654 307.8 
L 261.549745 204.709091 
L 262.526835 291.058741 
L 263.503925 259.338462 
L 264.481016 259.338462 
L 265.458106 244.359441 
L 266.435196 118.359441 
L 267.412287 207.352448 
L 268.389377 244.359441 
L 269.366467 301.632168 
L 270.343558 268.14965 
L 271.320648 303.394406 
L 272.297738 278.723077 
L 273.274829 298.107692 
L 274.251919 242.597203 
L 275.229009 307.8 
L 276.2061 224.974825 
L 277.18319 238.191608 
L 278.16028 126.28951 
L 279.13737 246.121678 
L 280.114461 307.8 
L 281.091551 138.625175 
L 282.068641 262.862937 
L 283.045732 193.254545 
L 284.022822 167.702098 
L 284.999912 165.058741 
L 285.977003 307.8 
L 286.954093 289.296503 
L 287.931183 277.841958 
L 288.908274 236.429371 
L 289.885364 283.128671 
L 290.862454 307.8 
L 292.816635 307.8 
L 294.770816 210.876923 
L 295.747906 307.8 
L 296.724996 296.345455 
L 297.702087 261.100699 
L 298.679177 283.128671 
L 299.656267 230.261538 
L 300.633358 306.918881 
L 301.610448 304.275524 
L 302.587538 307.8 
L 303.564629 306.037762 
L 304.541719 307.8 
L 305.518809 286.653147 
L 306.4959 307.8 
L 310.404261 307.8 
L 311.381351 303.394406 
L 312.358442 306.918881 
L 313.335532 251.408392 
L 314.312622 214.401399 
L 315.289713 239.953846 
L 316.266803 279.604196 
L 317.243893 280.485315 
L 318.220984 192.373427 
L 319.198074 307.8 
L 320.175164 175.632168 
L 321.152254 253.170629 
L 322.129345 286.653147 
L 324.083525 187.086713 
L 325.060616 165.93986 
L 326.037706 268.14965 
L 327.014796 153.604196 
L 327.991887 153.604196 
L 328.968977 141.268531 
L 329.946067 211.758042 
L 330.923158 228.499301 
L 331.900248 132.457343 
L 332.877338 121.883916 
L 333.854429 231.142657 
L 334.831519 127.170629 
L 335.808609 121.883916 
L 336.7857 247.002797 
L 337.76279 215.282517 
L 338.73988 291.058741 
L 339.716971 286.653147 
L 340.694061 307.8 
L 341.671151 270.793007 
L 342.648242 307.8 
L 343.625332 224.093706 
L 344.602422 265.506294 
L 345.579513 166.820979 
L 346.556603 284.00979 
L 347.533693 307.8 
L 349.487874 307.8 
L 350.464964 273.436364 
L 351.442055 267.268531 
L 352.419145 242.597203 
L 353.396235 291.93986 
L 354.373326 307.8 
L 357.304597 307.8 
L 358.281687 246.121678 
L 359.258777 307.8 
L 360.235868 307.8 
L 361.212958 269.030769 
L 362.190048 263.744056 
L 363.167138 247.002797 
L 364.144229 239.953846 
L 365.121319 256.695105 
L 366.098409 182.681119 
L 367.0755 208.233566 
L 368.05259 225.855944 
L 369.02968 186.205594 
L 370.006771 180.918881 
L 370.983861 203.827972 
L 371.960951 243.478322 
L 372.938042 290.177622 
L 373.915132 158.00979 
L 374.892222 268.14965 
L 375.869313 245.240559 
L 376.846403 218.806993 
L 377.823493 109.548252 
L 378.800584 233.786014 
L 379.777674 148.317483 
L 380.754764 307.8 
L 381.731855 189.73007 
L 382.708945 222.331469 
L 383.686035 190.611189 
L 384.663126 173.86993 
L 385.640216 232.023776 
L 386.617306 307.8 
L 387.594397 165.93986 
L 388.571487 196.779021 
L 389.548577 249.646154 
L 390.525668 272.555245 
L 391.502758 278.723077 
L 392.479848 264.625175 
L 393.456939 307.8 
L 395.411119 307.8 
L 396.38821 297.226573 
L 397.3653 271.674126 
L 398.34239 307.8 
L 399.319481 307.8 
L 400.296571 265.506294 
L 401.273661 232.023776 
L 402.250751 238.191608 
L 403.227842 307.8 
L 404.204932 217.925874 
L 405.182022 307.8 
L 411.044564 307.8 
L 412.021655 244.359441 
L 412.998745 302.513287 
L 413.975835 225.855944 
L 414.952926 205.59021 
L 415.930016 108.667133 
L 416.907106 307.8 
L 417.884197 220.569231 
L 418.861287 188.848951 
L 419.838377 256.695105 
L 420.815468 150.07972 
L 421.792558 128.051748 
L 422.769648 146.555245 
L 423.746739 189.73007 
L 424.723829 199.422378 
L 425.700919 307.8 
L 426.67801 232.023776 
L 427.6551 191.492308 
L 428.63219 232.904895 
L 429.609281 191.492308 
L 430.586371 249.646154 
L 431.563461 182.681119 
L 432.540552 128.932867 
L 433.517642 209.995804 
L 434.494732 218.806993 
L 435.471823 254.051748 
L 436.448913 274.317483 
L 437.426003 143.030769 
L 438.403094 148.317483 
L 439.380184 167.702098 
L 440.357274 307.8 
L 441.334365 307.8 
L 442.311455 270.793007 
L 443.288545 307.8 
L 444.265635 284.00979 
L 445.242726 283.128671 
L 447.196906 307.8 
L 448.173997 202.946853 
L 449.151087 307.8 
L 450.128177 307.8 
L 451.105268 263.744056 
L 452.082358 289.296503 
L 453.059448 290.177622 
L 454.036539 272.555245 
L 455.013629 307.8 
L 456.96781 307.8 
L 457.9449 275.198601 
L 458.92199 307.8 
L 459.899081 307.8 
L 460.876171 251.408392 
L 461.853261 288.415385 
L 462.830352 269.911888 
L 463.807442 307.8 
L 464.784532 300.751049 
L 465.761623 194.135664 
L 466.738713 303.394406 
L 467.715803 287.534266 
L 468.692894 172.988811 
L 469.669984 251.408392 
L 470.647074 165.93986 
L 471.624165 289.296503 
L 472.601255 151.841958 
L 473.578345 227.618182 
L 474.555436 206.471329 
L 475.532526 175.632168 
L 476.509616 307.8 
L 477.486707 162.415385 
L 478.463797 160.653147 
L 479.440887 55.8 
L 480.417978 307.8 
L 481.395068 265.506294 
L 482.372158 199.422378 
L 483.349249 226.737063 
L 484.326339 225.855944 
L 485.303429 254.932867 
L 486.280519 100.737063 
L 487.25761 113.072727 
L 488.2347 223.212587 
L 489.21179 307.8 
L 491.165971 307.8 
L 492.143061 271.674126 
L 493.120152 306.037762 
L 494.097242 307.8 
L 495.074332 305.156643 
L 496.051423 250.527273 
L 497.028513 307.8 
L 498.005603 291.058741 
L 498.982694 307.8 
L 499.959784 173.86993 
L 500.936874 307.8 
L 502.891055 307.8 
L 503.868145 273.436364 
L 504.845236 307.8 
L 506.799416 307.8 
L 507.776507 305.156643 
L 508.753597 307.8 
L 509.730687 291.058741 
L 510.707778 307.8 
L 512.661958 307.8 
L 513.639049 302.513287 
L 515.593229 98.093706 
L 516.57032 307.8 
L 517.54741 266.387413 
L 518.5245 213.52028 
L 519.501591 189.73007 
L 520.478681 221.45035 
L 521.455771 232.023776 
L 522.432862 196.779021 
L 524.387042 307.8 
L 525.364132 254.051748 
L 526.341223 307.8 
L 527.318313 193.254545 
L 528.295403 254.932867 
L 529.272494 158.890909 
L 530.249584 261.100699 
L 531.226674 204.709091 
L 532.203765 220.569231 
L 533.180855 221.45035 
L 534.157945 186.205594 
L 535.135036 238.191608 
L 536.112126 270.793007 
L 537.089216 240.834965 
L 538.066307 285.772028 
L 539.043397 307.8 
L 541.974668 307.8 
L 542.951758 296.345455 
L 543.928849 165.058741 
L 544.905939 307.8 
L 545.883029 278.723077 
L 546.86012 307.8 
L 547.83721 246.121678 
L 548.8143 307.8 
L 549.791391 307.8 
L 550.768481 244.359441 
L 551.745571 307.8 
L 553.699752 307.8 
L 554.676842 236.429371 
L 555.653933 307.8 
L 556.631023 307.8 
L 557.608113 247.883916 
L 558.585204 307.8 
L 561.516475 307.8 
L 562.493565 306.037762 
L 563.470655 307.8 
L 564.447746 307.8 
L 565.424836 215.282517 
L 566.401926 150.07972 
L 567.379016 216.163636 
L 568.356107 209.114685 
L 569.333197 307.8 
L 570.310287 219.688112 
L 571.287378 180.918881 
L 572.264468 307.8 
L 573.241558 135.100699 
L 574.218649 235.548252 
L 575.195739 175.632168 
L 576.172829 208.233566 
L 578.12701 261.100699 
L 579.1041 188.848951 
L 580.081191 306.037762 
L 581.058281 278.723077 
L 582.035371 293.702098 
L 583.012462 269.030769 
L 583.989552 183.562238 
L 584.966642 149.198601 
L 585.943733 259.338462 
L 586.920823 115.716084 
L 587.897913 307.8 
L 588.875004 294.583217 
L 589.852094 307.8 
L 591.806275 307.8 
L 592.783365 183.562238 
L 593.760455 299.86993 
L 594.737546 298.107692 
L 595.714636 307.8 
L 596.691726 218.806993 
L 597.668817 307.8 
L 599.622997 307.8 
L 600.600088 306.037762 
L 601.577178 173.86993 
L 602.554268 283.128671 
L 603.531359 307.8 
L 604.508449 167.702098 
L 605.485539 307.8 
L 609.3939 307.8 
L 610.370991 196.779021 
L 611.348081 175.632168 
L 612.325171 287.534266 
L 613.302262 197.66014 
L 614.279352 241.716084 
L 616.233533 146.555245 
L 617.210623 158.890909 
L 618.187713 251.408392 
L 619.164804 136.862937 
L 620.141894 256.695105 
L 621.118984 202.065734 
L 622.096075 213.52028 
L 623.073165 238.191608 
L 624.050255 207.352448 
L 625.027346 129.813986 
L 626.004436 114.834965 
L 626.981526 264.625175 
L 627.958617 256.695105 
L 628.935707 307.8 
L 629.912797 183.562238 
L 630.889888 250.527273 
L 631.866978 206.471329 
L 632.844068 230.261538 
L 633.821159 207.352448 
L 634.798249 164.177622 
L 635.775339 256.695105 
L 636.75243 287.534266 
L 637.72952 251.408392 
L 638.70661 226.737063 
L 639.683701 307.8 
L 640.660791 307.8 
L 641.637881 254.932867 
L 642.614972 290.177622 
L 643.592062 257.576224 
L 644.569152 307.8 
L 647.500423 307.8 
L 648.477513 283.128671 
L 649.454604 307.8 
L 650.431694 304.275524 
L 651.408784 276.960839 
L 652.385875 245.240559 
L 653.362965 295.464336 
L 654.340055 249.646154 
L 655.317146 306.037762 
L 656.294236 296.345455 
L 657.271326 307.8 
L 658.248417 269.030769 
L 659.225507 275.198601 
L 660.202597 232.023776 
L 661.179688 307.8 
L 662.156778 307.8 
L 663.133868 222.331469 
L 664.110959 175.632168 
L 665.088049 119.240559 
L 666.065139 167.702098 
L 667.04223 150.960839 
L 668.01932 190.611189 
L 668.99641 212.639161 
L 669.973501 176.513287 
L 671.927681 294.583217 
L 672.904772 254.932867 
L 673.881862 298.988811 
L 674.858952 301.632168 
L 675.836043 113.072727 
L 676.813133 273.436364 
L 678.767314 162.415385 
L 679.744404 296.345455 
L 680.721494 298.988811 
L 681.698585 156.247552 
L 682.675675 292.820979 
L 683.652765 175.632168 
L 684.629856 249.646154 
L 685.606946 127.170629 
L 686.584036 184.443357 
L 687.561127 306.918881 
L 688.538217 218.806993 
L 689.515307 243.478322 
L 690.492397 292.820979 
L 691.469488 269.911888 
L 692.446578 195.016783 
L 693.423668 307.8 
L 694.400759 282.247552 
L 695.377849 307.8 
L 696.354939 307.8 
L 697.33203 293.702098 
L 698.30912 307.8 
L 699.28621 302.513287 
L 700.263301 294.583217 
L 701.240391 230.261538 
L 702.217481 305.156643 
L 703.194572 307.8 
L 704.171662 276.960839 
L 705.148752 255.813986 
L 706.125843 278.723077 
L 707.102933 307.8 
L 708.080023 283.128671 
L 709.057114 307.8 
L 711.011294 307.8 
L 711.988385 300.751049 
L 712.965475 306.918881 
L 713.942565 246.121678 
L 714.919656 277.841958 
L 715.896746 271.674126 
L 716.873836 205.59021 
L 717.850927 211.758042 
L 718.828017 133.338462 
L 719.805107 278.723077 
L 720.782198 307.8 
L 721.759288 157.128671 
L 722.736378 235.548252 
L 724.690559 206.471329 
L 725.667649 142.14965 
L 726.64474 139.506294 
L 727.62183 150.960839 
L 728.59892 184.443357 
L 729.576011 169.464336 
L 730.553101 121.883916 
L 731.530191 214.401399 
L 732.507281 271.674126 
L 733.484372 155.366434 
L 734.461462 242.597203 
L 735.438552 242.597203 
L 736.415643 121.002797 
L 737.392733 307.8 
L 738.369823 307.8 
L 739.346914 232.904895 
L 740.324004 307.8 
L 741.301094 298.107692 
L 742.278185 307.8 
L 743.255275 307.8 
L 744.232365 267.268531 
L 745.209456 307.8 
L 746.186546 307.8 
L 747.163636 227.618182 
L 747.163636 227.618182 
" clip-path="url(#p37e6adb6cc)" style="fill: none; stroke: #191970; stroke-width: 2; stroke-linecap: square"/>
   </g>
   <g id="patch_3">
    <path d="M 108 320.4 
L 108 43.2 
" style="fill: none; stroke: #000000; stroke-width: 0.8; stroke-linejoin: miter; stroke-linecap: square"/>
   </g>
   <g id="patch_4">
    <path d="M 777.6 320.4 
L 777.6 43.2 
" style="fill: none; stroke: #000000; stroke-width: 0.8; stroke-linejoin: miter; stroke-linecap: square"/>
   </g>
   <g id="patch_5">
    <path d="M 108 320.4 
L 777.6 320.4 
" style="fill: none; stroke: #000000; stroke-width: 0.8; stroke-linejoin: miter; stroke-linecap: square"/>
   </g>
   <g id="patch_6">
    <path d="M 108 43.2 
L 777.6 43.2 
" style="fill: none; stroke: #000000; stroke-width: 0.8; stroke-linejoin: miter; stroke-linecap: square"/>
   </g>
   <g id="text_17">
    <!-- TIME SERIES -->
    <g transform="translate(405.350625 37.2) scale(0.12 -0.12)">
     <defs>
      <path id="DejaVuSans-52" d="M 2841 2188 
Q 3044 2119 3236 1894 
Q 3428 1669 3622 1275 
L 4263 0 
L 3584 0 
L 2988 1197 
Q 2756 1666 2539 1819 
Q 2322 1972 1947 1972 
L 1259 1972 
L 1259 0 
L 628 0 
L 628 4666 
L 2053 4666 
Q 2853 4666 3247 4331 
Q 3641 3997 3641 3322 
Q 3641 2881 3436 2590 
Q 3231 2300 2841 2188 
z
M 1259 4147 
L 1259 2491 
L 2053 2491 
Q 2509 2491 2742 2702 
Q 2975 2913 2975 3322 
Q 2975 3731 2742 3939 
Q 2509 4147 2053 4147 
L 1259 4147 
z
" transform="scale(0.015625)"/>
     </defs>
     <use xlink:href="#DejaVuSans-54"/>
     <use xlink:href="#DejaVuSans-49" x="61.083984"/>
     <use xlink:href="#DejaVuSans-4d" x="90.576172"/>
     <use xlink:href="#DejaVuSans-45" x="176.855469"/>
     <use xlink:href="#DejaVuSans-20" x="240.039062"/>
     <use xlink:href="#DejaVuSans-53" x="271.826172"/>
     <use xlink:href="#DejaVuSans-45" x="335.302734"/>
     <use xlink:href="#DejaVuSans-52" x="398.486328"/>
     <use xlink:href="#DejaVuSans-49" x="467.96875"/>
     <use xlink:href="#DejaVuSans-45" x="497.460938"/>
     <use xlink:href="#DejaVuSans-53" x="560.644531"/>
    </g>
   </g>
  </g>
 </g>
 <defs>
  <clipPath id="p37e6adb6cc">
   <rect x="108" y="43.2" width="669.6" height="277.2"/>
  </clipPath>
 </defs>
</svg>
