<?xml version="1.0" encoding="utf-8" standalone="no"?>
<!DOCTYPE svg PUBLIC "-//W3C//DTD SVG 1.1//EN"
  "http://www.w3.org/Graphics/SVG/1.1/DTD/svg11.dtd">
<svg xmlns:xlink="http://www.w3.org/1999/xlink" width="864pt" height="360pt" viewBox="0 0 864 360" xmlns="http://www.w3.org/2000/svg" version="1.1">
 <metadata>
  <rdf:RDF xmlns:dc="http://purl.org/dc/elements/1.1/" xmlns:cc="http://creativecommons.org/ns#" xmlns:rdf="http://www.w3.org/1999/02/22-rdf-syntax-ns#">
   <cc:Work>
    <dc:type rdf:resource="http://purl.org/dc/dcmitype/StillImage"/>
    <dc:date>2023-11-07T11:02:05.509925</dc:date>
    <dc:format>image/svg+xml</dc:format>
    <dc:creator>
     <cc:Agent>
      <dc:title>Matplotlib v3.7.1, https://matplotlib.org/</dc:title>
     </cc:Agent>
    </dc:creator>
   </cc:Work>
  </rdf:RDF>
 </metadata>
 <defs>
  <style type="text/css">*{stroke-linejoin: round; stroke-linecap: butt}</style>
 </defs>
 <g id="figure_1">
  <g id="patch_1">
   <path d="M 0 360 
L 864 360 
L 864 0 
L 0 0 
z
" style="fill: #ffffff"/>
  </g>
  <g id="axes_1">
   <g id="patch_2">
    <path d="M 108 320.4 
L 777.6 320.4 
L 777.6 43.2 
L 108 43.2 
z
" style="fill: #ffffff"/>
   </g>
   <g id="matplotlib.axis_1">
    <g id="xtick_1">
     <g id="line2d_1">
      <defs>
       <path id="m23ee81858b" d="M 0 0 
L 0 3.5 
" style="stroke: #000000; stroke-width: 0.8"/>
      </defs>
      <g>
       <use xlink:href="#m23ee81858b" x="138.436364" y="320.4" style="stroke: #000000; stroke-width: 0.8"/>
      </g>
     </g>
     <g id="text_1">
      <!-- 2022-01-01 -->
      <g transform="translate(109.378551 334.998438) scale(0.1 -0.1)">
       <defs>
        <path id="DejaVuSans-32" d="M 1228 531 
L 3431 531 
L 3431 0 
L 469 0 
L 469 531 
Q 828 903 1448 1529 
Q 2069 2156 2228 2338 
Q 2531 2678 2651 2914 
Q 2772 3150 2772 3378 
Q 2772 3750 2511 3984 
Q 2250 4219 1831 4219 
Q 1534 4219 1204 4116 
Q 875 4013 500 3803 
L 500 4441 
Q 881 4594 1212 4672 
Q 1544 4750 1819 4750 
Q 2544 4750 2975 4387 
Q 3406 4025 3406 3419 
Q 3406 3131 3298 2873 
Q 3191 2616 2906 2266 
Q 2828 2175 2409 1742 
Q 1991 1309 1228 531 
z
" transform="scale(0.015625)"/>
        <path id="DejaVuSans-30" d="M 2034 4250 
Q 1547 4250 1301 3770 
Q 1056 3291 1056 2328 
Q 1056 1369 1301 889 
Q 1547 409 2034 409 
Q 2525 409 2770 889 
Q 3016 1369 3016 2328 
Q 3016 3291 2770 3770 
Q 2525 4250 2034 4250 
z
M 2034 4750 
Q 2819 4750 3233 4129 
Q 3647 3509 3647 2328 
Q 3647 1150 3233 529 
Q 2819 -91 2034 -91 
Q 1250 -91 836 529 
Q 422 1150 422 2328 
Q 422 3509 836 4129 
Q 1250 4750 2034 4750 
z
" transform="scale(0.015625)"/>
        <path id="DejaVuSans-2d" d="M 313 2009 
L 1997 2009 
L 1997 1497 
L 313 1497 
L 313 2009 
z
" transform="scale(0.015625)"/>
        <path id="DejaVuSans-31" d="M 794 531 
L 1825 531 
L 1825 4091 
L 703 3866 
L 703 4441 
L 1819 4666 
L 2450 4666 
L 2450 531 
L 3481 531 
L 3481 0 
L 794 0 
L 794 531 
z
" transform="scale(0.015625)"/>
       </defs>
       <use xlink:href="#DejaVuSans-32"/>
       <use xlink:href="#DejaVuSans-30" x="63.623047"/>
       <use xlink:href="#DejaVuSans-32" x="127.246094"/>
       <use xlink:href="#DejaVuSans-32" x="190.869141"/>
       <use xlink:href="#DejaVuSans-2d" x="254.492188"/>
       <use xlink:href="#DejaVuSans-30" x="290.576172"/>
       <use xlink:href="#DejaVuSans-31" x="354.199219"/>
       <use xlink:href="#DejaVuSans-2d" x="417.822266"/>
       <use xlink:href="#DejaVuSans-30" x="453.90625"/>
       <use xlink:href="#DejaVuSans-31" x="517.529297"/>
      </g>
     </g>
    </g>
    <g id="xtick_2">
     <g id="line2d_2">
      <g>
       <use xlink:href="#m23ee81858b" x="210.139208" y="320.4" style="stroke: #000000; stroke-width: 0.8"/>
      </g>
     </g>
     <g id="text_2">
      <!-- 2022-01-03 -->
      <g transform="translate(181.081396 334.998438) scale(0.1 -0.1)">
       <defs>
        <path id="DejaVuSans-33" d="M 2597 2516 
Q 3050 2419 3304 2112 
Q 3559 1806 3559 1356 
Q 3559 666 3084 287 
Q 2609 -91 1734 -91 
Q 1441 -91 1130 -33 
Q 819 25 488 141 
L 488 750 
Q 750 597 1062 519 
Q 1375 441 1716 441 
Q 2309 441 2620 675 
Q 2931 909 2931 1356 
Q 2931 1769 2642 2001 
Q 2353 2234 1838 2234 
L 1294 2234 
L 1294 2753 
L 1863 2753 
Q 2328 2753 2575 2939 
Q 2822 3125 2822 3475 
Q 2822 3834 2567 4026 
Q 2313 4219 1838 4219 
Q 1578 4219 1281 4162 
Q 984 4106 628 3988 
L 628 4550 
Q 988 4650 1302 4700 
Q 1616 4750 1894 4750 
Q 2613 4750 3031 4423 
Q 3450 4097 3450 3541 
Q 3450 3153 3228 2886 
Q 3006 2619 2597 2516 
z
" transform="scale(0.015625)"/>
       </defs>
       <use xlink:href="#DejaVuSans-32"/>
       <use xlink:href="#DejaVuSans-30" x="63.623047"/>
       <use xlink:href="#DejaVuSans-32" x="127.246094"/>
       <use xlink:href="#DejaVuSans-32" x="190.869141"/>
       <use xlink:href="#DejaVuSans-2d" x="254.492188"/>
       <use xlink:href="#DejaVuSans-30" x="290.576172"/>
       <use xlink:href="#DejaVuSans-31" x="354.199219"/>
       <use xlink:href="#DejaVuSans-2d" x="417.822266"/>
       <use xlink:href="#DejaVuSans-30" x="453.90625"/>
       <use xlink:href="#DejaVuSans-33" x="517.529297"/>
      </g>
     </g>
    </g>
    <g id="xtick_3">
     <g id="line2d_3">
      <g>
       <use xlink:href="#m23ee81858b" x="281.842052" y="320.4" style="stroke: #000000; stroke-width: 0.8"/>
      </g>
     </g>
     <g id="text_3">
      <!-- 2022-01-05 -->
      <g transform="translate(252.78424 334.998438) scale(0.1 -0.1)">
       <defs>
        <path id="DejaVuSans-35" d="M 691 4666 
L 3169 4666 
L 3169 4134 
L 1269 4134 
L 1269 2991 
Q 1406 3038 1543 3061 
Q 1681 3084 1819 3084 
Q 2600 3084 3056 2656 
Q 3513 2228 3513 1497 
Q 3513 744 3044 326 
Q 2575 -91 1722 -91 
Q 1428 -91 1123 -41 
Q 819 9 494 109 
L 494 744 
Q 775 591 1075 516 
Q 1375 441 1709 441 
Q 2250 441 2565 725 
Q 2881 1009 2881 1497 
Q 2881 1984 2565 2268 
Q 2250 2553 1709 2553 
Q 1456 2553 1204 2497 
Q 953 2441 691 2322 
L 691 4666 
z
" transform="scale(0.015625)"/>
       </defs>
       <use xlink:href="#DejaVuSans-32"/>
       <use xlink:href="#DejaVuSans-30" x="63.623047"/>
       <use xlink:href="#DejaVuSans-32" x="127.246094"/>
       <use xlink:href="#DejaVuSans-32" x="190.869141"/>
       <use xlink:href="#DejaVuSans-2d" x="254.492188"/>
       <use xlink:href="#DejaVuSans-30" x="290.576172"/>
       <use xlink:href="#DejaVuSans-31" x="354.199219"/>
       <use xlink:href="#DejaVuSans-2d" x="417.822266"/>
       <use xlink:href="#DejaVuSans-30" x="453.90625"/>
       <use xlink:href="#DejaVuSans-35" x="517.529297"/>
      </g>
     </g>
    </g>
    <g id="xtick_4">
     <g id="line2d_4">
      <g>
       <use xlink:href="#m23ee81858b" x="353.544897" y="320.4" style="stroke: #000000; stroke-width: 0.8"/>
      </g>
     </g>
     <g id="text_4">
      <!-- 2022-01-07 -->
      <g transform="translate(324.487084 334.998438) scale(0.1 -0.1)">
       <defs>
        <path id="DejaVuSans-37" d="M 525 4666 
L 3525 4666 
L 3525 4397 
L 1831 0 
L 1172 0 
L 2766 4134 
L 525 4134 
L 525 4666 
z
" transform="scale(0.015625)"/>
       </defs>
       <use xlink:href="#DejaVuSans-32"/>
       <use xlink:href="#DejaVuSans-30" x="63.623047"/>
       <use xlink:href="#DejaVuSans-32" x="127.246094"/>
       <use xlink:href="#DejaVuSans-32" x="190.869141"/>
       <use xlink:href="#DejaVuSans-2d" x="254.492188"/>
       <use xlink:href="#DejaVuSans-30" x="290.576172"/>
       <use xlink:href="#DejaVuSans-31" x="354.199219"/>
       <use xlink:href="#DejaVuSans-2d" x="417.822266"/>
       <use xlink:href="#DejaVuSans-30" x="453.90625"/>
       <use xlink:href="#DejaVuSans-37" x="517.529297"/>
      </g>
     </g>
    </g>
    <g id="xtick_5">
     <g id="line2d_5">
      <g>
       <use xlink:href="#m23ee81858b" x="425.247741" y="320.4" style="stroke: #000000; stroke-width: 0.8"/>
      </g>
     </g>
     <g id="text_5">
      <!-- 2022-01-09 -->
      <g transform="translate(396.189929 334.998438) scale(0.1 -0.1)">
       <defs>
        <path id="DejaVuSans-39" d="M 703 97 
L 703 672 
Q 941 559 1184 500 
Q 1428 441 1663 441 
Q 2288 441 2617 861 
Q 2947 1281 2994 2138 
Q 2813 1869 2534 1725 
Q 2256 1581 1919 1581 
Q 1219 1581 811 2004 
Q 403 2428 403 3163 
Q 403 3881 828 4315 
Q 1253 4750 1959 4750 
Q 2769 4750 3195 4129 
Q 3622 3509 3622 2328 
Q 3622 1225 3098 567 
Q 2575 -91 1691 -91 
Q 1453 -91 1209 -44 
Q 966 3 703 97 
z
M 1959 2075 
Q 2384 2075 2632 2365 
Q 2881 2656 2881 3163 
Q 2881 3666 2632 3958 
Q 2384 4250 1959 4250 
Q 1534 4250 1286 3958 
Q 1038 3666 1038 3163 
Q 1038 2656 1286 2365 
Q 1534 2075 1959 2075 
z
" transform="scale(0.015625)"/>
       </defs>
       <use xlink:href="#DejaVuSans-32"/>
       <use xlink:href="#DejaVuSans-30" x="63.623047"/>
       <use xlink:href="#DejaVuSans-32" x="127.246094"/>
       <use xlink:href="#DejaVuSans-32" x="190.869141"/>
       <use xlink:href="#DejaVuSans-2d" x="254.492188"/>
       <use xlink:href="#DejaVuSans-30" x="290.576172"/>
       <use xlink:href="#DejaVuSans-31" x="354.199219"/>
       <use xlink:href="#DejaVuSans-2d" x="417.822266"/>
       <use xlink:href="#DejaVuSans-30" x="453.90625"/>
       <use xlink:href="#DejaVuSans-39" x="517.529297"/>
      </g>
     </g>
    </g>
    <g id="xtick_6">
     <g id="line2d_6">
      <g>
       <use xlink:href="#m23ee81858b" x="496.950586" y="320.4" style="stroke: #000000; stroke-width: 0.8"/>
      </g>
     </g>
     <g id="text_6">
      <!-- 2022-01-11 -->
      <g transform="translate(467.892773 334.998438) scale(0.1 -0.1)">
       <use xlink:href="#DejaVuSans-32"/>
       <use xlink:href="#DejaVuSans-30" x="63.623047"/>
       <use xlink:href="#DejaVuSans-32" x="127.246094"/>
       <use xlink:href="#DejaVuSans-32" x="190.869141"/>
       <use xlink:href="#DejaVuSans-2d" x="254.492188"/>
       <use xlink:href="#DejaVuSans-30" x="290.576172"/>
       <use xlink:href="#DejaVuSans-31" x="354.199219"/>
       <use xlink:href="#DejaVuSans-2d" x="417.822266"/>
       <use xlink:href="#DejaVuSans-31" x="453.90625"/>
       <use xlink:href="#DejaVuSans-31" x="517.529297"/>
      </g>
     </g>
    </g>
    <g id="xtick_7">
     <g id="line2d_7">
      <g>
       <use xlink:href="#m23ee81858b" x="568.65343" y="320.4" style="stroke: #000000; stroke-width: 0.8"/>
      </g>
     </g>
     <g id="text_7">
      <!-- 2022-01-13 -->
      <g transform="translate(539.595618 334.998438) scale(0.1 -0.1)">
       <use xlink:href="#DejaVuSans-32"/>
       <use xlink:href="#DejaVuSans-30" x="63.623047"/>
       <use xlink:href="#DejaVuSans-32" x="127.246094"/>
       <use xlink:href="#DejaVuSans-32" x="190.869141"/>
       <use xlink:href="#DejaVuSans-2d" x="254.492188"/>
       <use xlink:href="#DejaVuSans-30" x="290.576172"/>
       <use xlink:href="#DejaVuSans-31" x="354.199219"/>
       <use xlink:href="#DejaVuSans-2d" x="417.822266"/>
       <use xlink:href="#DejaVuSans-31" x="453.90625"/>
       <use xlink:href="#DejaVuSans-33" x="517.529297"/>
      </g>
     </g>
    </g>
    <g id="xtick_8">
     <g id="line2d_8">
      <g>
       <use xlink:href="#m23ee81858b" x="640.356274" y="320.4" style="stroke: #000000; stroke-width: 0.8"/>
      </g>
     </g>
     <g id="text_8">
      <!-- 2022-01-15 -->
      <g transform="translate(611.298462 334.998438) scale(0.1 -0.1)">
       <use xlink:href="#DejaVuSans-32"/>
       <use xlink:href="#DejaVuSans-30" x="63.623047"/>
       <use xlink:href="#DejaVuSans-32" x="127.246094"/>
       <use xlink:href="#DejaVuSans-32" x="190.869141"/>
       <use xlink:href="#DejaVuSans-2d" x="254.492188"/>
       <use xlink:href="#DejaVuSans-30" x="290.576172"/>
       <use xlink:href="#DejaVuSans-31" x="354.199219"/>
       <use xlink:href="#DejaVuSans-2d" x="417.822266"/>
       <use xlink:href="#DejaVuSans-31" x="453.90625"/>
       <use xlink:href="#DejaVuSans-35" x="517.529297"/>
      </g>
     </g>
    </g>
    <g id="xtick_9">
     <g id="line2d_9">
      <g>
       <use xlink:href="#m23ee81858b" x="712.059119" y="320.4" style="stroke: #000000; stroke-width: 0.8"/>
      </g>
     </g>
     <g id="text_9">
      <!-- 2022-01-17 -->
      <g transform="translate(683.001306 334.998438) scale(0.1 -0.1)">
       <use xlink:href="#DejaVuSans-32"/>
       <use xlink:href="#DejaVuSans-30" x="63.623047"/>
       <use xlink:href="#DejaVuSans-32" x="127.246094"/>
       <use xlink:href="#DejaVuSans-32" x="190.869141"/>
       <use xlink:href="#DejaVuSans-2d" x="254.492188"/>
       <use xlink:href="#DejaVuSans-30" x="290.576172"/>
       <use xlink:href="#DejaVuSans-31" x="354.199219"/>
       <use xlink:href="#DejaVuSans-2d" x="417.822266"/>
       <use xlink:href="#DejaVuSans-31" x="453.90625"/>
       <use xlink:href="#DejaVuSans-37" x="517.529297"/>
      </g>
     </g>
    </g>
    <g id="text_10">
     <!-- TIME (DAYS) -->
     <g transform="translate(412.283594 348.676562) scale(0.1 -0.1)">
      <defs>
       <path id="DejaVuSans-54" d="M -19 4666 
L 3928 4666 
L 3928 4134 
L 2272 4134 
L 2272 0 
L 1638 0 
L 1638 4134 
L -19 4134 
L -19 4666 
z
" transform="scale(0.015625)"/>
       <path id="DejaVuSans-49" d="M 628 4666 
L 1259 4666 
L 1259 0 
L 628 0 
L 628 4666 
z
" transform="scale(0.015625)"/>
       <path id="DejaVuSans-4d" d="M 628 4666 
L 1569 4666 
L 2759 1491 
L 3956 4666 
L 4897 4666 
L 4897 0 
L 4281 0 
L 4281 4097 
L 3078 897 
L 2444 897 
L 1241 4097 
L 1241 0 
L 628 0 
L 628 4666 
z
" transform="scale(0.015625)"/>
       <path id="DejaVuSans-45" d="M 628 4666 
L 3578 4666 
L 3578 4134 
L 1259 4134 
L 1259 2753 
L 3481 2753 
L 3481 2222 
L 1259 2222 
L 1259 531 
L 3634 531 
L 3634 0 
L 628 0 
L 628 4666 
z
" transform="scale(0.015625)"/>
       <path id="DejaVuSans-20" transform="scale(0.015625)"/>
       <path id="DejaVuSans-28" d="M 1984 4856 
Q 1566 4138 1362 3434 
Q 1159 2731 1159 2009 
Q 1159 1288 1364 580 
Q 1569 -128 1984 -844 
L 1484 -844 
Q 1016 -109 783 600 
Q 550 1309 550 2009 
Q 550 2706 781 3412 
Q 1013 4119 1484 4856 
L 1984 4856 
z
" transform="scale(0.015625)"/>
       <path id="DejaVuSans-44" d="M 1259 4147 
L 1259 519 
L 2022 519 
Q 2988 519 3436 956 
Q 3884 1394 3884 2338 
Q 3884 3275 3436 3711 
Q 2988 4147 2022 4147 
L 1259 4147 
z
M 628 4666 
L 1925 4666 
Q 3281 4666 3915 4102 
Q 4550 3538 4550 2338 
Q 4550 1131 3912 565 
Q 3275 0 1925 0 
L 628 0 
L 628 4666 
z
" transform="scale(0.015625)"/>
       <path id="DejaVuSans-41" d="M 2188 4044 
L 1331 1722 
L 3047 1722 
L 2188 4044 
z
M 1831 4666 
L 2547 4666 
L 4325 0 
L 3669 0 
L 3244 1197 
L 1141 1197 
L 716 0 
L 50 0 
L 1831 4666 
z
" transform="scale(0.015625)"/>
       <path id="DejaVuSans-59" d="M -13 4666 
L 666 4666 
L 1959 2747 
L 3244 4666 
L 3922 4666 
L 2272 2222 
L 2272 0 
L 1638 0 
L 1638 2222 
L -13 4666 
z
" transform="scale(0.015625)"/>
       <path id="DejaVuSans-53" d="M 3425 4513 
L 3425 3897 
Q 3066 4069 2747 4153 
Q 2428 4238 2131 4238 
Q 1616 4238 1336 4038 
Q 1056 3838 1056 3469 
Q 1056 3159 1242 3001 
Q 1428 2844 1947 2747 
L 2328 2669 
Q 3034 2534 3370 2195 
Q 3706 1856 3706 1288 
Q 3706 609 3251 259 
Q 2797 -91 1919 -91 
Q 1588 -91 1214 -16 
Q 841 59 441 206 
L 441 856 
Q 825 641 1194 531 
Q 1563 422 1919 422 
Q 2459 422 2753 634 
Q 3047 847 3047 1241 
Q 3047 1584 2836 1778 
Q 2625 1972 2144 2069 
L 1759 2144 
Q 1053 2284 737 2584 
Q 422 2884 422 3419 
Q 422 4038 858 4394 
Q 1294 4750 2059 4750 
Q 2388 4750 2728 4690 
Q 3069 4631 3425 4513 
z
" transform="scale(0.015625)"/>
       <path id="DejaVuSans-29" d="M 513 4856 
L 1013 4856 
Q 1481 4119 1714 3412 
Q 1947 2706 1947 2009 
Q 1947 1309 1714 600 
Q 1481 -109 1013 -844 
L 513 -844 
Q 928 -128 1133 580 
Q 1338 1288 1338 2009 
Q 1338 2731 1133 3434 
Q 928 4138 513 4856 
z
" transform="scale(0.015625)"/>
      </defs>
      <use xlink:href="#DejaVuSans-54"/>
      <use xlink:href="#DejaVuSans-49" x="61.083984"/>
      <use xlink:href="#DejaVuSans-4d" x="90.576172"/>
      <use xlink:href="#DejaVuSans-45" x="176.855469"/>
      <use xlink:href="#DejaVuSans-20" x="240.039062"/>
      <use xlink:href="#DejaVuSans-28" x="271.826172"/>
      <use xlink:href="#DejaVuSans-44" x="310.839844"/>
      <use xlink:href="#DejaVuSans-41" x="386.091797"/>
      <use xlink:href="#DejaVuSans-59" x="446.75"/>
      <use xlink:href="#DejaVuSans-53" x="507.833984"/>
      <use xlink:href="#DejaVuSans-29" x="571.310547"/>
     </g>
    </g>
   </g>
   <g id="matplotlib.axis_2">
    <g id="ytick_1">
     <g id="line2d_10">
      <defs>
       <path id="m225a6ed483" d="M 0 0 
L -3.5 0 
" style="stroke: #000000; stroke-width: 0.8"/>
      </defs>
      <g>
       <use xlink:href="#m225a6ed483" x="108" y="307.8" style="stroke: #000000; stroke-width: 0.8"/>
      </g>
     </g>
     <g id="text_11">
      <!-- 0 -->
      <g transform="translate(94.6375 311.599219) scale(0.1 -0.1)">
       <use xlink:href="#DejaVuSans-30"/>
      </g>
     </g>
    </g>
    <g id="ytick_2">
     <g id="line2d_11">
      <g>
       <use xlink:href="#m225a6ed483" x="108" y="257.19759" style="stroke: #000000; stroke-width: 0.8"/>
      </g>
     </g>
     <g id="text_12">
      <!-- 50 -->
      <g transform="translate(88.275 260.996809) scale(0.1 -0.1)">
       <use xlink:href="#DejaVuSans-35"/>
       <use xlink:href="#DejaVuSans-30" x="63.623047"/>
      </g>
     </g>
    </g>
    <g id="ytick_3">
     <g id="line2d_12">
      <g>
       <use xlink:href="#m225a6ed483" x="108" y="206.595181" style="stroke: #000000; stroke-width: 0.8"/>
      </g>
     </g>
     <g id="text_13">
      <!-- 100 -->
      <g transform="translate(81.9125 210.394399) scale(0.1 -0.1)">
       <use xlink:href="#DejaVuSans-31"/>
       <use xlink:href="#DejaVuSans-30" x="63.623047"/>
       <use xlink:href="#DejaVuSans-30" x="127.246094"/>
      </g>
     </g>
    </g>
    <g id="ytick_4">
     <g id="line2d_13">
      <g>
       <use xlink:href="#m225a6ed483" x="108" y="155.992771" style="stroke: #000000; stroke-width: 0.8"/>
      </g>
     </g>
     <g id="text_14">
      <!-- 150 -->
      <g transform="translate(81.9125 159.79199) scale(0.1 -0.1)">
       <use xlink:href="#DejaVuSans-31"/>
       <use xlink:href="#DejaVuSans-35" x="63.623047"/>
       <use xlink:href="#DejaVuSans-30" x="127.246094"/>
      </g>
     </g>
    </g>
    <g id="ytick_5">
     <g id="line2d_14">
      <g>
       <use xlink:href="#m225a6ed483" x="108" y="105.390361" style="stroke: #000000; stroke-width: 0.8"/>
      </g>
     </g>
     <g id="text_15">
      <!-- 200 -->
      <g transform="translate(81.9125 109.18958) scale(0.1 -0.1)">
       <use xlink:href="#DejaVuSans-32"/>
       <use xlink:href="#DejaVuSans-30" x="63.623047"/>
       <use xlink:href="#DejaVuSans-30" x="127.246094"/>
      </g>
     </g>
    </g>
    <g id="ytick_6">
     <g id="line2d_15">
      <g>
       <use xlink:href="#m225a6ed483" x="108" y="54.787952" style="stroke: #000000; stroke-width: 0.8"/>
      </g>
     </g>
     <g id="text_16">
      <!-- 250 -->
      <g transform="translate(81.9125 58.587171) scale(0.1 -0.1)">
       <use xlink:href="#DejaVuSans-32"/>
       <use xlink:href="#DejaVuSans-35" x="63.623047"/>
       <use xlink:href="#DejaVuSans-30" x="127.246094"/>
      </g>
     </g>
    </g>
    <g id="text_17">
     <!-- AMPLITUDE -->
     <g transform="translate(75.832812 210.532812) rotate(-90) scale(0.1 -0.1)">
      <defs>
       <path id="DejaVuSans-50" d="M 1259 4147 
L 1259 2394 
L 2053 2394 
Q 2494 2394 2734 2622 
Q 2975 2850 2975 3272 
Q 2975 3691 2734 3919 
Q 2494 4147 2053 4147 
L 1259 4147 
z
M 628 4666 
L 2053 4666 
Q 2838 4666 3239 4311 
Q 3641 3956 3641 3272 
Q 3641 2581 3239 2228 
Q 2838 1875 2053 1875 
L 1259 1875 
L 1259 0 
L 628 0 
L 628 4666 
z
" transform="scale(0.015625)"/>
       <path id="DejaVuSans-4c" d="M 628 4666 
L 1259 4666 
L 1259 531 
L 3531 531 
L 3531 0 
L 628 0 
L 628 4666 
z
" transform="scale(0.015625)"/>
       <path id="DejaVuSans-55" d="M 556 4666 
L 1191 4666 
L 1191 1831 
Q 1191 1081 1462 751 
Q 1734 422 2344 422 
Q 2950 422 3222 751 
Q 3494 1081 3494 1831 
L 3494 4666 
L 4128 4666 
L 4128 1753 
Q 4128 841 3676 375 
Q 3225 -91 2344 -91 
Q 1459 -91 1007 375 
Q 556 841 556 1753 
L 556 4666 
z
" transform="scale(0.015625)"/>
      </defs>
      <use xlink:href="#DejaVuSans-41"/>
      <use xlink:href="#DejaVuSans-4d" x="68.408203"/>
      <use xlink:href="#DejaVuSans-50" x="154.6875"/>
      <use xlink:href="#DejaVuSans-4c" x="214.990234"/>
      <use xlink:href="#DejaVuSans-49" x="270.703125"/>
      <use xlink:href="#DejaVuSans-54" x="300.195312"/>
      <use xlink:href="#DejaVuSans-55" x="361.279297"/>
      <use xlink:href="#DejaVuSans-44" x="434.472656"/>
      <use xlink:href="#DejaVuSans-45" x="511.474609"/>
     </g>
    </g>
   </g>
   <g id="line2d_16">
    <path d="M 138.436364 251.125301 
L 139.183268 299.703614 
L 139.930173 257.19759 
L 140.677078 229.872289 
L 141.423982 307.8 
L 142.917791 307.8 
L 143.664696 219.751807 
L 144.411601 307.8 
L 145.158505 228.860241 
L 145.90541 307.8 
L 148.146124 307.8 
L 148.893028 295.655422 
L 149.639933 307.8 
L 150.386838 299.703614 
L 151.133742 307.8 
L 151.880647 285.53494 
L 152.627552 238.980723 
L 153.374456 307.8 
L 154.121361 212.66747 
L 154.868265 284.522892 
L 155.61517 269.342169 
L 156.362075 307.8 
L 157.108979 175.221687 
L 157.855884 222.787952 
L 158.602789 292.619277 
L 159.349693 252.137349 
L 160.096598 297.679518 
L 160.843503 244.040964 
L 161.590407 102.354217 
L 162.337312 193.438554 
L 163.084216 180.281928 
L 163.831121 229.872289 
L 164.578026 208.619277 
L 165.32493 179.26988 
L 166.071835 279.462651 
L 166.81874 135.751807 
L 167.565644 205.583133 
L 168.312549 201.53494 
L 169.059453 260.233735 
L 169.806358 267.318072 
L 170.553263 147.896386 
L 172.047072 275.414458 
L 172.793977 217.727711 
L 173.540881 299.703614 
L 174.287786 204.571084 
L 175.03469 276.426506 
L 175.781595 307.8 
L 176.5285 278.450602 
L 177.275404 180.281928 
L 178.022309 307.8 
L 181.009927 307.8 
L 181.756832 252.137349 
L 182.503737 307.8 
L 183.250641 296.66747 
L 183.997546 221.775904 
L 184.744451 281.486747 
L 185.491355 307.8 
L 186.23826 267.318072 
L 186.985165 264.281928 
L 187.732069 307.8 
L 188.478974 283.510843 
L 189.225878 307.8 
L 189.972783 175.221687 
L 190.719688 307.8 
L 191.466592 185.342169 
L 192.213497 152.956627 
L 192.960402 307.8 
L 193.707306 247.077108 
L 194.454211 99.318072 
L 195.201115 222.787952 
L 195.94802 185.342169 
L 197.441829 307.8 
L 198.188734 289.583133 
L 198.935639 288.571084 
L 199.682543 190.40241 
L 200.429448 221.775904 
L 201.176352 246.06506 
L 201.923257 262.257831 
L 202.670162 228.860241 
L 203.417066 201.53494 
L 204.163971 229.872289 
L 204.910876 184.33012 
L 205.65778 284.522892 
L 206.404685 307.8 
L 207.15159 242.016867 
L 207.898494 255.173494 
L 208.645399 229.872289 
L 209.392303 299.703614 
L 210.139208 188.378313 
L 211.633017 261.245783 
L 212.379922 307.8 
L 213.873731 307.8 
L 214.620636 227.848193 
L 215.36754 241.004819 
L 216.114445 242.016867 
L 216.86135 307.8 
L 218.355159 307.8 
L 219.102064 279.462651 
L 219.848968 307.8 
L 220.595873 246.06506 
L 221.342777 307.8 
L 222.089682 307.8 
L 222.836587 244.040964 
L 223.583491 190.40241 
L 224.330396 250.113253 
L 225.077301 198.498795 
L 225.824205 174.209639 
L 226.57111 299.703614 
L 227.318015 221.775904 
L 228.064919 266.306024 
L 228.811824 159.028916 
L 229.558728 158.016867 
L 230.305633 299.703614 
L 231.052538 177.245783 
L 231.799442 203.559036 
L 232.546347 146.884337 
L 233.293252 145.872289 
L 234.040156 258.209639 
L 234.787061 199.510843 
L 235.533965 299.703614 
L 236.28087 103.366265 
L 237.027775 200.522892 
L 237.774679 203.559036 
L 238.521584 193.438554 
L 239.268489 226.836145 
L 240.015393 248.089157 
L 240.762298 289.583133 
L 241.509202 263.26988 
L 242.256107 203.559036 
L 243.003012 307.8 
L 243.749916 277.438554 
L 244.496821 256.185542 
L 245.99063 307.8 
L 246.737535 204.571084 
L 247.484439 217.727711 
L 248.978249 277.438554 
L 249.725153 277.438554 
L 250.472058 307.8 
L 251.218963 224.812048 
L 251.965867 298.691566 
L 252.712772 307.8 
L 253.459677 307.8 
L 254.206581 222.787952 
L 254.953486 203.559036 
L 255.70039 307.8 
L 257.1942 307.8 
L 257.941104 264.281928 
L 258.688009 263.26988 
L 259.434914 307.8 
L 260.181818 307.8 
L 260.928723 237.968675 
L 261.675627 201.53494 
L 262.422532 203.559036 
L 263.169437 260.233735 
L 263.916341 224.812048 
L 264.663246 307.8 
L 265.410151 121.583133 
L 266.157055 186.354217 
L 266.90396 193.438554 
L 267.650864 276.426506 
L 268.397769 135.751807 
L 269.144674 270.354217 
L 269.891578 166.113253 
L 270.638483 176.233735 
L 271.385388 135.751807 
L 272.132292 278.450602 
L 272.879197 249.101205 
L 273.626102 67.944578 
L 274.373006 226.836145 
L 275.119911 284.522892 
L 275.866815 273.390361 
L 276.61372 271.366265 
L 277.360625 163.077108 
L 278.107529 204.571084 
L 278.854434 307.8 
L 279.601339 293.631325 
L 280.348243 248.089157 
L 281.095148 303.751807 
L 281.842052 266.306024 
L 282.588957 307.8 
L 283.335862 303.751807 
L 284.082766 281.486747 
L 284.829671 279.462651 
L 285.576576 307.8 
L 286.32348 210.643373 
L 287.070385 307.8 
L 287.817289 307.8 
L 288.564194 290.595181 
L 289.311099 307.8 
L 290.058003 176.233735 
L 290.804908 307.8 
L 291.551813 270.354217 
L 292.298717 307.8 
L 293.045622 262.257831 
L 293.792526 307.8 
L 294.539431 307.8 
L 295.286336 192.426506 
L 296.03324 245.053012 
L 296.780145 216.715663 
L 297.52705 279.462651 
L 298.273954 157.004819 
L 299.020859 266.306024 
L 299.767764 232.908434 
L 300.514668 254.161446 
L 301.261573 256.185542 
L 302.008477 205.583133 
L 302.755382 192.426506 
L 303.502287 206.595181 
L 304.249191 160.040964 
L 304.996096 102.354217 
L 305.743001 252.137349 
L 306.489905 227.848193 
L 307.23681 196.474699 
L 307.983714 136.763855 
L 308.730619 263.26988 
L 309.477524 173.19759 
L 310.224428 247.077108 
L 310.971333 270.354217 
L 311.718238 188.378313 
L 312.465142 239.992771 
L 313.212047 183.318072 
L 313.958951 237.968675 
L 314.705856 281.486747 
L 315.452761 279.462651 
L 316.199665 235.944578 
L 316.94657 167.125301 
L 317.693475 307.8 
L 318.440379 307.8 
L 319.187284 212.66747 
L 319.934189 307.8 
L 320.681093 203.559036 
L 321.427998 272.378313 
L 322.174902 191.414458 
L 322.921807 307.8 
L 323.668712 236.956627 
L 324.415616 307.8 
L 325.162521 302.739759 
L 325.909426 258.209639 
L 326.65633 305.775904 
L 327.403235 243.028916 
L 328.150139 218.739759 
L 328.897044 256.185542 
L 329.643949 241.004819 
L 330.390853 253.149398 
L 331.137758 248.089157 
L 331.884663 307.8 
L 332.631567 128.66747 
L 333.378472 108.426506 
L 334.125376 223.8 
L 334.872281 242.016867 
L 335.619186 206.595181 
L 337.112995 103.366265 
L 337.8599 166.113253 
L 338.606804 140.812048 
L 339.353709 244.040964 
L 340.100613 166.113253 
L 340.847518 267.318072 
L 341.594423 182.306024 
L 342.341327 261.245783 
L 343.088232 179.26988 
L 343.835137 250.113253 
L 344.582041 218.739759 
L 345.328946 228.860241 
L 346.075851 166.113253 
L 346.822755 140.812048 
L 347.56966 171.173494 
L 348.316564 307.8 
L 349.063469 298.691566 
L 349.810374 225.824096 
L 350.557278 226.836145 
L 351.304183 289.583133 
L 352.051088 180.281928 
L 352.797992 307.8 
L 353.544897 307.8 
L 354.291801 253.149398 
L 355.038706 302.739759 
L 355.785611 274.40241 
L 356.532515 307.8 
L 357.27942 292.619277 
L 358.026325 307.8 
L 358.773229 179.26988 
L 359.520134 307.8 
L 361.013943 307.8 
L 361.760848 238.980723 
L 362.507752 267.318072 
L 363.254657 229.872289 
L 364.001562 304.763855 
L 364.748466 199.510843 
L 365.495371 231.896386 
L 366.242276 242.016867 
L 366.98918 210.643373 
L 367.736085 253.149398 
L 368.482989 202.546988 
L 369.229894 201.53494 
L 369.976799 226.836145 
L 370.723703 244.040964 
L 371.470608 226.836145 
L 372.217513 200.522892 
L 372.964417 227.848193 
L 373.711322 158.016867 
L 374.458226 99.318072 
L 375.205131 208.619277 
L 375.952036 215.703614 
L 376.69894 191.414458 
L 377.445845 206.595181 
L 378.19275 239.992771 
L 378.939654 206.595181 
L 379.686559 198.498795 
L 380.433463 247.077108 
L 381.180368 307.8 
L 381.927273 284.522892 
L 382.674177 220.763855 
L 383.421082 209.631325 
L 384.167987 212.66747 
L 384.914891 254.161446 
L 385.661796 249.101205 
L 386.408701 307.8 
L 387.155605 307.8 
L 387.90251 282.498795 
L 388.649414 248.089157 
L 389.396319 289.583133 
L 390.143224 307.8 
L 390.890128 277.438554 
L 391.637033 302.739759 
L 392.383938 307.8 
L 393.130842 287.559036 
L 393.877747 292.619277 
L 394.624651 172.185542 
L 395.371556 199.510843 
L 396.118461 307.8 
L 396.865365 304.763855 
L 397.61227 307.8 
L 398.359175 307.8 
L 399.106079 242.016867 
L 399.852984 307.8 
L 400.599888 290.595181 
L 401.346793 235.944578 
L 402.093698 206.595181 
L 402.840602 269.342169 
L 403.587507 293.631325 
L 404.334412 170.161446 
L 405.828221 209.631325 
L 406.575125 288.571084 
L 407.32203 213.679518 
L 408.068935 285.53494 
L 408.815839 190.40241 
L 409.562744 307.8 
L 411.056553 121.583133 
L 411.803458 137.775904 
L 412.550363 229.872289 
L 413.297267 189.390361 
L 414.044172 266.306024 
L 414.791076 192.426506 
L 415.537981 281.486747 
L 416.284886 307.8 
L 417.03179 186.354217 
L 417.778695 254.161446 
L 418.5256 286.546988 
L 419.272504 299.703614 
L 420.766313 200.522892 
L 421.513218 307.8 
L 422.260123 256.185542 
L 423.007027 248.089157 
L 423.753932 252.137349 
L 424.500837 307.8 
L 425.247741 291.607229 
L 425.994646 293.631325 
L 426.74155 300.715663 
L 427.488455 224.812048 
L 428.23536 259.221687 
L 428.982264 258.209639 
L 429.729169 141.824096 
L 430.476074 303.751807 
L 431.222978 288.571084 
L 431.969883 236.956627 
L 432.716788 249.101205 
L 433.463692 191.414458 
L 434.210597 304.763855 
L 434.957501 234.93253 
L 435.704406 275.414458 
L 436.451311 300.715663 
L 437.198215 211.655422 
L 437.94512 191.414458 
L 438.692025 252.137349 
L 439.438929 230.884337 
L 440.185834 236.956627 
L 440.932738 83.125301 
L 441.679643 239.992771 
L 442.426548 267.318072 
L 443.173452 93.245783 
L 443.920357 269.342169 
L 444.667262 237.968675 
L 445.414166 184.33012 
L 446.161071 175.221687 
L 446.907975 175.221687 
L 447.65488 306.787952 
L 448.401785 167.125301 
L 449.148689 203.559036 
L 449.895594 231.896386 
L 450.642499 162.06506 
L 451.389403 264.281928 
L 452.136308 202.546988 
L 452.883212 267.318072 
L 453.630117 171.173494 
L 454.377022 307.8 
L 455.123926 245.053012 
L 455.870831 253.149398 
L 456.617736 276.426506 
L 457.36464 287.559036 
L 458.111545 307.8 
L 458.85845 253.149398 
L 459.605354 259.221687 
L 460.352259 307.8 
L 462.592973 307.8 
L 463.339877 300.715663 
L 464.086782 307.8 
L 464.833687 307.8 
L 465.580591 254.161446 
L 466.327496 307.8 
L 467.0744 285.53494 
L 467.821305 232.908434 
L 468.56821 307.8 
L 469.315114 271.366265 
L 470.062019 253.149398 
L 470.808924 207.607229 
L 471.555828 247.077108 
L 472.302733 153.968675 
L 473.049637 260.233735 
L 473.796542 224.812048 
L 474.543447 228.860241 
L 475.290351 227.848193 
L 476.037256 222.787952 
L 476.784161 205.583133 
L 477.531065 222.787952 
L 478.27797 211.655422 
L 479.024875 227.848193 
L 479.771779 233.920482 
L 480.518684 80.089157 
L 481.265588 227.848193 
L 482.012493 284.522892 
L 482.759398 216.715663 
L 483.506302 210.643373 
L 484.253207 174.209639 
L 485.000112 232.908434 
L 485.747016 262.257831 
L 486.493921 204.571084 
L 487.240825 220.763855 
L 487.98773 279.462651 
L 488.734635 307.8 
L 489.481539 297.679518 
L 490.228444 258.209639 
L 490.975349 307.8 
L 491.722253 246.06506 
L 492.469158 307.8 
L 493.216062 285.53494 
L 493.962967 291.607229 
L 494.709872 307.8 
L 495.456776 231.896386 
L 496.203681 307.8 
L 496.950586 270.354217 
L 497.69749 307.8 
L 498.444395 307.8 
L 499.191299 305.775904 
L 499.938204 307.8 
L 500.685109 241.004819 
L 501.432013 307.8 
L 502.178918 191.414458 
L 502.925823 225.824096 
L 504.419632 243.028916 
L 505.166537 247.077108 
L 505.913441 239.992771 
L 506.660346 171.173494 
L 507.40725 264.281928 
L 508.154155 274.40241 
L 508.90106 184.33012 
L 509.647964 217.727711 
L 510.394869 178.257831 
L 511.141774 263.26988 
L 511.888678 155.992771 
L 512.635583 177.245783 
L 513.382487 178.257831 
L 514.129392 220.763855 
L 514.876297 55.8 
L 515.623201 279.462651 
L 516.370106 159.028916 
L 517.117011 265.293976 
L 517.863915 275.414458 
L 518.61082 303.751807 
L 519.357724 218.739759 
L 520.104629 233.920482 
L 520.851534 276.426506 
L 521.598438 307.8 
L 522.345343 216.715663 
L 523.092248 300.715663 
L 523.839152 215.703614 
L 525.332962 252.137349 
L 526.079866 218.739759 
L 526.826771 268.33012 
L 527.573675 307.8 
L 528.32058 268.33012 
L 529.067485 267.318072 
L 529.814389 272.378313 
L 530.561294 245.053012 
L 531.308199 307.8 
L 532.055103 307.8 
L 532.802008 242.016867 
L 533.548912 291.607229 
L 534.295817 251.125301 
L 535.042722 294.643373 
L 535.789626 279.462651 
L 536.536531 281.486747 
L 537.283436 244.040964 
L 538.03034 307.8 
L 538.777245 157.004819 
L 539.524149 185.342169 
L 540.271054 250.113253 
L 541.017959 206.595181 
L 541.764863 275.414458 
L 542.511768 121.583133 
L 543.258673 232.908434 
L 544.005577 195.462651 
L 544.752482 124.619277 
L 545.499387 160.040964 
L 546.246291 205.583133 
L 546.993196 242.016867 
L 547.7401 232.908434 
L 548.487005 184.33012 
L 549.23391 198.498795 
L 549.980814 234.93253 
L 550.727719 203.559036 
L 552.221528 186.354217 
L 552.968433 248.089157 
L 553.715337 273.390361 
L 554.462242 165.101205 
L 555.209147 200.522892 
L 555.956051 181.293976 
L 556.702956 305.775904 
L 557.449861 243.028916 
L 558.196765 216.715663 
L 558.94367 305.775904 
L 559.690574 233.920482 
L 561.184384 260.233735 
L 561.931288 307.8 
L 562.678193 307.8 
L 563.425098 273.390361 
L 564.172002 232.908434 
L 564.918907 268.33012 
L 565.665811 236.956627 
L 566.412716 307.8 
L 567.906525 307.8 
L 568.65343 290.595181 
L 569.400335 307.8 
L 570.147239 225.824096 
L 570.894144 285.53494 
L 571.641049 187.366265 
L 572.387953 261.245783 
L 573.134858 221.775904 
L 573.881762 248.089157 
L 574.628667 287.559036 
L 575.375572 265.293976 
L 576.122476 255.173494 
L 576.869381 235.944578 
L 577.616286 252.137349 
L 578.36319 265.293976 
L 579.110095 173.19759 
L 579.856999 191.414458 
L 580.603904 206.595181 
L 581.350809 265.293976 
L 582.097713 270.354217 
L 582.844618 208.619277 
L 583.591523 191.414458 
L 584.338427 155.992771 
L 585.085332 182.306024 
L 585.832236 273.390361 
L 586.579141 219.751807 
L 587.326046 243.028916 
L 588.07295 307.8 
L 588.819855 307.8 
L 589.56676 224.812048 
L 590.313664 222.787952 
L 591.060569 213.679518 
L 591.807474 307.8 
L 592.554378 247.077108 
L 593.301283 255.173494 
L 594.048187 220.763855 
L 594.795092 306.787952 
L 595.541997 243.028916 
L 596.288901 300.715663 
L 597.035806 307.8 
L 597.782711 265.293976 
L 598.529615 291.607229 
L 599.27652 307.8 
L 600.770329 307.8 
L 601.517234 260.233735 
L 602.264138 285.53494 
L 603.011043 256.185542 
L 603.757948 153.968675 
L 604.504852 268.33012 
L 605.251757 234.93253 
L 605.998661 214.691566 
L 606.745566 307.8 
L 607.492471 172.185542 
L 608.239375 287.559036 
L 608.98628 291.607229 
L 609.733185 307.8 
L 610.480089 173.19759 
L 611.226994 88.185542 
L 611.973898 132.715663 
L 612.720803 97.293976 
L 613.467708 284.522892 
L 614.214612 307.8 
L 614.961517 227.848193 
L 615.708422 277.438554 
L 616.455326 307.8 
L 617.202231 280.474699 
L 617.949136 181.293976 
L 618.69604 272.378313 
L 619.442945 251.125301 
L 620.189849 161.053012 
L 620.936754 178.257831 
L 621.683659 219.751807 
L 622.430563 279.462651 
L 623.177468 260.233735 
L 623.924373 307.8 
L 624.671277 231.896386 
L 625.418182 307.8 
L 626.165086 179.26988 
L 626.911991 283.510843 
L 627.658896 259.221687 
L 628.4058 262.257831 
L 629.152705 302.739759 
L 629.89961 307.8 
L 632.140323 307.8 
L 632.887228 251.125301 
L 633.634133 307.8 
L 634.381037 307.8 
L 635.127942 236.956627 
L 635.874847 268.33012 
L 636.621751 307.8 
L 637.368656 200.522892 
L 638.115561 268.33012 
L 638.862465 307.8 
L 639.60937 287.559036 
L 640.356274 307.8 
L 641.850084 307.8 
L 642.596988 277.438554 
L 643.343893 218.739759 
L 644.090798 150.93253 
L 644.837702 177.245783 
L 645.584607 307.8 
L 646.331511 265.293976 
L 647.078416 188.378313 
L 647.825321 135.751807 
L 648.572225 277.438554 
L 649.31913 75.028916 
L 650.066035 187.366265 
L 650.812939 167.125301 
L 651.559844 208.619277 
L 652.306748 237.968675 
L 653.053653 145.872289 
L 653.800558 223.8 
L 654.547462 187.366265 
L 655.294367 216.715663 
L 656.041272 251.125301 
L 656.788176 278.450602 
L 657.535081 283.510843 
L 658.281985 307.8 
L 659.02889 266.306024 
L 659.775795 281.486747 
L 660.522699 307.8 
L 661.269604 251.125301 
L 662.016509 269.342169 
L 662.763413 224.812048 
L 663.510318 218.739759 
L 664.257223 297.679518 
L 665.004127 307.8 
L 670.23246 307.8 
L 670.979364 210.643373 
L 671.726269 307.8 
L 672.473173 250.113253 
L 673.220078 307.8 
L 673.966983 307.8 
L 674.713887 239.992771 
L 675.460792 182.306024 
L 676.207697 149.920482 
L 676.954601 259.221687 
L 677.701506 196.474699 
L 678.44841 290.595181 
L 679.195315 224.812048 
L 679.94222 271.366265 
L 680.689124 212.66747 
L 681.436029 250.113253 
L 682.182934 218.739759 
L 682.929838 195.462651 
L 683.676743 263.26988 
L 684.423648 305.775904 
L 685.170552 143.848193 
L 685.917457 227.848193 
L 686.664361 135.751807 
L 687.411266 267.318072 
L 688.158171 207.607229 
L 688.905075 174.209639 
L 689.65198 297.679518 
L 690.398885 155.992771 
L 691.145789 136.763855 
L 691.892694 284.522892 
L 692.639598 241.004819 
L 693.386503 241.004819 
L 694.133408 226.836145 
L 694.880312 305.775904 
L 695.627217 279.462651 
L 696.374122 280.474699 
L 697.121026 307.8 
L 698.614835 307.8 
L 699.36174 294.643373 
L 700.108645 307.8 
L 700.855549 303.751807 
L 701.602454 307.8 
L 702.349359 295.655422 
L 703.096263 285.53494 
L 703.843168 307.8 
L 704.590073 307.8 
L 705.336977 274.40241 
L 706.083882 247.077108 
L 707.577691 307.8 
L 708.324596 269.342169 
L 709.0715 283.510843 
L 709.818405 307.8 
L 710.56531 258.209639 
L 711.312214 153.968675 
L 712.059119 237.968675 
L 712.806023 183.318072 
L 713.552928 167.125301 
L 714.299833 267.318072 
L 715.793642 132.715663 
L 716.540547 212.66747 
L 717.287451 203.559036 
L 718.034356 270.354217 
L 718.78126 196.474699 
L 719.528165 108.426506 
L 720.27507 272.378313 
L 721.021974 256.185542 
L 721.768879 140.812048 
L 722.515784 182.306024 
L 723.262688 251.125301 
L 724.009593 294.643373 
L 724.756497 197.486747 
L 725.503402 307.8 
L 726.250307 307.8 
L 726.997211 272.378313 
L 727.744116 280.474699 
L 728.491021 123.607229 
L 729.237925 272.378313 
L 729.98483 292.619277 
L 730.731735 296.66747 
L 731.478639 307.8 
L 732.225544 307.8 
L 732.972448 278.450602 
L 733.719353 290.595181 
L 734.466258 197.486747 
L 735.213162 196.474699 
L 735.960067 250.113253 
L 736.706972 276.426506 
L 737.453876 307.8 
L 738.200781 307.8 
L 738.947685 304.763855 
L 739.69459 305.775904 
L 740.441495 307.8 
L 741.188399 307.8 
L 741.935304 292.619277 
L 742.682209 227.848193 
L 743.429113 206.595181 
L 744.176018 222.787952 
L 744.922922 250.113253 
L 745.669827 298.691566 
L 746.416732 237.968675 
L 747.163636 144.860241 
L 747.163636 144.860241 
" clip-path="url(#peebde85e94)" style="fill: none; stroke: #191970; stroke-width: 2; stroke-linecap: square"/>
   </g>
   <g id="patch_3">
    <path d="M 108 320.4 
L 108 43.2 
" style="fill: none; stroke: #000000; stroke-width: 0.8; stroke-linejoin: miter; stroke-linecap: square"/>
   </g>
   <g id="patch_4">
    <path d="M 777.6 320.4 
L 777.6 43.2 
" style="fill: none; stroke: #000000; stroke-width: 0.8; stroke-linejoin: miter; stroke-linecap: square"/>
   </g>
   <g id="patch_5">
    <path d="M 108 320.4 
L 777.6 320.4 
" style="fill: none; stroke: #000000; stroke-width: 0.8; stroke-linejoin: miter; stroke-linecap: square"/>
   </g>
   <g id="patch_6">
    <path d="M 108 43.2 
L 777.6 43.2 
" style="fill: none; stroke: #000000; stroke-width: 0.8; stroke-linejoin: miter; stroke-linecap: square"/>
   </g>
   <g id="text_18">
    <!-- TIME SERIES -->
    <g transform="translate(405.350625 37.2) scale(0.12 -0.12)">
     <defs>
      <path id="DejaVuSans-52" d="M 2841 2188 
Q 3044 2119 3236 1894 
Q 3428 1669 3622 1275 
L 4263 0 
L 3584 0 
L 2988 1197 
Q 2756 1666 2539 1819 
Q 2322 1972 1947 1972 
L 1259 1972 
L 1259 0 
L 628 0 
L 628 4666 
L 2053 4666 
Q 2853 4666 3247 4331 
Q 3641 3997 3641 3322 
Q 3641 2881 3436 2590 
Q 3231 2300 2841 2188 
z
M 1259 4147 
L 1259 2491 
L 2053 2491 
Q 2509 2491 2742 2702 
Q 2975 2913 2975 3322 
Q 2975 3731 2742 3939 
Q 2509 4147 2053 4147 
L 1259 4147 
z
" transform="scale(0.015625)"/>
     </defs>
     <use xlink:href="#DejaVuSans-54"/>
     <use xlink:href="#DejaVuSans-49" x="61.083984"/>
     <use xlink:href="#DejaVuSans-4d" x="90.576172"/>
     <use xlink:href="#DejaVuSans-45" x="176.855469"/>
     <use xlink:href="#DejaVuSans-20" x="240.039062"/>
     <use xlink:href="#DejaVuSans-53" x="271.826172"/>
     <use xlink:href="#DejaVuSans-45" x="335.302734"/>
     <use xlink:href="#DejaVuSans-52" x="398.486328"/>
     <use xlink:href="#DejaVuSans-49" x="467.96875"/>
     <use xlink:href="#DejaVuSans-45" x="497.460938"/>
     <use xlink:href="#DejaVuSans-53" x="560.644531"/>
    </g>
   </g>
  </g>
 </g>
 <defs>
  <clipPath id="peebde85e94">
   <rect x="108" y="43.2" width="669.6" height="277.2"/>
  </clipPath>
 </defs>
</svg>
