<?xml version="1.0" encoding="utf-8" standalone="no"?>
<!DOCTYPE svg PUBLIC "-//W3C//DTD SVG 1.1//EN"
  "http://www.w3.org/Graphics/SVG/1.1/DTD/svg11.dtd">
<svg xmlns:xlink="http://www.w3.org/1999/xlink" width="864pt" height="360pt" viewBox="0 0 864 360" xmlns="http://www.w3.org/2000/svg" version="1.1">
 <metadata>
  <rdf:RDF xmlns:dc="http://purl.org/dc/elements/1.1/" xmlns:cc="http://creativecommons.org/ns#" xmlns:rdf="http://www.w3.org/1999/02/22-rdf-syntax-ns#">
   <cc:Work>
    <dc:type rdf:resource="http://purl.org/dc/dcmitype/StillImage"/>
    <dc:date>2023-11-27T20:48:17.650967</dc:date>
    <dc:format>image/svg+xml</dc:format>
    <dc:creator>
     <cc:Agent>
      <dc:title>Matplotlib v3.7.4, https://matplotlib.org/</dc:title>
     </cc:Agent>
    </dc:creator>
   </cc:Work>
  </rdf:RDF>
 </metadata>
 <defs>
  <style type="text/css">*{stroke-linejoin: round; stroke-linecap: butt}</style>
 </defs>
 <g id="figure_1">
  <g id="patch_1">
   <path d="M 0 360 
L 864 360 
L 864 0 
L 0 0 
z
" style="fill: #ffffff"/>
  </g>
  <g id="axes_1">
   <g id="patch_2">
    <path d="M 108 320.4 
L 777.6 320.4 
L 777.6 43.2 
L 108 43.2 
z
" style="fill: #ffffff"/>
   </g>
   <g id="matplotlib.axis_1">
    <g id="xtick_1">
     <g id="line2d_1">
      <defs>
       <path id="mb87e1d980c" d="M 0 0 
L 0 3.5 
" style="stroke: #000000; stroke-width: 0.8"/>
      </defs>
      <g>
       <use xlink:href="#mb87e1d980c" x="138.436364" y="320.4" style="stroke: #000000; stroke-width: 0.8"/>
      </g>
     </g>
     <g id="text_1">
      <!-- 2022-01-01 -->
      <g transform="translate(103.566989 336.518125) scale(0.12 -0.12)">
       <defs>
        <path id="DejaVuSans-32" d="M 1228 531 
L 3431 531 
L 3431 0 
L 469 0 
L 469 531 
Q 828 903 1448 1529 
Q 2069 2156 2228 2338 
Q 2531 2678 2651 2914 
Q 2772 3150 2772 3378 
Q 2772 3750 2511 3984 
Q 2250 4219 1831 4219 
Q 1534 4219 1204 4116 
Q 875 4013 500 3803 
L 500 4441 
Q 881 4594 1212 4672 
Q 1544 4750 1819 4750 
Q 2544 4750 2975 4387 
Q 3406 4025 3406 3419 
Q 3406 3131 3298 2873 
Q 3191 2616 2906 2266 
Q 2828 2175 2409 1742 
Q 1991 1309 1228 531 
z
" transform="scale(0.015625)"/>
        <path id="DejaVuSans-30" d="M 2034 4250 
Q 1547 4250 1301 3770 
Q 1056 3291 1056 2328 
Q 1056 1369 1301 889 
Q 1547 409 2034 409 
Q 2525 409 2770 889 
Q 3016 1369 3016 2328 
Q 3016 3291 2770 3770 
Q 2525 4250 2034 4250 
z
M 2034 4750 
Q 2819 4750 3233 4129 
Q 3647 3509 3647 2328 
Q 3647 1150 3233 529 
Q 2819 -91 2034 -91 
Q 1250 -91 836 529 
Q 422 1150 422 2328 
Q 422 3509 836 4129 
Q 1250 4750 2034 4750 
z
" transform="scale(0.015625)"/>
        <path id="DejaVuSans-2d" d="M 313 2009 
L 1997 2009 
L 1997 1497 
L 313 1497 
L 313 2009 
z
" transform="scale(0.015625)"/>
        <path id="DejaVuSans-31" d="M 794 531 
L 1825 531 
L 1825 4091 
L 703 3866 
L 703 4441 
L 1819 4666 
L 2450 4666 
L 2450 531 
L 3481 531 
L 3481 0 
L 794 0 
L 794 531 
z
" transform="scale(0.015625)"/>
       </defs>
       <use xlink:href="#DejaVuSans-32"/>
       <use xlink:href="#DejaVuSans-30" x="63.623047"/>
       <use xlink:href="#DejaVuSans-32" x="127.246094"/>
       <use xlink:href="#DejaVuSans-32" x="190.869141"/>
       <use xlink:href="#DejaVuSans-2d" x="254.492188"/>
       <use xlink:href="#DejaVuSans-30" x="290.576172"/>
       <use xlink:href="#DejaVuSans-31" x="354.199219"/>
       <use xlink:href="#DejaVuSans-2d" x="417.822266"/>
       <use xlink:href="#DejaVuSans-30" x="453.90625"/>
       <use xlink:href="#DejaVuSans-31" x="517.529297"/>
      </g>
     </g>
    </g>
    <g id="xtick_2">
     <g id="line2d_2">
      <g>
       <use xlink:href="#mb87e1d980c" x="219.712884" y="320.4" style="stroke: #000000; stroke-width: 0.8"/>
      </g>
     </g>
     <g id="text_2">
      <!-- 2022-01-03 -->
      <g transform="translate(184.843509 336.518125) scale(0.12 -0.12)">
       <defs>
        <path id="DejaVuSans-33" d="M 2597 2516 
Q 3050 2419 3304 2112 
Q 3559 1806 3559 1356 
Q 3559 666 3084 287 
Q 2609 -91 1734 -91 
Q 1441 -91 1130 -33 
Q 819 25 488 141 
L 488 750 
Q 750 597 1062 519 
Q 1375 441 1716 441 
Q 2309 441 2620 675 
Q 2931 909 2931 1356 
Q 2931 1769 2642 2001 
Q 2353 2234 1838 2234 
L 1294 2234 
L 1294 2753 
L 1863 2753 
Q 2328 2753 2575 2939 
Q 2822 3125 2822 3475 
Q 2822 3834 2567 4026 
Q 2313 4219 1838 4219 
Q 1578 4219 1281 4162 
Q 984 4106 628 3988 
L 628 4550 
Q 988 4650 1302 4700 
Q 1616 4750 1894 4750 
Q 2613 4750 3031 4423 
Q 3450 4097 3450 3541 
Q 3450 3153 3228 2886 
Q 3006 2619 2597 2516 
z
" transform="scale(0.015625)"/>
       </defs>
       <use xlink:href="#DejaVuSans-32"/>
       <use xlink:href="#DejaVuSans-30" x="63.623047"/>
       <use xlink:href="#DejaVuSans-32" x="127.246094"/>
       <use xlink:href="#DejaVuSans-32" x="190.869141"/>
       <use xlink:href="#DejaVuSans-2d" x="254.492188"/>
       <use xlink:href="#DejaVuSans-30" x="290.576172"/>
       <use xlink:href="#DejaVuSans-31" x="354.199219"/>
       <use xlink:href="#DejaVuSans-2d" x="417.822266"/>
       <use xlink:href="#DejaVuSans-30" x="453.90625"/>
       <use xlink:href="#DejaVuSans-33" x="517.529297"/>
      </g>
     </g>
    </g>
    <g id="xtick_3">
     <g id="line2d_3">
      <g>
       <use xlink:href="#mb87e1d980c" x="300.989404" y="320.4" style="stroke: #000000; stroke-width: 0.8"/>
      </g>
     </g>
     <g id="text_3">
      <!-- 2022-01-05 -->
      <g transform="translate(266.120029 336.518125) scale(0.12 -0.12)">
       <defs>
        <path id="DejaVuSans-35" d="M 691 4666 
L 3169 4666 
L 3169 4134 
L 1269 4134 
L 1269 2991 
Q 1406 3038 1543 3061 
Q 1681 3084 1819 3084 
Q 2600 3084 3056 2656 
Q 3513 2228 3513 1497 
Q 3513 744 3044 326 
Q 2575 -91 1722 -91 
Q 1428 -91 1123 -41 
Q 819 9 494 109 
L 494 744 
Q 775 591 1075 516 
Q 1375 441 1709 441 
Q 2250 441 2565 725 
Q 2881 1009 2881 1497 
Q 2881 1984 2565 2268 
Q 2250 2553 1709 2553 
Q 1456 2553 1204 2497 
Q 953 2441 691 2322 
L 691 4666 
z
" transform="scale(0.015625)"/>
       </defs>
       <use xlink:href="#DejaVuSans-32"/>
       <use xlink:href="#DejaVuSans-30" x="63.623047"/>
       <use xlink:href="#DejaVuSans-32" x="127.246094"/>
       <use xlink:href="#DejaVuSans-32" x="190.869141"/>
       <use xlink:href="#DejaVuSans-2d" x="254.492188"/>
       <use xlink:href="#DejaVuSans-30" x="290.576172"/>
       <use xlink:href="#DejaVuSans-31" x="354.199219"/>
       <use xlink:href="#DejaVuSans-2d" x="417.822266"/>
       <use xlink:href="#DejaVuSans-30" x="453.90625"/>
       <use xlink:href="#DejaVuSans-35" x="517.529297"/>
      </g>
     </g>
    </g>
    <g id="xtick_4">
     <g id="line2d_4">
      <g>
       <use xlink:href="#mb87e1d980c" x="382.265925" y="320.4" style="stroke: #000000; stroke-width: 0.8"/>
      </g>
     </g>
     <g id="text_4">
      <!-- 2022-01-07 -->
      <g transform="translate(347.39655 336.518125) scale(0.12 -0.12)">
       <defs>
        <path id="DejaVuSans-37" d="M 525 4666 
L 3525 4666 
L 3525 4397 
L 1831 0 
L 1172 0 
L 2766 4134 
L 525 4134 
L 525 4666 
z
" transform="scale(0.015625)"/>
       </defs>
       <use xlink:href="#DejaVuSans-32"/>
       <use xlink:href="#DejaVuSans-30" x="63.623047"/>
       <use xlink:href="#DejaVuSans-32" x="127.246094"/>
       <use xlink:href="#DejaVuSans-32" x="190.869141"/>
       <use xlink:href="#DejaVuSans-2d" x="254.492188"/>
       <use xlink:href="#DejaVuSans-30" x="290.576172"/>
       <use xlink:href="#DejaVuSans-31" x="354.199219"/>
       <use xlink:href="#DejaVuSans-2d" x="417.822266"/>
       <use xlink:href="#DejaVuSans-30" x="453.90625"/>
       <use xlink:href="#DejaVuSans-37" x="517.529297"/>
      </g>
     </g>
    </g>
    <g id="xtick_5">
     <g id="line2d_5">
      <g>
       <use xlink:href="#mb87e1d980c" x="463.542445" y="320.4" style="stroke: #000000; stroke-width: 0.8"/>
      </g>
     </g>
     <g id="text_5">
      <!-- 2022-01-09 -->
      <g transform="translate(428.67307 336.518125) scale(0.12 -0.12)">
       <defs>
        <path id="DejaVuSans-39" d="M 703 97 
L 703 672 
Q 941 559 1184 500 
Q 1428 441 1663 441 
Q 2288 441 2617 861 
Q 2947 1281 2994 2138 
Q 2813 1869 2534 1725 
Q 2256 1581 1919 1581 
Q 1219 1581 811 2004 
Q 403 2428 403 3163 
Q 403 3881 828 4315 
Q 1253 4750 1959 4750 
Q 2769 4750 3195 4129 
Q 3622 3509 3622 2328 
Q 3622 1225 3098 567 
Q 2575 -91 1691 -91 
Q 1453 -91 1209 -44 
Q 966 3 703 97 
z
M 1959 2075 
Q 2384 2075 2632 2365 
Q 2881 2656 2881 3163 
Q 2881 3666 2632 3958 
Q 2384 4250 1959 4250 
Q 1534 4250 1286 3958 
Q 1038 3666 1038 3163 
Q 1038 2656 1286 2365 
Q 1534 2075 1959 2075 
z
" transform="scale(0.015625)"/>
       </defs>
       <use xlink:href="#DejaVuSans-32"/>
       <use xlink:href="#DejaVuSans-30" x="63.623047"/>
       <use xlink:href="#DejaVuSans-32" x="127.246094"/>
       <use xlink:href="#DejaVuSans-32" x="190.869141"/>
       <use xlink:href="#DejaVuSans-2d" x="254.492188"/>
       <use xlink:href="#DejaVuSans-30" x="290.576172"/>
       <use xlink:href="#DejaVuSans-31" x="354.199219"/>
       <use xlink:href="#DejaVuSans-2d" x="417.822266"/>
       <use xlink:href="#DejaVuSans-30" x="453.90625"/>
       <use xlink:href="#DejaVuSans-39" x="517.529297"/>
      </g>
     </g>
    </g>
    <g id="xtick_6">
     <g id="line2d_6">
      <g>
       <use xlink:href="#mb87e1d980c" x="544.818966" y="320.4" style="stroke: #000000; stroke-width: 0.8"/>
      </g>
     </g>
     <g id="text_6">
      <!-- 2022-01-11 -->
      <g transform="translate(509.949591 336.518125) scale(0.12 -0.12)">
       <use xlink:href="#DejaVuSans-32"/>
       <use xlink:href="#DejaVuSans-30" x="63.623047"/>
       <use xlink:href="#DejaVuSans-32" x="127.246094"/>
       <use xlink:href="#DejaVuSans-32" x="190.869141"/>
       <use xlink:href="#DejaVuSans-2d" x="254.492188"/>
       <use xlink:href="#DejaVuSans-30" x="290.576172"/>
       <use xlink:href="#DejaVuSans-31" x="354.199219"/>
       <use xlink:href="#DejaVuSans-2d" x="417.822266"/>
       <use xlink:href="#DejaVuSans-31" x="453.90625"/>
       <use xlink:href="#DejaVuSans-31" x="517.529297"/>
      </g>
     </g>
    </g>
    <g id="xtick_7">
     <g id="line2d_7">
      <g>
       <use xlink:href="#mb87e1d980c" x="626.095486" y="320.4" style="stroke: #000000; stroke-width: 0.8"/>
      </g>
     </g>
     <g id="text_7">
      <!-- 2022-01-13 -->
      <g transform="translate(591.226111 336.518125) scale(0.12 -0.12)">
       <use xlink:href="#DejaVuSans-32"/>
       <use xlink:href="#DejaVuSans-30" x="63.623047"/>
       <use xlink:href="#DejaVuSans-32" x="127.246094"/>
       <use xlink:href="#DejaVuSans-32" x="190.869141"/>
       <use xlink:href="#DejaVuSans-2d" x="254.492188"/>
       <use xlink:href="#DejaVuSans-30" x="290.576172"/>
       <use xlink:href="#DejaVuSans-31" x="354.199219"/>
       <use xlink:href="#DejaVuSans-2d" x="417.822266"/>
       <use xlink:href="#DejaVuSans-31" x="453.90625"/>
       <use xlink:href="#DejaVuSans-33" x="517.529297"/>
      </g>
     </g>
    </g>
    <g id="xtick_8">
     <g id="line2d_8">
      <g>
       <use xlink:href="#mb87e1d980c" x="707.372007" y="320.4" style="stroke: #000000; stroke-width: 0.8"/>
      </g>
     </g>
     <g id="text_8">
      <!-- 2022-01-15 -->
      <g transform="translate(672.502632 336.518125) scale(0.12 -0.12)">
       <use xlink:href="#DejaVuSans-32"/>
       <use xlink:href="#DejaVuSans-30" x="63.623047"/>
       <use xlink:href="#DejaVuSans-32" x="127.246094"/>
       <use xlink:href="#DejaVuSans-32" x="190.869141"/>
       <use xlink:href="#DejaVuSans-2d" x="254.492188"/>
       <use xlink:href="#DejaVuSans-30" x="290.576172"/>
       <use xlink:href="#DejaVuSans-31" x="354.199219"/>
       <use xlink:href="#DejaVuSans-2d" x="417.822266"/>
       <use xlink:href="#DejaVuSans-31" x="453.90625"/>
       <use xlink:href="#DejaVuSans-35" x="517.529297"/>
      </g>
     </g>
    </g>
    <g id="text_9">
     <!-- TIME (DAYS) -->
     <g transform="translate(393.97375 355.17125) scale(0.16 -0.16)">
      <defs>
       <path id="DejaVuSans-54" d="M -19 4666 
L 3928 4666 
L 3928 4134 
L 2272 4134 
L 2272 0 
L 1638 0 
L 1638 4134 
L -19 4134 
L -19 4666 
z
" transform="scale(0.015625)"/>
       <path id="DejaVuSans-49" d="M 628 4666 
L 1259 4666 
L 1259 0 
L 628 0 
L 628 4666 
z
" transform="scale(0.015625)"/>
       <path id="DejaVuSans-4d" d="M 628 4666 
L 1569 4666 
L 2759 1491 
L 3956 4666 
L 4897 4666 
L 4897 0 
L 4281 0 
L 4281 4097 
L 3078 897 
L 2444 897 
L 1241 4097 
L 1241 0 
L 628 0 
L 628 4666 
z
" transform="scale(0.015625)"/>
       <path id="DejaVuSans-45" d="M 628 4666 
L 3578 4666 
L 3578 4134 
L 1259 4134 
L 1259 2753 
L 3481 2753 
L 3481 2222 
L 1259 2222 
L 1259 531 
L 3634 531 
L 3634 0 
L 628 0 
L 628 4666 
z
" transform="scale(0.015625)"/>
       <path id="DejaVuSans-20" transform="scale(0.015625)"/>
       <path id="DejaVuSans-28" d="M 1984 4856 
Q 1566 4138 1362 3434 
Q 1159 2731 1159 2009 
Q 1159 1288 1364 580 
Q 1569 -128 1984 -844 
L 1484 -844 
Q 1016 -109 783 600 
Q 550 1309 550 2009 
Q 550 2706 781 3412 
Q 1013 4119 1484 4856 
L 1984 4856 
z
" transform="scale(0.015625)"/>
       <path id="DejaVuSans-44" d="M 1259 4147 
L 1259 519 
L 2022 519 
Q 2988 519 3436 956 
Q 3884 1394 3884 2338 
Q 3884 3275 3436 3711 
Q 2988 4147 2022 4147 
L 1259 4147 
z
M 628 4666 
L 1925 4666 
Q 3281 4666 3915 4102 
Q 4550 3538 4550 2338 
Q 4550 1131 3912 565 
Q 3275 0 1925 0 
L 628 0 
L 628 4666 
z
" transform="scale(0.015625)"/>
       <path id="DejaVuSans-41" d="M 2188 4044 
L 1331 1722 
L 3047 1722 
L 2188 4044 
z
M 1831 4666 
L 2547 4666 
L 4325 0 
L 3669 0 
L 3244 1197 
L 1141 1197 
L 716 0 
L 50 0 
L 1831 4666 
z
" transform="scale(0.015625)"/>
       <path id="DejaVuSans-59" d="M -13 4666 
L 666 4666 
L 1959 2747 
L 3244 4666 
L 3922 4666 
L 2272 2222 
L 2272 0 
L 1638 0 
L 1638 2222 
L -13 4666 
z
" transform="scale(0.015625)"/>
       <path id="DejaVuSans-53" d="M 3425 4513 
L 3425 3897 
Q 3066 4069 2747 4153 
Q 2428 4238 2131 4238 
Q 1616 4238 1336 4038 
Q 1056 3838 1056 3469 
Q 1056 3159 1242 3001 
Q 1428 2844 1947 2747 
L 2328 2669 
Q 3034 2534 3370 2195 
Q 3706 1856 3706 1288 
Q 3706 609 3251 259 
Q 2797 -91 1919 -91 
Q 1588 -91 1214 -16 
Q 841 59 441 206 
L 441 856 
Q 825 641 1194 531 
Q 1563 422 1919 422 
Q 2459 422 2753 634 
Q 3047 847 3047 1241 
Q 3047 1584 2836 1778 
Q 2625 1972 2144 2069 
L 1759 2144 
Q 1053 2284 737 2584 
Q 422 2884 422 3419 
Q 422 4038 858 4394 
Q 1294 4750 2059 4750 
Q 2388 4750 2728 4690 
Q 3069 4631 3425 4513 
z
" transform="scale(0.015625)"/>
       <path id="DejaVuSans-29" d="M 513 4856 
L 1013 4856 
Q 1481 4119 1714 3412 
Q 1947 2706 1947 2009 
Q 1947 1309 1714 600 
Q 1481 -109 1013 -844 
L 513 -844 
Q 928 -128 1133 580 
Q 1338 1288 1338 2009 
Q 1338 2731 1133 3434 
Q 928 4138 513 4856 
z
" transform="scale(0.015625)"/>
      </defs>
      <use xlink:href="#DejaVuSans-54"/>
      <use xlink:href="#DejaVuSans-49" x="61.083984"/>
      <use xlink:href="#DejaVuSans-4d" x="90.576172"/>
      <use xlink:href="#DejaVuSans-45" x="176.855469"/>
      <use xlink:href="#DejaVuSans-20" x="240.039062"/>
      <use xlink:href="#DejaVuSans-28" x="271.826172"/>
      <use xlink:href="#DejaVuSans-44" x="310.839844"/>
      <use xlink:href="#DejaVuSans-41" x="386.091797"/>
      <use xlink:href="#DejaVuSans-59" x="446.75"/>
      <use xlink:href="#DejaVuSans-53" x="507.833984"/>
      <use xlink:href="#DejaVuSans-29" x="571.310547"/>
     </g>
    </g>
   </g>
   <g id="matplotlib.axis_2">
    <g id="ytick_1">
     <g id="line2d_9">
      <defs>
       <path id="mbea5a4f4a0" d="M 0 0 
L -3.5 0 
" style="stroke: #000000; stroke-width: 0.8"/>
      </defs>
      <g>
       <use xlink:href="#mbea5a4f4a0" x="108" y="307.8" style="stroke: #000000; stroke-width: 0.8"/>
      </g>
     </g>
     <g id="text_10">
      <!-- 0 -->
      <g transform="translate(93.365 312.359062) scale(0.12 -0.12)">
       <use xlink:href="#DejaVuSans-30"/>
      </g>
     </g>
    </g>
    <g id="ytick_2">
     <g id="line2d_10">
      <g>
       <use xlink:href="#mbea5a4f4a0" x="108" y="265.088136" style="stroke: #000000; stroke-width: 0.8"/>
      </g>
     </g>
     <g id="text_11">
      <!-- 50 -->
      <g transform="translate(85.73 269.647198) scale(0.12 -0.12)">
       <use xlink:href="#DejaVuSans-35"/>
       <use xlink:href="#DejaVuSans-30" x="63.623047"/>
      </g>
     </g>
    </g>
    <g id="ytick_3">
     <g id="line2d_11">
      <g>
       <use xlink:href="#mbea5a4f4a0" x="108" y="222.376271" style="stroke: #000000; stroke-width: 0.8"/>
      </g>
     </g>
     <g id="text_12">
      <!-- 100 -->
      <g transform="translate(78.095 226.935334) scale(0.12 -0.12)">
       <use xlink:href="#DejaVuSans-31"/>
       <use xlink:href="#DejaVuSans-30" x="63.623047"/>
       <use xlink:href="#DejaVuSans-30" x="127.246094"/>
      </g>
     </g>
    </g>
    <g id="ytick_4">
     <g id="line2d_12">
      <g>
       <use xlink:href="#mbea5a4f4a0" x="108" y="179.664407" style="stroke: #000000; stroke-width: 0.8"/>
      </g>
     </g>
     <g id="text_13">
      <!-- 150 -->
      <g transform="translate(78.095 184.223469) scale(0.12 -0.12)">
       <use xlink:href="#DejaVuSans-31"/>
       <use xlink:href="#DejaVuSans-35" x="63.623047"/>
       <use xlink:href="#DejaVuSans-30" x="127.246094"/>
      </g>
     </g>
    </g>
    <g id="ytick_5">
     <g id="line2d_13">
      <g>
       <use xlink:href="#mbea5a4f4a0" x="108" y="136.952542" style="stroke: #000000; stroke-width: 0.8"/>
      </g>
     </g>
     <g id="text_14">
      <!-- 200 -->
      <g transform="translate(78.095 141.511605) scale(0.12 -0.12)">
       <use xlink:href="#DejaVuSans-32"/>
       <use xlink:href="#DejaVuSans-30" x="63.623047"/>
       <use xlink:href="#DejaVuSans-30" x="127.246094"/>
      </g>
     </g>
    </g>
    <g id="ytick_6">
     <g id="line2d_14">
      <g>
       <use xlink:href="#mbea5a4f4a0" x="108" y="94.240678" style="stroke: #000000; stroke-width: 0.8"/>
      </g>
     </g>
     <g id="text_15">
      <!-- 250 -->
      <g transform="translate(78.095 98.79974) scale(0.12 -0.12)">
       <use xlink:href="#DejaVuSans-32"/>
       <use xlink:href="#DejaVuSans-35" x="63.623047"/>
       <use xlink:href="#DejaVuSans-30" x="127.246094"/>
      </g>
     </g>
    </g>
    <g id="ytick_7">
     <g id="line2d_15">
      <g>
       <use xlink:href="#mbea5a4f4a0" x="108" y="51.528814" style="stroke: #000000; stroke-width: 0.8"/>
      </g>
     </g>
     <g id="text_16">
      <!-- 300 -->
      <g transform="translate(78.095 56.087876) scale(0.12 -0.12)">
       <use xlink:href="#DejaVuSans-33"/>
       <use xlink:href="#DejaVuSans-30" x="63.623047"/>
       <use xlink:href="#DejaVuSans-30" x="127.246094"/>
      </g>
     </g>
    </g>
    <g id="text_17">
     <!-- SIMULATED -->
     <g transform="translate(52.851 227.5875) rotate(-90) scale(0.16 -0.16)">
      <defs>
       <path id="DejaVuSans-55" d="M 556 4666 
L 1191 4666 
L 1191 1831 
Q 1191 1081 1462 751 
Q 1734 422 2344 422 
Q 2950 422 3222 751 
Q 3494 1081 3494 1831 
L 3494 4666 
L 4128 4666 
L 4128 1753 
Q 4128 841 3676 375 
Q 3225 -91 2344 -91 
Q 1459 -91 1007 375 
Q 556 841 556 1753 
L 556 4666 
z
" transform="scale(0.015625)"/>
       <path id="DejaVuSans-4c" d="M 628 4666 
L 1259 4666 
L 1259 531 
L 3531 531 
L 3531 0 
L 628 0 
L 628 4666 
z
" transform="scale(0.015625)"/>
      </defs>
      <use xlink:href="#DejaVuSans-53"/>
      <use xlink:href="#DejaVuSans-49" x="63.476562"/>
      <use xlink:href="#DejaVuSans-4d" x="92.96875"/>
      <use xlink:href="#DejaVuSans-55" x="179.248047"/>
      <use xlink:href="#DejaVuSans-4c" x="252.441406"/>
      <use xlink:href="#DejaVuSans-41" x="310.404297"/>
      <use xlink:href="#DejaVuSans-54" x="371.0625"/>
      <use xlink:href="#DejaVuSans-45" x="432.146484"/>
      <use xlink:href="#DejaVuSans-44" x="495.330078"/>
     </g>
     <!-- AMPLITUDE -->
     <g transform="translate(70.7675 227.7725) rotate(-90) scale(0.16 -0.16)">
      <defs>
       <path id="DejaVuSans-50" d="M 1259 4147 
L 1259 2394 
L 2053 2394 
Q 2494 2394 2734 2622 
Q 2975 2850 2975 3272 
Q 2975 3691 2734 3919 
Q 2494 4147 2053 4147 
L 1259 4147 
z
M 628 4666 
L 2053 4666 
Q 2838 4666 3239 4311 
Q 3641 3956 3641 3272 
Q 3641 2581 3239 2228 
Q 2838 1875 2053 1875 
L 1259 1875 
L 1259 0 
L 628 0 
L 628 4666 
z
" transform="scale(0.015625)"/>
      </defs>
      <use xlink:href="#DejaVuSans-41"/>
      <use xlink:href="#DejaVuSans-4d" x="68.408203"/>
      <use xlink:href="#DejaVuSans-50" x="154.6875"/>
      <use xlink:href="#DejaVuSans-4c" x="214.990234"/>
      <use xlink:href="#DejaVuSans-49" x="270.703125"/>
      <use xlink:href="#DejaVuSans-54" x="300.195312"/>
      <use xlink:href="#DejaVuSans-55" x="361.279297"/>
      <use xlink:href="#DejaVuSans-44" x="434.472656"/>
      <use xlink:href="#DejaVuSans-45" x="511.474609"/>
     </g>
    </g>
   </g>
   <g id="line2d_16">
    <path d="M 138.436364 281.318644 
L 139.282994 257.4 
L 140.129624 284.735593 
L 140.976255 307.8 
L 141.822885 277.047458 
L 142.669516 276.19322 
L 143.516146 307.8 
L 144.362777 307.8 
L 145.209407 269.359322 
L 146.056037 307.8 
L 146.902668 193.332203 
L 147.749298 307.8 
L 148.595929 295.840678 
L 149.442559 295.840678 
L 150.28919 296.694915 
L 151.13582 307.8 
L 151.98245 283.881356 
L 152.829081 270.213559 
L 153.675711 204.437288 
L 154.522342 258.254237 
L 155.368972 244.586441 
L 156.215602 288.152542 
L 157.062233 220.667797 
L 157.908863 221.522034 
L 158.755494 283.881356 
L 159.602124 247.149153 
L 160.448755 248.00339 
L 161.295385 255.691525 
L 162.142015 230.918644 
L 162.988646 155.745763 
L 163.835276 307.8 
L 164.681907 307.8 
L 165.528537 201.020339 
L 166.375168 248.857627 
L 167.221798 160.871186 
L 168.068428 234.335593 
L 168.915059 202.728814 
L 169.761689 145.494915 
L 170.60832 272.776271 
L 171.45495 277.901695 
L 172.30158 270.213559 
L 173.148211 293.277966 
L 173.994841 216.39661 
L 174.841472 268.505085 
L 175.688102 224.938983 
L 176.534733 188.20678 
L 177.381363 205.291525 
L 178.227993 259.108475 
L 179.074624 303.528814 
L 179.921254 230.064407 
L 180.767885 271.922034 
L 181.614515 250.566102 
L 182.461146 300.111864 
L 183.307776 188.20678 
L 184.154406 307.8 
L 185.001037 307.8 
L 185.847667 212.979661 
L 186.694298 271.922034 
L 187.540928 307.8 
L 188.387558 253.983051 
L 189.234189 307.8 
L 190.080819 307.8 
L 190.92745 261.671186 
L 191.77408 292.423729 
L 192.620711 282.172881 
L 193.467341 241.169492 
L 194.313971 307.8 
L 196.853863 307.8 
L 197.700493 259.962712 
L 198.547124 253.128814 
L 199.393754 233.481356 
L 200.240384 240.315254 
L 201.087015 241.169492 
L 201.933645 230.064407 
L 202.780276 255.691525 
L 203.626906 307.8 
L 204.473536 304.383051 
L 205.320167 228.355932 
L 206.166797 282.172881 
L 207.013428 225.79322 
L 207.860058 259.108475 
L 208.706689 307.8 
L 209.553319 258.254237 
L 210.399949 307.8 
L 211.24658 264.233898 
L 212.09321 181.372881 
L 212.939841 161.725424 
L 213.786471 240.315254 
L 214.633102 183.935593 
L 215.479732 170.267797 
L 216.326362 305.237288 
L 217.172993 307.8 
L 218.019623 307.8 
L 218.866254 229.210169 
L 219.712884 238.60678 
L 220.559514 277.901695 
L 221.406145 269.359322 
L 222.252775 278.755932 
L 223.099406 307.8 
L 224.792667 307.8 
L 226.485927 242.877966 
L 227.332558 279.610169 
L 228.179188 302.674576 
L 229.025819 292.423729 
L 229.872449 298.40339 
L 230.71908 281.318644 
L 231.56571 303.528814 
L 232.41234 307.8 
L 233.258971 290.715254 
L 234.105601 307.8 
L 234.952232 235.189831 
L 235.798862 288.152542 
L 236.645492 307.8 
L 237.492123 248.00339 
L 239.185384 307.8 
L 240.032014 258.254237 
L 240.878645 300.966102 
L 241.725275 155.745763 
L 242.571905 307.8 
L 243.418536 307.8 
L 244.265166 170.267797 
L 245.111797 223.230508 
L 245.958427 301.820339 
L 246.805058 248.857627 
L 247.651688 212.125424 
L 248.498318 193.332203 
L 250.191579 300.966102 
L 251.03821 200.166102 
L 251.88484 229.210169 
L 252.73147 236.044068 
L 253.578101 163.433898 
L 254.424731 227.501695 
L 255.271362 239.461017 
L 256.117992 307.8 
L 256.964623 227.501695 
L 257.811253 307.8 
L 258.657883 253.983051 
L 259.504514 259.108475 
L 260.351144 249.711864 
L 261.197775 285.589831 
L 262.044405 270.213559 
L 262.891036 290.715254 
L 263.737666 307.8 
L 264.584296 300.966102 
L 265.430927 249.711864 
L 266.277557 271.922034 
L 267.124188 307.8 
L 270.510709 307.8 
L 271.35734 283.027119 
L 272.20397 307.8 
L 273.050601 258.254237 
L 273.897231 307.8 
L 274.743861 307.8 
L 275.590492 229.210169 
L 276.437122 305.237288 
L 277.283753 251.420339 
L 278.130383 307.8 
L 278.977014 288.152542 
L 279.823644 253.128814 
L 280.670274 242.877966 
L 281.516905 205.291525 
L 282.363535 307.8 
L 283.210166 261.671186 
L 284.056796 307.8 
L 284.903426 254.837288 
L 285.750057 259.962712 
L 286.596687 195.894915 
L 287.443318 289.00678 
L 288.289948 215.542373 
L 289.136579 256.545763 
L 289.983209 207.854237 
L 290.829839 297.549153 
L 291.67647 237.752542 
L 292.5231 235.189831 
L 293.369731 277.047458 
L 294.216361 231.772881 
L 295.062992 252.274576 
L 295.909622 265.088136 
L 296.756252 221.522034 
L 297.602883 195.894915 
L 298.449513 207.854237 
L 299.296144 254.837288 
L 300.142774 236.898305 
L 300.989404 262.525424 
L 301.836035 194.186441 
L 302.682665 307.8 
L 303.529296 268.505085 
L 304.375926 307.8 
L 305.222557 222.376271 
L 306.069187 304.383051 
L 306.915817 307.8 
L 308.609078 221.522034 
L 309.455709 307.8 
L 310.302339 301.820339 
L 311.14897 258.254237 
L 312.84223 307.8 
L 313.688861 306.945763 
L 314.535491 302.674576 
L 315.382122 261.671186 
L 316.228752 261.671186 
L 317.075382 302.674576 
L 317.922013 307.8 
L 318.768643 287.298305 
L 319.615274 242.877966 
L 320.461904 230.064407 
L 321.308535 221.522034 
L 322.155165 244.586441 
L 323.001795 307.8 
L 323.848426 197.60339 
L 324.695056 307.8 
L 325.541687 174.538983 
L 326.388317 307.8 
L 327.234948 175.39322 
L 328.081578 230.064407 
L 328.928208 248.857627 
L 329.774839 204.437288 
L 330.621469 253.983051 
L 331.4681 263.379661 
L 332.31473 195.040678 
L 333.16136 223.230508 
L 334.007991 232.627119 
L 334.854621 232.627119 
L 335.701252 307.8 
L 336.547882 181.372881 
L 337.394513 228.355932 
L 338.241143 245.440678 
L 339.087773 213.833898 
L 339.934404 194.186441 
L 340.781034 306.091525 
L 341.627665 290.715254 
L 342.474295 207.854237 
L 343.320926 242.023729 
L 344.167556 292.423729 
L 345.014186 273.630508 
L 345.860817 240.315254 
L 346.707447 252.274576 
L 347.554078 229.210169 
L 348.400708 307.8 
L 349.247338 287.298305 
L 350.093969 307.8 
L 350.940599 298.40339 
L 351.78723 307.8 
L 352.63386 242.877966 
L 353.480491 302.674576 
L 354.327121 307.8 
L 355.173751 307.8 
L 356.020382 303.528814 
L 356.867012 307.8 
L 357.713643 281.318644 
L 358.560273 307.8 
L 359.406904 282.172881 
L 360.253534 266.79661 
L 361.100164 307.8 
L 361.946795 266.79661 
L 362.793425 171.122034 
L 363.640056 285.589831 
L 364.486686 307.8 
L 366.179947 307.8 
L 367.026577 294.986441 
L 367.873208 274.484746 
L 368.719838 236.044068 
L 369.566469 146.349153 
L 370.413099 228.355932 
L 372.10636 195.040678 
L 372.95299 298.40339 
L 373.799621 182.227119 
L 374.646251 218.105085 
L 375.492882 197.60339 
L 376.339512 248.00339 
L 377.186142 224.084746 
L 378.032773 240.315254 
L 378.879403 183.081356 
L 379.726034 204.437288 
L 380.572664 238.60678 
L 381.419294 278.755932 
L 382.265925 212.125424 
L 383.112555 126.701695 
L 383.959186 270.213559 
L 384.805816 238.60678 
L 385.652447 266.79661 
L 386.499077 261.671186 
L 387.345707 230.064407 
L 388.192338 287.298305 
L 389.038968 271.067797 
L 389.885599 231.772881 
L 390.732229 278.755932 
L 391.57886 300.111864 
L 392.42549 278.755932 
L 393.27212 271.067797 
L 394.118751 282.172881 
L 394.965381 265.942373 
L 395.812012 280.464407 
L 396.658642 234.335593 
L 397.505272 289.00678 
L 398.351903 307.8 
L 399.198533 279.610169 
L 400.045164 286.444068 
L 400.891794 306.091525 
L 401.738425 279.610169 
L 402.585055 279.610169 
L 403.431685 240.315254 
L 404.278316 307.8 
L 405.124946 307.8 
L 405.971577 212.979661 
L 406.818207 199.311864 
L 407.664838 265.942373 
L 408.511468 299.257627 
L 409.358098 262.525424 
L 410.204729 275.338983 
L 411.051359 300.111864 
L 411.89799 211.271186 
L 412.74462 307.8 
L 413.59125 299.257627 
L 414.437881 253.983051 
L 415.284511 183.935593 
L 416.131142 209.562712 
L 416.977772 230.918644 
L 417.824403 266.79661 
L 418.671033 205.291525 
L 419.517663 305.237288 
L 420.364294 271.067797 
L 421.210924 265.942373 
L 422.057555 171.122034 
L 422.904185 225.79322 
L 423.750816 307.8 
L 424.597446 152.328814 
L 425.444076 287.298305 
L 426.290707 307.8 
L 427.137337 307.8 
L 427.983968 247.149153 
L 428.830598 307.8 
L 429.677228 256.545763 
L 430.523859 307.8 
L 431.370489 307.8 
L 432.21712 296.694915 
L 433.06375 259.108475 
L 433.910381 233.481356 
L 434.757011 307.8 
L 435.603641 207.854237 
L 436.450272 307.8 
L 437.296902 291.569492 
L 438.143533 266.79661 
L 438.990163 307.8 
L 440.683424 253.983051 
L 441.530054 239.461017 
L 442.376685 307.8 
L 443.223315 227.501695 
L 444.069946 250.566102 
L 444.916576 225.79322 
L 445.763206 253.983051 
L 446.609837 307.8 
L 447.456467 265.942373 
L 448.303098 307.8 
L 449.149728 251.420339 
L 449.996359 288.152542 
L 450.842989 298.40339 
L 451.689619 242.023729 
L 452.53625 201.874576 
L 453.38288 264.233898 
L 454.229511 242.023729 
L 455.076141 269.359322 
L 455.922772 204.437288 
L 456.769402 236.044068 
L 457.616032 200.166102 
L 458.462663 249.711864 
L 459.309293 230.064407 
L 460.155924 265.942373 
L 461.002554 227.501695 
L 461.849184 307.8 
L 462.695815 199.311864 
L 463.542445 307.8 
L 464.389076 220.667797 
L 465.235706 290.715254 
L 466.082337 307.8 
L 466.928967 167.705085 
L 467.775597 233.481356 
L 468.622228 255.691525 
L 469.468858 211.271186 
L 470.315489 293.277966 
L 471.162119 288.152542 
L 472.00875 307.8 
L 472.85538 284.735593 
L 473.70201 267.650847 
L 474.548641 307.8 
L 475.395271 282.172881 
L 476.241902 269.359322 
L 477.088532 307.8 
L 477.935162 267.650847 
L 478.781793 307.8 
L 479.628423 278.755932 
L 480.475054 307.8 
L 481.321684 307.8 
L 483.014945 240.315254 
L 483.861575 242.877966 
L 484.708206 307.8 
L 485.554836 269.359322 
L 486.401467 187.352542 
L 487.248097 307.8 
L 488.094728 307.8 
L 488.941358 226.647458 
L 489.787988 239.461017 
L 490.634619 234.335593 
L 491.481249 276.19322 
L 493.17451 204.437288 
L 494.02114 307.8 
L 494.867771 307.8 
L 495.714401 158.308475 
L 496.561032 249.711864 
L 497.407662 223.230508 
L 498.254293 307.8 
L 499.100923 197.60339 
L 499.947553 218.105085 
L 500.794184 257.4 
L 501.640814 196.749153 
L 502.487445 278.755932 
L 503.334075 169.413559 
L 504.180706 238.60678 
L 505.027336 218.105085 
L 505.873966 213.833898 
L 506.720597 195.894915 
L 507.567227 212.125424 
L 508.413858 178.810169 
L 509.260488 307.8 
L 510.107118 249.711864 
L 510.953749 223.230508 
L 511.800379 230.918644 
L 512.64701 275.338983 
L 513.49364 273.630508 
L 514.340271 218.959322 
L 516.033531 296.694915 
L 516.880162 307.8 
L 517.726792 197.60339 
L 518.573423 307.8 
L 519.420053 307.8 
L 520.266684 299.257627 
L 521.113314 307.8 
L 522.806575 307.8 
L 523.653205 238.60678 
L 524.499836 307.8 
L 525.346466 292.423729 
L 526.193096 307.8 
L 527.039727 282.172881 
L 527.886357 307.8 
L 528.732988 253.983051 
L 529.579618 248.857627 
L 530.426249 214.688136 
L 531.272879 228.355932 
L 532.119509 176.247458 
L 532.96614 211.271186 
L 533.81277 217.250847 
L 534.659401 181.372881 
L 535.506031 212.979661 
L 536.352662 221.522034 
L 537.199292 252.274576 
L 538.045922 247.149153 
L 538.892553 207.854237 
L 539.739183 215.542373 
L 540.585814 230.918644 
L 541.432444 248.857627 
L 542.279074 234.335593 
L 543.125705 245.440678 
L 543.972335 207 
L 544.818966 146.349153 
L 545.665596 226.647458 
L 546.512227 242.023729 
L 547.358857 307.8 
L 548.205487 251.420339 
L 549.052118 259.108475 
L 549.898748 271.922034 
L 550.745379 288.152542 
L 551.592009 283.881356 
L 552.43864 307.8 
L 553.28527 204.437288 
L 554.1319 295.840678 
L 554.978531 307.8 
L 555.825161 307.8 
L 556.671792 255.691525 
L 557.518422 259.108475 
L 558.365052 307.8 
L 559.211683 294.986441 
L 560.058313 307.8 
L 560.904944 291.569492 
L 561.751574 300.111864 
L 562.598205 259.962712 
L 563.444835 307.8 
L 564.291465 295.840678 
L 565.138096 307.8 
L 565.984726 296.694915 
L 566.831357 307.8 
L 567.677987 307.8 
L 568.524618 223.230508 
L 569.371248 307.8 
L 570.217878 307.8 
L 571.064509 278.755932 
L 571.911139 307.8 
L 572.75777 307.8 
L 573.6044 261.671186 
L 574.45103 252.274576 
L 575.297661 176.247458 
L 576.144291 204.437288 
L 576.990922 178.810169 
L 577.837552 254.837288 
L 578.684183 242.023729 
L 579.530813 211.271186 
L 580.377443 208.708475 
L 581.224074 224.938983 
L 582.070704 294.986441 
L 582.917335 263.379661 
L 583.763965 218.959322 
L 584.610596 218.959322 
L 585.457226 239.461017 
L 586.303856 187.352542 
L 587.150487 230.064407 
L 587.997117 230.064407 
L 588.843748 179.664407 
L 589.690378 307.8 
L 590.537008 158.308475 
L 591.383639 233.481356 
L 592.230269 281.318644 
L 593.0769 262.525424 
L 593.92353 307.8 
L 594.770161 208.708475 
L 595.616791 262.525424 
L 596.463421 307.8 
L 597.310052 248.00339 
L 598.156682 235.189831 
L 599.003313 307.8 
L 599.849943 204.437288 
L 600.696574 307.8 
L 601.543204 304.383051 
L 602.389834 208.708475 
L 603.236465 266.79661 
L 604.083095 277.047458 
L 604.929726 298.40339 
L 605.776356 307.8 
L 608.316247 307.8 
L 609.162878 253.983051 
L 610.009508 307.8 
L 610.856139 302.674576 
L 611.702769 266.79661 
L 612.549399 293.277966 
L 613.39603 307.8 
L 614.24266 235.189831 
L 615.089291 172.830508 
L 615.935921 167.705085 
L 616.782552 307.8 
L 617.629182 186.498305 
L 618.475812 229.210169 
L 619.322443 142.077966 
L 620.169073 122.430508 
L 621.015704 268.505085 
L 621.862334 285.589831 
L 623.555595 104.491525 
L 624.402225 221.522034 
L 625.248856 299.257627 
L 626.095486 202.728814 
L 626.942117 251.420339 
L 627.788747 212.979661 
L 628.635377 289.861017 
L 629.482008 177.101695 
L 630.328638 170.267797 
L 631.175269 230.918644 
L 632.021899 307.8 
L 632.86853 255.691525 
L 633.71516 218.959322 
L 634.56179 307.8 
L 635.408421 237.752542 
L 636.255051 238.60678 
L 637.101682 307.8 
L 637.948312 270.213559 
L 638.794942 287.298305 
L 639.641573 240.315254 
L 640.488203 305.237288 
L 641.334834 276.19322 
L 642.181464 275.338983 
L 643.028095 307.8 
L 643.874725 307.8 
L 644.721355 296.694915 
L 645.567986 307.8 
L 650.647768 307.8 
L 651.494399 268.505085 
L 652.341029 307.8 
L 653.18766 275.338983 
L 654.03429 218.105085 
L 654.88092 246.294915 
L 655.727551 237.752542 
L 656.574181 307.8 
L 657.420812 274.484746 
L 658.267442 259.108475 
L 659.114073 260.816949 
L 659.960703 166.850847 
L 660.807333 206.145763 
L 661.653964 199.311864 
L 662.500594 201.020339 
L 663.347225 241.169492 
L 664.193855 220.667797 
L 665.040486 268.505085 
L 665.887116 248.00339 
L 666.733746 258.254237 
L 667.580377 189.061017 
L 668.427007 234.335593 
L 669.273638 223.230508 
L 670.120268 281.318644 
L 670.966898 55.8 
L 671.813529 253.128814 
L 672.660159 279.610169 
L 673.50679 204.437288 
L 674.35342 289.00678 
L 675.200051 225.79322 
L 676.046681 260.816949 
L 676.893311 218.959322 
L 677.739942 307.8 
L 678.586572 230.918644 
L 679.433203 295.840678 
L 680.279833 229.210169 
L 681.126464 286.444068 
L 681.973094 286.444068 
L 682.819724 236.898305 
L 683.666355 268.505085 
L 684.512985 286.444068 
L 685.359616 307.8 
L 687.052876 307.8 
L 687.899507 289.861017 
L 688.746137 307.8 
L 691.286029 307.8 
L 692.132659 264.233898 
L 693.82592 307.8 
L 694.67255 226.647458 
L 695.519181 297.549153 
L 696.365811 280.464407 
L 697.212442 242.023729 
L 698.059072 296.694915 
L 698.905702 290.715254 
L 699.752333 307.8 
L 700.598963 256.545763 
L 701.445594 224.938983 
L 702.292224 271.922034 
L 703.138854 245.440678 
L 703.985485 253.983051 
L 704.832115 247.149153 
L 705.678746 238.60678 
L 706.525376 307.8 
L 707.372007 176.247458 
L 708.218637 238.60678 
L 709.065267 197.60339 
L 709.911898 232.627119 
L 710.758528 195.040678 
L 711.605159 186.498305 
L 712.451789 150.620339 
L 713.29842 306.091525 
L 714.14505 195.040678 
L 714.99168 184.789831 
L 715.838311 254.837288 
L 716.684941 201.874576 
L 717.531572 224.938983 
L 718.378202 231.772881 
L 719.224832 306.945763 
L 720.071463 262.525424 
L 720.918093 260.816949 
L 721.764724 242.023729 
L 722.611354 307.8 
L 723.457985 307.8 
L 724.304615 239.461017 
L 725.151245 293.277966 
L 725.997876 286.444068 
L 726.844506 261.671186 
L 727.691137 298.40339 
L 728.537767 307.8 
L 731.077658 307.8 
L 731.924289 292.423729 
L 732.770919 212.125424 
L 733.61755 294.132203 
L 734.46418 243.732203 
L 735.31081 307.8 
L 736.157441 307.8 
L 737.004071 306.945763 
L 737.850702 272.776271 
L 738.697332 307.8 
L 739.543963 205.291525 
L 740.390593 268.505085 
L 741.237223 259.962712 
L 742.083854 297.549153 
L 742.930484 276.19322 
L 743.777115 285.589831 
L 744.623745 283.881356 
L 745.470376 263.379661 
L 746.317006 307.8 
L 747.163636 258.254237 
L 747.163636 258.254237 
" clip-path="url(#pac88877ddf)" style="fill: none; stroke: #191970; stroke-width: 2; stroke-linecap: square"/>
   </g>
   <g id="patch_3">
    <path d="M 108 320.4 
L 108 43.2 
" style="fill: none; stroke: #000000; stroke-width: 0.8; stroke-linejoin: miter; stroke-linecap: square"/>
   </g>
   <g id="patch_4">
    <path d="M 777.6 320.4 
L 777.6 43.2 
" style="fill: none; stroke: #000000; stroke-width: 0.8; stroke-linejoin: miter; stroke-linecap: square"/>
   </g>
   <g id="patch_5">
    <path d="M 108 320.4 
L 777.6 320.4 
" style="fill: none; stroke: #000000; stroke-width: 0.8; stroke-linejoin: miter; stroke-linecap: square"/>
   </g>
   <g id="patch_6">
    <path d="M 108 43.2 
L 777.6 43.2 
" style="fill: none; stroke: #000000; stroke-width: 0.8; stroke-linejoin: miter; stroke-linecap: square"/>
   </g>
   <g id="text_18">
    <!-- TIME SERIES -->
    <g transform="translate(386.625938 37.2) scale(0.18 -0.18)">
     <defs>
      <path id="DejaVuSans-52" d="M 2841 2188 
Q 3044 2119 3236 1894 
Q 3428 1669 3622 1275 
L 4263 0 
L 3584 0 
L 2988 1197 
Q 2756 1666 2539 1819 
Q 2322 1972 1947 1972 
L 1259 1972 
L 1259 0 
L 628 0 
L 628 4666 
L 2053 4666 
Q 2853 4666 3247 4331 
Q 3641 3997 3641 3322 
Q 3641 2881 3436 2590 
Q 3231 2300 2841 2188 
z
M 1259 4147 
L 1259 2491 
L 2053 2491 
Q 2509 2491 2742 2702 
Q 2975 2913 2975 3322 
Q 2975 3731 2742 3939 
Q 2509 4147 2053 4147 
L 1259 4147 
z
" transform="scale(0.015625)"/>
     </defs>
     <use xlink:href="#DejaVuSans-54"/>
     <use xlink:href="#DejaVuSans-49" x="61.083984"/>
     <use xlink:href="#DejaVuSans-4d" x="90.576172"/>
     <use xlink:href="#DejaVuSans-45" x="176.855469"/>
     <use xlink:href="#DejaVuSans-20" x="240.039062"/>
     <use xlink:href="#DejaVuSans-53" x="271.826172"/>
     <use xlink:href="#DejaVuSans-45" x="335.302734"/>
     <use xlink:href="#DejaVuSans-52" x="398.486328"/>
     <use xlink:href="#DejaVuSans-49" x="467.96875"/>
     <use xlink:href="#DejaVuSans-45" x="497.460938"/>
     <use xlink:href="#DejaVuSans-53" x="560.644531"/>
    </g>
   </g>
  </g>
 </g>
 <defs>
  <clipPath id="pac88877ddf">
   <rect x="108" y="43.2" width="669.6" height="277.2"/>
  </clipPath>
 </defs>
</svg>
