<?xml version="1.0" encoding="utf-8" standalone="no"?>
<!DOCTYPE svg PUBLIC "-//W3C//DTD SVG 1.1//EN"
  "http://www.w3.org/Graphics/SVG/1.1/DTD/svg11.dtd">
<svg xmlns:xlink="http://www.w3.org/1999/xlink" width="864pt" height="360pt" viewBox="0 0 864 360" xmlns="http://www.w3.org/2000/svg" version="1.1">
 <metadata>
  <rdf:RDF xmlns:dc="http://purl.org/dc/elements/1.1/" xmlns:cc="http://creativecommons.org/ns#" xmlns:rdf="http://www.w3.org/1999/02/22-rdf-syntax-ns#">
   <cc:Work>
    <dc:type rdf:resource="http://purl.org/dc/dcmitype/StillImage"/>
    <dc:date>2023-11-27T20:48:50.901195</dc:date>
    <dc:format>image/svg+xml</dc:format>
    <dc:creator>
     <cc:Agent>
      <dc:title>Matplotlib v3.7.4, https://matplotlib.org/</dc:title>
     </cc:Agent>
    </dc:creator>
   </cc:Work>
  </rdf:RDF>
 </metadata>
 <defs>
  <style type="text/css">*{stroke-linejoin: round; stroke-linecap: butt}</style>
 </defs>
 <g id="figure_1">
  <g id="patch_1">
   <path d="M 0 360 
L 864 360 
L 864 0 
L 0 0 
z
" style="fill: #ffffff"/>
  </g>
  <g id="axes_1">
   <g id="patch_2">
    <path d="M 108 320.4 
L 777.6 320.4 
L 777.6 43.2 
L 108 43.2 
z
" style="fill: #ffffff"/>
   </g>
   <g id="matplotlib.axis_1">
    <g id="xtick_1">
     <g id="line2d_1">
      <defs>
       <path id="m1ddc4550b7" d="M 0 0 
L 0 3.5 
" style="stroke: #000000; stroke-width: 0.8"/>
      </defs>
      <g>
       <use xlink:href="#m1ddc4550b7" x="138.436364" y="320.4" style="stroke: #000000; stroke-width: 0.8"/>
      </g>
     </g>
     <g id="text_1">
      <!-- 2022-01-01 -->
      <g transform="translate(103.566989 336.518125) scale(0.12 -0.12)">
       <defs>
        <path id="DejaVuSans-32" d="M 1228 531 
L 3431 531 
L 3431 0 
L 469 0 
L 469 531 
Q 828 903 1448 1529 
Q 2069 2156 2228 2338 
Q 2531 2678 2651 2914 
Q 2772 3150 2772 3378 
Q 2772 3750 2511 3984 
Q 2250 4219 1831 4219 
Q 1534 4219 1204 4116 
Q 875 4013 500 3803 
L 500 4441 
Q 881 4594 1212 4672 
Q 1544 4750 1819 4750 
Q 2544 4750 2975 4387 
Q 3406 4025 3406 3419 
Q 3406 3131 3298 2873 
Q 3191 2616 2906 2266 
Q 2828 2175 2409 1742 
Q 1991 1309 1228 531 
z
" transform="scale(0.015625)"/>
        <path id="DejaVuSans-30" d="M 2034 4250 
Q 1547 4250 1301 3770 
Q 1056 3291 1056 2328 
Q 1056 1369 1301 889 
Q 1547 409 2034 409 
Q 2525 409 2770 889 
Q 3016 1369 3016 2328 
Q 3016 3291 2770 3770 
Q 2525 4250 2034 4250 
z
M 2034 4750 
Q 2819 4750 3233 4129 
Q 3647 3509 3647 2328 
Q 3647 1150 3233 529 
Q 2819 -91 2034 -91 
Q 1250 -91 836 529 
Q 422 1150 422 2328 
Q 422 3509 836 4129 
Q 1250 4750 2034 4750 
z
" transform="scale(0.015625)"/>
        <path id="DejaVuSans-2d" d="M 313 2009 
L 1997 2009 
L 1997 1497 
L 313 1497 
L 313 2009 
z
" transform="scale(0.015625)"/>
        <path id="DejaVuSans-31" d="M 794 531 
L 1825 531 
L 1825 4091 
L 703 3866 
L 703 4441 
L 1819 4666 
L 2450 4666 
L 2450 531 
L 3481 531 
L 3481 0 
L 794 0 
L 794 531 
z
" transform="scale(0.015625)"/>
       </defs>
       <use xlink:href="#DejaVuSans-32"/>
       <use xlink:href="#DejaVuSans-30" x="63.623047"/>
       <use xlink:href="#DejaVuSans-32" x="127.246094"/>
       <use xlink:href="#DejaVuSans-32" x="190.869141"/>
       <use xlink:href="#DejaVuSans-2d" x="254.492188"/>
       <use xlink:href="#DejaVuSans-30" x="290.576172"/>
       <use xlink:href="#DejaVuSans-31" x="354.199219"/>
       <use xlink:href="#DejaVuSans-2d" x="417.822266"/>
       <use xlink:href="#DejaVuSans-30" x="453.90625"/>
       <use xlink:href="#DejaVuSans-31" x="517.529297"/>
      </g>
     </g>
    </g>
    <g id="xtick_2">
     <g id="line2d_2">
      <g>
       <use xlink:href="#m1ddc4550b7" x="210.139208" y="320.4" style="stroke: #000000; stroke-width: 0.8"/>
      </g>
     </g>
     <g id="text_2">
      <!-- 2022-01-03 -->
      <g transform="translate(175.269833 336.518125) scale(0.12 -0.12)">
       <defs>
        <path id="DejaVuSans-33" d="M 2597 2516 
Q 3050 2419 3304 2112 
Q 3559 1806 3559 1356 
Q 3559 666 3084 287 
Q 2609 -91 1734 -91 
Q 1441 -91 1130 -33 
Q 819 25 488 141 
L 488 750 
Q 750 597 1062 519 
Q 1375 441 1716 441 
Q 2309 441 2620 675 
Q 2931 909 2931 1356 
Q 2931 1769 2642 2001 
Q 2353 2234 1838 2234 
L 1294 2234 
L 1294 2753 
L 1863 2753 
Q 2328 2753 2575 2939 
Q 2822 3125 2822 3475 
Q 2822 3834 2567 4026 
Q 2313 4219 1838 4219 
Q 1578 4219 1281 4162 
Q 984 4106 628 3988 
L 628 4550 
Q 988 4650 1302 4700 
Q 1616 4750 1894 4750 
Q 2613 4750 3031 4423 
Q 3450 4097 3450 3541 
Q 3450 3153 3228 2886 
Q 3006 2619 2597 2516 
z
" transform="scale(0.015625)"/>
       </defs>
       <use xlink:href="#DejaVuSans-32"/>
       <use xlink:href="#DejaVuSans-30" x="63.623047"/>
       <use xlink:href="#DejaVuSans-32" x="127.246094"/>
       <use xlink:href="#DejaVuSans-32" x="190.869141"/>
       <use xlink:href="#DejaVuSans-2d" x="254.492188"/>
       <use xlink:href="#DejaVuSans-30" x="290.576172"/>
       <use xlink:href="#DejaVuSans-31" x="354.199219"/>
       <use xlink:href="#DejaVuSans-2d" x="417.822266"/>
       <use xlink:href="#DejaVuSans-30" x="453.90625"/>
       <use xlink:href="#DejaVuSans-33" x="517.529297"/>
      </g>
     </g>
    </g>
    <g id="xtick_3">
     <g id="line2d_3">
      <g>
       <use xlink:href="#m1ddc4550b7" x="281.842052" y="320.4" style="stroke: #000000; stroke-width: 0.8"/>
      </g>
     </g>
     <g id="text_3">
      <!-- 2022-01-05 -->
      <g transform="translate(246.972677 336.518125) scale(0.12 -0.12)">
       <defs>
        <path id="DejaVuSans-35" d="M 691 4666 
L 3169 4666 
L 3169 4134 
L 1269 4134 
L 1269 2991 
Q 1406 3038 1543 3061 
Q 1681 3084 1819 3084 
Q 2600 3084 3056 2656 
Q 3513 2228 3513 1497 
Q 3513 744 3044 326 
Q 2575 -91 1722 -91 
Q 1428 -91 1123 -41 
Q 819 9 494 109 
L 494 744 
Q 775 591 1075 516 
Q 1375 441 1709 441 
Q 2250 441 2565 725 
Q 2881 1009 2881 1497 
Q 2881 1984 2565 2268 
Q 2250 2553 1709 2553 
Q 1456 2553 1204 2497 
Q 953 2441 691 2322 
L 691 4666 
z
" transform="scale(0.015625)"/>
       </defs>
       <use xlink:href="#DejaVuSans-32"/>
       <use xlink:href="#DejaVuSans-30" x="63.623047"/>
       <use xlink:href="#DejaVuSans-32" x="127.246094"/>
       <use xlink:href="#DejaVuSans-32" x="190.869141"/>
       <use xlink:href="#DejaVuSans-2d" x="254.492188"/>
       <use xlink:href="#DejaVuSans-30" x="290.576172"/>
       <use xlink:href="#DejaVuSans-31" x="354.199219"/>
       <use xlink:href="#DejaVuSans-2d" x="417.822266"/>
       <use xlink:href="#DejaVuSans-30" x="453.90625"/>
       <use xlink:href="#DejaVuSans-35" x="517.529297"/>
      </g>
     </g>
    </g>
    <g id="xtick_4">
     <g id="line2d_4">
      <g>
       <use xlink:href="#m1ddc4550b7" x="353.544897" y="320.4" style="stroke: #000000; stroke-width: 0.8"/>
      </g>
     </g>
     <g id="text_4">
      <!-- 2022-01-07 -->
      <g transform="translate(318.675522 336.518125) scale(0.12 -0.12)">
       <defs>
        <path id="DejaVuSans-37" d="M 525 4666 
L 3525 4666 
L 3525 4397 
L 1831 0 
L 1172 0 
L 2766 4134 
L 525 4134 
L 525 4666 
z
" transform="scale(0.015625)"/>
       </defs>
       <use xlink:href="#DejaVuSans-32"/>
       <use xlink:href="#DejaVuSans-30" x="63.623047"/>
       <use xlink:href="#DejaVuSans-32" x="127.246094"/>
       <use xlink:href="#DejaVuSans-32" x="190.869141"/>
       <use xlink:href="#DejaVuSans-2d" x="254.492188"/>
       <use xlink:href="#DejaVuSans-30" x="290.576172"/>
       <use xlink:href="#DejaVuSans-31" x="354.199219"/>
       <use xlink:href="#DejaVuSans-2d" x="417.822266"/>
       <use xlink:href="#DejaVuSans-30" x="453.90625"/>
       <use xlink:href="#DejaVuSans-37" x="517.529297"/>
      </g>
     </g>
    </g>
    <g id="xtick_5">
     <g id="line2d_5">
      <g>
       <use xlink:href="#m1ddc4550b7" x="425.247741" y="320.4" style="stroke: #000000; stroke-width: 0.8"/>
      </g>
     </g>
     <g id="text_5">
      <!-- 2022-01-09 -->
      <g transform="translate(390.378366 336.518125) scale(0.12 -0.12)">
       <defs>
        <path id="DejaVuSans-39" d="M 703 97 
L 703 672 
Q 941 559 1184 500 
Q 1428 441 1663 441 
Q 2288 441 2617 861 
Q 2947 1281 2994 2138 
Q 2813 1869 2534 1725 
Q 2256 1581 1919 1581 
Q 1219 1581 811 2004 
Q 403 2428 403 3163 
Q 403 3881 828 4315 
Q 1253 4750 1959 4750 
Q 2769 4750 3195 4129 
Q 3622 3509 3622 2328 
Q 3622 1225 3098 567 
Q 2575 -91 1691 -91 
Q 1453 -91 1209 -44 
Q 966 3 703 97 
z
M 1959 2075 
Q 2384 2075 2632 2365 
Q 2881 2656 2881 3163 
Q 2881 3666 2632 3958 
Q 2384 4250 1959 4250 
Q 1534 4250 1286 3958 
Q 1038 3666 1038 3163 
Q 1038 2656 1286 2365 
Q 1534 2075 1959 2075 
z
" transform="scale(0.015625)"/>
       </defs>
       <use xlink:href="#DejaVuSans-32"/>
       <use xlink:href="#DejaVuSans-30" x="63.623047"/>
       <use xlink:href="#DejaVuSans-32" x="127.246094"/>
       <use xlink:href="#DejaVuSans-32" x="190.869141"/>
       <use xlink:href="#DejaVuSans-2d" x="254.492188"/>
       <use xlink:href="#DejaVuSans-30" x="290.576172"/>
       <use xlink:href="#DejaVuSans-31" x="354.199219"/>
       <use xlink:href="#DejaVuSans-2d" x="417.822266"/>
       <use xlink:href="#DejaVuSans-30" x="453.90625"/>
       <use xlink:href="#DejaVuSans-39" x="517.529297"/>
      </g>
     </g>
    </g>
    <g id="xtick_6">
     <g id="line2d_6">
      <g>
       <use xlink:href="#m1ddc4550b7" x="496.950586" y="320.4" style="stroke: #000000; stroke-width: 0.8"/>
      </g>
     </g>
     <g id="text_6">
      <!-- 2022-01-11 -->
      <g transform="translate(462.081211 336.518125) scale(0.12 -0.12)">
       <use xlink:href="#DejaVuSans-32"/>
       <use xlink:href="#DejaVuSans-30" x="63.623047"/>
       <use xlink:href="#DejaVuSans-32" x="127.246094"/>
       <use xlink:href="#DejaVuSans-32" x="190.869141"/>
       <use xlink:href="#DejaVuSans-2d" x="254.492188"/>
       <use xlink:href="#DejaVuSans-30" x="290.576172"/>
       <use xlink:href="#DejaVuSans-31" x="354.199219"/>
       <use xlink:href="#DejaVuSans-2d" x="417.822266"/>
       <use xlink:href="#DejaVuSans-31" x="453.90625"/>
       <use xlink:href="#DejaVuSans-31" x="517.529297"/>
      </g>
     </g>
    </g>
    <g id="xtick_7">
     <g id="line2d_7">
      <g>
       <use xlink:href="#m1ddc4550b7" x="568.65343" y="320.4" style="stroke: #000000; stroke-width: 0.8"/>
      </g>
     </g>
     <g id="text_7">
      <!-- 2022-01-13 -->
      <g transform="translate(533.784055 336.518125) scale(0.12 -0.12)">
       <use xlink:href="#DejaVuSans-32"/>
       <use xlink:href="#DejaVuSans-30" x="63.623047"/>
       <use xlink:href="#DejaVuSans-32" x="127.246094"/>
       <use xlink:href="#DejaVuSans-32" x="190.869141"/>
       <use xlink:href="#DejaVuSans-2d" x="254.492188"/>
       <use xlink:href="#DejaVuSans-30" x="290.576172"/>
       <use xlink:href="#DejaVuSans-31" x="354.199219"/>
       <use xlink:href="#DejaVuSans-2d" x="417.822266"/>
       <use xlink:href="#DejaVuSans-31" x="453.90625"/>
       <use xlink:href="#DejaVuSans-33" x="517.529297"/>
      </g>
     </g>
    </g>
    <g id="xtick_8">
     <g id="line2d_8">
      <g>
       <use xlink:href="#m1ddc4550b7" x="640.356274" y="320.4" style="stroke: #000000; stroke-width: 0.8"/>
      </g>
     </g>
     <g id="text_8">
      <!-- 2022-01-15 -->
      <g transform="translate(605.486899 336.518125) scale(0.12 -0.12)">
       <use xlink:href="#DejaVuSans-32"/>
       <use xlink:href="#DejaVuSans-30" x="63.623047"/>
       <use xlink:href="#DejaVuSans-32" x="127.246094"/>
       <use xlink:href="#DejaVuSans-32" x="190.869141"/>
       <use xlink:href="#DejaVuSans-2d" x="254.492188"/>
       <use xlink:href="#DejaVuSans-30" x="290.576172"/>
       <use xlink:href="#DejaVuSans-31" x="354.199219"/>
       <use xlink:href="#DejaVuSans-2d" x="417.822266"/>
       <use xlink:href="#DejaVuSans-31" x="453.90625"/>
       <use xlink:href="#DejaVuSans-35" x="517.529297"/>
      </g>
     </g>
    </g>
    <g id="xtick_9">
     <g id="line2d_9">
      <g>
       <use xlink:href="#m1ddc4550b7" x="712.059119" y="320.4" style="stroke: #000000; stroke-width: 0.8"/>
      </g>
     </g>
     <g id="text_9">
      <!-- 2022-01-17 -->
      <g transform="translate(677.189744 336.518125) scale(0.12 -0.12)">
       <use xlink:href="#DejaVuSans-32"/>
       <use xlink:href="#DejaVuSans-30" x="63.623047"/>
       <use xlink:href="#DejaVuSans-32" x="127.246094"/>
       <use xlink:href="#DejaVuSans-32" x="190.869141"/>
       <use xlink:href="#DejaVuSans-2d" x="254.492188"/>
       <use xlink:href="#DejaVuSans-30" x="290.576172"/>
       <use xlink:href="#DejaVuSans-31" x="354.199219"/>
       <use xlink:href="#DejaVuSans-2d" x="417.822266"/>
       <use xlink:href="#DejaVuSans-31" x="453.90625"/>
       <use xlink:href="#DejaVuSans-37" x="517.529297"/>
      </g>
     </g>
    </g>
    <g id="text_10">
     <!-- TIME (DAYS) -->
     <g transform="translate(393.97375 355.17125) scale(0.16 -0.16)">
      <defs>
       <path id="DejaVuSans-54" d="M -19 4666 
L 3928 4666 
L 3928 4134 
L 2272 4134 
L 2272 0 
L 1638 0 
L 1638 4134 
L -19 4134 
L -19 4666 
z
" transform="scale(0.015625)"/>
       <path id="DejaVuSans-49" d="M 628 4666 
L 1259 4666 
L 1259 0 
L 628 0 
L 628 4666 
z
" transform="scale(0.015625)"/>
       <path id="DejaVuSans-4d" d="M 628 4666 
L 1569 4666 
L 2759 1491 
L 3956 4666 
L 4897 4666 
L 4897 0 
L 4281 0 
L 4281 4097 
L 3078 897 
L 2444 897 
L 1241 4097 
L 1241 0 
L 628 0 
L 628 4666 
z
" transform="scale(0.015625)"/>
       <path id="DejaVuSans-45" d="M 628 4666 
L 3578 4666 
L 3578 4134 
L 1259 4134 
L 1259 2753 
L 3481 2753 
L 3481 2222 
L 1259 2222 
L 1259 531 
L 3634 531 
L 3634 0 
L 628 0 
L 628 4666 
z
" transform="scale(0.015625)"/>
       <path id="DejaVuSans-20" transform="scale(0.015625)"/>
       <path id="DejaVuSans-28" d="M 1984 4856 
Q 1566 4138 1362 3434 
Q 1159 2731 1159 2009 
Q 1159 1288 1364 580 
Q 1569 -128 1984 -844 
L 1484 -844 
Q 1016 -109 783 600 
Q 550 1309 550 2009 
Q 550 2706 781 3412 
Q 1013 4119 1484 4856 
L 1984 4856 
z
" transform="scale(0.015625)"/>
       <path id="DejaVuSans-44" d="M 1259 4147 
L 1259 519 
L 2022 519 
Q 2988 519 3436 956 
Q 3884 1394 3884 2338 
Q 3884 3275 3436 3711 
Q 2988 4147 2022 4147 
L 1259 4147 
z
M 628 4666 
L 1925 4666 
Q 3281 4666 3915 4102 
Q 4550 3538 4550 2338 
Q 4550 1131 3912 565 
Q 3275 0 1925 0 
L 628 0 
L 628 4666 
z
" transform="scale(0.015625)"/>
       <path id="DejaVuSans-41" d="M 2188 4044 
L 1331 1722 
L 3047 1722 
L 2188 4044 
z
M 1831 4666 
L 2547 4666 
L 4325 0 
L 3669 0 
L 3244 1197 
L 1141 1197 
L 716 0 
L 50 0 
L 1831 4666 
z
" transform="scale(0.015625)"/>
       <path id="DejaVuSans-59" d="M -13 4666 
L 666 4666 
L 1959 2747 
L 3244 4666 
L 3922 4666 
L 2272 2222 
L 2272 0 
L 1638 0 
L 1638 2222 
L -13 4666 
z
" transform="scale(0.015625)"/>
       <path id="DejaVuSans-53" d="M 3425 4513 
L 3425 3897 
Q 3066 4069 2747 4153 
Q 2428 4238 2131 4238 
Q 1616 4238 1336 4038 
Q 1056 3838 1056 3469 
Q 1056 3159 1242 3001 
Q 1428 2844 1947 2747 
L 2328 2669 
Q 3034 2534 3370 2195 
Q 3706 1856 3706 1288 
Q 3706 609 3251 259 
Q 2797 -91 1919 -91 
Q 1588 -91 1214 -16 
Q 841 59 441 206 
L 441 856 
Q 825 641 1194 531 
Q 1563 422 1919 422 
Q 2459 422 2753 634 
Q 3047 847 3047 1241 
Q 3047 1584 2836 1778 
Q 2625 1972 2144 2069 
L 1759 2144 
Q 1053 2284 737 2584 
Q 422 2884 422 3419 
Q 422 4038 858 4394 
Q 1294 4750 2059 4750 
Q 2388 4750 2728 4690 
Q 3069 4631 3425 4513 
z
" transform="scale(0.015625)"/>
       <path id="DejaVuSans-29" d="M 513 4856 
L 1013 4856 
Q 1481 4119 1714 3412 
Q 1947 2706 1947 2009 
Q 1947 1309 1714 600 
Q 1481 -109 1013 -844 
L 513 -844 
Q 928 -128 1133 580 
Q 1338 1288 1338 2009 
Q 1338 2731 1133 3434 
Q 928 4138 513 4856 
z
" transform="scale(0.015625)"/>
      </defs>
      <use xlink:href="#DejaVuSans-54"/>
      <use xlink:href="#DejaVuSans-49" x="61.083984"/>
      <use xlink:href="#DejaVuSans-4d" x="90.576172"/>
      <use xlink:href="#DejaVuSans-45" x="176.855469"/>
      <use xlink:href="#DejaVuSans-20" x="240.039062"/>
      <use xlink:href="#DejaVuSans-28" x="271.826172"/>
      <use xlink:href="#DejaVuSans-44" x="310.839844"/>
      <use xlink:href="#DejaVuSans-41" x="386.091797"/>
      <use xlink:href="#DejaVuSans-59" x="446.75"/>
      <use xlink:href="#DejaVuSans-53" x="507.833984"/>
      <use xlink:href="#DejaVuSans-29" x="571.310547"/>
     </g>
    </g>
   </g>
   <g id="matplotlib.axis_2">
    <g id="ytick_1">
     <g id="line2d_10">
      <defs>
       <path id="m6d4046fbe2" d="M 0 0 
L -3.5 0 
" style="stroke: #000000; stroke-width: 0.8"/>
      </defs>
      <g>
       <use xlink:href="#m6d4046fbe2" x="108" y="307.8" style="stroke: #000000; stroke-width: 0.8"/>
      </g>
     </g>
     <g id="text_11">
      <!-- 0 -->
      <g transform="translate(93.365 312.359062) scale(0.12 -0.12)">
       <use xlink:href="#DejaVuSans-30"/>
      </g>
     </g>
    </g>
    <g id="ytick_2">
     <g id="line2d_11">
      <g>
       <use xlink:href="#m6d4046fbe2" x="108" y="265.088136" style="stroke: #000000; stroke-width: 0.8"/>
      </g>
     </g>
     <g id="text_12">
      <!-- 50 -->
      <g transform="translate(85.73 269.647198) scale(0.12 -0.12)">
       <use xlink:href="#DejaVuSans-35"/>
       <use xlink:href="#DejaVuSans-30" x="63.623047"/>
      </g>
     </g>
    </g>
    <g id="ytick_3">
     <g id="line2d_12">
      <g>
       <use xlink:href="#m6d4046fbe2" x="108" y="222.376271" style="stroke: #000000; stroke-width: 0.8"/>
      </g>
     </g>
     <g id="text_13">
      <!-- 100 -->
      <g transform="translate(78.095 226.935334) scale(0.12 -0.12)">
       <use xlink:href="#DejaVuSans-31"/>
       <use xlink:href="#DejaVuSans-30" x="63.623047"/>
       <use xlink:href="#DejaVuSans-30" x="127.246094"/>
      </g>
     </g>
    </g>
    <g id="ytick_4">
     <g id="line2d_13">
      <g>
       <use xlink:href="#m6d4046fbe2" x="108" y="179.664407" style="stroke: #000000; stroke-width: 0.8"/>
      </g>
     </g>
     <g id="text_14">
      <!-- 150 -->
      <g transform="translate(78.095 184.223469) scale(0.12 -0.12)">
       <use xlink:href="#DejaVuSans-31"/>
       <use xlink:href="#DejaVuSans-35" x="63.623047"/>
       <use xlink:href="#DejaVuSans-30" x="127.246094"/>
      </g>
     </g>
    </g>
    <g id="ytick_5">
     <g id="line2d_14">
      <g>
       <use xlink:href="#m6d4046fbe2" x="108" y="136.952542" style="stroke: #000000; stroke-width: 0.8"/>
      </g>
     </g>
     <g id="text_15">
      <!-- 200 -->
      <g transform="translate(78.095 141.511605) scale(0.12 -0.12)">
       <use xlink:href="#DejaVuSans-32"/>
       <use xlink:href="#DejaVuSans-30" x="63.623047"/>
       <use xlink:href="#DejaVuSans-30" x="127.246094"/>
      </g>
     </g>
    </g>
    <g id="ytick_6">
     <g id="line2d_15">
      <g>
       <use xlink:href="#m6d4046fbe2" x="108" y="94.240678" style="stroke: #000000; stroke-width: 0.8"/>
      </g>
     </g>
     <g id="text_16">
      <!-- 250 -->
      <g transform="translate(78.095 98.79974) scale(0.12 -0.12)">
       <use xlink:href="#DejaVuSans-32"/>
       <use xlink:href="#DejaVuSans-35" x="63.623047"/>
       <use xlink:href="#DejaVuSans-30" x="127.246094"/>
      </g>
     </g>
    </g>
    <g id="ytick_7">
     <g id="line2d_16">
      <g>
       <use xlink:href="#m6d4046fbe2" x="108" y="51.528814" style="stroke: #000000; stroke-width: 0.8"/>
      </g>
     </g>
     <g id="text_17">
      <!-- 300 -->
      <g transform="translate(78.095 56.087876) scale(0.12 -0.12)">
       <use xlink:href="#DejaVuSans-33"/>
       <use xlink:href="#DejaVuSans-30" x="63.623047"/>
       <use xlink:href="#DejaVuSans-30" x="127.246094"/>
      </g>
     </g>
    </g>
    <g id="text_18">
     <!-- SIMULATED -->
     <g transform="translate(52.851 227.5875) rotate(-90) scale(0.16 -0.16)">
      <defs>
       <path id="DejaVuSans-55" d="M 556 4666 
L 1191 4666 
L 1191 1831 
Q 1191 1081 1462 751 
Q 1734 422 2344 422 
Q 2950 422 3222 751 
Q 3494 1081 3494 1831 
L 3494 4666 
L 4128 4666 
L 4128 1753 
Q 4128 841 3676 375 
Q 3225 -91 2344 -91 
Q 1459 -91 1007 375 
Q 556 841 556 1753 
L 556 4666 
z
" transform="scale(0.015625)"/>
       <path id="DejaVuSans-4c" d="M 628 4666 
L 1259 4666 
L 1259 531 
L 3531 531 
L 3531 0 
L 628 0 
L 628 4666 
z
" transform="scale(0.015625)"/>
      </defs>
      <use xlink:href="#DejaVuSans-53"/>
      <use xlink:href="#DejaVuSans-49" x="63.476562"/>
      <use xlink:href="#DejaVuSans-4d" x="92.96875"/>
      <use xlink:href="#DejaVuSans-55" x="179.248047"/>
      <use xlink:href="#DejaVuSans-4c" x="252.441406"/>
      <use xlink:href="#DejaVuSans-41" x="310.404297"/>
      <use xlink:href="#DejaVuSans-54" x="371.0625"/>
      <use xlink:href="#DejaVuSans-45" x="432.146484"/>
      <use xlink:href="#DejaVuSans-44" x="495.330078"/>
     </g>
     <!-- AMPLITUDE -->
     <g transform="translate(70.7675 227.7725) rotate(-90) scale(0.16 -0.16)">
      <defs>
       <path id="DejaVuSans-50" d="M 1259 4147 
L 1259 2394 
L 2053 2394 
Q 2494 2394 2734 2622 
Q 2975 2850 2975 3272 
Q 2975 3691 2734 3919 
Q 2494 4147 2053 4147 
L 1259 4147 
z
M 628 4666 
L 2053 4666 
Q 2838 4666 3239 4311 
Q 3641 3956 3641 3272 
Q 3641 2581 3239 2228 
Q 2838 1875 2053 1875 
L 1259 1875 
L 1259 0 
L 628 0 
L 628 4666 
z
" transform="scale(0.015625)"/>
      </defs>
      <use xlink:href="#DejaVuSans-41"/>
      <use xlink:href="#DejaVuSans-4d" x="68.408203"/>
      <use xlink:href="#DejaVuSans-50" x="154.6875"/>
      <use xlink:href="#DejaVuSans-4c" x="214.990234"/>
      <use xlink:href="#DejaVuSans-49" x="270.703125"/>
      <use xlink:href="#DejaVuSans-54" x="300.195312"/>
      <use xlink:href="#DejaVuSans-55" x="361.279297"/>
      <use xlink:href="#DejaVuSans-44" x="434.472656"/>
      <use xlink:href="#DejaVuSans-45" x="511.474609"/>
     </g>
    </g>
   </g>
   <g id="line2d_17">
    <path d="M 138.436364 265.942373 
L 139.183268 254.837288 
L 139.930173 285.589831 
L 140.677078 279.610169 
L 141.423982 221.522034 
L 142.170887 265.088136 
L 142.917791 260.816949 
L 143.664696 259.962712 
L 144.411601 305.237288 
L 145.158505 307.8 
L 145.90541 297.549153 
L 146.652315 307.8 
L 147.399219 307.8 
L 148.146124 263.379661 
L 148.893028 307.8 
L 150.386838 307.8 
L 151.133742 297.549153 
L 151.880647 233.481356 
L 152.627552 284.735593 
L 153.374456 278.755932 
L 154.121361 277.047458 
L 154.868265 227.501695 
L 155.61517 290.715254 
L 156.362075 284.735593 
L 157.108979 245.440678 
L 157.855884 242.023729 
L 158.602789 164.288136 
L 159.349693 265.942373 
L 160.096598 179.664407 
L 160.843503 55.8 
L 161.590407 224.084746 
L 162.337312 253.128814 
L 163.084216 212.979661 
L 163.831121 217.250847 
L 164.578026 198.457627 
L 165.32493 221.522034 
L 166.071835 188.20678 
L 166.81874 234.335593 
L 167.565644 257.4 
L 168.312549 259.962712 
L 169.059453 153.183051 
L 169.806358 288.152542 
L 170.553263 297.549153 
L 171.300167 268.505085 
L 172.047072 183.935593 
L 172.793977 244.586441 
L 173.540881 277.047458 
L 174.287786 201.874576 
L 175.03469 259.108475 
L 175.781595 307.8 
L 176.5285 307.8 
L 177.275404 268.505085 
L 178.022309 261.671186 
L 178.769214 238.60678 
L 179.516118 307.8 
L 180.263023 307.8 
L 181.009927 273.630508 
L 181.756832 299.257627 
L 182.503737 281.318644 
L 183.250641 303.528814 
L 183.997546 274.484746 
L 184.744451 260.816949 
L 185.491355 307.8 
L 186.23826 307.8 
L 186.985165 219.813559 
L 187.732069 241.169492 
L 188.478974 258.254237 
L 189.225878 168.559322 
L 189.972783 307.8 
L 190.719688 224.938983 
L 191.466592 279.610169 
L 192.213497 216.39661 
L 192.960402 212.125424 
L 193.707306 240.315254 
L 194.454211 229.210169 
L 195.201115 283.881356 
L 195.94802 294.132203 
L 196.694925 199.311864 
L 197.441829 248.00339 
L 198.188734 257.4 
L 198.935639 156.6 
L 199.682543 212.125424 
L 200.429448 200.166102 
L 201.176352 294.132203 
L 201.923257 160.871186 
L 202.670162 139.515254 
L 203.417066 203.583051 
L 204.910876 291.569492 
L 205.65778 307.8 
L 207.15159 265.088136 
L 207.898494 227.501695 
L 208.645399 307.8 
L 209.392303 248.00339 
L 210.139208 307.8 
L 210.886113 253.128814 
L 211.633017 307.8 
L 212.379922 275.338983 
L 213.126827 286.444068 
L 213.873731 301.820339 
L 214.620636 307.8 
L 216.114445 307.8 
L 216.86135 288.152542 
L 217.608254 307.8 
L 219.848968 307.8 
L 220.595873 282.172881 
L 222.089682 307.8 
L 222.836587 232.627119 
L 223.583491 307.8 
L 224.330396 254.837288 
L 225.077301 239.461017 
L 225.824205 290.715254 
L 226.57111 259.962712 
L 227.318015 307.8 
L 228.064919 294.132203 
L 228.811824 268.505085 
L 229.558728 253.128814 
L 230.305633 192.477966 
L 231.052538 269.359322 
L 231.799442 245.440678 
L 232.546347 165.99661 
L 233.293252 283.881356 
L 234.040156 187.352542 
L 234.787061 224.084746 
L 236.28087 236.898305 
L 237.027775 287.298305 
L 237.774679 252.274576 
L 238.521584 211.271186 
L 239.268489 158.308475 
L 240.015393 164.288136 
L 240.762298 258.254237 
L 241.509202 182.227119 
L 242.256107 248.00339 
L 243.003012 250.566102 
L 243.749916 270.213559 
L 244.496821 276.19322 
L 245.243726 244.586441 
L 245.99063 234.335593 
L 246.737535 306.945763 
L 248.231344 252.274576 
L 249.725153 307.8 
L 250.472058 218.959322 
L 251.218963 307.8 
L 251.965867 307.8 
L 252.712772 266.79661 
L 253.459677 260.816949 
L 254.206581 259.962712 
L 254.953486 231.772881 
L 255.70039 307.8 
L 256.447295 300.966102 
L 257.1942 240.315254 
L 257.941104 195.894915 
L 258.688009 307.8 
L 259.434914 307.8 
L 260.181818 212.979661 
L 260.928723 227.501695 
L 261.675627 236.044068 
L 262.422532 276.19322 
L 263.169437 234.335593 
L 263.916341 212.125424 
L 264.663246 255.691525 
L 265.410151 273.630508 
L 267.650864 172.830508 
L 268.397769 234.335593 
L 269.144674 198.457627 
L 269.891578 256.545763 
L 270.638483 207 
L 271.385388 232.627119 
L 272.132292 216.39661 
L 272.879197 239.461017 
L 273.626102 164.288136 
L 274.373006 151.474576 
L 275.119911 210.416949 
L 275.866815 163.433898 
L 276.61372 218.959322 
L 277.360625 283.881356 
L 278.107529 285.589831 
L 278.854434 307.8 
L 279.601339 295.840678 
L 280.348243 307.8 
L 281.095148 259.108475 
L 281.842052 307.8 
L 282.588957 263.379661 
L 283.335862 303.528814 
L 284.082766 307.8 
L 284.829671 292.423729 
L 285.576576 268.505085 
L 286.32348 281.318644 
L 287.070385 307.8 
L 287.817289 228.355932 
L 288.564194 307.8 
L 290.058003 307.8 
L 290.804908 271.067797 
L 291.551813 307.8 
L 292.298717 277.901695 
L 293.045622 242.877966 
L 293.792526 307.8 
L 294.539431 307.8 
L 295.286336 250.566102 
L 296.780145 292.423729 
L 297.52705 266.79661 
L 298.273954 212.979661 
L 299.020859 201.874576 
L 299.767764 180.518644 
L 300.514668 270.213559 
L 301.261573 179.664407 
L 302.008477 272.776271 
L 302.755382 266.79661 
L 303.502287 160.871186 
L 304.249191 258.254237 
L 304.996096 205.291525 
L 305.743001 174.538983 
L 306.489905 172.830508 
L 307.23681 88.261017 
L 308.730619 302.674576 
L 309.477524 294.132203 
L 310.224428 288.152542 
L 310.971333 307.8 
L 311.718238 277.047458 
L 312.465142 234.335593 
L 313.212047 265.942373 
L 313.958951 231.772881 
L 314.705856 307.8 
L 316.94657 307.8 
L 317.693475 301.820339 
L 318.440379 307.8 
L 320.681093 307.8 
L 321.427998 238.60678 
L 322.174902 276.19322 
L 322.921807 307.8 
L 323.668712 296.694915 
L 324.415616 261.671186 
L 325.162521 307.8 
L 325.909426 218.959322 
L 326.65633 307.8 
L 327.403235 295.840678 
L 328.150139 214.688136 
L 328.897044 253.128814 
L 329.643949 307.8 
L 330.390853 307.8 
L 331.137758 301.820339 
L 331.884663 287.298305 
L 332.631567 307.8 
L 333.378472 231.772881 
L 334.125376 291.569492 
L 334.872281 271.922034 
L 335.619186 233.481356 
L 336.36609 306.945763 
L 337.112995 245.440678 
L 337.8599 116.450847 
L 338.606804 190.769492 
L 339.353709 232.627119 
L 340.100613 177.955932 
L 340.847518 261.671186 
L 341.594423 223.230508 
L 342.341327 209.562712 
L 343.088232 208.708475 
L 343.835137 288.152542 
L 344.582041 183.081356 
L 345.328946 248.857627 
L 346.075851 242.877966 
L 346.822755 163.433898 
L 347.56966 235.189831 
L 348.316564 230.064407 
L 349.063469 213.833898 
L 349.810374 307.8 
L 350.557278 307.8 
L 351.304183 248.857627 
L 352.051088 307.8 
L 352.797992 176.247458 
L 353.544897 294.986441 
L 354.291801 307.8 
L 355.038706 252.274576 
L 356.532515 307.8 
L 358.773229 307.8 
L 359.520134 253.983051 
L 360.267038 307.8 
L 361.013943 265.942373 
L 361.760848 259.962712 
L 362.507752 252.274576 
L 363.254657 307.8 
L 364.001562 301.820339 
L 364.748466 216.39661 
L 365.495371 306.945763 
L 366.242276 259.962712 
L 366.98918 307.8 
L 367.736085 203.583051 
L 368.482989 193.332203 
L 369.229894 148.057627 
L 369.976799 138.661017 
L 370.723703 281.318644 
L 371.470608 221.522034 
L 372.217513 205.291525 
L 372.964417 307.8 
L 373.711322 246.294915 
L 374.458226 204.437288 
L 375.205131 245.440678 
L 375.952036 138.661017 
L 376.69894 216.39661 
L 377.445845 269.359322 
L 378.19275 247.149153 
L 378.939654 282.172881 
L 379.686559 277.901695 
L 380.433463 219.813559 
L 381.180368 218.105085 
L 381.927273 199.311864 
L 382.674177 296.694915 
L 383.421082 259.962712 
L 384.167987 234.335593 
L 384.914891 177.101695 
L 385.661796 307.8 
L 386.408701 277.901695 
L 387.155605 307.8 
L 387.90251 307.8 
L 388.649414 270.213559 
L 389.396319 183.935593 
L 390.143224 307.8 
L 393.130842 307.8 
L 393.877747 219.813559 
L 394.624651 277.047458 
L 395.371556 241.169492 
L 396.118461 267.650847 
L 396.865365 307.8 
L 397.61227 253.983051 
L 398.359175 254.837288 
L 399.106079 227.501695 
L 399.852984 276.19322 
L 400.599888 256.545763 
L 401.346793 269.359322 
L 402.093698 182.227119 
L 402.840602 189.061017 
L 403.587507 294.986441 
L 404.334412 299.257627 
L 405.081316 276.19322 
L 405.828221 243.732203 
L 406.575125 238.60678 
L 407.32203 245.440678 
L 408.068935 275.338983 
L 408.815839 259.962712 
L 409.562744 169.413559 
L 411.056553 239.461017 
L 411.803458 253.983051 
L 412.550363 236.898305 
L 413.297267 253.983051 
L 414.044172 193.332203 
L 414.791076 289.00678 
L 415.537981 224.938983 
L 416.284886 277.901695 
L 417.03179 277.901695 
L 417.778695 267.650847 
L 418.5256 207 
L 419.272504 304.383051 
L 420.019409 274.484746 
L 420.766313 306.091525 
L 421.513218 260.816949 
L 422.260123 307.8 
L 423.007027 259.962712 
L 423.753932 271.067797 
L 424.500837 238.60678 
L 425.247741 266.79661 
L 425.994646 236.044068 
L 426.74155 307.8 
L 427.488455 263.379661 
L 428.23536 225.79322 
L 428.982264 307.8 
L 429.729169 307.8 
L 430.476074 283.881356 
L 431.222978 307.8 
L 431.969883 301.820339 
L 432.716788 233.481356 
L 433.463692 306.091525 
L 434.210597 269.359322 
L 434.957501 163.433898 
L 435.704406 300.966102 
L 436.451311 232.627119 
L 437.198215 292.423729 
L 437.94512 272.776271 
L 438.692025 288.152542 
L 439.438929 187.352542 
L 440.185834 236.898305 
L 440.932738 191.623729 
L 441.679643 210.416949 
L 442.426548 302.674576 
L 443.173452 198.457627 
L 443.920357 302.674576 
L 444.667262 260.816949 
L 445.414166 187.352542 
L 446.161071 140.369492 
L 446.907975 201.020339 
L 447.65488 235.189831 
L 448.401785 165.99661 
L 449.148689 224.084746 
L 449.895594 294.986441 
L 450.642499 283.027119 
L 451.389403 243.732203 
L 452.136308 216.39661 
L 452.883212 219.813559 
L 453.630117 253.128814 
L 454.377022 306.091525 
L 455.123926 291.569492 
L 455.870831 260.816949 
L 456.617736 273.630508 
L 457.36464 259.108475 
L 458.111545 306.091525 
L 458.85845 294.986441 
L 459.605354 307.8 
L 460.352259 277.047458 
L 461.099163 307.8 
L 461.846068 214.688136 
L 462.592973 307.8 
L 463.339877 255.691525 
L 464.086782 265.088136 
L 464.833687 222.376271 
L 465.580591 307.8 
L 466.327496 307.8 
L 467.0744 187.352542 
L 467.821305 307.8 
L 468.56821 307.8 
L 469.315114 279.610169 
L 470.062019 235.189831 
L 470.808924 290.715254 
L 471.555828 214.688136 
L 472.302733 303.528814 
L 473.049637 307.8 
L 473.796542 222.376271 
L 474.543447 213.833898 
L 475.290351 284.735593 
L 476.037256 259.108475 
L 476.784161 242.023729 
L 477.531065 228.355932 
L 478.27797 217.250847 
L 479.024875 177.955932 
L 479.771779 213.833898 
L 480.518684 221.522034 
L 481.265588 217.250847 
L 482.012493 145.494915 
L 482.759398 255.691525 
L 483.506302 226.647458 
L 484.253207 239.461017 
L 485.000112 288.152542 
L 485.747016 170.267797 
L 486.493921 266.79661 
L 487.240825 177.101695 
L 487.98773 195.894915 
L 488.734635 287.298305 
L 489.481539 230.064407 
L 490.975349 298.40339 
L 491.722253 209.562712 
L 492.469158 307.8 
L 493.216062 253.128814 
L 493.962967 307.8 
L 494.709872 289.861017 
L 495.456776 279.610169 
L 496.203681 288.152542 
L 496.950586 233.481356 
L 497.69749 297.549153 
L 498.444395 268.505085 
L 499.191299 307.8 
L 499.938204 242.877966 
L 500.685109 279.610169 
L 501.432013 262.525424 
L 502.178918 306.091525 
L 502.925823 307.8 
L 503.672727 307.8 
L 504.419632 279.610169 
L 505.166537 274.484746 
L 505.913441 224.938983 
L 506.660346 307.8 
L 508.154155 307.8 
L 508.90106 256.545763 
L 509.647964 307.8 
L 510.394869 97.657627 
L 511.141774 121.576271 
L 511.888678 102.783051 
L 512.635583 174.538983 
L 513.382487 229.210169 
L 514.129392 189.061017 
L 514.876297 203.583051 
L 515.623201 270.213559 
L 516.370106 307.8 
L 517.117011 227.501695 
L 517.863915 228.355932 
L 518.61082 207 
L 519.357724 289.00678 
L 520.104629 158.308475 
L 520.851534 307.8 
L 521.598438 224.938983 
L 522.345343 305.237288 
L 523.839152 226.647458 
L 524.586057 307.8 
L 525.332962 273.630508 
L 526.079866 305.237288 
L 526.826771 300.966102 
L 527.573675 307.8 
L 529.814389 307.8 
L 530.561294 259.962712 
L 531.308199 307.8 
L 532.802008 307.8 
L 533.548912 241.169492 
L 534.295817 306.091525 
L 535.042722 281.318644 
L 535.789626 201.020339 
L 536.536531 254.837288 
L 537.283436 237.752542 
L 538.03034 307.8 
L 538.777245 230.918644 
L 539.524149 226.647458 
L 540.271054 247.149153 
L 541.764863 297.549153 
L 542.511768 221.522034 
L 543.258673 263.379661 
L 544.005577 229.210169 
L 544.752482 178.810169 
L 545.499387 240.315254 
L 546.246291 134.389831 
L 546.993196 145.494915 
L 547.7401 221.522034 
L 548.487005 222.376271 
L 549.23391 162.579661 
L 549.980814 231.772881 
L 550.727719 232.627119 
L 551.474624 228.355932 
L 552.221528 225.79322 
L 552.968433 183.935593 
L 553.715337 257.4 
L 554.462242 217.250847 
L 555.209147 307.8 
L 555.956051 212.125424 
L 556.702956 222.376271 
L 557.449861 292.423729 
L 558.196765 306.945763 
L 558.94367 277.047458 
L 559.690574 307.8 
L 560.437479 307.8 
L 561.184384 275.338983 
L 561.931288 256.545763 
L 562.678193 304.383051 
L 563.425098 264.233898 
L 564.172002 259.962712 
L 564.918907 307.8 
L 565.665811 261.671186 
L 566.412716 249.711864 
L 567.159621 307.8 
L 567.906525 253.983051 
L 568.65343 259.108475 
L 569.400335 307.8 
L 570.147239 263.379661 
L 570.894144 281.318644 
L 571.641049 277.047458 
L 572.387953 203.583051 
L 573.134858 291.569492 
L 573.881762 235.189831 
L 574.628667 251.420339 
L 575.375572 198.457627 
L 576.122476 291.569492 
L 576.869381 265.088136 
L 577.616286 250.566102 
L 578.36319 271.067797 
L 579.110095 264.233898 
L 579.856999 168.559322 
L 580.603904 307.8 
L 581.350809 219.813559 
L 582.097713 199.311864 
L 582.844618 190.769492 
L 583.591523 218.959322 
L 584.338427 286.444068 
L 585.085332 132.681356 
L 585.832236 298.40339 
L 586.579141 258.254237 
L 587.326046 283.027119 
L 588.07295 181.372881 
L 588.819855 244.586441 
L 589.56676 244.586441 
L 590.313664 283.027119 
L 591.060569 307.8 
L 591.807474 307.8 
L 592.554378 284.735593 
L 593.301283 307.8 
L 594.048187 271.067797 
L 594.795092 307.8 
L 595.541997 277.901695 
L 596.288901 307.8 
L 597.035806 241.169492 
L 597.782711 300.111864 
L 598.529615 307.8 
L 599.27652 307.8 
L 600.023424 294.132203 
L 600.770329 307.8 
L 606.745566 307.8 
L 607.492471 240.315254 
L 608.239375 307.8 
L 608.98628 283.027119 
L 609.733185 202.728814 
L 610.480089 307.8 
L 611.226994 259.962712 
L 611.973898 230.064407 
L 612.720803 253.128814 
L 613.467708 289.861017 
L 614.214612 293.277966 
L 614.961517 231.772881 
L 615.708422 190.769492 
L 616.455326 247.149153 
L 617.202231 249.711864 
L 617.949136 238.60678 
L 618.69604 207 
L 620.189849 258.254237 
L 620.936754 277.047458 
L 621.683659 250.566102 
L 622.430563 210.416949 
L 623.177468 307.8 
L 623.924373 269.359322 
L 624.671277 287.298305 
L 625.418182 297.549153 
L 626.165086 257.4 
L 626.911991 307.8 
L 627.658896 307.8 
L 628.4058 293.277966 
L 629.152705 283.881356 
L 629.89961 307.8 
L 630.646514 307.8 
L 631.393419 285.589831 
L 632.140323 307.8 
L 632.887228 307.8 
L 633.634133 232.627119 
L 634.381037 297.549153 
L 635.127942 273.630508 
L 635.874847 289.00678 
L 636.621751 301.820339 
L 637.368656 298.40339 
L 638.115561 266.79661 
L 638.862465 249.711864 
L 639.60937 226.647458 
L 640.356274 193.332203 
L 641.103179 222.376271 
L 641.850084 298.40339 
L 642.596988 307.8 
L 643.343893 306.091525 
L 644.090798 306.945763 
L 644.837702 233.481356 
L 645.584607 176.247458 
L 646.331511 197.60339 
L 647.078416 149.766102 
L 647.825321 223.230508 
L 648.572225 271.067797 
L 649.31913 237.752542 
L 650.066035 285.589831 
L 650.812939 214.688136 
L 651.559844 262.525424 
L 652.306748 160.871186 
L 653.800558 278.755932 
L 655.294367 181.372881 
L 656.041272 294.986441 
L 656.788176 257.4 
L 657.535081 245.440678 
L 658.281985 253.128814 
L 659.02889 217.250847 
L 659.775795 248.857627 
L 660.522699 251.420339 
L 661.269604 245.440678 
L 662.016509 307.8 
L 662.763413 257.4 
L 663.510318 290.715254 
L 664.257223 307.8 
L 665.004127 307.8 
L 665.751032 226.647458 
L 666.497936 307.8 
L 667.244841 307.8 
L 667.991746 276.19322 
L 668.73865 304.383051 
L 669.485555 307.8 
L 671.726269 307.8 
L 672.473173 299.257627 
L 673.220078 213.833898 
L 673.966983 291.569492 
L 674.713887 265.942373 
L 675.460792 198.457627 
L 676.207697 262.525424 
L 676.954601 307.8 
L 677.701506 277.047458 
L 678.44841 230.918644 
L 679.195315 204.437288 
L 679.94222 280.464407 
L 680.689124 252.274576 
L 681.436029 176.247458 
L 682.182934 177.955932 
L 682.929838 293.277966 
L 683.676743 256.545763 
L 684.423648 260.816949 
L 685.170552 209.562712 
L 685.917457 198.457627 
L 686.664361 222.376271 
L 687.411266 237.752542 
L 688.158171 222.376271 
L 688.905075 219.813559 
L 689.65198 296.694915 
L 690.398885 235.189831 
L 691.145789 189.061017 
L 691.892694 234.335593 
L 692.639598 287.298305 
L 693.386503 302.674576 
L 694.133408 307.8 
L 695.627217 307.8 
L 696.374122 188.20678 
L 697.121026 235.189831 
L 697.867931 307.8 
L 698.614835 271.067797 
L 699.36174 227.501695 
L 700.108645 272.776271 
L 700.855549 307.8 
L 702.349359 307.8 
L 703.096263 244.586441 
L 703.843168 290.715254 
L 704.590073 307.8 
L 705.336977 233.481356 
L 706.083882 307.8 
L 706.830786 247.149153 
L 707.577691 307.8 
L 708.324596 265.942373 
L 709.0715 241.169492 
L 709.818405 280.464407 
L 710.56531 284.735593 
L 711.312214 253.128814 
L 712.059119 196.749153 
L 712.806023 307.8 
L 713.552928 215.542373 
L 714.299833 225.79322 
L 715.046737 205.291525 
L 715.793642 226.647458 
L 716.540547 241.169492 
L 717.287451 244.586441 
L 718.034356 226.647458 
L 718.78126 165.142373 
L 719.528165 227.501695 
L 720.27507 277.901695 
L 721.021974 195.894915 
L 721.768879 307.8 
L 722.515784 248.00339 
L 723.262688 248.857627 
L 724.009593 258.254237 
L 724.756497 300.111864 
L 725.503402 261.671186 
L 726.250307 241.169492 
L 726.997211 235.189831 
L 727.744116 215.542373 
L 728.491021 208.708475 
L 729.237925 212.979661 
L 729.98483 307.8 
L 731.478639 307.8 
L 732.225544 242.023729 
L 732.972448 245.440678 
L 733.719353 250.566102 
L 734.466258 307.8 
L 735.213162 245.440678 
L 736.706972 307.8 
L 737.453876 213.833898 
L 738.200781 248.857627 
L 738.947685 307.8 
L 739.69459 264.233898 
L 740.441495 306.091525 
L 741.188399 291.569492 
L 741.935304 307.8 
L 742.682209 262.525424 
L 743.429113 307.8 
L 744.176018 298.40339 
L 744.922922 307.8 
L 745.669827 287.298305 
L 746.416732 274.484746 
L 747.163636 236.044068 
L 747.163636 236.044068 
" clip-path="url(#p55a010ff5a)" style="fill: none; stroke: #191970; stroke-width: 2; stroke-linecap: square"/>
   </g>
   <g id="patch_3">
    <path d="M 108 320.4 
L 108 43.2 
" style="fill: none; stroke: #000000; stroke-width: 0.8; stroke-linejoin: miter; stroke-linecap: square"/>
   </g>
   <g id="patch_4">
    <path d="M 777.6 320.4 
L 777.6 43.2 
" style="fill: none; stroke: #000000; stroke-width: 0.8; stroke-linejoin: miter; stroke-linecap: square"/>
   </g>
   <g id="patch_5">
    <path d="M 108 320.4 
L 777.6 320.4 
" style="fill: none; stroke: #000000; stroke-width: 0.8; stroke-linejoin: miter; stroke-linecap: square"/>
   </g>
   <g id="patch_6">
    <path d="M 108 43.2 
L 777.6 43.2 
" style="fill: none; stroke: #000000; stroke-width: 0.8; stroke-linejoin: miter; stroke-linecap: square"/>
   </g>
   <g id="text_19">
    <!-- TIME SERIES -->
    <g transform="translate(386.625938 37.2) scale(0.18 -0.18)">
     <defs>
      <path id="DejaVuSans-52" d="M 2841 2188 
Q 3044 2119 3236 1894 
Q 3428 1669 3622 1275 
L 4263 0 
L 3584 0 
L 2988 1197 
Q 2756 1666 2539 1819 
Q 2322 1972 1947 1972 
L 1259 1972 
L 1259 0 
L 628 0 
L 628 4666 
L 2053 4666 
Q 2853 4666 3247 4331 
Q 3641 3997 3641 3322 
Q 3641 2881 3436 2590 
Q 3231 2300 2841 2188 
z
M 1259 4147 
L 1259 2491 
L 2053 2491 
Q 2509 2491 2742 2702 
Q 2975 2913 2975 3322 
Q 2975 3731 2742 3939 
Q 2509 4147 2053 4147 
L 1259 4147 
z
" transform="scale(0.015625)"/>
     </defs>
     <use xlink:href="#DejaVuSans-54"/>
     <use xlink:href="#DejaVuSans-49" x="61.083984"/>
     <use xlink:href="#DejaVuSans-4d" x="90.576172"/>
     <use xlink:href="#DejaVuSans-45" x="176.855469"/>
     <use xlink:href="#DejaVuSans-20" x="240.039062"/>
     <use xlink:href="#DejaVuSans-53" x="271.826172"/>
     <use xlink:href="#DejaVuSans-45" x="335.302734"/>
     <use xlink:href="#DejaVuSans-52" x="398.486328"/>
     <use xlink:href="#DejaVuSans-49" x="467.96875"/>
     <use xlink:href="#DejaVuSans-45" x="497.460938"/>
     <use xlink:href="#DejaVuSans-53" x="560.644531"/>
    </g>
   </g>
  </g>
 </g>
 <defs>
  <clipPath id="p55a010ff5a">
   <rect x="108" y="43.2" width="669.6" height="277.2"/>
  </clipPath>
 </defs>
</svg>
