<?xml version="1.0" encoding="utf-8" standalone="no"?>
<!DOCTYPE svg PUBLIC "-//W3C//DTD SVG 1.1//EN"
  "http://www.w3.org/Graphics/SVG/1.1/DTD/svg11.dtd">
<svg xmlns:xlink="http://www.w3.org/1999/xlink" width="864pt" height="360pt" viewBox="0 0 864 360" xmlns="http://www.w3.org/2000/svg" version="1.1">
 <metadata>
  <rdf:RDF xmlns:dc="http://purl.org/dc/elements/1.1/" xmlns:cc="http://creativecommons.org/ns#" xmlns:rdf="http://www.w3.org/1999/02/22-rdf-syntax-ns#">
   <cc:Work>
    <dc:type rdf:resource="http://purl.org/dc/dcmitype/StillImage"/>
    <dc:date>2023-11-07T10:46:01.048283</dc:date>
    <dc:format>image/svg+xml</dc:format>
    <dc:creator>
     <cc:Agent>
      <dc:title>Matplotlib v3.7.1, https://matplotlib.org/</dc:title>
     </cc:Agent>
    </dc:creator>
   </cc:Work>
  </rdf:RDF>
 </metadata>
 <defs>
  <style type="text/css">*{stroke-linejoin: round; stroke-linecap: butt}</style>
 </defs>
 <g id="figure_1">
  <g id="patch_1">
   <path d="M 0 360 
L 864 360 
L 864 0 
L 0 0 
z
" style="fill: #ffffff"/>
  </g>
  <g id="axes_1">
   <g id="patch_2">
    <path d="M 108 320.4 
L 777.6 320.4 
L 777.6 43.2 
L 108 43.2 
z
" style="fill: #ffffff"/>
   </g>
   <g id="matplotlib.axis_1">
    <g id="xtick_1">
     <g id="line2d_1">
      <defs>
       <path id="mc0eb42a53f" d="M 0 0 
L 0 3.5 
" style="stroke: #000000; stroke-width: 0.8"/>
      </defs>
      <g>
       <use xlink:href="#mc0eb42a53f" x="138.436364" y="320.4" style="stroke: #000000; stroke-width: 0.8"/>
      </g>
     </g>
     <g id="text_1">
      <!-- 2022-01-01 -->
      <g transform="translate(109.378551 334.998438) scale(0.1 -0.1)">
       <defs>
        <path id="DejaVuSans-32" d="M 1228 531 
L 3431 531 
L 3431 0 
L 469 0 
L 469 531 
Q 828 903 1448 1529 
Q 2069 2156 2228 2338 
Q 2531 2678 2651 2914 
Q 2772 3150 2772 3378 
Q 2772 3750 2511 3984 
Q 2250 4219 1831 4219 
Q 1534 4219 1204 4116 
Q 875 4013 500 3803 
L 500 4441 
Q 881 4594 1212 4672 
Q 1544 4750 1819 4750 
Q 2544 4750 2975 4387 
Q 3406 4025 3406 3419 
Q 3406 3131 3298 2873 
Q 3191 2616 2906 2266 
Q 2828 2175 2409 1742 
Q 1991 1309 1228 531 
z
" transform="scale(0.015625)"/>
        <path id="DejaVuSans-30" d="M 2034 4250 
Q 1547 4250 1301 3770 
Q 1056 3291 1056 2328 
Q 1056 1369 1301 889 
Q 1547 409 2034 409 
Q 2525 409 2770 889 
Q 3016 1369 3016 2328 
Q 3016 3291 2770 3770 
Q 2525 4250 2034 4250 
z
M 2034 4750 
Q 2819 4750 3233 4129 
Q 3647 3509 3647 2328 
Q 3647 1150 3233 529 
Q 2819 -91 2034 -91 
Q 1250 -91 836 529 
Q 422 1150 422 2328 
Q 422 3509 836 4129 
Q 1250 4750 2034 4750 
z
" transform="scale(0.015625)"/>
        <path id="DejaVuSans-2d" d="M 313 2009 
L 1997 2009 
L 1997 1497 
L 313 1497 
L 313 2009 
z
" transform="scale(0.015625)"/>
        <path id="DejaVuSans-31" d="M 794 531 
L 1825 531 
L 1825 4091 
L 703 3866 
L 703 4441 
L 1819 4666 
L 2450 4666 
L 2450 531 
L 3481 531 
L 3481 0 
L 794 0 
L 794 531 
z
" transform="scale(0.015625)"/>
       </defs>
       <use xlink:href="#DejaVuSans-32"/>
       <use xlink:href="#DejaVuSans-30" x="63.623047"/>
       <use xlink:href="#DejaVuSans-32" x="127.246094"/>
       <use xlink:href="#DejaVuSans-32" x="190.869141"/>
       <use xlink:href="#DejaVuSans-2d" x="254.492188"/>
       <use xlink:href="#DejaVuSans-30" x="290.576172"/>
       <use xlink:href="#DejaVuSans-31" x="354.199219"/>
       <use xlink:href="#DejaVuSans-2d" x="417.822266"/>
       <use xlink:href="#DejaVuSans-30" x="453.90625"/>
       <use xlink:href="#DejaVuSans-31" x="517.529297"/>
      </g>
     </g>
    </g>
    <g id="xtick_2">
     <g id="line2d_2">
      <g>
       <use xlink:href="#mc0eb42a53f" x="202.583255" y="320.4" style="stroke: #000000; stroke-width: 0.8"/>
      </g>
     </g>
     <g id="text_2">
      <!-- 2022-01-03 -->
      <g transform="translate(173.525443 334.998438) scale(0.1 -0.1)">
       <defs>
        <path id="DejaVuSans-33" d="M 2597 2516 
Q 3050 2419 3304 2112 
Q 3559 1806 3559 1356 
Q 3559 666 3084 287 
Q 2609 -91 1734 -91 
Q 1441 -91 1130 -33 
Q 819 25 488 141 
L 488 750 
Q 750 597 1062 519 
Q 1375 441 1716 441 
Q 2309 441 2620 675 
Q 2931 909 2931 1356 
Q 2931 1769 2642 2001 
Q 2353 2234 1838 2234 
L 1294 2234 
L 1294 2753 
L 1863 2753 
Q 2328 2753 2575 2939 
Q 2822 3125 2822 3475 
Q 2822 3834 2567 4026 
Q 2313 4219 1838 4219 
Q 1578 4219 1281 4162 
Q 984 4106 628 3988 
L 628 4550 
Q 988 4650 1302 4700 
Q 1616 4750 1894 4750 
Q 2613 4750 3031 4423 
Q 3450 4097 3450 3541 
Q 3450 3153 3228 2886 
Q 3006 2619 2597 2516 
z
" transform="scale(0.015625)"/>
       </defs>
       <use xlink:href="#DejaVuSans-32"/>
       <use xlink:href="#DejaVuSans-30" x="63.623047"/>
       <use xlink:href="#DejaVuSans-32" x="127.246094"/>
       <use xlink:href="#DejaVuSans-32" x="190.869141"/>
       <use xlink:href="#DejaVuSans-2d" x="254.492188"/>
       <use xlink:href="#DejaVuSans-30" x="290.576172"/>
       <use xlink:href="#DejaVuSans-31" x="354.199219"/>
       <use xlink:href="#DejaVuSans-2d" x="417.822266"/>
       <use xlink:href="#DejaVuSans-30" x="453.90625"/>
       <use xlink:href="#DejaVuSans-33" x="517.529297"/>
      </g>
     </g>
    </g>
    <g id="xtick_3">
     <g id="line2d_3">
      <g>
       <use xlink:href="#mc0eb42a53f" x="266.730147" y="320.4" style="stroke: #000000; stroke-width: 0.8"/>
      </g>
     </g>
     <g id="text_3">
      <!-- 2022-01-05 -->
      <g transform="translate(237.672334 334.998438) scale(0.1 -0.1)">
       <defs>
        <path id="DejaVuSans-35" d="M 691 4666 
L 3169 4666 
L 3169 4134 
L 1269 4134 
L 1269 2991 
Q 1406 3038 1543 3061 
Q 1681 3084 1819 3084 
Q 2600 3084 3056 2656 
Q 3513 2228 3513 1497 
Q 3513 744 3044 326 
Q 2575 -91 1722 -91 
Q 1428 -91 1123 -41 
Q 819 9 494 109 
L 494 744 
Q 775 591 1075 516 
Q 1375 441 1709 441 
Q 2250 441 2565 725 
Q 2881 1009 2881 1497 
Q 2881 1984 2565 2268 
Q 2250 2553 1709 2553 
Q 1456 2553 1204 2497 
Q 953 2441 691 2322 
L 691 4666 
z
" transform="scale(0.015625)"/>
       </defs>
       <use xlink:href="#DejaVuSans-32"/>
       <use xlink:href="#DejaVuSans-30" x="63.623047"/>
       <use xlink:href="#DejaVuSans-32" x="127.246094"/>
       <use xlink:href="#DejaVuSans-32" x="190.869141"/>
       <use xlink:href="#DejaVuSans-2d" x="254.492188"/>
       <use xlink:href="#DejaVuSans-30" x="290.576172"/>
       <use xlink:href="#DejaVuSans-31" x="354.199219"/>
       <use xlink:href="#DejaVuSans-2d" x="417.822266"/>
       <use xlink:href="#DejaVuSans-30" x="453.90625"/>
       <use xlink:href="#DejaVuSans-35" x="517.529297"/>
      </g>
     </g>
    </g>
    <g id="xtick_4">
     <g id="line2d_4">
      <g>
       <use xlink:href="#mc0eb42a53f" x="330.877038" y="320.4" style="stroke: #000000; stroke-width: 0.8"/>
      </g>
     </g>
     <g id="text_4">
      <!-- 2022-01-07 -->
      <g transform="translate(301.819226 334.998438) scale(0.1 -0.1)">
       <defs>
        <path id="DejaVuSans-37" d="M 525 4666 
L 3525 4666 
L 3525 4397 
L 1831 0 
L 1172 0 
L 2766 4134 
L 525 4134 
L 525 4666 
z
" transform="scale(0.015625)"/>
       </defs>
       <use xlink:href="#DejaVuSans-32"/>
       <use xlink:href="#DejaVuSans-30" x="63.623047"/>
       <use xlink:href="#DejaVuSans-32" x="127.246094"/>
       <use xlink:href="#DejaVuSans-32" x="190.869141"/>
       <use xlink:href="#DejaVuSans-2d" x="254.492188"/>
       <use xlink:href="#DejaVuSans-30" x="290.576172"/>
       <use xlink:href="#DejaVuSans-31" x="354.199219"/>
       <use xlink:href="#DejaVuSans-2d" x="417.822266"/>
       <use xlink:href="#DejaVuSans-30" x="453.90625"/>
       <use xlink:href="#DejaVuSans-37" x="517.529297"/>
      </g>
     </g>
    </g>
    <g id="xtick_5">
     <g id="line2d_5">
      <g>
       <use xlink:href="#mc0eb42a53f" x="395.02393" y="320.4" style="stroke: #000000; stroke-width: 0.8"/>
      </g>
     </g>
     <g id="text_5">
      <!-- 2022-01-09 -->
      <g transform="translate(365.966117 334.998438) scale(0.1 -0.1)">
       <defs>
        <path id="DejaVuSans-39" d="M 703 97 
L 703 672 
Q 941 559 1184 500 
Q 1428 441 1663 441 
Q 2288 441 2617 861 
Q 2947 1281 2994 2138 
Q 2813 1869 2534 1725 
Q 2256 1581 1919 1581 
Q 1219 1581 811 2004 
Q 403 2428 403 3163 
Q 403 3881 828 4315 
Q 1253 4750 1959 4750 
Q 2769 4750 3195 4129 
Q 3622 3509 3622 2328 
Q 3622 1225 3098 567 
Q 2575 -91 1691 -91 
Q 1453 -91 1209 -44 
Q 966 3 703 97 
z
M 1959 2075 
Q 2384 2075 2632 2365 
Q 2881 2656 2881 3163 
Q 2881 3666 2632 3958 
Q 2384 4250 1959 4250 
Q 1534 4250 1286 3958 
Q 1038 3666 1038 3163 
Q 1038 2656 1286 2365 
Q 1534 2075 1959 2075 
z
" transform="scale(0.015625)"/>
       </defs>
       <use xlink:href="#DejaVuSans-32"/>
       <use xlink:href="#DejaVuSans-30" x="63.623047"/>
       <use xlink:href="#DejaVuSans-32" x="127.246094"/>
       <use xlink:href="#DejaVuSans-32" x="190.869141"/>
       <use xlink:href="#DejaVuSans-2d" x="254.492188"/>
       <use xlink:href="#DejaVuSans-30" x="290.576172"/>
       <use xlink:href="#DejaVuSans-31" x="354.199219"/>
       <use xlink:href="#DejaVuSans-2d" x="417.822266"/>
       <use xlink:href="#DejaVuSans-30" x="453.90625"/>
       <use xlink:href="#DejaVuSans-39" x="517.529297"/>
      </g>
     </g>
    </g>
    <g id="xtick_6">
     <g id="line2d_6">
      <g>
       <use xlink:href="#mc0eb42a53f" x="459.170821" y="320.4" style="stroke: #000000; stroke-width: 0.8"/>
      </g>
     </g>
     <g id="text_6">
      <!-- 2022-01-11 -->
      <g transform="translate(430.113009 334.998438) scale(0.1 -0.1)">
       <use xlink:href="#DejaVuSans-32"/>
       <use xlink:href="#DejaVuSans-30" x="63.623047"/>
       <use xlink:href="#DejaVuSans-32" x="127.246094"/>
       <use xlink:href="#DejaVuSans-32" x="190.869141"/>
       <use xlink:href="#DejaVuSans-2d" x="254.492188"/>
       <use xlink:href="#DejaVuSans-30" x="290.576172"/>
       <use xlink:href="#DejaVuSans-31" x="354.199219"/>
       <use xlink:href="#DejaVuSans-2d" x="417.822266"/>
       <use xlink:href="#DejaVuSans-31" x="453.90625"/>
       <use xlink:href="#DejaVuSans-31" x="517.529297"/>
      </g>
     </g>
    </g>
    <g id="xtick_7">
     <g id="line2d_7">
      <g>
       <use xlink:href="#mc0eb42a53f" x="523.317713" y="320.4" style="stroke: #000000; stroke-width: 0.8"/>
      </g>
     </g>
     <g id="text_7">
      <!-- 2022-01-13 -->
      <g transform="translate(494.2599 334.998438) scale(0.1 -0.1)">
       <use xlink:href="#DejaVuSans-32"/>
       <use xlink:href="#DejaVuSans-30" x="63.623047"/>
       <use xlink:href="#DejaVuSans-32" x="127.246094"/>
       <use xlink:href="#DejaVuSans-32" x="190.869141"/>
       <use xlink:href="#DejaVuSans-2d" x="254.492188"/>
       <use xlink:href="#DejaVuSans-30" x="290.576172"/>
       <use xlink:href="#DejaVuSans-31" x="354.199219"/>
       <use xlink:href="#DejaVuSans-2d" x="417.822266"/>
       <use xlink:href="#DejaVuSans-31" x="453.90625"/>
       <use xlink:href="#DejaVuSans-33" x="517.529297"/>
      </g>
     </g>
    </g>
    <g id="xtick_8">
     <g id="line2d_8">
      <g>
       <use xlink:href="#mc0eb42a53f" x="587.464604" y="320.4" style="stroke: #000000; stroke-width: 0.8"/>
      </g>
     </g>
     <g id="text_8">
      <!-- 2022-01-15 -->
      <g transform="translate(558.406792 334.998438) scale(0.1 -0.1)">
       <use xlink:href="#DejaVuSans-32"/>
       <use xlink:href="#DejaVuSans-30" x="63.623047"/>
       <use xlink:href="#DejaVuSans-32" x="127.246094"/>
       <use xlink:href="#DejaVuSans-32" x="190.869141"/>
       <use xlink:href="#DejaVuSans-2d" x="254.492188"/>
       <use xlink:href="#DejaVuSans-30" x="290.576172"/>
       <use xlink:href="#DejaVuSans-31" x="354.199219"/>
       <use xlink:href="#DejaVuSans-2d" x="417.822266"/>
       <use xlink:href="#DejaVuSans-31" x="453.90625"/>
       <use xlink:href="#DejaVuSans-35" x="517.529297"/>
      </g>
     </g>
    </g>
    <g id="xtick_9">
     <g id="line2d_9">
      <g>
       <use xlink:href="#mc0eb42a53f" x="651.611496" y="320.4" style="stroke: #000000; stroke-width: 0.8"/>
      </g>
     </g>
     <g id="text_9">
      <!-- 2022-01-17 -->
      <g transform="translate(622.553683 334.998438) scale(0.1 -0.1)">
       <use xlink:href="#DejaVuSans-32"/>
       <use xlink:href="#DejaVuSans-30" x="63.623047"/>
       <use xlink:href="#DejaVuSans-32" x="127.246094"/>
       <use xlink:href="#DejaVuSans-32" x="190.869141"/>
       <use xlink:href="#DejaVuSans-2d" x="254.492188"/>
       <use xlink:href="#DejaVuSans-30" x="290.576172"/>
       <use xlink:href="#DejaVuSans-31" x="354.199219"/>
       <use xlink:href="#DejaVuSans-2d" x="417.822266"/>
       <use xlink:href="#DejaVuSans-31" x="453.90625"/>
       <use xlink:href="#DejaVuSans-37" x="517.529297"/>
      </g>
     </g>
    </g>
    <g id="xtick_10">
     <g id="line2d_10">
      <g>
       <use xlink:href="#mc0eb42a53f" x="715.758387" y="320.4" style="stroke: #000000; stroke-width: 0.8"/>
      </g>
     </g>
     <g id="text_10">
      <!-- 2022-01-19 -->
      <g transform="translate(686.700575 334.998438) scale(0.1 -0.1)">
       <use xlink:href="#DejaVuSans-32"/>
       <use xlink:href="#DejaVuSans-30" x="63.623047"/>
       <use xlink:href="#DejaVuSans-32" x="127.246094"/>
       <use xlink:href="#DejaVuSans-32" x="190.869141"/>
       <use xlink:href="#DejaVuSans-2d" x="254.492188"/>
       <use xlink:href="#DejaVuSans-30" x="290.576172"/>
       <use xlink:href="#DejaVuSans-31" x="354.199219"/>
       <use xlink:href="#DejaVuSans-2d" x="417.822266"/>
       <use xlink:href="#DejaVuSans-31" x="453.90625"/>
       <use xlink:href="#DejaVuSans-39" x="517.529297"/>
      </g>
     </g>
    </g>
    <g id="text_11">
     <!-- TIME (DAYS) -->
     <g transform="translate(412.283594 348.676562) scale(0.1 -0.1)">
      <defs>
       <path id="DejaVuSans-54" d="M -19 4666 
L 3928 4666 
L 3928 4134 
L 2272 4134 
L 2272 0 
L 1638 0 
L 1638 4134 
L -19 4134 
L -19 4666 
z
" transform="scale(0.015625)"/>
       <path id="DejaVuSans-49" d="M 628 4666 
L 1259 4666 
L 1259 0 
L 628 0 
L 628 4666 
z
" transform="scale(0.015625)"/>
       <path id="DejaVuSans-4d" d="M 628 4666 
L 1569 4666 
L 2759 1491 
L 3956 4666 
L 4897 4666 
L 4897 0 
L 4281 0 
L 4281 4097 
L 3078 897 
L 2444 897 
L 1241 4097 
L 1241 0 
L 628 0 
L 628 4666 
z
" transform="scale(0.015625)"/>
       <path id="DejaVuSans-45" d="M 628 4666 
L 3578 4666 
L 3578 4134 
L 1259 4134 
L 1259 2753 
L 3481 2753 
L 3481 2222 
L 1259 2222 
L 1259 531 
L 3634 531 
L 3634 0 
L 628 0 
L 628 4666 
z
" transform="scale(0.015625)"/>
       <path id="DejaVuSans-20" transform="scale(0.015625)"/>
       <path id="DejaVuSans-28" d="M 1984 4856 
Q 1566 4138 1362 3434 
Q 1159 2731 1159 2009 
Q 1159 1288 1364 580 
Q 1569 -128 1984 -844 
L 1484 -844 
Q 1016 -109 783 600 
Q 550 1309 550 2009 
Q 550 2706 781 3412 
Q 1013 4119 1484 4856 
L 1984 4856 
z
" transform="scale(0.015625)"/>
       <path id="DejaVuSans-44" d="M 1259 4147 
L 1259 519 
L 2022 519 
Q 2988 519 3436 956 
Q 3884 1394 3884 2338 
Q 3884 3275 3436 3711 
Q 2988 4147 2022 4147 
L 1259 4147 
z
M 628 4666 
L 1925 4666 
Q 3281 4666 3915 4102 
Q 4550 3538 4550 2338 
Q 4550 1131 3912 565 
Q 3275 0 1925 0 
L 628 0 
L 628 4666 
z
" transform="scale(0.015625)"/>
       <path id="DejaVuSans-41" d="M 2188 4044 
L 1331 1722 
L 3047 1722 
L 2188 4044 
z
M 1831 4666 
L 2547 4666 
L 4325 0 
L 3669 0 
L 3244 1197 
L 1141 1197 
L 716 0 
L 50 0 
L 1831 4666 
z
" transform="scale(0.015625)"/>
       <path id="DejaVuSans-59" d="M -13 4666 
L 666 4666 
L 1959 2747 
L 3244 4666 
L 3922 4666 
L 2272 2222 
L 2272 0 
L 1638 0 
L 1638 2222 
L -13 4666 
z
" transform="scale(0.015625)"/>
       <path id="DejaVuSans-53" d="M 3425 4513 
L 3425 3897 
Q 3066 4069 2747 4153 
Q 2428 4238 2131 4238 
Q 1616 4238 1336 4038 
Q 1056 3838 1056 3469 
Q 1056 3159 1242 3001 
Q 1428 2844 1947 2747 
L 2328 2669 
Q 3034 2534 3370 2195 
Q 3706 1856 3706 1288 
Q 3706 609 3251 259 
Q 2797 -91 1919 -91 
Q 1588 -91 1214 -16 
Q 841 59 441 206 
L 441 856 
Q 825 641 1194 531 
Q 1563 422 1919 422 
Q 2459 422 2753 634 
Q 3047 847 3047 1241 
Q 3047 1584 2836 1778 
Q 2625 1972 2144 2069 
L 1759 2144 
Q 1053 2284 737 2584 
Q 422 2884 422 3419 
Q 422 4038 858 4394 
Q 1294 4750 2059 4750 
Q 2388 4750 2728 4690 
Q 3069 4631 3425 4513 
z
" transform="scale(0.015625)"/>
       <path id="DejaVuSans-29" d="M 513 4856 
L 1013 4856 
Q 1481 4119 1714 3412 
Q 1947 2706 1947 2009 
Q 1947 1309 1714 600 
Q 1481 -109 1013 -844 
L 513 -844 
Q 928 -128 1133 580 
Q 1338 1288 1338 2009 
Q 1338 2731 1133 3434 
Q 928 4138 513 4856 
z
" transform="scale(0.015625)"/>
      </defs>
      <use xlink:href="#DejaVuSans-54"/>
      <use xlink:href="#DejaVuSans-49" x="61.083984"/>
      <use xlink:href="#DejaVuSans-4d" x="90.576172"/>
      <use xlink:href="#DejaVuSans-45" x="176.855469"/>
      <use xlink:href="#DejaVuSans-20" x="240.039062"/>
      <use xlink:href="#DejaVuSans-28" x="271.826172"/>
      <use xlink:href="#DejaVuSans-44" x="310.839844"/>
      <use xlink:href="#DejaVuSans-41" x="386.091797"/>
      <use xlink:href="#DejaVuSans-59" x="446.75"/>
      <use xlink:href="#DejaVuSans-53" x="507.833984"/>
      <use xlink:href="#DejaVuSans-29" x="571.310547"/>
     </g>
    </g>
   </g>
   <g id="matplotlib.axis_2">
    <g id="ytick_1">
     <g id="line2d_11">
      <defs>
       <path id="m7124ebdd17" d="M 0 0 
L -3.5 0 
" style="stroke: #000000; stroke-width: 0.8"/>
      </defs>
      <g>
       <use xlink:href="#m7124ebdd17" x="108" y="307.8" style="stroke: #000000; stroke-width: 0.8"/>
      </g>
     </g>
     <g id="text_12">
      <!-- 0 -->
      <g transform="translate(94.6375 311.599219) scale(0.1 -0.1)">
       <use xlink:href="#DejaVuSans-30"/>
      </g>
     </g>
    </g>
    <g id="ytick_2">
     <g id="line2d_12">
      <g>
       <use xlink:href="#m7124ebdd17" x="108" y="274.2" style="stroke: #000000; stroke-width: 0.8"/>
      </g>
     </g>
     <g id="text_13">
      <!-- 10 -->
      <g transform="translate(88.275 277.999219) scale(0.1 -0.1)">
       <use xlink:href="#DejaVuSans-31"/>
       <use xlink:href="#DejaVuSans-30" x="63.623047"/>
      </g>
     </g>
    </g>
    <g id="ytick_3">
     <g id="line2d_13">
      <g>
       <use xlink:href="#m7124ebdd17" x="108" y="240.6" style="stroke: #000000; stroke-width: 0.8"/>
      </g>
     </g>
     <g id="text_14">
      <!-- 20 -->
      <g transform="translate(88.275 244.399219) scale(0.1 -0.1)">
       <use xlink:href="#DejaVuSans-32"/>
       <use xlink:href="#DejaVuSans-30" x="63.623047"/>
      </g>
     </g>
    </g>
    <g id="ytick_4">
     <g id="line2d_14">
      <g>
       <use xlink:href="#m7124ebdd17" x="108" y="207" style="stroke: #000000; stroke-width: 0.8"/>
      </g>
     </g>
     <g id="text_15">
      <!-- 30 -->
      <g transform="translate(88.275 210.799219) scale(0.1 -0.1)">
       <use xlink:href="#DejaVuSans-33"/>
       <use xlink:href="#DejaVuSans-30" x="63.623047"/>
      </g>
     </g>
    </g>
    <g id="ytick_5">
     <g id="line2d_15">
      <g>
       <use xlink:href="#m7124ebdd17" x="108" y="173.4" style="stroke: #000000; stroke-width: 0.8"/>
      </g>
     </g>
     <g id="text_16">
      <!-- 40 -->
      <g transform="translate(88.275 177.199219) scale(0.1 -0.1)">
       <defs>
        <path id="DejaVuSans-34" d="M 2419 4116 
L 825 1625 
L 2419 1625 
L 2419 4116 
z
M 2253 4666 
L 3047 4666 
L 3047 1625 
L 3713 1625 
L 3713 1100 
L 3047 1100 
L 3047 0 
L 2419 0 
L 2419 1100 
L 313 1100 
L 313 1709 
L 2253 4666 
z
" transform="scale(0.015625)"/>
       </defs>
       <use xlink:href="#DejaVuSans-34"/>
       <use xlink:href="#DejaVuSans-30" x="63.623047"/>
      </g>
     </g>
    </g>
    <g id="ytick_6">
     <g id="line2d_16">
      <g>
       <use xlink:href="#m7124ebdd17" x="108" y="139.8" style="stroke: #000000; stroke-width: 0.8"/>
      </g>
     </g>
     <g id="text_17">
      <!-- 50 -->
      <g transform="translate(88.275 143.599219) scale(0.1 -0.1)">
       <use xlink:href="#DejaVuSans-35"/>
       <use xlink:href="#DejaVuSans-30" x="63.623047"/>
      </g>
     </g>
    </g>
    <g id="ytick_7">
     <g id="line2d_17">
      <g>
       <use xlink:href="#m7124ebdd17" x="108" y="106.2" style="stroke: #000000; stroke-width: 0.8"/>
      </g>
     </g>
     <g id="text_18">
      <!-- 60 -->
      <g transform="translate(88.275 109.999219) scale(0.1 -0.1)">
       <defs>
        <path id="DejaVuSans-36" d="M 2113 2584 
Q 1688 2584 1439 2293 
Q 1191 2003 1191 1497 
Q 1191 994 1439 701 
Q 1688 409 2113 409 
Q 2538 409 2786 701 
Q 3034 994 3034 1497 
Q 3034 2003 2786 2293 
Q 2538 2584 2113 2584 
z
M 3366 4563 
L 3366 3988 
Q 3128 4100 2886 4159 
Q 2644 4219 2406 4219 
Q 1781 4219 1451 3797 
Q 1122 3375 1075 2522 
Q 1259 2794 1537 2939 
Q 1816 3084 2150 3084 
Q 2853 3084 3261 2657 
Q 3669 2231 3669 1497 
Q 3669 778 3244 343 
Q 2819 -91 2113 -91 
Q 1303 -91 875 529 
Q 447 1150 447 2328 
Q 447 3434 972 4092 
Q 1497 4750 2381 4750 
Q 2619 4750 2861 4703 
Q 3103 4656 3366 4563 
z
" transform="scale(0.015625)"/>
       </defs>
       <use xlink:href="#DejaVuSans-36"/>
       <use xlink:href="#DejaVuSans-30" x="63.623047"/>
      </g>
     </g>
    </g>
    <g id="ytick_8">
     <g id="line2d_18">
      <g>
       <use xlink:href="#m7124ebdd17" x="108" y="72.6" style="stroke: #000000; stroke-width: 0.8"/>
      </g>
     </g>
     <g id="text_19">
      <!-- 70 -->
      <g transform="translate(88.275 76.399219) scale(0.1 -0.1)">
       <use xlink:href="#DejaVuSans-37"/>
       <use xlink:href="#DejaVuSans-30" x="63.623047"/>
      </g>
     </g>
    </g>
    <g id="text_20">
     <!-- AMPLITUDE -->
     <g transform="translate(82.195312 210.532812) rotate(-90) scale(0.1 -0.1)">
      <defs>
       <path id="DejaVuSans-50" d="M 1259 4147 
L 1259 2394 
L 2053 2394 
Q 2494 2394 2734 2622 
Q 2975 2850 2975 3272 
Q 2975 3691 2734 3919 
Q 2494 4147 2053 4147 
L 1259 4147 
z
M 628 4666 
L 2053 4666 
Q 2838 4666 3239 4311 
Q 3641 3956 3641 3272 
Q 3641 2581 3239 2228 
Q 2838 1875 2053 1875 
L 1259 1875 
L 1259 0 
L 628 0 
L 628 4666 
z
" transform="scale(0.015625)"/>
       <path id="DejaVuSans-4c" d="M 628 4666 
L 1259 4666 
L 1259 531 
L 3531 531 
L 3531 0 
L 628 0 
L 628 4666 
z
" transform="scale(0.015625)"/>
       <path id="DejaVuSans-55" d="M 556 4666 
L 1191 4666 
L 1191 1831 
Q 1191 1081 1462 751 
Q 1734 422 2344 422 
Q 2950 422 3222 751 
Q 3494 1081 3494 1831 
L 3494 4666 
L 4128 4666 
L 4128 1753 
Q 4128 841 3676 375 
Q 3225 -91 2344 -91 
Q 1459 -91 1007 375 
Q 556 841 556 1753 
L 556 4666 
z
" transform="scale(0.015625)"/>
      </defs>
      <use xlink:href="#DejaVuSans-41"/>
      <use xlink:href="#DejaVuSans-4d" x="68.408203"/>
      <use xlink:href="#DejaVuSans-50" x="154.6875"/>
      <use xlink:href="#DejaVuSans-4c" x="214.990234"/>
      <use xlink:href="#DejaVuSans-49" x="270.703125"/>
      <use xlink:href="#DejaVuSans-54" x="300.195312"/>
      <use xlink:href="#DejaVuSans-55" x="361.279297"/>
      <use xlink:href="#DejaVuSans-44" x="434.472656"/>
      <use xlink:href="#DejaVuSans-45" x="511.474609"/>
     </g>
    </g>
   </g>
   <g id="line2d_19">
    <path d="M 138.436364 243.96 
L 139.10456 183.48 
L 139.772757 233.88 
L 140.440954 186.84 
L 141.109151 126.36 
L 141.777348 280.92 
L 142.445544 280.92 
L 143.113741 233.88 
L 143.781938 264.12 
L 144.450135 307.8 
L 145.118332 267.48 
L 145.786528 243.96 
L 146.454725 247.32 
L 147.122922 270.84 
L 147.791119 203.64 
L 148.459315 233.88 
L 149.127512 176.76 
L 149.795709 291 
L 150.463906 307.8 
L 151.132103 207 
L 151.800299 284.28 
L 152.468496 89.4 
L 153.136693 223.8 
L 153.80489 307.8 
L 155.80948 307.8 
L 156.477677 297.72 
L 157.145874 307.8 
L 160.486858 307.8 
L 161.155054 257.4 
L 161.823251 307.8 
L 162.491448 297.72 
L 163.159645 307.8 
L 163.827842 280.92 
L 164.496038 270.84 
L 165.164235 267.48 
L 165.832432 217.08 
L 166.500629 307.8 
L 167.168825 307.8 
L 167.837022 287.64 
L 168.505219 247.32 
L 169.173416 55.8 
L 169.841613 119.64 
L 170.509809 149.88 
L 171.178006 217.08 
L 171.846203 170.04 
L 172.5144 207 
L 173.182597 270.84 
L 173.850793 304.44 
L 174.51899 304.44 
L 175.187187 307.8 
L 176.52358 307.8 
L 177.191777 270.84 
L 177.859974 297.72 
L 178.528171 307.8 
L 179.196368 217.08 
L 179.864564 287.64 
L 180.532761 166.68 
L 181.200958 304.44 
L 181.869155 183.48 
L 182.537352 210.36 
L 183.205548 196.92 
L 183.873745 166.68 
L 184.541942 274.2 
L 185.210139 297.72 
L 185.878335 307.8 
L 186.546532 270.84 
L 187.214729 280.92 
L 187.882926 307.8 
L 190.555713 307.8 
L 191.22391 284.28 
L 191.892107 301.08 
L 192.560303 307.8 
L 193.2285 237.24 
L 193.896697 307.8 
L 194.564894 260.76 
L 195.233091 307.8 
L 195.901287 307.8 
L 196.569484 291 
L 197.237681 280.92 
L 197.905878 307.8 
L 198.574074 267.48 
L 199.242271 65.88 
L 199.910468 193.56 
L 200.578665 82.68 
L 201.246862 260.76 
L 201.915058 170.04 
L 202.583255 247.32 
L 203.251452 307.8 
L 203.919649 233.88 
L 204.587846 227.16 
L 205.256042 307.8 
L 205.924239 301.08 
L 206.592436 307.8 
L 207.260633 307.8 
L 207.928829 267.48 
L 208.597026 307.8 
L 209.265223 223.8 
L 209.93342 220.44 
L 210.601617 260.76 
L 211.269813 227.16 
L 211.93801 243.96 
L 212.606207 217.08 
L 213.274404 284.28 
L 213.942601 86.04 
L 214.610797 287.64 
L 215.278994 304.44 
L 215.947191 301.08 
L 216.615388 307.8 
L 217.283584 264.12 
L 217.951781 230.52 
L 218.619978 307.8 
L 219.288175 307.8 
L 219.956372 163.32 
L 220.624568 307.8 
L 221.292765 307.8 
L 221.960962 277.56 
L 222.629159 307.8 
L 223.297356 307.8 
L 223.965552 270.84 
L 224.633749 307.8 
L 225.301946 267.48 
L 225.970143 307.8 
L 226.638339 294.36 
L 227.306536 307.8 
L 227.974733 307.8 
L 228.64293 210.36 
L 229.311127 307.8 
L 229.979323 133.08 
L 231.983914 307.8 
L 232.652111 243.96 
L 233.320307 159.96 
L 233.988504 237.24 
L 234.656701 254.04 
L 235.324898 307.8 
L 238.665882 307.8 
L 239.334078 297.72 
L 240.002275 284.28 
L 240.670472 207 
L 241.338669 217.08 
L 242.006866 196.92 
L 242.675062 247.32 
L 243.343259 139.8 
L 244.011456 267.48 
L 244.679653 139.8 
L 245.34785 277.56 
L 246.016046 307.8 
L 246.684243 307.8 
L 247.35244 297.72 
L 248.020637 307.8 
L 249.35703 307.8 
L 250.025227 284.28 
L 250.693424 243.96 
L 251.361621 304.44 
L 252.029817 307.8 
L 252.698014 307.8 
L 253.366211 280.92 
L 254.034408 223.8 
L 254.702605 307.8 
L 256.707195 307.8 
L 257.375392 163.32 
L 258.043588 280.92 
L 258.711785 307.8 
L 259.379982 307.8 
L 260.048179 159.96 
L 260.716376 176.76 
L 261.384572 294.36 
L 262.052769 106.2 
L 262.720966 264.12 
L 263.389163 247.32 
L 264.05736 307.8 
L 264.725556 240.6 
L 265.393753 294.36 
L 266.06195 307.8 
L 266.730147 307.8 
L 267.398343 274.2 
L 268.06654 203.64 
L 268.734737 307.8 
L 270.071131 307.8 
L 270.739327 257.4 
L 271.407524 297.72 
L 272.075721 301.08 
L 272.743918 270.84 
L 273.412115 99.48 
L 274.080311 146.52 
L 274.748508 116.28 
L 275.416705 304.44 
L 276.084902 307.8 
L 276.753098 270.84 
L 277.421295 260.76 
L 278.089492 307.8 
L 278.757689 307.8 
L 279.425886 254.04 
L 280.094082 307.8 
L 280.762279 297.72 
L 281.430476 307.8 
L 282.098673 260.76 
L 282.76687 307.8 
L 283.435066 270.84 
L 284.103263 307.8 
L 284.77146 277.56 
L 285.439657 307.8 
L 286.107854 284.28 
L 286.77605 307.8 
L 287.444247 274.2 
L 288.112444 307.8 
L 289.448837 307.8 
L 290.117034 240.6 
L 290.785231 186.84 
L 291.453428 200.28 
L 292.121625 173.4 
L 292.789821 307.8 
L 294.126215 307.8 
L 294.794412 247.32 
L 295.462609 233.88 
L 296.130805 307.8 
L 296.799002 294.36 
L 297.467199 237.24 
L 298.135396 307.8 
L 299.471789 307.8 
L 300.139986 203.64 
L 300.808183 193.56 
L 301.47638 297.72 
L 302.144576 186.84 
L 302.812773 203.64 
L 303.48097 270.84 
L 304.149167 180.12 
L 304.817364 200.28 
L 305.48556 112.92 
L 306.153757 270.84 
L 306.821954 307.8 
L 307.490151 307.8 
L 308.158347 270.84 
L 308.826544 287.64 
L 309.494741 307.8 
L 310.162938 230.52 
L 310.831135 237.24 
L 311.499331 307.8 
L 312.167528 264.12 
L 312.835725 307.8 
L 314.172119 307.8 
L 314.840315 294.36 
L 315.508512 307.8 
L 316.176709 220.44 
L 316.844906 307.8 
L 317.513102 307.8 
L 318.181299 163.32 
L 318.849496 243.96 
L 319.517693 291 
L 320.18589 307.8 
L 320.854086 96.12 
L 321.522283 196.92 
L 322.19048 247.32 
L 322.858677 264.12 
L 323.526874 156.6 
L 324.19507 173.4 
L 324.863267 233.88 
L 325.531464 307.8 
L 326.867857 307.8 
L 327.536054 277.56 
L 328.204251 227.16 
L 328.872448 307.8 
L 329.540645 307.8 
L 330.208841 257.4 
L 330.877038 301.08 
L 331.545235 207 
L 332.213432 190.2 
L 332.881629 307.8 
L 333.549825 210.36 
L 334.218022 186.84 
L 334.886219 230.52 
L 335.554416 250.68 
L 336.222613 250.68 
L 336.890809 227.16 
L 337.559006 243.96 
L 338.227203 270.84 
L 338.8954 304.44 
L 339.563596 307.8 
L 340.231793 304.44 
L 340.89999 307.8 
L 341.568187 267.48 
L 342.236384 233.88 
L 342.90458 301.08 
L 343.572777 277.56 
L 344.240974 294.36 
L 344.909171 237.24 
L 345.577368 307.8 
L 346.913761 307.8 
L 347.581958 267.48 
L 348.250155 277.56 
L 348.918351 257.4 
L 349.586548 301.08 
L 350.254745 307.8 
L 350.922942 284.28 
L 351.591139 196.92 
L 352.259335 200.28 
L 352.927532 274.2 
L 353.595729 190.2 
L 354.263926 250.68 
L 354.932123 186.84 
L 355.600319 301.08 
L 356.268516 277.56 
L 356.936713 233.88 
L 357.60491 307.8 
L 358.273106 307.8 
L 358.941303 193.56 
L 359.6095 307.8 
L 360.277697 277.56 
L 360.945894 166.68 
L 361.61409 270.84 
L 362.282287 284.28 
L 362.950484 307.8 
L 363.618681 173.4 
L 364.286878 203.64 
L 364.955074 193.56 
L 365.623271 112.92 
L 366.291468 270.84 
L 366.959665 291 
L 367.627861 307.8 
L 368.964255 307.8 
L 369.632452 213.72 
L 370.300649 287.64 
L 370.968845 233.88 
L 371.637042 102.84 
L 372.305239 277.56 
L 372.973436 307.8 
L 374.309829 307.8 
L 374.978026 257.4 
L 375.646223 220.44 
L 376.982617 307.8 
L 377.650813 250.68 
L 378.31901 307.8 
L 378.987207 277.56 
L 379.655404 307.8 
L 380.3236 307.8 
L 380.991797 250.68 
L 381.659994 210.36 
L 382.328191 200.28 
L 382.996388 180.12 
L 383.664584 247.32 
L 384.332781 170.04 
L 385.000978 237.24 
L 385.669175 277.56 
L 386.337372 270.84 
L 387.005568 307.8 
L 388.341962 307.8 
L 389.010159 277.56 
L 389.678355 274.2 
L 390.346552 237.24 
L 391.014749 223.8 
L 391.682946 217.08 
L 392.351143 180.12 
L 393.019339 203.64 
L 393.687536 304.44 
L 394.355733 119.64 
L 395.02393 186.84 
L 395.692127 176.76 
L 396.360323 149.88 
L 397.02852 264.12 
L 397.696717 301.08 
L 398.364914 270.84 
L 399.03311 250.68 
L 399.701307 297.72 
L 400.369504 220.44 
L 401.037701 307.8 
L 403.710488 307.8 
L 404.378685 301.08 
L 405.046882 297.72 
L 405.715078 287.64 
L 406.383275 307.8 
L 407.051472 291 
L 407.719669 307.8 
L 408.387865 203.64 
L 409.056062 257.4 
L 409.724259 193.56 
L 410.392456 190.2 
L 411.060653 294.36 
L 411.728849 307.8 
L 412.397046 193.56 
L 413.065243 307.8 
L 413.73344 270.84 
L 414.401637 264.12 
L 415.069833 291 
L 415.73803 213.72 
L 416.406227 307.8 
L 417.074424 291 
L 417.74262 307.8 
L 418.410817 233.88 
L 419.079014 180.12 
L 419.747211 274.2 
L 420.415408 307.8 
L 421.083604 307.8 
L 421.751801 267.48 
L 422.419998 307.8 
L 423.088195 210.36 
L 423.756392 240.6 
L 424.424588 170.04 
L 425.092785 196.92 
L 425.760982 170.04 
L 426.429179 186.84 
L 427.097376 143.16 
L 427.765572 307.8 
L 428.433769 264.12 
L 429.101966 243.96 
L 429.770163 307.8 
L 432.44295 307.8 
L 433.111147 267.48 
L 433.779343 193.56 
L 434.44754 307.8 
L 435.115737 304.44 
L 435.783934 307.8 
L 436.452131 304.44 
L 437.120327 307.8 
L 437.788524 260.76 
L 438.456721 307.8 
L 443.134098 307.8 
L 443.802295 133.08 
L 444.470492 156.6 
L 445.138689 237.24 
L 445.806886 217.08 
L 446.475082 183.48 
L 447.143279 186.84 
L 447.811476 267.48 
L 448.479673 307.8 
L 449.147869 264.12 
L 449.816066 230.52 
L 450.484263 307.8 
L 451.15246 240.6 
L 451.820657 267.48 
L 452.488853 213.72 
L 453.825247 270.84 
L 454.493444 233.88 
L 455.161641 213.72 
L 455.829837 260.76 
L 456.498034 230.52 
L 457.166231 156.6 
L 457.834428 267.48 
L 458.502624 166.68 
L 459.170821 307.8 
L 460.507215 307.8 
L 461.175412 287.64 
L 461.843608 254.04 
L 462.511805 307.8 
L 463.848199 307.8 
L 464.516396 304.44 
L 465.184592 243.96 
L 465.852789 264.12 
L 466.520986 307.8 
L 467.189183 280.92 
L 467.85738 220.44 
L 468.525576 274.2 
L 469.193773 254.04 
L 469.86197 284.28 
L 470.530167 196.92 
L 471.198363 307.8 
L 473.202954 307.8 
L 473.871151 301.08 
L 474.539347 170.04 
L 475.207544 203.64 
L 475.875741 183.48 
L 476.543938 156.6 
L 477.212135 210.36 
L 477.880331 254.04 
L 478.548528 270.84 
L 479.216725 307.8 
L 479.884922 227.16 
L 480.553118 267.48 
L 481.221315 264.12 
L 481.889512 307.8 
L 482.557709 287.64 
L 483.225906 233.88 
L 483.894102 267.48 
L 484.562299 307.8 
L 485.230496 307.8 
L 485.898693 133.08 
L 486.56689 170.04 
L 487.235086 176.76 
L 487.903283 213.72 
L 488.57148 183.48 
L 489.239677 173.4 
L 489.907873 190.2 
L 490.57607 307.8 
L 493.248857 307.8 
L 493.917054 274.2 
L 494.585251 260.76 
L 495.253448 270.84 
L 495.921645 307.8 
L 497.258038 307.8 
L 497.926235 297.72 
L 498.594432 307.8 
L 499.930825 307.8 
L 500.599022 267.48 
L 501.267219 307.8 
L 501.935416 297.72 
L 502.603612 307.8 
L 503.271809 267.48 
L 503.940006 307.8 
L 504.608203 307.8 
L 505.2764 284.28 
L 505.944596 146.52 
L 507.28099 193.56 
L 507.949187 267.48 
L 508.617383 217.08 
L 509.28558 304.44 
L 509.953777 260.76 
L 510.621974 277.56 
L 511.290171 274.2 
L 511.958367 307.8 
L 512.626564 304.44 
L 513.294761 280.92 
L 513.962958 307.8 
L 514.631155 307.8 
L 515.299351 203.64 
L 515.967548 307.8 
L 517.303942 180.12 
L 517.972139 143.16 
L 518.640335 284.28 
L 519.308532 260.76 
L 519.976729 79.32 
L 520.644926 223.8 
L 521.313122 307.8 
L 521.981319 297.72 
L 522.649516 307.8 
L 523.317713 307.8 
L 523.98591 247.32 
L 524.654106 307.8 
L 525.322303 291 
L 525.9905 297.72 
L 526.658697 277.56 
L 527.326894 307.8 
L 528.663287 264.12 
L 529.331484 307.8 
L 530.667877 307.8 
L 531.336074 264.12 
L 532.004271 307.8 
L 532.672468 307.8 
L 533.340665 284.28 
L 534.008861 284.28 
L 534.677058 307.8 
L 535.345255 307.8 
L 536.013452 223.8 
L 536.681649 250.68 
L 537.349845 96.12 
L 538.018042 233.88 
L 538.686239 139.8 
L 539.354436 207 
L 540.022632 294.36 
L 540.690829 307.8 
L 541.359026 203.64 
L 542.027223 247.32 
L 542.69542 307.8 
L 543.363616 307.8 
L 544.031813 297.72 
L 544.70001 260.76 
L 546.036404 307.8 
L 546.7046 257.4 
L 547.372797 307.8 
L 548.040994 307.8 
L 548.709191 227.16 
L 549.377387 180.12 
L 550.045584 307.8 
L 550.713781 207 
L 551.381978 183.48 
L 552.050175 139.8 
L 552.718371 250.68 
L 553.386568 307.8 
L 556.727552 307.8 
L 557.395749 301.08 
L 558.063946 307.8 
L 558.732143 159.96 
L 559.400339 307.8 
L 560.068536 294.36 
L 560.736733 223.8 
L 561.40493 260.76 
L 562.073126 307.8 
L 562.741323 274.2 
L 563.40952 307.8 
L 564.077717 230.52 
L 564.745914 307.8 
L 565.41411 307.8 
L 566.082307 237.24 
L 566.750504 307.8 
L 568.086898 307.8 
L 569.423291 116.28 
L 570.091488 227.16 
L 570.759685 301.08 
L 571.427881 307.8 
L 572.096078 237.24 
L 572.764275 304.44 
L 573.432472 257.4 
L 574.100669 274.2 
L 574.768865 307.8 
L 575.437062 257.4 
L 576.105259 284.28 
L 576.773456 173.4 
L 577.441653 223.8 
L 578.109849 257.4 
L 578.778046 307.8 
L 579.446243 247.32 
L 580.11444 274.2 
L 580.782636 243.96 
L 581.450833 270.84 
L 582.11903 210.36 
L 582.787227 207 
L 583.455424 153.24 
L 584.12362 304.44 
L 584.791817 307.8 
L 585.460014 240.6 
L 586.128211 307.8 
L 586.796408 307.8 
L 587.464604 304.44 
L 588.132801 220.44 
L 588.800998 307.8 
L 590.137391 307.8 
L 590.805588 243.96 
L 591.473785 284.28 
L 592.141982 237.24 
L 592.810179 243.96 
L 593.478375 307.8 
L 594.146572 307.8 
L 594.814769 250.68 
L 595.482966 260.76 
L 596.151163 243.96 
L 596.819359 264.12 
L 597.487556 297.72 
L 598.155753 307.8 
L 598.82395 247.32 
L 599.492146 126.36 
L 600.160343 213.72 
L 600.82854 173.4 
L 601.496737 190.2 
L 602.164934 260.76 
L 602.83313 230.52 
L 603.501327 233.88 
L 604.169524 301.08 
L 604.837721 237.24 
L 605.505918 307.8 
L 606.174114 307.8 
L 606.842311 237.24 
L 607.510508 297.72 
L 608.178705 307.8 
L 608.846902 260.76 
L 609.515098 247.32 
L 610.183295 284.28 
L 610.851492 307.8 
L 611.519689 173.4 
L 612.187885 277.56 
L 612.856082 159.96 
L 613.524279 210.36 
L 614.192476 213.72 
L 614.860673 112.92 
L 615.528869 307.8 
L 618.201657 307.8 
L 618.869853 250.68 
L 619.53805 230.52 
L 620.206247 270.84 
L 620.874444 156.6 
L 621.54264 301.08 
L 622.210837 307.8 
L 624.215428 307.8 
L 624.883624 247.32 
L 625.551821 307.8 
L 626.888215 307.8 
L 627.556412 294.36 
L 628.224608 267.48 
L 628.892805 307.8 
L 629.561002 307.8 
L 630.229199 264.12 
L 630.897395 112.92 
L 631.565592 166.68 
L 632.233789 190.2 
L 632.901986 176.76 
L 633.570183 270.84 
L 634.238379 193.56 
L 634.906576 217.08 
L 635.574773 203.64 
L 636.24297 257.4 
L 636.911167 264.12 
L 637.579363 203.64 
L 638.24756 307.8 
L 638.915757 307.8 
L 639.583954 227.16 
L 640.25215 307.8 
L 640.920347 250.68 
L 641.588544 307.8 
L 642.256741 213.72 
L 642.924938 260.76 
L 644.261331 143.16 
L 644.929528 230.52 
L 645.597725 119.64 
L 646.265922 307.8 
L 646.934118 301.08 
L 647.602315 287.64 
L 648.270512 267.48 
L 648.938709 307.8 
L 649.606905 274.2 
L 650.275102 307.8 
L 650.943299 307.8 
L 651.611496 257.4 
L 652.279693 307.8 
L 652.947889 250.68 
L 653.616086 307.8 
L 654.284283 307.8 
L 654.95248 264.12 
L 655.620677 307.8 
L 656.288873 307.8 
L 656.95707 260.76 
L 657.625267 307.8 
L 658.293464 307.8 
L 658.961661 280.92 
L 659.629857 304.44 
L 660.298054 307.8 
L 660.966251 243.96 
L 661.634448 307.8 
L 662.302644 207 
L 662.970841 143.16 
L 663.639038 156.6 
L 664.307235 277.56 
L 664.975432 136.44 
L 666.311825 274.2 
L 666.980022 304.44 
L 667.648219 307.8 
L 668.316416 270.84 
L 668.984612 291 
L 669.652809 274.2 
L 670.321006 307.8 
L 670.989203 307.8 
L 671.657399 274.2 
L 672.325596 307.8 
L 673.66199 307.8 
L 674.330187 217.08 
L 674.998383 220.44 
L 675.66658 99.48 
L 676.334777 153.24 
L 677.002974 193.56 
L 677.671171 301.08 
L 678.339367 307.8 
L 679.007564 307.8 
L 679.675761 294.36 
L 680.343958 287.64 
L 681.012154 307.8 
L 681.680351 307.8 
L 682.348548 254.04 
L 683.016745 297.72 
L 683.684942 250.68 
L 684.353138 307.8 
L 685.689532 307.8 
L 686.357729 190.2 
L 687.025926 291 
L 687.694122 307.8 
L 688.362319 250.68 
L 689.030516 247.32 
L 689.698713 304.44 
L 690.366909 193.56 
L 691.035106 307.8 
L 691.703303 264.12 
L 692.3715 307.8 
L 693.039697 102.84 
L 693.707893 112.92 
L 695.044287 230.52 
L 695.712484 200.28 
L 696.380681 89.4 
L 697.048877 243.96 
L 697.717074 220.44 
L 698.385271 307.8 
L 699.053468 297.72 
L 699.721665 291 
L 700.389861 307.8 
L 701.058058 287.64 
L 701.726255 307.8 
L 703.062648 307.8 
L 703.730845 220.44 
L 704.399042 264.12 
L 705.067239 237.24 
L 705.735436 230.52 
L 706.403632 307.8 
L 707.740026 180.12 
L 708.408223 136.44 
L 709.07642 277.56 
L 709.744616 240.6 
L 710.412813 307.8 
L 711.08101 307.8 
L 711.749207 240.6 
L 712.417403 291 
L 713.0856 220.44 
L 713.753797 254.04 
L 714.421994 307.8 
L 715.090191 304.44 
L 715.758387 307.8 
L 716.426584 307.8 
L 717.094781 284.28 
L 717.762978 307.8 
L 719.099371 307.8 
L 719.767568 257.4 
L 720.435765 307.8 
L 722.440355 307.8 
L 723.108552 163.32 
L 723.776749 280.92 
L 724.444946 116.28 
L 725.113142 196.92 
L 725.781339 233.88 
L 726.449536 193.56 
L 727.78593 301.08 
L 728.454126 243.96 
L 729.122323 307.8 
L 729.79052 183.48 
L 730.458717 307.8 
L 731.126913 284.28 
L 731.79511 277.56 
L 732.463307 307.8 
L 735.136094 307.8 
L 735.804291 287.64 
L 736.472488 136.44 
L 737.140685 143.16 
L 737.808881 287.64 
L 738.477078 139.8 
L 739.145275 176.76 
L 739.813472 284.28 
L 740.481668 307.8 
L 741.149865 304.44 
L 741.818062 274.2 
L 742.486259 307.8 
L 743.154456 200.28 
L 745.159046 307.8 
L 745.827243 240.6 
L 746.49544 307.8 
L 747.163636 307.8 
L 747.163636 307.8 
" clip-path="url(#p0adbb5971f)" style="fill: none; stroke: #191970; stroke-width: 2; stroke-linecap: square"/>
   </g>
   <g id="patch_3">
    <path d="M 108 320.4 
L 108 43.2 
" style="fill: none; stroke: #000000; stroke-width: 0.8; stroke-linejoin: miter; stroke-linecap: square"/>
   </g>
   <g id="patch_4">
    <path d="M 777.6 320.4 
L 777.6 43.2 
" style="fill: none; stroke: #000000; stroke-width: 0.8; stroke-linejoin: miter; stroke-linecap: square"/>
   </g>
   <g id="patch_5">
    <path d="M 108 320.4 
L 777.6 320.4 
" style="fill: none; stroke: #000000; stroke-width: 0.8; stroke-linejoin: miter; stroke-linecap: square"/>
   </g>
   <g id="patch_6">
    <path d="M 108 43.2 
L 777.6 43.2 
" style="fill: none; stroke: #000000; stroke-width: 0.8; stroke-linejoin: miter; stroke-linecap: square"/>
   </g>
   <g id="text_21">
    <!-- TIME SERIES -->
    <g transform="translate(405.350625 37.2) scale(0.12 -0.12)">
     <defs>
      <path id="DejaVuSans-52" d="M 2841 2188 
Q 3044 2119 3236 1894 
Q 3428 1669 3622 1275 
L 4263 0 
L 3584 0 
L 2988 1197 
Q 2756 1666 2539 1819 
Q 2322 1972 1947 1972 
L 1259 1972 
L 1259 0 
L 628 0 
L 628 4666 
L 2053 4666 
Q 2853 4666 3247 4331 
Q 3641 3997 3641 3322 
Q 3641 2881 3436 2590 
Q 3231 2300 2841 2188 
z
M 1259 4147 
L 1259 2491 
L 2053 2491 
Q 2509 2491 2742 2702 
Q 2975 2913 2975 3322 
Q 2975 3731 2742 3939 
Q 2509 4147 2053 4147 
L 1259 4147 
z
" transform="scale(0.015625)"/>
     </defs>
     <use xlink:href="#DejaVuSans-54"/>
     <use xlink:href="#DejaVuSans-49" x="61.083984"/>
     <use xlink:href="#DejaVuSans-4d" x="90.576172"/>
     <use xlink:href="#DejaVuSans-45" x="176.855469"/>
     <use xlink:href="#DejaVuSans-20" x="240.039062"/>
     <use xlink:href="#DejaVuSans-53" x="271.826172"/>
     <use xlink:href="#DejaVuSans-45" x="335.302734"/>
     <use xlink:href="#DejaVuSans-52" x="398.486328"/>
     <use xlink:href="#DejaVuSans-49" x="467.96875"/>
     <use xlink:href="#DejaVuSans-45" x="497.460938"/>
     <use xlink:href="#DejaVuSans-53" x="560.644531"/>
    </g>
   </g>
  </g>
 </g>
 <defs>
  <clipPath id="p0adbb5971f">
   <rect x="108" y="43.2" width="669.6" height="277.2"/>
  </clipPath>
 </defs>
</svg>
