<?xml version="1.0" encoding="utf-8" standalone="no"?>
<!DOCTYPE svg PUBLIC "-//W3C//DTD SVG 1.1//EN"
  "http://www.w3.org/Graphics/SVG/1.1/DTD/svg11.dtd">
<svg xmlns:xlink="http://www.w3.org/1999/xlink" width="864pt" height="360pt" viewBox="0 0 864 360" xmlns="http://www.w3.org/2000/svg" version="1.1">
 <metadata>
  <rdf:RDF xmlns:dc="http://purl.org/dc/elements/1.1/" xmlns:cc="http://creativecommons.org/ns#" xmlns:rdf="http://www.w3.org/1999/02/22-rdf-syntax-ns#">
   <cc:Work>
    <dc:type rdf:resource="http://purl.org/dc/dcmitype/StillImage"/>
    <dc:date>2023-11-07T11:09:23.051210</dc:date>
    <dc:format>image/svg+xml</dc:format>
    <dc:creator>
     <cc:Agent>
      <dc:title>Matplotlib v3.7.1, https://matplotlib.org/</dc:title>
     </cc:Agent>
    </dc:creator>
   </cc:Work>
  </rdf:RDF>
 </metadata>
 <defs>
  <style type="text/css">*{stroke-linejoin: round; stroke-linecap: butt}</style>
 </defs>
 <g id="figure_1">
  <g id="patch_1">
   <path d="M 0 360 
L 864 360 
L 864 0 
L 0 0 
z
" style="fill: #ffffff"/>
  </g>
  <g id="axes_1">
   <g id="patch_2">
    <path d="M 108 320.4 
L 777.6 320.4 
L 777.6 43.2 
L 108 43.2 
z
" style="fill: #ffffff"/>
   </g>
   <g id="matplotlib.axis_1">
    <g id="xtick_1">
     <g id="line2d_1">
      <defs>
       <path id="m2cce83c906" d="M 0 0 
L 0 3.5 
" style="stroke: #000000; stroke-width: 0.8"/>
      </defs>
      <g>
       <use xlink:href="#m2cce83c906" x="138.436364" y="320.4" style="stroke: #000000; stroke-width: 0.8"/>
      </g>
     </g>
     <g id="text_1">
      <!-- 2022-01-01 -->
      <g transform="translate(109.378551 334.998438) scale(0.1 -0.1)">
       <defs>
        <path id="DejaVuSans-32" d="M 1228 531 
L 3431 531 
L 3431 0 
L 469 0 
L 469 531 
Q 828 903 1448 1529 
Q 2069 2156 2228 2338 
Q 2531 2678 2651 2914 
Q 2772 3150 2772 3378 
Q 2772 3750 2511 3984 
Q 2250 4219 1831 4219 
Q 1534 4219 1204 4116 
Q 875 4013 500 3803 
L 500 4441 
Q 881 4594 1212 4672 
Q 1544 4750 1819 4750 
Q 2544 4750 2975 4387 
Q 3406 4025 3406 3419 
Q 3406 3131 3298 2873 
Q 3191 2616 2906 2266 
Q 2828 2175 2409 1742 
Q 1991 1309 1228 531 
z
" transform="scale(0.015625)"/>
        <path id="DejaVuSans-30" d="M 2034 4250 
Q 1547 4250 1301 3770 
Q 1056 3291 1056 2328 
Q 1056 1369 1301 889 
Q 1547 409 2034 409 
Q 2525 409 2770 889 
Q 3016 1369 3016 2328 
Q 3016 3291 2770 3770 
Q 2525 4250 2034 4250 
z
M 2034 4750 
Q 2819 4750 3233 4129 
Q 3647 3509 3647 2328 
Q 3647 1150 3233 529 
Q 2819 -91 2034 -91 
Q 1250 -91 836 529 
Q 422 1150 422 2328 
Q 422 3509 836 4129 
Q 1250 4750 2034 4750 
z
" transform="scale(0.015625)"/>
        <path id="DejaVuSans-2d" d="M 313 2009 
L 1997 2009 
L 1997 1497 
L 313 1497 
L 313 2009 
z
" transform="scale(0.015625)"/>
        <path id="DejaVuSans-31" d="M 794 531 
L 1825 531 
L 1825 4091 
L 703 3866 
L 703 4441 
L 1819 4666 
L 2450 4666 
L 2450 531 
L 3481 531 
L 3481 0 
L 794 0 
L 794 531 
z
" transform="scale(0.015625)"/>
       </defs>
       <use xlink:href="#DejaVuSans-32"/>
       <use xlink:href="#DejaVuSans-30" x="63.623047"/>
       <use xlink:href="#DejaVuSans-32" x="127.246094"/>
       <use xlink:href="#DejaVuSans-32" x="190.869141"/>
       <use xlink:href="#DejaVuSans-2d" x="254.492188"/>
       <use xlink:href="#DejaVuSans-30" x="290.576172"/>
       <use xlink:href="#DejaVuSans-31" x="354.199219"/>
       <use xlink:href="#DejaVuSans-2d" x="417.822266"/>
       <use xlink:href="#DejaVuSans-30" x="453.90625"/>
       <use xlink:href="#DejaVuSans-31" x="517.529297"/>
      </g>
     </g>
    </g>
    <g id="xtick_2">
     <g id="line2d_2">
      <g>
       <use xlink:href="#m2cce83c906" x="232.237035" y="320.4" style="stroke: #000000; stroke-width: 0.8"/>
      </g>
     </g>
     <g id="text_2">
      <!-- 2022-01-03 -->
      <g transform="translate(203.179222 334.998438) scale(0.1 -0.1)">
       <defs>
        <path id="DejaVuSans-33" d="M 2597 2516 
Q 3050 2419 3304 2112 
Q 3559 1806 3559 1356 
Q 3559 666 3084 287 
Q 2609 -91 1734 -91 
Q 1441 -91 1130 -33 
Q 819 25 488 141 
L 488 750 
Q 750 597 1062 519 
Q 1375 441 1716 441 
Q 2309 441 2620 675 
Q 2931 909 2931 1356 
Q 2931 1769 2642 2001 
Q 2353 2234 1838 2234 
L 1294 2234 
L 1294 2753 
L 1863 2753 
Q 2328 2753 2575 2939 
Q 2822 3125 2822 3475 
Q 2822 3834 2567 4026 
Q 2313 4219 1838 4219 
Q 1578 4219 1281 4162 
Q 984 4106 628 3988 
L 628 4550 
Q 988 4650 1302 4700 
Q 1616 4750 1894 4750 
Q 2613 4750 3031 4423 
Q 3450 4097 3450 3541 
Q 3450 3153 3228 2886 
Q 3006 2619 2597 2516 
z
" transform="scale(0.015625)"/>
       </defs>
       <use xlink:href="#DejaVuSans-32"/>
       <use xlink:href="#DejaVuSans-30" x="63.623047"/>
       <use xlink:href="#DejaVuSans-32" x="127.246094"/>
       <use xlink:href="#DejaVuSans-32" x="190.869141"/>
       <use xlink:href="#DejaVuSans-2d" x="254.492188"/>
       <use xlink:href="#DejaVuSans-30" x="290.576172"/>
       <use xlink:href="#DejaVuSans-31" x="354.199219"/>
       <use xlink:href="#DejaVuSans-2d" x="417.822266"/>
       <use xlink:href="#DejaVuSans-30" x="453.90625"/>
       <use xlink:href="#DejaVuSans-33" x="517.529297"/>
      </g>
     </g>
    </g>
    <g id="xtick_3">
     <g id="line2d_3">
      <g>
       <use xlink:href="#m2cce83c906" x="326.037706" y="320.4" style="stroke: #000000; stroke-width: 0.8"/>
      </g>
     </g>
     <g id="text_3">
      <!-- 2022-01-05 -->
      <g transform="translate(296.979894 334.998438) scale(0.1 -0.1)">
       <defs>
        <path id="DejaVuSans-35" d="M 691 4666 
L 3169 4666 
L 3169 4134 
L 1269 4134 
L 1269 2991 
Q 1406 3038 1543 3061 
Q 1681 3084 1819 3084 
Q 2600 3084 3056 2656 
Q 3513 2228 3513 1497 
Q 3513 744 3044 326 
Q 2575 -91 1722 -91 
Q 1428 -91 1123 -41 
Q 819 9 494 109 
L 494 744 
Q 775 591 1075 516 
Q 1375 441 1709 441 
Q 2250 441 2565 725 
Q 2881 1009 2881 1497 
Q 2881 1984 2565 2268 
Q 2250 2553 1709 2553 
Q 1456 2553 1204 2497 
Q 953 2441 691 2322 
L 691 4666 
z
" transform="scale(0.015625)"/>
       </defs>
       <use xlink:href="#DejaVuSans-32"/>
       <use xlink:href="#DejaVuSans-30" x="63.623047"/>
       <use xlink:href="#DejaVuSans-32" x="127.246094"/>
       <use xlink:href="#DejaVuSans-32" x="190.869141"/>
       <use xlink:href="#DejaVuSans-2d" x="254.492188"/>
       <use xlink:href="#DejaVuSans-30" x="290.576172"/>
       <use xlink:href="#DejaVuSans-31" x="354.199219"/>
       <use xlink:href="#DejaVuSans-2d" x="417.822266"/>
       <use xlink:href="#DejaVuSans-30" x="453.90625"/>
       <use xlink:href="#DejaVuSans-35" x="517.529297"/>
      </g>
     </g>
    </g>
    <g id="xtick_4">
     <g id="line2d_4">
      <g>
       <use xlink:href="#m2cce83c906" x="419.838377" y="320.4" style="stroke: #000000; stroke-width: 0.8"/>
      </g>
     </g>
     <g id="text_4">
      <!-- 2022-01-07 -->
      <g transform="translate(390.780565 334.998438) scale(0.1 -0.1)">
       <defs>
        <path id="DejaVuSans-37" d="M 525 4666 
L 3525 4666 
L 3525 4397 
L 1831 0 
L 1172 0 
L 2766 4134 
L 525 4134 
L 525 4666 
z
" transform="scale(0.015625)"/>
       </defs>
       <use xlink:href="#DejaVuSans-32"/>
       <use xlink:href="#DejaVuSans-30" x="63.623047"/>
       <use xlink:href="#DejaVuSans-32" x="127.246094"/>
       <use xlink:href="#DejaVuSans-32" x="190.869141"/>
       <use xlink:href="#DejaVuSans-2d" x="254.492188"/>
       <use xlink:href="#DejaVuSans-30" x="290.576172"/>
       <use xlink:href="#DejaVuSans-31" x="354.199219"/>
       <use xlink:href="#DejaVuSans-2d" x="417.822266"/>
       <use xlink:href="#DejaVuSans-30" x="453.90625"/>
       <use xlink:href="#DejaVuSans-37" x="517.529297"/>
      </g>
     </g>
    </g>
    <g id="xtick_5">
     <g id="line2d_5">
      <g>
       <use xlink:href="#m2cce83c906" x="513.639049" y="320.4" style="stroke: #000000; stroke-width: 0.8"/>
      </g>
     </g>
     <g id="text_5">
      <!-- 2022-01-09 -->
      <g transform="translate(484.581236 334.998438) scale(0.1 -0.1)">
       <defs>
        <path id="DejaVuSans-39" d="M 703 97 
L 703 672 
Q 941 559 1184 500 
Q 1428 441 1663 441 
Q 2288 441 2617 861 
Q 2947 1281 2994 2138 
Q 2813 1869 2534 1725 
Q 2256 1581 1919 1581 
Q 1219 1581 811 2004 
Q 403 2428 403 3163 
Q 403 3881 828 4315 
Q 1253 4750 1959 4750 
Q 2769 4750 3195 4129 
Q 3622 3509 3622 2328 
Q 3622 1225 3098 567 
Q 2575 -91 1691 -91 
Q 1453 -91 1209 -44 
Q 966 3 703 97 
z
M 1959 2075 
Q 2384 2075 2632 2365 
Q 2881 2656 2881 3163 
Q 2881 3666 2632 3958 
Q 2384 4250 1959 4250 
Q 1534 4250 1286 3958 
Q 1038 3666 1038 3163 
Q 1038 2656 1286 2365 
Q 1534 2075 1959 2075 
z
" transform="scale(0.015625)"/>
       </defs>
       <use xlink:href="#DejaVuSans-32"/>
       <use xlink:href="#DejaVuSans-30" x="63.623047"/>
       <use xlink:href="#DejaVuSans-32" x="127.246094"/>
       <use xlink:href="#DejaVuSans-32" x="190.869141"/>
       <use xlink:href="#DejaVuSans-2d" x="254.492188"/>
       <use xlink:href="#DejaVuSans-30" x="290.576172"/>
       <use xlink:href="#DejaVuSans-31" x="354.199219"/>
       <use xlink:href="#DejaVuSans-2d" x="417.822266"/>
       <use xlink:href="#DejaVuSans-30" x="453.90625"/>
       <use xlink:href="#DejaVuSans-39" x="517.529297"/>
      </g>
     </g>
    </g>
    <g id="xtick_6">
     <g id="line2d_6">
      <g>
       <use xlink:href="#m2cce83c906" x="607.43972" y="320.4" style="stroke: #000000; stroke-width: 0.8"/>
      </g>
     </g>
     <g id="text_6">
      <!-- 2022-01-11 -->
      <g transform="translate(578.381907 334.998438) scale(0.1 -0.1)">
       <use xlink:href="#DejaVuSans-32"/>
       <use xlink:href="#DejaVuSans-30" x="63.623047"/>
       <use xlink:href="#DejaVuSans-32" x="127.246094"/>
       <use xlink:href="#DejaVuSans-32" x="190.869141"/>
       <use xlink:href="#DejaVuSans-2d" x="254.492188"/>
       <use xlink:href="#DejaVuSans-30" x="290.576172"/>
       <use xlink:href="#DejaVuSans-31" x="354.199219"/>
       <use xlink:href="#DejaVuSans-2d" x="417.822266"/>
       <use xlink:href="#DejaVuSans-31" x="453.90625"/>
       <use xlink:href="#DejaVuSans-31" x="517.529297"/>
      </g>
     </g>
    </g>
    <g id="xtick_7">
     <g id="line2d_7">
      <g>
       <use xlink:href="#m2cce83c906" x="701.240391" y="320.4" style="stroke: #000000; stroke-width: 0.8"/>
      </g>
     </g>
     <g id="text_7">
      <!-- 2022-01-13 -->
      <g transform="translate(672.182579 334.998438) scale(0.1 -0.1)">
       <use xlink:href="#DejaVuSans-32"/>
       <use xlink:href="#DejaVuSans-30" x="63.623047"/>
       <use xlink:href="#DejaVuSans-32" x="127.246094"/>
       <use xlink:href="#DejaVuSans-32" x="190.869141"/>
       <use xlink:href="#DejaVuSans-2d" x="254.492188"/>
       <use xlink:href="#DejaVuSans-30" x="290.576172"/>
       <use xlink:href="#DejaVuSans-31" x="354.199219"/>
       <use xlink:href="#DejaVuSans-2d" x="417.822266"/>
       <use xlink:href="#DejaVuSans-31" x="453.90625"/>
       <use xlink:href="#DejaVuSans-33" x="517.529297"/>
      </g>
     </g>
    </g>
    <g id="text_8">
     <!-- TIME (DAYS) -->
     <g transform="translate(412.283594 348.676562) scale(0.1 -0.1)">
      <defs>
       <path id="DejaVuSans-54" d="M -19 4666 
L 3928 4666 
L 3928 4134 
L 2272 4134 
L 2272 0 
L 1638 0 
L 1638 4134 
L -19 4134 
L -19 4666 
z
" transform="scale(0.015625)"/>
       <path id="DejaVuSans-49" d="M 628 4666 
L 1259 4666 
L 1259 0 
L 628 0 
L 628 4666 
z
" transform="scale(0.015625)"/>
       <path id="DejaVuSans-4d" d="M 628 4666 
L 1569 4666 
L 2759 1491 
L 3956 4666 
L 4897 4666 
L 4897 0 
L 4281 0 
L 4281 4097 
L 3078 897 
L 2444 897 
L 1241 4097 
L 1241 0 
L 628 0 
L 628 4666 
z
" transform="scale(0.015625)"/>
       <path id="DejaVuSans-45" d="M 628 4666 
L 3578 4666 
L 3578 4134 
L 1259 4134 
L 1259 2753 
L 3481 2753 
L 3481 2222 
L 1259 2222 
L 1259 531 
L 3634 531 
L 3634 0 
L 628 0 
L 628 4666 
z
" transform="scale(0.015625)"/>
       <path id="DejaVuSans-20" transform="scale(0.015625)"/>
       <path id="DejaVuSans-28" d="M 1984 4856 
Q 1566 4138 1362 3434 
Q 1159 2731 1159 2009 
Q 1159 1288 1364 580 
Q 1569 -128 1984 -844 
L 1484 -844 
Q 1016 -109 783 600 
Q 550 1309 550 2009 
Q 550 2706 781 3412 
Q 1013 4119 1484 4856 
L 1984 4856 
z
" transform="scale(0.015625)"/>
       <path id="DejaVuSans-44" d="M 1259 4147 
L 1259 519 
L 2022 519 
Q 2988 519 3436 956 
Q 3884 1394 3884 2338 
Q 3884 3275 3436 3711 
Q 2988 4147 2022 4147 
L 1259 4147 
z
M 628 4666 
L 1925 4666 
Q 3281 4666 3915 4102 
Q 4550 3538 4550 2338 
Q 4550 1131 3912 565 
Q 3275 0 1925 0 
L 628 0 
L 628 4666 
z
" transform="scale(0.015625)"/>
       <path id="DejaVuSans-41" d="M 2188 4044 
L 1331 1722 
L 3047 1722 
L 2188 4044 
z
M 1831 4666 
L 2547 4666 
L 4325 0 
L 3669 0 
L 3244 1197 
L 1141 1197 
L 716 0 
L 50 0 
L 1831 4666 
z
" transform="scale(0.015625)"/>
       <path id="DejaVuSans-59" d="M -13 4666 
L 666 4666 
L 1959 2747 
L 3244 4666 
L 3922 4666 
L 2272 2222 
L 2272 0 
L 1638 0 
L 1638 2222 
L -13 4666 
z
" transform="scale(0.015625)"/>
       <path id="DejaVuSans-53" d="M 3425 4513 
L 3425 3897 
Q 3066 4069 2747 4153 
Q 2428 4238 2131 4238 
Q 1616 4238 1336 4038 
Q 1056 3838 1056 3469 
Q 1056 3159 1242 3001 
Q 1428 2844 1947 2747 
L 2328 2669 
Q 3034 2534 3370 2195 
Q 3706 1856 3706 1288 
Q 3706 609 3251 259 
Q 2797 -91 1919 -91 
Q 1588 -91 1214 -16 
Q 841 59 441 206 
L 441 856 
Q 825 641 1194 531 
Q 1563 422 1919 422 
Q 2459 422 2753 634 
Q 3047 847 3047 1241 
Q 3047 1584 2836 1778 
Q 2625 1972 2144 2069 
L 1759 2144 
Q 1053 2284 737 2584 
Q 422 2884 422 3419 
Q 422 4038 858 4394 
Q 1294 4750 2059 4750 
Q 2388 4750 2728 4690 
Q 3069 4631 3425 4513 
z
" transform="scale(0.015625)"/>
       <path id="DejaVuSans-29" d="M 513 4856 
L 1013 4856 
Q 1481 4119 1714 3412 
Q 1947 2706 1947 2009 
Q 1947 1309 1714 600 
Q 1481 -109 1013 -844 
L 513 -844 
Q 928 -128 1133 580 
Q 1338 1288 1338 2009 
Q 1338 2731 1133 3434 
Q 928 4138 513 4856 
z
" transform="scale(0.015625)"/>
      </defs>
      <use xlink:href="#DejaVuSans-54"/>
      <use xlink:href="#DejaVuSans-49" x="61.083984"/>
      <use xlink:href="#DejaVuSans-4d" x="90.576172"/>
      <use xlink:href="#DejaVuSans-45" x="176.855469"/>
      <use xlink:href="#DejaVuSans-20" x="240.039062"/>
      <use xlink:href="#DejaVuSans-28" x="271.826172"/>
      <use xlink:href="#DejaVuSans-44" x="310.839844"/>
      <use xlink:href="#DejaVuSans-41" x="386.091797"/>
      <use xlink:href="#DejaVuSans-59" x="446.75"/>
      <use xlink:href="#DejaVuSans-53" x="507.833984"/>
      <use xlink:href="#DejaVuSans-29" x="571.310547"/>
     </g>
    </g>
   </g>
   <g id="matplotlib.axis_2">
    <g id="ytick_1">
     <g id="line2d_8">
      <defs>
       <path id="m58c35c29b2" d="M 0 0 
L -3.5 0 
" style="stroke: #000000; stroke-width: 0.8"/>
      </defs>
      <g>
       <use xlink:href="#m58c35c29b2" x="108" y="307.8" style="stroke: #000000; stroke-width: 0.8"/>
      </g>
     </g>
     <g id="text_9">
      <!-- 0 -->
      <g transform="translate(94.6375 311.599219) scale(0.1 -0.1)">
       <use xlink:href="#DejaVuSans-30"/>
      </g>
     </g>
    </g>
    <g id="ytick_2">
     <g id="line2d_9">
      <g>
       <use xlink:href="#m58c35c29b2" x="108" y="265.518121" style="stroke: #000000; stroke-width: 0.8"/>
      </g>
     </g>
     <g id="text_10">
      <!-- 50 -->
      <g transform="translate(88.275 269.31734) scale(0.1 -0.1)">
       <use xlink:href="#DejaVuSans-35"/>
       <use xlink:href="#DejaVuSans-30" x="63.623047"/>
      </g>
     </g>
    </g>
    <g id="ytick_3">
     <g id="line2d_10">
      <g>
       <use xlink:href="#m58c35c29b2" x="108" y="223.236242" style="stroke: #000000; stroke-width: 0.8"/>
      </g>
     </g>
     <g id="text_11">
      <!-- 100 -->
      <g transform="translate(81.9125 227.03546) scale(0.1 -0.1)">
       <use xlink:href="#DejaVuSans-31"/>
       <use xlink:href="#DejaVuSans-30" x="63.623047"/>
       <use xlink:href="#DejaVuSans-30" x="127.246094"/>
      </g>
     </g>
    </g>
    <g id="ytick_4">
     <g id="line2d_11">
      <g>
       <use xlink:href="#m58c35c29b2" x="108" y="180.954362" style="stroke: #000000; stroke-width: 0.8"/>
      </g>
     </g>
     <g id="text_12">
      <!-- 150 -->
      <g transform="translate(81.9125 184.753581) scale(0.1 -0.1)">
       <use xlink:href="#DejaVuSans-31"/>
       <use xlink:href="#DejaVuSans-35" x="63.623047"/>
       <use xlink:href="#DejaVuSans-30" x="127.246094"/>
      </g>
     </g>
    </g>
    <g id="ytick_5">
     <g id="line2d_12">
      <g>
       <use xlink:href="#m58c35c29b2" x="108" y="138.672483" style="stroke: #000000; stroke-width: 0.8"/>
      </g>
     </g>
     <g id="text_13">
      <!-- 200 -->
      <g transform="translate(81.9125 142.471702) scale(0.1 -0.1)">
       <use xlink:href="#DejaVuSans-32"/>
       <use xlink:href="#DejaVuSans-30" x="63.623047"/>
       <use xlink:href="#DejaVuSans-30" x="127.246094"/>
      </g>
     </g>
    </g>
    <g id="ytick_6">
     <g id="line2d_13">
      <g>
       <use xlink:href="#m58c35c29b2" x="108" y="96.390604" style="stroke: #000000; stroke-width: 0.8"/>
      </g>
     </g>
     <g id="text_14">
      <!-- 250 -->
      <g transform="translate(81.9125 100.189823) scale(0.1 -0.1)">
       <use xlink:href="#DejaVuSans-32"/>
       <use xlink:href="#DejaVuSans-35" x="63.623047"/>
       <use xlink:href="#DejaVuSans-30" x="127.246094"/>
      </g>
     </g>
    </g>
    <g id="ytick_7">
     <g id="line2d_14">
      <g>
       <use xlink:href="#m58c35c29b2" x="108" y="54.108725" style="stroke: #000000; stroke-width: 0.8"/>
      </g>
     </g>
     <g id="text_15">
      <!-- 300 -->
      <g transform="translate(81.9125 57.907944) scale(0.1 -0.1)">
       <use xlink:href="#DejaVuSans-33"/>
       <use xlink:href="#DejaVuSans-30" x="63.623047"/>
       <use xlink:href="#DejaVuSans-30" x="127.246094"/>
      </g>
     </g>
    </g>
    <g id="text_16">
     <!-- AMPLITUDE -->
     <g transform="translate(75.832812 210.532812) rotate(-90) scale(0.1 -0.1)">
      <defs>
       <path id="DejaVuSans-50" d="M 1259 4147 
L 1259 2394 
L 2053 2394 
Q 2494 2394 2734 2622 
Q 2975 2850 2975 3272 
Q 2975 3691 2734 3919 
Q 2494 4147 2053 4147 
L 1259 4147 
z
M 628 4666 
L 2053 4666 
Q 2838 4666 3239 4311 
Q 3641 3956 3641 3272 
Q 3641 2581 3239 2228 
Q 2838 1875 2053 1875 
L 1259 1875 
L 1259 0 
L 628 0 
L 628 4666 
z
" transform="scale(0.015625)"/>
       <path id="DejaVuSans-4c" d="M 628 4666 
L 1259 4666 
L 1259 531 
L 3531 531 
L 3531 0 
L 628 0 
L 628 4666 
z
" transform="scale(0.015625)"/>
       <path id="DejaVuSans-55" d="M 556 4666 
L 1191 4666 
L 1191 1831 
Q 1191 1081 1462 751 
Q 1734 422 2344 422 
Q 2950 422 3222 751 
Q 3494 1081 3494 1831 
L 3494 4666 
L 4128 4666 
L 4128 1753 
Q 4128 841 3676 375 
Q 3225 -91 2344 -91 
Q 1459 -91 1007 375 
Q 556 841 556 1753 
L 556 4666 
z
" transform="scale(0.015625)"/>
      </defs>
      <use xlink:href="#DejaVuSans-41"/>
      <use xlink:href="#DejaVuSans-4d" x="68.408203"/>
      <use xlink:href="#DejaVuSans-50" x="154.6875"/>
      <use xlink:href="#DejaVuSans-4c" x="214.990234"/>
      <use xlink:href="#DejaVuSans-49" x="270.703125"/>
      <use xlink:href="#DejaVuSans-54" x="300.195312"/>
      <use xlink:href="#DejaVuSans-55" x="361.279297"/>
      <use xlink:href="#DejaVuSans-44" x="434.472656"/>
      <use xlink:href="#DejaVuSans-45" x="511.474609"/>
     </g>
    </g>
   </g>
   <g id="line2d_15">
    <path d="M 138.436364 228.310067 
L 139.413454 307.8 
L 140.390544 262.13557 
L 141.367635 153.89396 
L 142.344725 307.8 
L 143.321815 275.665772 
L 144.298906 307.8 
L 146.253086 307.8 
L 147.230177 280.739597 
L 148.207267 307.8 
L 150.161448 307.8 
L 151.138538 226.618792 
L 152.115628 307.8 
L 153.092719 307.8 
L 154.069809 303.571812 
L 155.046899 307.8 
L 156.023989 231.692617 
L 157.00108 278.202685 
L 157.97817 307.8 
L 160.909441 307.8 
L 161.886531 115.840268 
L 162.863622 233.383893 
L 163.840712 185.18255 
L 164.817802 150.511409 
L 165.794893 166.578523 
L 166.771983 223.236242 
L 167.749073 251.142282 
L 168.726164 173.343624 
L 169.703254 210.551678 
L 170.680344 237.612081 
L 171.657435 269.746309 
L 172.634525 227.46443 
L 173.611615 213.934228 
L 174.588706 256.216107 
L 175.565796 215.625503 
L 176.542886 235.075168 
L 177.519977 307.8 
L 178.497067 223.236242 
L 179.474157 196.175839 
L 180.451248 225.773154 
L 181.428338 230.001342 
L 182.405428 305.263087 
L 183.382519 260.444295 
L 184.359609 279.89396 
L 185.336699 307.8 
L 186.31379 213.934228 
L 187.29088 273.974497 
L 188.26797 307.8 
L 189.245061 164.041611 
L 190.222151 271.437584 
L 191.199241 285.813423 
L 192.176332 279.89396 
L 193.153422 248.605369 
L 194.130512 307.8 
L 195.107603 211.397315 
L 196.084693 272.283221 
L 197.061783 254.524832 
L 198.038873 307.8 
L 199.015964 271.437584 
L 199.993054 307.8 
L 200.970144 206.32349 
L 201.947235 307.8 
L 205.855596 307.8 
L 206.832686 287.504698 
L 207.809777 273.974497 
L 208.786867 282.430872 
L 209.763957 272.283221 
L 210.741048 179.263087 
L 211.718138 191.947651 
L 212.695228 103.155705 
L 213.672319 244.377181 
L 214.649409 211.397315 
L 215.626499 239.303356 
L 216.60359 205.477852 
L 217.58068 261.289933 
L 218.55777 235.075168 
L 220.511951 166.578523 
L 221.489041 220.699329 
L 222.466132 174.189262 
L 223.443222 142.900671 
L 224.420312 200.404027 
L 225.397403 220.699329 
L 226.374493 206.32349 
L 227.351583 142.900671 
L 228.328674 202.095302 
L 229.305764 184.336913 
L 230.282854 172.497987 
L 231.259945 301.034899 
L 232.237035 279.048322 
L 233.214125 307.8 
L 234.191216 238.457718 
L 235.168306 302.726174 
L 236.145396 307.8 
L 237.122487 296.806711 
L 238.099577 262.981208 
L 239.076667 307.8 
L 240.053757 307.8 
L 241.030848 246.068456 
L 242.985028 307.8 
L 243.962119 152.202685 
L 244.939209 307.8 
L 245.916299 307.8 
L 246.89339 264.672483 
L 247.87048 307.8 
L 248.84757 285.813423 
L 249.824661 137.826846 
L 250.801751 307.8 
L 251.778841 254.524832 
L 252.755932 307.8 
L 253.733022 169.115436 
L 254.710112 307.8 
L 255.687203 203.786577 
L 256.664293 307.8 
L 257.641383 180.954362 
L 258.618474 295.115436 
L 259.595564 220.699329 
L 260.572654 180.108725 
L 261.549745 130.216107 
L 262.526835 259.598658 
L 263.503925 192.793289 
L 264.481016 307.8 
L 265.458106 206.32349 
L 266.435196 153.89396 
L 268.389377 307.8 
L 269.366467 230.001342 
L 270.343558 243.531544 
L 271.320648 259.598658 
L 272.297738 295.115436 
L 273.274829 241.840268 
L 274.251919 267.209396 
L 275.229009 255.37047 
L 276.2061 263.826846 
L 277.18319 165.732886 
L 278.16028 169.115436 
L 280.114461 302.726174 
L 281.091551 295.961074 
L 282.068641 307.8 
L 283.045732 273.128859 
L 284.022822 273.974497 
L 284.999912 307.8 
L 285.977003 307.8 
L 286.954093 246.068456 
L 288.908274 290.041611 
L 289.885364 307.8 
L 290.862454 263.826846 
L 291.839545 307.8 
L 292.816635 307.8 
L 293.793725 292.578523 
L 294.770816 303.571812 
L 295.747906 243.531544 
L 297.702087 307.8 
L 298.679177 305.263087 
L 299.656267 259.598658 
L 300.633358 202.94094 
L 301.610448 307.8 
L 302.587538 283.27651 
L 303.564629 95.544966 
L 304.541719 166.578523 
L 305.518809 256.216107 
L 306.4959 183.491275 
L 307.47299 285.813423 
L 308.45008 208.860403 
L 310.404261 307.8 
L 311.381351 237.612081 
L 312.358442 187.719463 
L 313.335532 227.46443 
L 314.312622 179.263087 
L 315.289713 297.652349 
L 316.266803 141.209396 
L 317.243893 228.310067 
L 318.220984 144.591946 
L 319.198074 295.115436 
L 320.175164 273.128859 
L 321.152254 173.343624 
L 322.129345 301.034899 
L 323.106435 270.591946 
L 324.083525 228.310067 
L 325.060616 200.404027 
L 326.037706 306.108725 
L 327.014796 307.8 
L 327.991887 297.652349 
L 328.968977 307.8 
L 329.946067 307.8 
L 330.923158 253.679195 
L 331.900248 307.8 
L 332.877338 229.155705 
L 333.854429 299.343624 
L 334.831519 287.504698 
L 335.808609 307.8 
L 337.76279 307.8 
L 338.73988 285.813423 
L 339.716971 307.8 
L 340.694061 284.122148 
L 341.671151 256.216107 
L 342.648242 307.8 
L 343.625332 307.8 
L 344.602422 287.504698 
L 345.579513 241.840268 
L 346.556603 232.538255 
L 347.533693 307.8 
L 348.510784 273.128859 
L 349.487874 223.236242 
L 350.464964 190.256376 
L 351.442055 55.8 
L 352.419145 275.665772 
L 353.396235 243.531544 
L 354.373326 215.625503 
L 355.350416 179.263087 
L 356.327506 307.8 
L 357.304597 243.531544 
L 358.281687 300.189262 
L 359.258777 300.189262 
L 360.235868 145.437584 
L 361.212958 295.961074 
L 362.190048 146.283221 
L 363.167138 181.8 
L 364.144229 136.13557 
L 365.121319 260.444295 
L 366.098409 216.471141 
L 367.0755 227.46443 
L 368.05259 216.471141 
L 369.02968 129.37047 
L 370.006771 251.142282 
L 370.983861 168.269799 
L 371.960951 248.605369 
L 372.938042 307.8 
L 376.846403 307.8 
L 377.823493 266.363758 
L 378.800584 252.833557 
L 379.777674 307.8 
L 380.754764 307.8 
L 381.731855 257.061745 
L 382.708945 264.672483 
L 383.686035 253.679195 
L 384.663126 278.202685 
L 385.640216 293.424161 
L 386.617306 208.014765 
L 387.594397 307.8 
L 391.502758 307.8 
L 392.479848 291.732886 
L 393.456939 295.115436 
L 394.434029 204.632215 
L 395.411119 269.746309 
L 396.38821 230.84698 
L 397.3653 209.70604 
L 398.34239 142.055034 
L 399.319481 288.350336 
L 400.296571 144.591946 
L 401.273661 296.806711 
L 402.250751 307.8 
L 403.227842 204.632215 
L 404.204932 203.786577 
L 405.182022 194.484564 
L 406.159113 202.94094 
L 407.136203 222.390604 
L 408.113293 227.46443 
L 409.090384 295.961074 
L 410.067474 219.008054 
L 411.044564 223.236242 
L 412.021655 307.8 
L 412.998745 244.377181 
L 413.975835 238.457718 
L 414.952926 179.263087 
L 415.930016 304.41745 
L 416.907106 152.202685 
L 417.884197 79.477852 
L 418.861287 307.8 
L 419.838377 292.578523 
L 420.815468 307.8 
L 421.792558 278.202685 
L 422.769648 240.148993 
L 423.746739 284.967785 
L 424.723829 297.652349 
L 425.700919 307.8 
L 426.67801 307.8 
L 427.6551 256.216107 
L 428.63219 286.65906 
L 429.609281 307.8 
L 431.563461 307.8 
L 432.540552 303.571812 
L 433.517642 214.779866 
L 434.494732 254.524832 
L 435.471823 301.034899 
L 436.448913 307.8 
L 437.426003 307.8 
L 438.403094 289.195973 
L 439.380184 229.155705 
L 440.357274 237.612081 
L 441.334365 307.8 
L 442.311455 220.699329 
L 443.288545 230.84698 
L 444.265635 262.13557 
L 445.242726 161.504698 
L 446.219816 253.679195 
L 447.196906 151.357047 
L 448.173997 273.128859 
L 449.151087 191.102013 
L 450.128177 265.518121 
L 451.105268 283.27651 
L 452.082358 148.820134 
L 453.059448 223.236242 
L 454.036539 253.679195 
L 455.013629 199.558389 
L 455.990719 260.444295 
L 456.96781 163.195973 
L 457.9449 135.289933 
L 458.92199 157.27651 
L 459.899081 274.820134 
L 460.876171 210.551678 
L 461.853261 179.263087 
L 462.830352 268.055034 
L 464.784532 111.612081 
L 465.761623 295.961074 
L 466.738713 307.8 
L 470.647074 307.8 
L 471.624165 294.269799 
L 472.601255 307.8 
L 473.578345 307.8 
L 474.555436 257.061745 
L 475.532526 307.8 
L 476.509616 307.8 
L 477.486707 276.511409 
L 478.463797 307.8 
L 481.395068 307.8 
L 482.372158 273.128859 
L 483.349249 307.8 
L 484.326339 274.820134 
L 485.303429 307.8 
L 486.280519 307.8 
L 487.25761 250.296644 
L 488.2347 292.578523 
L 489.21179 286.65906 
L 490.188881 307.8 
L 491.165971 289.195973 
L 492.143061 176.726174 
L 493.120152 255.37047 
L 494.097242 247.759732 
L 495.074332 180.108725 
L 496.051423 239.303356 
L 497.028513 307.8 
L 498.005603 109.920805 
L 498.982694 114.148993 
L 499.959784 203.786577 
L 500.936874 190.256376 
L 501.913965 223.236242 
L 502.891055 280.739597 
L 503.868145 244.377181 
L 504.845236 153.048322 
L 505.822326 77.786577 
L 506.799416 217.316779 
L 507.776507 264.672483 
L 508.753597 251.987919 
L 509.730687 269.746309 
L 510.707778 241.840268 
L 511.684868 250.296644 
L 512.661958 307.8 
L 513.639049 256.216107 
L 514.616139 230.84698 
L 515.593229 307.8 
L 517.54741 307.8 
L 518.5245 201.249664 
L 519.501591 219.853691 
L 521.455771 264.672483 
L 522.432862 307.8 
L 523.409952 267.209396 
L 524.387042 307.8 
L 525.364132 249.451007 
L 526.341223 307.8 
L 527.318313 237.612081 
L 528.295403 230.001342 
L 529.272494 307.8 
L 530.249584 307.8 
L 531.226674 273.128859 
L 532.203765 307.8 
L 533.180855 297.652349 
L 534.157945 307.8 
L 535.135036 296.806711 
L 536.112126 307.8 
L 537.089216 230.84698 
L 538.066307 81.169128 
L 539.043397 260.444295 
L 540.020487 244.377181 
L 540.997578 224.927517 
L 541.974668 307.8 
L 542.951758 200.404027 
L 543.928849 212.242953 
L 544.905939 234.22953 
L 545.883029 201.249664 
L 546.86012 98.927517 
L 547.83721 128.524832 
L 548.8143 221.544966 
L 549.791391 172.497987 
L 550.768481 213.934228 
L 551.745571 245.222819 
L 552.722662 185.18255 
L 553.699752 203.786577 
L 554.676842 307.8 
L 555.653933 223.236242 
L 556.631023 307.8 
L 557.608113 286.65906 
L 558.585204 307.8 
L 559.562294 213.088591 
L 560.539384 307.8 
L 561.516475 293.424161 
L 562.493565 307.8 
L 563.470655 303.571812 
L 564.447746 307.8 
L 565.424836 307.8 
L 566.401926 219.008054 
L 567.379016 307.8 
L 569.333197 307.8 
L 570.310287 267.209396 
L 571.287378 307.8 
L 572.264468 201.249664 
L 573.241558 251.142282 
L 575.195739 284.122148 
L 576.172829 307.8 
L 577.14992 302.726174 
L 578.12701 226.618792 
L 579.1041 192.793289 
L 580.081191 307.8 
L 581.058281 307.8 
L 582.035371 290.887248 
L 583.012462 174.189262 
L 583.989552 257.907383 
L 584.966642 124.296644 
L 585.943733 278.202685 
L 586.920823 262.981208 
L 587.897913 292.578523 
L 588.875004 293.424161 
L 589.852094 167.424161 
L 590.829184 232.538255 
L 591.806275 179.263087 
L 592.783365 163.195973 
L 593.760455 174.189262 
L 594.737546 197.867114 
L 595.714636 279.048322 
L 596.691726 224.081879 
L 597.668817 153.048322 
L 598.645907 199.558389 
L 599.622997 263.826846 
L 600.600088 194.484564 
L 601.577178 220.699329 
L 602.554268 251.987919 
L 603.531359 228.310067 
L 604.508449 307.8 
L 605.485539 268.055034 
L 606.46263 286.65906 
L 607.43972 307.8 
L 608.41681 243.531544 
L 609.3939 306.108725 
L 610.370991 307.8 
L 611.348081 263.826846 
L 612.325171 307.8 
L 614.279352 307.8 
L 615.256442 269.746309 
L 616.233533 307.8 
L 617.210623 286.65906 
L 618.187713 307.8 
L 619.164804 281.585235 
L 620.141894 280.739597 
L 621.118984 307.8 
L 622.096075 307.8 
L 623.073165 298.497987 
L 624.050255 246.914094 
L 625.027346 286.65906 
L 626.004436 301.034899 
L 626.981526 307.8 
L 627.958617 262.981208 
L 628.935707 291.732886 
L 629.912797 191.102013 
L 630.889888 234.22953 
L 631.866978 259.598658 
L 632.844068 193.638926 
L 633.821159 219.008054 
L 634.798249 252.833557 
L 635.775339 136.13557 
L 637.72952 307.8 
L 638.70661 171.652349 
L 639.683701 170.806711 
L 640.660791 216.471141 
L 641.637881 275.665772 
L 642.614972 268.900671 
L 643.592062 221.544966 
L 644.569152 240.148993 
L 645.546243 299.343624 
L 646.523333 151.357047 
L 647.500423 191.947651 
L 648.477513 219.853691 
L 649.454604 130.216107 
L 650.431694 250.296644 
L 651.408784 235.920805 
L 652.385875 307.8 
L 653.362965 301.880537 
L 654.340055 278.202685 
L 655.317146 239.303356 
L 656.294236 298.497987 
L 657.271326 307.8 
L 659.225507 307.8 
L 660.202597 250.296644 
L 661.179688 286.65906 
L 662.156778 307.8 
L 663.133868 307.8 
L 664.110959 294.269799 
L 665.088049 223.236242 
L 666.065139 307.8 
L 667.04223 307.8 
L 668.01932 289.195973 
L 668.99641 301.880537 
L 669.973501 307.8 
L 670.950591 307.8 
L 671.927681 214.779866 
L 672.904772 254.524832 
L 673.881862 228.310067 
L 674.858952 307.8 
L 675.836043 201.249664 
L 676.813133 242.685906 
L 677.790223 153.89396 
L 678.767314 216.471141 
L 679.744404 307.8 
L 680.721494 266.363758 
L 681.698585 246.914094 
L 682.675675 191.102013 
L 683.652765 191.102013 
L 684.629856 262.981208 
L 685.606946 164.041611 
L 686.584036 176.726174 
L 687.561127 171.652349 
L 688.538217 95.544966 
L 689.515307 150.511409 
L 690.492397 140.363758 
L 691.469488 213.088591 
L 692.446578 202.095302 
L 693.423668 307.8 
L 695.377849 109.075168 
L 696.354939 180.108725 
L 697.33203 188.565101 
L 698.30912 256.216107 
L 699.28621 307.8 
L 700.263301 264.672483 
L 701.240391 250.296644 
L 702.217481 276.511409 
L 703.194572 307.8 
L 704.171662 217.316779 
L 705.148752 229.155705 
L 706.125843 279.89396 
L 707.102933 307.8 
L 708.080023 280.739597 
L 709.057114 270.591946 
L 710.034204 307.8 
L 711.011294 307.8 
L 711.988385 215.625503 
L 712.965475 307.8 
L 714.919656 307.8 
L 715.896746 151.357047 
L 716.873836 307.8 
L 717.850927 211.397315 
L 718.828017 199.558389 
L 719.805107 246.914094 
L 720.782198 306.108725 
L 721.759288 281.585235 
L 722.736378 146.283221 
L 723.713469 103.155705 
L 724.690559 307.8 
L 725.667649 180.954362 
L 726.64474 192.793289 
L 727.62183 146.283221 
L 728.59892 251.142282 
L 729.576011 186.028188 
L 731.530191 269.746309 
L 732.507281 186.028188 
L 733.484372 307.8 
L 734.461462 202.94094 
L 735.438552 200.404027 
L 736.415643 291.732886 
L 737.392733 187.719463 
L 738.369823 201.249664 
L 739.346914 211.397315 
L 740.324004 251.142282 
L 741.301094 270.591946 
L 742.278185 307.8 
L 743.255275 153.048322 
L 744.232365 161.504698 
L 745.209456 162.350336 
L 746.186546 307.8 
L 747.163636 297.652349 
L 747.163636 297.652349 
" clip-path="url(#pf1115db224)" style="fill: none; stroke: #191970; stroke-width: 2; stroke-linecap: square"/>
   </g>
   <g id="patch_3">
    <path d="M 108 320.4 
L 108 43.2 
" style="fill: none; stroke: #000000; stroke-width: 0.8; stroke-linejoin: miter; stroke-linecap: square"/>
   </g>
   <g id="patch_4">
    <path d="M 777.6 320.4 
L 777.6 43.2 
" style="fill: none; stroke: #000000; stroke-width: 0.8; stroke-linejoin: miter; stroke-linecap: square"/>
   </g>
   <g id="patch_5">
    <path d="M 108 320.4 
L 777.6 320.4 
" style="fill: none; stroke: #000000; stroke-width: 0.8; stroke-linejoin: miter; stroke-linecap: square"/>
   </g>
   <g id="patch_6">
    <path d="M 108 43.2 
L 777.6 43.2 
" style="fill: none; stroke: #000000; stroke-width: 0.8; stroke-linejoin: miter; stroke-linecap: square"/>
   </g>
   <g id="text_17">
    <!-- TIME SERIES -->
    <g transform="translate(405.350625 37.2) scale(0.12 -0.12)">
     <defs>
      <path id="DejaVuSans-52" d="M 2841 2188 
Q 3044 2119 3236 1894 
Q 3428 1669 3622 1275 
L 4263 0 
L 3584 0 
L 2988 1197 
Q 2756 1666 2539 1819 
Q 2322 1972 1947 1972 
L 1259 1972 
L 1259 0 
L 628 0 
L 628 4666 
L 2053 4666 
Q 2853 4666 3247 4331 
Q 3641 3997 3641 3322 
Q 3641 2881 3436 2590 
Q 3231 2300 2841 2188 
z
M 1259 4147 
L 1259 2491 
L 2053 2491 
Q 2509 2491 2742 2702 
Q 2975 2913 2975 3322 
Q 2975 3731 2742 3939 
Q 2509 4147 2053 4147 
L 1259 4147 
z
" transform="scale(0.015625)"/>
     </defs>
     <use xlink:href="#DejaVuSans-54"/>
     <use xlink:href="#DejaVuSans-49" x="61.083984"/>
     <use xlink:href="#DejaVuSans-4d" x="90.576172"/>
     <use xlink:href="#DejaVuSans-45" x="176.855469"/>
     <use xlink:href="#DejaVuSans-20" x="240.039062"/>
     <use xlink:href="#DejaVuSans-53" x="271.826172"/>
     <use xlink:href="#DejaVuSans-45" x="335.302734"/>
     <use xlink:href="#DejaVuSans-52" x="398.486328"/>
     <use xlink:href="#DejaVuSans-49" x="467.96875"/>
     <use xlink:href="#DejaVuSans-45" x="497.460938"/>
     <use xlink:href="#DejaVuSans-53" x="560.644531"/>
    </g>
   </g>
  </g>
 </g>
 <defs>
  <clipPath id="pf1115db224">
   <rect x="108" y="43.2" width="669.6" height="277.2"/>
  </clipPath>
 </defs>
</svg>
