<?xml version="1.0" encoding="utf-8" standalone="no"?>
<!DOCTYPE svg PUBLIC "-//W3C//DTD SVG 1.1//EN"
  "http://www.w3.org/Graphics/SVG/1.1/DTD/svg11.dtd">
<svg xmlns:xlink="http://www.w3.org/1999/xlink" width="864pt" height="360pt" viewBox="0 0 864 360" xmlns="http://www.w3.org/2000/svg" version="1.1">
 <metadata>
  <rdf:RDF xmlns:dc="http://purl.org/dc/elements/1.1/" xmlns:cc="http://creativecommons.org/ns#" xmlns:rdf="http://www.w3.org/1999/02/22-rdf-syntax-ns#">
   <cc:Work>
    <dc:type rdf:resource="http://purl.org/dc/dcmitype/StillImage"/>
    <dc:date>2023-11-07T11:09:11.944047</dc:date>
    <dc:format>image/svg+xml</dc:format>
    <dc:creator>
     <cc:Agent>
      <dc:title>Matplotlib v3.7.1, https://matplotlib.org/</dc:title>
     </cc:Agent>
    </dc:creator>
   </cc:Work>
  </rdf:RDF>
 </metadata>
 <defs>
  <style type="text/css">*{stroke-linejoin: round; stroke-linecap: butt}</style>
 </defs>
 <g id="figure_1">
  <g id="patch_1">
   <path d="M 0 360 
L 864 360 
L 864 0 
L 0 0 
z
" style="fill: #ffffff"/>
  </g>
  <g id="axes_1">
   <g id="patch_2">
    <path d="M 108 320.4 
L 777.6 320.4 
L 777.6 43.2 
L 108 43.2 
z
" style="fill: #ffffff"/>
   </g>
   <g id="matplotlib.axis_1">
    <g id="xtick_1">
     <g id="line2d_1">
      <defs>
       <path id="m56b67bef68" d="M 0 0 
L 0 3.5 
" style="stroke: #000000; stroke-width: 0.8"/>
      </defs>
      <g>
       <use xlink:href="#m56b67bef68" x="138.436364" y="320.4" style="stroke: #000000; stroke-width: 0.8"/>
      </g>
     </g>
     <g id="text_1">
      <!-- 2022-01-01 -->
      <g transform="translate(109.378551 334.998438) scale(0.1 -0.1)">
       <defs>
        <path id="DejaVuSans-32" d="M 1228 531 
L 3431 531 
L 3431 0 
L 469 0 
L 469 531 
Q 828 903 1448 1529 
Q 2069 2156 2228 2338 
Q 2531 2678 2651 2914 
Q 2772 3150 2772 3378 
Q 2772 3750 2511 3984 
Q 2250 4219 1831 4219 
Q 1534 4219 1204 4116 
Q 875 4013 500 3803 
L 500 4441 
Q 881 4594 1212 4672 
Q 1544 4750 1819 4750 
Q 2544 4750 2975 4387 
Q 3406 4025 3406 3419 
Q 3406 3131 3298 2873 
Q 3191 2616 2906 2266 
Q 2828 2175 2409 1742 
Q 1991 1309 1228 531 
z
" transform="scale(0.015625)"/>
        <path id="DejaVuSans-30" d="M 2034 4250 
Q 1547 4250 1301 3770 
Q 1056 3291 1056 2328 
Q 1056 1369 1301 889 
Q 1547 409 2034 409 
Q 2525 409 2770 889 
Q 3016 1369 3016 2328 
Q 3016 3291 2770 3770 
Q 2525 4250 2034 4250 
z
M 2034 4750 
Q 2819 4750 3233 4129 
Q 3647 3509 3647 2328 
Q 3647 1150 3233 529 
Q 2819 -91 2034 -91 
Q 1250 -91 836 529 
Q 422 1150 422 2328 
Q 422 3509 836 4129 
Q 1250 4750 2034 4750 
z
" transform="scale(0.015625)"/>
        <path id="DejaVuSans-2d" d="M 313 2009 
L 1997 2009 
L 1997 1497 
L 313 1497 
L 313 2009 
z
" transform="scale(0.015625)"/>
        <path id="DejaVuSans-31" d="M 794 531 
L 1825 531 
L 1825 4091 
L 703 3866 
L 703 4441 
L 1819 4666 
L 2450 4666 
L 2450 531 
L 3481 531 
L 3481 0 
L 794 0 
L 794 531 
z
" transform="scale(0.015625)"/>
       </defs>
       <use xlink:href="#DejaVuSans-32"/>
       <use xlink:href="#DejaVuSans-30" x="63.623047"/>
       <use xlink:href="#DejaVuSans-32" x="127.246094"/>
       <use xlink:href="#DejaVuSans-32" x="190.869141"/>
       <use xlink:href="#DejaVuSans-2d" x="254.492188"/>
       <use xlink:href="#DejaVuSans-30" x="290.576172"/>
       <use xlink:href="#DejaVuSans-31" x="354.199219"/>
       <use xlink:href="#DejaVuSans-2d" x="417.822266"/>
       <use xlink:href="#DejaVuSans-30" x="453.90625"/>
       <use xlink:href="#DejaVuSans-31" x="517.529297"/>
      </g>
     </g>
    </g>
    <g id="xtick_2">
     <g id="line2d_2">
      <g>
       <use xlink:href="#m56b67bef68" x="214.626479" y="320.4" style="stroke: #000000; stroke-width: 0.8"/>
      </g>
     </g>
     <g id="text_2">
      <!-- 2022-01-03 -->
      <g transform="translate(185.568666 334.998438) scale(0.1 -0.1)">
       <defs>
        <path id="DejaVuSans-33" d="M 2597 2516 
Q 3050 2419 3304 2112 
Q 3559 1806 3559 1356 
Q 3559 666 3084 287 
Q 2609 -91 1734 -91 
Q 1441 -91 1130 -33 
Q 819 25 488 141 
L 488 750 
Q 750 597 1062 519 
Q 1375 441 1716 441 
Q 2309 441 2620 675 
Q 2931 909 2931 1356 
Q 2931 1769 2642 2001 
Q 2353 2234 1838 2234 
L 1294 2234 
L 1294 2753 
L 1863 2753 
Q 2328 2753 2575 2939 
Q 2822 3125 2822 3475 
Q 2822 3834 2567 4026 
Q 2313 4219 1838 4219 
Q 1578 4219 1281 4162 
Q 984 4106 628 3988 
L 628 4550 
Q 988 4650 1302 4700 
Q 1616 4750 1894 4750 
Q 2613 4750 3031 4423 
Q 3450 4097 3450 3541 
Q 3450 3153 3228 2886 
Q 3006 2619 2597 2516 
z
" transform="scale(0.015625)"/>
       </defs>
       <use xlink:href="#DejaVuSans-32"/>
       <use xlink:href="#DejaVuSans-30" x="63.623047"/>
       <use xlink:href="#DejaVuSans-32" x="127.246094"/>
       <use xlink:href="#DejaVuSans-32" x="190.869141"/>
       <use xlink:href="#DejaVuSans-2d" x="254.492188"/>
       <use xlink:href="#DejaVuSans-30" x="290.576172"/>
       <use xlink:href="#DejaVuSans-31" x="354.199219"/>
       <use xlink:href="#DejaVuSans-2d" x="417.822266"/>
       <use xlink:href="#DejaVuSans-30" x="453.90625"/>
       <use xlink:href="#DejaVuSans-33" x="517.529297"/>
      </g>
     </g>
    </g>
    <g id="xtick_3">
     <g id="line2d_3">
      <g>
       <use xlink:href="#m56b67bef68" x="290.816594" y="320.4" style="stroke: #000000; stroke-width: 0.8"/>
      </g>
     </g>
     <g id="text_3">
      <!-- 2022-01-05 -->
      <g transform="translate(261.758781 334.998438) scale(0.1 -0.1)">
       <defs>
        <path id="DejaVuSans-35" d="M 691 4666 
L 3169 4666 
L 3169 4134 
L 1269 4134 
L 1269 2991 
Q 1406 3038 1543 3061 
Q 1681 3084 1819 3084 
Q 2600 3084 3056 2656 
Q 3513 2228 3513 1497 
Q 3513 744 3044 326 
Q 2575 -91 1722 -91 
Q 1428 -91 1123 -41 
Q 819 9 494 109 
L 494 744 
Q 775 591 1075 516 
Q 1375 441 1709 441 
Q 2250 441 2565 725 
Q 2881 1009 2881 1497 
Q 2881 1984 2565 2268 
Q 2250 2553 1709 2553 
Q 1456 2553 1204 2497 
Q 953 2441 691 2322 
L 691 4666 
z
" transform="scale(0.015625)"/>
       </defs>
       <use xlink:href="#DejaVuSans-32"/>
       <use xlink:href="#DejaVuSans-30" x="63.623047"/>
       <use xlink:href="#DejaVuSans-32" x="127.246094"/>
       <use xlink:href="#DejaVuSans-32" x="190.869141"/>
       <use xlink:href="#DejaVuSans-2d" x="254.492188"/>
       <use xlink:href="#DejaVuSans-30" x="290.576172"/>
       <use xlink:href="#DejaVuSans-31" x="354.199219"/>
       <use xlink:href="#DejaVuSans-2d" x="417.822266"/>
       <use xlink:href="#DejaVuSans-30" x="453.90625"/>
       <use xlink:href="#DejaVuSans-35" x="517.529297"/>
      </g>
     </g>
    </g>
    <g id="xtick_4">
     <g id="line2d_4">
      <g>
       <use xlink:href="#m56b67bef68" x="367.006709" y="320.4" style="stroke: #000000; stroke-width: 0.8"/>
      </g>
     </g>
     <g id="text_4">
      <!-- 2022-01-07 -->
      <g transform="translate(337.948896 334.998438) scale(0.1 -0.1)">
       <defs>
        <path id="DejaVuSans-37" d="M 525 4666 
L 3525 4666 
L 3525 4397 
L 1831 0 
L 1172 0 
L 2766 4134 
L 525 4134 
L 525 4666 
z
" transform="scale(0.015625)"/>
       </defs>
       <use xlink:href="#DejaVuSans-32"/>
       <use xlink:href="#DejaVuSans-30" x="63.623047"/>
       <use xlink:href="#DejaVuSans-32" x="127.246094"/>
       <use xlink:href="#DejaVuSans-32" x="190.869141"/>
       <use xlink:href="#DejaVuSans-2d" x="254.492188"/>
       <use xlink:href="#DejaVuSans-30" x="290.576172"/>
       <use xlink:href="#DejaVuSans-31" x="354.199219"/>
       <use xlink:href="#DejaVuSans-2d" x="417.822266"/>
       <use xlink:href="#DejaVuSans-30" x="453.90625"/>
       <use xlink:href="#DejaVuSans-37" x="517.529297"/>
      </g>
     </g>
    </g>
    <g id="xtick_5">
     <g id="line2d_5">
      <g>
       <use xlink:href="#m56b67bef68" x="443.196824" y="320.4" style="stroke: #000000; stroke-width: 0.8"/>
      </g>
     </g>
     <g id="text_5">
      <!-- 2022-01-09 -->
      <g transform="translate(414.139011 334.998438) scale(0.1 -0.1)">
       <defs>
        <path id="DejaVuSans-39" d="M 703 97 
L 703 672 
Q 941 559 1184 500 
Q 1428 441 1663 441 
Q 2288 441 2617 861 
Q 2947 1281 2994 2138 
Q 2813 1869 2534 1725 
Q 2256 1581 1919 1581 
Q 1219 1581 811 2004 
Q 403 2428 403 3163 
Q 403 3881 828 4315 
Q 1253 4750 1959 4750 
Q 2769 4750 3195 4129 
Q 3622 3509 3622 2328 
Q 3622 1225 3098 567 
Q 2575 -91 1691 -91 
Q 1453 -91 1209 -44 
Q 966 3 703 97 
z
M 1959 2075 
Q 2384 2075 2632 2365 
Q 2881 2656 2881 3163 
Q 2881 3666 2632 3958 
Q 2384 4250 1959 4250 
Q 1534 4250 1286 3958 
Q 1038 3666 1038 3163 
Q 1038 2656 1286 2365 
Q 1534 2075 1959 2075 
z
" transform="scale(0.015625)"/>
       </defs>
       <use xlink:href="#DejaVuSans-32"/>
       <use xlink:href="#DejaVuSans-30" x="63.623047"/>
       <use xlink:href="#DejaVuSans-32" x="127.246094"/>
       <use xlink:href="#DejaVuSans-32" x="190.869141"/>
       <use xlink:href="#DejaVuSans-2d" x="254.492188"/>
       <use xlink:href="#DejaVuSans-30" x="290.576172"/>
       <use xlink:href="#DejaVuSans-31" x="354.199219"/>
       <use xlink:href="#DejaVuSans-2d" x="417.822266"/>
       <use xlink:href="#DejaVuSans-30" x="453.90625"/>
       <use xlink:href="#DejaVuSans-39" x="517.529297"/>
      </g>
     </g>
    </g>
    <g id="xtick_6">
     <g id="line2d_6">
      <g>
       <use xlink:href="#m56b67bef68" x="519.386938" y="320.4" style="stroke: #000000; stroke-width: 0.8"/>
      </g>
     </g>
     <g id="text_6">
      <!-- 2022-01-11 -->
      <g transform="translate(490.329126 334.998438) scale(0.1 -0.1)">
       <use xlink:href="#DejaVuSans-32"/>
       <use xlink:href="#DejaVuSans-30" x="63.623047"/>
       <use xlink:href="#DejaVuSans-32" x="127.246094"/>
       <use xlink:href="#DejaVuSans-32" x="190.869141"/>
       <use xlink:href="#DejaVuSans-2d" x="254.492188"/>
       <use xlink:href="#DejaVuSans-30" x="290.576172"/>
       <use xlink:href="#DejaVuSans-31" x="354.199219"/>
       <use xlink:href="#DejaVuSans-2d" x="417.822266"/>
       <use xlink:href="#DejaVuSans-31" x="453.90625"/>
       <use xlink:href="#DejaVuSans-31" x="517.529297"/>
      </g>
     </g>
    </g>
    <g id="xtick_7">
     <g id="line2d_7">
      <g>
       <use xlink:href="#m56b67bef68" x="595.577053" y="320.4" style="stroke: #000000; stroke-width: 0.8"/>
      </g>
     </g>
     <g id="text_7">
      <!-- 2022-01-13 -->
      <g transform="translate(566.519241 334.998438) scale(0.1 -0.1)">
       <use xlink:href="#DejaVuSans-32"/>
       <use xlink:href="#DejaVuSans-30" x="63.623047"/>
       <use xlink:href="#DejaVuSans-32" x="127.246094"/>
       <use xlink:href="#DejaVuSans-32" x="190.869141"/>
       <use xlink:href="#DejaVuSans-2d" x="254.492188"/>
       <use xlink:href="#DejaVuSans-30" x="290.576172"/>
       <use xlink:href="#DejaVuSans-31" x="354.199219"/>
       <use xlink:href="#DejaVuSans-2d" x="417.822266"/>
       <use xlink:href="#DejaVuSans-31" x="453.90625"/>
       <use xlink:href="#DejaVuSans-33" x="517.529297"/>
      </g>
     </g>
    </g>
    <g id="xtick_8">
     <g id="line2d_8">
      <g>
       <use xlink:href="#m56b67bef68" x="671.767168" y="320.4" style="stroke: #000000; stroke-width: 0.8"/>
      </g>
     </g>
     <g id="text_8">
      <!-- 2022-01-15 -->
      <g transform="translate(642.709356 334.998438) scale(0.1 -0.1)">
       <use xlink:href="#DejaVuSans-32"/>
       <use xlink:href="#DejaVuSans-30" x="63.623047"/>
       <use xlink:href="#DejaVuSans-32" x="127.246094"/>
       <use xlink:href="#DejaVuSans-32" x="190.869141"/>
       <use xlink:href="#DejaVuSans-2d" x="254.492188"/>
       <use xlink:href="#DejaVuSans-30" x="290.576172"/>
       <use xlink:href="#DejaVuSans-31" x="354.199219"/>
       <use xlink:href="#DejaVuSans-2d" x="417.822266"/>
       <use xlink:href="#DejaVuSans-31" x="453.90625"/>
       <use xlink:href="#DejaVuSans-35" x="517.529297"/>
      </g>
     </g>
    </g>
    <g id="xtick_9">
     <g id="line2d_9">
      <g>
       <use xlink:href="#m56b67bef68" x="747.957283" y="320.4" style="stroke: #000000; stroke-width: 0.8"/>
      </g>
     </g>
     <g id="text_9">
      <!-- 2022-01-17 -->
      <g transform="translate(718.899471 334.998438) scale(0.1 -0.1)">
       <use xlink:href="#DejaVuSans-32"/>
       <use xlink:href="#DejaVuSans-30" x="63.623047"/>
       <use xlink:href="#DejaVuSans-32" x="127.246094"/>
       <use xlink:href="#DejaVuSans-32" x="190.869141"/>
       <use xlink:href="#DejaVuSans-2d" x="254.492188"/>
       <use xlink:href="#DejaVuSans-30" x="290.576172"/>
       <use xlink:href="#DejaVuSans-31" x="354.199219"/>
       <use xlink:href="#DejaVuSans-2d" x="417.822266"/>
       <use xlink:href="#DejaVuSans-31" x="453.90625"/>
       <use xlink:href="#DejaVuSans-37" x="517.529297"/>
      </g>
     </g>
    </g>
    <g id="text_10">
     <!-- TIME (DAYS) -->
     <g transform="translate(412.283594 348.676562) scale(0.1 -0.1)">
      <defs>
       <path id="DejaVuSans-54" d="M -19 4666 
L 3928 4666 
L 3928 4134 
L 2272 4134 
L 2272 0 
L 1638 0 
L 1638 4134 
L -19 4134 
L -19 4666 
z
" transform="scale(0.015625)"/>
       <path id="DejaVuSans-49" d="M 628 4666 
L 1259 4666 
L 1259 0 
L 628 0 
L 628 4666 
z
" transform="scale(0.015625)"/>
       <path id="DejaVuSans-4d" d="M 628 4666 
L 1569 4666 
L 2759 1491 
L 3956 4666 
L 4897 4666 
L 4897 0 
L 4281 0 
L 4281 4097 
L 3078 897 
L 2444 897 
L 1241 4097 
L 1241 0 
L 628 0 
L 628 4666 
z
" transform="scale(0.015625)"/>
       <path id="DejaVuSans-45" d="M 628 4666 
L 3578 4666 
L 3578 4134 
L 1259 4134 
L 1259 2753 
L 3481 2753 
L 3481 2222 
L 1259 2222 
L 1259 531 
L 3634 531 
L 3634 0 
L 628 0 
L 628 4666 
z
" transform="scale(0.015625)"/>
       <path id="DejaVuSans-20" transform="scale(0.015625)"/>
       <path id="DejaVuSans-28" d="M 1984 4856 
Q 1566 4138 1362 3434 
Q 1159 2731 1159 2009 
Q 1159 1288 1364 580 
Q 1569 -128 1984 -844 
L 1484 -844 
Q 1016 -109 783 600 
Q 550 1309 550 2009 
Q 550 2706 781 3412 
Q 1013 4119 1484 4856 
L 1984 4856 
z
" transform="scale(0.015625)"/>
       <path id="DejaVuSans-44" d="M 1259 4147 
L 1259 519 
L 2022 519 
Q 2988 519 3436 956 
Q 3884 1394 3884 2338 
Q 3884 3275 3436 3711 
Q 2988 4147 2022 4147 
L 1259 4147 
z
M 628 4666 
L 1925 4666 
Q 3281 4666 3915 4102 
Q 4550 3538 4550 2338 
Q 4550 1131 3912 565 
Q 3275 0 1925 0 
L 628 0 
L 628 4666 
z
" transform="scale(0.015625)"/>
       <path id="DejaVuSans-41" d="M 2188 4044 
L 1331 1722 
L 3047 1722 
L 2188 4044 
z
M 1831 4666 
L 2547 4666 
L 4325 0 
L 3669 0 
L 3244 1197 
L 1141 1197 
L 716 0 
L 50 0 
L 1831 4666 
z
" transform="scale(0.015625)"/>
       <path id="DejaVuSans-59" d="M -13 4666 
L 666 4666 
L 1959 2747 
L 3244 4666 
L 3922 4666 
L 2272 2222 
L 2272 0 
L 1638 0 
L 1638 2222 
L -13 4666 
z
" transform="scale(0.015625)"/>
       <path id="DejaVuSans-53" d="M 3425 4513 
L 3425 3897 
Q 3066 4069 2747 4153 
Q 2428 4238 2131 4238 
Q 1616 4238 1336 4038 
Q 1056 3838 1056 3469 
Q 1056 3159 1242 3001 
Q 1428 2844 1947 2747 
L 2328 2669 
Q 3034 2534 3370 2195 
Q 3706 1856 3706 1288 
Q 3706 609 3251 259 
Q 2797 -91 1919 -91 
Q 1588 -91 1214 -16 
Q 841 59 441 206 
L 441 856 
Q 825 641 1194 531 
Q 1563 422 1919 422 
Q 2459 422 2753 634 
Q 3047 847 3047 1241 
Q 3047 1584 2836 1778 
Q 2625 1972 2144 2069 
L 1759 2144 
Q 1053 2284 737 2584 
Q 422 2884 422 3419 
Q 422 4038 858 4394 
Q 1294 4750 2059 4750 
Q 2388 4750 2728 4690 
Q 3069 4631 3425 4513 
z
" transform="scale(0.015625)"/>
       <path id="DejaVuSans-29" d="M 513 4856 
L 1013 4856 
Q 1481 4119 1714 3412 
Q 1947 2706 1947 2009 
Q 1947 1309 1714 600 
Q 1481 -109 1013 -844 
L 513 -844 
Q 928 -128 1133 580 
Q 1338 1288 1338 2009 
Q 1338 2731 1133 3434 
Q 928 4138 513 4856 
z
" transform="scale(0.015625)"/>
      </defs>
      <use xlink:href="#DejaVuSans-54"/>
      <use xlink:href="#DejaVuSans-49" x="61.083984"/>
      <use xlink:href="#DejaVuSans-4d" x="90.576172"/>
      <use xlink:href="#DejaVuSans-45" x="176.855469"/>
      <use xlink:href="#DejaVuSans-20" x="240.039062"/>
      <use xlink:href="#DejaVuSans-28" x="271.826172"/>
      <use xlink:href="#DejaVuSans-44" x="310.839844"/>
      <use xlink:href="#DejaVuSans-41" x="386.091797"/>
      <use xlink:href="#DejaVuSans-59" x="446.75"/>
      <use xlink:href="#DejaVuSans-53" x="507.833984"/>
      <use xlink:href="#DejaVuSans-29" x="571.310547"/>
     </g>
    </g>
   </g>
   <g id="matplotlib.axis_2">
    <g id="ytick_1">
     <g id="line2d_10">
      <defs>
       <path id="m47b8dd91dd" d="M 0 0 
L -3.5 0 
" style="stroke: #000000; stroke-width: 0.8"/>
      </defs>
      <g>
       <use xlink:href="#m47b8dd91dd" x="108" y="307.8" style="stroke: #000000; stroke-width: 0.8"/>
      </g>
     </g>
     <g id="text_11">
      <!-- 0 -->
      <g transform="translate(94.6375 311.599219) scale(0.1 -0.1)">
       <use xlink:href="#DejaVuSans-30"/>
      </g>
     </g>
    </g>
    <g id="ytick_2">
     <g id="line2d_11">
      <g>
       <use xlink:href="#m47b8dd91dd" x="108" y="267.023301" style="stroke: #000000; stroke-width: 0.8"/>
      </g>
     </g>
     <g id="text_12">
      <!-- 50 -->
      <g transform="translate(88.275 270.82252) scale(0.1 -0.1)">
       <use xlink:href="#DejaVuSans-35"/>
       <use xlink:href="#DejaVuSans-30" x="63.623047"/>
      </g>
     </g>
    </g>
    <g id="ytick_3">
     <g id="line2d_12">
      <g>
       <use xlink:href="#m47b8dd91dd" x="108" y="226.246602" style="stroke: #000000; stroke-width: 0.8"/>
      </g>
     </g>
     <g id="text_13">
      <!-- 100 -->
      <g transform="translate(81.9125 230.045821) scale(0.1 -0.1)">
       <use xlink:href="#DejaVuSans-31"/>
       <use xlink:href="#DejaVuSans-30" x="63.623047"/>
       <use xlink:href="#DejaVuSans-30" x="127.246094"/>
      </g>
     </g>
    </g>
    <g id="ytick_4">
     <g id="line2d_13">
      <g>
       <use xlink:href="#m47b8dd91dd" x="108" y="185.469903" style="stroke: #000000; stroke-width: 0.8"/>
      </g>
     </g>
     <g id="text_14">
      <!-- 150 -->
      <g transform="translate(81.9125 189.269122) scale(0.1 -0.1)">
       <use xlink:href="#DejaVuSans-31"/>
       <use xlink:href="#DejaVuSans-35" x="63.623047"/>
       <use xlink:href="#DejaVuSans-30" x="127.246094"/>
      </g>
     </g>
    </g>
    <g id="ytick_5">
     <g id="line2d_14">
      <g>
       <use xlink:href="#m47b8dd91dd" x="108" y="144.693204" style="stroke: #000000; stroke-width: 0.8"/>
      </g>
     </g>
     <g id="text_15">
      <!-- 200 -->
      <g transform="translate(81.9125 148.492423) scale(0.1 -0.1)">
       <use xlink:href="#DejaVuSans-32"/>
       <use xlink:href="#DejaVuSans-30" x="63.623047"/>
       <use xlink:href="#DejaVuSans-30" x="127.246094"/>
      </g>
     </g>
    </g>
    <g id="ytick_6">
     <g id="line2d_15">
      <g>
       <use xlink:href="#m47b8dd91dd" x="108" y="103.916505" style="stroke: #000000; stroke-width: 0.8"/>
      </g>
     </g>
     <g id="text_16">
      <!-- 250 -->
      <g transform="translate(81.9125 107.715724) scale(0.1 -0.1)">
       <use xlink:href="#DejaVuSans-32"/>
       <use xlink:href="#DejaVuSans-35" x="63.623047"/>
       <use xlink:href="#DejaVuSans-30" x="127.246094"/>
      </g>
     </g>
    </g>
    <g id="ytick_7">
     <g id="line2d_16">
      <g>
       <use xlink:href="#m47b8dd91dd" x="108" y="63.139806" style="stroke: #000000; stroke-width: 0.8"/>
      </g>
     </g>
     <g id="text_17">
      <!-- 300 -->
      <g transform="translate(81.9125 66.939025) scale(0.1 -0.1)">
       <use xlink:href="#DejaVuSans-33"/>
       <use xlink:href="#DejaVuSans-30" x="63.623047"/>
       <use xlink:href="#DejaVuSans-30" x="127.246094"/>
      </g>
     </g>
    </g>
    <g id="text_18">
     <!-- AMPLITUDE -->
     <g transform="translate(75.832812 210.532812) rotate(-90) scale(0.1 -0.1)">
      <defs>
       <path id="DejaVuSans-50" d="M 1259 4147 
L 1259 2394 
L 2053 2394 
Q 2494 2394 2734 2622 
Q 2975 2850 2975 3272 
Q 2975 3691 2734 3919 
Q 2494 4147 2053 4147 
L 1259 4147 
z
M 628 4666 
L 2053 4666 
Q 2838 4666 3239 4311 
Q 3641 3956 3641 3272 
Q 3641 2581 3239 2228 
Q 2838 1875 2053 1875 
L 1259 1875 
L 1259 0 
L 628 0 
L 628 4666 
z
" transform="scale(0.015625)"/>
       <path id="DejaVuSans-4c" d="M 628 4666 
L 1259 4666 
L 1259 531 
L 3531 531 
L 3531 0 
L 628 0 
L 628 4666 
z
" transform="scale(0.015625)"/>
       <path id="DejaVuSans-55" d="M 556 4666 
L 1191 4666 
L 1191 1831 
Q 1191 1081 1462 751 
Q 1734 422 2344 422 
Q 2950 422 3222 751 
Q 3494 1081 3494 1831 
L 3494 4666 
L 4128 4666 
L 4128 1753 
Q 4128 841 3676 375 
Q 3225 -91 2344 -91 
Q 1459 -91 1007 375 
Q 556 841 556 1753 
L 556 4666 
z
" transform="scale(0.015625)"/>
      </defs>
      <use xlink:href="#DejaVuSans-41"/>
      <use xlink:href="#DejaVuSans-4d" x="68.408203"/>
      <use xlink:href="#DejaVuSans-50" x="154.6875"/>
      <use xlink:href="#DejaVuSans-4c" x="214.990234"/>
      <use xlink:href="#DejaVuSans-49" x="270.703125"/>
      <use xlink:href="#DejaVuSans-54" x="300.195312"/>
      <use xlink:href="#DejaVuSans-55" x="361.279297"/>
      <use xlink:href="#DejaVuSans-44" x="434.472656"/>
      <use xlink:href="#DejaVuSans-45" x="511.474609"/>
     </g>
    </g>
   </g>
   <g id="line2d_17">
    <path d="M 138.436364 132.460194 
L 139.230011 170.790291 
L 140.023658 307.8 
L 140.817305 303.72233 
L 141.610952 208.304854 
L 142.404599 307.8 
L 143.198246 275.178641 
L 143.991893 307.8 
L 144.78554 274.363107 
L 145.579187 307.8 
L 146.372834 254.790291 
L 147.166481 145.508738 
L 147.960128 307.8 
L 148.753775 307.8 
L 149.547422 284.965049 
L 150.341069 307.8 
L 151.134716 291.48932 
L 151.928363 279.256311 
L 152.72201 307.8 
L 153.515657 243.372816 
L 154.309304 307.8 
L 157.483892 307.8 
L 158.277539 193.625243 
L 159.071186 281.702913 
L 159.864833 274.363107 
L 160.658481 209.935922 
L 161.452128 240.926214 
L 162.245775 213.198058 
L 163.039422 256.421359 
L 163.833069 231.139806 
L 164.626716 272.732039 
L 165.420363 294.751456 
L 166.21401 188.732039 
L 167.007657 229.508738 
L 167.801304 196.887379 
L 168.594951 170.790291 
L 169.388598 307.8 
L 170.182245 248.266019 
L 170.975892 204.227184 
L 171.769539 200.149515 
L 172.563186 221.353398 
L 173.356833 191.994175 
L 174.15048 197.702913 
L 174.944127 262.945631 
L 175.737774 263.761165 
L 176.531421 205.042718 
L 177.325068 307.8 
L 178.912362 307.8 
L 179.706009 270.285437 
L 180.499656 291.48932 
L 181.293303 253.974757 
L 182.08695 284.149515 
L 182.880597 209.120388 
L 183.674244 298.829126 
L 184.467891 187.100971 
L 185.261538 307.8 
L 187.64248 307.8 
L 188.436127 304.537864 
L 189.229774 299.64466 
L 190.023421 301.275728 
L 190.817068 230.324272 
L 191.610715 231.95534 
L 192.404362 289.042718 
L 193.198009 280.887379 
L 193.991656 262.130097 
L 194.785303 237.664078 
L 195.57895 246.634951 
L 196.372597 55.8 
L 197.959891 307.8 
L 198.753538 226.246602 
L 199.547185 299.64466 
L 200.340832 171.605825 
L 201.134479 159.372816 
L 201.928126 156.11068 
L 202.721773 264.576699 
L 203.51542 236.848544 
L 204.309067 244.18835 
L 205.102714 238.479612 
L 205.896361 152.848544 
L 206.690008 195.256311 
L 207.483655 276.809709 
L 208.277302 240.926214 
L 209.070949 247.450485 
L 209.864596 169.159223 
L 211.45189 251.528155 
L 212.245538 153.664078 
L 213.039185 307.8 
L 213.832832 298.829126 
L 214.626479 185.469903 
L 215.420126 234.401942 
L 216.213773 263.761165 
L 217.00742 262.945631 
L 217.801067 307.8 
L 219.388361 307.8 
L 220.182008 262.130097 
L 220.975655 307.8 
L 225.737537 307.8 
L 227.324831 205.042718 
L 228.118478 307.8 
L 228.912125 307.8 
L 229.705772 281.702913 
L 230.499419 243.372816 
L 231.293066 307.8 
L 232.88036 307.8 
L 233.674007 244.18835 
L 234.467654 271.100971 
L 235.261301 224.615534 
L 236.054948 260.499029 
L 236.848595 290.673786 
L 237.642243 245.003883 
L 238.43589 272.732039 
L 239.229537 228.693204 
L 240.023184 262.130097 
L 240.816831 307.8 
L 241.610478 267.023301 
L 242.404125 186.285437 
L 243.197772 253.974757 
L 243.991419 271.916505 
L 244.785066 296.382524 
L 245.578713 180.576699 
L 246.37236 290.673786 
L 247.166007 187.100971 
L 247.959654 221.353398 
L 248.753301 275.178641 
L 249.546948 218.091262 
L 250.340595 295.56699 
L 251.134242 256.421359 
L 251.927889 222.984466 
L 252.721536 307.8 
L 253.515183 233.586408 
L 254.30883 307.8 
L 255.102477 275.994175 
L 255.896124 307.8 
L 256.689771 289.042718 
L 257.483418 307.8 
L 259.070712 307.8 
L 259.864359 249.897087 
L 260.658006 307.8 
L 261.451653 307.8 
L 262.2453 284.149515 
L 263.038947 307.8 
L 263.832595 276.809709 
L 264.626242 209.120388 
L 265.419889 307.8 
L 266.213536 274.363107 
L 267.007183 307.8 
L 267.80083 260.499029 
L 268.594477 307.8 
L 269.388124 307.8 
L 270.181771 261.314563 
L 270.975418 307.8 
L 271.769065 307.8 
L 272.562712 289.858252 
L 273.356359 293.120388 
L 274.150006 209.120388 
L 274.943653 219.72233 
L 275.7373 252.343689 
L 276.530947 164.266019 
L 277.324594 180.576699 
L 278.118241 187.100971 
L 278.911888 214.829126 
L 279.705535 195.256311 
L 280.499182 216.460194 
L 281.292829 204.227184 
L 282.086476 251.528155 
L 282.880123 178.130097 
L 283.67377 224.615534 
L 284.467417 247.450485 
L 285.261064 289.042718 
L 286.054711 204.227184 
L 286.848358 299.64466 
L 287.642005 273.547573 
L 288.435652 99.838835 
L 289.2293 245.003883 
L 290.022947 218.091262 
L 290.816594 284.965049 
L 291.610241 179.761165 
L 292.403888 165.081553 
L 293.197535 307.8 
L 294.784829 307.8 
L 295.578476 277.625243 
L 296.372123 234.401942 
L 297.16577 220.537864 
L 297.959417 146.324272 
L 298.753064 307.8 
L 299.546711 227.062136 
L 300.340358 270.285437 
L 301.134005 273.547573 
L 301.927652 307.8 
L 303.514946 307.8 
L 304.308593 220.537864 
L 305.10224 288.227184 
L 305.895887 307.8 
L 306.689534 307.8 
L 307.483181 262.945631 
L 308.276828 307.8 
L 309.070475 307.8 
L 309.864122 193.625243 
L 310.657769 295.56699 
L 311.451416 241.741748 
L 312.245063 209.935922 
L 313.03871 243.372816 
L 313.832357 282.518447 
L 314.626005 240.11068 
L 315.419652 219.72233 
L 316.213299 188.732039 
L 317.006946 187.100971 
L 317.800593 214.829126 
L 318.59424 257.236893 
L 319.387887 230.324272 
L 320.181534 307.8 
L 320.975181 175.683495 
L 321.768828 273.547573 
L 322.562475 156.926214 
L 323.356122 224.615534 
L 324.149769 208.304854 
L 324.943416 228.693204 
L 325.737063 187.916505 
L 326.53071 131.64466 
L 327.324357 157.741748 
L 328.118004 216.460194 
L 328.911651 231.139806 
L 329.705298 237.664078 
L 330.498945 136.537864 
L 331.292592 284.149515 
L 332.086239 255.605825 
L 332.879886 302.091262 
L 333.673533 297.198058 
L 334.46718 258.052427 
L 335.260827 307.8 
L 336.054474 147.139806 
L 336.848121 307.8 
L 337.641768 268.654369 
L 338.435415 270.285437 
L 339.229062 254.790291 
L 340.022709 307.8 
L 340.816357 305.353398 
L 341.610004 307.8 
L 344.784592 307.8 
L 345.578239 267.838835 
L 346.371886 276.809709 
L 347.165533 307.8 
L 348.752827 307.8 
L 349.546474 219.72233 
L 350.340121 253.974757 
L 351.133768 187.100971 
L 351.927415 273.547573 
L 352.721062 218.091262 
L 353.514709 233.586408 
L 354.308356 307.8 
L 355.102003 207.48932 
L 355.89565 145.508738 
L 356.689297 307.8 
L 357.482944 205.858252 
L 358.276591 307.8 
L 359.070238 103.916505 
L 359.863885 243.372816 
L 360.657532 141.431068 
L 361.451179 168.343689 
L 362.244826 307.8 
L 363.038473 210.751456 
L 363.83212 210.751456 
L 364.625767 222.984466 
L 365.419414 240.926214 
L 367.006709 189.547573 
L 367.800356 190.363107 
L 368.594003 302.906796 
L 369.38765 201.780583 
L 370.181297 306.984466 
L 370.974944 307.8 
L 371.768591 270.285437 
L 372.562238 291.48932 
L 373.355885 256.421359 
L 374.149532 307.8 
L 378.117767 307.8 
L 378.911414 283.333981 
L 379.705061 307.8 
L 380.498708 307.8 
L 381.292355 306.168932 
L 382.086002 197.702913 
L 382.879649 307.8 
L 383.673296 293.120388 
L 384.466943 307.8 
L 386.847884 307.8 
L 387.641531 293.120388 
L 388.435178 307.8 
L 389.228825 307.8 
L 390.022472 187.100971 
L 390.816119 212.382524 
L 391.609767 144.693204 
L 392.403414 107.994175 
L 393.197061 198.518447 
L 393.990708 191.178641 
L 394.784355 191.994175 
L 395.578002 285.780583 
L 396.371649 234.401942 
L 397.165296 119.41165 
L 397.958943 246.634951 
L 398.75259 290.673786 
L 399.546237 191.178641 
L 400.339884 227.87767 
L 401.133531 254.790291 
L 401.927178 187.100971 
L 402.720825 247.450485 
L 403.514472 212.382524 
L 404.308119 281.702913 
L 405.101766 142.246602 
L 405.895413 116.965049 
L 406.68906 307.8 
L 407.482707 280.071845 
L 408.276354 231.139806 
L 409.070001 307.8 
L 411.450942 307.8 
L 412.244589 255.605825 
L 413.038236 267.023301 
L 413.831883 208.304854 
L 414.62553 297.198058 
L 415.419177 252.343689 
L 416.212824 263.761165 
L 417.006471 307.8 
L 417.800119 307.8 
L 418.593766 289.858252 
L 419.387413 307.8 
L 420.974707 307.8 
L 421.768354 262.945631 
L 422.562001 307.8 
L 423.355648 273.547573 
L 424.149295 307.8 
L 424.942942 298.829126 
L 426.530236 245.819417 
L 427.323883 307.8 
L 428.11753 170.790291 
L 428.911177 248.266019 
L 429.704824 184.654369 
L 430.498471 261.314563 
L 431.292118 289.042718 
L 432.085765 129.198058 
L 432.879412 291.48932 
L 433.673059 196.071845 
L 434.466706 228.693204 
L 435.260353 134.091262 
L 436.054 232.770874 
L 436.847647 250.712621 
L 437.641294 247.450485 
L 438.434941 242.557282 
L 439.228588 156.11068 
L 440.022235 231.139806 
L 440.815882 170.790291 
L 441.609529 255.605825 
L 442.403176 189.547573 
L 443.196824 98.207767 
L 443.990471 157.741748 
L 444.784118 141.431068 
L 445.577765 227.87767 
L 446.371412 191.994175 
L 447.165059 208.304854 
L 447.958706 307.8 
L 450.339647 307.8 
L 451.133294 274.363107 
L 451.926941 307.8 
L 452.720588 307.8 
L 453.514235 246.634951 
L 454.307882 307.8 
L 455.101529 307.8 
L 455.895176 280.887379 
L 456.688823 258.052427 
L 457.48247 307.8 
L 458.276117 261.314563 
L 459.069764 291.48932 
L 459.863411 307.8 
L 460.657058 199.333981 
L 461.450705 307.8 
L 462.244352 307.8 
L 463.037999 248.266019 
L 463.831646 232.770874 
L 464.625293 255.605825 
L 465.41894 302.091262 
L 466.212587 307.8 
L 467.006234 295.56699 
L 467.799881 307.8 
L 468.593529 169.974757 
L 469.387176 307.8 
L 470.180823 262.130097 
L 470.97447 196.887379 
L 471.768117 182.207767 
L 472.561764 302.091262 
L 473.355411 279.256311 
L 474.149058 167.528155 
L 474.942705 203.41165 
L 475.736352 283.333981 
L 476.529999 200.965049 
L 477.323646 170.790291 
L 478.117293 192.809709 
L 478.91094 210.751456 
L 479.704587 307.8 
L 480.498234 307.8 
L 481.291881 242.557282 
L 482.085528 253.974757 
L 482.879175 287.41165 
L 483.672822 300.460194 
L 484.466469 242.557282 
L 485.260116 232.770874 
L 486.053763 204.227184 
L 486.84741 294.751456 
L 487.641057 307.8 
L 488.434704 270.285437 
L 489.228351 264.576699 
L 490.021998 307.8 
L 490.815645 206.673786 
L 491.609292 293.120388 
L 492.402939 203.41165 
L 493.196586 307.8 
L 493.990233 307.8 
L 494.783881 280.887379 
L 495.577528 307.8 
L 496.371175 307.8 
L 497.164822 294.751456 
L 497.958469 307.8 
L 498.752116 226.246602 
L 499.545763 201.780583 
L 500.33941 255.605825 
L 501.133057 253.159223 
L 502.720351 191.994175 
L 503.513998 244.18835 
L 504.307645 307.8 
L 505.101292 242.557282 
L 505.894939 307.8 
L 506.688586 249.897087 
L 507.482233 144.693204 
L 509.069527 271.916505 
L 509.863174 195.256311 
L 510.656821 217.275728 
L 511.450468 115.333981 
L 512.244115 307.8 
L 513.037762 191.178641 
L 513.831409 307.8 
L 515.418703 177.314563 
L 516.21235 249.081553 
L 517.005997 230.324272 
L 517.799644 159.372816 
L 518.593291 289.042718 
L 519.386938 172.421359 
L 520.180586 197.702913 
L 520.974233 244.18835 
L 521.76788 184.654369 
L 522.561527 260.499029 
L 523.355174 252.343689 
L 524.148821 125.120388 
L 524.942468 307.8 
L 525.736115 231.95534 
L 526.529762 265.392233 
L 527.323409 307.8 
L 530.497997 307.8 
L 531.291644 282.518447 
L 532.085291 290.673786 
L 532.878938 307.8 
L 533.672585 300.460194 
L 534.466232 225.431068 
L 535.259879 307.8 
L 536.847173 307.8 
L 537.64082 306.984466 
L 538.434467 307.8 
L 539.228114 193.625243 
L 540.021761 307.8 
L 540.815408 307.8 
L 541.609055 280.071845 
L 542.402702 307.8 
L 543.196349 307.8 
L 543.989996 303.72233 
L 544.783643 289.042718 
L 545.577291 302.091262 
L 546.370938 307.8 
L 547.164585 180.576699 
L 547.958232 231.139806 
L 548.751879 307.8 
L 549.545526 143.87767 
L 550.339173 152.03301 
L 551.13282 229.508738 
L 551.926467 223.8 
L 552.720114 255.605825 
L 553.513761 190.363107 
L 554.307408 109.625243 
L 555.101055 245.003883 
L 555.894702 294.751456 
L 556.688349 291.48932 
L 557.481996 307.8 
L 558.275643 296.382524 
L 559.06929 218.906796 
L 559.862937 222.168932 
L 560.656584 169.159223 
L 561.450231 235.217476 
L 562.243878 116.149515 
L 563.037525 214.829126 
L 563.831172 210.751456 
L 564.624819 176.499029 
L 565.418466 229.508738 
L 566.212113 210.751456 
L 567.00576 136.537864 
L 567.799407 277.625243 
L 568.593054 307.8 
L 569.386701 307.8 
L 570.180348 300.460194 
L 570.973995 307.8 
L 572.56129 307.8 
L 573.354937 262.130097 
L 574.148584 257.236893 
L 574.942231 307.8 
L 575.735878 245.003883 
L 576.529525 217.275728 
L 577.323172 199.333981 
L 578.116819 307.8 
L 578.910466 261.314563 
L 579.704113 307.8 
L 580.49776 261.314563 
L 581.291407 280.071845 
L 582.085054 307.8 
L 582.878701 244.18835 
L 583.672348 267.838835 
L 584.465995 274.363107 
L 585.259642 307.8 
L 586.053289 302.091262 
L 586.846936 307.8 
L 587.640583 271.916505 
L 588.43423 214.013592 
L 589.227877 258.867961 
L 590.021524 231.95534 
L 590.815171 301.275728 
L 591.608818 125.935922 
L 592.402465 230.324272 
L 593.196112 275.178641 
L 593.989759 178.130097 
L 594.783406 188.732039 
L 595.577053 222.984466 
L 596.3707 195.256311 
L 597.164348 175.683495 
L 597.957995 218.906796 
L 598.751642 193.625243 
L 599.545289 307.8 
L 600.338936 227.062136 
L 601.132583 232.770874 
L 601.92623 233.586408 
L 602.719877 300.460194 
L 603.513524 254.790291 
L 604.307171 175.683495 
L 605.100818 291.48932 
L 605.894465 242.557282 
L 606.688112 180.576699 
L 607.481759 307.8 
L 611.449994 307.8 
L 612.243641 251.528155 
L 613.037288 171.605825 
L 614.624582 275.994175 
L 615.418229 278.440777 
L 616.211876 307.8 
L 619.386464 307.8 
L 620.180111 191.994175 
L 620.973758 307.8 
L 624.148347 307.8 
L 624.941994 293.120388 
L 625.735641 307.8 
L 626.529288 306.984466 
L 627.322935 236.848544 
L 628.116582 222.984466 
L 628.910229 121.042718 
L 629.703876 233.586408 
L 630.497523 183.023301 
L 631.29117 165.897087 
L 632.084817 238.479612 
L 632.878464 281.702913 
L 633.672111 258.867961 
L 634.465758 139.8 
L 635.259405 214.013592 
L 636.053052 178.945631 
L 636.846699 214.829126 
L 637.640346 223.8 
L 638.433993 256.421359 
L 639.22764 222.168932 
L 640.021287 261.314563 
L 640.814934 256.421359 
L 641.608581 174.052427 
L 642.402228 253.159223 
L 643.195875 206.673786 
L 643.989522 226.246602 
L 644.783169 195.256311 
L 645.576816 211.56699 
L 646.370463 147.139806 
L 647.16411 245.003883 
L 647.957757 268.654369 
L 648.751405 306.984466 
L 649.545052 307.8 
L 650.338699 262.130097 
L 651.132346 288.227184 
L 651.925993 307.8 
L 652.71964 307.8 
L 653.513287 240.926214 
L 654.306934 271.100971 
L 655.100581 214.013592 
L 655.894228 221.353398 
L 656.687875 224.615534 
L 657.481522 307.8 
L 658.275169 232.770874 
L 659.068816 307.8 
L 659.862463 296.382524 
L 660.65611 307.8 
L 662.243404 307.8 
L 663.037051 270.285437 
L 663.830698 307.8 
L 664.624345 173.236893 
L 665.417992 285.780583 
L 666.211639 234.401942 
L 667.005286 200.149515 
L 667.798933 242.557282 
L 668.59258 255.605825 
L 669.386227 224.615534 
L 670.179874 130.013592 
L 670.973521 172.421359 
L 672.560815 204.227184 
L 673.354462 171.605825 
L 674.14811 261.314563 
L 674.941757 214.829126 
L 675.735404 141.431068 
L 676.529051 243.372816 
L 677.322698 240.11068 
L 678.116345 203.41165 
L 678.909992 198.518447 
L 679.703639 260.499029 
L 680.497286 307.8 
L 681.290933 209.120388 
L 682.08458 169.159223 
L 682.878227 213.198058 
L 683.671874 209.120388 
L 684.465521 189.547573 
L 685.259168 198.518447 
L 686.052815 202.596117 
L 686.846462 114.518447 
L 687.640109 262.945631 
L 688.433756 295.56699 
L 689.227403 307.8 
L 690.02105 275.178641 
L 690.814697 307.8 
L 691.608344 307.8 
L 692.401991 270.285437 
L 693.195638 307.8 
L 693.989285 307.8 
L 694.782932 297.198058 
L 695.576579 307.8 
L 697.163873 307.8 
L 697.95752 227.062136 
L 698.751167 256.421359 
L 699.544815 276.809709 
L 700.338462 307.8 
L 704.306697 307.8 
L 705.100344 282.518447 
L 706.687638 299.64466 
L 707.481285 129.198058 
L 708.274932 249.897087 
L 709.068579 243.372816 
L 709.862226 183.838835 
L 710.655873 200.149515 
L 711.44952 191.178641 
L 712.243167 258.052427 
L 713.036814 253.974757 
L 713.830461 257.236893 
L 714.624108 306.984466 
L 715.417755 307.8 
L 716.211402 169.159223 
L 717.005049 155.295146 
L 717.798696 167.528155 
L 718.592343 268.654369 
L 719.38599 239.295146 
L 720.179637 196.071845 
L 721.766931 239.295146 
L 722.560578 280.071845 
L 723.354225 251.528155 
L 724.147872 211.56699 
L 724.941519 141.431068 
L 725.735167 219.72233 
L 726.528814 146.324272 
L 727.322461 269.469903 
L 728.116108 293.120388 
L 728.909755 210.751456 
L 729.703402 228.693204 
L 730.497049 307.8 
L 734.465284 307.8 
L 735.258931 266.207767 
L 736.052578 307.8 
L 736.846225 249.897087 
L 737.639872 216.460194 
L 738.433519 215.64466 
L 739.227166 247.450485 
L 740.020813 307.8 
L 740.81446 267.838835 
L 741.608107 299.64466 
L 742.401754 307.8 
L 743.195401 265.392233 
L 743.989048 256.421359 
L 744.782695 307.8 
L 746.369989 307.8 
L 747.163636 254.790291 
L 747.163636 254.790291 
" clip-path="url(#p0d8d0ebb29)" style="fill: none; stroke: #191970; stroke-width: 2; stroke-linecap: square"/>
   </g>
   <g id="patch_3">
    <path d="M 108 320.4 
L 108 43.2 
" style="fill: none; stroke: #000000; stroke-width: 0.8; stroke-linejoin: miter; stroke-linecap: square"/>
   </g>
   <g id="patch_4">
    <path d="M 777.6 320.4 
L 777.6 43.2 
" style="fill: none; stroke: #000000; stroke-width: 0.8; stroke-linejoin: miter; stroke-linecap: square"/>
   </g>
   <g id="patch_5">
    <path d="M 108 320.4 
L 777.6 320.4 
" style="fill: none; stroke: #000000; stroke-width: 0.8; stroke-linejoin: miter; stroke-linecap: square"/>
   </g>
   <g id="patch_6">
    <path d="M 108 43.2 
L 777.6 43.2 
" style="fill: none; stroke: #000000; stroke-width: 0.8; stroke-linejoin: miter; stroke-linecap: square"/>
   </g>
   <g id="text_19">
    <!-- TIME SERIES -->
    <g transform="translate(405.350625 37.2) scale(0.12 -0.12)">
     <defs>
      <path id="DejaVuSans-52" d="M 2841 2188 
Q 3044 2119 3236 1894 
Q 3428 1669 3622 1275 
L 4263 0 
L 3584 0 
L 2988 1197 
Q 2756 1666 2539 1819 
Q 2322 1972 1947 1972 
L 1259 1972 
L 1259 0 
L 628 0 
L 628 4666 
L 2053 4666 
Q 2853 4666 3247 4331 
Q 3641 3997 3641 3322 
Q 3641 2881 3436 2590 
Q 3231 2300 2841 2188 
z
M 1259 4147 
L 1259 2491 
L 2053 2491 
Q 2509 2491 2742 2702 
Q 2975 2913 2975 3322 
Q 2975 3731 2742 3939 
Q 2509 4147 2053 4147 
L 1259 4147 
z
" transform="scale(0.015625)"/>
     </defs>
     <use xlink:href="#DejaVuSans-54"/>
     <use xlink:href="#DejaVuSans-49" x="61.083984"/>
     <use xlink:href="#DejaVuSans-4d" x="90.576172"/>
     <use xlink:href="#DejaVuSans-45" x="176.855469"/>
     <use xlink:href="#DejaVuSans-20" x="240.039062"/>
     <use xlink:href="#DejaVuSans-53" x="271.826172"/>
     <use xlink:href="#DejaVuSans-45" x="335.302734"/>
     <use xlink:href="#DejaVuSans-52" x="398.486328"/>
     <use xlink:href="#DejaVuSans-49" x="467.96875"/>
     <use xlink:href="#DejaVuSans-45" x="497.460938"/>
     <use xlink:href="#DejaVuSans-53" x="560.644531"/>
    </g>
   </g>
  </g>
 </g>
 <defs>
  <clipPath id="p0d8d0ebb29">
   <rect x="108" y="43.2" width="669.6" height="277.2"/>
  </clipPath>
 </defs>
</svg>
